<?xml version="1.0" encoding="UTF-8" standalone="no"?>
<!DOCTYPE svg PUBLIC "-//W3C//DTD SVG 1.1//EN"
 "http://www.w3.org/Graphics/SVG/1.1/DTD/svg11.dtd">
<!-- Generated by graphviz version 2.43.0 (0)
 -->
<!-- Title: File Pages: 1 -->
<svg width="84pt" height="137pt"
 viewBox="0.00 0.00 84.00 137.00" xmlns="http://www.w3.org/2000/svg" xmlns:xlink="http://www.w3.org/1999/xlink">
<g id="graph0" class="graph" transform="scale(1 1) rotate(0) translate(4 133)">
<title>File</title>
<!-- Node1 -->
<g id="Node000001" class="node">
<title>Node1</title>
<g id="a_Node000001"><a xlink:title="File test class used to test the functionality of file.c.">
<polygon fill="#999999" stroke="#666666" points="55,-19 21,-19 21,0 55,0 55,-19"/>
<text text-anchor="middle" x="38" y="-7" font-family="Helvetica,sans-Serif" font-size="10.00">File</text>
</a>
</g>
</g>
<!-- Node2 -->
<g id="Node000002" class="node">
<title>Node2</title>
<g id="a_Node000002"><a xlink:href="class_base.html" target="_top" xlink:title="Base test class used to carry out memory leak checks.">
<polygon fill="white" stroke="#666666" points="58.5,-74 17.5,-74 17.5,-55 58.5,-55 58.5,-74"/>
<text text-anchor="middle" x="38" y="-62" font-family="Helvetica,sans-Serif" font-size="10.00">Base</text>
</a>
</g>
</g>
<!-- Node2&#45;&gt;Node1 -->
<g id="edge1_Node000001_Node000002" class="edge">
<title>Node2&#45;&gt;Node1</title>
<g id="a_edge1_Node000001_Node000002"><a xlink:title=" ">
<path fill="none" stroke="#63b8ff" d="M38,-44.66C38,-35.93 38,-25.99 38,-19.09"/>
<polygon fill="#63b8ff" stroke="#63b8ff" points="34.5,-44.75 38,-54.75 41.5,-44.75 34.5,-44.75"/>
</a>
</g>
</g>
<!-- Node3 -->
<g id="Node000003" class="node">
<title>Node3</title>
<g id="a_Node000003"><a xlink:title=" ">
<polygon fill="white" stroke="#bfbfbf" points="76,-129 0,-129 0,-110 76,-110 76,-129"/>
<text text-anchor="middle" x="38" y="-117" font-family="Helvetica,sans-Serif" font-size="10.00">testing::Test</text>
</a>
</g>
</g>
<!-- Node3&#45;&gt;Node2 -->
<g id="edge2_Node000002_Node000003" class="edge">
<title>Node3&#45;&gt;Node2</title>
<g id="a_edge2_Node000002_Node000003"><a xlink:title=" ">
<path fill="none" stroke="#63b8ff" d="M38,-99.66C38,-90.93 38,-80.99 38,-74.09"/>
<polygon fill="#63b8ff" stroke="#63b8ff" points="34.5,-99.75 38,-109.75 41.5,-99.75 34.5,-99.75"/>
</a>
</g>
</g>
</g>
</svg>
