<?xml version="1.0" encoding="UTF-8" standalone="no"?>
<!DOCTYPE svg PUBLIC "-//W3C//DTD SVG 1.1//EN"
 "http://www.w3.org/Graphics/SVG/1.1/DTD/svg11.dtd">
<!-- Generated by graphviz version 2.43.0 (0)
 -->
<!-- Title: FiftyoneDegrees::Common::ComponentMetaData Pages: 1 -->
<svg width="154pt" height="188pt"
 viewBox="0.00 0.00 154.00 188.00" xmlns="http://www.w3.org/2000/svg" xmlns:xlink="http://www.w3.org/1999/xlink">
<g id="graph0" class="graph" transform="scale(1 1) rotate(0) translate(4 184)">
<title>FiftyoneDegrees::Common::ComponentMetaData</title>
<!-- Node1 -->
<g id="Node000001" class="node">
<title>Node1</title>
<g id="a_Node000001"><a xlink:title="EntityMetaData relating to a component populated by an engine implementation.">
<polygon fill="#999999" stroke="#666666" points="146,-30 0,-30 0,0 146,0 146,-30"/>
<text text-anchor="start" x="8" y="-18" font-family="Helvetica,sans-Serif" font-size="10.00">FiftyoneDegrees::Common</text>
<text text-anchor="middle" x="73" y="-7" font-family="Helvetica,sans-Serif" font-size="10.00">::ComponentMetaData</text>
</a>
</g>
</g>
<!-- Node2 -->
<g id="Node000002" class="node">
<title>Node2</title>
<g id="a_Node000002"><a xlink:href="class_fiftyone_degrees_1_1_common_1_1_entity_meta_data.html" target="_top" xlink:title=" ">
<polygon fill="white" stroke="#666666" points="146,-97 0,-97 0,-67 146,-67 146,-97"/>
<text text-anchor="start" x="8" y="-85" font-family="Helvetica,sans-Serif" font-size="10.00">FiftyoneDegrees::Common</text>
<text text-anchor="middle" x="73" y="-74" font-family="Helvetica,sans-Serif" font-size="10.00">::EntityMetaData&lt; byte &gt;</text>
</a>
</g>
</g>
<!-- Node2&#45;&gt;Node1 -->
<g id="edge1_Node000001_Node000002" class="edge">
<title>Node2&#45;&gt;Node1</title>
<g id="a_edge1_Node000001_Node000002"><a xlink:title=" ">
<path fill="none" stroke="#63b8ff" d="M73,-56.61C73,-47.65 73,-37.82 73,-30.08"/>
<polygon fill="#63b8ff" stroke="#63b8ff" points="69.5,-56.9 73,-66.9 76.5,-56.9 69.5,-56.9"/>
</a>
</g>
</g>
<!-- Node3 -->
<g id="Node000003" class="node">
<title>Node3</title>
<g id="a_Node000003"><a xlink:href="class_fiftyone_degrees_1_1_common_1_1_entity_meta_data.html" target="_top" xlink:title="Base class for any entity meta data.">
<polygon fill="white" stroke="#666666" points="146,-180 0,-180 0,-150 146,-150 146,-180"/>
<text text-anchor="start" x="8" y="-168" font-family="Helvetica,sans-Serif" font-size="10.00">FiftyoneDegrees::Common</text>
<text text-anchor="middle" x="73" y="-157" font-family="Helvetica,sans-Serif" font-size="10.00">::EntityMetaData&lt; K &gt;</text>
</a>
</g>
</g>
<!-- Node3&#45;&gt;Node2 -->
<g id="edge2_Node000002_Node000003" class="edge">
<title>Node3&#45;&gt;Node2</title>
<g id="a_edge2_Node000002_Node000003"><a xlink:title=" ">
<path fill="none" stroke="orange" stroke-dasharray="5,2" d="M73,-139.59C73,-125.75 73,-108.91 73,-97.22"/>
<polygon fill="orange" stroke="orange" points="69.5,-139.89 73,-149.89 76.5,-139.89 69.5,-139.89"/>
</a>
</g>
<text text-anchor="start" x="76.5" y="-120.5" font-family="Helvetica,sans-Serif" font-size="10.00" fill="grey">&lt; byte &gt;</text>
</g>
</g>
</svg>
