<?xml version="1.0" encoding="UTF-8" standalone="no"?>
<!DOCTYPE svg PUBLIC "-//W3C//DTD SVG 1.1//EN"
 "http://www.w3.org/Graphics/SVG/1.1/DTD/svg11.dtd">
<!-- Generated by graphviz version 2.43.0 (0)
 -->
<!-- Title: FiftyoneDegrees::Examples::IpIntelligence::ExampleBase::SharedState Pages: 1 -->
<svg width="1449pt" height="276pt"
 viewBox="0.00 0.00 1449.00 275.50" xmlns="http://www.w3.org/2000/svg" xmlns:xlink="http://www.w3.org/1999/xlink">
<g id="graph0" class="graph" transform="scale(1 1) rotate(0) translate(4 271.5)">
<title>FiftyoneDegrees::Examples::IpIntelligence::ExampleBase::SharedState</title>
<!-- Node1 -->
<g id="node1" class="node">
<title>Node1</title>
<g id="a_node1"><a xlink:title="State containing the states for all threads running in a multi&#45;threaded example .">
<polygon fill="#bfbfbf" stroke="black" points="1280,-188 1280,-229 1441,-229 1441,-188 1280,-188"/>
<text text-anchor="start" x="1288" y="-217" font-family="Helvetica,sans-Serif" font-size="10.00">FiftyoneDegrees::Examples</text>
<text text-anchor="start" x="1288" y="-206" font-family="Helvetica,sans-Serif" font-size="10.00">::IpIntelligence::ExampleBase</text>
<text text-anchor="middle" x="1360.5" y="-195" font-family="Helvetica,sans-Serif" font-size="10.00">::SharedState</text>
</a>
</g>
</g>
<!-- Node2 -->
<g id="node2" class="node">
<title>Node2</title>
<g id="a_node2"><a xlink:title=" ">
<polygon fill="none" stroke="#bfbfbf" points="539,-248 539,-267 583,-267 583,-248 539,-248"/>
<text text-anchor="middle" x="561" y="-255" font-family="Helvetica,sans-Serif" font-size="10.00">string</text>
</a>
</g>
</g>
<!-- Node2&#45;&gt;Node1 -->
<g id="edge1" class="edge">
<title>Node2&#45;&gt;Node1</title>
<path fill="none" stroke="#9a32cd" stroke-dasharray="5,2" d="M593.29,-257.82C686.5,-258.46 970.33,-258.08 1204,-233.5 1228.75,-230.9 1255.55,-226.99 1279.82,-223.03"/>
<polygon fill="#9a32cd" stroke="#9a32cd" points="593.16,-254.32 583.13,-257.74 593.11,-261.32 593.16,-254.32"/>
<text text-anchor="middle" x="973" y="-254.5" font-family="Helvetica,sans-Serif" font-size="10.00"> ipAddressFilePath</text>
</g>
<!-- Node5 -->
<g id="node5" class="node">
<title>Node5</title>
<g id="a_node5"><a xlink:href="class_fiftyone_degrees_1_1_common_1_1_engine_base.html" target="_top" xlink:title="Encapsulates the engine class to be extended by engine implementations.">
<polygon fill="none" stroke="black" points="764,-140.5 764,-170.5 910,-170.5 910,-140.5 764,-140.5"/>
<text text-anchor="start" x="772" y="-158.5" font-family="Helvetica,sans-Serif" font-size="10.00">FiftyoneDegrees::Common</text>
<text text-anchor="middle" x="837" y="-147.5" font-family="Helvetica,sans-Serif" font-size="10.00">::EngineBase</text>
</a>
</g>
</g>
<!-- Node2&#45;&gt;Node5 -->
<g id="edge10" class="edge">
<title>Node2&#45;&gt;Node5</title>
<path fill="none" stroke="#9a32cd" stroke-dasharray="5,2" d="M592.75,-244.82C610,-237.98 632,-229.7 652,-223.5 693.08,-210.77 705.62,-215.32 746,-200.5 768.14,-192.37 791.96,-180.3 809.53,-170.71"/>
<polygon fill="#9a32cd" stroke="#9a32cd" points="591.18,-241.68 583.2,-248.66 593.79,-248.18 591.18,-241.68"/>
<text text-anchor="middle" x="699" y="-248.5" font-family="Helvetica,sans-Serif" font-size="10.00"> defaultDataKey</text>
<text text-anchor="middle" x="699" y="-237.5" font-family="Helvetica,sans-Serif" font-size="10.00">licenceKey</text>
<text text-anchor="middle" x="699" y="-226.5" font-family="Helvetica,sans-Serif" font-size="10.00">updateUrl</text>
</g>
<!-- Node3 -->
<g id="node3" class="node">
<title>Node3</title>
<g id="a_node3"><a xlink:title=" ">
<polygon fill="none" stroke="#bfbfbf" points="1096,-155 1096,-174 1144,-174 1144,-155 1096,-155"/>
<text text-anchor="middle" x="1120" y="-162" font-family="Helvetica,sans-Serif" font-size="10.00">thread</text>
</a>
</g>
</g>
<!-- Node3&#45;&gt;Node1 -->
<g id="edge2" class="edge">
<title>Node3&#45;&gt;Node1</title>
<path fill="none" stroke="#9a32cd" stroke-dasharray="5,2" d="M1154.14,-170.61C1186.5,-176.58 1236.98,-185.9 1279.8,-193.8"/>
<polygon fill="#9a32cd" stroke="#9a32cd" points="1154.77,-167.17 1144.3,-168.8 1153.5,-174.06 1154.77,-167.17"/>
<text text-anchor="middle" x="1242" y="-193.5" font-family="Helvetica,sans-Serif" font-size="10.00"> threads</text>
</g>
<!-- Node4 -->
<g id="node4" class="node">
<title>Node4</title>
<g id="a_node4"><a xlink:href="class_fiftyone_degrees_1_1_ip_intelligence_1_1_engine_ipi.html" target="_top" xlink:title="Encapsulates the IP Intelligence engine class which implements EngineBase.">
<polygon fill="none" stroke="black" points="1036,-193.5 1036,-223.5 1204,-223.5 1204,-193.5 1036,-193.5"/>
<text text-anchor="start" x="1044" y="-211.5" font-family="Helvetica,sans-Serif" font-size="10.00">FiftyoneDegrees::IpIntelligence</text>
<text text-anchor="middle" x="1120" y="-200.5" font-family="Helvetica,sans-Serif" font-size="10.00">::EngineIpi</text>
</a>
</g>
</g>
<!-- Node4&#45;&gt;Node1 -->
<g id="edge3" class="edge">
<title>Node4&#45;&gt;Node1</title>
<path fill="none" stroke="#9a32cd" stroke-dasharray="5,2" d="M1214.29,-208.5C1235.98,-208.5 1258.89,-208.5 1279.93,-208.5"/>
<polygon fill="#9a32cd" stroke="#9a32cd" points="1214.08,-205 1204.08,-208.5 1214.08,-212 1214.08,-205"/>
<text text-anchor="middle" x="1242" y="-211.5" font-family="Helvetica,sans-Serif" font-size="10.00"> engine</text>
</g>
<!-- Node5&#45;&gt;Node4 -->
<g id="edge4" class="edge">
<title>Node5&#45;&gt;Node4</title>
<path fill="none" stroke="midnightblue" d="M920.27,-171.02C957.86,-178.11 1002.21,-186.47 1039.47,-193.5"/>
<polygon fill="midnightblue" stroke="midnightblue" points="920.84,-167.56 910.36,-169.15 919.54,-174.44 920.84,-167.56"/>
</g>
<!-- Node6 -->
<g id="node6" class="node">
<title>Node6</title>
<g id="a_node6"><a xlink:href="class_fiftyone_degrees_1_1_common_1_1_required_properties_config.html" target="_top" xlink:title="C++ class wrapper for the fiftyoneDegreesPropertiesRequired structure.">
<polygon fill="none" stroke="black" points="488,-185.5 488,-215.5 634,-215.5 634,-185.5 488,-185.5"/>
<text text-anchor="start" x="496" y="-203.5" font-family="Helvetica,sans-Serif" font-size="10.00">FiftyoneDegrees::Common</text>
<text text-anchor="middle" x="561" y="-192.5" font-family="Helvetica,sans-Serif" font-size="10.00">::RequiredPropertiesConfig</text>
</a>
</g>
</g>
<!-- Node6&#45;&gt;Node5 -->
<g id="edge5" class="edge">
<title>Node6&#45;&gt;Node5</title>
<path fill="none" stroke="#9a32cd" stroke-dasharray="5,2" d="M644.36,-186.97C682.36,-180.73 727.05,-173.39 763.72,-167.37"/>
<polygon fill="#9a32cd" stroke="#9a32cd" points="643.65,-183.54 634.35,-188.62 644.78,-190.45 643.65,-183.54"/>
<text text-anchor="middle" x="699" y="-188.5" font-family="Helvetica,sans-Serif" font-size="10.00"> requiredProperties</text>
</g>
<!-- Node7 -->
<g id="node7" class="node">
<title>Node7</title>
<g id="a_node7"><a xlink:title=" ">
<polygon fill="none" stroke="#bfbfbf" points="241,-127.5 241,-157.5 398,-157.5 398,-127.5 241,-127.5"/>
<text text-anchor="start" x="249" y="-145.5" font-family="Helvetica,sans-Serif" font-size="10.00">shared_ptr&lt; fiftyoneDegrees</text>
<text text-anchor="middle" x="319.5" y="-134.5" font-family="Helvetica,sans-Serif" font-size="10.00">ResourceManager &gt;</text>
</a>
</g>
</g>
<!-- Node7&#45;&gt;Node5 -->
<g id="edge6" class="edge">
<title>Node7&#45;&gt;Node5</title>
<path fill="none" stroke="#9a32cd" stroke-dasharray="5,2" d="M408.34,-144.72C508.6,-147.24 670.71,-151.33 763.88,-153.68"/>
<polygon fill="#9a32cd" stroke="#9a32cd" points="408.32,-141.21 398.23,-144.46 408.14,-148.21 408.32,-141.21"/>
<text text-anchor="middle" x="561" y="-153.5" font-family="Helvetica,sans-Serif" font-size="10.00"> manager</text>
</g>
<!-- Node11 -->
<g id="node11" class="node">
<title>Node11</title>
<g id="a_node11"><a xlink:href="class_fiftyone_degrees_1_1_common_1_1_meta_data.html" target="_top" xlink:title="Contains meta data for the properties, values, profiles and components that exist within the engine i...">
<polygon fill="none" stroke="black" points="488,-88.5 488,-118.5 634,-118.5 634,-88.5 488,-88.5"/>
<text text-anchor="start" x="496" y="-106.5" font-family="Helvetica,sans-Serif" font-size="10.00">FiftyoneDegrees::Common</text>
<text text-anchor="middle" x="561" y="-95.5" font-family="Helvetica,sans-Serif" font-size="10.00">::MetaData</text>
</a>
</g>
</g>
<!-- Node7&#45;&gt;Node11 -->
<g id="edge12" class="edge">
<title>Node7&#45;&gt;Node11</title>
<path fill="none" stroke="#9a32cd" stroke-dasharray="5,2" d="M408.18,-128.22C434.4,-123.95 462.82,-119.32 487.91,-115.24"/>
<polygon fill="#9a32cd" stroke="#9a32cd" points="407.57,-124.78 398.26,-129.84 408.69,-131.69 407.57,-124.78"/>
<text text-anchor="middle" x="443" y="-129.5" font-family="Helvetica,sans-Serif" font-size="10.00"> manager</text>
</g>
<!-- Node8 -->
<g id="node8" class="node">
<title>Node8</title>
<g id="a_node8"><a xlink:title=" ">
<polygon fill="none" stroke="#bfbfbf" points="0,-133 0,-152 68,-152 68,-133 0,-133"/>
<text text-anchor="middle" x="34" y="-140" font-family="Helvetica,sans-Serif" font-size="10.00">shared_ptr</text>
</a>
</g>
</g>
<!-- Node8&#45;&gt;Node7 -->
<g id="edge7" class="edge">
<title>Node8&#45;&gt;Node7</title>
<path fill="none" stroke="orange" stroke-dasharray="5,2" d="M78.22,-142.5C121.31,-142.5 188.44,-142.5 240.8,-142.5"/>
<polygon fill="orange" stroke="orange" points="78.08,-139 68.08,-142.5 78.08,-146 78.08,-139"/>
<text text-anchor="start" x="86" y="-156.5" font-family="Helvetica,sans-Serif" font-size="10.00"> &lt; fiftyoneDegreesResource</text>
<text text-anchor="middle" x="154.5" y="-145.5" font-family="Helvetica,sans-Serif" font-size="10.00">Manager &gt;</text>
</g>
<!-- Node9 -->
<g id="node9" class="node">
<title>Node9</title>
<g id="a_node9"><a xlink:title=" ">
<polygon fill="none" stroke="#bfbfbf" points="512,-50 512,-69 610,-69 610,-50 512,-50"/>
<text text-anchor="middle" x="561" y="-57" font-family="Helvetica,sans-Serif" font-size="10.00">vector&lt; string &gt;</text>
</a>
</g>
</g>
<!-- Node9&#45;&gt;Node5 -->
<g id="edge8" class="edge">
<title>Node9&#45;&gt;Node5</title>
<path fill="none" stroke="#9a32cd" stroke-dasharray="5,2" d="M620.28,-67.45C657.23,-73.7 705.5,-84.14 746,-100.5 771.47,-110.79 797.99,-127.9 815.59,-140.31"/>
<polygon fill="#9a32cd" stroke="#9a32cd" points="620.62,-63.95 610.18,-65.79 619.48,-70.86 620.62,-63.95"/>
<text text-anchor="middle" x="699" y="-103.5" font-family="Helvetica,sans-Serif" font-size="10.00"> keys</text>
</g>
<!-- Node10 -->
<g id="node10" class="node">
<title>Node10</title>
<g id="a_node10"><a xlink:title=" ">
<polygon fill="none" stroke="#bfbfbf" points="296,-50 296,-69 343,-69 343,-50 296,-50"/>
<text text-anchor="middle" x="319.5" y="-57" font-family="Helvetica,sans-Serif" font-size="10.00">vector</text>
</a>
</g>
</g>
<!-- Node10&#45;&gt;Node9 -->
<g id="edge9" class="edge">
<title>Node10&#45;&gt;Node9</title>
<path fill="none" stroke="orange" stroke-dasharray="5,2" d="M353.27,-59.5C394.24,-59.5 464.69,-59.5 511.81,-59.5"/>
<polygon fill="orange" stroke="orange" points="353.03,-56 343.03,-59.5 353.03,-63 353.03,-56"/>
<text text-anchor="middle" x="443" y="-62.5" font-family="Helvetica,sans-Serif" font-size="10.00"> &lt; string &gt;</text>
</g>
<!-- Node11&#45;&gt;Node5 -->
<g id="edge11" class="edge">
<title>Node11&#45;&gt;Node5</title>
<path fill="none" stroke="#9a32cd" stroke-dasharray="5,2" d="M644.21,-113.32C676.15,-117.72 712.94,-123.51 746,-130.5 759.17,-133.28 773.26,-136.89 786.29,-140.49"/>
<polygon fill="#9a32cd" stroke="#9a32cd" points="644.4,-109.82 634.02,-111.94 643.46,-116.75 644.4,-109.82"/>
<text text-anchor="middle" x="699" y="-133.5" font-family="Helvetica,sans-Serif" font-size="10.00"> metaData</text>
</g>
<!-- Node12 -->
<g id="node12" class="node">
<title>Node12</title>
<g id="a_node12"><a xlink:href="class_fiftyone_degrees_1_1_common_1_1_config_base.html" target="_top" xlink:title="C++ class wrapper for the fiftyoneDegreesConfigBase configuration structure.">
<polygon fill="none" stroke="black" points="488,-0.5 488,-30.5 634,-30.5 634,-0.5 488,-0.5"/>
<text text-anchor="start" x="496" y="-18.5" font-family="Helvetica,sans-Serif" font-size="10.00">FiftyoneDegrees::Common</text>
<text text-anchor="middle" x="561" y="-7.5" font-family="Helvetica,sans-Serif" font-size="10.00">::ConfigBase</text>
</a>
</g>
</g>
<!-- Node12&#45;&gt;Node5 -->
<g id="edge13" class="edge">
<title>Node12&#45;&gt;Node5</title>
<path fill="none" stroke="#9a32cd" stroke-dasharray="5,2" d="M644.39,-24.11C677.62,-30.21 715.28,-40.66 746,-58.5 781.76,-79.27 811.73,-118.79 826.37,-140.42"/>
<polygon fill="#9a32cd" stroke="#9a32cd" points="644.69,-20.6 634.24,-22.35 643.49,-27.5 644.69,-20.6"/>
<text text-anchor="middle" x="699" y="-61.5" font-family="Helvetica,sans-Serif" font-size="10.00"> config</text>
</g>
</g>
</svg>
