<?xml version="1.0" encoding="UTF-8" standalone="no"?>
<!DOCTYPE svg PUBLIC "-//W3C//DTD SVG 1.1//EN"
 "http://www.w3.org/Graphics/SVG/1.1/DTD/svg11.dtd">
<!-- Generated by graphviz version 2.43.0 (0)
 -->
<!-- Title: StoredBinaryValues Pages: 1 -->
<svg width="587pt" height="195pt"
 viewBox="0.00 0.00 587.00 194.50" xmlns="http://www.w3.org/2000/svg" xmlns:xlink="http://www.w3.org/1999/xlink">
<g id="graph0" class="graph" transform="scale(1 1) rotate(0) translate(4 190.5)">
<title>StoredBinaryValues</title>
<!-- Node1 -->
<g id="Node000001" class="node">
<title>Node1</title>
<g id="a_Node000001"><a xlink:title=" ">
<polygon fill="#999999" stroke="#666666" points="579,-125.5 467,-125.5 467,-106.5 579,-106.5 579,-125.5"/>
<text text-anchor="middle" x="523" y="-113.5" font-family="Helvetica,sans-Serif" font-size="10.00">StoredBinaryValues</text>
</a>
</g>
</g>
<!-- Node2 -->
<g id="Node000002" class="node">
<title>Node2</title>
<g id="a_Node000002"><a xlink:href="class_base.html" target="_top" xlink:title="Base test class used to carry out memory leak checks.">
<polygon fill="white" stroke="#666666" points="295.5,-186.5 254.5,-186.5 254.5,-167.5 295.5,-167.5 295.5,-186.5"/>
<text text-anchor="middle" x="275" y="-174.5" font-family="Helvetica,sans-Serif" font-size="10.00">Base</text>
</a>
</g>
</g>
<!-- Node2&#45;&gt;Node1 -->
<g id="edge1_Node000001_Node000002" class="edge">
<title>Node2&#45;&gt;Node1</title>
<g id="a_edge1_Node000001_Node000002"><a xlink:title=" ">
<path fill="none" stroke="#63b8ff" d="M305.48,-173.66C340.26,-169.27 399.62,-160.39 449,-146 467.42,-140.63 487.52,-132.16 501.96,-125.59"/>
<polygon fill="#63b8ff" stroke="#63b8ff" points="305.01,-170.19 295.51,-174.88 305.86,-177.14 305.01,-170.19"/>
</a>
</g>
</g>
<!-- Node3 -->
<g id="Node000003" class="node">
<title>Node3</title>
<g id="a_Node000003"><a xlink:title=" ">
<polygon fill="white" stroke="#bfbfbf" points="109.5,-186.5 33.5,-186.5 33.5,-167.5 109.5,-167.5 109.5,-186.5"/>
<text text-anchor="middle" x="71.5" y="-174.5" font-family="Helvetica,sans-Serif" font-size="10.00">testing::Test</text>
</a>
</g>
</g>
<!-- Node3&#45;&gt;Node2 -->
<g id="edge2_Node000002_Node000003" class="edge">
<title>Node3&#45;&gt;Node2</title>
<g id="a_edge2_Node000002_Node000003"><a xlink:title=" ">
<path fill="none" stroke="#63b8ff" d="M120.13,-177C162.94,-177 223.69,-177 254.48,-177"/>
<polygon fill="#63b8ff" stroke="#63b8ff" points="119.93,-173.5 109.93,-177 119.93,-180.5 119.93,-173.5"/>
</a>
</g>
</g>
<!-- Node4 -->
<g id="Node000004" class="node">
<title>Node4</title>
<g id="a_Node000004"><a xlink:href="struct_stored_binary_values_1_1_file_props.html" target="_top" xlink:title=" ">
<polygon fill="white" stroke="#bfbfbf" points="331,-96 219,-96 219,-66 331,-66 331,-96"/>
<text text-anchor="start" x="227" y="-84" font-family="Helvetica,sans-Serif" font-size="10.00">StoredBinaryValues</text>
<text text-anchor="middle" x="275" y="-73" font-family="Helvetica,sans-Serif" font-size="10.00">::FileProps</text>
</a>
</g>
</g>
<!-- Node4&#45;&gt;Node1 -->
<g id="edge3_Node000001_Node000004" class="edge">
<title>Node4&#45;&gt;Node1</title>
<g id="a_edge3_Node000001_Node000004"><a xlink:title=" ">
<path fill="none" stroke="#9a32cd" stroke-dasharray="5,2" d="M341.37,-87.19C373.82,-90.61 413.58,-95.32 449,-101 458.71,-102.56 469.09,-104.51 478.88,-106.49"/>
<polygon fill="#9a32cd" stroke="#9a32cd" points="341.41,-83.68 331.1,-86.13 340.68,-90.64 341.41,-83.68"/>
</a>
</g>
<text text-anchor="start" x="391" y="-106.5" font-family="Helvetica,sans-Serif" font-size="10.00" fill="grey">file</text>
</g>
<!-- Node5 -->
<g id="Node000005" class="node">
<title>Node5</title>
<g id="a_Node000005"><a xlink:href="structfiftyone_degrees_collection_header.html" target="_top" xlink:title="Collection header structure which defines the size and location of the collection data.">
<polygon fill="white" stroke="#666666" points="143,-127 0,-127 0,-97 143,-97 143,-127"/>
<text text-anchor="start" x="8" y="-115" font-family="Helvetica,sans-Serif" font-size="10.00">fiftyoneDegreesCollection</text>
<text text-anchor="middle" x="71.5" y="-104" font-family="Helvetica,sans-Serif" font-size="10.00">Header</text>
</a>
</g>
</g>
<!-- Node5&#45;&gt;Node1 -->
<g id="edge5_Node000001_Node000005" class="edge">
<title>Node5&#45;&gt;Node1</title>
<g id="a_edge5_Node000001_Node000005"><a xlink:title=" ">
<path fill="none" stroke="#9a32cd" stroke-dasharray="5,2" d="M153.22,-117.7C155.84,-117.81 158.44,-117.91 161,-118 269.36,-121.67 396.13,-119.47 466.94,-117.65"/>
<polygon fill="#9a32cd" stroke="#9a32cd" points="153.16,-114.19 143.01,-117.21 152.83,-121.19 153.16,-114.19"/>
</a>
</g>
<text text-anchor="start" x="258" y="-124.5" font-family="Helvetica,sans-Serif" font-size="10.00" fill="grey">header</text>
</g>
<!-- Node5&#45;&gt;Node4 -->
<g id="edge4_Node000004_Node000005" class="edge">
<title>Node5&#45;&gt;Node4</title>
<g id="a_edge4_Node000004_Node000005"><a xlink:title=" ">
<path fill="none" stroke="#9a32cd" stroke-dasharray="5,2" d="M153.28,-99.57C175.33,-96.18 198.7,-92.58 218.95,-89.47"/>
<polygon fill="#9a32cd" stroke="#9a32cd" points="152.61,-96.13 143.26,-101.11 153.67,-103.05 152.61,-96.13"/>
</a>
</g>
<text text-anchor="start" x="164" y="-104.5" font-family="Helvetica,sans-Serif" font-size="10.00" fill="grey">header</text>
</g>
<!-- Node6 -->
<g id="Node000006" class="node">
<title>Node6</title>
<g id="a_Node000006"><a xlink:href="struct_file_collection_box.html" target="_top" xlink:title=" ">
<polygon fill="white" stroke="#bfbfbf" points="325.5,-24.5 224.5,-24.5 224.5,-5.5 325.5,-5.5 325.5,-24.5"/>
<text text-anchor="middle" x="275" y="-12.5" font-family="Helvetica,sans-Serif" font-size="10.00">FileCollectionBox</text>
</a>
</g>
</g>
<!-- Node6&#45;&gt;Node1 -->
<g id="edge6_Node000001_Node000006" class="edge">
<title>Node6&#45;&gt;Node1</title>
<g id="a_edge6_Node000001_Node000006"><a xlink:title=" ">
<path fill="none" stroke="#9a32cd" stroke-dasharray="5,2" d="M335.83,-5.85C370.7,-3.34 414.46,-5.2 449,-23 484.95,-41.52 508.8,-86.61 517.88,-106.41"/>
<polygon fill="#9a32cd" stroke="#9a32cd" points="335.45,-2.37 325.79,-6.71 336.05,-9.35 335.45,-2.37"/>
</a>
</g>
<text text-anchor="start" x="352" y="-74" font-family="Helvetica,sans-Serif" font-size="10.00" fill="grey">fileCache</text>
<text text-anchor="start" x="352" y="-59" font-family="Helvetica,sans-Serif" font-size="10.00" fill="grey">fileLoadedCache</text>
<text text-anchor="start" x="352" y="-44" font-family="Helvetica,sans-Serif" font-size="10.00" fill="grey">fileLoadedNoCache</text>
<text text-anchor="start" x="352" y="-29" font-family="Helvetica,sans-Serif" font-size="10.00" fill="grey">fileNoCache</text>
</g>
<!-- Node7 -->
<g id="Node000007" class="node">
<title>Node7</title>
<g id="a_Node000007"><a xlink:href="structfiftyone_degrees_collection_config.html" target="_top" xlink:title="Collection configuration structure which defines how the collection should be created by the create m...">
<polygon fill="white" stroke="#666666" points="143,-30 0,-30 0,0 143,0 143,-30"/>
<text text-anchor="start" x="8" y="-18" font-family="Helvetica,sans-Serif" font-size="10.00">fiftyoneDegreesCollection</text>
<text text-anchor="middle" x="71.5" y="-7" font-family="Helvetica,sans-Serif" font-size="10.00">Config</text>
</a>
</g>
</g>
<!-- Node7&#45;&gt;Node6 -->
<g id="edge7_Node000006_Node000007" class="edge">
<title>Node7&#45;&gt;Node6</title>
<g id="a_edge7_Node000006_Node000007"><a xlink:title=" ">
<path fill="none" stroke="#9a32cd" stroke-dasharray="5,2" d="M153.42,-15C177.4,-15 202.94,-15 224.31,-15"/>
<polygon fill="#9a32cd" stroke="#9a32cd" points="153.26,-11.5 143.26,-15 153.26,-18.5 153.26,-11.5"/>
</a>
</g>
<text text-anchor="start" x="166" y="-20.5" font-family="Helvetica,sans-Serif" font-size="10.00" fill="grey">config</text>
</g>
</g>
</svg>
