<?xml version="1.0" encoding="UTF-8" standalone="no"?>
<!DOCTYPE svg PUBLIC "-//W3C//DTD SVG 1.1//EN"
 "http://www.w3.org/Graphics/SVG/1.1/DTD/svg11.dtd">
<!-- Generated by graphviz version 2.43.0 (0)
 -->
<!-- Title: FiftyoneDegrees::IpIntelligence::EvidenceIpi Pages: 1 -->
<svg width="183pt" height="233pt"
 viewBox="0.00 0.00 183.00 233.00" xmlns="http://www.w3.org/2000/svg" xmlns:xlink="http://www.w3.org/1999/xlink">
<g id="graph0" class="graph" transform="scale(1 1) rotate(0) translate(4 229)">
<title>FiftyoneDegrees::IpIntelligence::EvidenceIpi</title>
<!-- Node1 -->
<g id="Node000001" class="node">
<title>Node1</title>
<g id="a_Node000001"><a xlink:title="IP Intelligence specific evidence class containing evidence to be processed by an IP intelligence eng...">
<polygon fill="#999999" stroke="#666666" points="168,-30 0,-30 0,0 168,0 168,-30"/>
<text text-anchor="start" x="8" y="-18" font-family="Helvetica,sans-Serif" font-size="10.00">FiftyoneDegrees::IpIntelligence</text>
<text text-anchor="middle" x="84" y="-7" font-family="Helvetica,sans-Serif" font-size="10.00">::EvidenceIpi</text>
</a>
</g>
</g>
<!-- Node2 -->
<g id="Node000002" class="node">
<title>Node2</title>
<g id="a_Node000002"><a xlink:href="class_fiftyone_degrees_1_1_common_1_1_evidence_base.html" target="_top" xlink:title="Base evidence class containing evidence to be processed by an engine.">
<polygon fill="white" stroke="#666666" points="157,-97 11,-97 11,-67 157,-67 157,-97"/>
<text text-anchor="start" x="19" y="-85" font-family="Helvetica,sans-Serif" font-size="10.00">FiftyoneDegrees::Common</text>
<text text-anchor="middle" x="84" y="-74" font-family="Helvetica,sans-Serif" font-size="10.00">::EvidenceBase</text>
</a>
</g>
</g>
<!-- Node2&#45;&gt;Node1 -->
<g id="edge1_Node000001_Node000002" class="edge">
<title>Node2&#45;&gt;Node1</title>
<g id="a_edge1_Node000001_Node000002"><a xlink:title=" ">
<path fill="none" stroke="#63b8ff" d="M84,-56.61C84,-47.65 84,-37.82 84,-30.08"/>
<polygon fill="#63b8ff" stroke="#63b8ff" points="80.5,-56.9 84,-66.9 87.5,-56.9 80.5,-56.9"/>
</a>
</g>
</g>
<!-- Node3 -->
<g id="Node000003" class="node">
<title>Node3</title>
<g id="a_Node000003"><a xlink:href="structmap.html" target="_top" xlink:title=" ">
<polygon fill="white" stroke="#bfbfbf" points="145,-153 23,-153 23,-134 145,-134 145,-153"/>
<text text-anchor="middle" x="84" y="-141" font-family="Helvetica,sans-Serif" font-size="10.00">map&lt; string, string &gt;</text>
</a>
</g>
</g>
<!-- Node3&#45;&gt;Node2 -->
<g id="edge2_Node000002_Node000003" class="edge">
<title>Node3&#45;&gt;Node2</title>
<g id="a_edge2_Node000002_Node000003"><a xlink:title=" ">
<path fill="none" stroke="#63b8ff" d="M84,-123.73C84,-115.09 84,-105 84,-97.02"/>
<polygon fill="#63b8ff" stroke="#63b8ff" points="80.5,-123.98 84,-133.98 87.5,-123.98 80.5,-123.98"/>
</a>
</g>
</g>
<!-- Node4 -->
<g id="Node000004" class="node">
<title>Node4</title>
<g id="a_Node000004"><a xlink:href="structmap.html" target="_top" xlink:title=" ">
<polygon fill="white" stroke="#bfbfbf" points="103,-225 65,-225 65,-206 103,-206 103,-225"/>
<text text-anchor="middle" x="84" y="-213" font-family="Helvetica,sans-Serif" font-size="10.00">map</text>
</a>
</g>
</g>
<!-- Node4&#45;&gt;Node3 -->
<g id="edge3_Node000003_Node000004" class="edge">
<title>Node4&#45;&gt;Node3</title>
<g id="a_edge3_Node000003_Node000004"><a xlink:title=" ">
<path fill="none" stroke="orange" stroke-dasharray="5,2" d="M84,-195.58C84,-181.76 84,-163.68 84,-153.15"/>
<polygon fill="orange" stroke="orange" points="80.5,-195.92 84,-205.92 87.5,-195.92 80.5,-195.92"/>
</a>
</g>
<text text-anchor="start" x="87.5" y="-176.5" font-family="Helvetica,sans-Serif" font-size="10.00" fill="grey">&lt; string, string &gt;</text>
</g>
</g>
</svg>
