<?xml version="1.0" encoding="UTF-8" standalone="no"?>
<!DOCTYPE svg PUBLIC "-//W3C//DTD SVG 1.1//EN"
 "http://www.w3.org/Graphics/SVG/1.1/DTD/svg11.dtd">
<!-- Generated by graphviz version 2.43.0 (0)
 -->
<!-- Title: FiftyoneDegrees::IpIntelligence::ValueMetaDataCollectionBaseIpi Pages: 1 -->
<svg width="623pt" height="134pt"
 viewBox="0.00 0.00 623.00 134.00" xmlns="http://www.w3.org/2000/svg" xmlns:xlink="http://www.w3.org/1999/xlink">
<g id="graph0" class="graph" transform="scale(1 1) rotate(0) translate(4 130)">
<title>FiftyoneDegrees::IpIntelligence::ValueMetaDataCollectionBaseIpi</title>
<!-- Node1 -->
<g id="Node000001" class="node">
<title>Node1</title>
<g id="a_Node000001"><a xlink:title="A collection of all value meta data contained in an IP Intelligence engine.">
<polygon fill="#999999" stroke="#666666" points="364,-78 182,-78 182,-48 364,-48 364,-78"/>
<text text-anchor="start" x="190" y="-66" font-family="Helvetica,sans-Serif" font-size="10.00">FiftyoneDegrees::IpIntelligence</text>
<text text-anchor="middle" x="273" y="-55" font-family="Helvetica,sans-Serif" font-size="10.00">::ValueMetaDataCollectionBaseIpi</text>
</a>
</g>
</g>
<!-- Node3 -->
<g id="Node000003" class="node">
<title>Node3</title>
<g id="a_Node000003"><a xlink:href="class_fiftyone_degrees_1_1_ip_intelligence_1_1_value_meta_data_collection_for_profile_ipi.html" target="_top" xlink:title="A collection of value meta data relating to a profile contained in an IP Intelligence engine.">
<polygon fill="white" stroke="#666666" points="609.5,-126 405.5,-126 405.5,-96 609.5,-96 609.5,-126"/>
<text text-anchor="start" x="413.5" y="-114" font-family="Helvetica,sans-Serif" font-size="10.00">FiftyoneDegrees::IpIntelligence</text>
<text text-anchor="middle" x="507.5" y="-103" font-family="Helvetica,sans-Serif" font-size="10.00">::ValueMetaDataCollectionForProfileIpi</text>
</a>
</g>
</g>
<!-- Node1&#45;&gt;Node3 -->
<g id="edge2_Node000001_Node000003" class="edge">
<title>Node1&#45;&gt;Node3</title>
<g id="a_edge2_Node000001_Node000003"><a xlink:title=" ">
<path fill="none" stroke="#63b8ff" d="M356.81,-80.1C381.96,-85.29 409.4,-90.95 433.83,-96"/>
<polygon fill="#63b8ff" stroke="#63b8ff" points="357.43,-76.65 346.93,-78.06 356.01,-83.51 357.43,-76.65"/>
</a>
</g>
</g>
<!-- Node4 -->
<g id="Node000004" class="node">
<title>Node4</title>
<g id="a_Node000004"><a xlink:href="class_fiftyone_degrees_1_1_ip_intelligence_1_1_value_meta_data_collection_for_property_ipi.html" target="_top" xlink:title="A collection of value meta data relating to a property contained in an IP Intelligence engine.">
<polygon fill="white" stroke="#666666" points="615,-78 400,-78 400,-48 615,-48 615,-78"/>
<text text-anchor="start" x="408" y="-66" font-family="Helvetica,sans-Serif" font-size="10.00">FiftyoneDegrees::IpIntelligence</text>
<text text-anchor="middle" x="507.5" y="-55" font-family="Helvetica,sans-Serif" font-size="10.00">::ValueMetaDataCollectionForPropertyIpi</text>
</a>
</g>
</g>
<!-- Node1&#45;&gt;Node4 -->
<g id="edge3_Node000001_Node000004" class="edge">
<title>Node1&#45;&gt;Node4</title>
<g id="a_edge3_Node000001_Node000004"><a xlink:title=" ">
<path fill="none" stroke="#63b8ff" d="M374.38,-63C382.75,-63 391.25,-63 399.67,-63"/>
<polygon fill="#63b8ff" stroke="#63b8ff" points="374.22,-59.5 364.22,-63 374.22,-66.5 374.22,-59.5"/>
</a>
</g>
</g>
<!-- Node5 -->
<g id="Node000005" class="node">
<title>Node5</title>
<g id="a_Node000005"><a xlink:href="class_fiftyone_degrees_1_1_ip_intelligence_1_1_value_meta_data_collection_ipi.html" target="_top" xlink:title="A collection of all value meta data contained in a IP Intelligence engine.">
<polygon fill="white" stroke="#666666" points="591.5,-30 423.5,-30 423.5,0 591.5,0 591.5,-30"/>
<text text-anchor="start" x="431.5" y="-18" font-family="Helvetica,sans-Serif" font-size="10.00">FiftyoneDegrees::IpIntelligence</text>
<text text-anchor="middle" x="507.5" y="-7" font-family="Helvetica,sans-Serif" font-size="10.00">::ValueMetaDataCollectionIpi</text>
</a>
</g>
</g>
<!-- Node1&#45;&gt;Node5 -->
<g id="edge4_Node000001_Node000005" class="edge">
<title>Node1&#45;&gt;Node5</title>
<g id="a_edge4_Node000001_Node000005"><a xlink:title=" ">
<path fill="none" stroke="#63b8ff" d="M356.81,-45.9C381.96,-40.71 409.4,-35.05 433.83,-30"/>
<polygon fill="#63b8ff" stroke="#63b8ff" points="356.01,-42.49 346.93,-47.94 357.43,-49.35 356.01,-42.49"/>
</a>
</g>
</g>
<!-- Node2 -->
<g id="Node000002" class="node">
<title>Node2</title>
<g id="a_Node000002"><a xlink:href="class_fiftyone_degrees_1_1_common_1_1_collection.html" target="_top" xlink:title="A group of items accessible by index or key.">
<polygon fill="white" stroke="#666666" points="146,-78 0,-78 0,-48 146,-48 146,-78"/>
<text text-anchor="start" x="8" y="-66" font-family="Helvetica,sans-Serif" font-size="10.00">FiftyoneDegrees::Common</text>
<text text-anchor="middle" x="73" y="-55" font-family="Helvetica,sans-Serif" font-size="10.00">::Collection&lt; K, V &gt;</text>
</a>
</g>
</g>
<!-- Node2&#45;&gt;Node1 -->
<g id="edge1_Node000001_Node000002" class="edge">
<title>Node2&#45;&gt;Node1</title>
<g id="a_edge1_Node000001_Node000002"><a xlink:title=" ">
<path fill="none" stroke="#63b8ff" d="M156.23,-63C164.66,-63 173.26,-63 181.77,-63"/>
<polygon fill="#63b8ff" stroke="#63b8ff" points="156.04,-59.5 146.04,-63 156.04,-66.5 156.04,-59.5"/>
</a>
</g>
</g>
</g>
</svg>
