<?xml version="1.0" encoding="UTF-8" standalone="no"?>
<!DOCTYPE svg PUBLIC "-//W3C//DTD SVG 1.1//EN"
 "http://www.w3.org/Graphics/SVG/1.1/DTD/svg11.dtd">
<!-- Generated by graphviz version 2.43.0 (0)
 -->
<!-- Title: CollectionTestMemoryVariable Pages: 1 -->
<svg width="173pt" height="247pt"
 viewBox="0.00 0.00 173.00 247.00" xmlns="http://www.w3.org/2000/svg" xmlns:xlink="http://www.w3.org/1999/xlink">
<g id="graph0" class="graph" transform="scale(1 1) rotate(0) translate(4 243)">
<title>CollectionTestMemoryVariable</title>
<!-- Node1 -->
<g id="Node000001" class="node">
<title>Node1</title>
<g id="a_Node000001"><a xlink:title=" ">
<polygon fill="#999999" stroke="#666666" points="165,-19 0,-19 0,0 165,0 165,-19"/>
<text text-anchor="middle" x="82.5" y="-7" font-family="Helvetica,sans-Serif" font-size="10.00">CollectionTestMemoryVariable</text>
</a>
</g>
</g>
<!-- Node2 -->
<g id="Node000002" class="node">
<title>Node2</title>
<g id="a_Node000002"><a xlink:href="class_collection_test_memory.html" target="_top" xlink:title=" ">
<polygon fill="white" stroke="#bfbfbf" points="145,-74 20,-74 20,-55 145,-55 145,-74"/>
<text text-anchor="middle" x="82.5" y="-62" font-family="Helvetica,sans-Serif" font-size="10.00">CollectionTestMemory</text>
</a>
</g>
</g>
<!-- Node2&#45;&gt;Node1 -->
<g id="edge1_Node000001_Node000002" class="edge">
<title>Node2&#45;&gt;Node1</title>
<g id="a_edge1_Node000001_Node000002"><a xlink:title=" ">
<path fill="none" stroke="#63b8ff" d="M82.5,-44.66C82.5,-35.93 82.5,-25.99 82.5,-19.09"/>
<polygon fill="#63b8ff" stroke="#63b8ff" points="79,-44.75 82.5,-54.75 86,-44.75 79,-44.75"/>
</a>
</g>
</g>
<!-- Node3 -->
<g id="Node000003" class="node">
<title>Node3</title>
<g id="a_Node000003"><a xlink:href="class_collection_test.html" target="_top" xlink:title=" ">
<polygon fill="white" stroke="#bfbfbf" points="125,-129 40,-129 40,-110 125,-110 125,-129"/>
<text text-anchor="middle" x="82.5" y="-117" font-family="Helvetica,sans-Serif" font-size="10.00">CollectionTest</text>
</a>
</g>
</g>
<!-- Node3&#45;&gt;Node2 -->
<g id="edge2_Node000002_Node000003" class="edge">
<title>Node3&#45;&gt;Node2</title>
<g id="a_edge2_Node000002_Node000003"><a xlink:title=" ">
<path fill="none" stroke="#63b8ff" d="M82.5,-99.66C82.5,-90.93 82.5,-80.99 82.5,-74.09"/>
<polygon fill="#63b8ff" stroke="#63b8ff" points="79,-99.75 82.5,-109.75 86,-99.75 79,-99.75"/>
</a>
</g>
</g>
<!-- Node4 -->
<g id="Node000004" class="node">
<title>Node4</title>
<g id="a_Node000004"><a xlink:href="class_base.html" target="_top" xlink:title="Base test class used to carry out memory leak checks.">
<polygon fill="white" stroke="#666666" points="103,-184 62,-184 62,-165 103,-165 103,-184"/>
<text text-anchor="middle" x="82.5" y="-172" font-family="Helvetica,sans-Serif" font-size="10.00">Base</text>
</a>
</g>
</g>
<!-- Node4&#45;&gt;Node3 -->
<g id="edge3_Node000003_Node000004" class="edge">
<title>Node4&#45;&gt;Node3</title>
<g id="a_edge3_Node000003_Node000004"><a xlink:title=" ">
<path fill="none" stroke="#63b8ff" d="M82.5,-154.66C82.5,-145.93 82.5,-135.99 82.5,-129.09"/>
<polygon fill="#63b8ff" stroke="#63b8ff" points="79,-154.75 82.5,-164.75 86,-154.75 79,-154.75"/>
</a>
</g>
</g>
<!-- Node5 -->
<g id="Node000005" class="node">
<title>Node5</title>
<g id="a_Node000005"><a xlink:title=" ">
<polygon fill="white" stroke="#bfbfbf" points="120.5,-239 44.5,-239 44.5,-220 120.5,-220 120.5,-239"/>
<text text-anchor="middle" x="82.5" y="-227" font-family="Helvetica,sans-Serif" font-size="10.00">testing::Test</text>
</a>
</g>
</g>
<!-- Node5&#45;&gt;Node4 -->
<g id="edge4_Node000004_Node000005" class="edge">
<title>Node5&#45;&gt;Node4</title>
<g id="a_edge4_Node000004_Node000005"><a xlink:title=" ">
<path fill="none" stroke="#63b8ff" d="M82.5,-209.66C82.5,-200.93 82.5,-190.99 82.5,-184.09"/>
<polygon fill="#63b8ff" stroke="#63b8ff" points="79,-209.75 82.5,-219.75 86,-209.75 79,-209.75"/>
</a>
</g>
</g>
</g>
</svg>
