<?xml version="1.0" encoding="UTF-8" standalone="no"?>
<!DOCTYPE svg PUBLIC "-//W3C//DTD SVG 1.1//EN"
 "http://www.w3.org/Graphics/SVG/1.1/DTD/svg11.dtd">
<!-- Generated by graphviz version 2.43.0 (0)
 -->
<!-- Title: Evidence Pages: 1 -->
<svg width="839pt" height="203pt"
 viewBox="0.00 0.00 839.00 202.50" xmlns="http://www.w3.org/2000/svg" xmlns:xlink="http://www.w3.org/1999/xlink">
<g id="graph0" class="graph" transform="scale(1 1) rotate(0) translate(4 198.5)">
<title>Evidence</title>
<!-- Node6 -->
<g id="node1" class="node">
<title>Node6</title>
<g id="a_node1"><a xlink:title="Evidence test class used to test the functionality in evidence.c.">
<polygon fill="#bfbfbf" stroke="black" points="770,-99 770,-118 831,-118 831,-99 770,-99"/>
<text text-anchor="middle" x="800.5" y="-106" font-family="Helvetica,sans-Serif" font-size="10.00">Evidence</text>
</a>
</g>
</g>
<!-- Node7 -->
<g id="node2" class="node">
<title>Node7</title>
<g id="a_node2"><a xlink:href="class_base.html" target="_top" xlink:title="Base test class used to carry out memory leak checks.">
<polygon fill="none" stroke="black" points="545.5,-156 545.5,-175 586.5,-175 586.5,-156 545.5,-156"/>
<text text-anchor="middle" x="566" y="-163" font-family="Helvetica,sans-Serif" font-size="10.00">Base</text>
</a>
</g>
</g>
<!-- Node7&#45;&gt;Node6 -->
<g id="edge1" class="edge">
<title>Node7&#45;&gt;Node6</title>
<path fill="none" stroke="midnightblue" d="M596.59,-159.57C633.28,-152.04 697.61,-138.24 752,-123.5 758.09,-121.85 764.57,-119.92 770.73,-118.01"/>
<polygon fill="midnightblue" stroke="midnightblue" points="595.67,-156.18 586.57,-161.61 597.07,-163.04 595.67,-156.18"/>
</g>
<!-- Node8 -->
<g id="node3" class="node">
<title>Node8</title>
<g id="a_node3"><a xlink:title=" ">
<polygon fill="none" stroke="#bfbfbf" points="259,-175 259,-194 335,-194 335,-175 259,-175"/>
<text text-anchor="middle" x="297" y="-182" font-family="Helvetica,sans-Serif" font-size="10.00">testing::Test</text>
</a>
</g>
</g>
<!-- Node8&#45;&gt;Node7 -->
<g id="edge2" class="edge">
<title>Node8&#45;&gt;Node7</title>
<path fill="none" stroke="midnightblue" d="M345.36,-181.13C404.67,-176.91 503.56,-169.87 545.37,-166.9"/>
<polygon fill="midnightblue" stroke="midnightblue" points="344.85,-177.66 335.13,-181.86 345.35,-184.64 344.85,-177.66"/>
</g>
<!-- Node9 -->
<g id="node4" class="node">
<title>Node9</title>
<g id="a_node4"><a xlink:href="class_headers_container.html" target="_top" xlink:title=" ">
<polygon fill="none" stroke="black" points="514,-99 514,-118 618,-118 618,-99 514,-99"/>
<text text-anchor="middle" x="566" y="-106" font-family="Helvetica,sans-Serif" font-size="10.00">HeadersContainer</text>
</a>
</g>
</g>
<!-- Node9&#45;&gt;Node6 -->
<g id="edge3" class="edge">
<title>Node9&#45;&gt;Node6</title>
<path fill="none" stroke="#9a32cd" stroke-dasharray="5,2" d="M628.12,-108.5C673.84,-108.5 734.35,-108.5 769.89,-108.5"/>
<polygon fill="#9a32cd" stroke="#9a32cd" points="628.02,-105 618.02,-108.5 628.02,-112 628.02,-105"/>
<text text-anchor="middle" x="707" y="-111.5" font-family="Helvetica,sans-Serif" font-size="10.00"> headersContainer</text>
</g>
<!-- Node10 -->
<g id="node5" class="node">
<title>Node10</title>
<g id="a_node5"><a xlink:href="class_string_collection.html" target="_top" xlink:title="String collection helper class, used by test classes to fetch.">
<polygon fill="none" stroke="black" points="250,-137 250,-156 344,-156 344,-137 250,-137"/>
<text text-anchor="middle" x="297" y="-144" font-family="Helvetica,sans-Serif" font-size="10.00">StringCollection</text>
</a>
</g>
</g>
<!-- Node10&#45;&gt;Node9 -->
<g id="edge4" class="edge">
<title>Node10&#45;&gt;Node9</title>
<path fill="none" stroke="#9a32cd" stroke-dasharray="5,2" d="M354.14,-139.33C387.77,-134.96 431.37,-129.13 470,-123.5 484.21,-121.43 499.59,-119.06 513.76,-116.82"/>
<polygon fill="#9a32cd" stroke="#9a32cd" points="353.5,-135.89 344.03,-140.65 354.4,-142.83 353.5,-135.89"/>
<text text-anchor="middle" x="431.5" y="-136.5" font-family="Helvetica,sans-Serif" font-size="10.00"> strings</text>
</g>
<!-- Node11 -->
<g id="node6" class="node">
<title>Node11</title>
<g id="a_node6"><a xlink:href="structfiftyone_degrees_header_array.html" target="_top" xlink:title="Array of Headers which should always be ordered in ascending order of fullHeaderId.">
<polygon fill="none" stroke="black" points="219.5,-99 219.5,-118 374.5,-118 374.5,-99 219.5,-99"/>
<text text-anchor="middle" x="297" y="-106" font-family="Helvetica,sans-Serif" font-size="10.00">fiftyoneDegreesHeaderArray</text>
</a>
</g>
</g>
<!-- Node11&#45;&gt;Node9 -->
<g id="edge5" class="edge">
<title>Node11&#45;&gt;Node9</title>
<path fill="none" stroke="#9a32cd" stroke-dasharray="5,2" d="M384.62,-108.5C427.3,-108.5 477.3,-108.5 513.82,-108.5"/>
<polygon fill="#9a32cd" stroke="#9a32cd" points="384.51,-105 374.51,-108.5 384.51,-112 384.51,-105"/>
<text text-anchor="middle" x="431.5" y="-111.5" font-family="Helvetica,sans-Serif" font-size="10.00"> headers</text>
</g>
<!-- Node12 -->
<g id="node7" class="node">
<title>Node12</title>
<g id="a_node7"><a xlink:href="structfiftyone_degrees_header_ptr_array.html" target="_top" xlink:title="Array of header indexes.">
<polygon fill="none" stroke="black" points="225.5,-49.5 225.5,-79.5 368.5,-79.5 368.5,-49.5 225.5,-49.5"/>
<text text-anchor="start" x="233.5" y="-67.5" font-family="Helvetica,sans-Serif" font-size="10.00">fiftyoneDegreesHeaderPtr</text>
<text text-anchor="middle" x="297" y="-56.5" font-family="Helvetica,sans-Serif" font-size="10.00">Array</text>
</a>
</g>
</g>
<!-- Node12&#45;&gt;Node9 -->
<g id="edge6" class="edge">
<title>Node12&#45;&gt;Node9</title>
<path fill="none" stroke="#9a32cd" stroke-dasharray="5,2" d="M378.57,-77.78C422.41,-85 475.35,-93.73 513.59,-100.03"/>
<polygon fill="#9a32cd" stroke="#9a32cd" points="378.94,-74.29 368.5,-76.12 377.8,-81.2 378.94,-74.29"/>
<text text-anchor="middle" x="431.5" y="-94.5" font-family="Helvetica,sans-Serif" font-size="10.00"> headerPointers</text>
</g>
<!-- Node13 -->
<g id="node8" class="node">
<title>Node13</title>
<g id="a_node8"><a xlink:href="structfiftyone_degrees_evidence_key_value_pair_array.html" target="_top" xlink:title="Array of evidence key value pairs and a pointer to the next array if present or NULL of not present.">
<polygon fill="none" stroke="black" points="488,-7.5 488,-37.5 644,-37.5 644,-7.5 488,-7.5"/>
<text text-anchor="start" x="496" y="-25.5" font-family="Helvetica,sans-Serif" font-size="10.00">fiftyoneDegreesEvidenceKey</text>
<text text-anchor="middle" x="566" y="-14.5" font-family="Helvetica,sans-Serif" font-size="10.00">ValuePairArray</text>
</a>
</g>
</g>
<!-- Node13&#45;&gt;Node6 -->
<g id="edge7" class="edge">
<title>Node13&#45;&gt;Node6</title>
<path fill="none" stroke="#9a32cd" stroke-dasharray="5,2" d="M617.36,-41.13C665.43,-58.91 735.94,-84.99 773.58,-98.91"/>
<polygon fill="#9a32cd" stroke="#9a32cd" points="618.36,-37.77 607.76,-37.58 615.93,-44.33 618.36,-37.77"/>
<text text-anchor="middle" x="707" y="-92.5" font-family="Helvetica,sans-Serif" font-size="10.00"> evidence</text>
</g>
<!-- Node13&#45;&gt;Node13 -->
<g id="edge10" class="edge">
<title>Node13&#45;&gt;Node13</title>
<path fill="none" stroke="#9a32cd" stroke-dasharray="5,2" d="M542.19,-47.96C545.14,-52.68 553.08,-56 566,-56 587.2,-56 594.98,-47.06 589.35,-37.66"/>
<polygon fill="#9a32cd" stroke="#9a32cd" points="545.7,-47.8 542.65,-37.66 538.71,-47.49 545.7,-47.8"/>
<text text-anchor="middle" x="566" y="-70" font-family="Helvetica,sans-Serif" font-size="10.00"> prev</text>
<text text-anchor="middle" x="566" y="-59" font-family="Helvetica,sans-Serif" font-size="10.00">next</text>
</g>
<!-- Node14 -->
<g id="node9" class="node">
<title>Node14</title>
<g id="a_node9"><a xlink:href="structfiftyone_degrees_evidence_key_value_pair.html" target="_top" xlink:title="Evidence key value pair structure which combines the prefix, key and value.">
<polygon fill="none" stroke="black" points="219,-0.5 219,-30.5 375,-30.5 375,-0.5 219,-0.5"/>
<text text-anchor="start" x="227" y="-18.5" font-family="Helvetica,sans-Serif" font-size="10.00">fiftyoneDegreesEvidenceKey</text>
<text text-anchor="middle" x="297" y="-7.5" font-family="Helvetica,sans-Serif" font-size="10.00">ValuePair</text>
</a>
</g>
</g>
<!-- Node14&#45;&gt;Node13 -->
<g id="edge8" class="edge">
<title>Node14&#45;&gt;Node13</title>
<path fill="none" stroke="#9a32cd" stroke-dasharray="5,2" d="M385.35,-17.79C418.45,-18.66 455.86,-19.64 487.95,-20.48"/>
<polygon fill="#9a32cd" stroke="#9a32cd" points="385.32,-14.29 375.23,-17.52 385.13,-21.29 385.32,-14.29"/>
<text text-anchor="middle" x="431.5" y="-23.5" font-family="Helvetica,sans-Serif" font-size="10.00"> items</text>
</g>
<!-- Node15 -->
<g id="node10" class="node">
<title>Node15</title>
<g id="a_node10"><a xlink:href="structfiftyone_degrees_key_value_pair.html" target="_top" xlink:title=" ">
<polygon fill="none" stroke="black" points="0,-6 0,-25 157,-25 157,-6 0,-6"/>
<text text-anchor="middle" x="78.5" y="-13" font-family="Helvetica,sans-Serif" font-size="10.00">fiftyoneDegreesKeyValuePair</text>
</a>
</g>
</g>
<!-- Node15&#45;&gt;Node14 -->
<g id="edge9" class="edge">
<title>Node15&#45;&gt;Node14</title>
<path fill="none" stroke="#9a32cd" stroke-dasharray="5,2" d="M167.07,-15.5C184.26,-15.5 202.18,-15.5 218.99,-15.5"/>
<polygon fill="#9a32cd" stroke="#9a32cd" points="167.05,-12 157.05,-15.5 167.05,-19 167.05,-12"/>
<text text-anchor="middle" x="188" y="-18.5" font-family="Helvetica,sans-Serif" font-size="10.00"> item</text>
</g>
</g>
</svg>
