<?xml version="1.0" encoding="UTF-8" standalone="no"?>
<!DOCTYPE svg PUBLIC "-//W3C//DTD SVG 1.1//EN"
 "http://www.w3.org/Graphics/SVG/1.1/DTD/svg11.dtd">
<!-- Generated by graphviz version 2.43.0 (0)
 -->
<!-- Title: Evidence Pages: 1 -->
<svg width="848pt" height="199pt"
 viewBox="0.00 0.00 848.00 199.00" xmlns="http://www.w3.org/2000/svg" xmlns:xlink="http://www.w3.org/1999/xlink">
<g id="graph0" class="graph" transform="scale(1 1) rotate(0) translate(4 195)">
<title>Evidence</title>
<!-- Node1 -->
<g id="Node000001" class="node">
<title>Node1</title>
<g id="a_Node000001"><a xlink:title="Evidence test class used to test the functionality in evidence.c.">
<polygon fill="#999999" stroke="#666666" points="840,-148 779,-148 779,-129 840,-129 840,-148"/>
<text text-anchor="middle" x="809.5" y="-136" font-family="Helvetica,sans-Serif" font-size="10.00">Evidence</text>
</a>
</g>
</g>
<!-- Node2 -->
<g id="Node000002" class="node">
<title>Node2</title>
<g id="a_Node000002"><a xlink:href="class_base.html" target="_top" xlink:title="Base test class used to carry out memory leak checks.">
<polygon fill="white" stroke="#666666" points="592.5,-191 551.5,-191 551.5,-172 592.5,-172 592.5,-191"/>
<text text-anchor="middle" x="572" y="-179" font-family="Helvetica,sans-Serif" font-size="10.00">Base</text>
</a>
</g>
</g>
<!-- Node2&#45;&gt;Node1 -->
<g id="edge1_Node000001_Node000002" class="edge">
<title>Node2&#45;&gt;Node1</title>
<g id="a_edge1_Node000001_Node000002"><a xlink:title=" ">
<path fill="none" stroke="#63b8ff" d="M602.81,-180.75C640.33,-179.2 706.47,-174.38 761,-159.5 771.09,-156.75 781.79,-152.18 790.47,-148"/>
<polygon fill="#63b8ff" stroke="#63b8ff" points="602.45,-177.27 592.58,-181.13 602.7,-184.26 602.45,-177.27"/>
</a>
</g>
</g>
<!-- Node3 -->
<g id="Node000003" class="node">
<title>Node3</title>
<g id="a_Node000003"><a xlink:title=" ">
<polygon fill="white" stroke="#bfbfbf" points="338,-191 262,-191 262,-172 338,-172 338,-191"/>
<text text-anchor="middle" x="300" y="-179" font-family="Helvetica,sans-Serif" font-size="10.00">testing::Test</text>
</a>
</g>
</g>
<!-- Node3&#45;&gt;Node2 -->
<g id="edge2_Node000002_Node000003" class="edge">
<title>Node3&#45;&gt;Node2</title>
<g id="a_edge2_Node000002_Node000003"><a xlink:title=" ">
<path fill="none" stroke="#63b8ff" d="M348.62,-181.5C408.7,-181.5 509.26,-181.5 551.44,-181.5"/>
<polygon fill="#63b8ff" stroke="#63b8ff" points="348.26,-178 338.26,-181.5 348.26,-185 348.26,-178"/>
</a>
</g>
</g>
<!-- Node4 -->
<g id="Node000004" class="node">
<title>Node4</title>
<g id="a_Node000004"><a xlink:href="structfiftyone_degrees_evidence_key_value_pair_array.html" target="_top" xlink:title="Array of evidence key value pairs and a pointer to the next array if present or NULL of not present.">
<polygon fill="white" stroke="#666666" points="650,-153.5 494,-153.5 494,-123.5 650,-123.5 650,-153.5"/>
<text text-anchor="start" x="502" y="-141.5" font-family="Helvetica,sans-Serif" font-size="10.00">fiftyoneDegreesEvidenceKey</text>
<text text-anchor="middle" x="572" y="-130.5" font-family="Helvetica,sans-Serif" font-size="10.00">ValuePairArray</text>
</a>
</g>
</g>
<!-- Node4&#45;&gt;Node1 -->
<g id="edge3_Node000001_Node000004" class="edge">
<title>Node4&#45;&gt;Node1</title>
<g id="a_edge3_Node000001_Node000004"><a xlink:title=" ">
<path fill="none" stroke="#9a32cd" stroke-dasharray="5,2" d="M660.3,-138.5C702.01,-138.5 749.19,-138.5 778.88,-138.5"/>
<polygon fill="#9a32cd" stroke="#9a32cd" points="660.11,-135 650.11,-138.5 660.11,-142 660.11,-135"/>
</a>
</g>
<text text-anchor="start" x="692.5" y="-144" font-family="Helvetica,sans-Serif" font-size="10.00" fill="grey">evidence</text>
</g>
<!-- Node5 -->
<g id="Node000005" class="node">
<title>Node5</title>
<g id="a_Node000005"><a xlink:href="structfiftyone_degrees_evidence_key_value_pair.html" target="_top" xlink:title="Evidence key value pair structure which combines the prefix, key and value.">
<polygon fill="white" stroke="#666666" points="378,-153.5 222,-153.5 222,-123.5 378,-123.5 378,-153.5"/>
<text text-anchor="start" x="230" y="-141.5" font-family="Helvetica,sans-Serif" font-size="10.00">fiftyoneDegreesEvidenceKey</text>
<text text-anchor="middle" x="300" y="-130.5" font-family="Helvetica,sans-Serif" font-size="10.00">ValuePair</text>
</a>
</g>
</g>
<!-- Node5&#45;&gt;Node4 -->
<g id="edge4_Node000004_Node000005" class="edge">
<title>Node5&#45;&gt;Node4</title>
<g id="a_edge4_Node000004_Node000005"><a xlink:title=" ">
<path fill="none" stroke="#9a32cd" stroke-dasharray="5,2" d="M388.39,-138.5C422.37,-138.5 460.96,-138.5 493.89,-138.5"/>
<polygon fill="#9a32cd" stroke="#9a32cd" points="388.01,-135 378.01,-138.5 388.01,-142 388.01,-135"/>
</a>
</g>
<text text-anchor="start" x="422" y="-144" font-family="Helvetica,sans-Serif" font-size="10.00" fill="grey">items</text>
</g>
<!-- Node6 -->
<g id="Node000006" class="node">
<title>Node6</title>
<g id="a_Node000006"><a xlink:href="structfiftyone_degrees_key_value_pair.html" target="_top" xlink:title=" ">
<polygon fill="white" stroke="#bfbfbf" points="157,-148 0,-148 0,-129 157,-129 157,-148"/>
<text text-anchor="middle" x="78.5" y="-136" font-family="Helvetica,sans-Serif" font-size="10.00">fiftyoneDegreesKeyValuePair</text>
</a>
</g>
</g>
<!-- Node6&#45;&gt;Node5 -->
<g id="edge5_Node000005_Node000006" class="edge">
<title>Node6&#45;&gt;Node5</title>
<g id="a_edge5_Node000005_Node000006"><a xlink:title=" ">
<path fill="none" stroke="#9a32cd" stroke-dasharray="5,2" d="M167.39,-138.5C185.38,-138.5 204.19,-138.5 221.78,-138.5"/>
<polygon fill="#9a32cd" stroke="#9a32cd" points="167.2,-135 157.2,-138.5 167.2,-142 167.2,-135"/>
</a>
</g>
<text text-anchor="start" x="178.5" y="-144" font-family="Helvetica,sans-Serif" font-size="10.00" fill="grey">item</text>
</g>
<!-- Node7 -->
<g id="Node000007" class="node">
<title>Node7</title>
<g id="a_Node000007"><a xlink:href="class_headers_container.html" target="_top" xlink:title=" ">
<polygon fill="white" stroke="#bfbfbf" points="624,-84 520,-84 520,-65 624,-65 624,-84"/>
<text text-anchor="middle" x="572" y="-72" font-family="Helvetica,sans-Serif" font-size="10.00">HeadersContainer</text>
</a>
</g>
</g>
<!-- Node7&#45;&gt;Node1 -->
<g id="edge6_Node000001_Node000007" class="edge">
<title>Node7&#45;&gt;Node1</title>
<g id="a_edge6_Node000001_Node000007"><a xlink:title=" ">
<path fill="none" stroke="#9a32cd" stroke-dasharray="5,2" d="M634.56,-85.49C671.67,-92.87 719.61,-103.76 761,-117.5 770.41,-120.63 780.51,-124.94 788.96,-128.85"/>
<polygon fill="#9a32cd" stroke="#9a32cd" points="634.88,-81.98 624.39,-83.5 633.54,-88.85 634.88,-81.98"/>
</a>
</g>
<text text-anchor="start" x="671.5" y="-123" font-family="Helvetica,sans-Serif" font-size="10.00" fill="grey">headersContainer</text>
</g>
<!-- Node8 -->
<g id="Node000008" class="node">
<title>Node8</title>
<g id="a_Node000008"><a xlink:href="structfiftyone_degrees_header_array.html" target="_top" xlink:title="Array of Headers which should always be ordered in ascending order of fullHeaderId.">
<polygon fill="white" stroke="#666666" points="377.5,-105 222.5,-105 222.5,-86 377.5,-86 377.5,-105"/>
<text text-anchor="middle" x="300" y="-93" font-family="Helvetica,sans-Serif" font-size="10.00">fiftyoneDegreesHeaderArray</text>
</a>
</g>
</g>
<!-- Node8&#45;&gt;Node7 -->
<g id="edge7_Node000007_Node000008" class="edge">
<title>Node8&#45;&gt;Node7</title>
<g id="a_edge7_Node000007_Node000008"><a xlink:title=" ">
<path fill="none" stroke="#9a32cd" stroke-dasharray="5,2" d="M387.68,-88.76C431.25,-85.37 482.56,-81.38 519.8,-78.48"/>
<polygon fill="#9a32cd" stroke="#9a32cd" points="387.35,-85.27 377.65,-89.54 387.89,-92.25 387.35,-85.27"/>
</a>
</g>
<text text-anchor="start" x="416" y="-94" font-family="Helvetica,sans-Serif" font-size="10.00" fill="grey">headers</text>
</g>
<!-- Node9 -->
<g id="Node000009" class="node">
<title>Node9</title>
<g id="a_Node000009"><a xlink:href="structfiftyone_degrees_header_ptr_array.html" target="_top" xlink:title="Array of header indexes.">
<polygon fill="white" stroke="#666666" points="371.5,-67.5 228.5,-67.5 228.5,-37.5 371.5,-37.5 371.5,-67.5"/>
<text text-anchor="start" x="236.5" y="-55.5" font-family="Helvetica,sans-Serif" font-size="10.00">fiftyoneDegreesHeaderPtr</text>
<text text-anchor="middle" x="300" y="-44.5" font-family="Helvetica,sans-Serif" font-size="10.00">Array</text>
</a>
</g>
</g>
<!-- Node9&#45;&gt;Node7 -->
<g id="edge8_Node000007_Node000009" class="edge">
<title>Node9&#45;&gt;Node7</title>
<g id="a_edge8_Node000007_Node000009"><a xlink:title=" ">
<path fill="none" stroke="#9a32cd" stroke-dasharray="5,2" d="M382.06,-55.24C411.66,-56.61 445.38,-58.62 476,-61.5 490.25,-62.84 505.65,-64.75 519.82,-66.69"/>
<polygon fill="#9a32cd" stroke="#9a32cd" points="381.92,-51.73 371.77,-54.78 381.61,-58.72 381.92,-51.73"/>
</a>
</g>
<text text-anchor="start" x="399" y="-67" font-family="Helvetica,sans-Serif" font-size="10.00" fill="grey">headerPointers</text>
</g>
<!-- Node10 -->
<g id="Node000010" class="node">
<title>Node10</title>
<g id="a_Node000010"><a xlink:href="class_string_collection.html" target="_top" xlink:title="String collection helper class, used by test classes to fetch.">
<polygon fill="white" stroke="#666666" points="347,-19 253,-19 253,0 347,0 347,-19"/>
<text text-anchor="middle" x="300" y="-7" font-family="Helvetica,sans-Serif" font-size="10.00">StringCollection</text>
</a>
</g>
</g>
<!-- Node10&#45;&gt;Node7 -->
<g id="edge9_Node000007_Node000010" class="edge">
<title>Node10&#45;&gt;Node7</title>
<g id="a_edge9_Node000007_Node000010"><a xlink:title=" ">
<path fill="none" stroke="#9a32cd" stroke-dasharray="5,2" d="M357.27,-14.36C391.93,-18.22 437.05,-24.78 476,-35.5 502.99,-42.93 532.6,-55.91 551.47,-64.85"/>
<polygon fill="#9a32cd" stroke="#9a32cd" points="357.64,-10.88 347.32,-13.3 356.89,-17.84 357.64,-10.88"/>
</a>
</g>
<text text-anchor="start" x="419" y="-41" font-family="Helvetica,sans-Serif" font-size="10.00" fill="grey">strings</text>
</g>
</g>
</svg>
