<?xml version="1.0" encoding="UTF-8" standalone="no"?>
<!DOCTYPE svg PUBLIC "-//W3C//DTD SVG 1.1//EN"
 "http://www.w3.org/Graphics/SVG/1.1/DTD/svg11.dtd">
<!-- Generated by graphviz version 2.43.0 (0)
 -->
<!-- Title: MetaDataReloadState Pages: 1 -->
<svg width="633pt" height="134pt"
 viewBox="0.00 0.00 633.00 134.00" xmlns="http://www.w3.org/2000/svg" xmlns:xlink="http://www.w3.org/1999/xlink">
<g id="graph0" class="graph" transform="scale(1 1) rotate(0) translate(4 130)">
<title>MetaDataReloadState</title>
<!-- Node1 -->
<g id="Node000001" class="node">
<title>Node1</title>
<g id="a_Node000001"><a xlink:title=" ">
<polygon fill="#999999" stroke="#666666" points="625,-72.5 501,-72.5 501,-53.5 625,-53.5 625,-72.5"/>
<text text-anchor="middle" x="563" y="-60.5" font-family="Helvetica,sans-Serif" font-size="10.00">MetaDataReloadState</text>
</a>
</g>
</g>
<!-- Node2 -->
<g id="Node000002" class="node">
<title>Node2</title>
<g id="a_Node000002"><a xlink:href="class_fiftyone_degrees_1_1_common_1_1_engine_base.html" target="_top" xlink:title="Encapsulates the engine class to be extended by engine implementations.">
<polygon fill="white" stroke="#666666" points="425,-78 279,-78 279,-48 425,-48 425,-78"/>
<text text-anchor="start" x="287" y="-66" font-family="Helvetica,sans-Serif" font-size="10.00">FiftyoneDegrees::Common</text>
<text text-anchor="middle" x="352" y="-55" font-family="Helvetica,sans-Serif" font-size="10.00">::EngineBase</text>
</a>
</g>
</g>
<!-- Node2&#45;&gt;Node1 -->
<g id="edge1_Node000001_Node000002" class="edge">
<title>Node2&#45;&gt;Node1</title>
<g id="a_edge1_Node000001_Node000002"><a xlink:title=" ">
<path fill="none" stroke="#9a32cd" stroke-dasharray="5,2" d="M435.47,-63C457.28,-63 480.44,-63 500.9,-63"/>
<polygon fill="#9a32cd" stroke="#9a32cd" points="435.22,-59.5 425.22,-63 435.22,-66.5 435.22,-59.5"/>
</a>
</g>
<text text-anchor="start" x="446" y="-68.5" font-family="Helvetica,sans-Serif" font-size="10.00" fill="grey">engine</text>
</g>
<!-- Node3 -->
<g id="Node000003" class="node">
<title>Node3</title>
<g id="a_Node000003"><a xlink:href="class_fiftyone_degrees_1_1_common_1_1_config_base.html" target="_top" xlink:title="C++ class wrapper for the fiftyoneDegreesConfigBase configuration structure.">
<polygon fill="white" stroke="#666666" points="146,-126 0,-126 0,-96 146,-96 146,-126"/>
<text text-anchor="start" x="8" y="-114" font-family="Helvetica,sans-Serif" font-size="10.00">FiftyoneDegrees::Common</text>
<text text-anchor="middle" x="73" y="-103" font-family="Helvetica,sans-Serif" font-size="10.00">::ConfigBase</text>
</a>
</g>
</g>
<!-- Node3&#45;&gt;Node2 -->
<g id="edge2_Node000002_Node000003" class="edge">
<title>Node3&#45;&gt;Node2</title>
<g id="a_edge2_Node000002_Node000003"><a xlink:title=" ">
<path fill="none" stroke="#9a32cd" stroke-dasharray="5,2" d="M156.15,-100.69C188.88,-96.18 226.82,-90.44 261,-84 270.3,-82.25 280.1,-80.19 289.66,-78.05"/>
<polygon fill="#9a32cd" stroke="#9a32cd" points="155.6,-97.23 146.17,-102.05 156.55,-104.17 155.6,-97.23"/>
</a>
</g>
<text text-anchor="start" x="197.5" y="-104.5" font-family="Helvetica,sans-Serif" font-size="10.00" fill="grey">config</text>
</g>
<!-- Node4 -->
<g id="Node000004" class="node">
<title>Node4</title>
<g id="a_Node000004"><a xlink:href="class_fiftyone_degrees_1_1_common_1_1_required_properties_config.html" target="_top" xlink:title="C++ class wrapper for the fiftyoneDegreesPropertiesRequired structure.">
<polygon fill="white" stroke="#666666" points="146,-78 0,-78 0,-48 146,-48 146,-78"/>
<text text-anchor="start" x="8" y="-66" font-family="Helvetica,sans-Serif" font-size="10.00">FiftyoneDegrees::Common</text>
<text text-anchor="middle" x="73" y="-55" font-family="Helvetica,sans-Serif" font-size="10.00">::RequiredPropertiesConfig</text>
</a>
</g>
</g>
<!-- Node4&#45;&gt;Node2 -->
<g id="edge3_Node000002_Node000004" class="edge">
<title>Node4&#45;&gt;Node2</title>
<g id="a_edge3_Node000002_Node000004"><a xlink:title=" ">
<path fill="none" stroke="#9a32cd" stroke-dasharray="5,2" d="M156.31,-63C195.23,-63 241.28,-63 278.82,-63"/>
<polygon fill="#9a32cd" stroke="#9a32cd" points="156.06,-59.5 146.06,-63 156.06,-66.5 156.06,-59.5"/>
</a>
</g>
<text text-anchor="start" x="167.5" y="-68.5" font-family="Helvetica,sans-Serif" font-size="10.00" fill="grey">requiredProperties</text>
</g>
<!-- Node5 -->
<g id="Node000005" class="node">
<title>Node5</title>
<g id="a_Node000005"><a xlink:href="class_fiftyone_degrees_1_1_common_1_1_meta_data.html" target="_top" xlink:title="Contains meta data for the properties, values, profiles and components that exist within the engine i...">
<polygon fill="white" stroke="#666666" points="146,-30 0,-30 0,0 146,0 146,-30"/>
<text text-anchor="start" x="8" y="-18" font-family="Helvetica,sans-Serif" font-size="10.00">FiftyoneDegrees::Common</text>
<text text-anchor="middle" x="73" y="-7" font-family="Helvetica,sans-Serif" font-size="10.00">::MetaData</text>
</a>
</g>
</g>
<!-- Node5&#45;&gt;Node2 -->
<g id="edge4_Node000002_Node000005" class="edge">
<title>Node5&#45;&gt;Node2</title>
<g id="a_edge4_Node000002_Node000005"><a xlink:title=" ">
<path fill="none" stroke="#9a32cd" stroke-dasharray="5,2" d="M156.15,-25.31C188.88,-29.82 226.82,-35.56 261,-42 270.3,-43.75 280.1,-45.81 289.66,-47.95"/>
<polygon fill="#9a32cd" stroke="#9a32cd" points="156.55,-21.83 146.17,-23.95 155.6,-28.77 156.55,-21.83"/>
</a>
</g>
<text text-anchor="start" x="188.5" y="-47.5" font-family="Helvetica,sans-Serif" font-size="10.00" fill="grey">metaData</text>
</g>
</g>
</svg>
