<?xml version="1.0" encoding="UTF-8" standalone="no"?>
<!DOCTYPE svg PUBLIC "-//W3C//DTD SVG 1.1//EN"
 "http://www.w3.org/Graphics/SVG/1.1/DTD/svg11.dtd">
<!-- Generated by graphviz version 2.43.0 (0)
 -->
<!-- Title: File Pages: 1 -->
<svg width="399pt" height="243pt"
 viewBox="0.00 0.00 398.50 243.00" xmlns="http://www.w3.org/2000/svg" xmlns:xlink="http://www.w3.org/1999/xlink">
<g id="graph0" class="graph" transform="scale(1 1) rotate(0) translate(4 239)">
<title>File</title>
<!-- Node1 -->
<g id="Node000001" class="node">
<title>Node1</title>
<g id="a_Node000001"><a xlink:title="File test class used to test the functionality of file.c.">
<polygon fill="#999999" stroke="#666666" points="107,-19 73,-19 73,0 107,0 107,-19"/>
<text text-anchor="middle" x="90" y="-7" font-family="Helvetica,sans-Serif" font-size="10.00">File</text>
</a>
</g>
</g>
<!-- Node2 -->
<g id="Node000002" class="node">
<title>Node2</title>
<g id="a_Node000002"><a xlink:href="class_base.html" target="_top" xlink:title="Base test class used to carry out memory leak checks.">
<polygon fill="white" stroke="#666666" points="58.5,-91 17.5,-91 17.5,-72 58.5,-72 58.5,-91"/>
<text text-anchor="middle" x="38" y="-79" font-family="Helvetica,sans-Serif" font-size="10.00">Base</text>
</a>
</g>
</g>
<!-- Node2&#45;&gt;Node1 -->
<g id="edge1_Node000001_Node000002" class="edge">
<title>Node2&#45;&gt;Node1</title>
<g id="a_edge1_Node000001_Node000002"><a xlink:title=" ">
<path fill="none" stroke="#63b8ff" d="M50.54,-63.62C60.96,-49.59 75.36,-30.21 83.57,-19.15"/>
<polygon fill="#63b8ff" stroke="#63b8ff" points="47.53,-61.8 44.38,-71.92 53.15,-65.98 47.53,-61.8"/>
</a>
</g>
</g>
<!-- Node3 -->
<g id="Node000003" class="node">
<title>Node3</title>
<g id="a_Node000003"><a xlink:title=" ">
<polygon fill="white" stroke="#bfbfbf" points="76,-163 0,-163 0,-144 76,-144 76,-163"/>
<text text-anchor="middle" x="38" y="-151" font-family="Helvetica,sans-Serif" font-size="10.00">testing::Test</text>
</a>
</g>
</g>
<!-- Node3&#45;&gt;Node2 -->
<g id="edge2_Node000002_Node000003" class="edge">
<title>Node3&#45;&gt;Node2</title>
<g id="a_edge2_Node000002_Node000003"><a xlink:title=" ">
<path fill="none" stroke="#63b8ff" d="M38,-133.58C38,-119.76 38,-101.68 38,-91.15"/>
<polygon fill="#63b8ff" stroke="#63b8ff" points="34.5,-133.92 38,-143.92 41.5,-133.92 34.5,-133.92"/>
</a>
</g>
</g>
<!-- Node4 -->
<g id="Node000004" class="node">
<title>Node4</title>
<g id="a_Node000004"><a xlink:href="structfiftyone_degrees_file_pool.html" target="_top" xlink:title="Stack of handles used to read data from a single source file.">
<polygon fill="white" stroke="#666666" points="209,-91 77,-91 77,-72 209,-72 209,-91"/>
<text text-anchor="middle" x="143" y="-79" font-family="Helvetica,sans-Serif" font-size="10.00">fiftyoneDegreesFilePool</text>
</a>
</g>
</g>
<!-- Node4&#45;&gt;Node1 -->
<g id="edge3_Node000001_Node000004" class="edge">
<title>Node4&#45;&gt;Node1</title>
<g id="a_edge3_Node000001_Node000004"><a xlink:title=" ">
<path fill="none" stroke="#9a32cd" stroke-dasharray="5,2" d="M130.22,-63.62C119.6,-49.59 104.92,-30.21 96.55,-19.15"/>
<polygon fill="#9a32cd" stroke="#9a32cd" points="127.67,-66.06 136.5,-71.92 133.26,-61.83 127.67,-66.06"/>
</a>
</g>
<text text-anchor="start" x="126" y="-42.5" font-family="Helvetica,sans-Serif" font-size="10.00" fill="grey">pool</text>
</g>
<!-- Node5 -->
<g id="Node000005" class="node">
<title>Node5</title>
<g id="a_Node000005"><a xlink:href="structfiftyone_degrees_pool.html" target="_top" xlink:title="Pool of resources stored as items in a stack.">
<polygon fill="white" stroke="#666666" points="302.5,-163 187.5,-163 187.5,-144 302.5,-144 302.5,-163"/>
<text text-anchor="middle" x="245" y="-151" font-family="Helvetica,sans-Serif" font-size="10.00">fiftyoneDegreesPool</text>
</a>
</g>
</g>
<!-- Node5&#45;&gt;Node4 -->
<g id="edge4_Node000004_Node000005" class="edge">
<title>Node5&#45;&gt;Node4</title>
<g id="a_edge4_Node000004_Node000005"><a xlink:title=" ">
<path fill="none" stroke="#9a32cd" stroke-dasharray="5,2" d="M224.1,-138.16C203.5,-124.02 172.72,-102.89 155.61,-91.15"/>
<polygon fill="#9a32cd" stroke="#9a32cd" points="222.27,-141.14 232.49,-143.92 226.23,-135.37 222.27,-141.14"/>
</a>
</g>
<text text-anchor="start" x="210" y="-114.5" font-family="Helvetica,sans-Serif" font-size="10.00" fill="grey">pool</text>
</g>
<!-- Node5&#45;&gt;Node5 -->
<g id="edge8_Node000005_Node000005" class="edge">
<title>Node5&#45;&gt;Node5</title>
<g id="a_edge8_Node000005_Node000005"><a xlink:title=" ">
<path fill="none" stroke="#9a32cd" stroke-dasharray="5,2" d="M312.53,-158.5C317.47,-157.37 320.5,-155.71 320.5,-153.5 320.5,-150.05 313.12,-147.93 302.61,-147.12"/>
<polygon fill="#9a32cd" stroke="#9a32cd" points="312.03,-155.03 302.61,-159.88 312.99,-161.97 312.03,-155.03"/>
</a>
</g>
<text text-anchor="start" x="323.5" y="-150.5" font-family="Helvetica,sans-Serif" font-size="10.00" fill="grey">resourceFree</text>
</g>
<!-- Node6 -->
<g id="Node000006" class="node">
<title>Node6</title>
<g id="a_Node000006"><a xlink:href="structfiftyone_degrees_pool_item.html" target="_top" xlink:title="Pool item node in the stack of items.">
<polygon fill="white" stroke="#666666" points="364.5,-91 227.5,-91 227.5,-72 364.5,-72 364.5,-91"/>
<text text-anchor="middle" x="296" y="-79" font-family="Helvetica,sans-Serif" font-size="10.00">fiftyoneDegreesPoolItem</text>
</a>
</g>
</g>
<!-- Node5&#45;&gt;Node6 -->
<g id="edge6_Node000006_Node000005" class="edge">
<title>Node5&#45;&gt;Node6</title>
<g id="a_edge6_Node000006_Node000005"><a xlink:title=" ">
<path fill="none" stroke="#9a32cd" stroke-dasharray="5,2" d="M239.04,-133.96C237.53,-125.76 237.43,-116.33 242,-109 247.14,-100.76 255.67,-95.01 264.45,-91.02"/>
<polygon fill="#9a32cd" stroke="#9a32cd" points="235.69,-134.96 241.57,-143.77 242.46,-133.21 235.69,-134.96"/>
</a>
</g>
<text text-anchor="start" x="245" y="-114.5" font-family="Helvetica,sans-Serif" font-size="10.00" fill="grey">pool</text>
</g>
<!-- Node6&#45;&gt;Node5 -->
<g id="edge5_Node000005_Node000006" class="edge">
<title>Node6&#45;&gt;Node5</title>
<g id="a_edge5_Node000005_Node000006"><a xlink:title=" ">
<path fill="none" stroke="#9a32cd" stroke-dasharray="5,2" d="M288.72,-100.43C284.95,-108.63 279.9,-118.23 274,-126 268.97,-132.63 262.15,-138.96 256.38,-143.77"/>
<polygon fill="#9a32cd" stroke="#9a32cd" points="292.02,-101.6 292.77,-91.03 285.6,-98.83 292.02,-101.6"/>
</a>
</g>
<text text-anchor="start" x="286.5" y="-114.5" font-family="Helvetica,sans-Serif" font-size="10.00" fill="grey">stack</text>
</g>
<!-- Node7 -->
<g id="Node000007" class="node">
<title>Node7</title>
<g id="a_Node000007"><a xlink:href="unionfiftyone_degrees_pool_head.html" target="_top" xlink:title="The head of the stack used for pop and push operations.">
<polygon fill="white" stroke="#666666" points="315,-235 175,-235 175,-216 315,-216 315,-235"/>
<text text-anchor="middle" x="245" y="-223" font-family="Helvetica,sans-Serif" font-size="10.00">fiftyoneDegreesPoolHead</text>
</a>
</g>
</g>
<!-- Node7&#45;&gt;Node5 -->
<g id="edge7_Node000005_Node000007" class="edge">
<title>Node7&#45;&gt;Node5</title>
<g id="a_edge7_Node000005_Node000007"><a xlink:title=" ">
<path fill="none" stroke="#9a32cd" stroke-dasharray="5,2" d="M245,-205.58C245,-191.76 245,-173.68 245,-163.15"/>
<polygon fill="#9a32cd" stroke="#9a32cd" points="241.5,-205.92 245,-215.92 248.5,-205.92 241.5,-205.92"/>
</a>
</g>
<text text-anchor="start" x="248.5" y="-186.5" font-family="Helvetica,sans-Serif" font-size="10.00" fill="grey">head</text>
</g>
</g>
</svg>
