<?xml version="1.0" encoding="UTF-8" standalone="no"?>
<!DOCTYPE svg PUBLIC "-//W3C//DTD SVG 1.1//EN"
 "http://www.w3.org/Graphics/SVG/1.1/DTD/svg11.dtd">
<!-- Generated by graphviz version 2.43.0 (0)
 -->
<!-- Title: FiftyoneDegrees::Common::Collection&lt; K, V &gt; Pages: 1 -->
<svg width="838pt" height="583pt"
 viewBox="0.00 0.00 838.00 583.37" xmlns="http://www.w3.org/2000/svg" xmlns:xlink="http://www.w3.org/1999/xlink">
<g id="graph0" class="graph" transform="scale(1 1) rotate(0) translate(4 579.37)">
<title>FiftyoneDegrees::Common::Collection&lt; K, V &gt;</title>
<!-- Node1 -->
<g id="Node000001" class="node">
<title>Node1</title>
<g id="a_Node000001"><a xlink:title="A group of items accessible by index or key.">
<polygon fill="#999999" stroke="#666666" points="146,-318.87 0,-318.87 0,-288.87 146,-288.87 146,-318.87"/>
<text text-anchor="start" x="8" y="-306.87" font-family="Helvetica,sans-Serif" font-size="10.00">FiftyoneDegrees::Common</text>
<text text-anchor="middle" x="73" y="-295.87" font-family="Helvetica,sans-Serif" font-size="10.00">::Collection&lt; K, V &gt;</text>
</a>
</g>
</g>
<!-- Node2 -->
<g id="Node000002" class="node">
<title>Node2</title>
<g id="a_Node000002"><a xlink:href="class_fiftyone_degrees_1_1_ip_intelligence_1_1_component_meta_data_collection_ipi.html" target="_top" xlink:title="A collection of component meta data contained in a IP Intelligence engine.">
<polygon fill="white" stroke="#666666" points="556,-575.37 368,-575.37 368,-534.37 556,-534.37 556,-575.37"/>
<text text-anchor="start" x="376" y="-563.37" font-family="Helvetica,sans-Serif" font-size="10.00">FiftyoneDegrees::IpIntelligence</text>
<text text-anchor="start" x="376" y="-552.37" font-family="Helvetica,sans-Serif" font-size="10.00">::ComponentMetaDataCollectionIpi</text>
<text text-anchor="middle" x="462" y="-541.37" font-family="Helvetica,sans-Serif" font-size="10.00">&lt;::byte, ComponentMetaData &gt;</text>
</a>
</g>
</g>
<!-- Node1&#45;&gt;Node2 -->
<g id="edge1_Node000001_Node000002" class="edge">
<title>Node1&#45;&gt;Node2</title>
<g id="a_edge1_Node000001_Node000002"><a xlink:title=" ">
<path fill="none" stroke="#63b8ff" d="M84.79,-328.51C99.07,-358.7 126.86,-409.77 164,-441.87 222.02,-492.01 304.6,-521.01 367.95,-537.05"/>
<polygon fill="#63b8ff" stroke="#63b8ff" points="87.83,-326.75 80.47,-319.13 81.47,-329.68 87.83,-326.75"/>
</a>
</g>
</g>
<!-- Node3 -->
<g id="Node000003" class="node">
<title>Node3</title>
<g id="a_Node000003"><a xlink:href="class_fiftyone_degrees_1_1_ip_intelligence_1_1_profile_meta_data_collection_ipi.html" target="_top" xlink:title="A collection of all profile meta data contained in an IP Intelligence engine.">
<polygon fill="white" stroke="#666666" points="546,-516.37 378,-516.37 378,-475.37 546,-475.37 546,-516.37"/>
<text text-anchor="start" x="386" y="-504.37" font-family="Helvetica,sans-Serif" font-size="10.00">FiftyoneDegrees::IpIntelligence</text>
<text text-anchor="start" x="386" y="-493.37" font-family="Helvetica,sans-Serif" font-size="10.00">::ProfileMetaDataCollectionIpi</text>
<text text-anchor="middle" x="462" y="-482.37" font-family="Helvetica,sans-Serif" font-size="10.00">&lt; uint32_t, ProfileMetaData &gt;</text>
</a>
</g>
</g>
<!-- Node1&#45;&gt;Node3 -->
<g id="edge2_Node000001_Node000003" class="edge">
<title>Node1&#45;&gt;Node3</title>
<g id="a_edge2_Node000001_Node000003"><a xlink:title=" ">
<path fill="none" stroke="#63b8ff" d="M92.6,-326.8C109.53,-346.46 136.07,-374.45 164,-392.87 229.61,-436.13 315.38,-463.31 377.87,-478.82"/>
<polygon fill="#63b8ff" stroke="#63b8ff" points="95.09,-324.31 85.96,-318.93 89.74,-328.83 95.09,-324.31"/>
</a>
</g>
</g>
<!-- Node4 -->
<g id="Node000004" class="node">
<title>Node4</title>
<g id="a_Node000004"><a xlink:href="class_fiftyone_degrees_1_1_ip_intelligence_1_1_property_meta_data_collection_for_component_ipi.html" target="_top" xlink:title="A collection of property meta data relating to a component contained in an IP Intelligence engine.">
<polygon fill="white" stroke="#666666" points="578,-457.37 346,-457.37 346,-416.37 578,-416.37 578,-457.37"/>
<text text-anchor="start" x="354" y="-445.37" font-family="Helvetica,sans-Serif" font-size="10.00">FiftyoneDegrees::IpIntelligence</text>
<text text-anchor="start" x="354" y="-434.37" font-family="Helvetica,sans-Serif" font-size="10.00">::PropertyMetaDataCollectionForComponent</text>
<text text-anchor="middle" x="462" y="-423.37" font-family="Helvetica,sans-Serif" font-size="10.00">Ipi&lt; string, PropertyMetaData &gt;</text>
</a>
</g>
</g>
<!-- Node1&#45;&gt;Node4 -->
<g id="edge3_Node000001_Node000004" class="edge">
<title>Node1&#45;&gt;Node4</title>
<g id="a_edge3_Node000001_Node000004"><a xlink:title=" ">
<path fill="none" stroke="#63b8ff" d="M107.33,-324.14C123.95,-333.7 144.61,-344.76 164,-352.87 229.75,-380.36 307.35,-401.96 366.73,-416.37"/>
<polygon fill="#63b8ff" stroke="#63b8ff" points="108.94,-321.03 98.54,-319.01 105.41,-327.08 108.94,-321.03"/>
</a>
</g>
</g>
<!-- Node5 -->
<g id="Node000005" class="node">
<title>Node5</title>
<g id="a_Node000005"><a xlink:href="class_fiftyone_degrees_1_1_ip_intelligence_1_1_property_meta_data_collection_for_property_ipi.html" target="_top" xlink:title=" ">
<polygon fill="white" stroke="#bfbfbf" points="570.5,-398.37 353.5,-398.37 353.5,-357.37 570.5,-357.37 570.5,-398.37"/>
<text text-anchor="start" x="361.5" y="-386.37" font-family="Helvetica,sans-Serif" font-size="10.00">FiftyoneDegrees::IpIntelligence</text>
<text text-anchor="start" x="361.5" y="-375.37" font-family="Helvetica,sans-Serif" font-size="10.00">::PropertyMetaDataCollectionForProperty</text>
<text text-anchor="middle" x="462" y="-364.37" font-family="Helvetica,sans-Serif" font-size="10.00">Ipi&lt; string, PropertyMetaData &gt;</text>
</a>
</g>
</g>
<!-- Node1&#45;&gt;Node5 -->
<g id="edge4_Node000001_Node000005" class="edge">
<title>Node1&#45;&gt;Node5</title>
<g id="a_edge4_Node000001_Node000005"><a xlink:title=" ">
<path fill="none" stroke="#63b8ff" d="M150.39,-321.06C154.99,-322.03 159.56,-322.97 164,-323.87 226.54,-336.5 296.77,-349.33 353.23,-359.31"/>
<polygon fill="#63b8ff" stroke="#63b8ff" points="150.8,-317.57 140.29,-318.9 149.34,-324.41 150.8,-317.57"/>
</a>
</g>
</g>
<!-- Node6 -->
<g id="Node000006" class="node">
<title>Node6</title>
<g id="a_Node000006"><a xlink:href="class_fiftyone_degrees_1_1_ip_intelligence_1_1_property_meta_data_collection_ipi.html" target="_top" xlink:title="A collection of all property meta data contained in an IP Intelligence engine.">
<polygon fill="white" stroke="#666666" points="548.5,-339.37 375.5,-339.37 375.5,-298.37 548.5,-298.37 548.5,-339.37"/>
<text text-anchor="start" x="383.5" y="-327.37" font-family="Helvetica,sans-Serif" font-size="10.00">FiftyoneDegrees::IpIntelligence</text>
<text text-anchor="start" x="383.5" y="-316.37" font-family="Helvetica,sans-Serif" font-size="10.00">::PropertyMetaDataCollectionIpi</text>
<text text-anchor="middle" x="462" y="-305.37" font-family="Helvetica,sans-Serif" font-size="10.00">&lt; string, PropertyMetaData &gt;</text>
</a>
</g>
</g>
<!-- Node1&#45;&gt;Node6 -->
<g id="edge5_Node000001_Node000006" class="edge">
<title>Node1&#45;&gt;Node6</title>
<g id="a_edge5_Node000001_Node000006"><a xlink:title=" ">
<path fill="none" stroke="#63b8ff" d="M156.45,-307.06C220.81,-309.56 309.96,-313.01 375.17,-315.54"/>
<polygon fill="#63b8ff" stroke="#63b8ff" points="156.47,-303.56 146.34,-306.67 156.19,-310.56 156.47,-303.56"/>
</a>
</g>
</g>
<!-- Node7 -->
<g id="Node000007" class="node">
<title>Node7</title>
<g id="a_Node000007"><a xlink:href="class_fiftyone_degrees_1_1_ip_intelligence_1_1_value_meta_data_collection_base_ipi.html" target="_top" xlink:title="A collection of all value meta data contained in an IP Intelligence engine.">
<polygon fill="white" stroke="#666666" points="568.5,-280.37 355.5,-280.37 355.5,-239.37 568.5,-239.37 568.5,-280.37"/>
<text text-anchor="start" x="363.5" y="-268.37" font-family="Helvetica,sans-Serif" font-size="10.00">FiftyoneDegrees::IpIntelligence</text>
<text text-anchor="start" x="363.5" y="-257.37" font-family="Helvetica,sans-Serif" font-size="10.00">::ValueMetaDataCollectionBaseIpi</text>
<text text-anchor="middle" x="462" y="-246.37" font-family="Helvetica,sans-Serif" font-size="10.00">&lt; ValueMetaDataKey, ValueMetaData &gt;</text>
</a>
</g>
</g>
<!-- Node1&#45;&gt;Node7 -->
<g id="edge6_Node000001_Node000007" class="edge">
<title>Node1&#45;&gt;Node7</title>
<g id="a_edge6_Node000001_Node000007"><a xlink:title=" ">
<path fill="none" stroke="#63b8ff" d="M156.57,-294.48C214.63,-287.88 292.82,-278.99 355.41,-271.87"/>
<polygon fill="#63b8ff" stroke="#63b8ff" points="155.88,-291.03 146.34,-295.64 156.67,-297.99 155.88,-291.03"/>
</a>
</g>
</g>
<!-- Node11 -->
<g id="Node000011" class="node">
<title>Node11</title>
<g id="a_Node000011"><a xlink:href="class_fiftyone_degrees_1_1_common_1_1_collection.html" target="_top" xlink:title=" ">
<polygon fill="white" stroke="#666666" points="547,-221.37 377,-221.37 377,-180.37 547,-180.37 547,-221.37"/>
<text text-anchor="start" x="385" y="-209.37" font-family="Helvetica,sans-Serif" font-size="10.00">FiftyoneDegrees::Common</text>
<text text-anchor="start" x="385" y="-198.37" font-family="Helvetica,sans-Serif" font-size="10.00">::Collection&lt;::byte, Component</text>
<text text-anchor="middle" x="462" y="-187.37" font-family="Helvetica,sans-Serif" font-size="10.00">MetaData &gt;</text>
</a>
</g>
</g>
<!-- Node1&#45;&gt;Node11 -->
<g id="edge10_Node000001_Node000011" class="edge">
<title>Node1&#45;&gt;Node11</title>
<g id="a_edge10_Node000001_Node000011"><a xlink:title=" ">
<path fill="none" stroke="orange" stroke-dasharray="5,2" d="M105.13,-283.21C121.93,-272.94 143.4,-261.2 164,-253.87 233.46,-229.15 316.32,-215.59 376.85,-208.39"/>
<polygon fill="orange" stroke="orange" points="102.94,-280.45 96.32,-288.72 106.65,-286.38 102.94,-280.45"/>
</a>
</g>
<text text-anchor="start" x="167" y="-259.37" font-family="Helvetica,sans-Serif" font-size="10.00" fill="grey">&lt;::byte, ComponentMetaData &gt;</text>
</g>
<!-- Node12 -->
<g id="Node000012" class="node">
<title>Node12</title>
<g id="a_Node000012"><a xlink:href="class_fiftyone_degrees_1_1_common_1_1_collection.html" target="_top" xlink:title=" ">
<polygon fill="white" stroke="#666666" points="535,-162.37 389,-162.37 389,-121.37 535,-121.37 535,-162.37"/>
<text text-anchor="start" x="397" y="-150.37" font-family="Helvetica,sans-Serif" font-size="10.00">FiftyoneDegrees::Common</text>
<text text-anchor="start" x="397" y="-139.37" font-family="Helvetica,sans-Serif" font-size="10.00">::Collection&lt; uint32_t,</text>
<text text-anchor="middle" x="462" y="-128.37" font-family="Helvetica,sans-Serif" font-size="10.00"> ProfileMetaData &gt;</text>
</a>
</g>
</g>
<!-- Node1&#45;&gt;Node12 -->
<g id="edge11_Node000001_Node000012" class="edge">
<title>Node1&#45;&gt;Node12</title>
<g id="a_edge11_Node000001_Node000012"><a xlink:title=" ">
<path fill="none" stroke="orange" stroke-dasharray="5,2" d="M86.77,-279.73C101.7,-254.06 128.91,-214.39 164,-193.87 233.02,-153.5 325.42,-142.79 388.72,-140.72"/>
<polygon fill="orange" stroke="orange" points="83.7,-278.06 81.84,-288.49 89.79,-281.5 83.7,-278.06"/>
</a>
</g>
<text text-anchor="start" x="172" y="-199.37" font-family="Helvetica,sans-Serif" font-size="10.00" fill="grey">&lt; uint32_t, ProfileMetaData &gt;</text>
</g>
<!-- Node13 -->
<g id="Node000013" class="node">
<title>Node13</title>
<g id="a_Node000013"><a xlink:href="class_fiftyone_degrees_1_1_common_1_1_collection.html" target="_top" xlink:title=" ">
<polygon fill="white" stroke="#666666" points="535,-103.37 389,-103.37 389,-62.37 535,-62.37 535,-103.37"/>
<text text-anchor="start" x="397" y="-91.37" font-family="Helvetica,sans-Serif" font-size="10.00">FiftyoneDegrees::Common</text>
<text text-anchor="start" x="397" y="-80.37" font-family="Helvetica,sans-Serif" font-size="10.00">::Collection&lt; string,</text>
<text text-anchor="middle" x="462" y="-69.37" font-family="Helvetica,sans-Serif" font-size="10.00"> PropertyMetaData &gt;</text>
</a>
</g>
</g>
<!-- Node1&#45;&gt;Node13 -->
<g id="edge12_Node000001_Node000013" class="edge">
<title>Node1&#45;&gt;Node13</title>
<g id="a_edge12_Node000001_Node000013"><a xlink:title=" ">
<path fill="none" stroke="orange" stroke-dasharray="5,2" d="M78.86,-278.88C88,-239.19 111.72,-162.4 164,-124.87 229.36,-77.94 324,-72.36 388.78,-75.31"/>
<polygon fill="orange" stroke="orange" points="75.41,-278.29 76.71,-288.8 82.25,-279.77 75.41,-278.29"/>
</a>
</g>
<text text-anchor="start" x="173" y="-130.37" font-family="Helvetica,sans-Serif" font-size="10.00" fill="grey">&lt; string, PropertyMetaData &gt;</text>
</g>
<!-- Node14 -->
<g id="Node000014" class="node">
<title>Node14</title>
<g id="a_Node000014"><a xlink:href="class_fiftyone_degrees_1_1_common_1_1_collection.html" target="_top" xlink:title=" ">
<polygon fill="white" stroke="#666666" points="551.5,-44.37 372.5,-44.37 372.5,-3.37 551.5,-3.37 551.5,-44.37"/>
<text text-anchor="start" x="380.5" y="-32.37" font-family="Helvetica,sans-Serif" font-size="10.00">FiftyoneDegrees::Common</text>
<text text-anchor="start" x="380.5" y="-21.37" font-family="Helvetica,sans-Serif" font-size="10.00">::Collection&lt; ValueMetaDataKey,</text>
<text text-anchor="middle" x="462" y="-10.37" font-family="Helvetica,sans-Serif" font-size="10.00"> ValueMetaData &gt;</text>
</a>
</g>
</g>
<!-- Node1&#45;&gt;Node14 -->
<g id="edge13_Node000001_Node000014" class="edge">
<title>Node1&#45;&gt;Node14</title>
<g id="a_edge13_Node000001_Node000014"><a xlink:title=" ">
<path fill="none" stroke="orange" stroke-dasharray="5,2" d="M74.04,-278.65C75.63,-224.79 87.75,-98.73 164,-40.87 222.63,3.62 308.01,3.85 372.2,-4.69"/>
<polygon fill="orange" stroke="orange" points="70.54,-278.64 73.84,-288.71 77.53,-278.78 70.54,-278.64"/>
</a>
</g>
<text text-anchor="start" x="192" y="-61.87" font-family="Helvetica,sans-Serif" font-size="10.00" fill="grey">&lt; ValueMetaDataKey,</text>
<text text-anchor="start" x="192" y="-46.87" font-family="Helvetica,sans-Serif" font-size="10.00" fill="grey">   ValueMetaData &gt;</text>
</g>
<!-- Node8 -->
<g id="Node000008" class="node">
<title>Node8</title>
<g id="a_Node000008"><a xlink:href="class_fiftyone_degrees_1_1_ip_intelligence_1_1_value_meta_data_collection_for_profile_ipi.html" target="_top" xlink:title="A collection of value meta data relating to a profile contained in an IP Intelligence engine.">
<polygon fill="white" stroke="#666666" points="824.5,-322.87 620.5,-322.87 620.5,-292.87 824.5,-292.87 824.5,-322.87"/>
<text text-anchor="start" x="628.5" y="-310.87" font-family="Helvetica,sans-Serif" font-size="10.00">FiftyoneDegrees::IpIntelligence</text>
<text text-anchor="middle" x="722.5" y="-299.87" font-family="Helvetica,sans-Serif" font-size="10.00">::ValueMetaDataCollectionForProfileIpi</text>
</a>
</g>
</g>
<!-- Node7&#45;&gt;Node8 -->
<g id="edge7_Node000007_Node000008" class="edge">
<title>Node7&#45;&gt;Node8</title>
<g id="a_edge7_Node000007_Node000008"><a xlink:title=" ">
<path fill="none" stroke="#63b8ff" d="M578.42,-281.3C599.36,-285.19 620.79,-289.17 640.48,-292.82"/>
<polygon fill="#63b8ff" stroke="#63b8ff" points="578.99,-277.84 568.51,-279.46 577.71,-284.73 578.99,-277.84"/>
</a>
</g>
</g>
<!-- Node9 -->
<g id="Node000009" class="node">
<title>Node9</title>
<g id="a_Node000009"><a xlink:href="class_fiftyone_degrees_1_1_ip_intelligence_1_1_value_meta_data_collection_for_property_ipi.html" target="_top" xlink:title="A collection of value meta data relating to a property contained in an IP Intelligence engine.">
<polygon fill="white" stroke="#666666" points="830,-274.87 615,-274.87 615,-244.87 830,-244.87 830,-274.87"/>
<text text-anchor="start" x="623" y="-262.87" font-family="Helvetica,sans-Serif" font-size="10.00">FiftyoneDegrees::IpIntelligence</text>
<text text-anchor="middle" x="722.5" y="-251.87" font-family="Helvetica,sans-Serif" font-size="10.00">::ValueMetaDataCollectionForPropertyIpi</text>
</a>
</g>
</g>
<!-- Node7&#45;&gt;Node9 -->
<g id="edge8_Node000007_Node000009" class="edge">
<title>Node7&#45;&gt;Node9</title>
<g id="a_edge8_Node000007_Node000009"><a xlink:title=" ">
<path fill="none" stroke="#63b8ff" d="M578.56,-259.87C590.57,-259.87 602.74,-259.87 614.65,-259.87"/>
<polygon fill="#63b8ff" stroke="#63b8ff" points="578.51,-256.37 568.51,-259.87 578.51,-263.37 578.51,-256.37"/>
</a>
</g>
</g>
<!-- Node10 -->
<g id="Node000010" class="node">
<title>Node10</title>
<g id="a_Node000010"><a xlink:href="class_fiftyone_degrees_1_1_ip_intelligence_1_1_value_meta_data_collection_ipi.html" target="_top" xlink:title="A collection of all value meta data contained in a IP Intelligence engine.">
<polygon fill="white" stroke="#666666" points="806.5,-226.87 638.5,-226.87 638.5,-196.87 806.5,-196.87 806.5,-226.87"/>
<text text-anchor="start" x="646.5" y="-214.87" font-family="Helvetica,sans-Serif" font-size="10.00">FiftyoneDegrees::IpIntelligence</text>
<text text-anchor="middle" x="722.5" y="-203.87" font-family="Helvetica,sans-Serif" font-size="10.00">::ValueMetaDataCollectionIpi</text>
</a>
</g>
</g>
<!-- Node7&#45;&gt;Node10 -->
<g id="edge9_Node000007_Node000010" class="edge">
<title>Node7&#45;&gt;Node10</title>
<g id="a_edge9_Node000007_Node000010"><a xlink:title=" ">
<path fill="none" stroke="#63b8ff" d="M578.42,-238.43C599.36,-234.55 620.79,-230.57 640.48,-226.91"/>
<polygon fill="#63b8ff" stroke="#63b8ff" points="577.71,-235.01 568.51,-240.27 578.99,-241.89 577.71,-235.01"/>
</a>
</g>
</g>
</g>
</svg>
