<?xml version="1.0" encoding="UTF-8" standalone="no"?>
<!DOCTYPE svg PUBLIC "-//W3C//DTD SVG 1.1//EN"
 "http://www.w3.org/Graphics/SVG/1.1/DTD/svg11.dtd">
<!-- Generated by graphviz version 2.43.0 (0)
 -->
<!-- Title: FiftyoneDegrees::IpIntelligence::EvidenceBase Pages: 1 -->
<svg width="183pt" height="166pt"
 viewBox="0.00 0.00 183.00 166.00" xmlns="http://www.w3.org/2000/svg" xmlns:xlink="http://www.w3.org/1999/xlink">
<g id="graph0" class="graph" transform="scale(1 1) rotate(0) translate(4 162)">
<title>FiftyoneDegrees::IpIntelligence::EvidenceBase</title>
<!-- Node1 -->
<g id="Node000001" class="node">
<title>Node1</title>
<g id="a_Node000001"><a xlink:title="Base evidence class containing evidence to be processed by an engine.">
<polygon fill="#999999" stroke="#666666" points="168,-30 0,-30 0,0 168,0 168,-30"/>
<text text-anchor="start" x="8" y="-18" font-family="Helvetica,sans-Serif" font-size="10.00">FiftyoneDegrees::IpIntelligence</text>
<text text-anchor="middle" x="84" y="-7" font-family="Helvetica,sans-Serif" font-size="10.00">::EvidenceBase</text>
</a>
</g>
</g>
<!-- Node2 -->
<g id="Node000002" class="node">
<title>Node2</title>
<g id="a_Node000002"><a xlink:href="structmap.html" target="_top" xlink:title=" ">
<polygon fill="white" stroke="#bfbfbf" points="145,-86 23,-86 23,-67 145,-67 145,-86"/>
<text text-anchor="middle" x="84" y="-74" font-family="Helvetica,sans-Serif" font-size="10.00">map&lt; string, string &gt;</text>
</a>
</g>
</g>
<!-- Node2&#45;&gt;Node1 -->
<g id="edge1_Node000001_Node000002" class="edge">
<title>Node2&#45;&gt;Node1</title>
<g id="a_edge1_Node000001_Node000002"><a xlink:title=" ">
<path fill="none" stroke="#63b8ff" d="M84,-56.73C84,-48.09 84,-38 84,-30.02"/>
<polygon fill="#63b8ff" stroke="#63b8ff" points="80.5,-56.98 84,-66.98 87.5,-56.98 80.5,-56.98"/>
</a>
</g>
</g>
<!-- Node3 -->
<g id="Node000003" class="node">
<title>Node3</title>
<g id="a_Node000003"><a xlink:href="structmap.html" target="_top" xlink:title=" ">
<polygon fill="white" stroke="#bfbfbf" points="103,-158 65,-158 65,-139 103,-139 103,-158"/>
<text text-anchor="middle" x="84" y="-146" font-family="Helvetica,sans-Serif" font-size="10.00">map</text>
</a>
</g>
</g>
<!-- Node3&#45;&gt;Node2 -->
<g id="edge2_Node000002_Node000003" class="edge">
<title>Node3&#45;&gt;Node2</title>
<g id="a_edge2_Node000002_Node000003"><a xlink:title=" ">
<path fill="none" stroke="orange" stroke-dasharray="5,2" d="M84,-128.58C84,-114.76 84,-96.68 84,-86.15"/>
<polygon fill="orange" stroke="orange" points="80.5,-128.92 84,-138.92 87.5,-128.92 80.5,-128.92"/>
</a>
</g>
<text text-anchor="start" x="87.5" y="-109.5" font-family="Helvetica,sans-Serif" font-size="10.00" fill="grey">&lt; string, string &gt;</text>
</g>
</g>
</svg>
