<?xml version="1.0" encoding="UTF-8" standalone="no"?>
<!DOCTYPE svg PUBLIC "-//W3C//DTD SVG 1.1//EN"
 "http://www.w3.org/Graphics/SVG/1.1/DTD/svg11.dtd">
<!-- Generated by graphviz version 2.43.0 (0)
 -->
<!-- Title: FixedSizeCollection&lt; T &gt; Pages: 1 -->
<svg width="505pt" height="137pt"
 viewBox="0.00 0.00 505.00 137.00" xmlns="http://www.w3.org/2000/svg" xmlns:xlink="http://www.w3.org/1999/xlink">
<g id="graph0" class="graph" transform="scale(1 1) rotate(0) translate(4 133)">
<title>FixedSizeCollection&lt; T &gt;</title>
<!-- Node0 -->
<g id="node1" class="node">
<title>Node0</title>
<g id="a_node1"><a xlink:title="Fixed size object collection helper class, used by test classes to fetch.">
<polygon fill="#bfbfbf" stroke="black" points="0,-55 0,-74 140,-74 140,-55 0,-55"/>
<text text-anchor="middle" x="70" y="-62" font-family="Helvetica,sans-Serif" font-size="10.00">FixedSizeCollection&lt; T &gt;</text>
</a>
</g>
</g>
<!-- Node1 -->
<g id="node2" class="node">
<title>Node1</title>
<g id="a_node2"><a xlink:href="class_fixed_size_collection.html" target="_top" xlink:title=" ">
<polygon fill="none" stroke="black" points="321,-98.5 321,-128.5 497,-128.5 497,-98.5 321,-98.5"/>
<text text-anchor="start" x="329" y="-116.5" font-family="Helvetica,sans-Serif" font-size="10.00">FixedSizeCollection</text>
<text text-anchor="middle" x="409" y="-105.5" font-family="Helvetica,sans-Serif" font-size="10.00">&lt; fiftyoneDegreesProfileOffset &gt;</text>
</a>
</g>
</g>
<!-- Node0&#45;&gt;Node1 -->
<g id="edge1" class="edge">
<title>Node0&#45;&gt;Node1</title>
<path fill="none" stroke="orange" stroke-dasharray="5,2" d="M134.33,-75.69C142.29,-77.02 150.33,-78.32 158,-79.5 212.01,-87.83 272.74,-96.11 320.83,-102.42"/>
<polygon fill="orange" stroke="orange" points="134.77,-72.21 124.32,-74 133.6,-79.12 134.77,-72.21"/>
<text text-anchor="start" x="169" y="-113.5" font-family="Helvetica,sans-Serif" font-size="10.00"> &lt; fiftyoneDegreesProfile</text>
<text text-anchor="middle" x="230.5" y="-102.5" font-family="Helvetica,sans-Serif" font-size="10.00">Offset &gt;</text>
</g>
<!-- Node2 -->
<g id="node3" class="node">
<title>Node2</title>
<g id="a_node3"><a xlink:href="class_fixed_size_collection.html" target="_top" xlink:title=" ">
<polygon fill="none" stroke="black" points="337.5,-49.5 337.5,-79.5 480.5,-79.5 480.5,-49.5 337.5,-49.5"/>
<text text-anchor="start" x="345.5" y="-67.5" font-family="Helvetica,sans-Serif" font-size="10.00">FixedSizeCollection</text>
<text text-anchor="middle" x="409" y="-56.5" font-family="Helvetica,sans-Serif" font-size="10.00">&lt; fiftyoneDegreesValue &gt;</text>
</a>
</g>
</g>
<!-- Node0&#45;&gt;Node2 -->
<g id="edge2" class="edge">
<title>Node0&#45;&gt;Node2</title>
<path fill="none" stroke="orange" stroke-dasharray="5,2" d="M150.02,-64.5C206.77,-64.5 282.6,-64.5 337.34,-64.5"/>
<polygon fill="orange" stroke="orange" points="150.01,-61 140.01,-64.5 150.01,-68 150.01,-61"/>
<text text-anchor="middle" x="230.5" y="-67.5" font-family="Helvetica,sans-Serif" font-size="10.00"> &lt; fiftyoneDegreesValue &gt;</text>
</g>
<!-- Node3 -->
<g id="node4" class="node">
<title>Node3</title>
<g id="a_node4"><a xlink:href="class_fixed_size_collection.html" target="_top" xlink:title=" ">
<polygon fill="none" stroke="black" points="330,-0.5 330,-30.5 488,-30.5 488,-0.5 330,-0.5"/>
<text text-anchor="start" x="338" y="-18.5" font-family="Helvetica,sans-Serif" font-size="10.00">FixedSizeCollection</text>
<text text-anchor="middle" x="409" y="-7.5" font-family="Helvetica,sans-Serif" font-size="10.00">&lt; fiftyoneDegreesProperty &gt;</text>
</a>
</g>
</g>
<!-- Node0&#45;&gt;Node3 -->
<g id="edge3" class="edge">
<title>Node0&#45;&gt;Node3</title>
<path fill="none" stroke="orange" stroke-dasharray="5,2" d="M134.33,-53.31C142.29,-51.98 150.33,-50.68 158,-49.5 215.47,-40.64 280.56,-31.83 329.92,-25.39"/>
<polygon fill="orange" stroke="orange" points="133.6,-49.88 124.32,-55 134.77,-56.79 133.6,-49.88"/>
<text text-anchor="middle" x="230.5" y="-52.5" font-family="Helvetica,sans-Serif" font-size="10.00"> &lt; fiftyoneDegreesProperty &gt;</text>
</g>
</g>
</svg>
