<?xml version="1.0" encoding="UTF-8" standalone="no"?>
<!DOCTYPE svg PUBLIC "-//W3C//DTD SVG 1.1//EN"
 "http://www.w3.org/Graphics/SVG/1.1/DTD/svg11.dtd">
<!-- Generated by graphviz version 2.43.0 (0)
 -->
<!-- Title: Evidence Pages: 1 -->
<svg width="437pt" height="134pt"
 viewBox="0.00 0.00 437.00 134.00" xmlns="http://www.w3.org/2000/svg" xmlns:xlink="http://www.w3.org/1999/xlink">
<g id="graph0" class="graph" transform="scale(1 1) rotate(0) translate(4 130)">
<title>Evidence</title>
<!-- Node1 -->
<g id="Node000001" class="node">
<title>Node1</title>
<g id="a_Node000001"><a xlink:title="Evidence test class used to test the functionality in evidence.c.">
<polygon fill="#999999" stroke="#666666" points="250,-72.5 189,-72.5 189,-53.5 250,-53.5 250,-72.5"/>
<text text-anchor="middle" x="219.5" y="-60.5" font-family="Helvetica,sans-Serif" font-size="10.00">Evidence</text>
</a>
</g>
</g>
<!-- Node4 -->
<g id="Node000004" class="node">
<title>Node4</title>
<g id="a_Node000004"><a xlink:href="class_evidence_with_headers_test___multiple_headers.html" target="_top" xlink:title=" ">
<polygon fill="white" stroke="#bfbfbf" points="429,-126 286,-126 286,-96 429,-96 429,-126"/>
<text text-anchor="start" x="294" y="-114" font-family="Helvetica,sans-Serif" font-size="10.00">EvidenceWithHeadersTest</text>
<text text-anchor="middle" x="357.5" y="-103" font-family="Helvetica,sans-Serif" font-size="10.00">_MultipleHeaders</text>
</a>
</g>
</g>
<!-- Node1&#45;&gt;Node4 -->
<g id="edge3_Node000001_Node000004" class="edge">
<title>Node1&#45;&gt;Node4</title>
<g id="a_edge3_Node000001_Node000004"><a xlink:title=" ">
<path fill="none" stroke="#63b8ff" d="M255.71,-76.07C265.5,-79.66 276.15,-83.52 286,-87 294.29,-89.93 303.15,-93 311.69,-95.92"/>
<polygon fill="#63b8ff" stroke="#63b8ff" points="256.86,-72.77 246.27,-72.6 254.45,-79.34 256.86,-72.77"/>
</a>
</g>
</g>
<!-- Node5 -->
<g id="Node000005" class="node">
<title>Node5</title>
<g id="a_Node000005"><a xlink:href="class_evidence_with_headers_test___no_header.html" target="_top" xlink:title=" ">
<polygon fill="white" stroke="#bfbfbf" points="429,-78 286,-78 286,-48 429,-48 429,-78"/>
<text text-anchor="start" x="294" y="-66" font-family="Helvetica,sans-Serif" font-size="10.00">EvidenceWithHeadersTest</text>
<text text-anchor="middle" x="357.5" y="-55" font-family="Helvetica,sans-Serif" font-size="10.00">_NoHeader</text>
</a>
</g>
</g>
<!-- Node1&#45;&gt;Node5 -->
<g id="edge4_Node000001_Node000005" class="edge">
<title>Node1&#45;&gt;Node5</title>
<g id="a_edge4_Node000001_Node000005"><a xlink:title=" ">
<path fill="none" stroke="#63b8ff" d="M260.19,-63C268.26,-63 276.97,-63 285.75,-63"/>
<polygon fill="#63b8ff" stroke="#63b8ff" points="260.01,-59.5 250.01,-63 260.01,-66.5 260.01,-59.5"/>
</a>
</g>
</g>
<!-- Node6 -->
<g id="Node000006" class="node">
<title>Node6</title>
<g id="a_Node000006"><a xlink:href="class_evidence_with_headers_test___single_header.html" target="_top" xlink:title=" ">
<polygon fill="white" stroke="#bfbfbf" points="429,-30 286,-30 286,0 429,0 429,-30"/>
<text text-anchor="start" x="294" y="-18" font-family="Helvetica,sans-Serif" font-size="10.00">EvidenceWithHeadersTest</text>
<text text-anchor="middle" x="357.5" y="-7" font-family="Helvetica,sans-Serif" font-size="10.00">_SingleHeader</text>
</a>
</g>
</g>
<!-- Node1&#45;&gt;Node6 -->
<g id="edge5_Node000001_Node000006" class="edge">
<title>Node1&#45;&gt;Node6</title>
<g id="a_edge5_Node000001_Node000006"><a xlink:title=" ">
<path fill="none" stroke="#63b8ff" d="M255.71,-49.93C265.5,-46.34 276.15,-42.48 286,-39 294.29,-36.07 303.15,-33 311.69,-30.08"/>
<polygon fill="#63b8ff" stroke="#63b8ff" points="254.45,-46.66 246.27,-53.4 256.86,-53.23 254.45,-46.66"/>
</a>
</g>
</g>
<!-- Node2 -->
<g id="Node000002" class="node">
<title>Node2</title>
<g id="a_Node000002"><a xlink:href="class_base.html" target="_top" xlink:title="Base test class used to carry out memory leak checks.">
<polygon fill="white" stroke="#666666" points="153,-72.5 112,-72.5 112,-53.5 153,-53.5 153,-72.5"/>
<text text-anchor="middle" x="132.5" y="-60.5" font-family="Helvetica,sans-Serif" font-size="10.00">Base</text>
</a>
</g>
</g>
<!-- Node2&#45;&gt;Node1 -->
<g id="edge1_Node000001_Node000002" class="edge">
<title>Node2&#45;&gt;Node1</title>
<g id="a_edge1_Node000001_Node000002"><a xlink:title=" ">
<path fill="none" stroke="#63b8ff" d="M163.25,-63C171.56,-63 180.59,-63 188.89,-63"/>
<polygon fill="#63b8ff" stroke="#63b8ff" points="163.21,-59.5 153.21,-63 163.21,-66.5 163.21,-59.5"/>
</a>
</g>
</g>
<!-- Node3 -->
<g id="Node000003" class="node">
<title>Node3</title>
<g id="a_Node000003"><a xlink:title=" ">
<polygon fill="white" stroke="#bfbfbf" points="76,-72.5 0,-72.5 0,-53.5 76,-53.5 76,-72.5"/>
<text text-anchor="middle" x="38" y="-60.5" font-family="Helvetica,sans-Serif" font-size="10.00">testing::Test</text>
</a>
</g>
</g>
<!-- Node3&#45;&gt;Node2 -->
<g id="edge2_Node000002_Node000003" class="edge">
<title>Node3&#45;&gt;Node2</title>
<g id="a_edge2_Node000002_Node000003"><a xlink:title=" ">
<path fill="none" stroke="#63b8ff" d="M86.28,-63C95.35,-63 104.36,-63 111.93,-63"/>
<polygon fill="#63b8ff" stroke="#63b8ff" points="86.09,-59.5 76.09,-63 86.09,-66.5 86.09,-59.5"/>
</a>
</g>
</g>
</g>
</svg>
