<?xml version="1.0" encoding="UTF-8" standalone="no"?>
<!DOCTYPE svg PUBLIC "-//W3C//DTD SVG 1.1//EN"
 "http://www.w3.org/Graphics/SVG/1.1/DTD/svg11.dtd">
<!-- Generated by graphviz version 2.43.0 (0)
 -->
<!-- Title: FiftyoneDegrees::IpIntelligence::ValueMetaDataCollectionIpi Pages: 1 -->
<svg width="190pt" height="170pt"
 viewBox="0.00 0.00 190.00 170.00" xmlns="http://www.w3.org/2000/svg" xmlns:xlink="http://www.w3.org/1999/xlink">
<g id="graph0" class="graph" transform="scale(1 1) rotate(0) translate(4 166)">
<title>FiftyoneDegrees::IpIntelligence::ValueMetaDataCollectionIpi</title>
<!-- Node1 -->
<g id="Node000001" class="node">
<title>Node1</title>
<g id="a_Node000001"><a xlink:title="A collection of all value meta data contained in a IP Intelligence engine.">
<polygon fill="#999999" stroke="#666666" points="175,-30 7,-30 7,0 175,0 175,-30"/>
<text text-anchor="start" x="15" y="-18" font-family="Helvetica,sans-Serif" font-size="10.00">FiftyoneDegrees::IpIntelligence</text>
<text text-anchor="middle" x="91" y="-7" font-family="Helvetica,sans-Serif" font-size="10.00">::ValueMetaDataCollectionIpi</text>
</a>
</g>
</g>
<!-- Node2 -->
<g id="Node000002" class="node">
<title>Node2</title>
<g id="a_Node000002"><a xlink:href="class_fiftyone_degrees_1_1_ip_intelligence_1_1_value_meta_data_collection_base_ipi.html" target="_top" xlink:title="A collection of all value meta data contained in an IP Intelligence engine.">
<polygon fill="white" stroke="#666666" points="182,-96 0,-96 0,-66 182,-66 182,-96"/>
<text text-anchor="start" x="8" y="-84" font-family="Helvetica,sans-Serif" font-size="10.00">FiftyoneDegrees::IpIntelligence</text>
<text text-anchor="middle" x="91" y="-73" font-family="Helvetica,sans-Serif" font-size="10.00">::ValueMetaDataCollectionBaseIpi</text>
</a>
</g>
</g>
<!-- Node2&#45;&gt;Node1 -->
<g id="edge1_Node000001_Node000002" class="edge">
<title>Node2&#45;&gt;Node1</title>
<g id="a_edge1_Node000001_Node000002"><a xlink:title=" ">
<path fill="none" stroke="#63b8ff" d="M91,-55.54C91,-46.96 91,-37.61 91,-30.16"/>
<polygon fill="#63b8ff" stroke="#63b8ff" points="87.5,-55.8 91,-65.8 94.5,-55.8 87.5,-55.8"/>
</a>
</g>
</g>
<!-- Node3 -->
<g id="Node000003" class="node">
<title>Node3</title>
<g id="a_Node000003"><a xlink:href="class_fiftyone_degrees_1_1_common_1_1_collection.html" target="_top" xlink:title="A group of items accessible by index or key.">
<polygon fill="white" stroke="#666666" points="164,-162 18,-162 18,-132 164,-132 164,-162"/>
<text text-anchor="start" x="26" y="-150" font-family="Helvetica,sans-Serif" font-size="10.00">FiftyoneDegrees::Common</text>
<text text-anchor="middle" x="91" y="-139" font-family="Helvetica,sans-Serif" font-size="10.00">::Collection&lt; K, V &gt;</text>
</a>
</g>
</g>
<!-- Node3&#45;&gt;Node2 -->
<g id="edge2_Node000002_Node000003" class="edge">
<title>Node3&#45;&gt;Node2</title>
<g id="a_edge2_Node000002_Node000003"><a xlink:title=" ">
<path fill="none" stroke="#63b8ff" d="M91,-121.54C91,-112.96 91,-103.61 91,-96.16"/>
<polygon fill="#63b8ff" stroke="#63b8ff" points="87.5,-121.8 91,-131.8 94.5,-121.8 87.5,-121.8"/>
</a>
</g>
</g>
</g>
</svg>
