<?xml version="1.0" encoding="UTF-8" standalone="no"?>
<!DOCTYPE svg PUBLIC "-//W3C//DTD SVG 1.1//EN"
 "http://www.w3.org/Graphics/SVG/1.1/DTD/svg11.dtd">
<!-- Generated by graphviz version 2.43.0 (0)
 -->
<!-- Title: Strings Pages: 1 -->
<svg width="242pt" height="152pt"
 viewBox="0.00 0.00 241.50 152.00" xmlns="http://www.w3.org/2000/svg" xmlns:xlink="http://www.w3.org/1999/xlink">
<g id="graph0" class="graph" transform="scale(1 1) rotate(0) translate(4 148)">
<title>Strings</title>
<!-- Node3 -->
<g id="node1" class="node">
<title>Node3</title>
<g id="a_node1"><a xlink:title=" ">
<polygon fill="#bfbfbf" stroke="black" points="100,-0.5 100,-19.5 150,-19.5 150,-0.5 100,-0.5"/>
<text text-anchor="middle" x="125" y="-7.5" font-family="Helvetica,sans-Serif" font-size="10.00">Strings</text>
</a>
</g>
</g>
<!-- Node4 -->
<g id="node2" class="node">
<title>Node4</title>
<g id="a_node2"><a xlink:href="class_base.html" target="_top" xlink:title="Base test class used to carry out memory leak checks.">
<polygon fill="none" stroke="black" points="17.5,-67.5 17.5,-86.5 58.5,-86.5 58.5,-67.5 17.5,-67.5"/>
<text text-anchor="middle" x="38" y="-74.5" font-family="Helvetica,sans-Serif" font-size="10.00">Base</text>
</a>
</g>
</g>
<!-- Node4&#45;&gt;Node3 -->
<g id="edge1" class="edge">
<title>Node4&#45;&gt;Node3</title>
<path fill="none" stroke="midnightblue" d="M57.99,-61.07C75.16,-48.24 99.32,-30.19 113.45,-19.63"/>
<polygon fill="midnightblue" stroke="midnightblue" points="55.65,-58.44 49.73,-67.23 59.84,-64.05 55.65,-58.44"/>
</g>
<!-- Node5 -->
<g id="node3" class="node">
<title>Node5</title>
<g id="a_node3"><a xlink:title=" ">
<polygon fill="none" stroke="#bfbfbf" points="0,-124.5 0,-143.5 76,-143.5 76,-124.5 0,-124.5"/>
<text text-anchor="middle" x="38" y="-131.5" font-family="Helvetica,sans-Serif" font-size="10.00">testing::Test</text>
</a>
</g>
</g>
<!-- Node5&#45;&gt;Node4 -->
<g id="edge2" class="edge">
<title>Node5&#45;&gt;Node4</title>
<path fill="none" stroke="midnightblue" d="M38,-114.12C38,-104.82 38,-94.06 38,-86.71"/>
<polygon fill="midnightblue" stroke="midnightblue" points="34.5,-114.41 38,-124.41 41.5,-114.41 34.5,-114.41"/>
</g>
<!-- Node6 -->
<g id="node4" class="node">
<title>Node6</title>
<g id="a_node4"><a xlink:href="structfiftyone_degrees_string_builder.html" target="_top" xlink:title="String buffer for building strings with memory checks.">
<polygon fill="none" stroke="black" points="76.5,-67.5 76.5,-86.5 233.5,-86.5 233.5,-67.5 76.5,-67.5"/>
<text text-anchor="middle" x="155" y="-74.5" font-family="Helvetica,sans-Serif" font-size="10.00">fiftyoneDegreesStringBuilder</text>
</a>
</g>
</g>
<!-- Node6&#45;&gt;Node3 -->
<g id="edge3" class="edge">
<title>Node6&#45;&gt;Node3</title>
<path fill="none" stroke="#9a32cd" stroke-dasharray="5,2" d="M146.6,-57.79C140.83,-45.31 133.45,-29.31 128.98,-19.63"/>
<polygon fill="#9a32cd" stroke="#9a32cd" points="143.59,-59.62 150.95,-67.23 149.94,-56.69 143.59,-59.62"/>
<text text-anchor="middle" x="159.5" y="-41" font-family="Helvetica,sans-Serif" font-size="10.00"> builder</text>
</g>
</g>
</svg>
