<?xml version="1.0" encoding="UTF-8" standalone="no"?>
<!DOCTYPE svg PUBLIC "-//W3C//DTD SVG 1.1//EN"
 "http://www.w3.org/Graphics/SVG/1.1/DTD/svg11.dtd">
<!-- Generated by graphviz version 2.43.0 (0)
 -->
<!-- Title: EvidenceWithHeadersTest_SingleHeader Pages: 1 -->
<svg width="705pt" height="332pt"
 viewBox="0.00 0.00 705.00 332.00" xmlns="http://www.w3.org/2000/svg" xmlns:xlink="http://www.w3.org/1999/xlink">
<g id="graph0" class="graph" transform="scale(1 1) rotate(0) translate(4 328)">
<title>EvidenceWithHeadersTest_SingleHeader</title>
<!-- Node1 -->
<g id="Node000001" class="node">
<title>Node1</title>
<g id="a_Node000001"><a xlink:title=" ">
<polygon fill="#999999" stroke="#666666" points="417.5,-30 274.5,-30 274.5,0 417.5,0 417.5,-30"/>
<text text-anchor="start" x="282.5" y="-18" font-family="Helvetica,sans-Serif" font-size="10.00">EvidenceWithHeadersTest</text>
<text text-anchor="middle" x="346" y="-7" font-family="Helvetica,sans-Serif" font-size="10.00">_SingleHeader</text>
</a>
</g>
</g>
<!-- Node2 -->
<g id="Node000002" class="node">
<title>Node2</title>
<g id="a_Node000002"><a xlink:href="class_evidence.html" target="_top" xlink:title="Evidence test class used to test the functionality in evidence.c.">
<polygon fill="white" stroke="#666666" points="277.5,-86 216.5,-86 216.5,-67 277.5,-67 277.5,-86"/>
<text text-anchor="middle" x="247" y="-74" font-family="Helvetica,sans-Serif" font-size="10.00">Evidence</text>
</a>
</g>
</g>
<!-- Node2&#45;&gt;Node1 -->
<g id="edge1_Node000001_Node000002" class="edge">
<title>Node2&#45;&gt;Node1</title>
<g id="a_edge1_Node000001_Node000002"><a xlink:title=" ">
<path fill="none" stroke="#63b8ff" d="M269.83,-61.78C285.68,-52.25 306.72,-39.61 322.67,-30.02"/>
<polygon fill="#63b8ff" stroke="#63b8ff" points="267.95,-58.82 261.18,-66.98 271.56,-64.82 267.95,-58.82"/>
</a>
</g>
</g>
<!-- Node3 -->
<g id="Node000003" class="node">
<title>Node3</title>
<g id="a_Node000003"><a xlink:href="class_base.html" target="_top" xlink:title="Base test class used to carry out memory leak checks.">
<polygon fill="white" stroke="#666666" points="111.5,-163.5 70.5,-163.5 70.5,-144.5 111.5,-144.5 111.5,-163.5"/>
<text text-anchor="middle" x="91" y="-151.5" font-family="Helvetica,sans-Serif" font-size="10.00">Base</text>
</a>
</g>
</g>
<!-- Node3&#45;&gt;Node2 -->
<g id="edge2_Node000002_Node000003" class="edge">
<title>Node3&#45;&gt;Node2</title>
<g id="a_edge2_Node000002_Node000003"><a xlink:title=" ">
<path fill="none" stroke="#63b8ff" d="M117.78,-140.04C149.65,-124.62 201.97,-99.29 229.23,-86.1"/>
<polygon fill="#63b8ff" stroke="#63b8ff" points="116.07,-136.98 108.59,-144.49 119.12,-143.28 116.07,-136.98"/>
</a>
</g>
</g>
<!-- Node4 -->
<g id="Node000004" class="node">
<title>Node4</title>
<g id="a_Node000004"><a xlink:title=" ">
<polygon fill="white" stroke="#bfbfbf" points="76,-246.5 0,-246.5 0,-227.5 76,-227.5 76,-246.5"/>
<text text-anchor="middle" x="38" y="-234.5" font-family="Helvetica,sans-Serif" font-size="10.00">testing::Test</text>
</a>
</g>
</g>
<!-- Node4&#45;&gt;Node3 -->
<g id="edge3_Node000003_Node000004" class="edge">
<title>Node4&#45;&gt;Node3</title>
<g id="a_edge3_Node000003_Node000004"><a xlink:title=" ">
<path fill="none" stroke="#63b8ff" d="M49.15,-218.96C60.16,-202.13 76.57,-177.05 85.21,-163.85"/>
<polygon fill="#63b8ff" stroke="#63b8ff" points="46.22,-217.05 43.67,-227.33 52.08,-220.88 46.22,-217.05"/>
</a>
</g>
</g>
<!-- Node5 -->
<g id="Node000005" class="node">
<title>Node5</title>
<g id="a_Node000005"><a xlink:href="structfiftyone_degrees_evidence_key_value_pair_array.html" target="_top" xlink:title="Array of evidence key value pairs and a pointer to the next array if present or NULL of not present.">
<polygon fill="white" stroke="#666666" points="294,-169 138,-169 138,-139 294,-139 294,-169"/>
<text text-anchor="start" x="146" y="-157" font-family="Helvetica,sans-Serif" font-size="10.00">fiftyoneDegreesEvidenceKey</text>
<text text-anchor="middle" x="216" y="-146" font-family="Helvetica,sans-Serif" font-size="10.00">ValuePairArray</text>
</a>
</g>
</g>
<!-- Node5&#45;&gt;Node2 -->
<g id="edge4_Node000002_Node000005" class="edge">
<title>Node5&#45;&gt;Node2</title>
<g id="a_edge4_Node000002_Node000005"><a xlink:title=" ">
<path fill="none" stroke="#9a32cd" stroke-dasharray="5,2" d="M225.75,-129.25C231.81,-114.5 239.23,-96.42 243.51,-86.01"/>
<polygon fill="#9a32cd" stroke="#9a32cd" points="222.39,-128.22 221.83,-138.8 228.87,-130.88 222.39,-128.22"/>
</a>
</g>
<text text-anchor="start" x="240.5" y="-109.5" font-family="Helvetica,sans-Serif" font-size="10.00" fill="grey">evidence</text>
</g>
<!-- Node6 -->
<g id="Node000006" class="node">
<title>Node6</title>
<g id="a_Node000006"><a xlink:href="structfiftyone_degrees_evidence_key_value_pair.html" target="_top" xlink:title="Evidence key value pair structure which combines the prefix, key and value.">
<polygon fill="white" stroke="#666666" points="250,-252 94,-252 94,-222 250,-222 250,-252"/>
<text text-anchor="start" x="102" y="-240" font-family="Helvetica,sans-Serif" font-size="10.00">fiftyoneDegreesEvidenceKey</text>
<text text-anchor="middle" x="172" y="-229" font-family="Helvetica,sans-Serif" font-size="10.00">ValuePair</text>
</a>
</g>
</g>
<!-- Node6&#45;&gt;Node5 -->
<g id="edge5_Node000005_Node000006" class="edge">
<title>Node6&#45;&gt;Node5</title>
<g id="a_edge5_Node000005_Node000006"><a xlink:title=" ">
<path fill="none" stroke="#9a32cd" stroke-dasharray="5,2" d="M184.6,-212.81C192.23,-198.75 201.74,-181.26 208.28,-169.22"/>
<polygon fill="#9a32cd" stroke="#9a32cd" points="181.36,-211.43 179.66,-221.89 187.51,-214.77 181.36,-211.43"/>
</a>
</g>
<text text-anchor="start" x="201" y="-192.5" font-family="Helvetica,sans-Serif" font-size="10.00" fill="grey">items</text>
</g>
<!-- Node7 -->
<g id="Node000007" class="node">
<title>Node7</title>
<g id="a_Node000007"><a xlink:href="structfiftyone_degrees_key_value_pair.html" target="_top" xlink:title=" ">
<polygon fill="white" stroke="#bfbfbf" points="250.5,-324 93.5,-324 93.5,-305 250.5,-305 250.5,-324"/>
<text text-anchor="middle" x="172" y="-312" font-family="Helvetica,sans-Serif" font-size="10.00">fiftyoneDegreesKeyValuePair</text>
</a>
</g>
</g>
<!-- Node7&#45;&gt;Node6 -->
<g id="edge6_Node000006_Node000007" class="edge">
<title>Node7&#45;&gt;Node6</title>
<g id="a_edge6_Node000006_Node000007"><a xlink:title=" ">
<path fill="none" stroke="#9a32cd" stroke-dasharray="5,2" d="M172,-294.57C172,-281.43 172,-264.18 172,-252.21"/>
<polygon fill="#9a32cd" stroke="#9a32cd" points="168.5,-294.84 172,-304.84 175.5,-294.84 168.5,-294.84"/>
</a>
</g>
<text text-anchor="start" x="175.5" y="-275.5" font-family="Helvetica,sans-Serif" font-size="10.00" fill="grey">item</text>
</g>
<!-- Node8 -->
<g id="Node000008" class="node">
<title>Node8</title>
<g id="a_Node000008"><a xlink:href="class_headers_container.html" target="_top" xlink:title=" ">
<polygon fill="white" stroke="#bfbfbf" points="525,-163.5 421,-163.5 421,-144.5 525,-144.5 525,-163.5"/>
<text text-anchor="middle" x="473" y="-151.5" font-family="Helvetica,sans-Serif" font-size="10.00">HeadersContainer</text>
</a>
</g>
</g>
<!-- Node8&#45;&gt;Node2 -->
<g id="edge7_Node000002_Node000008" class="edge">
<title>Node8&#45;&gt;Node2</title>
<g id="a_edge7_Node000002_Node000008"><a xlink:title=" ">
<path fill="none" stroke="#9a32cd" stroke-dasharray="5,2" d="M453.92,-137.85C439,-126.77 417.28,-112.29 396,-104 356.83,-88.74 308.42,-82.21 277.62,-79.45"/>
<polygon fill="#9a32cd" stroke="#9a32cd" points="452.2,-140.93 462.27,-144.22 456.44,-135.37 452.2,-140.93"/>
</a>
</g>
<text text-anchor="start" x="430.5" y="-109.5" font-family="Helvetica,sans-Serif" font-size="10.00" fill="grey">headersContainer</text>
</g>
<!-- Node9 -->
<g id="Node000009" class="node">
<title>Node9</title>
<g id="a_Node000009"><a xlink:href="structfiftyone_degrees_header_array.html" target="_top" xlink:title="Array of Headers which should always be ordered in ascending order of fullHeaderId.">
<polygon fill="white" stroke="#666666" points="423.5,-246.5 268.5,-246.5 268.5,-227.5 423.5,-227.5 423.5,-246.5"/>
<text text-anchor="middle" x="346" y="-234.5" font-family="Helvetica,sans-Serif" font-size="10.00">fiftyoneDegreesHeaderArray</text>
</a>
</g>
</g>
<!-- Node9&#45;&gt;Node1 -->
<g id="edge12_Node000001_Node000009" class="edge">
<title>Node9&#45;&gt;Node1</title>
<g id="a_edge12_Node000001_Node000009"><a xlink:title=" ">
<path fill="none" stroke="#9a32cd" stroke-dasharray="5,2" d="M346,-217.16C346,-173.95 346,-68.48 346,-30.19"/>
<polygon fill="#9a32cd" stroke="#9a32cd" points="342.5,-217.38 346,-227.38 349.5,-217.38 342.5,-217.38"/>
</a>
</g>
<text text-anchor="start" x="349" y="-109.5" font-family="Helvetica,sans-Serif" font-size="10.00" fill="grey">headers</text>
</g>
<!-- Node9&#45;&gt;Node8 -->
<g id="edge8_Node000008_Node000009" class="edge">
<title>Node9&#45;&gt;Node8</title>
<g id="a_edge8_Node000008_Node000009"><a xlink:title=" ">
<path fill="none" stroke="#9a32cd" stroke-dasharray="5,2" d="M368.15,-221.87C394.52,-205.06 437.7,-177.51 459.51,-163.61"/>
<polygon fill="#9a32cd" stroke="#9a32cd" points="366.14,-219 359.59,-227.33 369.9,-224.91 366.14,-219"/>
</a>
</g>
<text text-anchor="start" x="423" y="-192.5" font-family="Helvetica,sans-Serif" font-size="10.00" fill="grey">headers</text>
</g>
<!-- Node10 -->
<g id="Node000010" class="node">
<title>Node10</title>
<g id="a_Node000010"><a xlink:href="structfiftyone_degrees_header_ptr_array.html" target="_top" xlink:title="Array of header indexes.">
<polygon fill="white" stroke="#666666" points="584.5,-252 441.5,-252 441.5,-222 584.5,-222 584.5,-252"/>
<text text-anchor="start" x="449.5" y="-240" font-family="Helvetica,sans-Serif" font-size="10.00">fiftyoneDegreesHeaderPtr</text>
<text text-anchor="middle" x="513" y="-229" font-family="Helvetica,sans-Serif" font-size="10.00">Array</text>
</a>
</g>
</g>
<!-- Node10&#45;&gt;Node8 -->
<g id="edge9_Node000008_Node000010" class="edge">
<title>Node10&#45;&gt;Node8</title>
<g id="a_edge9_Node000008_Node000010"><a xlink:title=" ">
<path fill="none" stroke="#9a32cd" stroke-dasharray="5,2" d="M498.1,-213.2C496.3,-210.15 494.55,-207.03 493,-204 485.97,-190.26 479.55,-173.45 475.97,-163.52"/>
<polygon fill="#9a32cd" stroke="#9a32cd" points="495.28,-215.29 503.5,-221.97 501.23,-211.62 495.28,-215.29"/>
</a>
</g>
<text text-anchor="start" x="496" y="-192.5" font-family="Helvetica,sans-Serif" font-size="10.00" fill="grey">headerPointers</text>
</g>
<!-- Node11 -->
<g id="Node000011" class="node">
<title>Node11</title>
<g id="a_Node000011"><a xlink:href="class_string_collection.html" target="_top" xlink:title="String collection helper class, used by test classes to fetch.">
<polygon fill="white" stroke="#666666" points="697,-246.5 603,-246.5 603,-227.5 697,-227.5 697,-246.5"/>
<text text-anchor="middle" x="650" y="-234.5" font-family="Helvetica,sans-Serif" font-size="10.00">StringCollection</text>
</a>
</g>
</g>
<!-- Node11&#45;&gt;Node1 -->
<g id="edge11_Node000001_Node000011" class="edge">
<title>Node11&#45;&gt;Node1</title>
<g id="a_edge11_Node000001_Node000011"><a xlink:title=" ">
<path fill="none" stroke="#9a32cd" stroke-dasharray="5,2" d="M647.63,-217.43C645.7,-207.71 642.22,-195.98 636,-187 576.69,-101.35 459.37,-52.07 393.59,-30.04"/>
<polygon fill="#9a32cd" stroke="#9a32cd" points="644.18,-218 649.22,-227.31 651.09,-216.88 644.18,-218"/>
</a>
</g>
<text text-anchor="start" x="573" y="-109.5" font-family="Helvetica,sans-Serif" font-size="10.00" fill="grey">strings</text>
</g>
<!-- Node11&#45;&gt;Node8 -->
<g id="edge10_Node000008_Node000011" class="edge">
<title>Node11&#45;&gt;Node8</title>
<g id="a_edge10_Node000008_Node000011"><a xlink:title=" ">
<path fill="none" stroke="#9a32cd" stroke-dasharray="5,2" d="M625.75,-222.34C616.33,-216.85 605.53,-210.33 596,-204 585.41,-196.97 584.32,-192.79 573,-187 552.88,-176.7 528.79,-168.87 509.29,-163.54"/>
<polygon fill="#9a32cd" stroke="#9a32cd" points="624.2,-225.48 634.62,-227.44 627.7,-219.42 624.2,-225.48"/>
</a>
</g>
<text text-anchor="start" x="599" y="-192.5" font-family="Helvetica,sans-Serif" font-size="10.00" fill="grey">strings</text>
</g>
</g>
</svg>
