<?xml version="1.0" encoding="UTF-8" standalone="no"?>
<!DOCTYPE svg PUBLIC "-//W3C//DTD SVG 1.1//EN"
 "http://www.w3.org/Graphics/SVG/1.1/DTD/svg11.dtd">
<!-- Generated by graphviz version 2.43.0 (0)
 -->
<!-- Title: FiftyoneDegrees::IpIntelligence::Collection&lt; K, V &gt; Pages: 1 -->
<svg width="860pt" height="581pt"
 viewBox="0.00 0.00 860.00 581.22" xmlns="http://www.w3.org/2000/svg" xmlns:xlink="http://www.w3.org/1999/xlink">
<g id="graph0" class="graph" transform="scale(1 1) rotate(0) translate(4 577.22)">
<title>FiftyoneDegrees::IpIntelligence::Collection&lt; K, V &gt;</title>
<!-- Node1 -->
<g id="Node000001" class="node">
<title>Node1</title>
<g id="a_Node000001"><a xlink:title="A group of items accessible by index or key.">
<polygon fill="#999999" stroke="#666666" points="168,-316.72 0,-316.72 0,-286.72 168,-286.72 168,-316.72"/>
<text text-anchor="start" x="8" y="-304.72" font-family="Helvetica,sans-Serif" font-size="10.00">FiftyoneDegrees::IpIntelligence</text>
<text text-anchor="middle" x="84" y="-293.72" font-family="Helvetica,sans-Serif" font-size="10.00">::Collection&lt; K, V &gt;</text>
</a>
</g>
</g>
<!-- Node2 -->
<g id="Node000002" class="node">
<title>Node2</title>
<g id="a_Node000002"><a xlink:href="class_fiftyone_degrees_1_1_ip_intelligence_1_1_component_meta_data_collection_ipi.html" target="_top" xlink:title="A collection of component meta data contained in a IP Intelligence engine.">
<polygon fill="white" stroke="#666666" points="578,-573.22 390,-573.22 390,-532.22 578,-532.22 578,-573.22"/>
<text text-anchor="start" x="398" y="-561.22" font-family="Helvetica,sans-Serif" font-size="10.00">FiftyoneDegrees::IpIntelligence</text>
<text text-anchor="start" x="398" y="-550.22" font-family="Helvetica,sans-Serif" font-size="10.00">::ComponentMetaDataCollectionIpi</text>
<text text-anchor="middle" x="484" y="-539.22" font-family="Helvetica,sans-Serif" font-size="10.00">&lt;::byte, ComponentMetaData &gt;</text>
</a>
</g>
</g>
<!-- Node1&#45;&gt;Node2 -->
<g id="edge1_Node000001_Node000002" class="edge">
<title>Node1&#45;&gt;Node2</title>
<g id="a_edge1_Node000001_Node000002"><a xlink:title=" ">
<path fill="none" stroke="#63b8ff" d="M98.02,-325.97C114.94,-355.6 147.01,-405.75 186,-437.72 245.12,-486.18 327,-515.84 389.82,-532.87"/>
<polygon fill="#63b8ff" stroke="#63b8ff" points="101,-324.13 93.06,-317.11 94.89,-327.55 101,-324.13"/>
</a>
</g>
</g>
<!-- Node3 -->
<g id="Node000003" class="node">
<title>Node3</title>
<g id="a_Node000003"><a xlink:href="class_fiftyone_degrees_1_1_ip_intelligence_1_1_profile_meta_data_collection_ipi.html" target="_top" xlink:title="A collection of all profile meta data contained in an IP Intelligence engine.">
<polygon fill="white" stroke="#666666" points="568,-514.22 400,-514.22 400,-473.22 568,-473.22 568,-514.22"/>
<text text-anchor="start" x="408" y="-502.22" font-family="Helvetica,sans-Serif" font-size="10.00">FiftyoneDegrees::IpIntelligence</text>
<text text-anchor="start" x="408" y="-491.22" font-family="Helvetica,sans-Serif" font-size="10.00">::ProfileMetaDataCollectionIpi</text>
<text text-anchor="middle" x="484" y="-480.22" font-family="Helvetica,sans-Serif" font-size="10.00">&lt; uint32_t, ProfileMetaData &gt;</text>
</a>
</g>
</g>
<!-- Node1&#45;&gt;Node3 -->
<g id="edge2_Node000001_Node000003" class="edge">
<title>Node1&#45;&gt;Node3</title>
<g id="a_edge2_Node000001_Node000003"><a xlink:title=" ">
<path fill="none" stroke="#63b8ff" d="M106.71,-324.03C126.14,-343.08 156.1,-370.25 186,-388.72 252.65,-429.89 337.71,-457.86 399.7,-474.52"/>
<polygon fill="#63b8ff" stroke="#63b8ff" points="109.11,-321.49 99.55,-316.92 104.17,-326.45 109.11,-321.49"/>
</a>
</g>
</g>
<!-- Node4 -->
<g id="Node000004" class="node">
<title>Node4</title>
<g id="a_Node000004"><a xlink:href="class_fiftyone_degrees_1_1_ip_intelligence_1_1_property_meta_data_collection_for_component_ipi.html" target="_top" xlink:title="A collection of property meta data relating to a component contained in an IP Intelligence engine.">
<polygon fill="white" stroke="#666666" points="600,-455.22 368,-455.22 368,-414.22 600,-414.22 600,-455.22"/>
<text text-anchor="start" x="376" y="-443.22" font-family="Helvetica,sans-Serif" font-size="10.00">FiftyoneDegrees::IpIntelligence</text>
<text text-anchor="start" x="376" y="-432.22" font-family="Helvetica,sans-Serif" font-size="10.00">::PropertyMetaDataCollectionForComponent</text>
<text text-anchor="middle" x="484" y="-421.22" font-family="Helvetica,sans-Serif" font-size="10.00">Ipi&lt; string, PropertyMetaData &gt;</text>
</a>
</g>
</g>
<!-- Node1&#45;&gt;Node4 -->
<g id="edge3_Node000001_Node000004" class="edge">
<title>Node1&#45;&gt;Node4</title>
<g id="a_edge3_Node000001_Node000004"><a xlink:title=" ">
<path fill="none" stroke="#63b8ff" d="M122.77,-321.27C141.5,-330.55 164.64,-341.41 186,-349.72 254.85,-376.51 335.6,-399.08 395.51,-414.21"/>
<polygon fill="#63b8ff" stroke="#63b8ff" points="124.19,-318.07 113.68,-316.72 121.05,-324.33 124.19,-318.07"/>
</a>
</g>
</g>
<!-- Node5 -->
<g id="Node000005" class="node">
<title>Node5</title>
<g id="a_Node000005"><a xlink:href="class_fiftyone_degrees_1_1_ip_intelligence_1_1_property_meta_data_collection_for_property_ipi.html" target="_top" xlink:title=" ">
<polygon fill="white" stroke="#bfbfbf" points="592.5,-396.22 375.5,-396.22 375.5,-355.22 592.5,-355.22 592.5,-396.22"/>
<text text-anchor="start" x="383.5" y="-384.22" font-family="Helvetica,sans-Serif" font-size="10.00">FiftyoneDegrees::IpIntelligence</text>
<text text-anchor="start" x="383.5" y="-373.22" font-family="Helvetica,sans-Serif" font-size="10.00">::PropertyMetaDataCollectionForProperty</text>
<text text-anchor="middle" x="484" y="-362.22" font-family="Helvetica,sans-Serif" font-size="10.00">Ipi&lt; string, PropertyMetaData &gt;</text>
</a>
</g>
</g>
<!-- Node1&#45;&gt;Node5 -->
<g id="edge4_Node000001_Node000005" class="edge">
<title>Node1&#45;&gt;Node5</title>
<g id="a_edge4_Node000001_Node000005"><a xlink:title=" ">
<path fill="none" stroke="#63b8ff" d="M170.42,-318.73C175.69,-319.75 180.92,-320.75 186,-321.72 248.69,-333.62 318.92,-346.42 375.35,-356.56"/>
<polygon fill="#63b8ff" stroke="#63b8ff" points="170.74,-315.23 160.26,-316.76 169.41,-322.1 170.74,-315.23"/>
</a>
</g>
</g>
<!-- Node6 -->
<g id="Node000006" class="node">
<title>Node6</title>
<g id="a_Node000006"><a xlink:href="class_fiftyone_degrees_1_1_ip_intelligence_1_1_property_meta_data_collection_ipi.html" target="_top" xlink:title="A collection of all property meta data contained in an IP Intelligence engine.">
<polygon fill="white" stroke="#666666" points="570.5,-337.22 397.5,-337.22 397.5,-296.22 570.5,-296.22 570.5,-337.22"/>
<text text-anchor="start" x="405.5" y="-325.22" font-family="Helvetica,sans-Serif" font-size="10.00">FiftyoneDegrees::IpIntelligence</text>
<text text-anchor="start" x="405.5" y="-314.22" font-family="Helvetica,sans-Serif" font-size="10.00">::PropertyMetaDataCollectionIpi</text>
<text text-anchor="middle" x="484" y="-303.22" font-family="Helvetica,sans-Serif" font-size="10.00">&lt; string, PropertyMetaData &gt;</text>
</a>
</g>
</g>
<!-- Node1&#45;&gt;Node6 -->
<g id="edge5_Node000001_Node000006" class="edge">
<title>Node1&#45;&gt;Node6</title>
<g id="a_edge5_Node000001_Node000006"><a xlink:title=" ">
<path fill="none" stroke="#63b8ff" d="M178.45,-305.24C244.68,-307.74 332.85,-311.06 397.27,-313.49"/>
<polygon fill="#63b8ff" stroke="#63b8ff" points="178.56,-301.74 168.43,-304.86 178.29,-308.74 178.56,-301.74"/>
</a>
</g>
</g>
<!-- Node7 -->
<g id="Node000007" class="node">
<title>Node7</title>
<g id="a_Node000007"><a xlink:href="class_fiftyone_degrees_1_1_ip_intelligence_1_1_value_meta_data_collection_base_ipi.html" target="_top" xlink:title="A collection of all value meta data contained in an IP Intelligence engine.">
<polygon fill="white" stroke="#666666" points="590.5,-278.22 377.5,-278.22 377.5,-237.22 590.5,-237.22 590.5,-278.22"/>
<text text-anchor="start" x="385.5" y="-266.22" font-family="Helvetica,sans-Serif" font-size="10.00">FiftyoneDegrees::IpIntelligence</text>
<text text-anchor="start" x="385.5" y="-255.22" font-family="Helvetica,sans-Serif" font-size="10.00">::ValueMetaDataCollectionBaseIpi</text>
<text text-anchor="middle" x="484" y="-244.22" font-family="Helvetica,sans-Serif" font-size="10.00">&lt; ValueMetaDataKey, ValueMetaData &gt;</text>
</a>
</g>
</g>
<!-- Node1&#45;&gt;Node7 -->
<g id="edge6_Node000001_Node000007" class="edge">
<title>Node1&#45;&gt;Node7</title>
<g id="a_edge6_Node000001_Node000007"><a xlink:title=" ">
<path fill="none" stroke="#63b8ff" d="M178.59,-291.37C238.18,-284.78 315.49,-276.24 377.29,-269.41"/>
<polygon fill="#63b8ff" stroke="#63b8ff" points="177.99,-287.92 168.43,-292.49 178.76,-294.87 177.99,-287.92"/>
</a>
</g>
</g>
<!-- Node11 -->
<g id="Node000011" class="node">
<title>Node11</title>
<g id="a_Node000011"><a xlink:href="class_fiftyone_degrees_1_1_common_1_1_collection.html" target="_top" xlink:title=" ">
<polygon fill="white" stroke="#666666" points="569,-219.22 399,-219.22 399,-178.22 569,-178.22 569,-219.22"/>
<text text-anchor="start" x="407" y="-207.22" font-family="Helvetica,sans-Serif" font-size="10.00">FiftyoneDegrees::Common</text>
<text text-anchor="start" x="407" y="-196.22" font-family="Helvetica,sans-Serif" font-size="10.00">::Collection&lt;::byte, Component</text>
<text text-anchor="middle" x="484" y="-185.22" font-family="Helvetica,sans-Serif" font-size="10.00">MetaData &gt;</text>
</a>
</g>
</g>
<!-- Node1&#45;&gt;Node11 -->
<g id="edge10_Node000001_Node000011" class="edge">
<title>Node1&#45;&gt;Node11</title>
<g id="a_edge10_Node000001_Node000011"><a xlink:title=" ">
<path fill="none" stroke="orange" stroke-dasharray="5,2" d="M119.21,-281.75C138.3,-271.39 162.84,-259.34 186,-251.72 255.9,-228.7 338.53,-214.98 398.87,-207.29"/>
<polygon fill="orange" stroke="orange" points="117.36,-278.77 110.3,-286.68 120.75,-284.9 117.36,-278.77"/>
</a>
</g>
<text text-anchor="start" x="189" y="-257.22" font-family="Helvetica,sans-Serif" font-size="10.00" fill="grey">&lt;::byte, ComponentMetaData &gt;</text>
</g>
<!-- Node12 -->
<g id="Node000012" class="node">
<title>Node12</title>
<g id="a_Node000012"><a xlink:href="class_fiftyone_degrees_1_1_common_1_1_collection.html" target="_top" xlink:title=" ">
<polygon fill="white" stroke="#666666" points="557,-160.22 411,-160.22 411,-119.22 557,-119.22 557,-160.22"/>
<text text-anchor="start" x="419" y="-148.22" font-family="Helvetica,sans-Serif" font-size="10.00">FiftyoneDegrees::Common</text>
<text text-anchor="start" x="419" y="-137.22" font-family="Helvetica,sans-Serif" font-size="10.00">::Collection&lt; uint32_t,</text>
<text text-anchor="middle" x="484" y="-126.22" font-family="Helvetica,sans-Serif" font-size="10.00"> ProfileMetaData &gt;</text>
</a>
</g>
</g>
<!-- Node1&#45;&gt;Node12 -->
<g id="edge11_Node000001_Node000012" class="edge">
<title>Node1&#45;&gt;Node12</title>
<g id="a_edge11_Node000001_Node000012"><a xlink:title=" ">
<path fill="none" stroke="orange" stroke-dasharray="5,2" d="M100.19,-278.06C117.69,-252.89 148.87,-213.97 186,-193.72 256.05,-155.51 347.83,-143.65 410.71,-140.31"/>
<polygon fill="orange" stroke="orange" points="97.08,-276.41 94.38,-286.65 102.88,-280.33 97.08,-276.41"/>
</a>
</g>
<text text-anchor="start" x="194" y="-199.22" font-family="Helvetica,sans-Serif" font-size="10.00" fill="grey">&lt; uint32_t, ProfileMetaData &gt;</text>
</g>
<!-- Node13 -->
<g id="Node000013" class="node">
<title>Node13</title>
<g id="a_Node000013"><a xlink:href="class_fiftyone_degrees_1_1_common_1_1_collection.html" target="_top" xlink:title=" ">
<polygon fill="white" stroke="#666666" points="557,-101.22 411,-101.22 411,-60.22 557,-60.22 557,-101.22"/>
<text text-anchor="start" x="419" y="-89.22" font-family="Helvetica,sans-Serif" font-size="10.00">FiftyoneDegrees::Common</text>
<text text-anchor="start" x="419" y="-78.22" font-family="Helvetica,sans-Serif" font-size="10.00">::Collection&lt; string,</text>
<text text-anchor="middle" x="484" y="-67.22" font-family="Helvetica,sans-Serif" font-size="10.00"> PropertyMetaData &gt;</text>
</a>
</g>
</g>
<!-- Node1&#45;&gt;Node13 -->
<g id="edge12_Node000001_Node000013" class="edge">
<title>Node1&#45;&gt;Node13</title>
<g id="a_edge12_Node000001_Node000013"><a xlink:title=" ">
<path fill="none" stroke="orange" stroke-dasharray="5,2" d="M91.67,-276.84C103.55,-237.7 132.34,-162.44 186,-125.72 252.28,-80.36 346.29,-73.29 410.69,-74.86"/>
<polygon fill="orange" stroke="orange" points="88.25,-276.06 88.82,-286.64 94.97,-278.01 88.25,-276.06"/>
</a>
</g>
<text text-anchor="start" x="195" y="-131.22" font-family="Helvetica,sans-Serif" font-size="10.00" fill="grey">&lt; string, PropertyMetaData &gt;</text>
</g>
<!-- Node14 -->
<g id="Node000014" class="node">
<title>Node14</title>
<g id="a_Node000014"><a xlink:href="class_fiftyone_degrees_1_1_common_1_1_collection.html" target="_top" xlink:title=" ">
<polygon fill="white" stroke="#666666" points="573.5,-42.22 394.5,-42.22 394.5,-1.22 573.5,-1.22 573.5,-42.22"/>
<text text-anchor="start" x="402.5" y="-30.22" font-family="Helvetica,sans-Serif" font-size="10.00">FiftyoneDegrees::Common</text>
<text text-anchor="start" x="402.5" y="-19.22" font-family="Helvetica,sans-Serif" font-size="10.00">::Collection&lt; ValueMetaDataKey,</text>
<text text-anchor="middle" x="484" y="-8.22" font-family="Helvetica,sans-Serif" font-size="10.00"> ValueMetaData &gt;</text>
</a>
</g>
</g>
<!-- Node1&#45;&gt;Node14 -->
<g id="edge13_Node000001_Node000014" class="edge">
<title>Node1&#45;&gt;Node14</title>
<g id="a_edge13_Node000001_Node000014"><a xlink:title=" ">
<path fill="none" stroke="orange" stroke-dasharray="5,2" d="M86.24,-276.63C90.37,-223.05 108.29,-97.7 186,-40.72 245.27,2.74 330.37,3.77 394.3,-3.9"/>
<polygon fill="orange" stroke="orange" points="82.74,-276.42 85.56,-286.64 89.73,-276.89 82.74,-276.42"/>
</a>
</g>
<text text-anchor="start" x="214" y="-61.72" font-family="Helvetica,sans-Serif" font-size="10.00" fill="grey">&lt; ValueMetaDataKey,</text>
<text text-anchor="start" x="214" y="-46.72" font-family="Helvetica,sans-Serif" font-size="10.00" fill="grey">   ValueMetaData &gt;</text>
</g>
<!-- Node8 -->
<g id="Node000008" class="node">
<title>Node8</title>
<g id="a_Node000008"><a xlink:href="class_fiftyone_degrees_1_1_ip_intelligence_1_1_value_meta_data_collection_for_profile_ipi.html" target="_top" xlink:title="A collection of value meta data relating to a profile contained in an IP Intelligence engine.">
<polygon fill="white" stroke="#666666" points="846.5,-320.72 642.5,-320.72 642.5,-290.72 846.5,-290.72 846.5,-320.72"/>
<text text-anchor="start" x="650.5" y="-308.72" font-family="Helvetica,sans-Serif" font-size="10.00">FiftyoneDegrees::IpIntelligence</text>
<text text-anchor="middle" x="744.5" y="-297.72" font-family="Helvetica,sans-Serif" font-size="10.00">::ValueMetaDataCollectionForProfileIpi</text>
</a>
</g>
</g>
<!-- Node7&#45;&gt;Node8 -->
<g id="edge7_Node000007_Node000008" class="edge">
<title>Node7&#45;&gt;Node8</title>
<g id="a_edge7_Node000007_Node000008"><a xlink:title=" ">
<path fill="none" stroke="#63b8ff" d="M600.42,-279.15C621.36,-283.04 642.79,-287.02 662.48,-290.67"/>
<polygon fill="#63b8ff" stroke="#63b8ff" points="600.99,-275.7 590.51,-277.31 599.71,-282.58 600.99,-275.7"/>
</a>
</g>
</g>
<!-- Node9 -->
<g id="Node000009" class="node">
<title>Node9</title>
<g id="a_Node000009"><a xlink:href="class_fiftyone_degrees_1_1_ip_intelligence_1_1_value_meta_data_collection_for_property_ipi.html" target="_top" xlink:title="A collection of value meta data relating to a property contained in an IP Intelligence engine.">
<polygon fill="white" stroke="#666666" points="852,-272.72 637,-272.72 637,-242.72 852,-242.72 852,-272.72"/>
<text text-anchor="start" x="645" y="-260.72" font-family="Helvetica,sans-Serif" font-size="10.00">FiftyoneDegrees::IpIntelligence</text>
<text text-anchor="middle" x="744.5" y="-249.72" font-family="Helvetica,sans-Serif" font-size="10.00">::ValueMetaDataCollectionForPropertyIpi</text>
</a>
</g>
</g>
<!-- Node7&#45;&gt;Node9 -->
<g id="edge8_Node000007_Node000009" class="edge">
<title>Node7&#45;&gt;Node9</title>
<g id="a_edge8_Node000007_Node000009"><a xlink:title=" ">
<path fill="none" stroke="#63b8ff" d="M600.56,-257.72C612.57,-257.72 624.74,-257.72 636.65,-257.72"/>
<polygon fill="#63b8ff" stroke="#63b8ff" points="600.51,-254.22 590.51,-257.72 600.51,-261.22 600.51,-254.22"/>
</a>
</g>
</g>
<!-- Node10 -->
<g id="Node000010" class="node">
<title>Node10</title>
<g id="a_Node000010"><a xlink:href="class_fiftyone_degrees_1_1_ip_intelligence_1_1_value_meta_data_collection_ipi.html" target="_top" xlink:title="A collection of all value meta data contained in a IP Intelligence engine.">
<polygon fill="white" stroke="#666666" points="828.5,-224.72 660.5,-224.72 660.5,-194.72 828.5,-194.72 828.5,-224.72"/>
<text text-anchor="start" x="668.5" y="-212.72" font-family="Helvetica,sans-Serif" font-size="10.00">FiftyoneDegrees::IpIntelligence</text>
<text text-anchor="middle" x="744.5" y="-201.72" font-family="Helvetica,sans-Serif" font-size="10.00">::ValueMetaDataCollectionIpi</text>
</a>
</g>
</g>
<!-- Node7&#45;&gt;Node10 -->
<g id="edge9_Node000007_Node000010" class="edge">
<title>Node7&#45;&gt;Node10</title>
<g id="a_edge9_Node000007_Node000010"><a xlink:title=" ">
<path fill="none" stroke="#63b8ff" d="M600.42,-236.29C621.36,-232.4 642.79,-228.42 662.48,-224.76"/>
<polygon fill="#63b8ff" stroke="#63b8ff" points="599.71,-232.86 590.51,-238.13 600.99,-239.74 599.71,-232.86"/>
</a>
</g>
</g>
</g>
</svg>
