<?xml version="1.0" encoding="UTF-8" standalone="no"?>
<!DOCTYPE svg PUBLIC "-//W3C//DTD SVG 1.1//EN"
 "http://www.w3.org/Graphics/SVG/1.1/DTD/svg11.dtd">
<!-- Generated by graphviz version 2.43.0 (0)
 -->
<!-- Title: Strings Pages: 1 -->
<svg width="242pt" height="155pt"
 viewBox="0.00 0.00 241.50 155.00" xmlns="http://www.w3.org/2000/svg" xmlns:xlink="http://www.w3.org/1999/xlink">
<g id="graph0" class="graph" transform="scale(1 1) rotate(0) translate(4 151)">
<title>Strings</title>
<!-- Node1 -->
<g id="Node000001" class="node">
<title>Node1</title>
<g id="a_Node000001"><a xlink:title=" ">
<polygon fill="#999999" stroke="#666666" points="150,-19 100,-19 100,0 150,0 150,-19"/>
<text text-anchor="middle" x="125" y="-7" font-family="Helvetica,sans-Serif" font-size="10.00">Strings</text>
</a>
</g>
</g>
<!-- Node2 -->
<g id="Node000002" class="node">
<title>Node2</title>
<g id="a_Node000002"><a xlink:href="class_base.html" target="_top" xlink:title="Base test class used to carry out memory leak checks.">
<polygon fill="white" stroke="#666666" points="58.5,-91 17.5,-91 17.5,-72 58.5,-72 58.5,-91"/>
<text text-anchor="middle" x="38" y="-79" font-family="Helvetica,sans-Serif" font-size="10.00">Base</text>
</a>
</g>
</g>
<!-- Node2&#45;&gt;Node1 -->
<g id="edge1_Node000001_Node000002" class="edge">
<title>Node2&#45;&gt;Node1</title>
<g id="a_edge1_Node000001_Node000002"><a xlink:title=" ">
<path fill="none" stroke="#63b8ff" d="M56.54,-65.58C74.1,-51.46 99.85,-30.74 114.24,-19.15"/>
<polygon fill="#63b8ff" stroke="#63b8ff" points="54.27,-62.92 48.67,-71.92 58.65,-68.37 54.27,-62.92"/>
</a>
</g>
</g>
<!-- Node3 -->
<g id="Node000003" class="node">
<title>Node3</title>
<g id="a_Node000003"><a xlink:title=" ">
<polygon fill="white" stroke="#bfbfbf" points="76,-147 0,-147 0,-128 76,-128 76,-147"/>
<text text-anchor="middle" x="38" y="-135" font-family="Helvetica,sans-Serif" font-size="10.00">testing::Test</text>
</a>
</g>
</g>
<!-- Node3&#45;&gt;Node2 -->
<g id="edge2_Node000002_Node000003" class="edge">
<title>Node3&#45;&gt;Node2</title>
<g id="a_edge2_Node000002_Node000003"><a xlink:title=" ">
<path fill="none" stroke="#63b8ff" d="M38,-117.3C38,-108.41 38,-98.28 38,-91.25"/>
<polygon fill="#63b8ff" stroke="#63b8ff" points="34.5,-117.58 38,-127.58 41.5,-117.58 34.5,-117.58"/>
</a>
</g>
</g>
<!-- Node4 -->
<g id="Node000004" class="node">
<title>Node4</title>
<g id="a_Node000004"><a xlink:href="structfiftyone_degrees_string_builder.html" target="_top" xlink:title="String buffer for building strings with memory checks.">
<polygon fill="white" stroke="#666666" points="233.5,-91 76.5,-91 76.5,-72 233.5,-72 233.5,-91"/>
<text text-anchor="middle" x="155" y="-79" font-family="Helvetica,sans-Serif" font-size="10.00">fiftyoneDegreesStringBuilder</text>
</a>
</g>
</g>
<!-- Node4&#45;&gt;Node1 -->
<g id="edge3_Node000001_Node000004" class="edge">
<title>Node4&#45;&gt;Node1</title>
<g id="a_edge3_Node000001_Node000004"><a xlink:title=" ">
<path fill="none" stroke="#9a32cd" stroke-dasharray="5,2" d="M147.24,-62.4C141.28,-48.49 133.31,-29.89 128.71,-19.15"/>
<polygon fill="#9a32cd" stroke="#9a32cd" points="144.17,-64.1 151.32,-71.92 150.6,-61.35 144.17,-64.1"/>
</a>
</g>
<text text-anchor="start" x="146" y="-42.5" font-family="Helvetica,sans-Serif" font-size="10.00" fill="grey">builder</text>
</g>
</g>
</svg>
