<?xml version="1.0" encoding="UTF-8" standalone="no"?>
<!DOCTYPE svg PUBLIC "-//W3C//DTD SVG 1.1//EN"
 "http://www.w3.org/Graphics/SVG/1.1/DTD/svg11.dtd">
<!-- Generated by graphviz version 2.43.0 (0)
 -->
<!-- Title: CollectionTest Pages: 1 -->
<svg width="644pt" height="138pt"
 viewBox="0.00 0.00 644.00 138.00" xmlns="http://www.w3.org/2000/svg" xmlns:xlink="http://www.w3.org/1999/xlink">
<g id="graph0" class="graph" transform="scale(1 1) rotate(0) translate(4 134)">
<title>CollectionTest</title>
<!-- Node1 -->
<g id="Node000001" class="node">
<title>Node1</title>
<g id="a_Node000001"><a xlink:title=" ">
<polygon fill="#999999" stroke="#666666" points="274,-74 189,-74 189,-55 274,-55 274,-74"/>
<text text-anchor="middle" x="231.5" y="-62" font-family="Helvetica,sans-Serif" font-size="10.00">CollectionTest</text>
</a>
</g>
</g>
<!-- Node4 -->
<g id="Node000004" class="node">
<title>Node4</title>
<g id="a_Node000004"><a xlink:href="class_collection_test_file.html" target="_top" xlink:title=" ">
<polygon fill="white" stroke="#bfbfbf" points="423.5,-93 321.5,-93 321.5,-74 423.5,-74 423.5,-93"/>
<text text-anchor="middle" x="372.5" y="-81" font-family="Helvetica,sans-Serif" font-size="10.00">CollectionTestFile</text>
</a>
</g>
</g>
<!-- Node1&#45;&gt;Node4 -->
<g id="edge3_Node000001_Node000004" class="edge">
<title>Node1&#45;&gt;Node4</title>
<g id="a_edge3_Node000001_Node000004"><a xlink:title=" ">
<path fill="none" stroke="#63b8ff" d="M284.22,-71.57C296.41,-73.24 309.38,-75.01 321.49,-76.66"/>
<polygon fill="#63b8ff" stroke="#63b8ff" points="284.59,-68.09 274.2,-70.2 283.64,-75.02 284.59,-68.09"/>
</a>
</g>
</g>
<!-- Node7 -->
<g id="Node000007" class="node">
<title>Node7</title>
<g id="a_Node000007"><a xlink:href="class_collection_test_memory.html" target="_top" xlink:title=" ">
<polygon fill="white" stroke="#bfbfbf" points="435,-56 310,-56 310,-37 435,-37 435,-56"/>
<text text-anchor="middle" x="372.5" y="-44" font-family="Helvetica,sans-Serif" font-size="10.00">CollectionTestMemory</text>
</a>
</g>
</g>
<!-- Node1&#45;&gt;Node7 -->
<g id="edge6_Node000001_Node000007" class="edge">
<title>Node1&#45;&gt;Node7</title>
<g id="a_edge6_Node000001_Node000007"><a xlink:title=" ">
<path fill="none" stroke="#63b8ff" d="M284.17,-57.81C292.51,-56.73 301.23,-55.6 309.78,-54.49"/>
<polygon fill="#63b8ff" stroke="#63b8ff" points="283.67,-54.34 274.2,-59.1 284.57,-61.29 283.67,-54.34"/>
</a>
</g>
</g>
<!-- Node2 -->
<g id="Node000002" class="node">
<title>Node2</title>
<g id="a_Node000002"><a xlink:href="class_base.html" target="_top" xlink:title="Base test class used to carry out memory leak checks.">
<polygon fill="white" stroke="#666666" points="153,-74 112,-74 112,-55 153,-55 153,-74"/>
<text text-anchor="middle" x="132.5" y="-62" font-family="Helvetica,sans-Serif" font-size="10.00">Base</text>
</a>
</g>
</g>
<!-- Node2&#45;&gt;Node1 -->
<g id="edge1_Node000001_Node000002" class="edge">
<title>Node2&#45;&gt;Node1</title>
<g id="a_edge1_Node000001_Node000002"><a xlink:title=" ">
<path fill="none" stroke="#63b8ff" d="M163.21,-64.5C171.31,-64.5 180.23,-64.5 188.87,-64.5"/>
<polygon fill="#63b8ff" stroke="#63b8ff" points="163.13,-61 153.13,-64.5 163.13,-68 163.13,-61"/>
</a>
</g>
</g>
<!-- Node3 -->
<g id="Node000003" class="node">
<title>Node3</title>
<g id="a_Node000003"><a xlink:title=" ">
<polygon fill="white" stroke="#bfbfbf" points="76,-74 0,-74 0,-55 76,-55 76,-74"/>
<text text-anchor="middle" x="38" y="-62" font-family="Helvetica,sans-Serif" font-size="10.00">testing::Test</text>
</a>
</g>
</g>
<!-- Node3&#45;&gt;Node2 -->
<g id="edge2_Node000002_Node000003" class="edge">
<title>Node3&#45;&gt;Node2</title>
<g id="a_edge2_Node000002_Node000003"><a xlink:title=" ">
<path fill="none" stroke="#63b8ff" d="M86.28,-64.5C95.35,-64.5 104.36,-64.5 111.93,-64.5"/>
<polygon fill="#63b8ff" stroke="#63b8ff" points="86.09,-61 76.09,-64.5 86.09,-68 86.09,-61"/>
</a>
</g>
</g>
<!-- Node5 -->
<g id="Node000005" class="node">
<title>Node5</title>
<g id="a_Node000005"><a xlink:href="class_collection_test_file_fixed.html" target="_top" xlink:title=" ">
<polygon fill="white" stroke="#bfbfbf" points="617.5,-130 489.5,-130 489.5,-111 617.5,-111 617.5,-130"/>
<text text-anchor="middle" x="553.5" y="-118" font-family="Helvetica,sans-Serif" font-size="10.00">CollectionTestFileFixed</text>
</a>
</g>
</g>
<!-- Node4&#45;&gt;Node5 -->
<g id="edge4_Node000004_Node000005" class="edge">
<title>Node4&#45;&gt;Node5</title>
<g id="a_edge4_Node000004_Node000005"><a xlink:title=" ">
<path fill="none" stroke="#63b8ff" d="M429.54,-95.08C454.2,-100.18 482.83,-106.1 506.25,-110.94"/>
<polygon fill="#63b8ff" stroke="#63b8ff" points="430.1,-91.63 419.6,-93.03 428.68,-98.48 430.1,-91.63"/>
</a>
</g>
</g>
<!-- Node6 -->
<g id="Node000006" class="node">
<title>Node6</title>
<g id="a_Node000006"><a xlink:href="class_collection_test_file_variable.html" target="_top" xlink:title=" ">
<polygon fill="white" stroke="#bfbfbf" points="624.5,-93 482.5,-93 482.5,-74 624.5,-74 624.5,-93"/>
<text text-anchor="middle" x="553.5" y="-81" font-family="Helvetica,sans-Serif" font-size="10.00">CollectionTestFileVariable</text>
</a>
</g>
</g>
<!-- Node4&#45;&gt;Node6 -->
<g id="edge5_Node000004_Node000006" class="edge">
<title>Node4&#45;&gt;Node6</title>
<g id="a_edge5_Node000004_Node000006"><a xlink:title=" ">
<path fill="none" stroke="#63b8ff" d="M434.27,-83.5C449.67,-83.5 466.34,-83.5 482.17,-83.5"/>
<polygon fill="#63b8ff" stroke="#63b8ff" points="433.84,-80 423.84,-83.5 433.84,-87 433.84,-80"/>
</a>
</g>
</g>
<!-- Node8 -->
<g id="Node000008" class="node">
<title>Node8</title>
<g id="a_Node000008"><a xlink:href="class_collection_test_memory_fixed.html" target="_top" xlink:title=" ">
<polygon fill="white" stroke="#bfbfbf" points="629,-56 478,-56 478,-37 629,-37 629,-56"/>
<text text-anchor="middle" x="553.5" y="-44" font-family="Helvetica,sans-Serif" font-size="10.00">CollectionTestMemoryFixed</text>
</a>
</g>
</g>
<!-- Node7&#45;&gt;Node8 -->
<g id="edge7_Node000007_Node000008" class="edge">
<title>Node7&#45;&gt;Node8</title>
<g id="a_edge7_Node000007_Node000008"><a xlink:title=" ">
<path fill="none" stroke="#63b8ff" d="M445.25,-46.5C455.96,-46.5 467.03,-46.5 477.8,-46.5"/>
<polygon fill="#63b8ff" stroke="#63b8ff" points="445.1,-43 435.1,-46.5 445.1,-50 445.1,-43"/>
</a>
</g>
</g>
<!-- Node9 -->
<g id="Node000009" class="node">
<title>Node9</title>
<g id="a_Node000009"><a xlink:href="class_collection_test_memory_variable.html" target="_top" xlink:title=" ">
<polygon fill="white" stroke="#bfbfbf" points="636,-19 471,-19 471,0 636,0 636,-19"/>
<text text-anchor="middle" x="553.5" y="-7" font-family="Helvetica,sans-Serif" font-size="10.00">CollectionTestMemoryVariable</text>
</a>
</g>
</g>
<!-- Node7&#45;&gt;Node9 -->
<g id="edge8_Node000007_Node000009" class="edge">
<title>Node7&#45;&gt;Node9</title>
<g id="a_edge8_Node000007_Node000009"><a xlink:title=" ">
<path fill="none" stroke="#63b8ff" d="M429.54,-34.92C454.2,-29.82 482.83,-23.9 506.25,-19.06"/>
<polygon fill="#63b8ff" stroke="#63b8ff" points="428.68,-31.52 419.6,-36.97 430.1,-38.37 428.68,-31.52"/>
</a>
</g>
</g>
</g>
</svg>
