<?xml version="1.0" encoding="UTF-8" standalone="no"?>
<!DOCTYPE svg PUBLIC "-//W3C//DTD SVG 1.1//EN"
 "http://www.w3.org/Graphics/SVG/1.1/DTD/svg11.dtd">
<!-- Generated by graphviz version 2.43.0 (0)
 -->
<!-- Title: Properties Pages: 1 -->
<svg width="547pt" height="350pt"
 viewBox="0.00 0.00 547.00 350.00" xmlns="http://www.w3.org/2000/svg" xmlns:xlink="http://www.w3.org/1999/xlink">
<g id="graph0" class="graph" transform="scale(1 1) rotate(0) translate(4 346)">
<title>Properties</title>
<!-- Node1 -->
<g id="Node000001" class="node">
<title>Node1</title>
<g id="a_Node000001"><a xlink:title="Properties test class used to test the functionality of properties.c.">
<polygon fill="#999999" stroke="#666666" points="277,-19 211,-19 211,0 277,0 277,-19"/>
<text text-anchor="middle" x="244" y="-7" font-family="Helvetica,sans-Serif" font-size="10.00">Properties</text>
</a>
</g>
</g>
<!-- Node2 -->
<g id="Node000002" class="node">
<title>Node2</title>
<g id="a_Node000002"><a xlink:href="class_base.html" target="_top" xlink:title="Base test class used to carry out memory leak checks.">
<polygon fill="white" stroke="#666666" points="138.5,-96.5 97.5,-96.5 97.5,-77.5 138.5,-77.5 138.5,-96.5"/>
<text text-anchor="middle" x="118" y="-84.5" font-family="Helvetica,sans-Serif" font-size="10.00">Base</text>
</a>
</g>
</g>
<!-- Node2&#45;&gt;Node1 -->
<g id="edge1_Node000001_Node000002" class="edge">
<title>Node2&#45;&gt;Node1</title>
<g id="a_edge1_Node000001_Node000002"><a xlink:title=" ">
<path fill="none" stroke="#63b8ff" d="M141.24,-72.07C167.13,-56.56 208.17,-31.97 229.71,-19.06"/>
<polygon fill="#63b8ff" stroke="#63b8ff" points="139.23,-69.2 132.45,-77.34 142.83,-75.2 139.23,-69.2"/>
</a>
</g>
</g>
<!-- Node3 -->
<g id="Node000003" class="node">
<title>Node3</title>
<g id="a_Node000003"><a xlink:title=" ">
<polygon fill="white" stroke="#bfbfbf" points="76,-180.5 0,-180.5 0,-161.5 76,-161.5 76,-180.5"/>
<text text-anchor="middle" x="38" y="-168.5" font-family="Helvetica,sans-Serif" font-size="10.00">testing::Test</text>
</a>
</g>
</g>
<!-- Node3&#45;&gt;Node2 -->
<g id="edge2_Node000002_Node000003" class="edge">
<title>Node3&#45;&gt;Node2</title>
<g id="a_edge2_Node000002_Node000003"><a xlink:title=" ">
<path fill="none" stroke="#63b8ff" d="M53.96,-153.64C70.68,-136.5 96.31,-110.24 109.5,-96.71"/>
<polygon fill="#63b8ff" stroke="#63b8ff" points="51.04,-151.62 46.56,-161.22 56.05,-156.51 51.04,-151.62"/>
</a>
</g>
</g>
<!-- Node4 -->
<g id="Node000004" class="node">
<title>Node4</title>
<g id="a_Node000004"><a xlink:href="class_string_collection.html" target="_top" xlink:title="String collection helper class, used by test classes to fetch.">
<polygon fill="white" stroke="#666666" points="291,-96.5 197,-96.5 197,-77.5 291,-77.5 291,-96.5"/>
<text text-anchor="middle" x="244" y="-84.5" font-family="Helvetica,sans-Serif" font-size="10.00">StringCollection</text>
</a>
</g>
</g>
<!-- Node4&#45;&gt;Node1 -->
<g id="edge3_Node000001_Node000004" class="edge">
<title>Node4&#45;&gt;Node1</title>
<g id="a_edge3_Node000001_Node000004"><a xlink:title=" ">
<path fill="none" stroke="#9a32cd" stroke-dasharray="5,2" d="M244,-66.9C244,-51.51 244,-30.61 244,-19.06"/>
<polygon fill="#9a32cd" stroke="#9a32cd" points="240.5,-67.34 244,-77.34 247.5,-67.34 240.5,-67.34"/>
</a>
</g>
<text text-anchor="start" x="247" y="-42.5" font-family="Helvetica,sans-Serif" font-size="10.00" fill="grey">strings</text>
</g>
<!-- Node5 -->
<g id="Node000005" class="node">
<title>Node5</title>
<g id="a_Node000005"><a xlink:href="structfiftyone_degrees_property_available_array.html" target="_top" xlink:title="Array of items of type fiftyoneDegreesPropertyAvailable used to easily access and track the size of t...">
<polygon fill="white" stroke="#666666" points="509,-102 329,-102 329,-72 509,-72 509,-102"/>
<text text-anchor="start" x="337" y="-90" font-family="Helvetica,sans-Serif" font-size="10.00">fiftyoneDegreesPropertyAvailable</text>
<text text-anchor="middle" x="419" y="-79" font-family="Helvetica,sans-Serif" font-size="10.00">Array</text>
</a>
</g>
</g>
<!-- Node5&#45;&gt;Node1 -->
<g id="edge4_Node000001_Node000005" class="edge">
<title>Node5&#45;&gt;Node1</title>
<g id="a_edge4_Node000001_Node000005"><a xlink:title=" ">
<path fill="none" stroke="#9a32cd" stroke-dasharray="5,2" d="M377.24,-67.99C341.37,-52.51 291.22,-30.87 263.82,-19.05"/>
<polygon fill="#9a32cd" stroke="#9a32cd" points="375.93,-71.23 386.49,-71.98 378.7,-64.8 375.93,-71.23"/>
</a>
</g>
<text text-anchor="start" x="345" y="-42.5" font-family="Helvetica,sans-Serif" font-size="10.00" fill="grey">properties</text>
</g>
<!-- Node6 -->
<g id="Node000006" class="node">
<title>Node6</title>
<g id="a_Node000006"><a xlink:href="structfiftyone_degrees_property_available.html" target="_top" xlink:title="Used to access the property item quickly without the need to search.">
<polygon fill="white" stroke="#666666" points="529,-180.5 349,-180.5 349,-161.5 529,-161.5 529,-180.5"/>
<text text-anchor="middle" x="439" y="-168.5" font-family="Helvetica,sans-Serif" font-size="10.00">fiftyoneDegreesPropertyAvailable</text>
</a>
</g>
</g>
<!-- Node6&#45;&gt;Node5 -->
<g id="edge5_Node000005_Node000006" class="edge">
<title>Node6&#45;&gt;Node5</title>
<g id="a_edge5_Node000005_Node000006"><a xlink:title=" ">
<path fill="none" stroke="#9a32cd" stroke-dasharray="5,2" d="M434.39,-151.11C430.76,-136.2 425.76,-115.72 422.46,-102.18"/>
<polygon fill="#9a32cd" stroke="#9a32cd" points="431.09,-152.34 436.86,-161.22 437.89,-150.68 431.09,-152.34"/>
</a>
</g>
<text text-anchor="start" x="434" y="-125.5" font-family="Helvetica,sans-Serif" font-size="10.00" fill="grey">items</text>
</g>
<!-- Node7 -->
<g id="Node000007" class="node">
<title>Node7</title>
<g id="a_Node000007"><a xlink:href="structfiftyone_degrees_collection_item.html" target="_top" xlink:title="Used to store a handle to the underlying item that could be used to release the item when it&#39;s finish...">
<polygon fill="white" stroke="#666666" points="314.5,-264.5 149.5,-264.5 149.5,-245.5 314.5,-245.5 314.5,-264.5"/>
<text text-anchor="middle" x="232" y="-252.5" font-family="Helvetica,sans-Serif" font-size="10.00">fiftyoneDegreesCollectionItem</text>
</a>
</g>
</g>
<!-- Node7&#45;&gt;Node6 -->
<g id="edge6_Node000006_Node000007" class="edge">
<title>Node7&#45;&gt;Node6</title>
<g id="a_edge6_Node000006_Node000007"><a xlink:title=" ">
<path fill="none" stroke="#9a32cd" stroke-dasharray="5,2" d="M263.06,-241.69C305.57,-224.86 380.75,-195.07 417.53,-180.5"/>
<polygon fill="#9a32cd" stroke="#9a32cd" points="261.77,-238.44 253.76,-245.38 264.35,-244.95 261.77,-238.44"/>
</a>
</g>
<text text-anchor="start" x="358" y="-210.5" font-family="Helvetica,sans-Serif" font-size="10.00" fill="grey">name</text>
</g>
<!-- Node9 -->
<g id="Node000009" class="node">
<title>Node9</title>
<g id="a_Node000009"><a xlink:href="structfiftyone_degrees_collection.html" target="_top" xlink:title="All the shared methods and fields required by file, memory and cached collections.">
<polygon fill="white" stroke="#666666" points="237.5,-180.5 94.5,-180.5 94.5,-161.5 237.5,-161.5 237.5,-180.5"/>
<text text-anchor="middle" x="166" y="-168.5" font-family="Helvetica,sans-Serif" font-size="10.00">fiftyoneDegreesCollection</text>
</a>
</g>
</g>
<!-- Node7&#45;&gt;Node9 -->
<g id="edge10_Node000009_Node000007" class="edge">
<title>Node7&#45;&gt;Node9</title>
<g id="a_edge10_Node000009_Node000007"><a xlink:title=" ">
<path fill="none" stroke="#9a32cd" stroke-dasharray="5,2" d="M185.28,-241.14C176.45,-236.54 168.33,-230.34 163,-222 154.95,-209.39 159.07,-191.16 162.64,-180.55"/>
<polygon fill="#9a32cd" stroke="#9a32cd" points="184.09,-244.44 194.64,-245.37 186.97,-238.07 184.09,-244.44"/>
</a>
</g>
<text text-anchor="start" x="166.5" y="-210.5" font-family="Helvetica,sans-Serif" font-size="10.00" fill="grey">release</text>
</g>
<!-- Node8 -->
<g id="Node000008" class="node">
<title>Node8</title>
<g id="a_Node000008"><a xlink:href="structfiftyone_degrees_data.html" target="_top" xlink:title="Data structure used for reusing memory which may have been allocated in a previous operation.">
<polygon fill="white" stroke="#666666" points="290.5,-342 173.5,-342 173.5,-323 290.5,-323 290.5,-342"/>
<text text-anchor="middle" x="232" y="-330" font-family="Helvetica,sans-Serif" font-size="10.00">fiftyoneDegreesData</text>
</a>
</g>
</g>
<!-- Node8&#45;&gt;Node7 -->
<g id="edge7_Node000007_Node000008" class="edge">
<title>Node8&#45;&gt;Node7</title>
<g id="a_edge7_Node000007_Node000008"><a xlink:title=" ">
<path fill="none" stroke="#9a32cd" stroke-dasharray="5,2" d="M232,-312.4C232,-297.01 232,-276.11 232,-264.56"/>
<polygon fill="#9a32cd" stroke="#9a32cd" points="228.5,-312.84 232,-322.84 235.5,-312.84 228.5,-312.84"/>
</a>
</g>
<text text-anchor="start" x="235" y="-293.5" font-family="Helvetica,sans-Serif" font-size="10.00" fill="grey">data</text>
</g>
<!-- Node9&#45;&gt;Node7 -->
<g id="edge8_Node000007_Node000009" class="edge">
<title>Node9&#45;&gt;Node7</title>
<g id="a_edge8_Node000007_Node000009"><a xlink:title=" ">
<path fill="none" stroke="#9a32cd" stroke-dasharray="5,2" d="M189.77,-186.46C196.94,-191.65 204.38,-197.97 210,-205 219.9,-217.38 226.35,-234.93 229.57,-245.32"/>
<polygon fill="#9a32cd" stroke="#9a32cd" points="191.25,-183.24 181.01,-180.53 187.33,-189.04 191.25,-183.24"/>
</a>
</g>
<text text-anchor="start" x="224" y="-210.5" font-family="Helvetica,sans-Serif" font-size="10.00" fill="grey">collection</text>
</g>
<!-- Node9&#45;&gt;Node9 -->
<g id="edge9_Node000009_Node000009" class="edge">
<title>Node9&#45;&gt;Node9</title>
<g id="a_edge9_Node000009_Node000009"><a xlink:title=" ">
<path fill="none" stroke="#9a32cd" stroke-dasharray="5,2" d="M247.61,-176.45C252.54,-175.16 255.5,-173.34 255.5,-171 255.5,-167.35 248.29,-164.97 237.63,-163.86"/>
<polygon fill="#9a32cd" stroke="#9a32cd" points="246.9,-173.02 237.63,-178.14 248.07,-179.92 246.9,-173.02"/>
</a>
</g>
<text text-anchor="start" x="259" y="-176" font-family="Helvetica,sans-Serif" font-size="10.00" fill="grey">freeCollection</text>
<text text-anchor="start" x="259" y="-161" font-family="Helvetica,sans-Serif" font-size="10.00" fill="grey">get</text>
</g>
<!-- Node10 -->
<g id="Node000010" class="node">
<title>Node10</title>
<g id="a_Node000010"><a xlink:href="structfiftyone_degrees_evidence_property_index_array.html" target="_top" xlink:title="Array of items of type fiftyoneDegreesEvidencePropertyIndex used to easily access and track the size ...">
<polygon fill="white" stroke="#666666" points="528.5,-270 349.5,-270 349.5,-240 528.5,-240 528.5,-270"/>
<text text-anchor="start" x="357.5" y="-258" font-family="Helvetica,sans-Serif" font-size="10.00">fiftyoneDegreesEvidenceProperty</text>
<text text-anchor="middle" x="439" y="-247" font-family="Helvetica,sans-Serif" font-size="10.00">IndexArray</text>
</a>
</g>
</g>
<!-- Node10&#45;&gt;Node6 -->
<g id="edge11_Node000006_Node000010" class="edge">
<title>Node10&#45;&gt;Node6</title>
<g id="a_edge11_Node000006_Node000010"><a xlink:title=" ">
<path fill="none" stroke="#9a32cd" stroke-dasharray="5,2" d="M439,-229.6C439,-213.03 439,-192.11 439,-180.59"/>
<polygon fill="#9a32cd" stroke="#9a32cd" points="435.5,-229.72 439,-239.72 442.5,-229.72 435.5,-229.72"/>
</a>
</g>
<text text-anchor="start" x="442" y="-210.5" font-family="Helvetica,sans-Serif" font-size="10.00" fill="grey">evidenceProperties</text>
</g>
</g>
</svg>
