<?xml version="1.0" encoding="UTF-8" standalone="no"?>
<!DOCTYPE svg PUBLIC "-//W3C//DTD SVG 1.1//EN"
 "http://www.w3.org/Graphics/SVG/1.1/DTD/svg11.dtd">
<!-- Generated by graphviz version 2.43.0 (0)
 -->
<!-- Title: Base Pages: 1 -->
<svg width="719pt" height="726pt"
 viewBox="0.00 0.00 719.00 726.00" xmlns="http://www.w3.org/2000/svg" xmlns:xlink="http://www.w3.org/1999/xlink">
<g id="graph0" class="graph" transform="scale(1 1) rotate(0) translate(4 722)">
<title>Base</title>
<!-- Node1 -->
<g id="Node000001" class="node">
<title>Node1</title>
<g id="a_Node000001"><a xlink:title="Base test class used to carry out memory leak checks.">
<polygon fill="#999999" stroke="#666666" points="153,-352 112,-352 112,-333 153,-333 153,-352"/>
<text text-anchor="middle" x="132.5" y="-340" font-family="Helvetica,sans-Serif" font-size="10.00">Base</text>
</a>
</g>
</g>
<!-- Node3 -->
<g id="Node000003" class="node">
<title>Node3</title>
<g id="a_Node000003"><a xlink:href="class_cache_test.html" target="_top" xlink:title="Unit tests for the cache implementation.">
<polygon fill="white" stroke="#666666" points="293,-697 227,-697 227,-678 293,-678 293,-697"/>
<text text-anchor="middle" x="260" y="-685" font-family="Helvetica,sans-Serif" font-size="10.00">CacheTest</text>
</a>
</g>
</g>
<!-- Node1&#45;&gt;Node3 -->
<g id="edge2_Node000001_Node000003" class="edge">
<title>Node1&#45;&gt;Node3</title>
<g id="a_edge2_Node000001_Node000003"><a xlink:title=" ">
<path fill="none" stroke="#63b8ff" d="M134.17,-362.54C136.7,-426.32 147.76,-623.08 189,-668.5 198.57,-679.03 213.32,-683.97 226.83,-686.2"/>
<polygon fill="#63b8ff" stroke="#63b8ff" points="137.65,-362.11 133.79,-352.25 130.66,-362.37 137.65,-362.11"/>
</a>
</g>
</g>
<!-- Node4 -->
<g id="Node000004" class="node">
<title>Node4</title>
<g id="a_Node000004"><a xlink:href="class_collection_test.html" target="_top" xlink:title=" ">
<polygon fill="white" stroke="#bfbfbf" points="302.5,-660 217.5,-660 217.5,-641 302.5,-641 302.5,-660"/>
<text text-anchor="middle" x="260" y="-648" font-family="Helvetica,sans-Serif" font-size="10.00">CollectionTest</text>
</a>
</g>
</g>
<!-- Node1&#45;&gt;Node4 -->
<g id="edge3_Node000001_Node000004" class="edge">
<title>Node1&#45;&gt;Node4</title>
<g id="a_edge3_Node000001_Node000004"><a xlink:title=" ">
<path fill="none" stroke="#63b8ff" d="M134.62,-362.15C138.36,-420.62 152.28,-591.9 189,-631.5 196.45,-639.53 206.92,-644.3 217.5,-647.09"/>
<polygon fill="#63b8ff" stroke="#63b8ff" points="138.11,-361.8 134.01,-352.03 131.12,-362.22 138.11,-361.8"/>
</a>
</g>
</g>
<!-- Node11 -->
<g id="Node000011" class="node">
<title>Node11</title>
<g id="a_Node000011"><a xlink:href="class_collection_test_file_variable_limits.html" target="_top" xlink:title=" ">
<polygon fill="white" stroke="#bfbfbf" points="331,-622.5 189,-622.5 189,-592.5 331,-592.5 331,-622.5"/>
<text text-anchor="start" x="197" y="-610.5" font-family="Helvetica,sans-Serif" font-size="10.00">CollectionTestFileVariable</text>
<text text-anchor="middle" x="260" y="-599.5" font-family="Helvetica,sans-Serif" font-size="10.00">Limits</text>
</a>
</g>
</g>
<!-- Node1&#45;&gt;Node11 -->
<g id="edge10_Node000001_Node000011" class="edge">
<title>Node1&#45;&gt;Node11</title>
<g id="a_edge10_Node000001_Node000011"><a xlink:title=" ">
<path fill="none" stroke="#63b8ff" d="M135.64,-362.33C141.55,-413.73 159.65,-549.54 189,-582.5 192.43,-586.36 196.5,-589.62 200.92,-592.37"/>
<polygon fill="#63b8ff" stroke="#63b8ff" points="139.1,-361.75 134.51,-352.2 132.14,-362.53 139.1,-361.75"/>
</a>
</g>
</g>
<!-- Node12 -->
<g id="Node000012" class="node">
<title>Node12</title>
<g id="a_Node000012"><a xlink:href="class_engine_tests.html" target="_top" xlink:title=" ">
<polygon fill="white" stroke="#bfbfbf" points="297,-574 223,-574 223,-555 297,-555 297,-574"/>
<text text-anchor="middle" x="260" y="-562" font-family="Helvetica,sans-Serif" font-size="10.00">EngineTests</text>
</a>
</g>
</g>
<!-- Node1&#45;&gt;Node12 -->
<g id="edge11_Node000001_Node000012" class="edge">
<title>Node1&#45;&gt;Node12</title>
<g id="a_edge11_Node000001_Node000012"><a xlink:title=" ">
<path fill="none" stroke="#63b8ff" d="M132.86,-362.33C132.7,-402.69 138.29,-494.88 189,-545.5 198,-554.49 210.8,-559.34 222.99,-561.92"/>
<polygon fill="#63b8ff" stroke="#63b8ff" points="136.37,-362.24 133.04,-352.18 129.37,-362.12 136.37,-362.24"/>
</a>
</g>
</g>
<!-- Node13 -->
<g id="Node000013" class="node">
<title>Node13</title>
<g id="a_Node000013"><a xlink:href="class_evidence.html" target="_top" xlink:title="Evidence test class used to test the functionality in evidence.c.">
<polygon fill="white" stroke="#666666" points="290.5,-537 229.5,-537 229.5,-518 290.5,-518 290.5,-537"/>
<text text-anchor="middle" x="260" y="-525" font-family="Helvetica,sans-Serif" font-size="10.00">Evidence</text>
</a>
</g>
</g>
<!-- Node1&#45;&gt;Node13 -->
<g id="edge12_Node000001_Node000013" class="edge">
<title>Node1&#45;&gt;Node13</title>
<g id="a_edge12_Node000001_Node000013"><a xlink:title=" ">
<path fill="none" stroke="#63b8ff" d="M134.31,-362.24C136.83,-396.95 147.11,-468.96 189,-508.5 199.81,-518.7 215.52,-523.53 229.33,-525.78"/>
<polygon fill="#63b8ff" stroke="#63b8ff" points="137.79,-361.79 133.72,-352 130.8,-362.19 137.79,-361.79"/>
</a>
</g>
</g>
<!-- Node17 -->
<g id="Node000017" class="node">
<title>Node17</title>
<g id="a_Node000017"><a xlink:href="class_example_tests.html" target="_top" xlink:title=" ">
<polygon fill="white" stroke="#bfbfbf" points="302,-500 218,-500 218,-481 302,-481 302,-500"/>
<text text-anchor="middle" x="260" y="-488" font-family="Helvetica,sans-Serif" font-size="10.00">ExampleTests</text>
</a>
</g>
</g>
<!-- Node1&#45;&gt;Node17 -->
<g id="edge16_Node000001_Node000017" class="edge">
<title>Node1&#45;&gt;Node17</title>
<g id="a_edge16_Node000001_Node000017"><a xlink:title=" ">
<path fill="none" stroke="#63b8ff" d="M136.5,-362.21C141.87,-390.59 155.84,-442.72 189,-471.5 197.08,-478.52 207.52,-482.97 217.85,-485.78"/>
<polygon fill="#63b8ff" stroke="#63b8ff" points="139.93,-361.53 134.79,-352.27 133.03,-362.72 139.93,-361.53"/>
</a>
</g>
</g>
<!-- Node18 -->
<g id="Node000018" class="node">
<title>Node18</title>
<g id="a_Node000018"><a xlink:href="class_file.html" target="_top" xlink:title="File test class used to test the functionality of file.c.">
<polygon fill="white" stroke="#666666" points="277,-463 243,-463 243,-444 277,-444 277,-463"/>
<text text-anchor="middle" x="260" y="-451" font-family="Helvetica,sans-Serif" font-size="10.00">File</text>
</a>
</g>
</g>
<!-- Node1&#45;&gt;Node18 -->
<g id="edge17_Node000001_Node000018" class="edge">
<title>Node1&#45;&gt;Node18</title>
<g id="a_edge17_Node000001_Node000018"><a xlink:title=" ">
<path fill="none" stroke="#63b8ff" d="M140.1,-361.72C148.29,-382.72 164.29,-415.85 189,-434.5 204.78,-446.41 227.53,-450.86 242.77,-452.52"/>
<polygon fill="#63b8ff" stroke="#63b8ff" points="143.35,-360.41 136.61,-352.24 136.78,-362.83 143.35,-360.41"/>
</a>
</g>
</g>
<!-- Node19 -->
<g id="Node000019" class="node">
<title>Node19</title>
<g id="a_Node000019"><a xlink:href="class_headers_tests.html" target="_top" xlink:title="Header test class used to test the functionality of header.c using a string collection built from the...">
<polygon fill="white" stroke="#666666" points="301,-426 219,-426 219,-407 301,-407 301,-426"/>
<text text-anchor="middle" x="260" y="-414" font-family="Helvetica,sans-Serif" font-size="10.00">HeadersTests</text>
</a>
</g>
</g>
<!-- Node1&#45;&gt;Node19 -->
<g id="edge18_Node000001_Node000019" class="edge">
<title>Node1&#45;&gt;Node19</title>
<g id="a_edge18_Node000001_Node000019"><a xlink:title=" ">
<path fill="none" stroke="#63b8ff" d="M147.22,-360.3C157.49,-372.45 172.55,-388.01 189,-397.5 198.05,-402.72 208.6,-406.55 218.71,-409.35"/>
<polygon fill="#63b8ff" stroke="#63b8ff" points="149.66,-357.75 140.64,-352.19 144.22,-362.16 149.66,-357.75"/>
</a>
</g>
</g>
<!-- Node20 -->
<g id="Node000020" class="node">
<title>Node20</title>
<g id="a_Node000020"><a xlink:href="class_json_tests.html" target="_top" xlink:title=" ">
<polygon fill="white" stroke="#bfbfbf" points="291,-389 229,-389 229,-370 291,-370 291,-389"/>
<text text-anchor="middle" x="260" y="-377" font-family="Helvetica,sans-Serif" font-size="10.00">JsonTests</text>
</a>
</g>
</g>
<!-- Node1&#45;&gt;Node20 -->
<g id="edge19_Node000001_Node000020" class="edge">
<title>Node1&#45;&gt;Node20</title>
<g id="a_edge19_Node000001_Node000020"><a xlink:title=" ">
<path fill="none" stroke="#63b8ff" d="M162.96,-352.35C171.34,-355.07 180.51,-357.97 189,-360.5 202.03,-364.38 216.53,-368.37 228.93,-371.68"/>
<polygon fill="#63b8ff" stroke="#63b8ff" points="163.8,-348.94 153.21,-349.15 161.62,-355.59 163.8,-348.94"/>
</a>
</g>
</g>
<!-- Node21 -->
<g id="Node000021" class="node">
<title>Node21</title>
<g id="a_Node000021"><a xlink:href="class_memory_leak.html" target="_top" xlink:title="Memory Leak test class used to verify that the Base.cpp memory leak check functionality works as expe...">
<polygon fill="white" stroke="#666666" points="300,-352 220,-352 220,-333 300,-333 300,-352"/>
<text text-anchor="middle" x="260" y="-340" font-family="Helvetica,sans-Serif" font-size="10.00">MemoryLeak</text>
</a>
</g>
</g>
<!-- Node1&#45;&gt;Node21 -->
<g id="edge20_Node000001_Node000021" class="edge">
<title>Node1&#45;&gt;Node21</title>
<g id="a_edge20_Node000001_Node000021"><a xlink:title=" ">
<path fill="none" stroke="#63b8ff" d="M163.49,-342.5C180.36,-342.5 201.63,-342.5 219.81,-342.5"/>
<polygon fill="#63b8ff" stroke="#63b8ff" points="163.11,-339 153.11,-342.5 163.11,-346 163.11,-339"/>
</a>
</g>
</g>
<!-- Node22 -->
<g id="Node000022" class="node">
<title>Node22</title>
<g id="a_Node000022"><a xlink:href="class_pool.html" target="_top" xlink:title="File test class used to test the functionality of file.c.">
<polygon fill="white" stroke="#666666" points="279,-315 241,-315 241,-296 279,-296 279,-315"/>
<text text-anchor="middle" x="260" y="-303" font-family="Helvetica,sans-Serif" font-size="10.00">Pool</text>
</a>
</g>
</g>
<!-- Node1&#45;&gt;Node22 -->
<g id="edge21_Node000001_Node000022" class="edge">
<title>Node1&#45;&gt;Node22</title>
<g id="a_edge21_Node000001_Node000022"><a xlink:title=" ">
<path fill="none" stroke="#63b8ff" d="M162.62,-332.05C171.09,-329.15 180.37,-326.08 189,-323.5 206.43,-318.28 226.57,-313.2 240.76,-309.78"/>
<polygon fill="#63b8ff" stroke="#63b8ff" points="161.45,-328.75 153.16,-335.35 163.75,-335.36 161.45,-328.75"/>
</a>
</g>
</g>
<!-- Node23 -->
<g id="Node000023" class="node">
<title>Node23</title>
<g id="a_Node000023"><a xlink:href="class_profile_tests.html" target="_top" xlink:title=" ">
<polygon fill="white" stroke="#bfbfbf" points="296,-278 224,-278 224,-259 296,-259 296,-278"/>
<text text-anchor="middle" x="260" y="-266" font-family="Helvetica,sans-Serif" font-size="10.00">ProfileTests</text>
</a>
</g>
</g>
<!-- Node1&#45;&gt;Node23 -->
<g id="edge22_Node000001_Node000023" class="edge">
<title>Node1&#45;&gt;Node23</title>
<g id="a_edge22_Node000001_Node000023"><a xlink:title=" ">
<path fill="none" stroke="#63b8ff" d="M146.82,-324.66C157.04,-312.2 172.21,-296.13 189,-286.5 199.56,-280.44 212.16,-276.39 223.75,-273.7"/>
<polygon fill="#63b8ff" stroke="#63b8ff" points="144.01,-322.57 140.58,-332.59 149.51,-326.9 144.01,-322.57"/>
</a>
</g>
</g>
<!-- Node24 -->
<g id="Node000024" class="node">
<title>Node24</title>
<g id="a_Node000024"><a xlink:href="class_properties.html" target="_top" xlink:title="Properties test class used to test the functionality of properties.c.">
<polygon fill="white" stroke="#666666" points="293,-241 227,-241 227,-222 293,-222 293,-241"/>
<text text-anchor="middle" x="260" y="-229" font-family="Helvetica,sans-Serif" font-size="10.00">Properties</text>
</a>
</g>
</g>
<!-- Node1&#45;&gt;Node24 -->
<g id="edge23_Node000001_Node000024" class="edge">
<title>Node1&#45;&gt;Node24</title>
<g id="a_edge23_Node000001_Node000024"><a xlink:title=" ">
<path fill="none" stroke="#63b8ff" d="M139.87,-323.34C147.93,-302.08 163.88,-268.29 189,-249.5 199.85,-241.38 214.01,-236.91 226.74,-234.45"/>
<polygon fill="#63b8ff" stroke="#63b8ff" points="136.52,-322.32 136.45,-332.92 143.11,-324.68 136.52,-322.32"/>
</a>
</g>
</g>
<!-- Node25 -->
<g id="Node000025" class="node">
<title>Node25</title>
<g id="a_Node000025"><a xlink:href="class_property_tests.html" target="_top" xlink:title=" ">
<polygon fill="white" stroke="#bfbfbf" points="301.5,-204 218.5,-204 218.5,-185 301.5,-185 301.5,-204"/>
<text text-anchor="middle" x="260" y="-192" font-family="Helvetica,sans-Serif" font-size="10.00">PropertyTests</text>
</a>
</g>
</g>
<!-- Node1&#45;&gt;Node25 -->
<g id="edge24_Node000001_Node000025" class="edge">
<title>Node1&#45;&gt;Node25</title>
<g id="a_edge24_Node000001_Node000025"><a xlink:title=" ">
<path fill="none" stroke="#63b8ff" d="M136.32,-323C141.51,-294.43 155.3,-241.43 189,-212.5 197.19,-205.47 207.77,-201.13 218.22,-198.47"/>
<polygon fill="#63b8ff" stroke="#63b8ff" points="132.85,-322.54 134.69,-332.98 139.76,-323.68 132.85,-322.54"/>
</a>
</g>
</g>
<!-- Node26 -->
<g id="Node000026" class="node">
<title>Node26</title>
<g id="a_Node000026"><a xlink:href="class_resource_manager.html" target="_top" xlink:title=" ">
<polygon fill="white" stroke="#bfbfbf" points="312,-167 208,-167 208,-148 312,-148 312,-167"/>
<text text-anchor="middle" x="260" y="-155" font-family="Helvetica,sans-Serif" font-size="10.00">ResourceManager</text>
</a>
</g>
</g>
<!-- Node1&#45;&gt;Node26 -->
<g id="edge25_Node000001_Node000026" class="edge">
<title>Node1&#45;&gt;Node26</title>
<g id="a_edge25_Node000001_Node000026"><a xlink:title=" ">
<path fill="none" stroke="#63b8ff" d="M134.22,-322.58C136.59,-287.58 146.65,-215.01 189,-175.5 194.32,-170.53 200.82,-166.9 207.7,-164.24"/>
<polygon fill="#63b8ff" stroke="#63b8ff" points="130.7,-322.74 133.67,-332.91 137.69,-323.11 130.7,-322.74"/>
</a>
</g>
</g>
<!-- Node27 -->
<g id="Node000027" class="node">
<title>Node27</title>
<g id="a_Node000027"><a xlink:href="class_stored_binary_values.html" target="_top" xlink:title=" ">
<polygon fill="white" stroke="#bfbfbf" points="316,-130 204,-130 204,-111 316,-111 316,-130"/>
<text text-anchor="middle" x="260" y="-118" font-family="Helvetica,sans-Serif" font-size="10.00">StoredBinaryValues</text>
</a>
</g>
</g>
<!-- Node1&#45;&gt;Node27 -->
<g id="edge26_Node000001_Node000027" class="edge">
<title>Node1&#45;&gt;Node27</title>
<g id="a_edge26_Node000001_Node000027"><a xlink:title=" ">
<path fill="none" stroke="#63b8ff" d="M132.78,-322.52C132.45,-281.86 137.75,-189.04 189,-138.5 193.29,-134.27 198.43,-130.99 203.95,-128.46"/>
<polygon fill="#63b8ff" stroke="#63b8ff" points="129.28,-322.82 132.99,-332.74 136.28,-322.67 129.28,-322.82"/>
</a>
</g>
</g>
<!-- Node28 -->
<g id="Node000028" class="node">
<title>Node28</title>
<g id="a_Node000028"><a xlink:href="class_strings.html" target="_top" xlink:title=" ">
<polygon fill="white" stroke="#bfbfbf" points="285,-93 235,-93 235,-74 285,-74 285,-93"/>
<text text-anchor="middle" x="260" y="-81" font-family="Helvetica,sans-Serif" font-size="10.00">Strings</text>
</a>
</g>
</g>
<!-- Node1&#45;&gt;Node28 -->
<g id="edge27_Node000001_Node000028" class="edge">
<title>Node1&#45;&gt;Node28</title>
<g id="a_edge27_Node000001_Node000028"><a xlink:title=" ">
<path fill="none" stroke="#63b8ff" d="M135.42,-322.78C140.86,-271.06 158,-133.3 189,-101.5 200.83,-89.37 219.65,-85.03 234.79,-83.63"/>
<polygon fill="#63b8ff" stroke="#63b8ff" points="131.92,-322.65 134.39,-332.96 138.88,-323.36 131.92,-322.65"/>
</a>
</g>
</g>
<!-- Node29 -->
<g id="Node000029" class="node">
<title>Node29</title>
<g id="a_Node000029"><a xlink:href="class_threading.html" target="_top" xlink:title=" ">
<polygon fill="white" stroke="#bfbfbf" points="292.5,-56 227.5,-56 227.5,-37 292.5,-37 292.5,-56"/>
<text text-anchor="middle" x="260" y="-44" font-family="Helvetica,sans-Serif" font-size="10.00">Threading</text>
</a>
</g>
</g>
<!-- Node1&#45;&gt;Node29 -->
<g id="edge28_Node000001_Node000029" class="edge">
<title>Node1&#45;&gt;Node29</title>
<g id="a_edge28_Node000001_Node000029"><a xlink:title=" ">
<path fill="none" stroke="#63b8ff" d="M134.79,-322.46C138.88,-265.1 153.47,-102.03 189,-64.5 198.83,-54.11 213.79,-49.41 227.36,-47.38"/>
<polygon fill="#63b8ff" stroke="#63b8ff" points="131.28,-322.52 134.09,-332.73 138.26,-322.99 131.28,-322.52"/>
</a>
</g>
</g>
<!-- Node30 -->
<g id="Node000030" class="node">
<title>Node30</title>
<g id="a_Node000030"><a xlink:href="class_value_tests.html" target="_top" xlink:title="Value test class used to test the functionality of Value.cpp.">
<polygon fill="white" stroke="#666666" points="294,-19 226,-19 226,0 294,0 294,-19"/>
<text text-anchor="middle" x="260" y="-7" font-family="Helvetica,sans-Serif" font-size="10.00">ValueTests</text>
</a>
</g>
</g>
<!-- Node1&#45;&gt;Node30 -->
<g id="edge29_Node000001_Node000030" class="edge">
<title>Node1&#45;&gt;Node30</title>
<g id="a_edge29_Node000001_Node000030"><a xlink:title=" ">
<path fill="none" stroke="#63b8ff" d="M134.26,-322.7C137.06,-260.55 148.79,-70.95 189,-27.5 198.38,-17.37 212.62,-12.62 225.81,-10.5"/>
<polygon fill="#63b8ff" stroke="#63b8ff" points="130.76,-322.62 133.84,-332.75 137.76,-322.91 130.76,-322.62"/>
</a>
</g>
</g>
<!-- Node2 -->
<g id="Node000002" class="node">
<title>Node2</title>
<g id="a_Node000002"><a xlink:title=" ">
<polygon fill="white" stroke="#bfbfbf" points="76,-352 0,-352 0,-333 76,-333 76,-352"/>
<text text-anchor="middle" x="38" y="-340" font-family="Helvetica,sans-Serif" font-size="10.00">testing::Test</text>
</a>
</g>
</g>
<!-- Node2&#45;&gt;Node1 -->
<g id="edge1_Node000001_Node000002" class="edge">
<title>Node2&#45;&gt;Node1</title>
<g id="a_edge1_Node000001_Node000002"><a xlink:title=" ">
<path fill="none" stroke="#63b8ff" d="M86.28,-342.5C95.35,-342.5 104.36,-342.5 111.93,-342.5"/>
<polygon fill="#63b8ff" stroke="#63b8ff" points="86.09,-339 76.09,-342.5 86.09,-346 86.09,-339"/>
</a>
</g>
</g>
<!-- Node5 -->
<g id="Node000005" class="node">
<title>Node5</title>
<g id="a_Node000005"><a xlink:href="class_collection_test_file.html" target="_top" xlink:title=" ">
<polygon fill="white" stroke="#bfbfbf" points="489.5,-681 387.5,-681 387.5,-662 489.5,-662 489.5,-681"/>
<text text-anchor="middle" x="438.5" y="-669" font-family="Helvetica,sans-Serif" font-size="10.00">CollectionTestFile</text>
</a>
</g>
</g>
<!-- Node4&#45;&gt;Node5 -->
<g id="edge4_Node000004_Node000005" class="edge">
<title>Node4&#45;&gt;Node5</title>
<g id="a_edge4_Node000004_Node000005"><a xlink:title=" ">
<path fill="none" stroke="#63b8ff" d="M312.97,-656.68C336.51,-659.48 364.2,-662.78 387.5,-665.55"/>
<polygon fill="#63b8ff" stroke="#63b8ff" points="313.17,-653.18 302.83,-655.48 312.34,-660.13 313.17,-653.18"/>
</a>
</g>
</g>
<!-- Node8 -->
<g id="Node000008" class="node">
<title>Node8</title>
<g id="a_Node000008"><a xlink:href="class_collection_test_memory.html" target="_top" xlink:title=" ">
<polygon fill="white" stroke="#bfbfbf" points="501,-644 376,-644 376,-625 501,-625 501,-644"/>
<text text-anchor="middle" x="438.5" y="-632" font-family="Helvetica,sans-Serif" font-size="10.00">CollectionTestMemory</text>
</a>
</g>
</g>
<!-- Node4&#45;&gt;Node8 -->
<g id="edge7_Node000004_Node000008" class="edge">
<title>Node4&#45;&gt;Node8</title>
<g id="a_edge7_Node000004_Node000008"><a xlink:title=" ">
<path fill="none" stroke="#63b8ff" d="M312.87,-645.8C332.63,-644.01 355.34,-641.95 375.91,-640.08"/>
<polygon fill="#63b8ff" stroke="#63b8ff" points="312.47,-642.32 302.83,-646.71 313.1,-649.29 312.47,-642.32"/>
</a>
</g>
</g>
<!-- Node6 -->
<g id="Node000006" class="node">
<title>Node6</title>
<g id="a_Node000006"><a xlink:href="class_collection_test_file_fixed.html" target="_top" xlink:title=" ">
<polygon fill="white" stroke="#bfbfbf" points="692.5,-718 564.5,-718 564.5,-699 692.5,-699 692.5,-718"/>
<text text-anchor="middle" x="628.5" y="-706" font-family="Helvetica,sans-Serif" font-size="10.00">CollectionTestFileFixed</text>
</a>
</g>
</g>
<!-- Node5&#45;&gt;Node6 -->
<g id="edge5_Node000005_Node000006" class="edge">
<title>Node5&#45;&gt;Node6</title>
<g id="a_edge5_Node000005_Node000006"><a xlink:title=" ">
<path fill="none" stroke="#63b8ff" d="M498.01,-683.02C524,-688.13 554.22,-694.08 578.92,-698.94"/>
<polygon fill="#63b8ff" stroke="#63b8ff" points="498.4,-679.53 487.91,-681.03 497.05,-686.39 498.4,-679.53"/>
</a>
</g>
</g>
<!-- Node7 -->
<g id="Node000007" class="node">
<title>Node7</title>
<g id="a_Node000007"><a xlink:href="class_collection_test_file_variable.html" target="_top" xlink:title=" ">
<polygon fill="white" stroke="#bfbfbf" points="699.5,-681 557.5,-681 557.5,-662 699.5,-662 699.5,-681"/>
<text text-anchor="middle" x="628.5" y="-669" font-family="Helvetica,sans-Serif" font-size="10.00">CollectionTestFileVariable</text>
</a>
</g>
</g>
<!-- Node5&#45;&gt;Node7 -->
<g id="edge6_Node000005_Node000007" class="edge">
<title>Node5&#45;&gt;Node7</title>
<g id="a_edge6_Node000005_Node000007"><a xlink:title=" ">
<path fill="none" stroke="#63b8ff" d="M500.07,-671.5C518.27,-671.5 538.41,-671.5 557.19,-671.5"/>
<polygon fill="#63b8ff" stroke="#63b8ff" points="499.88,-668 489.88,-671.5 499.88,-675 499.88,-668"/>
</a>
</g>
</g>
<!-- Node9 -->
<g id="Node000009" class="node">
<title>Node9</title>
<g id="a_Node000009"><a xlink:href="class_collection_test_memory_fixed.html" target="_top" xlink:title=" ">
<polygon fill="white" stroke="#bfbfbf" points="704,-644 553,-644 553,-625 704,-625 704,-644"/>
<text text-anchor="middle" x="628.5" y="-632" font-family="Helvetica,sans-Serif" font-size="10.00">CollectionTestMemoryFixed</text>
</a>
</g>
</g>
<!-- Node8&#45;&gt;Node9 -->
<g id="edge8_Node000008_Node000009" class="edge">
<title>Node8&#45;&gt;Node9</title>
<g id="a_edge8_Node000008_Node000009"><a xlink:title=" ">
<path fill="none" stroke="#63b8ff" d="M511.28,-634.5C524.83,-634.5 539.04,-634.5 552.68,-634.5"/>
<polygon fill="#63b8ff" stroke="#63b8ff" points="511.06,-631 501.06,-634.5 511.06,-638 511.06,-631"/>
</a>
</g>
</g>
<!-- Node10 -->
<g id="Node000010" class="node">
<title>Node10</title>
<g id="a_Node000010"><a xlink:href="class_collection_test_memory_variable.html" target="_top" xlink:title=" ">
<polygon fill="white" stroke="#bfbfbf" points="711,-607 546,-607 546,-588 711,-588 711,-607"/>
<text text-anchor="middle" x="628.5" y="-595" font-family="Helvetica,sans-Serif" font-size="10.00">CollectionTestMemoryVariable</text>
</a>
</g>
</g>
<!-- Node8&#45;&gt;Node10 -->
<g id="edge9_Node000008_Node000010" class="edge">
<title>Node8&#45;&gt;Node10</title>
<g id="a_edge9_Node000008_Node000010"><a xlink:title=" ">
<path fill="none" stroke="#63b8ff" d="M498.01,-622.98C524,-617.87 554.22,-611.92 578.92,-607.06"/>
<polygon fill="#63b8ff" stroke="#63b8ff" points="497.05,-619.61 487.91,-624.97 498.4,-626.47 497.05,-619.61"/>
</a>
</g>
</g>
<!-- Node14 -->
<g id="Node000014" class="node">
<title>Node14</title>
<g id="a_Node000014"><a xlink:href="class_evidence_with_headers_test___multiple_headers.html" target="_top" xlink:title=" ">
<polygon fill="white" stroke="#bfbfbf" points="510,-590.5 367,-590.5 367,-560.5 510,-560.5 510,-590.5"/>
<text text-anchor="start" x="375" y="-578.5" font-family="Helvetica,sans-Serif" font-size="10.00">EvidenceWithHeadersTest</text>
<text text-anchor="middle" x="438.5" y="-567.5" font-family="Helvetica,sans-Serif" font-size="10.00">_MultipleHeaders</text>
</a>
</g>
</g>
<!-- Node13&#45;&gt;Node14 -->
<g id="edge13_Node000013_Node000014" class="edge">
<title>Node13&#45;&gt;Node14</title>
<g id="a_edge13_Node000013_Node000014"><a xlink:title=" ">
<path fill="none" stroke="#63b8ff" d="M300.38,-537.46C310.38,-540.03 321.09,-542.83 331,-545.5 348.62,-550.25 367.83,-555.6 385.02,-560.46"/>
<polygon fill="#63b8ff" stroke="#63b8ff" points="301.23,-534.06 290.67,-534.97 299.49,-540.84 301.23,-534.06"/>
</a>
</g>
</g>
<!-- Node15 -->
<g id="Node000015" class="node">
<title>Node15</title>
<g id="a_Node000015"><a xlink:href="class_evidence_with_headers_test___no_header.html" target="_top" xlink:title=" ">
<polygon fill="white" stroke="#bfbfbf" points="510,-542.5 367,-542.5 367,-512.5 510,-512.5 510,-542.5"/>
<text text-anchor="start" x="375" y="-530.5" font-family="Helvetica,sans-Serif" font-size="10.00">EvidenceWithHeadersTest</text>
<text text-anchor="middle" x="438.5" y="-519.5" font-family="Helvetica,sans-Serif" font-size="10.00">_NoHeader</text>
</a>
</g>
</g>
<!-- Node13&#45;&gt;Node15 -->
<g id="edge14_Node000013_Node000015" class="edge">
<title>Node13&#45;&gt;Node15</title>
<g id="a_edge14_Node000013_Node000015"><a xlink:title=" ">
<path fill="none" stroke="#63b8ff" d="M300.57,-527.5C320.06,-527.5 344.17,-527.5 366.69,-527.5"/>
<polygon fill="#63b8ff" stroke="#63b8ff" points="300.54,-524 290.54,-527.5 300.54,-531 300.54,-524"/>
</a>
</g>
</g>
<!-- Node16 -->
<g id="Node000016" class="node">
<title>Node16</title>
<g id="a_Node000016"><a xlink:href="class_evidence_with_headers_test___single_header.html" target="_top" xlink:title=" ">
<polygon fill="white" stroke="#bfbfbf" points="510,-494.5 367,-494.5 367,-464.5 510,-464.5 510,-494.5"/>
<text text-anchor="start" x="375" y="-482.5" font-family="Helvetica,sans-Serif" font-size="10.00">EvidenceWithHeadersTest</text>
<text text-anchor="middle" x="438.5" y="-471.5" font-family="Helvetica,sans-Serif" font-size="10.00">_SingleHeader</text>
</a>
</g>
</g>
<!-- Node13&#45;&gt;Node16 -->
<g id="edge15_Node000013_Node000016" class="edge">
<title>Node13&#45;&gt;Node16</title>
<g id="a_edge15_Node000013_Node000016"><a xlink:title=" ">
<path fill="none" stroke="#63b8ff" d="M300.34,-516.83C310.34,-514.11 321.07,-511.2 331,-508.5 347.64,-503.98 365.75,-499.05 382.23,-494.56"/>
<polygon fill="#63b8ff" stroke="#63b8ff" points="299.37,-513.47 290.63,-519.46 301.2,-520.22 299.37,-513.47"/>
</a>
</g>
</g>
</g>
</svg>
