<?xml version="1.0" encoding="UTF-8" standalone="no"?>
<!DOCTYPE svg PUBLIC "-//W3C//DTD SVG 1.1//EN"
 "http://www.w3.org/Graphics/SVG/1.1/DTD/svg11.dtd">
<!-- Generated by graphviz version 2.43.0 (0)
 -->
<!-- Title: JsonTests Pages: 1 -->
<svg width="735pt" height="351pt"
 viewBox="0.00 0.00 735.00 350.72" xmlns="http://www.w3.org/2000/svg" xmlns:xlink="http://www.w3.org/1999/xlink">
<g id="graph0" class="graph" transform="scale(1 1) rotate(0) translate(4 346.72)">
<title>JsonTests</title>
<!-- Node1 -->
<g id="Node000001" class="node">
<title>Node1</title>
<g id="a_Node000001"><a xlink:title=" ">
<polygon fill="#999999" stroke="#666666" points="727,-237 665,-237 665,-218 727,-218 727,-237"/>
<text text-anchor="middle" x="696" y="-225" font-family="Helvetica,sans-Serif" font-size="10.00">JsonTests</text>
</a>
</g>
</g>
<!-- Node2 -->
<g id="Node000002" class="node">
<title>Node2</title>
<g id="a_Node000002"><a xlink:href="class_base.html" target="_top" xlink:title="Base test class used to carry out memory leak checks.">
<polygon fill="white" stroke="#666666" points="430,-339 389,-339 389,-320 430,-320 430,-339"/>
<text text-anchor="middle" x="409.5" y="-327" font-family="Helvetica,sans-Serif" font-size="10.00">Base</text>
</a>
</g>
</g>
<!-- Node2&#45;&gt;Node1 -->
<g id="edge1_Node000001_Node000002" class="edge">
<title>Node2&#45;&gt;Node1</title>
<g id="a_edge1_Node000001_Node000002"><a xlink:title=" ">
<path fill="none" stroke="#63b8ff" d="M440.12,-335.51C487.77,-343.48 582.61,-352.21 647,-311.5 674.4,-294.18 687.77,-255.23 692.69,-237.11"/>
<polygon fill="#63b8ff" stroke="#63b8ff" points="440.61,-332.04 430.15,-333.73 439.38,-338.93 440.61,-332.04"/>
</a>
</g>
</g>
<!-- Node3 -->
<g id="Node000003" class="node">
<title>Node3</title>
<g id="a_Node000003"><a xlink:title=" ">
<polygon fill="white" stroke="#bfbfbf" points="109.5,-339 33.5,-339 33.5,-320 109.5,-320 109.5,-339"/>
<text text-anchor="middle" x="71.5" y="-327" font-family="Helvetica,sans-Serif" font-size="10.00">testing::Test</text>
</a>
</g>
</g>
<!-- Node3&#45;&gt;Node2 -->
<g id="edge2_Node000002_Node000003" class="edge">
<title>Node3&#45;&gt;Node2</title>
<g id="a_edge2_Node000002_Node000003"><a xlink:title=" ">
<path fill="none" stroke="#63b8ff" d="M119.82,-329.5C194.57,-329.5 336.81,-329.5 388.82,-329.5"/>
<polygon fill="#63b8ff" stroke="#63b8ff" points="119.74,-326 109.74,-329.5 119.74,-333 119.74,-326"/>
</a>
</g>
</g>
<!-- Node4 -->
<g id="Node000004" class="node">
<title>Node4</title>
<g id="a_Node000004"><a xlink:href="class_string_collection.html" target="_top" xlink:title="String collection helper class, used by test classes to fetch.">
<polygon fill="white" stroke="#666666" points="456.5,-302 362.5,-302 362.5,-283 456.5,-283 456.5,-302"/>
<text text-anchor="middle" x="409.5" y="-290" font-family="Helvetica,sans-Serif" font-size="10.00">StringCollection</text>
</a>
</g>
</g>
<!-- Node4&#45;&gt;Node1 -->
<g id="edge3_Node000001_Node000004" class="edge">
<title>Node4&#45;&gt;Node1</title>
<g id="a_edge3_Node000001_Node000004"><a xlink:title=" ">
<path fill="none" stroke="#9a32cd" stroke-dasharray="5,2" d="M466.76,-293.17C515.95,-291.96 588.47,-285.75 647,-262.5 661.57,-256.71 675.76,-245.46 684.88,-237.27"/>
<polygon fill="#9a32cd" stroke="#9a32cd" points="466.57,-289.67 456.63,-293.36 466.7,-296.67 466.57,-289.67"/>
</a>
</g>
<text text-anchor="start" x="521.5" y="-296" font-family="Helvetica,sans-Serif" font-size="10.00" fill="grey">stringsCollectionHelper</text>
</g>
<!-- Node5 -->
<g id="Node000005" class="node">
<title>Node5</title>
<g id="a_Node000005"><a xlink:href="class_fixed_size_collection.html" target="_top" xlink:title=" ">
<polygon fill="white" stroke="#666666" points="488.5,-264.5 330.5,-264.5 330.5,-234.5 488.5,-234.5 488.5,-264.5"/>
<text text-anchor="start" x="338.5" y="-252.5" font-family="Helvetica,sans-Serif" font-size="10.00">FixedSizeCollection</text>
<text text-anchor="middle" x="409.5" y="-241.5" font-family="Helvetica,sans-Serif" font-size="10.00">&lt; fiftyoneDegreesProperty &gt;</text>
</a>
</g>
</g>
<!-- Node5&#45;&gt;Node1 -->
<g id="edge4_Node000001_Node000005" class="edge">
<title>Node5&#45;&gt;Node1</title>
<g id="a_edge4_Node000001_Node000005"><a xlink:title=" ">
<path fill="none" stroke="#9a32cd" stroke-dasharray="5,2" d="M498.68,-242.68C555.39,-238.3 625.57,-232.87 664.81,-229.83"/>
<polygon fill="#9a32cd" stroke="#9a32cd" points="498.32,-239.2 488.62,-243.46 498.86,-246.18 498.32,-239.2"/>
</a>
</g>
<text text-anchor="start" x="513.5" y="-247" font-family="Helvetica,sans-Serif" font-size="10.00" fill="grey">propertiesCollectionHelper</text>
</g>
<!-- Node6 -->
<g id="Node000006" class="node">
<title>Node6</title>
<g id="a_Node000006"><a xlink:href="class_fixed_size_collection.html" target="_top" xlink:title="Fixed size object collection helper class, used by test classes to fetch.">
<polygon fill="white" stroke="#666666" points="141.5,-235 1.5,-235 1.5,-216 141.5,-216 141.5,-235"/>
<text text-anchor="middle" x="71.5" y="-223" font-family="Helvetica,sans-Serif" font-size="10.00">FixedSizeCollection&lt; T &gt;</text>
</a>
</g>
</g>
<!-- Node6&#45;&gt;Node5 -->
<g id="edge5_Node000005_Node000006" class="edge">
<title>Node6&#45;&gt;Node5</title>
<g id="a_edge5_Node000005_Node000006"><a xlink:title=" ">
<path fill="none" stroke="orange" stroke-dasharray="5,2" d="M151.9,-231.17C205.77,-235.02 276.65,-240.08 330.26,-243.91"/>
<polygon fill="orange" stroke="orange" points="151.94,-227.67 141.71,-230.44 151.44,-234.65 151.94,-227.67"/>
</a>
</g>
<text text-anchor="start" x="164" y="-247" font-family="Helvetica,sans-Serif" font-size="10.00" fill="grey">&lt; fiftyoneDegreesProperty &gt;</text>
</g>
<!-- Node7 -->
<g id="Node000007" class="node">
<title>Node7</title>
<g id="a_Node000007"><a xlink:href="class_fixed_size_collection.html" target="_top" xlink:title=" ">
<polygon fill="white" stroke="#666666" points="481,-216.5 338,-216.5 338,-186.5 481,-186.5 481,-216.5"/>
<text text-anchor="start" x="346" y="-204.5" font-family="Helvetica,sans-Serif" font-size="10.00">FixedSizeCollection</text>
<text text-anchor="middle" x="409.5" y="-193.5" font-family="Helvetica,sans-Serif" font-size="10.00">&lt; fiftyoneDegreesValue &gt;</text>
</a>
</g>
</g>
<!-- Node6&#45;&gt;Node7 -->
<g id="edge7_Node000007_Node000006" class="edge">
<title>Node6&#45;&gt;Node7</title>
<g id="a_edge7_Node000007_Node000006"><a xlink:title=" ">
<path fill="none" stroke="orange" stroke-dasharray="5,2" d="M131.93,-214.33C141.61,-212.82 151.57,-211.47 161,-210.5 220.45,-204.41 288.31,-202.28 337.92,-201.6"/>
<polygon fill="orange" stroke="orange" points="131.27,-210.89 121.96,-215.94 132.39,-217.8 131.27,-210.89"/>
</a>
</g>
<text text-anchor="start" x="172" y="-216" font-family="Helvetica,sans-Serif" font-size="10.00" fill="grey">&lt; fiftyoneDegreesValue &gt;</text>
</g>
<!-- Node7&#45;&gt;Node1 -->
<g id="edge6_Node000001_Node000007" class="edge">
<title>Node7&#45;&gt;Node1</title>
<g id="a_edge6_Node000001_Node000007"><a xlink:title=" ">
<path fill="none" stroke="#9a32cd" stroke-dasharray="5,2" d="M491.45,-198.57C537.45,-198.41 595.88,-200.71 647,-210.5 655.51,-212.13 664.54,-215 672.44,-217.93"/>
<polygon fill="#9a32cd" stroke="#9a32cd" points="491.21,-195.08 481.24,-198.65 491.27,-202.08 491.21,-195.08"/>
</a>
</g>
<text text-anchor="start" x="521.5" y="-216" font-family="Helvetica,sans-Serif" font-size="10.00" fill="grey">valuesCollectionHelper</text>
</g>
<!-- Node8 -->
<g id="Node000008" class="node">
<title>Node8</title>
<g id="a_Node000008"><a xlink:href="structfiftyone_degrees_collection.html" target="_top" xlink:title="All the shared methods and fields required by file, memory and cached collections.">
<polygon fill="white" stroke="#666666" points="143,-99 0,-99 0,-80 143,-80 143,-99"/>
<text text-anchor="middle" x="71.5" y="-87" font-family="Helvetica,sans-Serif" font-size="10.00">fiftyoneDegreesCollection</text>
</a>
</g>
</g>
<!-- Node8&#45;&gt;Node1 -->
<g id="edge8_Node000001_Node000008" class="edge">
<title>Node8&#45;&gt;Node1</title>
<g id="a_edge8_Node000001_Node000008"><a xlink:title=" ">
<path fill="none" stroke="#9a32cd" stroke-dasharray="5,2" d="M144.12,-100.4C149.82,-101.15 155.5,-101.86 161,-102.5 307.66,-119.46 348.52,-95.7 492,-130.5 564.43,-148.07 581.48,-158.97 647,-194.5 659.62,-201.35 673.01,-210.75 682.43,-217.77"/>
<polygon fill="#9a32cd" stroke="#9a32cd" points="144.23,-96.89 133.85,-99.01 143.29,-103.82 144.23,-96.89"/>
</a>
</g>
<text text-anchor="start" x="360.5" y="-166" font-family="Helvetica,sans-Serif" font-size="10.00" fill="grey">propertiesCollection</text>
<text text-anchor="start" x="360.5" y="-151" font-family="Helvetica,sans-Serif" font-size="10.00" fill="grey">stringsCollection</text>
<text text-anchor="start" x="360.5" y="-136" font-family="Helvetica,sans-Serif" font-size="10.00" fill="grey">valuesCollection</text>
</g>
<!-- Node8&#45;&gt;Node8 -->
<g id="edge9_Node000008_Node000008" class="edge">
<title>Node8&#45;&gt;Node8</title>
<g id="a_edge9_Node000008_Node000008"><a xlink:title=" ">
<path fill="none" stroke="#9a32cd" stroke-dasharray="5,2" d="M41.26,-107.82C42.52,-113.01 52.6,-117 71.5,-117 100.29,-117 108.62,-107.73 96.47,-99.08"/>
<polygon fill="#9a32cd" stroke="#9a32cd" points="44.36,-109.45 46.53,-99.08 38.37,-105.84 44.36,-109.45"/>
</a>
</g>
<text text-anchor="start" x="37.5" y="-138" font-family="Helvetica,sans-Serif" font-size="10.00" fill="grey">freeCollection</text>
<text text-anchor="start" x="37.5" y="-123" font-family="Helvetica,sans-Serif" font-size="10.00" fill="grey">get</text>
</g>
<!-- Node9 -->
<g id="Node000009" class="node">
<title>Node9</title>
<g id="a_Node000009"><a xlink:href="structfiftyone_degrees_collection_item.html" target="_top" xlink:title="Used to store a handle to the underlying item that could be used to release the item when it&#39;s finish...">
<polygon fill="white" stroke="#666666" points="492,-72 327,-72 327,-53 492,-53 492,-72"/>
<text text-anchor="middle" x="409.5" y="-60" font-family="Helvetica,sans-Serif" font-size="10.00">fiftyoneDegreesCollectionItem</text>
</a>
</g>
</g>
<!-- Node8&#45;&gt;Node9 -->
<g id="edge12_Node000009_Node000008" class="edge">
<title>Node8&#45;&gt;Node9</title>
<g id="a_edge12_Node000009_Node000008"><a xlink:title=" ">
<path fill="none" stroke="#9a32cd" stroke-dasharray="5,2" d="M153.63,-82.98C206.12,-78.76 274.21,-73.29 326.81,-69.06"/>
<polygon fill="#9a32cd" stroke="#9a32cd" points="153.03,-79.52 143.35,-83.81 153.59,-86.49 153.03,-79.52"/>
</a>
</g>
<text text-anchor="start" x="211" y="-87" font-family="Helvetica,sans-Serif" font-size="10.00" fill="grey">collection</text>
</g>
<!-- Node9&#45;&gt;Node1 -->
<g id="edge13_Node000001_Node000009" class="edge">
<title>Node9&#45;&gt;Node1</title>
<g id="a_edge13_Node000001_Node000009"><a xlink:title=" ">
<path fill="none" stroke="#9a32cd" stroke-dasharray="5,2" d="M483.42,-52.29C534.53,-49.25 601.56,-54.07 647,-90.5 687.7,-123.13 693.96,-192.57 694.87,-217.95"/>
<polygon fill="#9a32cd" stroke="#9a32cd" points="483.15,-48.8 473.42,-52.99 483.64,-55.78 483.15,-48.8"/>
</a>
</g>
<text text-anchor="start" x="567.5" y="-96" font-family="Helvetica,sans-Serif" font-size="10.00" fill="grey">item</text>
</g>
<!-- Node9&#45;&gt;Node8 -->
<g id="edge10_Node000008_Node000009" class="edge">
<title>Node9&#45;&gt;Node8</title>
<g id="a_edge10_Node000008_Node000009"><a xlink:title=" ">
<path fill="none" stroke="#9a32cd" stroke-dasharray="5,2" d="M349.92,-51.36C299.34,-43.7 224.6,-37.11 161,-50.5 134.38,-56.1 106.01,-70.23 88.77,-79.85"/>
<polygon fill="#9a32cd" stroke="#9a32cd" points="349.59,-54.85 360.01,-52.95 350.68,-47.94 349.59,-54.85"/>
</a>
</g>
<text text-anchor="start" x="217" y="-56" font-family="Helvetica,sans-Serif" font-size="10.00" fill="grey">release</text>
</g>
<!-- Node10 -->
<g id="Node000010" class="node">
<title>Node10</title>
<g id="a_Node000010"><a xlink:href="structfiftyone_degrees_data.html" target="_top" xlink:title="Data structure used for reusing memory which may have been allocated in a previous operation.">
<polygon fill="white" stroke="#666666" points="130,-19 13,-19 13,0 130,0 130,-19"/>
<text text-anchor="middle" x="71.5" y="-7" font-family="Helvetica,sans-Serif" font-size="10.00">fiftyoneDegreesData</text>
</a>
</g>
</g>
<!-- Node10&#45;&gt;Node9 -->
<g id="edge11_Node000009_Node000010" class="edge">
<title>Node10&#45;&gt;Node9</title>
<g id="a_edge11_Node000009_Node000010"><a xlink:title=" ">
<path fill="none" stroke="#9a32cd" stroke-dasharray="5,2" d="M140.29,-7.4C188.01,-7.33 253.09,-10.08 309,-22.5 338.44,-29.04 370.47,-43.32 390.02,-52.93"/>
<polygon fill="#9a32cd" stroke="#9a32cd" points="140.06,-3.9 130.08,-7.46 140.1,-10.9 140.06,-3.9"/>
</a>
</g>
<text text-anchor="start" x="224" y="-28" font-family="Helvetica,sans-Serif" font-size="10.00" fill="grey">data</text>
</g>
</g>
</svg>
