<?xml version="1.0" encoding="UTF-8" standalone="no"?>
<!DOCTYPE svg PUBLIC "-//W3C//DTD SVG 1.1//EN"
 "http://www.w3.org/Graphics/SVG/1.1/DTD/svg11.dtd">
<!-- Generated by graphviz version 2.43.0 (0)
 -->
<!-- Title: HeadersContainer Pages: 1 -->
<svg width="437pt" height="110pt"
 viewBox="0.00 0.00 436.50 110.00" xmlns="http://www.w3.org/2000/svg" xmlns:xlink="http://www.w3.org/1999/xlink">
<g id="graph0" class="graph" transform="scale(1 1) rotate(0) translate(4 106)">
<title>HeadersContainer</title>
<!-- Node1 -->
<g id="Node000001" class="node">
<title>Node1</title>
<g id="a_Node000001"><a xlink:title=" ">
<polygon fill="#999999" stroke="#666666" points="296.5,-19 192.5,-19 192.5,0 296.5,0 296.5,-19"/>
<text text-anchor="middle" x="244.5" y="-7" font-family="Helvetica,sans-Serif" font-size="10.00">HeadersContainer</text>
</a>
</g>
</g>
<!-- Node2 -->
<g id="Node000002" class="node">
<title>Node2</title>
<g id="a_Node000002"><a xlink:href="structfiftyone_degrees_header_array.html" target="_top" xlink:title="Array of Headers which should always be ordered in ascending order of fullHeaderId.">
<polygon fill="white" stroke="#666666" points="155,-96.5 0,-96.5 0,-77.5 155,-77.5 155,-96.5"/>
<text text-anchor="middle" x="77.5" y="-84.5" font-family="Helvetica,sans-Serif" font-size="10.00">fiftyoneDegreesHeaderArray</text>
</a>
</g>
</g>
<!-- Node2&#45;&gt;Node1 -->
<g id="edge1_Node000001_Node000002" class="edge">
<title>Node2&#45;&gt;Node1</title>
<g id="a_edge1_Node000001_Node000002"><a xlink:title=" ">
<path fill="none" stroke="#9a32cd" stroke-dasharray="5,2" d="M105.72,-73.24C139.8,-57.83 196.17,-32.35 225.48,-19.1"/>
<polygon fill="#9a32cd" stroke="#9a32cd" points="104,-70.18 96.33,-77.49 106.89,-76.56 104,-70.18"/>
</a>
</g>
<text text-anchor="start" x="189.5" y="-42.5" font-family="Helvetica,sans-Serif" font-size="10.00" fill="grey">headers</text>
</g>
<!-- Node3 -->
<g id="Node000003" class="node">
<title>Node3</title>
<g id="a_Node000003"><a xlink:href="structfiftyone_degrees_header_ptr_array.html" target="_top" xlink:title="Array of header indexes.">
<polygon fill="white" stroke="#666666" points="316,-102 173,-102 173,-72 316,-72 316,-102"/>
<text text-anchor="start" x="181" y="-90" font-family="Helvetica,sans-Serif" font-size="10.00">fiftyoneDegreesHeaderPtr</text>
<text text-anchor="middle" x="244.5" y="-79" font-family="Helvetica,sans-Serif" font-size="10.00">Array</text>
</a>
</g>
</g>
<!-- Node3&#45;&gt;Node1 -->
<g id="edge2_Node000001_Node000003" class="edge">
<title>Node3&#45;&gt;Node1</title>
<g id="a_edge2_Node000001_Node000003"><a xlink:title=" ">
<path fill="none" stroke="#9a32cd" stroke-dasharray="5,2" d="M244.5,-61.4C244.5,-46.81 244.5,-29.22 244.5,-19.01"/>
<polygon fill="#9a32cd" stroke="#9a32cd" points="241,-61.8 244.5,-71.8 248,-61.8 241,-61.8"/>
</a>
</g>
<text text-anchor="start" x="247.5" y="-42.5" font-family="Helvetica,sans-Serif" font-size="10.00" fill="grey">headerPointers</text>
</g>
<!-- Node4 -->
<g id="Node000004" class="node">
<title>Node4</title>
<g id="a_Node000004"><a xlink:href="class_string_collection.html" target="_top" xlink:title="String collection helper class, used by test classes to fetch.">
<polygon fill="white" stroke="#666666" points="428.5,-96.5 334.5,-96.5 334.5,-77.5 428.5,-77.5 428.5,-96.5"/>
<text text-anchor="middle" x="381.5" y="-84.5" font-family="Helvetica,sans-Serif" font-size="10.00">StringCollection</text>
</a>
</g>
</g>
<!-- Node4&#45;&gt;Node1 -->
<g id="edge3_Node000001_Node000004" class="edge">
<title>Node4&#45;&gt;Node1</title>
<g id="a_edge3_Node000001_Node000004"><a xlink:title=" ">
<path fill="none" stroke="#9a32cd" stroke-dasharray="5,2" d="M367.43,-69.68C357.5,-59.06 343.35,-45.62 328.5,-37 314.88,-29.09 298.62,-23.26 284.05,-19.11"/>
<polygon fill="#9a32cd" stroke="#9a32cd" points="364.85,-72.05 374.15,-77.13 370.05,-67.36 364.85,-72.05"/>
</a>
</g>
<text text-anchor="start" x="353.5" y="-42.5" font-family="Helvetica,sans-Serif" font-size="10.00" fill="grey">strings</text>
</g>
</g>
</svg>
