<?xml version="1.0" encoding="UTF-8" standalone="no"?>
<!DOCTYPE svg PUBLIC "-//W3C//DTD SVG 1.1//EN"
 "http://www.w3.org/Graphics/SVG/1.1/DTD/svg11.dtd">
<!-- Generated by graphviz version 2.43.0 (0)
 -->
<!-- Title: FiftyoneDegrees::Common::EntityMetaDataBuilder Pages: 1 -->
<svg width="363pt" height="182pt"
 viewBox="0.00 0.00 363.00 182.00" xmlns="http://www.w3.org/2000/svg" xmlns:xlink="http://www.w3.org/1999/xlink">
<g id="graph0" class="graph" transform="scale(1 1) rotate(0) translate(4 178)">
<title>FiftyoneDegrees::Common::EntityMetaDataBuilder</title>
<!-- Node1 -->
<g id="Node000001" class="node">
<title>Node1</title>
<g id="a_Node000001"><a xlink:title="Meta data builder class contains static helper methods used when building meta data instances.">
<polygon fill="#999999" stroke="#666666" points="146,-102 0,-102 0,-72 146,-72 146,-102"/>
<text text-anchor="start" x="8" y="-90" font-family="Helvetica,sans-Serif" font-size="10.00">FiftyoneDegrees::Common</text>
<text text-anchor="middle" x="73" y="-79" font-family="Helvetica,sans-Serif" font-size="10.00">::EntityMetaDataBuilder</text>
</a>
</g>
</g>
<!-- Node2 -->
<g id="Node000002" class="node">
<title>Node2</title>
<g id="a_Node000002"><a xlink:href="class_fiftyone_degrees_1_1_ip_intelligence_1_1_component_meta_data_builder_ipi.html" target="_top" xlink:title="Meta data builder class contains static helper methods used when building component meta data instanc...">
<polygon fill="white" stroke="#666666" points="355,-174 182,-174 182,-144 355,-144 355,-174"/>
<text text-anchor="start" x="190" y="-162" font-family="Helvetica,sans-Serif" font-size="10.00">FiftyoneDegrees::IpIntelligence</text>
<text text-anchor="middle" x="268.5" y="-151" font-family="Helvetica,sans-Serif" font-size="10.00">::ComponentMetaDataBuilderIpi</text>
</a>
</g>
</g>
<!-- Node1&#45;&gt;Node2 -->
<g id="edge1_Node000001_Node000002" class="edge">
<title>Node1&#45;&gt;Node2</title>
<g id="a_edge1_Node000001_Node000002"><a xlink:title=" ">
<path fill="none" stroke="#8b1a1a" d="M113.88,-106.38C134.02,-115.74 159,-126.71 182,-135 190.85,-138.19 200.33,-141.22 209.65,-143.99"/>
<polygon fill="#8b1a1a" stroke="#8b1a1a" points="115.25,-103.16 104.71,-102.07 112.27,-109.49 115.25,-103.16"/>
</a>
</g>
</g>
<!-- Node3 -->
<g id="Node000003" class="node">
<title>Node3</title>
<g id="a_Node000003"><a xlink:href="class_fiftyone_degrees_1_1_ip_intelligence_1_1_profile_meta_data_builder_ipi.html" target="_top" xlink:title="Meta data builder class contains static helper methods used when building profile meta data instances...">
<polygon fill="white" stroke="#666666" points="352.5,-126 184.5,-126 184.5,-96 352.5,-96 352.5,-126"/>
<text text-anchor="start" x="192.5" y="-114" font-family="Helvetica,sans-Serif" font-size="10.00">FiftyoneDegrees::IpIntelligence</text>
<text text-anchor="middle" x="268.5" y="-103" font-family="Helvetica,sans-Serif" font-size="10.00">::ProfileMetaDataBuilderIpi</text>
</a>
</g>
</g>
<!-- Node1&#45;&gt;Node3 -->
<g id="edge2_Node000001_Node000003" class="edge">
<title>Node1&#45;&gt;Node3</title>
<g id="a_edge2_Node000001_Node000003"><a xlink:title=" ">
<path fill="none" stroke="#8b1a1a" d="M156.09,-97.18C165.43,-98.34 174.95,-99.52 184.3,-100.68"/>
<polygon fill="#8b1a1a" stroke="#8b1a1a" points="156.41,-93.69 146.05,-95.94 155.55,-100.64 156.41,-93.69"/>
</a>
</g>
</g>
<!-- Node4 -->
<g id="Node000004" class="node">
<title>Node4</title>
<g id="a_Node000004"><a xlink:href="class_fiftyone_degrees_1_1_ip_intelligence_1_1_property_meta_data_builder_ipi.html" target="_top" xlink:title="Meta data builder class contains static helper methods used when building property meta data instance...">
<polygon fill="white" stroke="#666666" points="352.5,-78 184.5,-78 184.5,-48 352.5,-48 352.5,-78"/>
<text text-anchor="start" x="192.5" y="-66" font-family="Helvetica,sans-Serif" font-size="10.00">FiftyoneDegrees::IpIntelligence</text>
<text text-anchor="middle" x="268.5" y="-55" font-family="Helvetica,sans-Serif" font-size="10.00">::PropertyMetaDataBuilderIpi</text>
</a>
</g>
</g>
<!-- Node1&#45;&gt;Node4 -->
<g id="edge3_Node000001_Node000004" class="edge">
<title>Node1&#45;&gt;Node4</title>
<g id="a_edge3_Node000001_Node000004"><a xlink:title=" ">
<path fill="none" stroke="#8b1a1a" d="M156.09,-76.82C165.43,-75.66 174.95,-74.48 184.3,-73.32"/>
<polygon fill="#8b1a1a" stroke="#8b1a1a" points="155.55,-73.36 146.05,-78.06 156.41,-80.31 155.55,-73.36"/>
</a>
</g>
</g>
<!-- Node5 -->
<g id="Node000005" class="node">
<title>Node5</title>
<g id="a_Node000005"><a xlink:href="class_fiftyone_degrees_1_1_ip_intelligence_1_1_value_meta_data_builder_ipi.html" target="_top" xlink:title="Meta data builder class contains static helper methods used when building value meta data instances f...">
<polygon fill="white" stroke="#666666" points="352.5,-30 184.5,-30 184.5,0 352.5,0 352.5,-30"/>
<text text-anchor="start" x="192.5" y="-18" font-family="Helvetica,sans-Serif" font-size="10.00">FiftyoneDegrees::IpIntelligence</text>
<text text-anchor="middle" x="268.5" y="-7" font-family="Helvetica,sans-Serif" font-size="10.00">::ValueMetaDataBuilderIpi</text>
</a>
</g>
</g>
<!-- Node1&#45;&gt;Node5 -->
<g id="edge4_Node000001_Node000005" class="edge">
<title>Node1&#45;&gt;Node5</title>
<g id="a_edge4_Node000001_Node000005"><a xlink:title=" ">
<path fill="none" stroke="#8b1a1a" d="M113.88,-67.62C134.02,-58.26 159,-47.29 182,-39 190.85,-35.81 200.33,-32.78 209.65,-30.01"/>
<polygon fill="#8b1a1a" stroke="#8b1a1a" points="112.27,-64.51 104.71,-71.93 115.25,-70.84 112.27,-64.51"/>
</a>
</g>
</g>
</g>
</svg>
