<?xml version="1.0" encoding="UTF-8" standalone="no"?>
<!DOCTYPE svg PUBLIC "-//W3C//DTD SVG 1.1//EN"
 "http://www.w3.org/Graphics/SVG/1.1/DTD/svg11.dtd">
<!-- Generated by graphviz version 2.43.0 (0)
 -->
<!-- Title: FiftyoneDegrees::IpIntelligence::ValueMetaDataCollectionForPropertyIpi Pages: 1 -->
<svg width="223pt" height="184pt"
 viewBox="0.00 0.00 223.00 184.00" xmlns="http://www.w3.org/2000/svg" xmlns:xlink="http://www.w3.org/1999/xlink">
<g id="graph0" class="graph" transform="scale(1 1) rotate(0) translate(4 180)">
<title>FiftyoneDegrees::IpIntelligence::ValueMetaDataCollectionForPropertyIpi</title>
<!-- Node0 -->
<g id="node1" class="node">
<title>Node0</title>
<g id="a_node1"><a xlink:title="A collection of value meta data relating to a property contained in an IP Intelligence engine.">
<polygon fill="#bfbfbf" stroke="black" points="0,-0.5 0,-30.5 215,-30.5 215,-0.5 0,-0.5"/>
<text text-anchor="start" x="8" y="-18.5" font-family="Helvetica,sans-Serif" font-size="10.00">FiftyoneDegrees::IpIntelligence</text>
<text text-anchor="middle" x="107.5" y="-7.5" font-family="Helvetica,sans-Serif" font-size="10.00">::ValueMetaDataCollectionForPropertyIpi</text>
</a>
</g>
</g>
<!-- Node1 -->
<g id="node2" class="node">
<title>Node1</title>
<g id="a_node2"><a xlink:href="class_fiftyone_degrees_1_1_ip_intelligence_1_1_value_meta_data_collection_base_ipi.html" target="_top" xlink:title="A collection of all value meta data contained in an IP Intelligence engine.">
<polygon fill="none" stroke="black" points="16.5,-67.5 16.5,-97.5 198.5,-97.5 198.5,-67.5 16.5,-67.5"/>
<text text-anchor="start" x="24.5" y="-85.5" font-family="Helvetica,sans-Serif" font-size="10.00">FiftyoneDegrees::IpIntelligence</text>
<text text-anchor="middle" x="107.5" y="-74.5" font-family="Helvetica,sans-Serif" font-size="10.00">::ValueMetaDataCollectionBaseIpi</text>
</a>
</g>
</g>
<!-- Node1&#45;&gt;Node0 -->
<g id="edge1" class="edge">
<title>Node1&#45;&gt;Node0</title>
<path fill="none" stroke="midnightblue" d="M107.5,-57.11C107.5,-48.15 107.5,-38.32 107.5,-30.58"/>
<polygon fill="midnightblue" stroke="midnightblue" points="104,-57.4 107.5,-67.4 111,-57.4 104,-57.4"/>
</g>
<!-- Node2 -->
<g id="node3" class="node">
<title>Node2</title>
<g id="a_node3"><a xlink:href="class_fiftyone_degrees_1_1_common_1_1_collection.html" target="_top" xlink:title="A group of items accessible by index or key.">
<polygon fill="none" stroke="black" points="18,-134.5 18,-175.5 197,-175.5 197,-134.5 18,-134.5"/>
<text text-anchor="start" x="26" y="-163.5" font-family="Helvetica,sans-Serif" font-size="10.00">FiftyoneDegrees::Common</text>
<text text-anchor="start" x="26" y="-152.5" font-family="Helvetica,sans-Serif" font-size="10.00">::Collection&lt; ValueMetaDataKey,</text>
<text text-anchor="middle" x="107.5" y="-141.5" font-family="Helvetica,sans-Serif" font-size="10.00"> ValueMetaData &gt;</text>
</a>
</g>
</g>
<!-- Node2&#45;&gt;Node1 -->
<g id="edge2" class="edge">
<title>Node2&#45;&gt;Node1</title>
<path fill="none" stroke="midnightblue" d="M107.5,-124.08C107.5,-115.01 107.5,-105.45 107.5,-97.89"/>
<polygon fill="midnightblue" stroke="midnightblue" points="104,-124.36 107.5,-134.36 111,-124.36 104,-124.36"/>
</g>
</g>
</svg>
