<?xml version="1.0" encoding="UTF-8" standalone="no"?>
<!DOCTYPE svg PUBLIC "-//W3C//DTD SVG 1.1//EN"
 "http://www.w3.org/Graphics/SVG/1.1/DTD/svg11.dtd">
<!-- Generated by graphviz version 2.43.0 (0)
 -->
<!-- Title: ResourceManager Pages: 1 -->
<svg width="440pt" height="182pt"
 viewBox="0.00 0.00 439.50 182.00" xmlns="http://www.w3.org/2000/svg" xmlns:xlink="http://www.w3.org/1999/xlink">
<g id="graph0" class="graph" transform="scale(1 1) rotate(0) translate(4 178)">
<title>ResourceManager</title>
<!-- Node1 -->
<g id="Node000001" class="node">
<title>Node1</title>
<g id="a_Node000001"><a xlink:title=" ">
<polygon fill="#999999" stroke="#666666" points="155,-19 51,-19 51,0 155,0 155,-19"/>
<text text-anchor="middle" x="103" y="-7" font-family="Helvetica,sans-Serif" font-size="10.00">ResourceManager</text>
</a>
</g>
</g>
<!-- Node2 -->
<g id="Node000002" class="node">
<title>Node2</title>
<g id="a_Node000002"><a xlink:href="class_base.html" target="_top" xlink:title="Base test class used to carry out memory leak checks.">
<polygon fill="white" stroke="#666666" points="62.5,-91 21.5,-91 21.5,-72 62.5,-72 62.5,-91"/>
<text text-anchor="middle" x="42" y="-79" font-family="Helvetica,sans-Serif" font-size="10.00">Base</text>
</a>
</g>
</g>
<!-- Node2&#45;&gt;Node1 -->
<g id="edge1_Node000001_Node000002" class="edge">
<title>Node2&#45;&gt;Node1</title>
<g id="a_edge1_Node000001_Node000002"><a xlink:title=" ">
<path fill="none" stroke="#63b8ff" d="M56.37,-64.01C68.61,-49.96 85.73,-30.32 95.46,-19.15"/>
<polygon fill="#63b8ff" stroke="#63b8ff" points="53.41,-62.08 49.48,-71.92 58.69,-66.68 53.41,-62.08"/>
</a>
</g>
</g>
<!-- Node3 -->
<g id="Node000003" class="node">
<title>Node3</title>
<g id="a_Node000003"><a xlink:title=" ">
<polygon fill="white" stroke="#bfbfbf" points="76,-168.5 0,-168.5 0,-149.5 76,-149.5 76,-168.5"/>
<text text-anchor="middle" x="38" y="-156.5" font-family="Helvetica,sans-Serif" font-size="10.00">testing::Test</text>
</a>
</g>
</g>
<!-- Node3&#45;&gt;Node2 -->
<g id="edge2_Node000002_Node000003" class="edge">
<title>Node3&#45;&gt;Node2</title>
<g id="a_edge2_Node000002_Node000003"><a xlink:title=" ">
<path fill="none" stroke="#63b8ff" d="M38.99,-139.35C39.81,-123.92 40.93,-102.72 41.55,-91.06"/>
<polygon fill="#63b8ff" stroke="#63b8ff" points="35.49,-139.17 38.46,-149.34 42.48,-139.54 35.49,-139.17"/>
</a>
</g>
</g>
<!-- Node4 -->
<g id="Node000004" class="node">
<title>Node4</title>
<g id="a_Node000004"><a xlink:href="structfiftyone_degrees_resource_manager.html" target="_top" xlink:title="Manager structure used to provide access to a shared and changing resource.">
<polygon fill="white" stroke="#666666" points="276,-168.5 94,-168.5 94,-149.5 276,-149.5 276,-168.5"/>
<text text-anchor="middle" x="185" y="-156.5" font-family="Helvetica,sans-Serif" font-size="10.00">fiftyoneDegreesResourceManager</text>
</a>
</g>
</g>
<!-- Node4&#45;&gt;Node1 -->
<g id="edge3_Node000001_Node000004" class="edge">
<title>Node4&#45;&gt;Node1</title>
<g id="a_edge3_Node000001_Node000004"><a xlink:title=" ">
<path fill="none" stroke="#9a32cd" stroke-dasharray="5,2" d="M162.31,-143.83C145.4,-131.94 123.34,-113.34 112,-91 99.9,-67.18 100.81,-34.37 102.07,-19.04"/>
<polygon fill="#9a32cd" stroke="#9a32cd" points="160.36,-146.73 170.6,-149.42 164.27,-140.93 160.36,-146.73"/>
</a>
</g>
<text text-anchor="start" x="115" y="-78.5" font-family="Helvetica,sans-Serif" font-size="10.00" fill="grey">manager</text>
</g>
<!-- Node5 -->
<g id="Node000005" class="node">
<title>Node5</title>
<g id="a_Node000005"><a xlink:href="structfiftyone_degrees_resource_handle.html" target="_top" xlink:title="Handle for a shared resource.">
<polygon fill="white" stroke="#666666" points="344.5,-91 171.5,-91 171.5,-72 344.5,-72 344.5,-91"/>
<text text-anchor="middle" x="258" y="-79" font-family="Helvetica,sans-Serif" font-size="10.00">fiftyoneDegreesResourceHandle</text>
</a>
</g>
</g>
<!-- Node4&#45;&gt;Node5 -->
<g id="edge6_Node000005_Node000004" class="edge">
<title>Node4&#45;&gt;Node5</title>
<g id="a_edge6_Node000005_Node000004"><a xlink:title=" ">
<path fill="none" stroke="#9a32cd" stroke-dasharray="5,2" d="M178.67,-139.77C176.41,-129.82 175.77,-117.78 182,-109 187.91,-100.68 196.63,-94.96 206.07,-91.02"/>
<polygon fill="#9a32cd" stroke="#9a32cd" points="175.35,-140.87 181.5,-149.5 182.07,-138.92 175.35,-140.87"/>
</a>
</g>
<text text-anchor="start" x="185" y="-114.5" font-family="Helvetica,sans-Serif" font-size="10.00" fill="grey">manager</text>
</g>
<!-- Node5&#45;&gt;Node1 -->
<g id="edge7_Node000001_Node000005" class="edge">
<title>Node5&#45;&gt;Node1</title>
<g id="a_edge7_Node000001_Node000005"><a xlink:title=" ">
<path fill="none" stroke="#9a32cd" stroke-dasharray="5,2" d="M229.54,-67.65C198.33,-53.55 149.09,-31.32 122.16,-19.15"/>
<polygon fill="#9a32cd" stroke="#9a32cd" points="228.44,-70.99 238.99,-71.92 231.32,-64.61 228.44,-70.99"/>
</a>
</g>
<text text-anchor="start" x="202.5" y="-42.5" font-family="Helvetica,sans-Serif" font-size="10.00" fill="grey">resourceHandle</text>
</g>
<!-- Node5&#45;&gt;Node4 -->
<g id="edge4_Node000004_Node000005" class="edge">
<title>Node5&#45;&gt;Node4</title>
<g id="a_edge4_Node000004_Node000005"><a xlink:title=" ">
<path fill="none" stroke="#9a32cd" stroke-dasharray="5,2" d="M251.45,-100.66C247.8,-109.04 242.65,-118.71 236,-126 226.98,-135.89 214.23,-143.89 203.74,-149.41"/>
<polygon fill="#9a32cd" stroke="#9a32cd" points="254.71,-101.93 255.14,-91.34 248.2,-99.35 254.71,-101.93"/>
</a>
</g>
<text text-anchor="start" x="251.5" y="-114.5" font-family="Helvetica,sans-Serif" font-size="10.00" fill="grey">active</text>
</g>
<!-- Node6 -->
<g id="Node000006" class="node">
<title>Node6</title>
<g id="a_Node000006"><a xlink:href="structfiftyone_degrees_interlock_double_width.html" target="_top" xlink:title="Double width (64 or 128 depending on the architecture) compare and exchange.">
<polygon fill="white" stroke="#666666" points="431.5,-174 294.5,-174 294.5,-144 431.5,-144 431.5,-174"/>
<text text-anchor="start" x="302.5" y="-162" font-family="Helvetica,sans-Serif" font-size="10.00">fiftyoneDegreesInterlock</text>
<text text-anchor="middle" x="363" y="-151" font-family="Helvetica,sans-Serif" font-size="10.00">DoubleWidth</text>
</a>
</g>
</g>
<!-- Node6&#45;&gt;Node5 -->
<g id="edge5_Node000005_Node000006" class="edge">
<title>Node6&#45;&gt;Node5</title>
<g id="a_edge5_Node000005_Node000006"><a xlink:title=" ">
<path fill="none" stroke="#9a32cd" stroke-dasharray="5,2" d="M334.9,-137.8C313.64,-122.51 285.5,-102.28 269.83,-91.01"/>
<polygon fill="#9a32cd" stroke="#9a32cd" points="333.09,-140.8 343.25,-143.8 337.17,-135.12 333.09,-140.8"/>
</a>
</g>
<text text-anchor="start" x="320.5" y="-114.5" font-family="Helvetica,sans-Serif" font-size="10.00" fill="grey">counter</text>
</g>
</g>
</svg>
