<?xml version="1.0" encoding="UTF-8" standalone="no"?>
<!DOCTYPE svg PUBLIC "-//W3C//DTD SVG 1.1//EN"
 "http://www.w3.org/Graphics/SVG/1.1/DTD/svg11.dtd">
<!-- Generated by graphviz version 2.43.0 (0)
 -->
<!-- Title: ResourceManager Pages: 1 -->
<svg width="440pt" height="173pt"
 viewBox="0.00 0.00 439.50 173.00" xmlns="http://www.w3.org/2000/svg" xmlns:xlink="http://www.w3.org/1999/xlink">
<g id="graph0" class="graph" transform="scale(1 1) rotate(0) translate(4 169)">
<title>ResourceManager</title>
<!-- Node3 -->
<g id="node1" class="node">
<title>Node3</title>
<g id="a_node1"><a xlink:title=" ">
<polygon fill="#bfbfbf" stroke="black" points="51,-0.5 51,-19.5 155,-19.5 155,-0.5 51,-0.5"/>
<text text-anchor="middle" x="103" y="-7.5" font-family="Helvetica,sans-Serif" font-size="10.00">ResourceManager</text>
</a>
</g>
</g>
<!-- Node4 -->
<g id="node2" class="node">
<title>Node4</title>
<g id="a_node2"><a xlink:href="class_base.html" target="_top" xlink:title="Base test class used to carry out memory leak checks.">
<polygon fill="none" stroke="black" points="21.5,-67.5 21.5,-86.5 62.5,-86.5 62.5,-67.5 21.5,-67.5"/>
<text text-anchor="middle" x="42" y="-74.5" font-family="Helvetica,sans-Serif" font-size="10.00">Base</text>
</a>
</g>
</g>
<!-- Node4&#45;&gt;Node3 -->
<g id="edge1" class="edge">
<title>Node4&#45;&gt;Node3</title>
<path fill="none" stroke="midnightblue" d="M57.36,-59.63C69.29,-46.92 85.36,-29.8 94.9,-19.63"/>
<polygon fill="midnightblue" stroke="midnightblue" points="54.52,-57.55 50.23,-67.23 59.62,-62.34 54.52,-57.55"/>
</g>
<!-- Node5 -->
<g id="node3" class="node">
<title>Node5</title>
<g id="a_node3"><a xlink:title=" ">
<polygon fill="none" stroke="#bfbfbf" points="0,-140 0,-159 76,-159 76,-140 0,-140"/>
<text text-anchor="middle" x="38" y="-147" font-family="Helvetica,sans-Serif" font-size="10.00">testing::Test</text>
</a>
</g>
</g>
<!-- Node5&#45;&gt;Node4 -->
<g id="edge2" class="edge">
<title>Node5&#45;&gt;Node4</title>
<path fill="none" stroke="midnightblue" d="M39.06,-129.86C39.85,-115.9 40.9,-97.43 41.51,-86.72"/>
<polygon fill="midnightblue" stroke="midnightblue" points="35.56,-129.67 38.49,-139.86 42.55,-130.07 35.56,-129.67"/>
</g>
<!-- Node6 -->
<g id="node4" class="node">
<title>Node6</title>
<g id="a_node4"><a xlink:href="structfiftyone_degrees_resource_manager.html" target="_top" xlink:title="Manager structure used to provide access to a shared and changing resource.">
<polygon fill="none" stroke="black" points="94,-140 94,-159 276,-159 276,-140 94,-140"/>
<text text-anchor="middle" x="185" y="-147" font-family="Helvetica,sans-Serif" font-size="10.00">fiftyoneDegreesResourceManager</text>
</a>
</g>
</g>
<!-- Node6&#45;&gt;Node3 -->
<g id="edge3" class="edge">
<title>Node6&#45;&gt;Node3</title>
<path fill="none" stroke="#9a32cd" stroke-dasharray="5,2" d="M160.12,-134.46C143.57,-123.72 122.94,-107.31 112,-87 100.15,-65.01 100.85,-34.33 102.06,-19.58"/>
<polygon fill="#9a32cd" stroke="#9a32cd" points="158.46,-137.55 168.8,-139.84 162.14,-131.6 158.46,-137.55"/>
<text text-anchor="middle" x="135.5" y="-74.5" font-family="Helvetica,sans-Serif" font-size="10.00"> manager</text>
</g>
<!-- Node7 -->
<g id="node5" class="node">
<title>Node7</title>
<g id="a_node5"><a xlink:href="structfiftyone_degrees_resource_handle.html" target="_top" xlink:title="Handle for a shared resource.">
<polygon fill="none" stroke="black" points="168.5,-67.5 168.5,-86.5 341.5,-86.5 341.5,-67.5 168.5,-67.5"/>
<text text-anchor="middle" x="255" y="-74.5" font-family="Helvetica,sans-Serif" font-size="10.00">fiftyoneDegreesResourceHandle</text>
</a>
</g>
</g>
<!-- Node6&#45;&gt;Node7 -->
<g id="edge5" class="edge">
<title>Node6&#45;&gt;Node7</title>
<path fill="none" stroke="#9a32cd" stroke-dasharray="5,2" d="M178.82,-130.32C177.13,-121.93 176.95,-112.25 182,-105 187.95,-96.46 196.92,-90.62 206.56,-86.62"/>
<polygon fill="#9a32cd" stroke="#9a32cd" points="175.45,-131.27 181.49,-139.97 182.2,-129.4 175.45,-131.27"/>
<text text-anchor="middle" x="205.5" y="-108" font-family="Helvetica,sans-Serif" font-size="10.00"> manager</text>
</g>
<!-- Node7&#45;&gt;Node3 -->
<g id="edge7" class="edge">
<title>Node7&#45;&gt;Node3</title>
<path fill="none" stroke="#9a32cd" stroke-dasharray="5,2" d="M225.26,-63.28C195.16,-50.41 149.43,-30.85 123.27,-19.67"/>
<polygon fill="#9a32cd" stroke="#9a32cd" points="224.24,-66.65 234.82,-67.37 227,-60.22 224.24,-66.65"/>
<text text-anchor="middle" x="229" y="-41" font-family="Helvetica,sans-Serif" font-size="10.00"> resourceHandle</text>
</g>
<!-- Node7&#45;&gt;Node6 -->
<g id="edge4" class="edge">
<title>Node7&#45;&gt;Node6</title>
<path fill="none" stroke="#9a32cd" stroke-dasharray="5,2" d="M246.88,-95.73C243.24,-102.54 238.52,-110.08 233,-116 223.94,-125.72 211.46,-134.06 201.5,-139.85"/>
<polygon fill="#9a32cd" stroke="#9a32cd" points="250.12,-97.09 251.41,-86.57 243.84,-93.99 250.12,-97.09"/>
<text text-anchor="middle" x="259" y="-108" font-family="Helvetica,sans-Serif" font-size="10.00"> active</text>
</g>
<!-- Node8 -->
<g id="node6" class="node">
<title>Node8</title>
<g id="a_node6"><a xlink:href="structfiftyone_degrees_interlock_double_width.html" target="_top" xlink:title="Double width (64 or 128 depending on the architecture) compare and exchange.">
<polygon fill="none" stroke="black" points="294.5,-134.5 294.5,-164.5 431.5,-164.5 431.5,-134.5 294.5,-134.5"/>
<text text-anchor="start" x="302.5" y="-152.5" font-family="Helvetica,sans-Serif" font-size="10.00">fiftyoneDegreesInterlock</text>
<text text-anchor="middle" x="363" y="-141.5" font-family="Helvetica,sans-Serif" font-size="10.00">DoubleWidth</text>
</a>
</g>
</g>
<!-- Node8&#45;&gt;Node7 -->
<g id="edge6" class="edge">
<title>Node8&#45;&gt;Node7</title>
<path fill="none" stroke="#9a32cd" stroke-dasharray="5,2" d="M332.99,-128.91C311.67,-114.99 284.07,-96.98 268.07,-86.53"/>
<polygon fill="#9a32cd" stroke="#9a32cd" points="331.12,-131.87 341.4,-134.4 334.94,-126.01 331.12,-131.87"/>
<text text-anchor="middle" x="333" y="-108" font-family="Helvetica,sans-Serif" font-size="10.00"> counter</text>
</g>
</g>
</svg>
