<?xml version="1.0" encoding="UTF-8" standalone="no"?>
<!DOCTYPE svg PUBLIC "-//W3C//DTD SVG 1.1//EN"
 "http://www.w3.org/Graphics/SVG/1.1/DTD/svg11.dtd">
<!-- Generated by graphviz version 2.43.0 (0)
 -->
<!-- Title: Pool Pages: 1 -->
<svg width="399pt" height="171pt"
 viewBox="0.00 0.00 398.50 171.00" xmlns="http://www.w3.org/2000/svg" xmlns:xlink="http://www.w3.org/1999/xlink">
<g id="graph0" class="graph" transform="scale(1 1) rotate(0) translate(4 167)">
<title>Pool</title>
<!-- Node1 -->
<g id="Node000001" class="node">
<title>Node1</title>
<g id="a_Node000001"><a xlink:title="File test class used to test the functionality of file.c.">
<polygon fill="#999999" stroke="#666666" points="136,-19 98,-19 98,0 136,0 136,-19"/>
<text text-anchor="middle" x="117" y="-7" font-family="Helvetica,sans-Serif" font-size="10.00">Pool</text>
</a>
</g>
</g>
<!-- Node2 -->
<g id="Node000002" class="node">
<title>Node2</title>
<g id="a_Node000002"><a xlink:href="class_base.html" target="_top" xlink:title="Base test class used to carry out memory leak checks.">
<polygon fill="white" stroke="#666666" points="58.5,-91 17.5,-91 17.5,-72 58.5,-72 58.5,-91"/>
<text text-anchor="middle" x="38" y="-79" font-family="Helvetica,sans-Serif" font-size="10.00">Base</text>
</a>
</g>
</g>
<!-- Node2&#45;&gt;Node1 -->
<g id="edge1_Node000001_Node000002" class="edge">
<title>Node2&#45;&gt;Node1</title>
<g id="a_edge1_Node000001_Node000002"><a xlink:title=" ">
<path fill="none" stroke="#63b8ff" d="M55.27,-65.19C71.2,-51.08 94.28,-30.63 107.23,-19.15"/>
<polygon fill="#63b8ff" stroke="#63b8ff" points="52.85,-62.67 47.69,-71.92 57.49,-67.9 52.85,-62.67"/>
</a>
</g>
</g>
<!-- Node3 -->
<g id="Node000003" class="node">
<title>Node3</title>
<g id="a_Node000003"><a xlink:title=" ">
<polygon fill="white" stroke="#bfbfbf" points="76,-163 0,-163 0,-144 76,-144 76,-163"/>
<text text-anchor="middle" x="38" y="-151" font-family="Helvetica,sans-Serif" font-size="10.00">testing::Test</text>
</a>
</g>
</g>
<!-- Node3&#45;&gt;Node2 -->
<g id="edge2_Node000002_Node000003" class="edge">
<title>Node3&#45;&gt;Node2</title>
<g id="a_edge2_Node000002_Node000003"><a xlink:title=" ">
<path fill="none" stroke="#63b8ff" d="M38,-133.58C38,-119.76 38,-101.68 38,-91.15"/>
<polygon fill="#63b8ff" stroke="#63b8ff" points="34.5,-133.92 38,-143.92 41.5,-133.92 34.5,-133.92"/>
</a>
</g>
</g>
<!-- Node4 -->
<g id="Node000004" class="node">
<title>Node4</title>
<g id="a_Node000004"><a xlink:href="structfiftyone_degrees_pool.html" target="_top" xlink:title="Pool of resources stored as items in a stack.">
<polygon fill="white" stroke="#666666" points="302.5,-91 187.5,-91 187.5,-72 302.5,-72 302.5,-91"/>
<text text-anchor="middle" x="245" y="-79" font-family="Helvetica,sans-Serif" font-size="10.00">fiftyoneDegreesPool</text>
</a>
</g>
</g>
<!-- Node4&#45;&gt;Node1 -->
<g id="edge3_Node000001_Node000004" class="edge">
<title>Node4&#45;&gt;Node1</title>
<g id="a_edge3_Node000001_Node000004"><a xlink:title=" ">
<path fill="none" stroke="#9a32cd" stroke-dasharray="5,2" d="M222.84,-66.6C208.52,-57.79 189.38,-46.34 172,-37 160.14,-30.63 146.51,-24.06 135.79,-19.05"/>
<polygon fill="#9a32cd" stroke="#9a32cd" points="221.14,-69.66 231.48,-71.96 224.83,-63.71 221.14,-69.66"/>
</a>
</g>
<text text-anchor="start" x="203" y="-42.5" font-family="Helvetica,sans-Serif" font-size="10.00" fill="grey">pool</text>
</g>
<!-- Node4&#45;&gt;Node4 -->
<g id="edge7_Node000004_Node000004" class="edge">
<title>Node4&#45;&gt;Node4</title>
<g id="a_edge7_Node000004_Node000004"><a xlink:title=" ">
<path fill="none" stroke="#9a32cd" stroke-dasharray="5,2" d="M312.53,-86.5C317.47,-85.37 320.5,-83.71 320.5,-81.5 320.5,-78.05 313.12,-75.93 302.61,-75.12"/>
<polygon fill="#9a32cd" stroke="#9a32cd" points="312.03,-83.03 302.61,-87.88 312.99,-89.97 312.03,-83.03"/>
</a>
</g>
<text text-anchor="start" x="323.5" y="-78.5" font-family="Helvetica,sans-Serif" font-size="10.00" fill="grey">resourceFree</text>
</g>
<!-- Node5 -->
<g id="Node000005" class="node">
<title>Node5</title>
<g id="a_Node000005"><a xlink:href="structfiftyone_degrees_pool_item.html" target="_top" xlink:title="Pool item node in the stack of items.">
<polygon fill="white" stroke="#666666" points="338.5,-19 201.5,-19 201.5,0 338.5,0 338.5,-19"/>
<text text-anchor="middle" x="270" y="-7" font-family="Helvetica,sans-Serif" font-size="10.00">fiftyoneDegreesPoolItem</text>
</a>
</g>
</g>
<!-- Node4&#45;&gt;Node5 -->
<g id="edge5_Node000005_Node000004" class="edge">
<title>Node4&#45;&gt;Node5</title>
<g id="a_edge5_Node000005_Node000004"><a xlink:title=" ">
<path fill="none" stroke="#9a32cd" stroke-dasharray="5,2" d="M240.02,-61.95C238.8,-53.98 238.67,-44.74 242,-37 245.07,-29.87 251.11,-23.76 256.79,-19.21"/>
<polygon fill="#9a32cd" stroke="#9a32cd" points="236.6,-62.72 242.12,-71.77 243.45,-61.26 236.6,-62.72"/>
</a>
</g>
<text text-anchor="start" x="245" y="-42.5" font-family="Helvetica,sans-Serif" font-size="10.00" fill="grey">pool</text>
</g>
<!-- Node5&#45;&gt;Node4 -->
<g id="edge4_Node000004_Node000005" class="edge">
<title>Node5&#45;&gt;Node4</title>
<g id="a_edge4_Node000004_Node000005"><a xlink:title=" ">
<path fill="none" stroke="#9a32cd" stroke-dasharray="5,2" d="M275.65,-29.06C277.09,-37.03 277.41,-46.27 274,-54 270.81,-61.24 264.56,-67.36 258.67,-71.89"/>
<polygon fill="#9a32cd" stroke="#9a32cd" points="279.02,-28.11 273.23,-19.24 272.22,-29.79 279.02,-28.11"/>
</a>
</g>
<text text-anchor="start" x="279.5" y="-42.5" font-family="Helvetica,sans-Serif" font-size="10.00" fill="grey">stack</text>
</g>
<!-- Node6 -->
<g id="Node000006" class="node">
<title>Node6</title>
<g id="a_Node000006"><a xlink:href="unionfiftyone_degrees_pool_head.html" target="_top" xlink:title="The head of the stack used for pop and push operations.">
<polygon fill="white" stroke="#666666" points="315,-163 175,-163 175,-144 315,-144 315,-163"/>
<text text-anchor="middle" x="245" y="-151" font-family="Helvetica,sans-Serif" font-size="10.00">fiftyoneDegreesPoolHead</text>
</a>
</g>
</g>
<!-- Node6&#45;&gt;Node4 -->
<g id="edge6_Node000004_Node000006" class="edge">
<title>Node6&#45;&gt;Node4</title>
<g id="a_edge6_Node000004_Node000006"><a xlink:title=" ">
<path fill="none" stroke="#9a32cd" stroke-dasharray="5,2" d="M245,-133.58C245,-119.76 245,-101.68 245,-91.15"/>
<polygon fill="#9a32cd" stroke="#9a32cd" points="241.5,-133.92 245,-143.92 248.5,-133.92 241.5,-133.92"/>
</a>
</g>
<text text-anchor="start" x="248.5" y="-114.5" font-family="Helvetica,sans-Serif" font-size="10.00" fill="grey">head</text>
</g>
<!-- Node7 -->
<g id="Node000007" class="node">
<title>Node7</title>
<g id="a_Node000007"><a xlink:href="structtest_resource.html" target="_top" xlink:title=" ">
<polygon fill="white" stroke="#bfbfbf" points="157,-91 77,-91 77,-72 157,-72 157,-91"/>
<text text-anchor="middle" x="117" y="-79" font-family="Helvetica,sans-Serif" font-size="10.00">testResource</text>
</a>
</g>
</g>
<!-- Node7&#45;&gt;Node1 -->
<g id="edge8_Node000001_Node000007" class="edge">
<title>Node7&#45;&gt;Node1</title>
<g id="a_edge8_Node000001_Node000007"><a xlink:title=" ">
<path fill="none" stroke="#9a32cd" stroke-dasharray="5,2" d="M117,-61.58C117,-47.76 117,-29.68 117,-19.15"/>
<polygon fill="#9a32cd" stroke="#9a32cd" points="113.5,-61.92 117,-71.92 120.5,-61.92 113.5,-61.92"/>
</a>
</g>
<text text-anchor="start" x="120" y="-42.5" font-family="Helvetica,sans-Serif" font-size="10.00" fill="grey">resources</text>
</g>
</g>
</svg>
