<?xml version="1.0" encoding="UTF-8" standalone="no"?>
<!DOCTYPE svg PUBLIC "-//W3C//DTD SVG 1.1//EN"
 "http://www.w3.org/Graphics/SVG/1.1/DTD/svg11.dtd">
<!-- Generated by graphviz version 2.43.0 (0)
 -->
<!-- Title: Pool Pages: 1 -->
<svg width="390pt" height="162pt"
 viewBox="0.00 0.00 389.50 162.00" xmlns="http://www.w3.org/2000/svg" xmlns:xlink="http://www.w3.org/1999/xlink">
<g id="graph0" class="graph" transform="scale(1 1) rotate(0) translate(4 158)">
<title>Pool</title>
<!-- Node3 -->
<g id="node1" class="node">
<title>Node3</title>
<g id="a_node1"><a xlink:title="File test class used to test the functionality of file.c.">
<polygon fill="#bfbfbf" stroke="black" points="98,-0.5 98,-19.5 136,-19.5 136,-0.5 98,-0.5"/>
<text text-anchor="middle" x="117" y="-7.5" font-family="Helvetica,sans-Serif" font-size="10.00">Pool</text>
</a>
</g>
</g>
<!-- Node4 -->
<g id="node2" class="node">
<title>Node4</title>
<g id="a_node2"><a xlink:href="class_base.html" target="_top" xlink:title="Base test class used to carry out memory leak checks.">
<polygon fill="none" stroke="black" points="17.5,-67.5 17.5,-86.5 58.5,-86.5 58.5,-67.5 17.5,-67.5"/>
<text text-anchor="middle" x="38" y="-74.5" font-family="Helvetica,sans-Serif" font-size="10.00">Base</text>
</a>
</g>
</g>
<!-- Node4&#45;&gt;Node3 -->
<g id="edge1" class="edge">
<title>Node4&#45;&gt;Node3</title>
<path fill="none" stroke="midnightblue" d="M56.58,-60.71C72.14,-47.91 93.8,-30.09 106.51,-19.63"/>
<polygon fill="midnightblue" stroke="midnightblue" points="54.15,-58.18 48.65,-67.23 58.6,-63.58 54.15,-58.18"/>
</g>
<!-- Node5 -->
<g id="node3" class="node">
<title>Node5</title>
<g id="a_node3"><a xlink:title=" ">
<polygon fill="none" stroke="#bfbfbf" points="0,-134.5 0,-153.5 76,-153.5 76,-134.5 0,-134.5"/>
<text text-anchor="middle" x="38" y="-141.5" font-family="Helvetica,sans-Serif" font-size="10.00">testing::Test</text>
</a>
</g>
</g>
<!-- Node5&#45;&gt;Node4 -->
<g id="edge2" class="edge">
<title>Node5&#45;&gt;Node4</title>
<path fill="none" stroke="midnightblue" d="M38,-124.04C38,-111.67 38,-96.12 38,-86.63"/>
<polygon fill="midnightblue" stroke="midnightblue" points="34.5,-124.23 38,-134.23 41.5,-124.23 34.5,-124.23"/>
</g>
<!-- Node6 -->
<g id="node4" class="node">
<title>Node6</title>
<g id="a_node4"><a xlink:href="structfiftyone_degrees_pool.html" target="_top" xlink:title="Pool of resources stored as items in a stack.">
<polygon fill="none" stroke="black" points="181.5,-67.5 181.5,-86.5 296.5,-86.5 296.5,-67.5 181.5,-67.5"/>
<text text-anchor="middle" x="239" y="-74.5" font-family="Helvetica,sans-Serif" font-size="10.00">fiftyoneDegreesPool</text>
</a>
</g>
</g>
<!-- Node6&#45;&gt;Node3 -->
<g id="edge3" class="edge">
<title>Node6&#45;&gt;Node3</title>
<path fill="none" stroke="#9a32cd" stroke-dasharray="5,2" d="M214.41,-62.51C201.02,-55.2 184.13,-46.04 169,-38 157.32,-31.8 144.09,-24.93 133.9,-19.68"/>
<polygon fill="#9a32cd" stroke="#9a32cd" points="213.02,-65.74 223.47,-67.47 216.38,-59.6 213.02,-65.74"/>
<text text-anchor="middle" x="200.5" y="-41" font-family="Helvetica,sans-Serif" font-size="10.00"> pool</text>
</g>
<!-- Node6&#45;&gt;Node6 -->
<g id="edge4" class="edge">
<title>Node6&#45;&gt;Node6</title>
<path fill="none" stroke="#9a32cd" stroke-dasharray="5,2" d="M306.53,-81.44C311.47,-80.44 314.5,-78.96 314.5,-77 314.5,-73.94 307.12,-72.05 296.61,-71.33"/>
<polygon fill="#9a32cd" stroke="#9a32cd" points="306.1,-77.97 296.61,-82.67 306.96,-84.92 306.1,-77.97"/>
<text text-anchor="middle" x="348" y="-74.5" font-family="Helvetica,sans-Serif" font-size="10.00"> resourceFree</text>
</g>
<!-- Node8 -->
<g id="node6" class="node">
<title>Node8</title>
<g id="a_node6"><a xlink:href="structfiftyone_degrees_pool_item.html" target="_top" xlink:title="Pool item node in the stack of items.">
<polygon fill="none" stroke="black" points="194.5,-0.5 194.5,-19.5 331.5,-19.5 331.5,-0.5 194.5,-0.5"/>
<text text-anchor="middle" x="263" y="-7.5" font-family="Helvetica,sans-Serif" font-size="10.00">fiftyoneDegreesPoolItem</text>
</a>
</g>
</g>
<!-- Node6&#45;&gt;Node8 -->
<g id="edge7" class="edge">
<title>Node6&#45;&gt;Node8</title>
<path fill="none" stroke="#9a32cd" stroke-dasharray="5,2" d="M234.11,-56.95C233.38,-50.72 233.56,-43.88 236,-38 239.04,-30.65 245.17,-24.26 250.81,-19.54"/>
<polygon fill="#9a32cd" stroke="#9a32cd" points="230.75,-58.04 236.09,-67.19 237.62,-56.71 230.75,-58.04"/>
<text text-anchor="middle" x="248.5" y="-41" font-family="Helvetica,sans-Serif" font-size="10.00"> pool</text>
</g>
<!-- Node7 -->
<g id="node5" class="node">
<title>Node7</title>
<g id="a_node5"><a xlink:href="unionfiftyone_degrees_pool_head.html" target="_top" xlink:title="The head of the stack used for pop and push operations.">
<polygon fill="none" stroke="black" points="169,-134.5 169,-153.5 309,-153.5 309,-134.5 169,-134.5"/>
<text text-anchor="middle" x="239" y="-141.5" font-family="Helvetica,sans-Serif" font-size="10.00">fiftyoneDegreesPoolHead</text>
</a>
</g>
</g>
<!-- Node7&#45;&gt;Node6 -->
<g id="edge5" class="edge">
<title>Node7&#45;&gt;Node6</title>
<path fill="none" stroke="#9a32cd" stroke-dasharray="5,2" d="M239,-124.04C239,-111.67 239,-96.12 239,-86.63"/>
<polygon fill="#9a32cd" stroke="#9a32cd" points="235.5,-124.23 239,-134.23 242.5,-124.23 235.5,-124.23"/>
<text text-anchor="middle" x="253" y="-108" font-family="Helvetica,sans-Serif" font-size="10.00"> head</text>
</g>
<!-- Node8&#45;&gt;Node6 -->
<g id="edge6" class="edge">
<title>Node8&#45;&gt;Node6</title>
<path fill="none" stroke="#9a32cd" stroke-dasharray="5,2" d="M267.14,-30.04C267.68,-36.27 267.38,-43.1 265,-49 262.08,-56.24 256.18,-62.63 250.74,-67.37"/>
<polygon fill="#9a32cd" stroke="#9a32cd" points="270.54,-29.12 265.51,-19.8 263.63,-30.22 270.54,-29.12"/>
<text text-anchor="middle" x="282" y="-41" font-family="Helvetica,sans-Serif" font-size="10.00"> stack</text>
</g>
<!-- Node9 -->
<g id="node7" class="node">
<title>Node9</title>
<g id="a_node7"><a xlink:href="structtest_resource.html" target="_top" xlink:title=" ">
<polygon fill="none" stroke="black" points="77,-67.5 77,-86.5 157,-86.5 157,-67.5 77,-67.5"/>
<text text-anchor="middle" x="117" y="-74.5" font-family="Helvetica,sans-Serif" font-size="10.00">testResource</text>
</a>
</g>
</g>
<!-- Node9&#45;&gt;Node3 -->
<g id="edge8" class="edge">
<title>Node9&#45;&gt;Node3</title>
<path fill="none" stroke="#9a32cd" stroke-dasharray="5,2" d="M117,-57.04C117,-44.67 117,-29.12 117,-19.63"/>
<polygon fill="#9a32cd" stroke="#9a32cd" points="113.5,-57.23 117,-67.23 120.5,-57.23 113.5,-57.23"/>
<text text-anchor="middle" x="142.5" y="-41" font-family="Helvetica,sans-Serif" font-size="10.00"> resources</text>
</g>
</g>
</svg>
