<?xml version="1.0" encoding="UTF-8" standalone="no"?>
<!DOCTYPE svg PUBLIC "-//W3C//DTD SVG 1.1//EN"
 "http://www.w3.org/Graphics/SVG/1.1/DTD/svg11.dtd">
<!-- Generated by graphviz version 2.43.0 (0)
 -->
<!-- Title: FiftyoneDegrees::IpIntelligence::EntityMetaDataBuilder Pages: 1 -->
<svg width="385pt" height="182pt"
 viewBox="0.00 0.00 385.00 182.00" xmlns="http://www.w3.org/2000/svg" xmlns:xlink="http://www.w3.org/1999/xlink">
<g id="graph0" class="graph" transform="scale(1 1) rotate(0) translate(4 178)">
<title>FiftyoneDegrees::IpIntelligence::EntityMetaDataBuilder</title>
<!-- Node1 -->
<g id="Node000001" class="node">
<title>Node1</title>
<g id="a_Node000001"><a xlink:title="Meta data builder class contains static helper methods used when building meta data instances.">
<polygon fill="#999999" stroke="#666666" points="168,-102 0,-102 0,-72 168,-72 168,-102"/>
<text text-anchor="start" x="8" y="-90" font-family="Helvetica,sans-Serif" font-size="10.00">FiftyoneDegrees::IpIntelligence</text>
<text text-anchor="middle" x="84" y="-79" font-family="Helvetica,sans-Serif" font-size="10.00">::EntityMetaDataBuilder</text>
</a>
</g>
</g>
<!-- Node2 -->
<g id="Node000002" class="node">
<title>Node2</title>
<g id="a_Node000002"><a xlink:href="class_fiftyone_degrees_1_1_ip_intelligence_1_1_component_meta_data_builder_ipi.html" target="_top" xlink:title="Meta data builder class contains static helper methods used when building component meta data instanc...">
<polygon fill="white" stroke="#666666" points="377,-174 204,-174 204,-144 377,-144 377,-174"/>
<text text-anchor="start" x="212" y="-162" font-family="Helvetica,sans-Serif" font-size="10.00">FiftyoneDegrees::IpIntelligence</text>
<text text-anchor="middle" x="290.5" y="-151" font-family="Helvetica,sans-Serif" font-size="10.00">::ComponentMetaDataBuilderIpi</text>
</a>
</g>
</g>
<!-- Node1&#45;&gt;Node2 -->
<g id="edge1_Node000001_Node000002" class="edge">
<title>Node1&#45;&gt;Node2</title>
<g id="a_edge1_Node000001_Node000002"><a xlink:title=" ">
<path fill="none" stroke="#8b1a1a" d="M129.02,-106.1C151.27,-115.41 178.84,-126.42 204,-135 213.19,-138.13 223.04,-141.18 232.66,-143.99"/>
<polygon fill="#8b1a1a" stroke="#8b1a1a" points="130.08,-102.75 119.51,-102.09 127.36,-109.2 130.08,-102.75"/>
</a>
</g>
</g>
<!-- Node3 -->
<g id="Node000003" class="node">
<title>Node3</title>
<g id="a_Node000003"><a xlink:href="class_fiftyone_degrees_1_1_ip_intelligence_1_1_profile_meta_data_builder_ipi.html" target="_top" xlink:title="Meta data builder class contains static helper methods used when building profile meta data instances...">
<polygon fill="white" stroke="#666666" points="374.5,-126 206.5,-126 206.5,-96 374.5,-96 374.5,-126"/>
<text text-anchor="start" x="214.5" y="-114" font-family="Helvetica,sans-Serif" font-size="10.00">FiftyoneDegrees::IpIntelligence</text>
<text text-anchor="middle" x="290.5" y="-103" font-family="Helvetica,sans-Serif" font-size="10.00">::ProfileMetaDataBuilderIpi</text>
</a>
</g>
</g>
<!-- Node1&#45;&gt;Node3 -->
<g id="edge2_Node000001_Node000003" class="edge">
<title>Node1&#45;&gt;Node3</title>
<g id="a_edge2_Node000001_Node000003"><a xlink:title=" ">
<path fill="none" stroke="#8b1a1a" d="M178.29,-97.95C187.67,-99.05 197.14,-100.16 206.4,-101.25"/>
<polygon fill="#8b1a1a" stroke="#8b1a1a" points="178.52,-94.45 168.18,-96.76 177.7,-101.4 178.52,-94.45"/>
</a>
</g>
</g>
<!-- Node4 -->
<g id="Node000004" class="node">
<title>Node4</title>
<g id="a_Node000004"><a xlink:href="class_fiftyone_degrees_1_1_ip_intelligence_1_1_property_meta_data_builder_ipi.html" target="_top" xlink:title="Meta data builder class contains static helper methods used when building property meta data instance...">
<polygon fill="white" stroke="#666666" points="374.5,-78 206.5,-78 206.5,-48 374.5,-48 374.5,-78"/>
<text text-anchor="start" x="214.5" y="-66" font-family="Helvetica,sans-Serif" font-size="10.00">FiftyoneDegrees::IpIntelligence</text>
<text text-anchor="middle" x="290.5" y="-55" font-family="Helvetica,sans-Serif" font-size="10.00">::PropertyMetaDataBuilderIpi</text>
</a>
</g>
</g>
<!-- Node1&#45;&gt;Node4 -->
<g id="edge3_Node000001_Node000004" class="edge">
<title>Node1&#45;&gt;Node4</title>
<g id="a_edge3_Node000001_Node000004"><a xlink:title=" ">
<path fill="none" stroke="#8b1a1a" d="M178.29,-76.05C187.67,-74.95 197.14,-73.84 206.4,-72.75"/>
<polygon fill="#8b1a1a" stroke="#8b1a1a" points="177.7,-72.6 168.18,-77.24 178.52,-79.55 177.7,-72.6"/>
</a>
</g>
</g>
<!-- Node5 -->
<g id="Node000005" class="node">
<title>Node5</title>
<g id="a_Node000005"><a xlink:href="class_fiftyone_degrees_1_1_ip_intelligence_1_1_value_meta_data_builder_ipi.html" target="_top" xlink:title="Meta data builder class contains static helper methods used when building value meta data instances f...">
<polygon fill="white" stroke="#666666" points="374.5,-30 206.5,-30 206.5,0 374.5,0 374.5,-30"/>
<text text-anchor="start" x="214.5" y="-18" font-family="Helvetica,sans-Serif" font-size="10.00">FiftyoneDegrees::IpIntelligence</text>
<text text-anchor="middle" x="290.5" y="-7" font-family="Helvetica,sans-Serif" font-size="10.00">::ValueMetaDataBuilderIpi</text>
</a>
</g>
</g>
<!-- Node1&#45;&gt;Node5 -->
<g id="edge4_Node000001_Node000005" class="edge">
<title>Node1&#45;&gt;Node5</title>
<g id="a_edge4_Node000001_Node000005"><a xlink:title=" ">
<path fill="none" stroke="#8b1a1a" d="M129.02,-67.9C151.27,-58.59 178.84,-47.58 204,-39 213.19,-35.87 223.04,-32.82 232.66,-30.01"/>
<polygon fill="#8b1a1a" stroke="#8b1a1a" points="127.36,-64.8 119.51,-71.91 130.08,-71.25 127.36,-64.8"/>
</a>
</g>
</g>
</g>
</svg>
