<?xml version="1.0" encoding="UTF-8" standalone="no"?>
<!DOCTYPE svg PUBLIC "-//W3C//DTD SVG 1.1//EN"
 "http://www.w3.org/Graphics/SVG/1.1/DTD/svg11.dtd">
<!-- Generated by graphviz version 2.43.0 (0)
 -->
<!-- Title: FiftyoneDegrees::Examples::IpIntelligence::ExampleBase Pages: 1 -->
<svg width="399pt" height="230pt"
 viewBox="0.00 0.00 399.00 230.00" xmlns="http://www.w3.org/2000/svg" xmlns:xlink="http://www.w3.org/1999/xlink">
<g id="graph0" class="graph" transform="scale(1 1) rotate(0) translate(4 226)">
<title>FiftyoneDegrees::Examples::IpIntelligence::ExampleBase</title>
<!-- Node1 -->
<g id="Node000001" class="node">
<title>Node1</title>
<g id="a_Node000001"><a xlink:title="Base class extended by all IP Intelligence examples.">
<polygon fill="#999999" stroke="#666666" points="161,-126 0,-126 0,-96 161,-96 161,-126"/>
<text text-anchor="start" x="8" y="-114" font-family="Helvetica,sans-Serif" font-size="10.00">FiftyoneDegrees::Examples</text>
<text text-anchor="middle" x="80.5" y="-103" font-family="Helvetica,sans-Serif" font-size="10.00">::IpIntelligence::ExampleBase</text>
</a>
</g>
</g>
<!-- Node2 -->
<g id="Node000002" class="node">
<title>Node2</title>
<g id="a_Node000002"><a xlink:href="class_fiftyone_degrees_1_1_examples_1_1_ip_intelligence_1_1_getting_started.html" target="_top" xlink:title="IP Intelligence Getting Started Example.">
<polygon fill="white" stroke="#666666" points="377,-222 211,-222 211,-192 377,-192 377,-222"/>
<text text-anchor="start" x="219" y="-210" font-family="Helvetica,sans-Serif" font-size="10.00">FiftyoneDegrees::Examples</text>
<text text-anchor="middle" x="294" y="-199" font-family="Helvetica,sans-Serif" font-size="10.00">::IpIntelligence::GettingStarted</text>
</a>
</g>
</g>
<!-- Node1&#45;&gt;Node2 -->
<g id="edge1_Node000001_Node000002" class="edge">
<title>Node1&#45;&gt;Node2</title>
<g id="a_edge1_Node000001_Node000002"><a xlink:title=" ">
<path fill="none" stroke="#63b8ff" d="M109.71,-132.1C132.29,-148.1 165.31,-169.56 197,-183 204.99,-186.39 213.56,-189.37 222.17,-191.98"/>
<polygon fill="#63b8ff" stroke="#63b8ff" points="111.46,-129.05 101.3,-126.05 107.38,-134.73 111.46,-129.05"/>
</a>
</g>
</g>
<!-- Node3 -->
<g id="Node000003" class="node">
<title>Node3</title>
<g id="a_Node000003"><a xlink:href="class_fiftyone_degrees_1_1_examples_1_1_ip_intelligence_1_1_meta_data_example.html" target="_top" xlink:title="IP Intelligence Meta Data Example.">
<polygon fill="white" stroke="#666666" points="386.5,-174 201.5,-174 201.5,-144 386.5,-144 386.5,-174"/>
<text text-anchor="start" x="209.5" y="-162" font-family="Helvetica,sans-Serif" font-size="10.00">FiftyoneDegrees::Examples</text>
<text text-anchor="middle" x="294" y="-151" font-family="Helvetica,sans-Serif" font-size="10.00">::IpIntelligence::MetaDataExample</text>
</a>
</g>
</g>
<!-- Node1&#45;&gt;Node3 -->
<g id="edge2_Node000001_Node000003" class="edge">
<title>Node1&#45;&gt;Node3</title>
<g id="a_edge2_Node000001_Node000003"><a xlink:title=" ">
<path fill="none" stroke="#63b8ff" d="M157.74,-128.3C180.37,-133.44 204.96,-139.02 226.9,-144"/>
<polygon fill="#63b8ff" stroke="#63b8ff" points="158.37,-124.86 147.84,-126.06 156.82,-131.68 158.37,-124.86"/>
</a>
</g>
</g>
<!-- Node4 -->
<g id="Node000004" class="node">
<title>Node4</title>
<g id="a_Node000004"><a xlink:href="class_fiftyone_degrees_1_1_examples_1_1_ip_intelligence_1_1_reload_from_file.html" target="_top" xlink:title="IP Intelligence Reload From File Example.">
<polygon fill="white" stroke="#666666" points="379,-126 209,-126 209,-96 379,-96 379,-126"/>
<text text-anchor="start" x="217" y="-114" font-family="Helvetica,sans-Serif" font-size="10.00">FiftyoneDegrees::Examples</text>
<text text-anchor="middle" x="294" y="-103" font-family="Helvetica,sans-Serif" font-size="10.00">::IpIntelligence::ReloadFromFile</text>
</a>
</g>
</g>
<!-- Node1&#45;&gt;Node4 -->
<g id="edge3_Node000001_Node000004" class="edge">
<title>Node1&#45;&gt;Node4</title>
<g id="a_edge3_Node000001_Node000004"><a xlink:title=" ">
<path fill="none" stroke="#63b8ff" d="M171.48,-111C183.87,-111 196.55,-111 208.83,-111"/>
<polygon fill="#63b8ff" stroke="#63b8ff" points="171.16,-107.5 161.16,-111 171.16,-114.5 171.16,-107.5"/>
</a>
</g>
</g>
<!-- Node5 -->
<g id="Node000005" class="node">
<title>Node5</title>
<g id="a_Node000005"><a xlink:href="class_fiftyone_degrees_1_1_examples_1_1_ip_intelligence_1_1_reload_from_memory.html" target="_top" xlink:title="IP Intelligence Reload From Memory Example.">
<polygon fill="white" stroke="#666666" points="391,-78 197,-78 197,-48 391,-48 391,-78"/>
<text text-anchor="start" x="205" y="-66" font-family="Helvetica,sans-Serif" font-size="10.00">FiftyoneDegrees::Examples</text>
<text text-anchor="middle" x="294" y="-55" font-family="Helvetica,sans-Serif" font-size="10.00">::IpIntelligence::ReloadFromMemory</text>
</a>
</g>
</g>
<!-- Node1&#45;&gt;Node5 -->
<g id="edge4_Node000001_Node000005" class="edge">
<title>Node1&#45;&gt;Node5</title>
<g id="a_edge4_Node000001_Node000005"><a xlink:title=" ">
<path fill="none" stroke="#63b8ff" d="M157.74,-93.7C180.37,-88.56 204.96,-82.98 226.9,-78"/>
<polygon fill="#63b8ff" stroke="#63b8ff" points="156.82,-90.32 147.84,-95.94 158.37,-97.14 156.82,-90.32"/>
</a>
</g>
</g>
<!-- Node6 -->
<g id="Node000006" class="node">
<title>Node6</title>
<g id="a_Node000006"><a xlink:href="class_fiftyone_degrees_1_1_examples_1_1_ip_intelligence_1_1_strongly_typed.html" target="_top" xlink:title="IP Intelligence Strongly Typed Example.">
<polygon fill="white" stroke="#666666" points="376,-30 212,-30 212,0 376,0 376,-30"/>
<text text-anchor="start" x="220" y="-18" font-family="Helvetica,sans-Serif" font-size="10.00">FiftyoneDegrees::Examples</text>
<text text-anchor="middle" x="294" y="-7" font-family="Helvetica,sans-Serif" font-size="10.00">::IpIntelligence::StronglyTyped</text>
</a>
</g>
</g>
<!-- Node1&#45;&gt;Node6 -->
<g id="edge5_Node000001_Node000006" class="edge">
<title>Node1&#45;&gt;Node6</title>
<g id="a_edge5_Node000001_Node000006"><a xlink:title=" ">
<path fill="none" stroke="#63b8ff" d="M109.71,-89.9C132.29,-73.9 165.31,-52.44 197,-39 204.99,-35.61 213.56,-32.63 222.17,-30.02"/>
<polygon fill="#63b8ff" stroke="#63b8ff" points="107.38,-87.27 101.3,-95.95 111.46,-92.95 107.38,-87.27"/>
</a>
</g>
</g>
</g>
</svg>
