<?xml version="1.0" encoding="UTF-8" standalone="no"?>
<!DOCTYPE svg PUBLIC "-//W3C//DTD SVG 1.1//EN"
 "http://www.w3.org/Graphics/SVG/1.1/DTD/svg11.dtd">
<!-- Generated by graphviz version 2.43.0 (0)
 -->
<!-- Title: FiftyoneDegrees::Common::Collection&lt; K, V &gt; Pages: 1 -->
<svg width="835pt" height="590pt"
 viewBox="0.00 0.00 835.00 590.00" xmlns="http://www.w3.org/2000/svg" xmlns:xlink="http://www.w3.org/1999/xlink">
<g id="graph0" class="graph" transform="scale(1 1) rotate(0) translate(4 586)">
<title>FiftyoneDegrees::Common::Collection&lt; K, V &gt;</title>
<!-- Node0 -->
<g id="node1" class="node">
<title>Node0</title>
<g id="a_node1"><a xlink:title="A group of items accessible by index or key.">
<polygon fill="#bfbfbf" stroke="black" points="0,-291 0,-321 146,-321 146,-291 0,-291"/>
<text text-anchor="start" x="8" y="-309" font-family="Helvetica,sans-Serif" font-size="10.00">FiftyoneDegrees::Common</text>
<text text-anchor="middle" x="73" y="-298" font-family="Helvetica,sans-Serif" font-size="10.00">::Collection&lt; K, V &gt;</text>
</a>
</g>
</g>
<!-- Node1 -->
<g id="node2" class="node">
<title>Node1</title>
<g id="a_node2"><a xlink:href="class_fiftyone_degrees_1_1_ip_intelligence_1_1_component_meta_data_collection_ipi.html" target="_top" xlink:title="A collection of component meta data contained in a IP Intelligence engine.">
<polygon fill="none" stroke="black" points="365,-540.5 365,-581.5 553,-581.5 553,-540.5 365,-540.5"/>
<text text-anchor="start" x="373" y="-569.5" font-family="Helvetica,sans-Serif" font-size="10.00">FiftyoneDegrees::IpIntelligence</text>
<text text-anchor="start" x="373" y="-558.5" font-family="Helvetica,sans-Serif" font-size="10.00">::ComponentMetaDataCollectionIpi</text>
<text text-anchor="middle" x="459" y="-547.5" font-family="Helvetica,sans-Serif" font-size="10.00">&lt;::byte, ComponentMetaData &gt;</text>
</a>
</g>
</g>
<!-- Node0&#45;&gt;Node1 -->
<g id="edge1" class="edge">
<title>Node0&#45;&gt;Node1</title>
<path fill="none" stroke="midnightblue" d="M84.82,-330.73C99.15,-361.04 126.98,-412.39 164,-445 220.93,-495.14 302.11,-524.95 364.75,-541.77"/>
<polygon fill="midnightblue" stroke="midnightblue" points="87.85,-328.93 80.49,-321.31 81.49,-331.86 87.85,-328.93"/>
</g>
<!-- Node2 -->
<g id="node3" class="node">
<title>Node2</title>
<g id="a_node3"><a xlink:href="class_fiftyone_degrees_1_1_ip_intelligence_1_1_profile_meta_data_collection_ipi.html" target="_top" xlink:title="A collection of all profile meta data contained in an IP Intelligence engine.">
<polygon fill="none" stroke="black" points="375,-480.5 375,-521.5 543,-521.5 543,-480.5 375,-480.5"/>
<text text-anchor="start" x="383" y="-509.5" font-family="Helvetica,sans-Serif" font-size="10.00">FiftyoneDegrees::IpIntelligence</text>
<text text-anchor="start" x="383" y="-498.5" font-family="Helvetica,sans-Serif" font-size="10.00">::ProfileMetaDataCollectionIpi</text>
<text text-anchor="middle" x="459" y="-487.5" font-family="Helvetica,sans-Serif" font-size="10.00">&lt; uint32_t, ProfileMetaData &gt;</text>
</a>
</g>
</g>
<!-- Node0&#45;&gt;Node2 -->
<g id="edge2" class="edge">
<title>Node0&#45;&gt;Node2</title>
<path fill="none" stroke="midnightblue" d="M92.97,-329.16C109.95,-348.74 136.37,-376.47 164,-395 228.56,-438.29 312.92,-466.32 374.71,-482.62"/>
<polygon fill="midnightblue" stroke="midnightblue" points="95.44,-326.67 86.29,-321.32 90.11,-331.21 95.44,-326.67"/>
</g>
<!-- Node3 -->
<g id="node4" class="node">
<title>Node3</title>
<g id="a_node4"><a xlink:href="class_fiftyone_degrees_1_1_ip_intelligence_1_1_property_meta_data_collection_for_component_ipi.html" target="_top" xlink:title="A collection of property meta data relating to a component contained in an IP Intelligence engine.">
<polygon fill="none" stroke="black" points="343,-420.5 343,-461.5 575,-461.5 575,-420.5 343,-420.5"/>
<text text-anchor="start" x="351" y="-449.5" font-family="Helvetica,sans-Serif" font-size="10.00">FiftyoneDegrees::IpIntelligence</text>
<text text-anchor="start" x="351" y="-438.5" font-family="Helvetica,sans-Serif" font-size="10.00">::PropertyMetaDataCollectionForComponent</text>
<text text-anchor="middle" x="459" y="-427.5" font-family="Helvetica,sans-Serif" font-size="10.00">Ipi&lt; string, PropertyMetaData &gt;</text>
</a>
</g>
</g>
<!-- Node0&#45;&gt;Node3 -->
<g id="edge3" class="edge">
<title>Node0&#45;&gt;Node3</title>
<path fill="none" stroke="midnightblue" d="M107.36,-326.19C124,-335.73 144.65,-346.8 164,-355 230.35,-383.12 308.82,-405.57 368,-420.47"/>
<polygon fill="midnightblue" stroke="midnightblue" points="108.97,-323.08 98.56,-321.08 105.45,-329.13 108.97,-323.08"/>
</g>
<!-- Node4 -->
<g id="node5" class="node">
<title>Node4</title>
<g id="a_node5"><a xlink:href="class_fiftyone_degrees_1_1_ip_intelligence_1_1_property_meta_data_collection_for_property_ipi.html" target="_top" xlink:title=" ">
<polygon fill="none" stroke="black" points="350.5,-360.5 350.5,-401.5 567.5,-401.5 567.5,-360.5 350.5,-360.5"/>
<text text-anchor="start" x="358.5" y="-389.5" font-family="Helvetica,sans-Serif" font-size="10.00">FiftyoneDegrees::IpIntelligence</text>
<text text-anchor="start" x="358.5" y="-378.5" font-family="Helvetica,sans-Serif" font-size="10.00">::PropertyMetaDataCollectionForProperty</text>
<text text-anchor="middle" x="459" y="-367.5" font-family="Helvetica,sans-Serif" font-size="10.00">Ipi&lt; string, PropertyMetaData &gt;</text>
</a>
</g>
</g>
<!-- Node0&#45;&gt;Node4 -->
<g id="edge4" class="edge">
<title>Node0&#45;&gt;Node4</title>
<path fill="none" stroke="midnightblue" d="M150.68,-323.22C155.18,-324.18 159.65,-325.11 164,-326 225.56,-338.59 294.6,-351.57 350.31,-361.75"/>
<polygon fill="midnightblue" stroke="midnightblue" points="151.3,-319.78 140.79,-321.1 149.83,-326.62 151.3,-319.78"/>
</g>
<!-- Node5 -->
<g id="node6" class="node">
<title>Node5</title>
<g id="a_node6"><a xlink:href="class_fiftyone_degrees_1_1_ip_intelligence_1_1_property_meta_data_collection_ipi.html" target="_top" xlink:title="A collection of all property meta data contained in an IP Intelligence engine.">
<polygon fill="none" stroke="black" points="372.5,-300.5 372.5,-341.5 545.5,-341.5 545.5,-300.5 372.5,-300.5"/>
<text text-anchor="start" x="380.5" y="-329.5" font-family="Helvetica,sans-Serif" font-size="10.00">FiftyoneDegrees::IpIntelligence</text>
<text text-anchor="start" x="380.5" y="-318.5" font-family="Helvetica,sans-Serif" font-size="10.00">::PropertyMetaDataCollectionIpi</text>
<text text-anchor="middle" x="459" y="-307.5" font-family="Helvetica,sans-Serif" font-size="10.00">&lt; string, PropertyMetaData &gt;</text>
</a>
</g>
</g>
<!-- Node0&#45;&gt;Node5 -->
<g id="edge5" class="edge">
<title>Node0&#45;&gt;Node5</title>
<path fill="none" stroke="midnightblue" d="M156.23,-309.21C219.9,-311.7 307.82,-315.13 372.34,-317.65"/>
<polygon fill="midnightblue" stroke="midnightblue" points="156.36,-305.71 146.23,-308.82 156.08,-312.71 156.36,-305.71"/>
</g>
<!-- Node6 -->
<g id="node7" class="node">
<title>Node6</title>
<g id="a_node7"><a xlink:href="class_fiftyone_degrees_1_1_ip_intelligence_1_1_value_meta_data_collection_base_ipi.html" target="_top" xlink:title="A collection of all value meta data contained in an IP Intelligence engine.">
<polygon fill="none" stroke="black" points="352.5,-240.5 352.5,-281.5 565.5,-281.5 565.5,-240.5 352.5,-240.5"/>
<text text-anchor="start" x="360.5" y="-269.5" font-family="Helvetica,sans-Serif" font-size="10.00">FiftyoneDegrees::IpIntelligence</text>
<text text-anchor="start" x="360.5" y="-258.5" font-family="Helvetica,sans-Serif" font-size="10.00">::ValueMetaDataCollectionBaseIpi</text>
<text text-anchor="middle" x="459" y="-247.5" font-family="Helvetica,sans-Serif" font-size="10.00">&lt; ValueMetaDataKey, ValueMetaData &gt;</text>
</a>
</g>
</g>
<!-- Node0&#45;&gt;Node6 -->
<g id="edge6" class="edge">
<title>Node0&#45;&gt;Node6</title>
<path fill="none" stroke="midnightblue" d="M156.33,-296.35C213.63,-289.64 290.55,-280.62 352.37,-273.38"/>
<polygon fill="midnightblue" stroke="midnightblue" points="155.75,-292.9 146.23,-297.54 156.57,-299.85 155.75,-292.9"/>
</g>
<!-- Node10 -->
<g id="node11" class="node">
<title>Node10</title>
<g id="a_node11"><a xlink:href="class_fiftyone_degrees_1_1_common_1_1_collection.html" target="_top" xlink:title=" ">
<polygon fill="none" stroke="black" points="374,-180.5 374,-221.5 544,-221.5 544,-180.5 374,-180.5"/>
<text text-anchor="start" x="382" y="-209.5" font-family="Helvetica,sans-Serif" font-size="10.00">FiftyoneDegrees::Common</text>
<text text-anchor="start" x="382" y="-198.5" font-family="Helvetica,sans-Serif" font-size="10.00">::Collection&lt;::byte, Component</text>
<text text-anchor="middle" x="459" y="-187.5" font-family="Helvetica,sans-Serif" font-size="10.00">MetaData &gt;</text>
</a>
</g>
</g>
<!-- Node0&#45;&gt;Node10 -->
<g id="edge10" class="edge">
<title>Node0&#45;&gt;Node10</title>
<path fill="none" stroke="orange" stroke-dasharray="5,2" d="M108.75,-285.94C125.09,-277.22 145.09,-267.53 164,-261 232.81,-237.24 314.11,-221.54 373.75,-212.18"/>
<polygon fill="orange" stroke="orange" points="106.7,-283.07 99.6,-290.93 110.05,-289.22 106.7,-283.07"/>
<text text-anchor="middle" x="244.5" y="-264" font-family="Helvetica,sans-Serif" font-size="10.00"> &lt;::byte, ComponentMetaData &gt;</text>
</g>
<!-- Node11 -->
<g id="node12" class="node">
<title>Node11</title>
<g id="a_node12"><a xlink:href="class_fiftyone_degrees_1_1_common_1_1_collection.html" target="_top" xlink:title=" ">
<polygon fill="none" stroke="black" points="386,-120.5 386,-161.5 532,-161.5 532,-120.5 386,-120.5"/>
<text text-anchor="start" x="394" y="-149.5" font-family="Helvetica,sans-Serif" font-size="10.00">FiftyoneDegrees::Common</text>
<text text-anchor="start" x="394" y="-138.5" font-family="Helvetica,sans-Serif" font-size="10.00">::Collection&lt; string,</text>
<text text-anchor="middle" x="459" y="-127.5" font-family="Helvetica,sans-Serif" font-size="10.00"> PropertyMetaData &gt;</text>
</a>
</g>
</g>
<!-- Node0&#45;&gt;Node11 -->
<g id="edge11" class="edge">
<title>Node0&#45;&gt;Node11</title>
<path fill="none" stroke="orange" stroke-dasharray="5,2" d="M88.92,-282.21C104.7,-259.09 131.76,-224.8 164,-206 232.64,-165.98 323.42,-150.57 385.85,-144.65"/>
<polygon fill="orange" stroke="orange" points="85.86,-280.49 83.24,-290.76 91.69,-284.36 85.86,-280.49"/>
<text text-anchor="middle" x="244.5" y="-209" font-family="Helvetica,sans-Serif" font-size="10.00"> &lt; string, PropertyMetaData &gt;</text>
</g>
<!-- Node12 -->
<g id="node13" class="node">
<title>Node12</title>
<g id="a_node13"><a xlink:href="class_fiftyone_degrees_1_1_common_1_1_collection.html" target="_top" xlink:title=" ">
<polygon fill="none" stroke="black" points="369.5,-60.5 369.5,-101.5 548.5,-101.5 548.5,-60.5 369.5,-60.5"/>
<text text-anchor="start" x="377.5" y="-89.5" font-family="Helvetica,sans-Serif" font-size="10.00">FiftyoneDegrees::Common</text>
<text text-anchor="start" x="377.5" y="-78.5" font-family="Helvetica,sans-Serif" font-size="10.00">::Collection&lt; ValueMetaDataKey,</text>
<text text-anchor="middle" x="459" y="-67.5" font-family="Helvetica,sans-Serif" font-size="10.00"> ValueMetaData &gt;</text>
</a>
</g>
</g>
<!-- Node0&#45;&gt;Node12 -->
<g id="edge12" class="edge">
<title>Node0&#45;&gt;Node12</title>
<path fill="none" stroke="orange" stroke-dasharray="5,2" d="M79.11,-281.12C88.55,-241.96 112.63,-166.54 164,-129 222.98,-85.9 306.38,-75.75 369.29,-75.31"/>
<polygon fill="orange" stroke="orange" points="75.69,-280.39 76.87,-290.92 82.51,-281.95 75.69,-280.39"/>
<text text-anchor="start" x="189" y="-143" font-family="Helvetica,sans-Serif" font-size="10.00"> &lt; ValueMetaDataKey,</text>
<text text-anchor="middle" x="244.5" y="-132" font-family="Helvetica,sans-Serif" font-size="10.00"> ValueMetaData &gt;</text>
</g>
<!-- Node13 -->
<g id="node14" class="node">
<title>Node13</title>
<g id="a_node14"><a xlink:href="class_fiftyone_degrees_1_1_common_1_1_collection.html" target="_top" xlink:title=" ">
<polygon fill="none" stroke="black" points="386,-0.5 386,-41.5 532,-41.5 532,-0.5 386,-0.5"/>
<text text-anchor="start" x="394" y="-29.5" font-family="Helvetica,sans-Serif" font-size="10.00">FiftyoneDegrees::Common</text>
<text text-anchor="start" x="394" y="-18.5" font-family="Helvetica,sans-Serif" font-size="10.00">::Collection&lt; uint32_t,</text>
<text text-anchor="middle" x="459" y="-7.5" font-family="Helvetica,sans-Serif" font-size="10.00"> ProfileMetaData &gt;</text>
</a>
</g>
</g>
<!-- Node0&#45;&gt;Node13 -->
<g id="edge13" class="edge">
<title>Node0&#45;&gt;Node13</title>
<path fill="none" stroke="orange" stroke-dasharray="5,2" d="M75.26,-280.71C79.22,-230.45 95.67,-118.14 164,-63 226.19,-12.81 320.85,-8 385.86,-12.02"/>
<polygon fill="orange" stroke="orange" points="71.76,-280.5 74.57,-290.72 78.74,-280.98 71.76,-280.5"/>
<text text-anchor="middle" x="244.5" y="-66" font-family="Helvetica,sans-Serif" font-size="10.00"> &lt; uint32_t, ProfileMetaData &gt;</text>
</g>
<!-- Node7 -->
<g id="node8" class="node">
<title>Node7</title>
<g id="a_node8"><a xlink:href="class_fiftyone_degrees_1_1_ip_intelligence_1_1_value_meta_data_collection_for_profile_ipi.html" target="_top" xlink:title="A collection of value meta data relating to a profile contained in an IP Intelligence engine.">
<polygon fill="none" stroke="black" points="617.5,-295 617.5,-325 821.5,-325 821.5,-295 617.5,-295"/>
<text text-anchor="start" x="625.5" y="-313" font-family="Helvetica,sans-Serif" font-size="10.00">FiftyoneDegrees::IpIntelligence</text>
<text text-anchor="middle" x="719.5" y="-302" font-family="Helvetica,sans-Serif" font-size="10.00">::ValueMetaDataCollectionForProfileIpi</text>
</a>
</g>
</g>
<!-- Node6&#45;&gt;Node7 -->
<g id="edge7" class="edge">
<title>Node6&#45;&gt;Node7</title>
<path fill="none" stroke="midnightblue" d="M575.36,-282.87C596.88,-286.95 618.93,-291.13 639.06,-294.94"/>
<polygon fill="midnightblue" stroke="midnightblue" points="575.99,-279.42 565.51,-281 574.69,-286.3 575.99,-279.42"/>
</g>
<!-- Node8 -->
<g id="node9" class="node">
<title>Node8</title>
<g id="a_node9"><a xlink:href="class_fiftyone_degrees_1_1_ip_intelligence_1_1_value_meta_data_collection_for_property_ipi.html" target="_top" xlink:title="A collection of value meta data relating to a property contained in an IP Intelligence engine.">
<polygon fill="none" stroke="black" points="612,-246 612,-276 827,-276 827,-246 612,-246"/>
<text text-anchor="start" x="620" y="-264" font-family="Helvetica,sans-Serif" font-size="10.00">FiftyoneDegrees::IpIntelligence</text>
<text text-anchor="middle" x="719.5" y="-253" font-family="Helvetica,sans-Serif" font-size="10.00">::ValueMetaDataCollectionForPropertyIpi</text>
</a>
</g>
</g>
<!-- Node6&#45;&gt;Node8 -->
<g id="edge8" class="edge">
<title>Node6&#45;&gt;Node8</title>
<path fill="none" stroke="midnightblue" d="M575.56,-261C587.57,-261 599.74,-261 611.65,-261"/>
<polygon fill="midnightblue" stroke="midnightblue" points="575.51,-257.5 565.51,-261 575.51,-264.5 575.51,-257.5"/>
</g>
<!-- Node9 -->
<g id="node10" class="node">
<title>Node9</title>
<g id="a_node10"><a xlink:href="class_fiftyone_degrees_1_1_ip_intelligence_1_1_value_meta_data_collection_ipi.html" target="_top" xlink:title="A collection of all value meta data contained in a IP Intelligence engine.">
<polygon fill="none" stroke="black" points="635.5,-197 635.5,-227 803.5,-227 803.5,-197 635.5,-197"/>
<text text-anchor="start" x="643.5" y="-215" font-family="Helvetica,sans-Serif" font-size="10.00">FiftyoneDegrees::IpIntelligence</text>
<text text-anchor="middle" x="719.5" y="-204" font-family="Helvetica,sans-Serif" font-size="10.00">::ValueMetaDataCollectionIpi</text>
</a>
</g>
</g>
<!-- Node6&#45;&gt;Node9 -->
<g id="edge9" class="edge">
<title>Node6&#45;&gt;Node9</title>
<path fill="none" stroke="midnightblue" d="M575.36,-239.13C596.88,-235.05 618.93,-230.87 639.06,-227.06"/>
<polygon fill="midnightblue" stroke="midnightblue" points="574.69,-235.7 565.51,-241 575.99,-242.58 574.69,-235.7"/>
</g>
</g>
</svg>
