<?xml version="1.0" encoding="UTF-8" standalone="no"?>
<!DOCTYPE svg PUBLIC "-//W3C//DTD SVG 1.1//EN"
 "http://www.w3.org/Graphics/SVG/1.1/DTD/svg11.dtd">
<!-- Generated by graphviz version 2.43.0 (0)
 -->
<!-- Title: FiftyoneDegrees::IpIntelligence::ResultsIpi Pages: 1 -->
<svg width="453pt" height="428pt"
 viewBox="0.00 0.00 452.50 428.00" xmlns="http://www.w3.org/2000/svg" xmlns:xlink="http://www.w3.org/1999/xlink">
<g id="graph0" class="graph" transform="scale(1 1) rotate(0) translate(4 424)">
<title>FiftyoneDegrees::IpIntelligence::ResultsIpi</title>
<!-- Node1 -->
<g id="Node000001" class="node">
<title>Node1</title>
<g id="a_Node000001"><a xlink:title="Encapsulates the results of an IP Intelligence engine&#39;s processing.">
<polygon fill="#999999" stroke="#666666" points="428.5,-30 260.5,-30 260.5,0 428.5,0 428.5,-30"/>
<text text-anchor="start" x="268.5" y="-18" font-family="Helvetica,sans-Serif" font-size="10.00">FiftyoneDegrees::IpIntelligence</text>
<text text-anchor="middle" x="344.5" y="-7" font-family="Helvetica,sans-Serif" font-size="10.00">::ResultsIpi</text>
</a>
</g>
</g>
<!-- Node2 -->
<g id="Node000002" class="node">
<title>Node2</title>
<g id="a_Node000002"><a xlink:href="class_fiftyone_degrees_1_1_common_1_1_results_base.html" target="_top" xlink:title="Encapsulates the results of an engine&#39;s processing.">
<polygon fill="white" stroke="#666666" points="417.5,-97 271.5,-97 271.5,-67 417.5,-67 417.5,-97"/>
<text text-anchor="start" x="279.5" y="-85" font-family="Helvetica,sans-Serif" font-size="10.00">FiftyoneDegrees::Common</text>
<text text-anchor="middle" x="344.5" y="-74" font-family="Helvetica,sans-Serif" font-size="10.00">::ResultsBase</text>
</a>
</g>
</g>
<!-- Node2&#45;&gt;Node1 -->
<g id="edge1_Node000001_Node000002" class="edge">
<title>Node2&#45;&gt;Node1</title>
<g id="a_edge1_Node000001_Node000002"><a xlink:title=" ">
<path fill="none" stroke="#63b8ff" d="M344.5,-56.61C344.5,-47.65 344.5,-37.82 344.5,-30.08"/>
<polygon fill="#63b8ff" stroke="#63b8ff" points="341,-56.9 344.5,-66.9 348,-56.9 341,-56.9"/>
</a>
</g>
</g>
<!-- Node3 -->
<g id="Node000003" class="node">
<title>Node3</title>
<g id="a_Node000003"><a xlink:href="structfiftyone_degrees_property_available_array.html" target="_top" xlink:title="Array of items of type fiftyoneDegreesPropertyAvailable used to easily access and track the size of t...">
<polygon fill="white" stroke="#666666" points="434.5,-180 254.5,-180 254.5,-150 434.5,-150 434.5,-180"/>
<text text-anchor="start" x="262.5" y="-168" font-family="Helvetica,sans-Serif" font-size="10.00">fiftyoneDegreesPropertyAvailable</text>
<text text-anchor="middle" x="344.5" y="-157" font-family="Helvetica,sans-Serif" font-size="10.00">Array</text>
</a>
</g>
</g>
<!-- Node3&#45;&gt;Node2 -->
<g id="edge2_Node000002_Node000003" class="edge">
<title>Node3&#45;&gt;Node2</title>
<g id="a_edge2_Node000002_Node000003"><a xlink:title=" ">
<path fill="none" stroke="#9a32cd" stroke-dasharray="5,2" d="M344.5,-139.59C344.5,-125.75 344.5,-108.91 344.5,-97.22"/>
<polygon fill="#9a32cd" stroke="#9a32cd" points="341,-139.89 344.5,-149.89 348,-139.89 341,-139.89"/>
</a>
</g>
<text text-anchor="start" x="347.5" y="-120.5" font-family="Helvetica,sans-Serif" font-size="10.00" fill="grey">available</text>
</g>
<!-- Node4 -->
<g id="Node000004" class="node">
<title>Node4</title>
<g id="a_Node000004"><a xlink:href="structfiftyone_degrees_property_available.html" target="_top" xlink:title="Used to access the property item quickly without the need to search.">
<polygon fill="white" stroke="#666666" points="434.5,-258.5 254.5,-258.5 254.5,-239.5 434.5,-239.5 434.5,-258.5"/>
<text text-anchor="middle" x="344.5" y="-246.5" font-family="Helvetica,sans-Serif" font-size="10.00">fiftyoneDegreesPropertyAvailable</text>
</a>
</g>
</g>
<!-- Node4&#45;&gt;Node3 -->
<g id="edge3_Node000003_Node000004" class="edge">
<title>Node4&#45;&gt;Node3</title>
<g id="a_edge3_Node000003_Node000004"><a xlink:title=" ">
<path fill="none" stroke="#9a32cd" stroke-dasharray="5,2" d="M344.5,-229.11C344.5,-214.2 344.5,-193.72 344.5,-180.18"/>
<polygon fill="#9a32cd" stroke="#9a32cd" points="341,-229.22 344.5,-239.22 348,-229.22 341,-229.22"/>
</a>
</g>
<text text-anchor="start" x="347.5" y="-203.5" font-family="Helvetica,sans-Serif" font-size="10.00" fill="grey">items</text>
</g>
<!-- Node5 -->
<g id="Node000005" class="node">
<title>Node5</title>
<g id="a_Node000005"><a xlink:href="structfiftyone_degrees_collection_item.html" target="_top" xlink:title="Used to store a handle to the underlying item that could be used to release the item when it&#39;s finish...">
<polygon fill="white" stroke="#666666" points="220,-342.5 55,-342.5 55,-323.5 220,-323.5 220,-342.5"/>
<text text-anchor="middle" x="137.5" y="-330.5" font-family="Helvetica,sans-Serif" font-size="10.00">fiftyoneDegreesCollectionItem</text>
</a>
</g>
</g>
<!-- Node5&#45;&gt;Node4 -->
<g id="edge4_Node000004_Node000005" class="edge">
<title>Node5&#45;&gt;Node4</title>
<g id="a_edge4_Node000004_Node000005"><a xlink:title=" ">
<path fill="none" stroke="#9a32cd" stroke-dasharray="5,2" d="M168.56,-319.69C211.07,-302.86 286.25,-273.07 323.03,-258.5"/>
<polygon fill="#9a32cd" stroke="#9a32cd" points="167.27,-316.44 159.26,-323.38 169.85,-322.95 167.27,-316.44"/>
</a>
</g>
<text text-anchor="start" x="263.5" y="-288.5" font-family="Helvetica,sans-Serif" font-size="10.00" fill="grey">name</text>
</g>
<!-- Node7 -->
<g id="Node000007" class="node">
<title>Node7</title>
<g id="a_Node000007"><a xlink:href="structfiftyone_degrees_collection.html" target="_top" xlink:title="All the shared methods and fields required by file, memory and cached collections.">
<polygon fill="white" stroke="#666666" points="143,-258.5 0,-258.5 0,-239.5 143,-239.5 143,-258.5"/>
<text text-anchor="middle" x="71.5" y="-246.5" font-family="Helvetica,sans-Serif" font-size="10.00">fiftyoneDegreesCollection</text>
</a>
</g>
</g>
<!-- Node5&#45;&gt;Node7 -->
<g id="edge8_Node000007_Node000005" class="edge">
<title>Node5&#45;&gt;Node7</title>
<g id="a_edge8_Node000007_Node000005"><a xlink:title=" ">
<path fill="none" stroke="#9a32cd" stroke-dasharray="5,2" d="M90.78,-319.14C81.95,-314.54 73.83,-308.34 68.5,-300 60.45,-287.39 64.57,-269.16 68.14,-258.55"/>
<polygon fill="#9a32cd" stroke="#9a32cd" points="89.59,-322.44 100.14,-323.37 92.47,-316.07 89.59,-322.44"/>
</a>
</g>
<text text-anchor="start" x="72" y="-288.5" font-family="Helvetica,sans-Serif" font-size="10.00" fill="grey">release</text>
</g>
<!-- Node6 -->
<g id="Node000006" class="node">
<title>Node6</title>
<g id="a_Node000006"><a xlink:href="structfiftyone_degrees_data.html" target="_top" xlink:title="Data structure used for reusing memory which may have been allocated in a previous operation.">
<polygon fill="white" stroke="#666666" points="196,-420 79,-420 79,-401 196,-401 196,-420"/>
<text text-anchor="middle" x="137.5" y="-408" font-family="Helvetica,sans-Serif" font-size="10.00">fiftyoneDegreesData</text>
</a>
</g>
</g>
<!-- Node6&#45;&gt;Node5 -->
<g id="edge5_Node000005_Node000006" class="edge">
<title>Node6&#45;&gt;Node5</title>
<g id="a_edge5_Node000005_Node000006"><a xlink:title=" ">
<path fill="none" stroke="#9a32cd" stroke-dasharray="5,2" d="M137.5,-390.4C137.5,-375.01 137.5,-354.11 137.5,-342.56"/>
<polygon fill="#9a32cd" stroke="#9a32cd" points="134,-390.84 137.5,-400.84 141,-390.84 134,-390.84"/>
</a>
</g>
<text text-anchor="start" x="140.5" y="-371.5" font-family="Helvetica,sans-Serif" font-size="10.00" fill="grey">data</text>
</g>
<!-- Node7&#45;&gt;Node5 -->
<g id="edge6_Node000005_Node000007" class="edge">
<title>Node7&#45;&gt;Node5</title>
<g id="a_edge6_Node000005_Node000007"><a xlink:title=" ">
<path fill="none" stroke="#9a32cd" stroke-dasharray="5,2" d="M95.27,-264.46C102.44,-269.65 109.88,-275.97 115.5,-283 125.4,-295.38 131.85,-312.93 135.07,-323.32"/>
<polygon fill="#9a32cd" stroke="#9a32cd" points="96.75,-261.24 86.51,-258.53 92.83,-267.04 96.75,-261.24"/>
</a>
</g>
<text text-anchor="start" x="129.5" y="-288.5" font-family="Helvetica,sans-Serif" font-size="10.00" fill="grey">collection</text>
</g>
<!-- Node7&#45;&gt;Node7 -->
<g id="edge7_Node000007_Node000007" class="edge">
<title>Node7&#45;&gt;Node7</title>
<g id="a_edge7_Node000007_Node000007"><a xlink:title=" ">
<path fill="none" stroke="#9a32cd" stroke-dasharray="5,2" d="M153.11,-254.45C158.04,-253.16 161,-251.34 161,-249 161,-245.35 153.79,-242.97 143.13,-241.86"/>
<polygon fill="#9a32cd" stroke="#9a32cd" points="152.4,-251.02 143.13,-256.14 153.57,-257.92 152.4,-251.02"/>
</a>
</g>
<text text-anchor="start" x="164.5" y="-254" font-family="Helvetica,sans-Serif" font-size="10.00" fill="grey">freeCollection</text>
<text text-anchor="start" x="164.5" y="-239" font-family="Helvetica,sans-Serif" font-size="10.00" fill="grey">get</text>
</g>
<!-- Node8 -->
<g id="Node000008" class="node">
<title>Node8</title>
<g id="a_Node000008"><a xlink:href="structfiftyone_degrees_evidence_property_index_array.html" target="_top" xlink:title="Array of items of type fiftyoneDegreesEvidencePropertyIndex used to easily access and track the size ...">
<polygon fill="white" stroke="#666666" points="434,-348 255,-348 255,-318 434,-318 434,-348"/>
<text text-anchor="start" x="263" y="-336" font-family="Helvetica,sans-Serif" font-size="10.00">fiftyoneDegreesEvidenceProperty</text>
<text text-anchor="middle" x="344.5" y="-325" font-family="Helvetica,sans-Serif" font-size="10.00">IndexArray</text>
</a>
</g>
</g>
<!-- Node8&#45;&gt;Node4 -->
<g id="edge9_Node000004_Node000008" class="edge">
<title>Node8&#45;&gt;Node4</title>
<g id="a_edge9_Node000004_Node000008"><a xlink:title=" ">
<path fill="none" stroke="#9a32cd" stroke-dasharray="5,2" d="M344.5,-307.6C344.5,-291.03 344.5,-270.11 344.5,-258.59"/>
<polygon fill="#9a32cd" stroke="#9a32cd" points="341,-307.72 344.5,-317.72 348,-307.72 341,-307.72"/>
</a>
</g>
<text text-anchor="start" x="347.5" y="-288.5" font-family="Helvetica,sans-Serif" font-size="10.00" fill="grey">evidenceProperties</text>
</g>
</g>
</svg>
