<?xml version="1.0" encoding="UTF-8" standalone="no"?>
<!DOCTYPE svg PUBLIC "-//W3C//DTD SVG 1.1//EN"
 "http://www.w3.org/Graphics/SVG/1.1/DTD/svg11.dtd">
<!-- Generated by graphviz version 2.43.0 (0)
 -->
<!-- Title: CollectionTestData Pages: 1 -->
<svg width="504pt" height="101pt"
 viewBox="0.00 0.00 504.00 101.00" xmlns="http://www.w3.org/2000/svg" xmlns:xlink="http://www.w3.org/1999/xlink">
<g id="graph0" class="graph" transform="scale(1 1) rotate(0) translate(4 97)">
<title>CollectionTestData</title>
<!-- Node1 -->
<g id="Node000001" class="node">
<title>Node1</title>
<g id="a_Node000001"><a xlink:title=" ">
<polygon fill="#999999" stroke="#666666" points="108,-37 0,-37 0,-18 108,-18 108,-37"/>
<text text-anchor="middle" x="54" y="-25" font-family="Helvetica,sans-Serif" font-size="10.00">CollectionTestData</text>
</a>
</g>
</g>
<!-- Node2 -->
<g id="Node000002" class="node">
<title>Node2</title>
<g id="a_Node000002"><a xlink:href="class_collection_test_data_fixed.html" target="_top" xlink:title=" ">
<polygon fill="white" stroke="#bfbfbf" points="285,-56 151,-56 151,-37 285,-37 285,-56"/>
<text text-anchor="middle" x="218" y="-44" font-family="Helvetica,sans-Serif" font-size="10.00">CollectionTestDataFixed</text>
</a>
</g>
</g>
<!-- Node1&#45;&gt;Node2 -->
<g id="edge1_Node000001_Node000002" class="edge">
<title>Node1&#45;&gt;Node2</title>
<g id="a_edge1_Node000001_Node000002"><a xlink:title=" ">
<path fill="none" stroke="#63b8ff" d="M118.15,-34.91C128.87,-36.16 140.01,-37.47 150.8,-38.74"/>
<polygon fill="#63b8ff" stroke="#63b8ff" points="118.38,-31.41 108.04,-33.72 117.57,-38.36 118.38,-31.41"/>
</a>
</g>
</g>
<!-- Node5 -->
<g id="Node000005" class="node">
<title>Node5</title>
<g id="a_Node000005"><a xlink:href="class_collection_test_data_variable.html" target="_top" xlink:title=" ">
<polygon fill="white" stroke="#bfbfbf" points="292,-19 144,-19 144,0 292,0 292,-19"/>
<text text-anchor="middle" x="218" y="-7" font-family="Helvetica,sans-Serif" font-size="10.00">CollectionTestDataVariable</text>
</a>
</g>
</g>
<!-- Node1&#45;&gt;Node5 -->
<g id="edge4_Node000001_Node000005" class="edge">
<title>Node1&#45;&gt;Node5</title>
<g id="a_edge4_Node000001_Node000005"><a xlink:title=" ">
<path fill="none" stroke="#63b8ff" d="M118.15,-20.48C126.57,-19.55 135.26,-18.58 143.83,-17.63"/>
<polygon fill="#63b8ff" stroke="#63b8ff" points="117.6,-17.02 108.04,-21.61 118.37,-23.98 117.6,-17.02"/>
</a>
</g>
</g>
<!-- Node3 -->
<g id="Node000003" class="node">
<title>Node3</title>
<g id="a_Node000003"><a xlink:href="class_collection_test_data_fixed_count.html" target="_top" xlink:title=" ">
<polygon fill="white" stroke="#bfbfbf" points="493,-93 331,-93 331,-74 493,-74 493,-93"/>
<text text-anchor="middle" x="412" y="-81" font-family="Helvetica,sans-Serif" font-size="10.00">CollectionTestDataFixedCount</text>
</a>
</g>
</g>
<!-- Node2&#45;&gt;Node3 -->
<g id="edge2_Node000002_Node000003" class="edge">
<title>Node2&#45;&gt;Node3</title>
<g id="a_edge2_Node000002_Node000003"><a xlink:title=" ">
<path fill="none" stroke="#63b8ff" d="M278.41,-57.95C305.02,-63.08 336.04,-69.06 361.39,-73.94"/>
<polygon fill="#63b8ff" stroke="#63b8ff" points="278.93,-54.48 268.44,-56.03 277.6,-61.36 278.93,-54.48"/>
</a>
</g>
</g>
<!-- Node4 -->
<g id="Node000004" class="node">
<title>Node4</title>
<g id="a_Node000004"><a xlink:href="class_collection_test_data_fixed_size.html" target="_top" xlink:title=" ">
<polygon fill="white" stroke="#bfbfbf" points="489,-56 335,-56 335,-37 489,-37 489,-56"/>
<text text-anchor="middle" x="412" y="-44" font-family="Helvetica,sans-Serif" font-size="10.00">CollectionTestDataFixedSize</text>
</a>
</g>
</g>
<!-- Node2&#45;&gt;Node4 -->
<g id="edge3_Node000002_Node000004" class="edge">
<title>Node2&#45;&gt;Node4</title>
<g id="a_edge3_Node000002_Node000004"><a xlink:title=" ">
<path fill="none" stroke="#63b8ff" d="M295.38,-46.5C308.39,-46.5 321.9,-46.5 334.9,-46.5"/>
<polygon fill="#63b8ff" stroke="#63b8ff" points="295.08,-43 285.08,-46.5 295.08,-50 295.08,-43"/>
</a>
</g>
</g>
<!-- Node6 -->
<g id="Node000006" class="node">
<title>Node6</title>
<g id="a_Node000006"><a xlink:href="class_collection_test_data_variable_size.html" target="_top" xlink:title=" ">
<polygon fill="white" stroke="#bfbfbf" points="496,-19 328,-19 328,0 496,0 496,-19"/>
<text text-anchor="middle" x="412" y="-7" font-family="Helvetica,sans-Serif" font-size="10.00">CollectionTestDataVariableSize</text>
</a>
</g>
</g>
<!-- Node5&#45;&gt;Node6 -->
<g id="edge5_Node000005_Node000006" class="edge">
<title>Node5&#45;&gt;Node6</title>
<g id="a_edge5_Node000005_Node000006"><a xlink:title=" ">
<path fill="none" stroke="#63b8ff" d="M302.35,-9.5C310.79,-9.5 319.36,-9.5 327.8,-9.5"/>
<polygon fill="#63b8ff" stroke="#63b8ff" points="302.13,-6 292.13,-9.5 302.13,-13 302.13,-6"/>
</a>
</g>
</g>
</g>
</svg>
