<?xml version="1.0" encoding="UTF-8" standalone="no"?>
<!DOCTYPE svg PUBLIC "-//W3C//DTD SVG 1.1//EN"
 "http://www.w3.org/Graphics/SVG/1.1/DTD/svg11.dtd">
<!-- Generated by graphviz version 2.43.0 (0)
 -->
<!-- Title: FiftyoneDegrees::Common::EntityMetaData&lt; K &gt; Pages: 1 -->
<svg width="710pt" height="182pt"
 viewBox="0.00 0.00 710.00 182.00" xmlns="http://www.w3.org/2000/svg" xmlns:xlink="http://www.w3.org/1999/xlink">
<g id="graph0" class="graph" transform="scale(1 1) rotate(0) translate(4 178)">
<title>FiftyoneDegrees::Common::EntityMetaData&lt; K &gt;</title>
<!-- Node1 -->
<g id="Node000001" class="node">
<title>Node1</title>
<g id="a_Node000001"><a xlink:title="Base class for any entity meta data.">
<polygon fill="#999999" stroke="#666666" points="146,-102 0,-102 0,-72 146,-72 146,-102"/>
<text text-anchor="start" x="8" y="-90" font-family="Helvetica,sans-Serif" font-size="10.00">FiftyoneDegrees::Common</text>
<text text-anchor="middle" x="73" y="-79" font-family="Helvetica,sans-Serif" font-size="10.00">::EntityMetaData&lt; K &gt;</text>
</a>
</g>
</g>
<!-- Node2 -->
<g id="Node000002" class="node">
<title>Node2</title>
<g id="a_Node000002"><a xlink:href="class_fiftyone_degrees_1_1_common_1_1_entity_meta_data.html" target="_top" xlink:title=" ">
<polygon fill="white" stroke="#666666" points="484.5,-174 338.5,-174 338.5,-144 484.5,-144 484.5,-174"/>
<text text-anchor="start" x="346.5" y="-162" font-family="Helvetica,sans-Serif" font-size="10.00">FiftyoneDegrees::Common</text>
<text text-anchor="middle" x="411.5" y="-151" font-family="Helvetica,sans-Serif" font-size="10.00">::EntityMetaData&lt; byte &gt;</text>
</a>
</g>
</g>
<!-- Node1&#45;&gt;Node2 -->
<g id="edge1_Node000001_Node000002" class="edge">
<title>Node1&#45;&gt;Node2</title>
<g id="a_edge1_Node000001_Node000002"><a xlink:title=" ">
<path fill="none" stroke="orange" stroke-dasharray="5,2" d="M116.93,-105.93C131.63,-111.81 148.32,-117.83 164,-122 221.71,-137.35 288.83,-146.9 338.45,-152.45"/>
<polygon fill="orange" stroke="orange" points="118.18,-102.66 107.6,-102.11 115.53,-109.14 118.18,-102.66"/>
</a>
</g>
<text text-anchor="start" x="203" y="-150.5" font-family="Helvetica,sans-Serif" font-size="10.00" fill="grey">&lt; byte &gt;</text>
</g>
<!-- Node4 -->
<g id="Node000004" class="node">
<title>Node4</title>
<g id="a_Node000004"><a xlink:href="class_fiftyone_degrees_1_1_common_1_1_entity_meta_data.html" target="_top" xlink:title=" ">
<polygon fill="white" stroke="#666666" points="492,-126 331,-126 331,-96 492,-96 492,-126"/>
<text text-anchor="start" x="339" y="-114" font-family="Helvetica,sans-Serif" font-size="10.00">FiftyoneDegrees::Common</text>
<text text-anchor="middle" x="411.5" y="-103" font-family="Helvetica,sans-Serif" font-size="10.00">::EntityMetaData&lt; uint32_t &gt;</text>
</a>
</g>
</g>
<!-- Node1&#45;&gt;Node4 -->
<g id="edge3_Node000001_Node000004" class="edge">
<title>Node1&#45;&gt;Node4</title>
<g id="a_edge3_Node000001_Node000004"><a xlink:title=" ">
<path fill="none" stroke="orange" stroke-dasharray="5,2" d="M156.26,-92.87C209.38,-96.66 278.16,-101.56 330.78,-105.31"/>
<polygon fill="orange" stroke="orange" points="156.41,-89.37 146.19,-92.15 155.91,-96.35 156.41,-89.37"/>
</a>
</g>
<text text-anchor="start" x="194" y="-106.5" font-family="Helvetica,sans-Serif" font-size="10.00" fill="grey">&lt; uint32_t &gt;</text>
</g>
<!-- Node6 -->
<g id="Node000006" class="node">
<title>Node6</title>
<g id="a_Node000006"><a xlink:href="class_fiftyone_degrees_1_1_common_1_1_entity_meta_data.html" target="_top" xlink:title=" ">
<polygon fill="white" stroke="#666666" points="486,-78 337,-78 337,-48 486,-48 486,-78"/>
<text text-anchor="start" x="345" y="-66" font-family="Helvetica,sans-Serif" font-size="10.00">FiftyoneDegrees::Common</text>
<text text-anchor="middle" x="411.5" y="-55" font-family="Helvetica,sans-Serif" font-size="10.00">::EntityMetaData&lt; string &gt;</text>
</a>
</g>
</g>
<!-- Node1&#45;&gt;Node6 -->
<g id="edge5_Node000001_Node000006" class="edge">
<title>Node1&#45;&gt;Node6</title>
<g id="a_edge5_Node000001_Node000006"><a xlink:title=" ">
<path fill="none" stroke="orange" stroke-dasharray="5,2" d="M156.25,-72.85C158.86,-72.54 161.45,-72.26 164,-72 221.94,-66.14 287.89,-63.96 336.99,-63.21"/>
<polygon fill="orange" stroke="orange" points="155.58,-69.41 146.1,-74.14 156.46,-76.35 155.58,-69.41"/>
</a>
</g>
<text text-anchor="start" x="200" y="-77.5" font-family="Helvetica,sans-Serif" font-size="10.00" fill="grey">&lt; string &gt;</text>
</g>
<!-- Node8 -->
<g id="Node000008" class="node">
<title>Node8</title>
<g id="a_Node000008"><a xlink:href="class_fiftyone_degrees_1_1_common_1_1_entity_meta_data.html" target="_top" xlink:title=" ">
<polygon fill="white" stroke="#666666" points="519,-30 304,-30 304,0 519,0 519,-30"/>
<text text-anchor="start" x="312" y="-18" font-family="Helvetica,sans-Serif" font-size="10.00">FiftyoneDegrees::Common</text>
<text text-anchor="middle" x="411.5" y="-7" font-family="Helvetica,sans-Serif" font-size="10.00">::EntityMetaData&lt; ValueMetaDataKey &gt;</text>
</a>
</g>
</g>
<!-- Node1&#45;&gt;Node8 -->
<g id="edge7_Node000001_Node000008" class="edge">
<title>Node1&#45;&gt;Node8</title>
<g id="a_edge7_Node000001_Node000008"><a xlink:title=" ">
<path fill="none" stroke="orange" stroke-dasharray="5,2" d="M108.2,-66.84C124.56,-58.11 144.74,-48.62 164,-43 208.86,-29.91 259.97,-22.89 303.98,-19.14"/>
<polygon fill="orange" stroke="orange" points="106.14,-63.98 99.05,-71.86 109.5,-70.12 106.14,-63.98"/>
</a>
</g>
<text text-anchor="start" x="167" y="-48.5" font-family="Helvetica,sans-Serif" font-size="10.00" fill="grey">&lt; ValueMetaDataKey &gt;</text>
</g>
<!-- Node3 -->
<g id="Node000003" class="node">
<title>Node3</title>
<g id="a_Node000003"><a xlink:href="class_fiftyone_degrees_1_1_common_1_1_component_meta_data.html" target="_top" xlink:title="EntityMetaData relating to a component populated by an engine implementation.">
<polygon fill="white" stroke="#666666" points="702,-174 556,-174 556,-144 702,-144 702,-174"/>
<text text-anchor="start" x="564" y="-162" font-family="Helvetica,sans-Serif" font-size="10.00">FiftyoneDegrees::Common</text>
<text text-anchor="middle" x="629" y="-151" font-family="Helvetica,sans-Serif" font-size="10.00">::ComponentMetaData</text>
</a>
</g>
</g>
<!-- Node2&#45;&gt;Node3 -->
<g id="edge2_Node000002_Node000003" class="edge">
<title>Node2&#45;&gt;Node3</title>
<g id="a_edge2_Node000002_Node000003"><a xlink:title=" ">
<path fill="none" stroke="#63b8ff" d="M494.62,-159C514.7,-159 536.05,-159 555.64,-159"/>
<polygon fill="#63b8ff" stroke="#63b8ff" points="494.56,-155.5 484.56,-159 494.56,-162.5 494.56,-155.5"/>
</a>
</g>
</g>
<!-- Node5 -->
<g id="Node000005" class="node">
<title>Node5</title>
<g id="a_Node000005"><a xlink:href="class_fiftyone_degrees_1_1_common_1_1_profile_meta_data.html" target="_top" xlink:title="Meta data relating to a profile populated by an engine implementation.">
<polygon fill="white" stroke="#666666" points="702,-126 556,-126 556,-96 702,-96 702,-126"/>
<text text-anchor="start" x="564" y="-114" font-family="Helvetica,sans-Serif" font-size="10.00">FiftyoneDegrees::Common</text>
<text text-anchor="middle" x="629" y="-103" font-family="Helvetica,sans-Serif" font-size="10.00">::ProfileMetaData</text>
</a>
</g>
</g>
<!-- Node4&#45;&gt;Node5 -->
<g id="edge4_Node000004_Node000005" class="edge">
<title>Node4&#45;&gt;Node5</title>
<g id="a_edge4_Node000004_Node000005"><a xlink:title=" ">
<path fill="none" stroke="#63b8ff" d="M502.51,-111C520.28,-111 538.72,-111 555.82,-111"/>
<polygon fill="#63b8ff" stroke="#63b8ff" points="502.13,-107.5 492.13,-111 502.13,-114.5 502.13,-107.5"/>
</a>
</g>
</g>
<!-- Node7 -->
<g id="Node000007" class="node">
<title>Node7</title>
<g id="a_Node000007"><a xlink:href="class_fiftyone_degrees_1_1_common_1_1_property_meta_data.html" target="_top" xlink:title="Meta data relating to a property populated by an engine implementation.">
<polygon fill="white" stroke="#666666" points="702,-78 556,-78 556,-48 702,-48 702,-78"/>
<text text-anchor="start" x="564" y="-66" font-family="Helvetica,sans-Serif" font-size="10.00">FiftyoneDegrees::Common</text>
<text text-anchor="middle" x="629" y="-55" font-family="Helvetica,sans-Serif" font-size="10.00">::PropertyMetaData</text>
</a>
</g>
</g>
<!-- Node6&#45;&gt;Node7 -->
<g id="edge6_Node000006_Node000007" class="edge">
<title>Node6&#45;&gt;Node7</title>
<g id="a_edge6_Node000006_Node000007"><a xlink:title=" ">
<path fill="none" stroke="#63b8ff" d="M496.24,-63C515.92,-63 536.74,-63 555.87,-63"/>
<polygon fill="#63b8ff" stroke="#63b8ff" points="496.06,-59.5 486.06,-63 496.06,-66.5 496.06,-59.5"/>
</a>
</g>
</g>
<!-- Node9 -->
<g id="Node000009" class="node">
<title>Node9</title>
<g id="a_Node000009"><a xlink:href="class_fiftyone_degrees_1_1_common_1_1_value_meta_data.html" target="_top" xlink:title="Meta data relating to a value populated by an engine implementation.">
<polygon fill="white" stroke="#666666" points="702,-30 556,-30 556,0 702,0 702,-30"/>
<text text-anchor="start" x="564" y="-18" font-family="Helvetica,sans-Serif" font-size="10.00">FiftyoneDegrees::Common</text>
<text text-anchor="middle" x="629" y="-7" font-family="Helvetica,sans-Serif" font-size="10.00">::ValueMetaData</text>
</a>
</g>
</g>
<!-- Node8&#45;&gt;Node9 -->
<g id="edge8_Node000008_Node000009" class="edge">
<title>Node8&#45;&gt;Node9</title>
<g id="a_edge8_Node000008_Node000009"><a xlink:title=" ">
<path fill="none" stroke="#63b8ff" d="M529.45,-15C538.42,-15 547.3,-15 555.85,-15"/>
<polygon fill="#63b8ff" stroke="#63b8ff" points="529.3,-11.5 519.3,-15 529.3,-18.5 529.3,-11.5"/>
</a>
</g>
</g>
</g>
</svg>
