<?xml version="1.0" encoding="UTF-8" standalone="no"?>
<!DOCTYPE svg PUBLIC "-//W3C//DTD SVG 1.1//EN"
 "http://www.w3.org/Graphics/SVG/1.1/DTD/svg11.dtd">
<!-- Generated by graphviz version 2.43.0 (0)
 -->
<!-- Title: FiftyoneDegrees::Common::EntityMetaDataBuilder Pages: 1 -->
<svg width="363pt" height="186pt"
 viewBox="0.00 0.00 363.00 186.00" xmlns="http://www.w3.org/2000/svg" xmlns:xlink="http://www.w3.org/1999/xlink">
<g id="graph0" class="graph" transform="scale(1 1) rotate(0) translate(4 182)">
<title>FiftyoneDegrees::Common::EntityMetaDataBuilder</title>
<!-- Node0 -->
<g id="node1" class="node">
<title>Node0</title>
<g id="a_node1"><a xlink:title="Meta data builder class contains static helper methods used when building meta data instances.">
<polygon fill="#bfbfbf" stroke="black" points="0,-73.5 0,-103.5 146,-103.5 146,-73.5 0,-73.5"/>
<text text-anchor="start" x="8" y="-91.5" font-family="Helvetica,sans-Serif" font-size="10.00">FiftyoneDegrees::Common</text>
<text text-anchor="middle" x="73" y="-80.5" font-family="Helvetica,sans-Serif" font-size="10.00">::EntityMetaDataBuilder</text>
</a>
</g>
</g>
<!-- Node1 -->
<g id="node2" class="node">
<title>Node1</title>
<g id="a_node2"><a xlink:href="class_fiftyone_degrees_1_1_ip_intelligence_1_1_component_meta_data_builder_ipi.html" target="_top" xlink:title="Meta data builder class contains static helper methods used when building component meta data instanc...">
<polygon fill="none" stroke="black" points="182,-147.5 182,-177.5 355,-177.5 355,-147.5 182,-147.5"/>
<text text-anchor="start" x="190" y="-165.5" font-family="Helvetica,sans-Serif" font-size="10.00">FiftyoneDegrees::IpIntelligence</text>
<text text-anchor="middle" x="268.5" y="-154.5" font-family="Helvetica,sans-Serif" font-size="10.00">::ComponentMetaDataBuilderIpi</text>
</a>
</g>
</g>
<!-- Node0&#45;&gt;Node1 -->
<g id="edge1" class="edge">
<title>Node0&#45;&gt;Node1</title>
<path fill="none" stroke="#8b1a1a" d="M112.5,-108.15C132.83,-118.06 158.41,-129.79 182,-138.5 190.68,-141.7 199.99,-144.72 209.15,-147.47"/>
<polygon fill="#8b1a1a" stroke="#8b1a1a" points="113.77,-104.88 103.26,-103.6 110.68,-111.16 113.77,-104.88"/>
</g>
<!-- Node2 -->
<g id="node3" class="node">
<title>Node2</title>
<g id="a_node3"><a xlink:href="class_fiftyone_degrees_1_1_ip_intelligence_1_1_profile_meta_data_builder_ipi.html" target="_top" xlink:title="Meta data builder class contains static helper methods used when building profile meta data instances...">
<polygon fill="none" stroke="black" points="184.5,-98.5 184.5,-128.5 352.5,-128.5 352.5,-98.5 184.5,-98.5"/>
<text text-anchor="start" x="192.5" y="-116.5" font-family="Helvetica,sans-Serif" font-size="10.00">FiftyoneDegrees::IpIntelligence</text>
<text text-anchor="middle" x="268.5" y="-105.5" font-family="Helvetica,sans-Serif" font-size="10.00">::ProfileMetaDataBuilderIpi</text>
</a>
</g>
</g>
<!-- Node0&#45;&gt;Node2 -->
<g id="edge2" class="edge">
<title>Node0&#45;&gt;Node2</title>
<path fill="none" stroke="#8b1a1a" d="M156.09,-99.11C165.43,-100.31 174.95,-101.54 184.3,-102.75"/>
<polygon fill="#8b1a1a" stroke="#8b1a1a" points="156.42,-95.62 146.05,-97.81 155.52,-102.56 156.42,-95.62"/>
</g>
<!-- Node3 -->
<g id="node4" class="node">
<title>Node3</title>
<g id="a_node4"><a xlink:href="class_fiftyone_degrees_1_1_ip_intelligence_1_1_property_meta_data_builder_ipi.html" target="_top" xlink:title="Meta data builder class contains static helper methods used when building property meta data instance...">
<polygon fill="none" stroke="black" points="184.5,-49.5 184.5,-79.5 352.5,-79.5 352.5,-49.5 184.5,-49.5"/>
<text text-anchor="start" x="192.5" y="-67.5" font-family="Helvetica,sans-Serif" font-size="10.00">FiftyoneDegrees::IpIntelligence</text>
<text text-anchor="middle" x="268.5" y="-56.5" font-family="Helvetica,sans-Serif" font-size="10.00">::PropertyMetaDataBuilderIpi</text>
</a>
</g>
</g>
<!-- Node0&#45;&gt;Node3 -->
<g id="edge3" class="edge">
<title>Node0&#45;&gt;Node3</title>
<path fill="none" stroke="#8b1a1a" d="M156.09,-78.32C165.43,-77.16 174.95,-75.98 184.3,-74.82"/>
<polygon fill="#8b1a1a" stroke="#8b1a1a" points="155.55,-74.86 146.05,-79.56 156.41,-81.81 155.55,-74.86"/>
</g>
<!-- Node4 -->
<g id="node5" class="node">
<title>Node4</title>
<g id="a_node5"><a xlink:href="class_fiftyone_degrees_1_1_ip_intelligence_1_1_value_meta_data_builder_ipi.html" target="_top" xlink:title="Meta data builder class contains static helper methods used when building value meta data instances f...">
<polygon fill="none" stroke="black" points="184.5,-0.5 184.5,-30.5 352.5,-30.5 352.5,-0.5 184.5,-0.5"/>
<text text-anchor="start" x="192.5" y="-18.5" font-family="Helvetica,sans-Serif" font-size="10.00">FiftyoneDegrees::IpIntelligence</text>
<text text-anchor="middle" x="268.5" y="-7.5" font-family="Helvetica,sans-Serif" font-size="10.00">::ValueMetaDataBuilderIpi</text>
</a>
</g>
</g>
<!-- Node0&#45;&gt;Node4 -->
<g id="edge4" class="edge">
<title>Node0&#45;&gt;Node4</title>
<path fill="none" stroke="#8b1a1a" d="M114.36,-69.02C134.43,-59.73 159.22,-48.85 182,-40.5 191.58,-36.99 201.91,-33.62 211.96,-30.57"/>
<polygon fill="#8b1a1a" stroke="#8b1a1a" points="112.78,-65.89 105.21,-73.3 115.75,-72.24 112.78,-65.89"/>
</g>
</g>
</svg>
