<?xml version="1.0" encoding="UTF-8" standalone="no"?>
<!DOCTYPE svg PUBLIC "-//W3C//DTD SVG 1.1//EN"
 "http://www.w3.org/Graphics/SVG/1.1/DTD/svg11.dtd">
<!-- Generated by graphviz version 2.43.0 (0)
 -->
<!-- Title: FiftyoneDegrees::Common::EvidenceBase Pages: 1 -->
<svg width="172pt" height="166pt"
 viewBox="0.00 0.00 172.00 166.00" xmlns="http://www.w3.org/2000/svg" xmlns:xlink="http://www.w3.org/1999/xlink">
<g id="graph0" class="graph" transform="scale(1 1) rotate(0) translate(4 162)">
<title>FiftyoneDegrees::Common::EvidenceBase</title>
<!-- Node1 -->
<g id="Node000001" class="node">
<title>Node1</title>
<g id="a_Node000001"><a xlink:title="Base evidence class containing evidence to be processed by an engine.">
<polygon fill="#999999" stroke="#666666" points="146,-30 0,-30 0,0 146,0 146,-30"/>
<text text-anchor="start" x="8" y="-18" font-family="Helvetica,sans-Serif" font-size="10.00">FiftyoneDegrees::Common</text>
<text text-anchor="middle" x="73" y="-7" font-family="Helvetica,sans-Serif" font-size="10.00">::EvidenceBase</text>
</a>
</g>
</g>
<!-- Node2 -->
<g id="Node000002" class="node">
<title>Node2</title>
<g id="a_Node000002"><a xlink:href="structmap.html" target="_top" xlink:title=" ">
<polygon fill="white" stroke="#bfbfbf" points="134,-86 12,-86 12,-67 134,-67 134,-86"/>
<text text-anchor="middle" x="73" y="-74" font-family="Helvetica,sans-Serif" font-size="10.00">map&lt; string, string &gt;</text>
</a>
</g>
</g>
<!-- Node2&#45;&gt;Node1 -->
<g id="edge1_Node000001_Node000002" class="edge">
<title>Node2&#45;&gt;Node1</title>
<g id="a_edge1_Node000001_Node000002"><a xlink:title=" ">
<path fill="none" stroke="#63b8ff" d="M73,-56.73C73,-48.09 73,-38 73,-30.02"/>
<polygon fill="#63b8ff" stroke="#63b8ff" points="69.5,-56.98 73,-66.98 76.5,-56.98 69.5,-56.98"/>
</a>
</g>
</g>
<!-- Node3 -->
<g id="Node000003" class="node">
<title>Node3</title>
<g id="a_Node000003"><a xlink:href="structmap.html" target="_top" xlink:title=" ">
<polygon fill="white" stroke="#bfbfbf" points="92,-158 54,-158 54,-139 92,-139 92,-158"/>
<text text-anchor="middle" x="73" y="-146" font-family="Helvetica,sans-Serif" font-size="10.00">map</text>
</a>
</g>
</g>
<!-- Node3&#45;&gt;Node2 -->
<g id="edge2_Node000002_Node000003" class="edge">
<title>Node3&#45;&gt;Node2</title>
<g id="a_edge2_Node000002_Node000003"><a xlink:title=" ">
<path fill="none" stroke="orange" stroke-dasharray="5,2" d="M73,-128.58C73,-114.76 73,-96.68 73,-86.15"/>
<polygon fill="orange" stroke="orange" points="69.5,-128.92 73,-138.92 76.5,-128.92 69.5,-128.92"/>
</a>
</g>
<text text-anchor="start" x="76.5" y="-109.5" font-family="Helvetica,sans-Serif" font-size="10.00" fill="grey">&lt; string, string &gt;</text>
</g>
</g>
</svg>
