<?xml version="1.0" encoding="UTF-8" standalone="no"?>
<!DOCTYPE svg PUBLIC "-//W3C//DTD SVG 1.1//EN"
 "http://www.w3.org/Graphics/SVG/1.1/DTD/svg11.dtd">
<!-- Generated by graphviz version 2.43.0 (0)
 -->
<!-- Title: FixedSizeCollection&lt; T &gt; Pages: 1 -->
<svg width="508pt" height="141pt"
 viewBox="0.00 0.00 508.00 141.00" xmlns="http://www.w3.org/2000/svg" xmlns:xlink="http://www.w3.org/1999/xlink">
<g id="graph0" class="graph" transform="scale(1 1) rotate(0) translate(4 137)">
<title>FixedSizeCollection&lt; T &gt;</title>
<!-- Node1 -->
<g id="Node000001" class="node">
<title>Node1</title>
<g id="a_Node000001"><a xlink:title="Fixed size object collection helper class, used by test classes to fetch.">
<polygon fill="#999999" stroke="#666666" points="140,-79.5 0,-79.5 0,-60.5 140,-60.5 140,-79.5"/>
<text text-anchor="middle" x="70" y="-67.5" font-family="Helvetica,sans-Serif" font-size="10.00">FixedSizeCollection&lt; T &gt;</text>
</a>
</g>
</g>
<!-- Node2 -->
<g id="Node000002" class="node">
<title>Node2</title>
<g id="a_Node000002"><a xlink:href="class_fixed_size_collection.html" target="_top" xlink:title=" ">
<polygon fill="white" stroke="#666666" points="491,-133 333,-133 333,-103 491,-103 491,-133"/>
<text text-anchor="start" x="341" y="-121" font-family="Helvetica,sans-Serif" font-size="10.00">FixedSizeCollection</text>
<text text-anchor="middle" x="412" y="-110" font-family="Helvetica,sans-Serif" font-size="10.00">&lt; fiftyoneDegreesProperty &gt;</text>
</a>
</g>
</g>
<!-- Node1&#45;&gt;Node2 -->
<g id="edge1_Node000001_Node000002" class="edge">
<title>Node1&#45;&gt;Node2</title>
<g id="a_edge1_Node000001_Node000002"><a xlink:title=" ">
<path fill="none" stroke="orange" stroke-dasharray="5,2" d="M115.9,-82.02C129.36,-85.3 144.21,-88.61 158,-91 216.21,-101.09 282.66,-108 332.84,-112.31"/>
<polygon fill="orange" stroke="orange" points="116.47,-78.56 105.92,-79.53 114.77,-85.35 116.47,-78.56"/>
</a>
</g>
<text text-anchor="start" x="161" y="-114.5" font-family="Helvetica,sans-Serif" font-size="10.00" fill="grey">&lt; fiftyoneDegreesProperty &gt;</text>
</g>
<!-- Node3 -->
<g id="Node000003" class="node">
<title>Node3</title>
<g id="a_Node000003"><a xlink:href="class_fixed_size_collection.html" target="_top" xlink:title=" ">
<polygon fill="white" stroke="#666666" points="483.5,-85 340.5,-85 340.5,-55 483.5,-55 483.5,-85"/>
<text text-anchor="start" x="348.5" y="-73" font-family="Helvetica,sans-Serif" font-size="10.00">FixedSizeCollection</text>
<text text-anchor="middle" x="412" y="-62" font-family="Helvetica,sans-Serif" font-size="10.00">&lt; fiftyoneDegreesValue &gt;</text>
</a>
</g>
</g>
<!-- Node1&#45;&gt;Node3 -->
<g id="edge2_Node000001_Node000003" class="edge">
<title>Node1&#45;&gt;Node3</title>
<g id="a_edge2_Node000001_Node000003"><a xlink:title=" ">
<path fill="none" stroke="orange" stroke-dasharray="5,2" d="M150.36,-70C207.9,-70 285.02,-70 340.42,-70"/>
<polygon fill="orange" stroke="orange" points="150.21,-66.5 140.21,-70 150.21,-73.5 150.21,-66.5"/>
</a>
</g>
<text text-anchor="start" x="169" y="-75.5" font-family="Helvetica,sans-Serif" font-size="10.00" fill="grey">&lt; fiftyoneDegreesValue &gt;</text>
</g>
<!-- Node4 -->
<g id="Node000004" class="node">
<title>Node4</title>
<g id="a_Node000004"><a xlink:href="class_fixed_size_collection.html" target="_top" xlink:title=" ">
<polygon fill="white" stroke="#666666" points="500,-30 324,-30 324,0 500,0 500,-30"/>
<text text-anchor="start" x="332" y="-18" font-family="Helvetica,sans-Serif" font-size="10.00">FixedSizeCollection</text>
<text text-anchor="middle" x="412" y="-7" font-family="Helvetica,sans-Serif" font-size="10.00">&lt; fiftyoneDegreesProfileOffset &gt;</text>
</a>
</g>
</g>
<!-- Node1&#45;&gt;Node4 -->
<g id="edge3_Node000001_Node000004" class="edge">
<title>Node1&#45;&gt;Node4</title>
<g id="a_edge3_Node000001_Node000004"><a xlink:title=" ">
<path fill="none" stroke="orange" stroke-dasharray="5,2" d="M98.62,-55.92C115.36,-48.07 137.4,-38.9 158,-34 212.21,-21.1 274.62,-16.31 323.89,-14.76"/>
<polygon fill="orange" stroke="orange" points="96.92,-52.86 89.43,-60.35 99.96,-59.16 96.92,-52.86"/>
</a>
</g>
<text text-anchor="start" x="172" y="-55" font-family="Helvetica,sans-Serif" font-size="10.00" fill="grey">&lt; fiftyoneDegreesProfile</text>
<text text-anchor="start" x="172" y="-40" font-family="Helvetica,sans-Serif" font-size="10.00" fill="grey">  Offset &gt;</text>
</g>
</g>
</svg>
