<?xml version="1.0" encoding="UTF-8" standalone="no"?>
<!DOCTYPE svg PUBLIC "-//W3C//DTD SVG 1.1//EN"
 "http://www.w3.org/Graphics/SVG/1.1/DTD/svg11.dtd">
<!-- Generated by graphviz version 2.43.0 (0)
 -->
<!-- Title: Common Pages: 1 -->
<svg width="216pt" height="1248pt"
 viewBox="0.00 0.00 216.00 1248.00" xmlns="http://www.w3.org/2000/svg" xmlns:xlink="http://www.w3.org/1999/xlink">
<g id="graph0" class="graph" transform="scale(1 1) rotate(0) translate(4 1244)">
<title>Common</title>
<!-- Node0 -->
<g id="node1" class="node">
<title>Node0</title>
<g id="a_node1"><a xlink:title="Common 51Degrees methods, types and macros.">
<polygon fill="#bfbfbf" stroke="black" points="61,-629 0,-629 0,-610 61,-610 61,-629"/>
<text text-anchor="middle" x="30.5" y="-617" font-family="Helvetica,sans-Serif" font-size="10.00">Common</text>
</a>
</g>
</g>
<!-- Node3 -->
<g id="node2" class="node">
<title>Node3</title>
<g id="a_node2"><a xlink:href="group___fifty_one_degrees_collection.html" target="_top" xlink:title="Group of related items such as strings.">
<polygon fill="none" stroke="black" points="185,-1240 120,-1240 120,-1221 185,-1221 185,-1240"/>
<text text-anchor="middle" x="152.5" y="-1228" font-family="Helvetica,sans-Serif" font-size="10.00">Collection</text>
</a>
</g>
</g>
<!-- Node0&#45;&gt;Node3 -->
<g id="edge3" class="edge">
<title>Node0&#45;&gt;Node3</title>
<path fill="none" stroke="black" d="M32.44,-639.45C37.21,-737.67 60.07,-1166.92 97,-1212.5 102.71,-1219.55 111.24,-1223.86 119.88,-1226.49"/>
<polygon fill="black" stroke="black" points="35.93,-639.21 31.95,-629.39 28.94,-639.54 35.93,-639.21"/>
</g>
<!-- Node19 -->
<g id="node3" class="node">
<title>Node19</title>
<g id="a_node3"><a xlink:href="group___fifty_one_degrees_list.html" target="_top" xlink:title="A more manageable way to store arrays.">
<polygon fill="none" stroke="black" points="169.5,-1203 135.5,-1203 135.5,-1184 169.5,-1184 169.5,-1203"/>
<text text-anchor="middle" x="152.5" y="-1191" font-family="Helvetica,sans-Serif" font-size="10.00">List</text>
</a>
</g>
</g>
<!-- Node0&#45;&gt;Node19 -->
<g id="edge19" class="edge">
<title>Node0&#45;&gt;Node19</title>
<path fill="none" stroke="black" d="M31.09,-639.23C29.65,-728.17 28.11,-1091.1 97,-1175.5 106.26,-1186.85 122.86,-1191.1 135.31,-1192.66"/>
<polygon fill="black" stroke="black" points="34.59,-639.22 31.27,-629.16 27.59,-639.1 34.59,-639.22"/>
</g>
<!-- Node27 -->
<g id="node4" class="node">
<title>Node27</title>
<g id="a_node4"><a xlink:href="group___fifty_one_degrees_results.html" target="_top" xlink:title="Structure returned by an engine&#39;s process method(s), containing values.">
<polygon fill="none" stroke="black" points="179,-1166 126,-1166 126,-1147 179,-1147 179,-1166"/>
<text text-anchor="middle" x="152.5" y="-1154" font-family="Helvetica,sans-Serif" font-size="10.00">Results</text>
</a>
</g>
</g>
<!-- Node0&#45;&gt;Node27 -->
<g id="edge27" class="edge">
<title>Node0&#45;&gt;Node27</title>
<path fill="none" stroke="black" d="M31.27,-639.53C30.71,-725.24 32.72,-1060.4 97,-1138.5 104.09,-1147.12 115.41,-1151.64 125.9,-1154"/>
<polygon fill="black" stroke="black" points="34.78,-639.37 31.36,-629.34 27.78,-639.31 34.78,-639.37"/>
</g>
<!-- Node30 -->
<g id="node5" class="node">
<title>Node30</title>
<g id="a_node5"><a xlink:href="group___fifty_one_degrees_text_file.html" target="_top" xlink:title="Contains helper methods for accessing and using text files.">
<polygon fill="none" stroke="black" points="179.5,-1129 125.5,-1129 125.5,-1110 179.5,-1110 179.5,-1129"/>
<text text-anchor="middle" x="152.5" y="-1117" font-family="Helvetica,sans-Serif" font-size="10.00">TextFile</text>
</a>
</g>
</g>
<!-- Node0&#45;&gt;Node30 -->
<g id="edge30" class="edge">
<title>Node0&#45;&gt;Node30</title>
<path fill="none" stroke="black" d="M31.49,-639.37C31.85,-720.99 37.19,-1029.54 97,-1101.5 104.01,-1109.93 115.05,-1114.44 125.38,-1116.84"/>
<polygon fill="black" stroke="black" points="34.99,-639.02 31.47,-629.03 27.99,-639.04 34.99,-639.02"/>
</g>
<!-- Node24 -->
<g id="node6" class="node">
<title>Node24</title>
<g id="a_node6"><a xlink:href="group___fifty_one_degrees_properties.html" target="_top" xlink:title="Structures for properties which are available, or required.">
<polygon fill="none" stroke="black" points="185.5,-1092 119.5,-1092 119.5,-1073 185.5,-1073 185.5,-1092"/>
<text text-anchor="middle" x="152.5" y="-1080" font-family="Helvetica,sans-Serif" font-size="10.00">Properties</text>
</a>
</g>
</g>
<!-- Node0&#45;&gt;Node24 -->
<g id="edge24" class="edge">
<title>Node0&#45;&gt;Node24</title>
<path fill="none" stroke="black" d="M31.74,-639.32C33.07,-716.86 41.68,-998.69 97,-1064.5 102.71,-1071.29 111.03,-1075.53 119.47,-1078.18"/>
<polygon fill="black" stroke="black" points="35.23,-638.99 31.59,-629.05 28.24,-639.1 35.23,-638.99"/>
</g>
<!-- Node31 -->
<g id="node7" class="node">
<title>Node31</title>
<g id="a_node7"><a xlink:href="group___fifty_one_degrees_threading.html" target="_top" xlink:title="Defines multi threading macros if the FIFTYONE_DEGREES_NO_THREADING compiler directive is not explici...">
<polygon fill="none" stroke="black" points="185,-1055 120,-1055 120,-1036 185,-1036 185,-1055"/>
<text text-anchor="middle" x="152.5" y="-1043" font-family="Helvetica,sans-Serif" font-size="10.00">Threading</text>
</a>
</g>
</g>
<!-- Node0&#45;&gt;Node31 -->
<g id="edge31" class="edge">
<title>Node0&#45;&gt;Node31</title>
<path fill="none" stroke="black" d="M32.04,-639.54C34.41,-713.22 46.22,-967.88 97,-1027.5 102.81,-1034.33 111.28,-1038.58 119.81,-1041.22"/>
<polygon fill="black" stroke="black" points="35.53,-639.22 31.73,-629.33 28.53,-639.43 35.53,-639.22"/>
</g>
<!-- Node6 -->
<g id="node8" class="node">
<title>Node6</title>
<g id="a_node8"><a xlink:href="group___fifty_one_degrees_component.html" target="_top" xlink:title="Component of a data set.">
<polygon fill="none" stroke="black" points="189,-1018 116,-1018 116,-999 189,-999 189,-1018"/>
<text text-anchor="middle" x="152.5" y="-1006" font-family="Helvetica,sans-Serif" font-size="10.00">Component</text>
</a>
</g>
</g>
<!-- Node0&#45;&gt;Node6 -->
<g id="edge6" class="edge">
<title>Node0&#45;&gt;Node6</title>
<path fill="none" stroke="black" d="M32.39,-639.47C35.86,-708.68 50.68,-936.96 97,-990.5 101.96,-996.23 108.77,-1000.14 115.91,-1002.81"/>
<polygon fill="black" stroke="black" points="35.87,-638.94 31.9,-629.12 28.88,-639.28 35.87,-638.94"/>
</g>
<!-- Node11 -->
<g id="node9" class="node">
<title>Node11</title>
<g id="a_node9"><a xlink:href="group___fifty_one_degrees_exceptions.html" target="_top" xlink:title="Allow the bubbling up or errors in C.">
<polygon fill="none" stroke="black" points="187.5,-981 117.5,-981 117.5,-962 187.5,-962 187.5,-981"/>
<text text-anchor="middle" x="152.5" y="-969" font-family="Helvetica,sans-Serif" font-size="10.00">Exceptions</text>
</a>
</g>
</g>
<!-- Node0&#45;&gt;Node11 -->
<g id="edge11" class="edge">
<title>Node0&#45;&gt;Node11</title>
<path fill="none" stroke="black" d="M32.79,-639.14C37.41,-703.39 55.06,-905.94 97,-953.5 102.34,-959.55 109.75,-963.58 117.4,-966.25"/>
<polygon fill="black" stroke="black" points="36.28,-638.86 32.1,-629.12 29.3,-639.34 36.28,-638.86"/>
</g>
<!-- Node14 -->
<g id="node10" class="node">
<title>Node14</title>
<g id="a_node10"><a xlink:href="group__fiftyone_degrees_float.html" target="_top" xlink:title="IEEE Single Precision Floating Point standard implementation and methods to convert to native float t...">
<polygon fill="none" stroke="black" points="173,-944 132,-944 132,-925 173,-925 173,-944"/>
<text text-anchor="middle" x="152.5" y="-932" font-family="Helvetica,sans-Serif" font-size="10.00">Float</text>
</a>
</g>
</g>
<!-- Node0&#45;&gt;Node14 -->
<g id="edge14" class="edge">
<title>Node0&#45;&gt;Node14</title>
<path fill="none" stroke="black" d="M33.33,-639.25C39.22,-698.8 59.52,-874.99 97,-916.5 105.88,-926.34 120.24,-930.81 132,-932.84"/>
<polygon fill="black" stroke="black" points="36.81,-638.88 32.37,-629.26 29.84,-639.55 36.81,-638.88"/>
</g>
<!-- Node33 -->
<g id="node11" class="node">
<title>Node33</title>
<g id="a_node11"><a xlink:href="group___fifty_one_degrees_value.html" target="_top" xlink:title="Value of a data set relating to a property.">
<polygon fill="none" stroke="black" points="177,-907 128,-907 128,-888 177,-888 177,-907"/>
<text text-anchor="middle" x="152.5" y="-895" font-family="Helvetica,sans-Serif" font-size="10.00">Values</text>
</a>
</g>
</g>
<!-- Node0&#45;&gt;Node33 -->
<g id="edge33" class="edge">
<title>Node0&#45;&gt;Node33</title>
<path fill="none" stroke="black" d="M34,-639.24C41.25,-693.62 63.92,-843.94 97,-879.5 104.94,-888.04 117.01,-892.53 127.77,-894.89"/>
<polygon fill="black" stroke="black" points="37.45,-638.63 32.69,-629.17 30.51,-639.53 37.45,-638.63"/>
</g>
<!-- Node12 -->
<g id="node12" class="node">
<title>Node12</title>
<g id="a_node12"><a xlink:href="group___fifty_one_degrees_synonyms.html" target="_top" xlink:title="Quick shortenings of common methods and types.">
<polygon fill="none" stroke="black" points="186.5,-870 118.5,-870 118.5,-851 186.5,-851 186.5,-870"/>
<text text-anchor="middle" x="152.5" y="-858" font-family="Helvetica,sans-Serif" font-size="10.00">Synonyms</text>
</a>
</g>
</g>
<!-- Node0&#45;&gt;Node12 -->
<g id="edge12" class="edge">
<title>Node0&#45;&gt;Node12</title>
<path fill="none" stroke="black" d="M31.5,-639.3C32.58,-682.28 41.24,-784.85 97,-842.5 102.75,-848.44 110.5,-852.43 118.35,-855.09"/>
<polygon fill="black" stroke="black" points="34.99,-639.02 31.36,-629.07 27.99,-639.11 34.99,-639.02"/>
</g>
<!-- Node22 -->
<g id="node13" class="node">
<title>Node22</title>
<g id="a_node13"><a xlink:href="group___fifty_one_degrees_pool.html" target="_top" xlink:title="Pool of handles to allow safe access to multiple threads.">
<polygon fill="none" stroke="black" points="171.5,-833 133.5,-833 133.5,-814 171.5,-814 171.5,-833"/>
<text text-anchor="middle" x="152.5" y="-821" font-family="Helvetica,sans-Serif" font-size="10.00">Pool</text>
</a>
</g>
</g>
<!-- Node0&#45;&gt;Node22 -->
<g id="edge22" class="edge">
<title>Node0&#45;&gt;Node22</title>
<path fill="none" stroke="black" d="M32.87,-639.33C36.55,-676.99 49.82,-759.23 97,-805.5 106.75,-815.06 121.67,-819.54 133.44,-821.64"/>
<polygon fill="black" stroke="black" points="36.35,-638.83 32.02,-629.16 29.37,-639.42 36.35,-638.83"/>
</g>
<!-- Node21 -->
<g id="node14" class="node">
<title>Node21</title>
<g id="a_node14"><a xlink:href="group___fifty_one_degrees_overrides.html" target="_top" xlink:title="Used to override properties values or an entire profile.">
<polygon fill="none" stroke="black" points="184.5,-796 120.5,-796 120.5,-777 184.5,-777 184.5,-796"/>
<text text-anchor="middle" x="152.5" y="-784" font-family="Helvetica,sans-Serif" font-size="10.00">Overrides</text>
</a>
</g>
</g>
<!-- Node0&#45;&gt;Node21 -->
<g id="edge21" class="edge">
<title>Node0&#45;&gt;Node21</title>
<path fill="none" stroke="black" d="M34.87,-639.28C41.29,-671.01 58.27,-733.29 97,-768.5 103.49,-774.4 111.96,-778.37 120.28,-781.04"/>
<polygon fill="black" stroke="black" points="38.24,-638.27 32.96,-629.08 31.36,-639.55 38.24,-638.27"/>
</g>
<!-- Node17 -->
<g id="node15" class="node">
<title>Node17</title>
<g id="a_node15"><a xlink:href="group__fiftyone_degrees_ip.html" target="_top" xlink:title="Types and methods to parse IP address strings.">
<polygon fill="none" stroke="black" points="167,-759 138,-759 138,-740 167,-740 167,-759"/>
<text text-anchor="middle" x="152.5" y="-747" font-family="Helvetica,sans-Serif" font-size="10.00">IP</text>
</a>
</g>
</g>
<!-- Node0&#45;&gt;Node17 -->
<g id="edge17" class="edge">
<title>Node0&#45;&gt;Node17</title>
<path fill="none" stroke="black" d="M37.94,-638.93C47.17,-663.86 66.49,-706.81 97,-731.5 108.77,-741.03 125.78,-745.59 137.65,-747.72"/>
<polygon fill="black" stroke="black" points="41.13,-637.43 34.5,-629.17 34.52,-639.76 41.13,-637.43"/>
</g>
<!-- Node28 -->
<g id="node16" class="node">
<title>Node28</title>
<g id="a_node16"><a xlink:href="group___fifty_one_degrees_status.html" target="_top" xlink:title="Status codes and messages indicating the result of an operation.">
<polygon fill="none" stroke="black" points="176,-722 129,-722 129,-703 176,-703 176,-722"/>
<text text-anchor="middle" x="152.5" y="-710" font-family="Helvetica,sans-Serif" font-size="10.00">Status</text>
</a>
</g>
</g>
<!-- Node0&#45;&gt;Node28 -->
<g id="edge28" class="edge">
<title>Node0&#45;&gt;Node28</title>
<path fill="none" stroke="black" d="M42.99,-637.49C54.68,-654.44 74.27,-679.42 97,-694.5 106.55,-700.84 118.52,-705.11 128.8,-707.9"/>
<polygon fill="black" stroke="black" points="45.8,-635.39 37.34,-629.01 39.98,-639.27 45.8,-635.39"/>
</g>
<!-- Node1 -->
<g id="node17" class="node">
<title>Node1</title>
<g id="a_node17"><a xlink:href="group___fifty_one_degrees_array.html" target="_top" xlink:title="Macros used to quickly define array structures.">
<polygon fill="none" stroke="black" points="176.5,-685 128.5,-685 128.5,-666 176.5,-666 176.5,-685"/>
<text text-anchor="middle" x="152.5" y="-673" font-family="Helvetica,sans-Serif" font-size="10.00">Arrays</text>
</a>
</g>
</g>
<!-- Node0&#45;&gt;Node1 -->
<g id="edge1" class="edge">
<title>Node0&#45;&gt;Node1</title>
<path fill="none" stroke="black" d="M54.55,-634.45C66.83,-642 82.38,-650.93 97,-657.5 107,-661.99 118.47,-665.95 128.3,-669"/>
<polygon fill="black" stroke="black" points="56.2,-631.35 45.87,-629 52.48,-637.28 56.2,-631.35"/>
</g>
<!-- Node34 -->
<g id="node18" class="node">
<title>Node34</title>
<g id="a_node18"><a xlink:href="group___fifty_one_degrees_weighted_item.html" target="_top" xlink:title="A weighted collection item with an associated weight value.">
<polygon fill="none" stroke="black" points="199,-648 106,-648 106,-629 199,-629 199,-648"/>
<text text-anchor="middle" x="152.5" y="-636" font-family="Helvetica,sans-Serif" font-size="10.00">Weighted Items</text>
</a>
</g>
</g>
<!-- Node0&#45;&gt;Node34 -->
<g id="edge34" class="edge">
<title>Node0&#45;&gt;Node34</title>
<path fill="none" stroke="black" d="M71.38,-625.81C82.42,-627.56 94.48,-629.47 105.83,-631.27"/>
<polygon fill="black" stroke="black" points="71.59,-622.3 61.16,-624.2 70.49,-629.22 71.59,-622.3"/>
</g>
<!-- Node8 -->
<g id="node19" class="node">
<title>Node8</title>
<g id="a_node19"><a xlink:href="group___fifty_one_degrees_data.html" target="_top" xlink:title="Structure containing memory allocated to store a variable.">
<polygon fill="none" stroke="black" points="172.5,-611 132.5,-611 132.5,-592 172.5,-592 172.5,-611"/>
<text text-anchor="middle" x="152.5" y="-599" font-family="Helvetica,sans-Serif" font-size="10.00">Data</text>
</a>
</g>
</g>
<!-- Node0&#45;&gt;Node8 -->
<g id="edge8" class="edge">
<title>Node0&#45;&gt;Node8</title>
<path fill="none" stroke="black" d="M71.21,-613.54C91.75,-610.46 115.88,-606.84 132.29,-604.38"/>
<polygon fill="black" stroke="black" points="70.53,-610.11 61.16,-615.05 71.57,-617.03 70.53,-610.11"/>
</g>
<!-- Node10 -->
<g id="node20" class="node">
<title>Node10</title>
<g id="a_node20"><a xlink:href="group___fifty_one_degrees_date.html" target="_top" xlink:title="Represents a date in a data set.">
<polygon fill="none" stroke="black" points="172.5,-574 132.5,-574 132.5,-555 172.5,-555 172.5,-574"/>
<text text-anchor="middle" x="152.5" y="-562" font-family="Helvetica,sans-Serif" font-size="10.00">Date</text>
</a>
</g>
</g>
<!-- Node0&#45;&gt;Node10 -->
<g id="edge10" class="edge">
<title>Node0&#45;&gt;Node10</title>
<path fill="none" stroke="black" d="M55.91,-604.81C68.02,-597.86 83.02,-589.73 97,-583.5 108.44,-578.4 121.7,-573.75 132.28,-570.33"/>
<polygon fill="black" stroke="black" points="54.14,-601.79 47.27,-609.86 57.67,-607.84 54.14,-601.79"/>
</g>
<!-- Node20 -->
<g id="node21" class="node">
<title>Node20</title>
<g id="a_node21"><a xlink:href="group___fifty_one_degrees_memory.html" target="_top" xlink:title="Utility methods used to handle common memory operations such as allocating memory and freeing it,...">
<polygon fill="none" stroke="black" points="181,-537 124,-537 124,-518 181,-518 181,-537"/>
<text text-anchor="middle" x="152.5" y="-525" font-family="Helvetica,sans-Serif" font-size="10.00">Memory</text>
</a>
</g>
</g>
<!-- Node0&#45;&gt;Node20 -->
<g id="edge20" class="edge">
<title>Node0&#45;&gt;Node20</title>
<path fill="none" stroke="black" d="M43.73,-601.29C55.59,-584.88 75,-561.15 97,-546.5 105.09,-541.11 114.87,-537.08 123.91,-534.15"/>
<polygon fill="black" stroke="black" points="40.81,-599.35 37.94,-609.55 46.55,-603.36 40.81,-599.35"/>
</g>
<!-- Node16 -->
<g id="node22" class="node">
<title>Node16</title>
<g id="a_node22"><a xlink:href="group___fifty_one_degrees_indices.html" target="_top" xlink:title="A look up structure for profile and property index to the first value associated with the property an...">
<polygon fill="none" stroke="black" points="178,-500 127,-500 127,-481 178,-481 178,-500"/>
<text text-anchor="middle" x="152.5" y="-488" font-family="Helvetica,sans-Serif" font-size="10.00">Indices</text>
</a>
</g>
</g>
<!-- Node0&#45;&gt;Node16 -->
<g id="edge16" class="edge">
<title>Node0&#45;&gt;Node16</title>
<path fill="none" stroke="black" d="M38.24,-600.12C47.69,-575.67 67.15,-533.86 97,-509.5 105.54,-502.53 116.8,-498.04 126.87,-495.19"/>
<polygon fill="black" stroke="black" points="34.87,-599.13 34.7,-609.73 41.44,-601.56 34.87,-599.13"/>
</g>
<!-- Node26 -->
<g id="node23" class="node">
<title>Node26</title>
<g id="a_node23"><a xlink:href="group___fifty_one_degrees_resource.html" target="_top" xlink:title="Resources to be managed by a resource manager.">
<polygon fill="none" stroke="black" points="206,-463 99,-463 99,-444 206,-444 206,-463"/>
<text text-anchor="middle" x="152.5" y="-451" font-family="Helvetica,sans-Serif" font-size="10.00">Resource Manager</text>
</a>
</g>
</g>
<!-- Node0&#45;&gt;Node26 -->
<g id="edge26" class="edge">
<title>Node0&#45;&gt;Node26</title>
<path fill="none" stroke="black" d="M35.11,-599.6C41.81,-568.25 59.09,-507.37 97,-472.5 101.2,-468.63 106.24,-465.55 111.52,-463.09"/>
<polygon fill="black" stroke="black" points="31.62,-599.22 33.1,-609.71 38.48,-600.58 31.62,-599.22"/>
</g>
<!-- Node25 -->
<g id="node24" class="node">
<title>Node25</title>
<g id="a_node24"><a xlink:href="group___fifty_one_degrees_property.html" target="_top" xlink:title="Property in a data set relating to a single component.">
<polygon fill="none" stroke="black" points="181.5,-426 123.5,-426 123.5,-407 181.5,-407 181.5,-426"/>
<text text-anchor="middle" x="152.5" y="-414" font-family="Helvetica,sans-Serif" font-size="10.00">Property</text>
</a>
</g>
</g>
<!-- Node0&#45;&gt;Node25 -->
<g id="edge25" class="edge">
<title>Node0&#45;&gt;Node25</title>
<path fill="none" stroke="black" d="M33.01,-599.95C36.92,-562.81 50.57,-481.63 97,-435.5 104.11,-428.44 113.98,-423.99 123.37,-421.2"/>
<polygon fill="black" stroke="black" points="29.52,-599.7 32.09,-609.98 36.49,-600.34 29.52,-599.7"/>
</g>
<!-- Node2 -->
<g id="node25" class="node">
<title>Node2</title>
<g id="a_node25"><a xlink:href="group___fifty_one_degrees_cache.html" target="_top" xlink:title="Fixed size, thread safe, loading, tree based cache.">
<polygon fill="none" stroke="black" points="176,-389 129,-389 129,-370 176,-370 176,-389"/>
<text text-anchor="middle" x="152.5" y="-377" font-family="Helvetica,sans-Serif" font-size="10.00">Cache</text>
</a>
</g>
</g>
<!-- Node0&#45;&gt;Node2 -->
<g id="edge2" class="edge">
<title>Node0&#45;&gt;Node2</title>
<path fill="none" stroke="black" d="M31.64,-599.35C33.05,-556.54 42.35,-455.8 97,-398.5 105.37,-389.73 118,-385 129,-382.46"/>
<polygon fill="black" stroke="black" points="28.14,-599.51 31.43,-609.58 35.14,-599.66 28.14,-599.51"/>
</g>
<!-- Node7 -->
<g id="node26" class="node">
<title>Node7</title>
<g id="a_node26"><a xlink:href="group___fifty_one_degrees_config.html" target="_top" xlink:title="Configuration for building data sets.">
<polygon fill="none" stroke="black" points="176,-352 129,-352 129,-333 176,-333 176,-352"/>
<text text-anchor="middle" x="152.5" y="-340" font-family="Helvetica,sans-Serif" font-size="10.00">Config</text>
</a>
</g>
</g>
<!-- Node0&#45;&gt;Node7 -->
<g id="edge7" class="edge">
<title>Node0&#45;&gt;Node7</title>
<path fill="none" stroke="black" d="M34.05,-599.94C41.44,-546.04 64.42,-397.04 97,-361.5 105.19,-352.56 117.82,-347.83 128.85,-345.32"/>
<polygon fill="black" stroke="black" points="30.57,-599.55 32.71,-609.92 37.51,-600.48 30.57,-599.55"/>
</g>
<!-- Node9 -->
<g id="node27" class="node">
<title>Node9</title>
<g id="a_node27"><a xlink:href="group___fifty_one_degrees_data_set.html" target="_top" xlink:title="A data file initialised in a structure.">
<polygon fill="none" stroke="black" points="182,-315 123,-315 123,-296 182,-296 182,-315"/>
<text text-anchor="middle" x="152.5" y="-303" font-family="Helvetica,sans-Serif" font-size="10.00">Data Set</text>
</a>
</g>
</g>
<!-- Node0&#45;&gt;Node9 -->
<g id="edge9" class="edge">
<title>Node0&#45;&gt;Node9</title>
<path fill="none" stroke="black" d="M33.42,-599.54C39.49,-540.11 60.15,-365.94 97,-324.5 103.66,-317.01 113.43,-312.48 122.87,-309.73"/>
<polygon fill="black" stroke="black" points="29.9,-599.52 32.39,-609.82 36.87,-600.21 29.9,-599.52"/>
</g>
<!-- Node18 -->
<g id="node28" class="node">
<title>Node18</title>
<g id="a_node28"><a xlink:href="group___fifty_one_degrees_json.html" target="_top" xlink:title="JSON methods.">
<polygon fill="none" stroke="black" points="173,-278 132,-278 132,-259 173,-259 173,-278"/>
<text text-anchor="middle" x="152.5" y="-266" font-family="Helvetica,sans-Serif" font-size="10.00">JSON</text>
</a>
</g>
</g>
<!-- Node0&#45;&gt;Node18 -->
<g id="edge18" class="edge">
<title>Node0&#45;&gt;Node18</title>
<path fill="none" stroke="black" d="M32.87,-599.61C37.68,-535.39 55.75,-335 97,-287.5 105.74,-277.44 120.11,-272.7 131.9,-270.47"/>
<polygon fill="black" stroke="black" points="29.35,-599.72 32.13,-609.95 36.34,-600.23 29.35,-599.72"/>
</g>
<!-- Node13 -->
<g id="node29" class="node">
<title>Node13</title>
<g id="a_node29"><a xlink:href="group___fifty_one_degrees_file.html" target="_top" xlink:title="File handle pool and simple file operations e.g.">
<polygon fill="none" stroke="black" points="169.5,-241 135.5,-241 135.5,-222 169.5,-222 169.5,-241"/>
<text text-anchor="middle" x="152.5" y="-229" font-family="Helvetica,sans-Serif" font-size="10.00">File</text>
</a>
</g>
</g>
<!-- Node0&#45;&gt;Node13 -->
<g id="edge13" class="edge">
<title>Node0&#45;&gt;Node13</title>
<path fill="none" stroke="black" d="M32.44,-599.66C36.06,-530.91 51.34,-304.11 97,-250.5 106.55,-239.29 123.1,-234.69 135.47,-232.8"/>
<polygon fill="black" stroke="black" points="28.93,-599.78 31.92,-609.94 35.92,-600.13 28.93,-599.78"/>
</g>
<!-- Node29 -->
<g id="node30" class="node">
<title>Node29</title>
<g id="a_node30"><a xlink:href="group___fifty_one_degrees_string.html" target="_top" xlink:title="Byte array structures containing raw data bytes.">
<polygon fill="none" stroke="black" points="175,-204 130,-204 130,-185 175,-185 175,-204"/>
<text text-anchor="middle" x="152.5" y="-192" font-family="Helvetica,sans-Serif" font-size="10.00">String</text>
</a>
</g>
</g>
<!-- Node0&#45;&gt;Node29 -->
<g id="edge29" class="edge">
<title>Node0&#45;&gt;Node29</title>
<path fill="none" stroke="black" d="M32.09,-599.58C34.62,-526.36 46.93,-273.23 97,-213.5 105.11,-203.82 118.44,-199.07 129.89,-196.74"/>
<polygon fill="black" stroke="black" points="28.58,-599.63 31.76,-609.73 35.58,-599.85 28.58,-599.63"/>
</g>
<!-- Node23 -->
<g id="node31" class="node">
<title>Node23</title>
<g id="a_node31"><a xlink:href="group___fifty_one_degrees_profile.html" target="_top" xlink:title="Profile containing a unique set of values for the properties of a single component.">
<polygon fill="none" stroke="black" points="176,-167 129,-167 129,-148 176,-148 176,-167"/>
<text text-anchor="middle" x="152.5" y="-155" font-family="Helvetica,sans-Serif" font-size="10.00">Profile</text>
</a>
</g>
</g>
<!-- Node0&#45;&gt;Node23 -->
<g id="edge23" class="edge">
<title>Node0&#45;&gt;Node23</title>
<path fill="none" stroke="black" d="M31.79,-599.3C33.32,-521.49 42.56,-242.32 97,-176.5 104.79,-167.08 117.53,-162.32 128.74,-159.92"/>
<polygon fill="black" stroke="black" points="28.29,-599.57 31.61,-609.63 35.29,-599.69 28.29,-599.57"/>
</g>
<!-- Node5 -->
<g id="node32" class="node">
<title>Node5</title>
<g id="a_node32"><a xlink:href="group___fifty_one_degrees_collection_key_types.html" target="_top" xlink:title="Group of related items such as collection key type constants.">
<polygon fill="none" stroke="black" points="208,-130 97,-130 97,-111 208,-111 208,-130"/>
<text text-anchor="middle" x="152.5" y="-118" font-family="Helvetica,sans-Serif" font-size="10.00">CollectionKeyTypes</text>
</a>
</g>
</g>
<!-- Node0&#45;&gt;Node5 -->
<g id="edge5" class="edge">
<title>Node0&#45;&gt;Node5</title>
<path fill="none" stroke="black" d="M31.54,-599.21C32.09,-517.24 38.13,-211.48 97,-139.5 100.17,-135.62 104.18,-132.53 108.59,-130.07"/>
<polygon fill="black" stroke="black" points="28.04,-599.61 31.49,-609.63 35.04,-599.64 28.04,-599.61"/>
</g>
<!-- Node32 -->
<g id="node33" class="node">
<title>Node32</title>
<g id="a_node33"><a xlink:href="group___fifty_one_degrees_tree.html" target="_top" xlink:title="Implementation of the classic red black binary tree.">
<polygon fill="none" stroke="black" points="171,-93 134,-93 134,-74 171,-74 171,-93"/>
<text text-anchor="middle" x="152.5" y="-81" font-family="Helvetica,sans-Serif" font-size="10.00">Tree</text>
</a>
</g>
</g>
<!-- Node0&#45;&gt;Node32 -->
<g id="edge32" class="edge">
<title>Node0&#45;&gt;Node32</title>
<path fill="none" stroke="black" d="M31.32,-599.58C30.94,-514.3 33.58,-180.81 97,-102.5 105.89,-91.52 121.52,-86.87 133.77,-84.91"/>
<polygon fill="black" stroke="black" points="27.82,-599.74 31.38,-609.71 34.82,-599.69 27.82,-599.74"/>
</g>
<!-- Node4 -->
<g id="node34" class="node">
<title>Node4</title>
<g id="a_node34"><a xlink:href="group___fifty_one_degrees_collection_key.html" target="_top" xlink:title="Group of related items such as keys.">
<polygon fill="none" stroke="black" points="194,-56 111,-56 111,-37 194,-37 194,-56"/>
<text text-anchor="middle" x="152.5" y="-44" font-family="Helvetica,sans-Serif" font-size="10.00">CollectionKey</text>
</a>
</g>
</g>
<!-- Node0&#45;&gt;Node4 -->
<g id="edge4" class="edge">
<title>Node0&#45;&gt;Node4</title>
<path fill="none" stroke="black" d="M31.13,-599.87C29.87,-511.36 29.03,-150.15 97,-65.5 100.7,-60.89 105.59,-57.4 110.93,-54.75"/>
<polygon fill="black" stroke="black" points="27.63,-599.94 31.3,-609.89 34.63,-599.83 27.63,-599.94"/>
</g>
<!-- Node15 -->
<g id="node35" class="node">
<title>Node15</title>
<g id="a_node35"><a xlink:href="group___fifty_one_degrees_headers.html" target="_top" xlink:title="Common form of evidence in 51Degrees engines.">
<polygon fill="none" stroke="black" points="181,-19 124,-19 124,0 181,0 181,-19"/>
<text text-anchor="middle" x="152.5" y="-7" font-family="Helvetica,sans-Serif" font-size="10.00">Headers</text>
</a>
</g>
</g>
<!-- Node0&#45;&gt;Node15 -->
<g id="edge15" class="edge">
<title>Node0&#45;&gt;Node15</title>
<path fill="none" stroke="black" d="M32.46,-599.63C37.32,-501.79 60.56,-74.22 97,-28.5 103.56,-20.27 113.9,-15.6 123.83,-12.94"/>
<polygon fill="black" stroke="black" points="28.96,-599.49 31.96,-609.65 35.95,-599.84 28.96,-599.49"/>
</g>
</g>
</svg>
