<?xml version="1.0" encoding="UTF-8" standalone="no"?>
<!DOCTYPE svg PUBLIC "-//W3C//DTD SVG 1.1//EN"
 "http://www.w3.org/Graphics/SVG/1.1/DTD/svg11.dtd">
<!-- Generated by graphviz version 2.43.0 (0)
 -->
<!-- Title: Common Pages: 1 -->
<svg width="216pt" height="1248pt"
 viewBox="0.00 0.00 216.00 1248.00" xmlns="http://www.w3.org/2000/svg" xmlns:xlink="http://www.w3.org/1999/xlink">
<g id="graph0" class="graph" transform="scale(1 1) rotate(0) translate(4 1244)">
<title>Common</title>
<!-- Node2 -->
<g id="Node000002" class="node">
<title>Node2</title>
<g id="a_Node000002"><a xlink:href="group___fifty_one_degrees_array.html" target="_top" xlink:title="Macros used to quickly define array structures.">
<polygon fill="white" stroke="#666666" points="176.5,-1240 128.5,-1240 128.5,-1221 176.5,-1221 176.5,-1240"/>
<text text-anchor="middle" x="152.5" y="-1228" font-family="Helvetica,sans-Serif" font-size="10.00">Arrays</text>
</a>
</g>
</g>
<!-- Node3 -->
<g id="Node000003" class="node">
<title>Node3</title>
<g id="a_Node000003"><a xlink:href="group___fifty_one_degrees_cache.html" target="_top" xlink:title="Fixed size, thread safe, loading, tree based cache.">
<polygon fill="white" stroke="#666666" points="176,-1203 129,-1203 129,-1184 176,-1184 176,-1203"/>
<text text-anchor="middle" x="152.5" y="-1191" font-family="Helvetica,sans-Serif" font-size="10.00">Cache</text>
</a>
</g>
</g>
<!-- Node4 -->
<g id="Node000004" class="node">
<title>Node4</title>
<g id="a_Node000004"><a xlink:href="group___fifty_one_degrees_collection.html" target="_top" xlink:title="Group of related items such as strings.">
<polygon fill="white" stroke="#666666" points="185,-1166 120,-1166 120,-1147 185,-1147 185,-1166"/>
<text text-anchor="middle" x="152.5" y="-1154" font-family="Helvetica,sans-Serif" font-size="10.00">Collection</text>
</a>
</g>
</g>
<!-- Node5 -->
<g id="Node000005" class="node">
<title>Node5</title>
<g id="a_Node000005"><a xlink:href="group___fifty_one_degrees_collection_key.html" target="_top" xlink:title="Group of related items such as keys.">
<polygon fill="white" stroke="#666666" points="194,-1129 111,-1129 111,-1110 194,-1110 194,-1129"/>
<text text-anchor="middle" x="152.5" y="-1117" font-family="Helvetica,sans-Serif" font-size="10.00">CollectionKey</text>
</a>
</g>
</g>
<!-- Node6 -->
<g id="Node000006" class="node">
<title>Node6</title>
<g id="a_Node000006"><a xlink:href="group___fifty_one_degrees_collection_key_types.html" target="_top" xlink:title="Group of related items such as collection key type constants.">
<polygon fill="white" stroke="#666666" points="208,-1092 97,-1092 97,-1073 208,-1073 208,-1092"/>
<text text-anchor="middle" x="152.5" y="-1080" font-family="Helvetica,sans-Serif" font-size="10.00">CollectionKeyTypes</text>
</a>
</g>
</g>
<!-- Node1 -->
<g id="Node000001" class="node">
<title>Node1</title>
<g id="a_Node000001"><a xlink:title="Common 51Degrees methods, types and macros.">
<polygon fill="#999999" stroke="#666666" points="61,-629 0,-629 0,-610 61,-610 61,-629"/>
<text text-anchor="middle" x="30.5" y="-617" font-family="Helvetica,sans-Serif" font-size="10.00">Common</text>
</a>
</g>
</g>
<!-- Node1&#45;&gt;Node2 -->
<g id="edge1" class="edge">
<title>Node1&#45;&gt;Node2</title>
<path fill="none" stroke="black" d="M32.44,-639.45C37.21,-737.67 60.07,-1166.92 97,-1212.5 104.59,-1221.87 117.18,-1226.4 128.35,-1228.58"/>
<polygon fill="black" stroke="black" points="35.93,-639.21 31.95,-629.39 28.94,-639.54 35.93,-639.21"/>
</g>
<!-- Node1&#45;&gt;Node3 -->
<g id="edge2" class="edge">
<title>Node1&#45;&gt;Node3</title>
<path fill="none" stroke="black" d="M31.09,-639.23C29.65,-728.17 28.11,-1091.1 97,-1175.5 104.75,-1185 117.63,-1189.52 128.93,-1191.66"/>
<polygon fill="black" stroke="black" points="34.59,-639.22 31.27,-629.16 27.59,-639.1 34.59,-639.22"/>
</g>
<!-- Node1&#45;&gt;Node4 -->
<g id="edge3" class="edge">
<title>Node1&#45;&gt;Node4</title>
<path fill="none" stroke="black" d="M31.27,-639.53C30.71,-725.24 32.72,-1060.4 97,-1138.5 102.76,-1145.5 111.31,-1149.8 119.95,-1152.43"/>
<polygon fill="black" stroke="black" points="34.78,-639.37 31.36,-629.34 27.78,-639.31 34.78,-639.37"/>
</g>
<!-- Node1&#45;&gt;Node5 -->
<g id="edge4" class="edge">
<title>Node1&#45;&gt;Node5</title>
<path fill="none" stroke="black" d="M31.49,-639.37C31.85,-720.99 37.19,-1029.54 97,-1101.5 100.69,-1105.94 105.51,-1109.3 110.75,-1111.83"/>
<polygon fill="black" stroke="black" points="34.99,-639.02 31.47,-629.03 27.99,-639.04 34.99,-639.02"/>
</g>
<!-- Node1&#45;&gt;Node6 -->
<g id="edge5" class="edge">
<title>Node1&#45;&gt;Node6</title>
<path fill="none" stroke="black" d="M31.74,-639.32C33.07,-716.86 41.68,-998.69 97,-1064.5 99.89,-1067.93 103.44,-1070.71 107.34,-1072.97"/>
<polygon fill="black" stroke="black" points="35.23,-638.99 31.59,-629.05 28.24,-639.1 35.23,-638.99"/>
</g>
<!-- Node7 -->
<g id="Node000007" class="node">
<title>Node7</title>
<g id="a_Node000007"><a xlink:href="group___fifty_one_degrees_component.html" target="_top" xlink:title="Component of a data set.">
<polygon fill="white" stroke="#666666" points="189,-1055 116,-1055 116,-1036 189,-1036 189,-1055"/>
<text text-anchor="middle" x="152.5" y="-1043" font-family="Helvetica,sans-Serif" font-size="10.00">Component</text>
</a>
</g>
</g>
<!-- Node1&#45;&gt;Node7 -->
<g id="edge6" class="edge">
<title>Node1&#45;&gt;Node7</title>
<path fill="none" stroke="black" d="M32.04,-639.54C34.41,-713.22 46.22,-967.88 97,-1027.5 101.91,-1033.27 108.71,-1037.19 115.84,-1039.87"/>
<polygon fill="black" stroke="black" points="35.53,-639.22 31.73,-629.33 28.53,-639.43 35.53,-639.22"/>
</g>
<!-- Node8 -->
<g id="Node000008" class="node">
<title>Node8</title>
<g id="a_Node000008"><a xlink:href="group___fifty_one_degrees_config.html" target="_top" xlink:title="Configuration for building data sets.">
<polygon fill="white" stroke="#666666" points="176,-1018 129,-1018 129,-999 176,-999 176,-1018"/>
<text text-anchor="middle" x="152.5" y="-1006" font-family="Helvetica,sans-Serif" font-size="10.00">Config</text>
</a>
</g>
</g>
<!-- Node1&#45;&gt;Node8 -->
<g id="edge7" class="edge">
<title>Node1&#45;&gt;Node8</title>
<path fill="none" stroke="black" d="M32.39,-639.47C35.86,-708.68 50.68,-936.96 97,-990.5 104.95,-999.69 117.7,-1004.21 128.87,-1006.42"/>
<polygon fill="black" stroke="black" points="35.87,-638.94 31.9,-629.12 28.88,-639.28 35.87,-638.94"/>
</g>
<!-- Node9 -->
<g id="Node000009" class="node">
<title>Node9</title>
<g id="a_Node000009"><a xlink:href="group___fifty_one_degrees_data.html" target="_top" xlink:title="Structure containing memory allocated to store a variable.">
<polygon fill="white" stroke="#666666" points="172.5,-981 132.5,-981 132.5,-962 172.5,-962 172.5,-981"/>
<text text-anchor="middle" x="152.5" y="-969" font-family="Helvetica,sans-Serif" font-size="10.00">Data</text>
</a>
</g>
</g>
<!-- Node1&#45;&gt;Node9 -->
<g id="edge8" class="edge">
<title>Node1&#45;&gt;Node9</title>
<path fill="none" stroke="black" d="M32.79,-639.14C37.41,-703.39 55.06,-905.94 97,-953.5 105.9,-963.59 120.57,-968.04 132.45,-970"/>
<polygon fill="black" stroke="black" points="36.28,-638.86 32.1,-629.12 29.3,-639.34 36.28,-638.86"/>
</g>
<!-- Node10 -->
<g id="Node000010" class="node">
<title>Node10</title>
<g id="a_Node000010"><a xlink:href="group___fifty_one_degrees_data_set.html" target="_top" xlink:title="A data file initialised in a structure.">
<polygon fill="white" stroke="#666666" points="182,-944 123,-944 123,-925 182,-925 182,-944"/>
<text text-anchor="middle" x="152.5" y="-932" font-family="Helvetica,sans-Serif" font-size="10.00">Data Set</text>
</a>
</g>
</g>
<!-- Node1&#45;&gt;Node10 -->
<g id="edge9" class="edge">
<title>Node1&#45;&gt;Node10</title>
<path fill="none" stroke="black" d="M33.33,-639.25C39.22,-698.8 59.52,-874.99 97,-916.5 103.68,-923.9 113.45,-928.26 122.89,-930.83"/>
<polygon fill="black" stroke="black" points="36.81,-638.88 32.37,-629.26 29.84,-639.55 36.81,-638.88"/>
</g>
<!-- Node11 -->
<g id="Node000011" class="node">
<title>Node11</title>
<g id="a_Node000011"><a xlink:href="group___fifty_one_degrees_date.html" target="_top" xlink:title="Represents a date in a data set.">
<polygon fill="white" stroke="#666666" points="172.5,-907 132.5,-907 132.5,-888 172.5,-888 172.5,-907"/>
<text text-anchor="middle" x="152.5" y="-895" font-family="Helvetica,sans-Serif" font-size="10.00">Date</text>
</a>
</g>
</g>
<!-- Node1&#45;&gt;Node11 -->
<g id="edge10" class="edge">
<title>Node1&#45;&gt;Node11</title>
<path fill="none" stroke="black" d="M34,-639.24C41.25,-693.62 63.92,-843.94 97,-879.5 106.09,-889.28 120.6,-893.75 132.36,-895.79"/>
<polygon fill="black" stroke="black" points="37.45,-638.63 32.69,-629.17 30.51,-639.53 37.45,-638.63"/>
</g>
<!-- Node12 -->
<g id="Node000012" class="node">
<title>Node12</title>
<g id="a_Node000012"><a xlink:href="group___fifty_one_degrees_exceptions.html" target="_top" xlink:title="Allow the bubbling up or errors in C.">
<polygon fill="white" stroke="#666666" points="187.5,-870 117.5,-870 117.5,-851 187.5,-851 187.5,-870"/>
<text text-anchor="middle" x="152.5" y="-858" font-family="Helvetica,sans-Serif" font-size="10.00">Exceptions</text>
</a>
</g>
</g>
<!-- Node1&#45;&gt;Node12 -->
<g id="edge11" class="edge">
<title>Node1&#45;&gt;Node12</title>
<path fill="none" stroke="black" d="M31.5,-639.3C32.58,-682.28 41.24,-784.85 97,-842.5 102.54,-848.23 109.94,-852.14 117.5,-854.8"/>
<polygon fill="black" stroke="black" points="34.99,-639.02 31.36,-629.07 27.99,-639.11 34.99,-639.02"/>
</g>
<!-- Node14 -->
<g id="Node000014" class="node">
<title>Node14</title>
<g id="a_Node000014"><a xlink:href="group___fifty_one_degrees_file.html" target="_top" xlink:title="File handle pool and simple file operations e.g.">
<polygon fill="white" stroke="#666666" points="169.5,-833 135.5,-833 135.5,-814 169.5,-814 169.5,-833"/>
<text text-anchor="middle" x="152.5" y="-821" font-family="Helvetica,sans-Serif" font-size="10.00">File</text>
</a>
</g>
</g>
<!-- Node1&#45;&gt;Node14 -->
<g id="edge13" class="edge">
<title>Node1&#45;&gt;Node14</title>
<path fill="none" stroke="black" d="M32.87,-639.33C36.55,-676.99 49.82,-759.23 97,-805.5 107.25,-815.55 123.21,-819.99 135.22,-821.95"/>
<polygon fill="black" stroke="black" points="36.35,-638.83 32.02,-629.16 29.37,-639.42 36.35,-638.83"/>
</g>
<!-- Node16 -->
<g id="Node000016" class="node">
<title>Node16</title>
<g id="a_Node000016"><a xlink:href="group___fifty_one_degrees_headers.html" target="_top" xlink:title="Common form of evidence in 51Degrees engines.">
<polygon fill="white" stroke="#666666" points="181,-796 124,-796 124,-777 181,-777 181,-796"/>
<text text-anchor="middle" x="152.5" y="-784" font-family="Helvetica,sans-Serif" font-size="10.00">Headers</text>
</a>
</g>
</g>
<!-- Node1&#45;&gt;Node16 -->
<g id="edge15" class="edge">
<title>Node1&#45;&gt;Node16</title>
<path fill="none" stroke="black" d="M34.87,-639.28C41.29,-671.01 58.27,-733.29 97,-768.5 104.45,-775.27 114.5,-779.5 123.95,-782.14"/>
<polygon fill="black" stroke="black" points="38.24,-638.27 32.96,-629.08 31.36,-639.55 38.24,-638.27"/>
</g>
<!-- Node17 -->
<g id="Node000017" class="node">
<title>Node17</title>
<g id="a_Node000017"><a xlink:href="group___fifty_one_degrees_indices.html" target="_top" xlink:title="A look up structure for profile and property index to the first value associated with the property an...">
<polygon fill="white" stroke="#666666" points="178,-759 127,-759 127,-740 178,-740 178,-759"/>
<text text-anchor="middle" x="152.5" y="-747" font-family="Helvetica,sans-Serif" font-size="10.00">Indices</text>
</a>
</g>
</g>
<!-- Node1&#45;&gt;Node17 -->
<g id="edge16" class="edge">
<title>Node1&#45;&gt;Node17</title>
<path fill="none" stroke="black" d="M37.94,-638.93C47.17,-663.86 66.49,-706.81 97,-731.5 105.52,-738.39 116.78,-742.69 126.85,-745.34"/>
<polygon fill="black" stroke="black" points="41.13,-637.43 34.5,-629.17 34.52,-639.76 41.13,-637.43"/>
</g>
<!-- Node19 -->
<g id="Node000019" class="node">
<title>Node19</title>
<g id="a_Node000019"><a xlink:href="group___fifty_one_degrees_json.html" target="_top" xlink:title="JSON methods.">
<polygon fill="white" stroke="#666666" points="173,-722 132,-722 132,-703 173,-703 173,-722"/>
<text text-anchor="middle" x="152.5" y="-710" font-family="Helvetica,sans-Serif" font-size="10.00">JSON</text>
</a>
</g>
</g>
<!-- Node1&#45;&gt;Node19 -->
<g id="edge18" class="edge">
<title>Node1&#45;&gt;Node19</title>
<path fill="none" stroke="black" d="M42.99,-637.49C54.68,-654.44 74.27,-679.42 97,-694.5 107.54,-701.5 121.04,-705.98 131.96,-708.73"/>
<polygon fill="black" stroke="black" points="45.8,-635.39 37.34,-629.01 39.98,-639.27 45.8,-635.39"/>
</g>
<!-- Node20 -->
<g id="Node000020" class="node">
<title>Node20</title>
<g id="a_Node000020"><a xlink:href="group___fifty_one_degrees_list.html" target="_top" xlink:title="A more manageable way to store arrays.">
<polygon fill="white" stroke="#666666" points="169.5,-685 135.5,-685 135.5,-666 169.5,-666 169.5,-685"/>
<text text-anchor="middle" x="152.5" y="-673" font-family="Helvetica,sans-Serif" font-size="10.00">List</text>
</a>
</g>
</g>
<!-- Node1&#45;&gt;Node20 -->
<g id="edge19" class="edge">
<title>Node1&#45;&gt;Node20</title>
<path fill="none" stroke="black" d="M54.55,-634.45C66.83,-642 82.38,-650.93 97,-657.5 109.54,-663.14 124.4,-667.93 135.43,-671.15"/>
<polygon fill="black" stroke="black" points="56.2,-631.35 45.87,-629 52.48,-637.28 56.2,-631.35"/>
</g>
<!-- Node21 -->
<g id="Node000021" class="node">
<title>Node21</title>
<g id="a_Node000021"><a xlink:href="group___fifty_one_degrees_memory.html" target="_top" xlink:title="Utility methods used to handle common memory operations such as allocating memory and freeing it,...">
<polygon fill="white" stroke="#666666" points="181,-648 124,-648 124,-629 181,-629 181,-648"/>
<text text-anchor="middle" x="152.5" y="-636" font-family="Helvetica,sans-Serif" font-size="10.00">Memory</text>
</a>
</g>
</g>
<!-- Node1&#45;&gt;Node21 -->
<g id="edge20" class="edge">
<title>Node1&#45;&gt;Node21</title>
<path fill="none" stroke="black" d="M71.48,-625.83C88.65,-628.55 108.3,-631.66 123.82,-634.12"/>
<polygon fill="black" stroke="black" points="71.59,-622.3 61.16,-624.2 70.49,-629.22 71.59,-622.3"/>
</g>
<!-- Node22 -->
<g id="Node000022" class="node">
<title>Node22</title>
<g id="a_Node000022"><a xlink:href="group___fifty_one_degrees_overrides.html" target="_top" xlink:title="Used to override properties values or an entire profile.">
<polygon fill="white" stroke="#666666" points="184.5,-611 120.5,-611 120.5,-592 184.5,-592 184.5,-611"/>
<text text-anchor="middle" x="152.5" y="-599" font-family="Helvetica,sans-Serif" font-size="10.00">Overrides</text>
</a>
</g>
</g>
<!-- Node1&#45;&gt;Node22 -->
<g id="edge21" class="edge">
<title>Node1&#45;&gt;Node22</title>
<path fill="none" stroke="black" d="M71.23,-613.54C87.11,-611.16 105.14,-608.45 120.08,-606.21"/>
<polygon fill="black" stroke="black" points="70.53,-610.11 61.16,-615.05 71.57,-617.03 70.53,-610.11"/>
</g>
<!-- Node23 -->
<g id="Node000023" class="node">
<title>Node23</title>
<g id="a_Node000023"><a xlink:href="group___fifty_one_degrees_pool.html" target="_top" xlink:title="Pool of handles to allow safe access to multiple threads.">
<polygon fill="white" stroke="#666666" points="171.5,-574 133.5,-574 133.5,-555 171.5,-555 171.5,-574"/>
<text text-anchor="middle" x="152.5" y="-562" font-family="Helvetica,sans-Serif" font-size="10.00">Pool</text>
</a>
</g>
</g>
<!-- Node1&#45;&gt;Node23 -->
<g id="edge22" class="edge">
<title>Node1&#45;&gt;Node23</title>
<path fill="none" stroke="black" d="M55.91,-604.81C68.02,-597.86 83.02,-589.73 97,-583.5 108.72,-578.28 122.34,-573.53 133.04,-570.09"/>
<polygon fill="black" stroke="black" points="54.14,-601.79 47.27,-609.86 57.67,-607.84 54.14,-601.79"/>
</g>
<!-- Node24 -->
<g id="Node000024" class="node">
<title>Node24</title>
<g id="a_Node000024"><a xlink:href="group___fifty_one_degrees_profile.html" target="_top" xlink:title="Profile containing a unique set of values for the properties of a single component.">
<polygon fill="white" stroke="#666666" points="176,-537 129,-537 129,-518 176,-518 176,-537"/>
<text text-anchor="middle" x="152.5" y="-525" font-family="Helvetica,sans-Serif" font-size="10.00">Profile</text>
</a>
</g>
</g>
<!-- Node1&#45;&gt;Node24 -->
<g id="edge23" class="edge">
<title>Node1&#45;&gt;Node24</title>
<path fill="none" stroke="black" d="M43.73,-601.29C55.59,-584.88 75,-561.15 97,-546.5 106.59,-540.11 118.56,-535.63 128.84,-532.63"/>
<polygon fill="black" stroke="black" points="40.81,-599.35 37.94,-609.55 46.55,-603.36 40.81,-599.35"/>
</g>
<!-- Node25 -->
<g id="Node000025" class="node">
<title>Node25</title>
<g id="a_Node000025"><a xlink:href="group___fifty_one_degrees_properties.html" target="_top" xlink:title="Structures for properties which are available, or required.">
<polygon fill="white" stroke="#666666" points="185.5,-500 119.5,-500 119.5,-481 185.5,-481 185.5,-500"/>
<text text-anchor="middle" x="152.5" y="-488" font-family="Helvetica,sans-Serif" font-size="10.00">Properties</text>
</a>
</g>
</g>
<!-- Node1&#45;&gt;Node25 -->
<g id="edge24" class="edge">
<title>Node1&#45;&gt;Node25</title>
<path fill="none" stroke="black" d="M38.24,-600.12C47.69,-575.67 67.15,-533.86 97,-509.5 103.44,-504.24 111.44,-500.39 119.3,-497.6"/>
<polygon fill="black" stroke="black" points="34.87,-599.13 34.7,-609.73 41.44,-601.56 34.87,-599.13"/>
</g>
<!-- Node26 -->
<g id="Node000026" class="node">
<title>Node26</title>
<g id="a_Node000026"><a xlink:href="group___fifty_one_degrees_property.html" target="_top" xlink:title="Property in a data set relating to a single component.">
<polygon fill="white" stroke="#666666" points="181.5,-463 123.5,-463 123.5,-444 181.5,-444 181.5,-463"/>
<text text-anchor="middle" x="152.5" y="-451" font-family="Helvetica,sans-Serif" font-size="10.00">Property</text>
</a>
</g>
</g>
<!-- Node1&#45;&gt;Node26 -->
<g id="edge25" class="edge">
<title>Node1&#45;&gt;Node26</title>
<path fill="none" stroke="black" d="M35.11,-599.6C41.81,-568.25 59.09,-507.37 97,-472.5 104.3,-465.79 114.11,-461.42 123.39,-458.6"/>
<polygon fill="black" stroke="black" points="31.62,-599.22 33.1,-609.71 38.48,-600.58 31.62,-599.22"/>
</g>
<!-- Node27 -->
<g id="Node000027" class="node">
<title>Node27</title>
<g id="a_Node000027"><a xlink:href="group___fifty_one_degrees_resource.html" target="_top" xlink:title="Resources to be managed by a resource manager.">
<polygon fill="white" stroke="#666666" points="206,-426 99,-426 99,-407 206,-407 206,-426"/>
<text text-anchor="middle" x="152.5" y="-414" font-family="Helvetica,sans-Serif" font-size="10.00">Resource Manager</text>
</a>
</g>
</g>
<!-- Node1&#45;&gt;Node27 -->
<g id="edge26" class="edge">
<title>Node1&#45;&gt;Node27</title>
<path fill="none" stroke="black" d="M33.01,-599.95C36.92,-562.81 50.57,-481.63 97,-435.5 100.91,-431.62 105.66,-428.52 110.7,-426.06"/>
<polygon fill="black" stroke="black" points="29.52,-599.7 32.09,-609.98 36.49,-600.34 29.52,-599.7"/>
</g>
<!-- Node28 -->
<g id="Node000028" class="node">
<title>Node28</title>
<g id="a_Node000028"><a xlink:href="group___fifty_one_degrees_results.html" target="_top" xlink:title="Structure returned by an engine&#39;s process method(s), containing values.">
<polygon fill="white" stroke="#666666" points="179,-389 126,-389 126,-370 179,-370 179,-389"/>
<text text-anchor="middle" x="152.5" y="-377" font-family="Helvetica,sans-Serif" font-size="10.00">Results</text>
</a>
</g>
</g>
<!-- Node1&#45;&gt;Node28 -->
<g id="edge27" class="edge">
<title>Node1&#45;&gt;Node28</title>
<path fill="none" stroke="black" d="M31.64,-599.35C33.05,-556.54 42.35,-455.8 97,-398.5 104.61,-390.52 115.74,-385.89 125.96,-383.21"/>
<polygon fill="black" stroke="black" points="28.14,-599.51 31.43,-609.58 35.14,-599.66 28.14,-599.51"/>
</g>
<!-- Node29 -->
<g id="Node000029" class="node">
<title>Node29</title>
<g id="a_Node000029"><a xlink:href="group___fifty_one_degrees_status.html" target="_top" xlink:title="Status codes and messages indicating the result of an operation.">
<polygon fill="white" stroke="#666666" points="176,-352 129,-352 129,-333 176,-333 176,-352"/>
<text text-anchor="middle" x="152.5" y="-340" font-family="Helvetica,sans-Serif" font-size="10.00">Status</text>
</a>
</g>
</g>
<!-- Node1&#45;&gt;Node29 -->
<g id="edge28" class="edge">
<title>Node1&#45;&gt;Node29</title>
<path fill="none" stroke="black" d="M34.05,-599.94C41.44,-546.04 64.42,-397.04 97,-361.5 105.19,-352.56 117.82,-347.83 128.85,-345.32"/>
<polygon fill="black" stroke="black" points="30.57,-599.55 32.71,-609.92 37.51,-600.48 30.57,-599.55"/>
</g>
<!-- Node30 -->
<g id="Node000030" class="node">
<title>Node30</title>
<g id="a_Node000030"><a xlink:href="group___fifty_one_degrees_string.html" target="_top" xlink:title="Byte array structures containing raw data bytes.">
<polygon fill="white" stroke="#666666" points="175,-315 130,-315 130,-296 175,-296 175,-315"/>
<text text-anchor="middle" x="152.5" y="-303" font-family="Helvetica,sans-Serif" font-size="10.00">String</text>
</a>
</g>
</g>
<!-- Node1&#45;&gt;Node30 -->
<g id="edge29" class="edge">
<title>Node1&#45;&gt;Node30</title>
<path fill="none" stroke="black" d="M33.42,-599.54C39.49,-540.11 60.15,-365.94 97,-324.5 105.32,-315.14 118.51,-310.39 129.83,-307.98"/>
<polygon fill="black" stroke="black" points="29.9,-599.52 32.39,-609.82 36.87,-600.21 29.9,-599.52"/>
</g>
<!-- Node13 -->
<g id="Node000013" class="node">
<title>Node13</title>
<g id="a_Node000013"><a xlink:href="group___fifty_one_degrees_synonyms.html" target="_top" xlink:title="Quick shortenings of common methods and types.">
<polygon fill="white" stroke="#666666" points="186.5,-278 118.5,-278 118.5,-259 186.5,-259 186.5,-278"/>
<text text-anchor="middle" x="152.5" y="-266" font-family="Helvetica,sans-Serif" font-size="10.00">Synonyms</text>
</a>
</g>
</g>
<!-- Node1&#45;&gt;Node13 -->
<g id="edge12" class="edge">
<title>Node1&#45;&gt;Node13</title>
<path fill="none" stroke="black" d="M32.87,-599.61C37.68,-535.39 55.75,-335 97,-287.5 102.52,-281.14 110.28,-276.91 118.23,-274.1"/>
<polygon fill="black" stroke="black" points="29.35,-599.72 32.13,-609.95 36.34,-600.23 29.35,-599.72"/>
</g>
<!-- Node31 -->
<g id="Node000031" class="node">
<title>Node31</title>
<g id="a_Node000031"><a xlink:href="group___fifty_one_degrees_text_file.html" target="_top" xlink:title="Contains helper methods for accessing and using text files.">
<polygon fill="white" stroke="#666666" points="179.5,-241 125.5,-241 125.5,-222 179.5,-222 179.5,-241"/>
<text text-anchor="middle" x="152.5" y="-229" font-family="Helvetica,sans-Serif" font-size="10.00">TextFile</text>
</a>
</g>
</g>
<!-- Node1&#45;&gt;Node31 -->
<g id="edge30" class="edge">
<title>Node1&#45;&gt;Node31</title>
<path fill="none" stroke="black" d="M32.44,-599.66C36.06,-530.91 51.34,-304.11 97,-250.5 104.08,-242.19 115.01,-237.51 125.23,-234.87"/>
<polygon fill="black" stroke="black" points="28.93,-599.78 31.92,-609.94 35.92,-600.13 28.93,-599.78"/>
</g>
<!-- Node32 -->
<g id="Node000032" class="node">
<title>Node32</title>
<g id="a_Node000032"><a xlink:href="group___fifty_one_degrees_threading.html" target="_top" xlink:title="Defines multi threading macros if the FIFTYONE_DEGREES_NO_THREADING compiler directive is not explici...">
<polygon fill="white" stroke="#666666" points="185,-204 120,-204 120,-185 185,-185 185,-204"/>
<text text-anchor="middle" x="152.5" y="-192" font-family="Helvetica,sans-Serif" font-size="10.00">Threading</text>
</a>
</g>
</g>
<!-- Node1&#45;&gt;Node32 -->
<g id="edge31" class="edge">
<title>Node1&#45;&gt;Node32</title>
<path fill="none" stroke="black" d="M32.09,-599.58C34.62,-526.36 46.93,-273.23 97,-213.5 102.79,-206.59 111.25,-202.19 119.78,-199.39"/>
<polygon fill="black" stroke="black" points="28.58,-599.63 31.76,-609.73 35.58,-599.85 28.58,-599.63"/>
</g>
<!-- Node33 -->
<g id="Node000033" class="node">
<title>Node33</title>
<g id="a_Node000033"><a xlink:href="group___fifty_one_degrees_tree.html" target="_top" xlink:title="Implementation of the classic red black binary tree.">
<polygon fill="white" stroke="#666666" points="171,-167 134,-167 134,-148 171,-148 171,-167"/>
<text text-anchor="middle" x="152.5" y="-155" font-family="Helvetica,sans-Serif" font-size="10.00">Tree</text>
</a>
</g>
</g>
<!-- Node1&#45;&gt;Node33 -->
<g id="edge32" class="edge">
<title>Node1&#45;&gt;Node33</title>
<path fill="none" stroke="black" d="M31.79,-599.3C33.32,-521.49 42.56,-242.32 97,-176.5 106.01,-165.61 121.62,-160.95 133.84,-158.97"/>
<polygon fill="black" stroke="black" points="28.29,-599.57 31.61,-609.63 35.29,-599.69 28.29,-599.57"/>
</g>
<!-- Node34 -->
<g id="Node000034" class="node">
<title>Node34</title>
<g id="a_Node000034"><a xlink:href="group___fifty_one_degrees_value.html" target="_top" xlink:title="Value of a data set relating to a property.">
<polygon fill="white" stroke="#666666" points="177,-130 128,-130 128,-111 177,-111 177,-130"/>
<text text-anchor="middle" x="152.5" y="-118" font-family="Helvetica,sans-Serif" font-size="10.00">Values</text>
</a>
</g>
</g>
<!-- Node1&#45;&gt;Node34 -->
<g id="edge33" class="edge">
<title>Node1&#45;&gt;Node34</title>
<path fill="none" stroke="black" d="M31.54,-599.21C32.09,-517.24 38.13,-211.48 97,-139.5 104.55,-130.27 116.86,-125.51 127.87,-123.07"/>
<polygon fill="black" stroke="black" points="28.04,-599.61 31.49,-609.63 35.04,-599.64 28.04,-599.61"/>
</g>
<!-- Node35 -->
<g id="Node000035" class="node">
<title>Node35</title>
<g id="a_Node000035"><a xlink:href="group___fifty_one_degrees_weighted_item.html" target="_top" xlink:title="A weighted collection item with an associated weight value.">
<polygon fill="white" stroke="#666666" points="199,-93 106,-93 106,-74 199,-74 199,-93"/>
<text text-anchor="middle" x="152.5" y="-81" font-family="Helvetica,sans-Serif" font-size="10.00">Weighted Items</text>
</a>
</g>
</g>
<!-- Node1&#45;&gt;Node35 -->
<g id="edge34" class="edge">
<title>Node1&#45;&gt;Node35</title>
<path fill="none" stroke="black" d="M31.32,-599.58C30.94,-514.3 33.58,-180.81 97,-102.5 100.15,-98.61 104.15,-95.51 108.55,-93.05"/>
<polygon fill="black" stroke="black" points="27.82,-599.74 31.38,-609.71 34.82,-599.69 27.82,-599.74"/>
</g>
<!-- Node15 -->
<g id="Node000015" class="node">
<title>Node15</title>
<g id="a_Node000015"><a xlink:href="group__fiftyone_degrees_float.html" target="_top" xlink:title="IEEE Single Precision Floating Point standard implementation and methods to convert to native float t...">
<polygon fill="white" stroke="#666666" points="173,-56 132,-56 132,-37 173,-37 173,-56"/>
<text text-anchor="middle" x="152.5" y="-44" font-family="Helvetica,sans-Serif" font-size="10.00">Float</text>
</a>
</g>
</g>
<!-- Node1&#45;&gt;Node15 -->
<g id="edge14" class="edge">
<title>Node1&#45;&gt;Node15</title>
<path fill="none" stroke="black" d="M31.13,-599.87C29.87,-511.36 29.03,-150.15 97,-65.5 105.41,-55.03 119.94,-50.32 131.89,-48.2"/>
<polygon fill="black" stroke="black" points="27.63,-599.94 31.3,-609.89 34.63,-599.83 27.63,-599.94"/>
</g>
<!-- Node18 -->
<g id="Node000018" class="node">
<title>Node18</title>
<g id="a_Node000018"><a xlink:href="group__fiftyone_degrees_ip.html" target="_top" xlink:title="Types and methods to parse IP address strings.">
<polygon fill="white" stroke="#666666" points="167,-19 138,-19 138,0 167,0 167,-19"/>
<text text-anchor="middle" x="152.5" y="-7" font-family="Helvetica,sans-Serif" font-size="10.00">IP</text>
</a>
</g>
</g>
<!-- Node1&#45;&gt;Node18 -->
<g id="edge17" class="edge">
<title>Node1&#45;&gt;Node18</title>
<path fill="none" stroke="black" d="M32.46,-599.63C37.32,-501.79 60.56,-74.22 97,-28.5 106.87,-16.12 125.31,-11.78 137.99,-10.28"/>
<polygon fill="black" stroke="black" points="28.96,-599.49 31.96,-609.65 35.95,-599.84 28.96,-599.49"/>
</g>
</g>
</svg>
