<?xml version="1.0" encoding="UTF-8" standalone="no"?>
<!DOCTYPE svg PUBLIC "-//W3C//DTD SVG 1.1//EN"
 "http://www.w3.org/Graphics/SVG/1.1/DTD/svg11.dtd">
<!-- Generated by graphviz version 2.43.0 (0)
 -->
<!-- Title: /home/runner/work/ip&#45;intelligence&#45;cxx/ip&#45;intelligence&#45;cxx/common/ip&#45;intelligence&#45;cxx/src/ipi_weighted_results.h Pages: 1 -->
<svg width="332pt" height="269pt"
 viewBox="0.00 0.00 331.50 269.00" xmlns="http://www.w3.org/2000/svg" xmlns:xlink="http://www.w3.org/1999/xlink">
<g id="graph0" class="graph" transform="scale(1 1) rotate(0) translate(4 265)">
<title>/home/runner/work/ip&#45;intelligence&#45;cxx/ip&#45;intelligence&#45;cxx/common/ip&#45;intelligence&#45;cxx/src/ipi_weighted_results.h</title>
<!-- Node1 -->
<g id="Node000001" class="node">
<title>Node1</title>
<g id="a_Node000001"><a xlink:title="Defines structures and functions for handling weighted values in IP Intelligence results.">
<polygon fill="#999999" stroke="#666666" points="273.5,-261 129.5,-261 129.5,-198 273.5,-198 273.5,-261"/>
<text text-anchor="start" x="137.5" y="-249" font-family="Helvetica,sans-Serif" font-size="10.00">/home/runner/work/ip</text>
<text text-anchor="start" x="137.5" y="-238" font-family="Helvetica,sans-Serif" font-size="10.00">&#45;intelligence&#45;cxx/ip</text>
<text text-anchor="start" x="137.5" y="-227" font-family="Helvetica,sans-Serif" font-size="10.00">&#45;intelligence&#45;cxx/common</text>
<text text-anchor="start" x="137.5" y="-216" font-family="Helvetica,sans-Serif" font-size="10.00">/ip&#45;intelligence&#45;cxx/src</text>
<text text-anchor="middle" x="201.5" y="-205" font-family="Helvetica,sans-Serif" font-size="10.00">/ipi_weighted_results.h</text>
</a>
</g>
</g>
<!-- Node2 -->
<g id="Node000002" class="node">
<title>Node2</title>
<g id="a_Node000002"><a xlink:href="fiftyone_8h_source.html" target="_top" xlink:title=" ">
<polygon fill="white" stroke="#666666" points="223.5,-162 79.5,-162 79.5,-99 223.5,-99 223.5,-162"/>
<text text-anchor="start" x="87.5" y="-150" font-family="Helvetica,sans-Serif" font-size="10.00">/home/runner/work/ip</text>
<text text-anchor="start" x="87.5" y="-139" font-family="Helvetica,sans-Serif" font-size="10.00">&#45;intelligence&#45;cxx/ip</text>
<text text-anchor="start" x="87.5" y="-128" font-family="Helvetica,sans-Serif" font-size="10.00">&#45;intelligence&#45;cxx/common</text>
<text text-anchor="start" x="87.5" y="-117" font-family="Helvetica,sans-Serif" font-size="10.00">/ip&#45;intelligence&#45;cxx/src</text>
<text text-anchor="middle" x="151.5" y="-106" font-family="Helvetica,sans-Serif" font-size="10.00">/fiftyone.h</text>
</a>
</g>
</g>
<!-- Node1&#45;&gt;Node2 -->
<g id="edge1_Node000001_Node000002" class="edge">
<title>Node1&#45;&gt;Node2</title>
<g id="a_edge1_Node000001_Node000002"><a xlink:title=" ">
<path fill="none" stroke="#63b8ff" d="M181.04,-188.8C176.49,-179.97 171.73,-170.74 167.39,-162.32"/>
<polygon fill="#63b8ff" stroke="#63b8ff" points="177.99,-190.52 185.68,-197.81 184.21,-187.32 177.99,-190.52"/>
</a>
</g>
</g>
<!-- Node4 -->
<g id="Node000004" class="node">
<title>Node4</title>
<g id="a_Node000004"><a xlink:href="ipi__weighted__results_8c.html" target="_top" xlink:title="Implementation of weighted values handling for IP Intelligence results.">
<polygon fill="white" stroke="#666666" points="323.5,-63 179.5,-63 179.5,0 323.5,0 323.5,-63"/>
<text text-anchor="start" x="187.5" y="-51" font-family="Helvetica,sans-Serif" font-size="10.00">/home/runner/work/ip</text>
<text text-anchor="start" x="187.5" y="-40" font-family="Helvetica,sans-Serif" font-size="10.00">&#45;intelligence&#45;cxx/ip</text>
<text text-anchor="start" x="187.5" y="-29" font-family="Helvetica,sans-Serif" font-size="10.00">&#45;intelligence&#45;cxx/common</text>
<text text-anchor="start" x="187.5" y="-18" font-family="Helvetica,sans-Serif" font-size="10.00">/ip&#45;intelligence&#45;cxx/src</text>
<text text-anchor="middle" x="251.5" y="-7" font-family="Helvetica,sans-Serif" font-size="10.00">/ipi_weighted_results.c</text>
</a>
</g>
</g>
<!-- Node1&#45;&gt;Node4 -->
<g id="edge4_Node000001_Node000004" class="edge">
<title>Node1&#45;&gt;Node4</title>
<g id="a_edge4_Node000001_Node000004"><a xlink:title=" ">
<path fill="none" stroke="#63b8ff" d="M222.33,-188.69C226.2,-180.07 229.84,-170.87 232.5,-162 242.38,-129.02 247.22,-89.72 249.52,-63.13"/>
<polygon fill="#63b8ff" stroke="#63b8ff" points="219.15,-187.23 218.1,-197.77 225.49,-190.19 219.15,-187.23"/>
</a>
</g>
</g>
<!-- Node3 -->
<g id="Node000003" class="node">
<title>Node3</title>
<g id="a_Node000003"><a xlink:href="_example_base_8h_source.html" target="_top" xlink:title=" ">
<polygon fill="white" stroke="#666666" points="161,-63 0,-63 0,0 161,0 161,-63"/>
<text text-anchor="start" x="8" y="-51" font-family="Helvetica,sans-Serif" font-size="10.00">/home/runner/work/ip</text>
<text text-anchor="start" x="8" y="-40" font-family="Helvetica,sans-Serif" font-size="10.00">&#45;intelligence&#45;cxx/ip</text>
<text text-anchor="start" x="8" y="-29" font-family="Helvetica,sans-Serif" font-size="10.00">&#45;intelligence&#45;cxx/common</text>
<text text-anchor="start" x="8" y="-18" font-family="Helvetica,sans-Serif" font-size="10.00">/ip&#45;intelligence&#45;cxx/examples</text>
<text text-anchor="middle" x="80.5" y="-7" font-family="Helvetica,sans-Serif" font-size="10.00">/Base/ExampleBase.h</text>
</a>
</g>
</g>
<!-- Node2&#45;&gt;Node3 -->
<g id="edge2_Node000002_Node000003" class="edge">
<title>Node2&#45;&gt;Node3</title>
<g id="a_edge2_Node000002_Node000003"><a xlink:title=" ">
<path fill="none" stroke="#63b8ff" d="M123.05,-90.64C116.41,-81.56 109.41,-72 103.06,-63.32"/>
<polygon fill="#63b8ff" stroke="#63b8ff" points="120.3,-92.81 129.04,-98.81 125.95,-88.67 120.3,-92.81"/>
</a>
</g>
</g>
<!-- Node2&#45;&gt;Node4 -->
<g id="edge3_Node000002_Node000004" class="edge">
<title>Node2&#45;&gt;Node4</title>
<g id="a_edge3_Node000002_Node000004"><a xlink:title=" ">
<path fill="none" stroke="#63b8ff" d="M190.42,-91.75C200.12,-82.34 210.41,-72.36 219.72,-63.32"/>
<polygon fill="#63b8ff" stroke="#63b8ff" points="187.88,-89.33 183.14,-98.81 192.76,-94.36 187.88,-89.33"/>
</a>
</g>
</g>
</g>
</svg>
