<?xml version="1.0" encoding="UTF-8" standalone="no"?>
<!DOCTYPE svg PUBLIC "-//W3C//DTD SVG 1.1//EN"
 "http://www.w3.org/Graphics/SVG/1.1/DTD/svg11.dtd">
<!-- Generated by graphviz version 2.43.0 (0)
 -->
<!-- Title: ipi_weighted_results.h Pages: 1 -->
<svg width="244pt" height="137pt"
 viewBox="0.00 0.00 243.50 137.00" xmlns="http://www.w3.org/2000/svg" xmlns:xlink="http://www.w3.org/1999/xlink">
<g id="graph0" class="graph" transform="scale(1 1) rotate(0) translate(4 133)">
<title>ipi_weighted_results.h</title>
<!-- Node1 -->
<g id="Node000001" class="node">
<title>Node1</title>
<g id="a_Node000001"><a xlink:title="Defines structures and functions for handling weighted values in IP Intelligence results.">
<polygon fill="#999999" stroke="#666666" points="206,-129 80,-129 80,-110 206,-110 206,-129"/>
<text text-anchor="middle" x="143" y="-117" font-family="Helvetica,sans-Serif" font-size="10.00">ipi_weighted_results.h</text>
</a>
</g>
</g>
<!-- Node2 -->
<g id="Node000002" class="node">
<title>Node2</title>
<g id="a_Node000002"><a xlink:href="fiftyone_8h_source.html" target="_top" xlink:title=" ">
<polygon fill="white" stroke="#666666" points="145,-74 83,-74 83,-55 145,-55 145,-74"/>
<text text-anchor="middle" x="114" y="-62" font-family="Helvetica,sans-Serif" font-size="10.00">fiftyone.h</text>
</a>
</g>
</g>
<!-- Node1&#45;&gt;Node2 -->
<g id="edge1_Node000001_Node000002" class="edge">
<title>Node1&#45;&gt;Node2</title>
<g id="a_edge1_Node000001_Node000002"><a xlink:title=" ">
<path fill="none" stroke="#63b8ff" d="M133.32,-100.82C128.4,-91.82 122.64,-81.29 118.7,-74.09"/>
<polygon fill="#63b8ff" stroke="#63b8ff" points="130.34,-102.66 138.21,-109.75 136.48,-99.3 130.34,-102.66"/>
</a>
</g>
</g>
<!-- Node4 -->
<g id="Node000004" class="node">
<title>Node4</title>
<g id="a_Node000004"><a xlink:href="ipi__weighted__results_8c.html" target="_top" xlink:title="Implementation of weighted values handling for IP Intelligence results.">
<polygon fill="white" stroke="#666666" points="235.5,-19 110.5,-19 110.5,0 235.5,0 235.5,-19"/>
<text text-anchor="middle" x="173" y="-7" font-family="Helvetica,sans-Serif" font-size="10.00">ipi_weighted_results.c</text>
</a>
</g>
</g>
<!-- Node1&#45;&gt;Node4 -->
<g id="edge4_Node000001_Node000004" class="edge">
<title>Node1&#45;&gt;Node4</title>
<g id="a_edge4_Node000001_Node000004"><a xlink:title=" ">
<path fill="none" stroke="#63b8ff" d="M148.19,-99.8C154.75,-76.2 165.76,-36.58 170.59,-19.16"/>
<polygon fill="#63b8ff" stroke="#63b8ff" points="144.76,-99.09 145.46,-109.66 151.5,-100.96 144.76,-99.09"/>
</a>
</g>
</g>
<!-- Node3 -->
<g id="Node000003" class="node">
<title>Node3</title>
<g id="a_Node000003"><a xlink:href="_example_base_8h_source.html" target="_top" xlink:title=" ">
<polygon fill="white" stroke="#666666" points="92,-19 0,-19 0,0 92,0 92,-19"/>
<text text-anchor="middle" x="46" y="-7" font-family="Helvetica,sans-Serif" font-size="10.00">ExampleBase.h</text>
</a>
</g>
</g>
<!-- Node2&#45;&gt;Node3 -->
<g id="edge2_Node000002_Node000003" class="edge">
<title>Node2&#45;&gt;Node3</title>
<g id="a_edge2_Node000002_Node000003"><a xlink:title=" ">
<path fill="none" stroke="#63b8ff" d="M94.88,-48.6C82.7,-39.11 67.34,-27.13 57.12,-19.17"/>
<polygon fill="#63b8ff" stroke="#63b8ff" points="93.04,-51.6 103.07,-54.98 97.34,-46.08 93.04,-51.6"/>
</a>
</g>
</g>
<!-- Node2&#45;&gt;Node4 -->
<g id="edge3_Node000002_Node000004" class="edge">
<title>Node2&#45;&gt;Node4</title>
<g id="a_edge3_Node000002_Node000004"><a xlink:title=" ">
<path fill="none" stroke="#63b8ff" d="M131.2,-48.04C141.67,-38.64 154.65,-26.98 163.35,-19.17"/>
<polygon fill="#63b8ff" stroke="#63b8ff" points="128.58,-45.7 123.48,-54.98 133.26,-50.91 128.58,-45.7"/>
</a>
</g>
</g>
</g>
</svg>
