<?xml version="1.0" encoding="UTF-8" standalone="no"?>
<!DOCTYPE svg PUBLIC "-//W3C//DTD SVG 1.1//EN"
 "http://www.w3.org/Graphics/SVG/1.1/DTD/svg11.dtd">
<!-- Generated by graphviz version 2.43.0 (0)
 -->
<!-- Title: fiftyoneDegreesFilePool Pages: 1 -->
<svg width="322pt" height="171pt"
 viewBox="0.00 0.00 321.50 171.00" xmlns="http://www.w3.org/2000/svg" xmlns:xlink="http://www.w3.org/1999/xlink">
<g id="graph0" class="graph" transform="scale(1 1) rotate(0) translate(4 167)">
<title>fiftyoneDegreesFilePool</title>
<!-- Node1 -->
<g id="Node000001" class="node">
<title>Node1</title>
<g id="a_Node000001"><a xlink:title="Stack of handles used to read data from a single source file.">
<polygon fill="#999999" stroke="#666666" points="132,-19 0,-19 0,0 132,0 132,-19"/>
<text text-anchor="middle" x="66" y="-7" font-family="Helvetica,sans-Serif" font-size="10.00">fiftyoneDegreesFilePool</text>
</a>
</g>
</g>
<!-- Node2 -->
<g id="Node000002" class="node">
<title>Node2</title>
<g id="a_Node000002"><a xlink:href="structfiftyone_degrees_pool.html" target="_top" xlink:title="Pool of resources stored as items in a stack.">
<polygon fill="white" stroke="#666666" points="225.5,-91 110.5,-91 110.5,-72 225.5,-72 225.5,-91"/>
<text text-anchor="middle" x="168" y="-79" font-family="Helvetica,sans-Serif" font-size="10.00">fiftyoneDegreesPool</text>
</a>
</g>
</g>
<!-- Node2&#45;&gt;Node1 -->
<g id="edge1_Node000001_Node000002" class="edge">
<title>Node2&#45;&gt;Node1</title>
<g id="a_edge1_Node000001_Node000002"><a xlink:title=" ">
<path fill="none" stroke="#9a32cd" stroke-dasharray="5,2" d="M147.1,-66.16C126.5,-52.02 95.72,-30.89 78.61,-19.15"/>
<polygon fill="#9a32cd" stroke="#9a32cd" points="145.27,-69.14 155.49,-71.92 149.23,-63.37 145.27,-69.14"/>
</a>
</g>
<text text-anchor="start" x="133" y="-42.5" font-family="Helvetica,sans-Serif" font-size="10.00" fill="grey">pool</text>
</g>
<!-- Node2&#45;&gt;Node2 -->
<g id="edge5_Node000002_Node000002" class="edge">
<title>Node2&#45;&gt;Node2</title>
<g id="a_edge5_Node000002_Node000002"><a xlink:title=" ">
<path fill="none" stroke="#9a32cd" stroke-dasharray="5,2" d="M235.53,-86.5C240.47,-85.37 243.5,-83.71 243.5,-81.5 243.5,-78.05 236.12,-75.93 225.61,-75.12"/>
<polygon fill="#9a32cd" stroke="#9a32cd" points="235.03,-83.03 225.61,-87.88 235.99,-89.97 235.03,-83.03"/>
</a>
</g>
<text text-anchor="start" x="246.5" y="-78.5" font-family="Helvetica,sans-Serif" font-size="10.00" fill="grey">resourceFree</text>
</g>
<!-- Node3 -->
<g id="Node000003" class="node">
<title>Node3</title>
<g id="a_Node000003"><a xlink:href="structfiftyone_degrees_pool_item.html" target="_top" xlink:title="Pool item node in the stack of items.">
<polygon fill="white" stroke="#666666" points="287.5,-19 150.5,-19 150.5,0 287.5,0 287.5,-19"/>
<text text-anchor="middle" x="219" y="-7" font-family="Helvetica,sans-Serif" font-size="10.00">fiftyoneDegreesPoolItem</text>
</a>
</g>
</g>
<!-- Node2&#45;&gt;Node3 -->
<g id="edge3_Node000003_Node000002" class="edge">
<title>Node2&#45;&gt;Node3</title>
<g id="a_edge3_Node000003_Node000002"><a xlink:title=" ">
<path fill="none" stroke="#9a32cd" stroke-dasharray="5,2" d="M162.04,-61.96C160.53,-53.76 160.43,-44.33 165,-37 170.14,-28.76 178.67,-23.01 187.45,-19.02"/>
<polygon fill="#9a32cd" stroke="#9a32cd" points="158.69,-62.96 164.57,-71.77 165.46,-61.21 158.69,-62.96"/>
</a>
</g>
<text text-anchor="start" x="168" y="-42.5" font-family="Helvetica,sans-Serif" font-size="10.00" fill="grey">pool</text>
</g>
<!-- Node3&#45;&gt;Node2 -->
<g id="edge2_Node000002_Node000003" class="edge">
<title>Node3&#45;&gt;Node2</title>
<g id="a_edge2_Node000002_Node000003"><a xlink:title=" ">
<path fill="none" stroke="#9a32cd" stroke-dasharray="5,2" d="M211.72,-28.43C207.95,-36.63 202.9,-46.23 197,-54 191.97,-60.63 185.15,-66.96 179.38,-71.77"/>
<polygon fill="#9a32cd" stroke="#9a32cd" points="215.02,-29.6 215.77,-19.03 208.6,-26.83 215.02,-29.6"/>
</a>
</g>
<text text-anchor="start" x="210.5" y="-42.5" font-family="Helvetica,sans-Serif" font-size="10.00" fill="grey">stack</text>
</g>
<!-- Node4 -->
<g id="Node000004" class="node">
<title>Node4</title>
<g id="a_Node000004"><a xlink:href="unionfiftyone_degrees_pool_head.html" target="_top" xlink:title="The head of the stack used for pop and push operations.">
<polygon fill="white" stroke="#666666" points="238,-163 98,-163 98,-144 238,-144 238,-163"/>
<text text-anchor="middle" x="168" y="-151" font-family="Helvetica,sans-Serif" font-size="10.00">fiftyoneDegreesPoolHead</text>
</a>
</g>
</g>
<!-- Node4&#45;&gt;Node2 -->
<g id="edge4_Node000002_Node000004" class="edge">
<title>Node4&#45;&gt;Node2</title>
<g id="a_edge4_Node000002_Node000004"><a xlink:title=" ">
<path fill="none" stroke="#9a32cd" stroke-dasharray="5,2" d="M168,-133.58C168,-119.76 168,-101.68 168,-91.15"/>
<polygon fill="#9a32cd" stroke="#9a32cd" points="164.5,-133.92 168,-143.92 171.5,-133.92 164.5,-133.92"/>
</a>
</g>
<text text-anchor="start" x="171.5" y="-114.5" font-family="Helvetica,sans-Serif" font-size="10.00" fill="grey">head</text>
</g>
</g>
</svg>
