<?xml version="1.0" encoding="UTF-8" standalone="no"?>
<!DOCTYPE svg PUBLIC "-//W3C//DTD SVG 1.1//EN"
 "http://www.w3.org/Graphics/SVG/1.1/DTD/svg11.dtd">
<!-- Generated by graphviz version 2.43.0 (0)
 -->
<!-- Title: fiftyoneDegreesCollection Pages: 1 -->
<svg width="379pt" height="112pt"
 viewBox="0.00 0.00 379.00 112.00" xmlns="http://www.w3.org/2000/svg" xmlns:xlink="http://www.w3.org/1999/xlink">
<g id="graph0" class="graph" transform="scale(1 1) rotate(0) translate(4 108)">
<title>fiftyoneDegreesCollection</title>
<!-- Node1 -->
<g id="Node000001" class="node">
<title>Node1</title>
<g id="a_Node000001"><a xlink:title="All the shared methods and fields required by file, memory and cached collections.">
<polygon fill="#999999" stroke="#666666" points="143,-97.5 0,-97.5 0,-78.5 143,-78.5 143,-97.5"/>
<text text-anchor="middle" x="71.5" y="-85.5" font-family="Helvetica,sans-Serif" font-size="10.00">fiftyoneDegreesCollection</text>
</a>
</g>
</g>
<!-- Node1&#45;&gt;Node1 -->
<g id="edge1_Node000001_Node000001" class="edge">
<title>Node1&#45;&gt;Node1</title>
<g id="a_edge1_Node000001_Node000001"><a xlink:title=" ">
<path fill="none" stroke="#9a32cd" stroke-dasharray="5,2" d="M153.11,-93.45C158.04,-92.16 161,-90.34 161,-88 161,-84.35 153.79,-81.97 143.13,-80.86"/>
<polygon fill="#9a32cd" stroke="#9a32cd" points="152.4,-90.02 143.13,-95.14 153.57,-96.92 152.4,-90.02"/>
</a>
</g>
<text text-anchor="start" x="164.5" y="-93" font-family="Helvetica,sans-Serif" font-size="10.00" fill="grey">freeCollection</text>
<text text-anchor="start" x="164.5" y="-78" font-family="Helvetica,sans-Serif" font-size="10.00" fill="grey">get</text>
</g>
<!-- Node2 -->
<g id="Node000002" class="node">
<title>Node2</title>
<g id="a_Node000002"><a xlink:href="structfiftyone_degrees_collection_item.html" target="_top" xlink:title="Used to store a handle to the underlying item that could be used to release the item when it&#39;s finish...">
<polygon fill="white" stroke="#666666" points="231,-19 66,-19 66,0 231,0 231,-19"/>
<text text-anchor="middle" x="148.5" y="-7" font-family="Helvetica,sans-Serif" font-size="10.00">fiftyoneDegreesCollectionItem</text>
</a>
</g>
</g>
<!-- Node1&#45;&gt;Node2 -->
<g id="edge4_Node000002_Node000001" class="edge">
<title>Node1&#45;&gt;Node2</title>
<g id="a_edge4_Node000002_Node000001"><a xlink:title=" ">
<path fill="none" stroke="#9a32cd" stroke-dasharray="5,2" d="M65.09,-68.69C62.73,-58.46 62,-46 68.5,-37 74.41,-28.82 82.95,-23.12 92.26,-19.16"/>
<polygon fill="#9a32cd" stroke="#9a32cd" points="61.74,-69.69 67.91,-78.3 68.46,-67.72 61.74,-69.69"/>
</a>
</g>
<text text-anchor="start" x="71.5" y="-42.5" font-family="Helvetica,sans-Serif" font-size="10.00" fill="grey">collection</text>
</g>
<!-- Node2&#45;&gt;Node1 -->
<g id="edge2_Node000001_Node000002" class="edge">
<title>Node2&#45;&gt;Node1</title>
<g id="a_edge2_Node000001_Node000002"><a xlink:title=" ">
<path fill="none" stroke="#9a32cd" stroke-dasharray="5,2" d="M142.14,-28.42C138.51,-36.87 133.3,-46.69 126.5,-54 116.72,-64.52 102.83,-72.81 91.45,-78.46"/>
<polygon fill="#9a32cd" stroke="#9a32cd" points="145.43,-29.62 145.8,-19.04 138.91,-27.08 145.43,-29.62"/>
</a>
</g>
<text text-anchor="start" x="142" y="-42.5" font-family="Helvetica,sans-Serif" font-size="10.00" fill="grey">release</text>
</g>
<!-- Node3 -->
<g id="Node000003" class="node">
<title>Node3</title>
<g id="a_Node000003"><a xlink:href="structfiftyone_degrees_data.html" target="_top" xlink:title="Data structure used for reusing memory which may have been allocated in a previous operation.">
<polygon fill="white" stroke="#666666" points="371,-97.5 254,-97.5 254,-78.5 371,-78.5 371,-97.5"/>
<text text-anchor="middle" x="312.5" y="-85.5" font-family="Helvetica,sans-Serif" font-size="10.00">fiftyoneDegreesData</text>
</a>
</g>
</g>
<!-- Node3&#45;&gt;Node2 -->
<g id="edge3_Node000002_Node000003" class="edge">
<title>Node3&#45;&gt;Node2</title>
<g id="a_edge3_Node000002_Node000003"><a xlink:title=" ">
<path fill="none" stroke="#9a32cd" stroke-dasharray="5,2" d="M284.78,-74.07C251.32,-58.46 195.96,-32.64 167.18,-19.21"/>
<polygon fill="#9a32cd" stroke="#9a32cd" points="283.46,-77.32 294.01,-78.37 286.42,-70.97 283.46,-77.32"/>
</a>
</g>
<text text-anchor="start" x="242.5" y="-42.5" font-family="Helvetica,sans-Serif" font-size="10.00" fill="grey">data</text>
</g>
</g>
</svg>
