<?xml version="1.0" encoding="UTF-8" standalone="no"?>
<!DOCTYPE svg PUBLIC "-//W3C//DTD SVG 1.1//EN"
 "http://www.w3.org/Graphics/SVG/1.1/DTD/svg11.dtd">
<!-- Generated by graphviz version 2.43.0 (0)
 -->
<!-- Title: fiftyoneDegreesJson Pages: 1 -->
<svg width="844pt" height="180pt"
 viewBox="0.00 0.00 844.00 180.00" xmlns="http://www.w3.org/2000/svg" xmlns:xlink="http://www.w3.org/1999/xlink">
<g id="graph0" class="graph" transform="scale(1 1) rotate(0) translate(4 176)">
<title>fiftyoneDegreesJson</title>
<!-- Node1 -->
<g id="Node000001" class="node">
<title>Node1</title>
<g id="a_Node000001"><a xlink:title="Structure used to populated a JSON string for all required properties and values.">
<polygon fill="#999999" stroke="#666666" points="836,-99 722,-99 722,-80 836,-80 836,-99"/>
<text text-anchor="middle" x="779" y="-87" font-family="Helvetica,sans-Serif" font-size="10.00">fiftyoneDegreesJson</text>
</a>
</g>
</g>
<!-- Node2 -->
<g id="Node000002" class="node">
<title>Node2</title>
<g id="a_Node000002"><a xlink:href="structfiftyone_degrees_string_builder.html" target="_top" xlink:title="String buffer for building strings with memory checks.">
<polygon fill="white" stroke="#666666" points="631,-172 474,-172 474,-153 631,-153 631,-172"/>
<text text-anchor="middle" x="552.5" y="-160" font-family="Helvetica,sans-Serif" font-size="10.00">fiftyoneDegreesStringBuilder</text>
</a>
</g>
</g>
<!-- Node2&#45;&gt;Node1 -->
<g id="edge1_Node000001_Node000002" class="edge">
<title>Node2&#45;&gt;Node1</title>
<g id="a_edge1_Node000001_Node000002"><a xlink:title=" ">
<path fill="none" stroke="#9a32cd" stroke-dasharray="5,2" d="M641.24,-154.94C662.26,-151.39 684.31,-146.17 704,-138.5 728.41,-128.99 753.03,-110.5 766.82,-99.15"/>
<polygon fill="#9a32cd" stroke="#9a32cd" points="640.68,-151.49 631.35,-156.51 641.77,-158.4 640.68,-151.49"/>
</a>
</g>
<text text-anchor="start" x="659.5" y="-158" font-family="Helvetica,sans-Serif" font-size="10.00" fill="grey">builder</text>
</g>
<!-- Node3 -->
<g id="Node000003" class="node">
<title>Node3</title>
<g id="a_Node000003"><a xlink:href="structfiftyone_degrees_collection.html" target="_top" xlink:title="All the shared methods and fields required by file, memory and cached collections.">
<polygon fill="white" stroke="#666666" points="143,-102 0,-102 0,-83 143,-83 143,-102"/>
<text text-anchor="middle" x="71.5" y="-90" font-family="Helvetica,sans-Serif" font-size="10.00">fiftyoneDegreesCollection</text>
</a>
</g>
</g>
<!-- Node3&#45;&gt;Node1 -->
<g id="edge2_Node000001_Node000003" class="edge">
<title>Node3&#45;&gt;Node1</title>
<g id="a_edge2_Node000001_Node000003"><a xlink:title=" ">
<path fill="none" stroke="#9a32cd" stroke-dasharray="5,2" d="M153.69,-100.08C156.15,-100.23 158.6,-100.37 161,-100.5 377.61,-112.05 432.09,-106.72 649,-108.5 673.44,-108.7 679.75,-111.56 704,-108.5 718.74,-106.64 734.74,-102.77 748.09,-99"/>
<polygon fill="#9a32cd" stroke="#9a32cd" points="153.69,-96.57 143.47,-99.38 153.21,-103.55 153.69,-96.57"/>
</a>
</g>
<text text-anchor="start" x="419" y="-113" font-family="Helvetica,sans-Serif" font-size="10.00" fill="grey">strings</text>
</g>
<!-- Node3&#45;&gt;Node3 -->
<g id="edge3_Node000003_Node000003" class="edge">
<title>Node3&#45;&gt;Node3</title>
<g id="a_edge3_Node000003_Node000003"><a xlink:title=" ">
<path fill="none" stroke="#9a32cd" stroke-dasharray="5,2" d="M50.02,-111.55C51.45,-116.38 58.61,-120 71.5,-120 92.12,-120 98.08,-110.73 89.38,-102.08"/>
<polygon fill="#9a32cd" stroke="#9a32cd" points="53.34,-112.67 53.62,-102.08 46.8,-110.19 53.34,-112.67"/>
</a>
</g>
<text text-anchor="start" x="37.5" y="-141" font-family="Helvetica,sans-Serif" font-size="10.00" fill="grey">freeCollection</text>
<text text-anchor="start" x="37.5" y="-126" font-family="Helvetica,sans-Serif" font-size="10.00" fill="grey">get</text>
</g>
<!-- Node4 -->
<g id="Node000004" class="node">
<title>Node4</title>
<g id="a_Node000004"><a xlink:href="structfiftyone_degrees_collection_item.html" target="_top" xlink:title="Used to store a handle to the underlying item that could be used to release the item when it&#39;s finish...">
<polygon fill="white" stroke="#666666" points="398,-70 233,-70 233,-51 398,-51 398,-70"/>
<text text-anchor="middle" x="315.5" y="-58" font-family="Helvetica,sans-Serif" font-size="10.00">fiftyoneDegreesCollectionItem</text>
</a>
</g>
</g>
<!-- Node3&#45;&gt;Node4 -->
<g id="edge6_Node000004_Node000003" class="edge">
<title>Node3&#45;&gt;Node4</title>
<g id="a_edge6_Node000004_Node000003"><a xlink:title=" ">
<path fill="none" stroke="#9a32cd" stroke-dasharray="5,2" d="M153.2,-81.83C182.08,-78.01 214.41,-73.73 242.51,-70.02"/>
<polygon fill="#9a32cd" stroke="#9a32cd" points="152.6,-78.38 143.15,-83.16 153.52,-85.32 152.6,-78.38"/>
</a>
</g>
<text text-anchor="start" x="164" y="-85" font-family="Helvetica,sans-Serif" font-size="10.00" fill="grey">collection</text>
</g>
<!-- Node4&#45;&gt;Node3 -->
<g id="edge4_Node000003_Node000004" class="edge">
<title>Node4&#45;&gt;Node3</title>
<g id="a_edge4_Node000003_Node000004"><a xlink:title=" ">
<path fill="none" stroke="#9a32cd" stroke-dasharray="5,2" d="M245.95,-50.05C219.2,-47.87 188.43,-47.72 161,-53.5 134.38,-59.1 106.01,-73.23 88.77,-82.85"/>
<polygon fill="#9a32cd" stroke="#9a32cd" points="245.71,-53.54 255.99,-50.97 246.36,-46.57 245.71,-53.54"/>
</a>
</g>
<text text-anchor="start" x="170" y="-59" font-family="Helvetica,sans-Serif" font-size="10.00" fill="grey">release</text>
</g>
<!-- Node7 -->
<g id="Node000007" class="node">
<title>Node7</title>
<g id="a_Node000007"><a xlink:href="structfiftyone_degrees_list.html" target="_top" xlink:title="List structure which contains a list of collection items.">
<polygon fill="white" stroke="#666666" points="608,-96 497,-96 497,-77 608,-77 608,-96"/>
<text text-anchor="middle" x="552.5" y="-84" font-family="Helvetica,sans-Serif" font-size="10.00">fiftyoneDegreesList</text>
</a>
</g>
</g>
<!-- Node4&#45;&gt;Node7 -->
<g id="edge9_Node000007_Node000004" class="edge">
<title>Node4&#45;&gt;Node7</title>
<g id="a_edge9_Node000007_Node000004"><a xlink:title=" ">
<path fill="none" stroke="#9a32cd" stroke-dasharray="5,2" d="M408.08,-70.63C438.02,-73.95 470.32,-77.52 496.68,-80.43"/>
<polygon fill="#9a32cd" stroke="#9a32cd" points="408.36,-67.14 398.03,-69.52 407.59,-74.1 408.36,-67.14"/>
</a>
</g>
<text text-anchor="start" x="422" y="-81" font-family="Helvetica,sans-Serif" font-size="10.00" fill="grey">items</text>
</g>
<!-- Node5 -->
<g id="Node000005" class="node">
<title>Node5</title>
<g id="a_Node000005"><a xlink:href="structfiftyone_degrees_data.html" target="_top" xlink:title="Data structure used for reusing memory which may have been allocated in a previous operation.">
<polygon fill="white" stroke="#666666" points="130,-22 13,-22 13,-3 130,-3 130,-22"/>
<text text-anchor="middle" x="71.5" y="-10" font-family="Helvetica,sans-Serif" font-size="10.00">fiftyoneDegreesData</text>
</a>
</g>
</g>
<!-- Node5&#45;&gt;Node4 -->
<g id="edge5_Node000004_Node000005" class="edge">
<title>Node5&#45;&gt;Node4</title>
<g id="a_edge5_Node000004_Node000005"><a xlink:title=" ">
<path fill="none" stroke="#9a32cd" stroke-dasharray="5,2" d="M140.16,-16.62C163.99,-18.86 190.85,-22.29 215,-27.5 241.33,-33.18 270.47,-43.32 290.37,-50.87"/>
<polygon fill="#9a32cd" stroke="#9a32cd" points="140.42,-13.13 130.15,-15.73 139.8,-20.1 140.42,-13.13"/>
</a>
</g>
<text text-anchor="start" x="177" y="-33" font-family="Helvetica,sans-Serif" font-size="10.00" fill="grey">data</text>
</g>
<!-- Node6 -->
<g id="Node000006" class="node">
<title>Node6</title>
<g id="a_Node000006"><a xlink:href="structfiftyone_degrees_property.html" target="_top" xlink:title="Property structure containing all the meta data relating to a property.">
<polygon fill="white" stroke="#666666" points="620,-59 485,-59 485,-40 620,-40 620,-59"/>
<text text-anchor="middle" x="552.5" y="-47" font-family="Helvetica,sans-Serif" font-size="10.00">fiftyoneDegreesProperty</text>
</a>
</g>
</g>
<!-- Node6&#45;&gt;Node1 -->
<g id="edge7_Node000001_Node000006" class="edge">
<title>Node6&#45;&gt;Node1</title>
<g id="a_edge7_Node000001_Node000006"><a xlink:title=" ">
<path fill="none" stroke="#9a32cd" stroke-dasharray="5,2" d="M630.27,-55.35C654.05,-57.91 680.24,-61.51 704,-66.5 720.06,-69.87 737.62,-75.25 751.6,-79.96"/>
<polygon fill="#9a32cd" stroke="#9a32cd" points="630.54,-51.86 620.24,-54.31 629.82,-58.82 630.54,-51.86"/>
</a>
</g>
<text text-anchor="start" x="655.5" y="-72" font-family="Helvetica,sans-Serif" font-size="10.00" fill="grey">property</text>
</g>
<!-- Node7&#45;&gt;Node1 -->
<g id="edge8_Node000001_Node000007" class="edge">
<title>Node7&#45;&gt;Node1</title>
<g id="a_edge8_Node000001_Node000007"><a xlink:title=" ">
<path fill="none" stroke="#9a32cd" stroke-dasharray="5,2" d="M618.51,-87.37C651.26,-87.81 690.55,-88.33 721.95,-88.75"/>
<polygon fill="#9a32cd" stroke="#9a32cd" points="618.18,-83.86 608.13,-87.23 618.08,-90.86 618.18,-83.86"/>
</a>
</g>
<text text-anchor="start" x="660.5" y="-93" font-family="Helvetica,sans-Serif" font-size="10.00" fill="grey">values</text>
</g>
<!-- Node8 -->
<g id="Node000008" class="node">
<title>Node8</title>
<g id="a_Node000008"><a xlink:href="structfiftyone_degrees_exception.html" target="_top" xlink:title="Structure used to represent a 51Degrees exception and passed into methods that might generate excepti...">
<polygon fill="white" stroke="#666666" points="623.5,-19 481.5,-19 481.5,0 623.5,0 623.5,-19"/>
<text text-anchor="middle" x="552.5" y="-7" font-family="Helvetica,sans-Serif" font-size="10.00">fiftyoneDegreesException</text>
</a>
</g>
</g>
<!-- Node8&#45;&gt;Node1 -->
<g id="edge10_Node000001_Node000008" class="edge">
<title>Node8&#45;&gt;Node1</title>
<g id="a_edge10_Node000001_Node000008"><a xlink:title=" ">
<path fill="none" stroke="#9a32cd" stroke-dasharray="5,2" d="M633.41,-17.1C656.79,-21.09 681.96,-27.19 704,-36.5 729.33,-47.2 754.41,-67.84 767.88,-79.96"/>
<polygon fill="#9a32cd" stroke="#9a32cd" points="633.95,-13.64 623.52,-15.51 632.84,-20.55 633.95,-13.64"/>
</a>
</g>
<text text-anchor="start" x="652.5" y="-42" font-family="Helvetica,sans-Serif" font-size="10.00" fill="grey">exception</text>
</g>
</g>
</svg>
