<?xml version="1.0" encoding="UTF-8" standalone="no"?>
<!DOCTYPE svg PUBLIC "-//W3C//DTD SVG 1.1//EN"
 "http://www.w3.org/Graphics/SVG/1.1/DTD/svg11.dtd">
<!-- Generated by graphviz version 2.43.0 (0)
 -->
<!-- Title: fiftyoneDegreesCache Pages: 1 -->
<svg width="457pt" height="329pt"
 viewBox="0.00 0.00 456.50 329.00" xmlns="http://www.w3.org/2000/svg" xmlns:xlink="http://www.w3.org/1999/xlink">
<g id="graph0" class="graph" transform="scale(1 1) rotate(0) translate(4 325)">
<title>fiftyoneDegreesCache</title>
<!-- Node1 -->
<g id="Node000001" class="node">
<title>Node1</title>
<g id="a_Node000001"><a xlink:title="Cache structure to store the root of the red black tree and a list of allocated cache nodes.">
<polygon fill="#999999" stroke="#666666" points="179.5,-206 55.5,-206 55.5,-187 179.5,-187 179.5,-206"/>
<text text-anchor="middle" x="117.5" y="-194" font-family="Helvetica,sans-Serif" font-size="10.00">fiftyoneDegreesCache</text>
</a>
</g>
</g>
<!-- Node2 -->
<g id="Node000002" class="node">
<title>Node2</title>
<g id="a_Node000002"><a xlink:href="structfiftyone_degrees_cache_shard.html" target="_top" xlink:title="Cache shard structure used to enable concurrent access to the cache.">
<polygon fill="white" stroke="#666666" points="289.5,-134 137.5,-134 137.5,-115 289.5,-115 289.5,-134"/>
<text text-anchor="middle" x="213.5" y="-122" font-family="Helvetica,sans-Serif" font-size="10.00">fiftyoneDegreesCacheShard</text>
</a>
</g>
</g>
<!-- Node1&#45;&gt;Node2 -->
<g id="edge2_Node000002_Node000001" class="edge">
<title>Node1&#45;&gt;Node2</title>
<g id="a_edge2_Node000002_Node000001"><a xlink:title=" ">
<path fill="none" stroke="#9a32cd" stroke-dasharray="5,2" d="M144.61,-181.96C151.61,-178.09 159,-173.64 165.5,-169 180.51,-158.28 195.99,-143.44 205.17,-134.16"/>
<polygon fill="#9a32cd" stroke="#9a32cd" points="142.59,-179.07 135.42,-186.87 145.89,-185.25 142.59,-179.07"/>
</a>
</g>
<text text-anchor="start" x="189" y="-157.5" font-family="Helvetica,sans-Serif" font-size="10.00" fill="grey">cache</text>
</g>
<!-- Node2&#45;&gt;Node1 -->
<g id="edge1_Node000001_Node000002" class="edge">
<title>Node2&#45;&gt;Node1</title>
<g id="a_edge1_Node000001_Node000002"><a xlink:title=" ">
<path fill="none" stroke="#9a32cd" stroke-dasharray="5,2" d="M145.46,-138.05C138.36,-141.62 131.81,-146.18 126.5,-152 117.87,-161.46 116.65,-176.94 116.86,-186.66"/>
<polygon fill="#9a32cd" stroke="#9a32cd" points="146.92,-141.23 154.7,-134.04 144.13,-134.81 146.92,-141.23"/>
</a>
</g>
<text text-anchor="start" x="130" y="-157.5" font-family="Helvetica,sans-Serif" font-size="10.00" fill="grey">shards</text>
</g>
<!-- Node5 -->
<g id="Node000005" class="node">
<title>Node5</title>
<g id="a_Node000005"><a xlink:href="structfiftyone_degrees_cache_node.html" target="_top" xlink:title="Cache node structure used for storing data in the cache along with its key.">
<polygon fill="white" stroke="#666666" points="231,-25.5 82,-25.5 82,-6.5 231,-6.5 231,-25.5"/>
<text text-anchor="middle" x="156.5" y="-13.5" font-family="Helvetica,sans-Serif" font-size="10.00">fiftyoneDegreesCacheNode</text>
</a>
</g>
</g>
<!-- Node2&#45;&gt;Node5 -->
<g id="edge10_Node000005_Node000002" class="edge">
<title>Node2&#45;&gt;Node5</title>
<g id="a_edge10_Node000005_Node000002"><a xlink:title=" ">
<path fill="none" stroke="#9a32cd" stroke-dasharray="5,2" d="M167.55,-110.23C162,-106.78 157.05,-102.45 153.5,-97 139.01,-74.76 147.81,-41.17 153.22,-25.55"/>
<polygon fill="#9a32cd" stroke="#9a32cd" points="166.16,-113.45 176.65,-114.95 169.39,-107.24 166.16,-113.45"/>
</a>
</g>
<text text-anchor="start" x="156.5" y="-70.5" font-family="Helvetica,sans-Serif" font-size="10.00" fill="grey">shard</text>
</g>
<!-- Node3 -->
<g id="Node000003" class="node">
<title>Node3</title>
<g id="a_Node000003"><a xlink:href="structfiftyone_degrees_tree_root.html" target="_top" xlink:title="Tree root structure defining the beginning of the tree.">
<polygon fill="white" stroke="#666666" points="335,-206 198,-206 198,-187 335,-187 335,-206"/>
<text text-anchor="middle" x="266.5" y="-194" font-family="Helvetica,sans-Serif" font-size="10.00">fiftyoneDegreesTreeRoot</text>
</a>
</g>
</g>
<!-- Node3&#45;&gt;Node2 -->
<g id="edge3_Node000002_Node000003" class="edge">
<title>Node3&#45;&gt;Node2</title>
<g id="a_edge3_Node000002_Node000003"><a xlink:title=" ">
<path fill="none" stroke="#9a32cd" stroke-dasharray="5,2" d="M253.72,-178.62C243.1,-164.59 228.42,-145.21 220.05,-134.15"/>
<polygon fill="#9a32cd" stroke="#9a32cd" points="251.17,-181.06 260,-186.92 256.76,-176.83 251.17,-181.06"/>
</a>
</g>
<text text-anchor="start" x="248.5" y="-157.5" font-family="Helvetica,sans-Serif" font-size="10.00" fill="grey">root</text>
</g>
<!-- Node4 -->
<g id="Node000004" class="node">
<title>Node4</title>
<g id="a_Node000004"><a xlink:href="structfiftyone_degrees_tree_node.html" target="_top" xlink:title="Node structure defining a single node in the tree.">
<polygon fill="white" stroke="#666666" points="392.5,-307 252.5,-307 252.5,-288 392.5,-288 392.5,-307"/>
<text text-anchor="middle" x="322.5" y="-295" font-family="Helvetica,sans-Serif" font-size="10.00">fiftyoneDegreesTreeNode</text>
</a>
</g>
</g>
<!-- Node3&#45;&gt;Node4 -->
<g id="edge5_Node000004_Node000003" class="edge">
<title>Node3&#45;&gt;Node4</title>
<g id="a_edge5_Node000004_Node000003"><a xlink:title=" ">
<path fill="none" stroke="#9a32cd" stroke-dasharray="5,2" d="M289.76,-212.47C293.77,-215.87 297.58,-219.75 300.5,-224 314.35,-244.17 319.69,-273.3 321.57,-287.73"/>
<polygon fill="#9a32cd" stroke="#9a32cd" points="291.56,-209.44 281.47,-206.19 287.33,-215.01 291.56,-209.44"/>
</a>
</g>
<text text-anchor="start" x="317.5" y="-237" font-family="Helvetica,sans-Serif" font-size="10.00" fill="grey">root</text>
</g>
<!-- Node4&#45;&gt;Node3 -->
<g id="edge4_Node000003_Node000004" class="edge">
<title>Node4&#45;&gt;Node3</title>
<g id="a_edge4_Node000003_Node000004"><a xlink:title=" ">
<path fill="none" stroke="#9a32cd" stroke-dasharray="5,2" d="M291.11,-283.1C280,-276.64 268.72,-267.7 262.5,-256 254,-240 259.25,-217.97 263.24,-206.03"/>
<polygon fill="#9a32cd" stroke="#9a32cd" points="289.82,-286.37 300.3,-287.95 293.09,-280.18 289.82,-286.37"/>
</a>
</g>
<text text-anchor="start" x="265.5" y="-245" font-family="Helvetica,sans-Serif" font-size="10.00" fill="grey">empty</text>
<text text-anchor="start" x="265.5" y="-230" font-family="Helvetica,sans-Serif" font-size="10.00" fill="grey">root</text>
</g>
<!-- Node4&#45;&gt;Node4 -->
<g id="edge6_Node000004_Node000004" class="edge">
<title>Node4&#45;&gt;Node4</title>
<g id="a_edge6_Node000004_Node000004"><a xlink:title=" ">
<path fill="none" stroke="#9a32cd" stroke-dasharray="5,2" d="M370.11,-307.82C391.73,-308.86 410.5,-305.42 410.5,-297.5 410.5,-288.37 385.53,-285.19 360.03,-287.97"/>
<polygon fill="#9a32cd" stroke="#9a32cd" points="370.28,-304.32 360.03,-307.03 369.73,-311.3 370.28,-304.32"/>
</a>
</g>
<text text-anchor="start" x="413.5" y="-309.5" font-family="Helvetica,sans-Serif" font-size="10.00" fill="grey">left</text>
<text text-anchor="start" x="413.5" y="-294.5" font-family="Helvetica,sans-Serif" font-size="10.00" fill="grey">parent</text>
<text text-anchor="start" x="413.5" y="-279.5" font-family="Helvetica,sans-Serif" font-size="10.00" fill="grey">right</text>
</g>
<!-- Node4&#45;&gt;Node5 -->
<g id="edge8_Node000005_Node000004" class="edge">
<title>Node4&#45;&gt;Node5</title>
<g id="a_edge8_Node000005_Node000004"><a xlink:title=" ">
<path fill="none" stroke="#9a32cd" stroke-dasharray="5,2" d="M334.33,-279.25C338.4,-272.34 342.44,-264.1 344.5,-256 352.05,-226.28 353.1,-216.44 344.5,-187 323.65,-115.63 308.59,-93.79 248.5,-50 232.73,-38.51 212.56,-30.68 195.13,-25.55"/>
<polygon fill="#9a32cd" stroke="#9a32cd" points="331.36,-277.4 328.96,-287.72 337.27,-281.15 331.36,-277.4"/>
</a>
</g>
<text text-anchor="start" x="341.5" y="-157.5" font-family="Helvetica,sans-Serif" font-size="10.00" fill="grey">tree</text>
</g>
<!-- Node5&#45;&gt;Node1 -->
<g id="edge12_Node000001_Node000005" class="edge">
<title>Node5&#45;&gt;Node1</title>
<g id="a_edge12_Node000001_Node000005"><a xlink:title=" ">
<path fill="none" stroke="#9a32cd" stroke-dasharray="5,2" d="M141.37,-33.45C125.64,-51.77 102.01,-83.03 92.5,-115 84.74,-141.09 101.45,-171.76 111.17,-186.59"/>
<polygon fill="#9a32cd" stroke="#9a32cd" points="144.35,-35.36 148.36,-25.55 139.11,-30.72 144.35,-35.36"/>
</a>
</g>
<text text-anchor="start" x="95.5" y="-121.5" font-family="Helvetica,sans-Serif" font-size="10.00" fill="grey">nodes</text>
</g>
<!-- Node5&#45;&gt;Node2 -->
<g id="edge7_Node000002_Node000005" class="edge">
<title>Node5&#45;&gt;Node2</title>
<g id="a_edge7_Node000002_Node000005"><a xlink:title=" ">
<path fill="none" stroke="#9a32cd" stroke-dasharray="5,2" d="M176.33,-32.33C181.89,-37.44 187.49,-43.51 191.5,-50 204.51,-71.08 210.23,-100.33 212.38,-114.75"/>
<polygon fill="#9a32cd" stroke="#9a32cd" points="178.31,-29.41 168.43,-25.58 173.76,-34.74 178.31,-29.41"/>
</a>
</g>
<text text-anchor="start" x="211.5" y="-85.5" font-family="Helvetica,sans-Serif" font-size="10.00" fill="grey">first</text>
<text text-anchor="start" x="211.5" y="-70.5" font-family="Helvetica,sans-Serif" font-size="10.00" fill="grey">last</text>
<text text-anchor="start" x="211.5" y="-55.5" font-family="Helvetica,sans-Serif" font-size="10.00" fill="grey">nodes</text>
</g>
<!-- Node5&#45;&gt;Node5 -->
<g id="edge11_Node000005_Node000005" class="edge">
<title>Node5&#45;&gt;Node5</title>
<g id="a_edge11_Node000005_Node000005"><a xlink:title=" ">
<path fill="none" stroke="#9a32cd" stroke-dasharray="5,2" d="M205.93,-26.29C228.91,-27.42 249,-23.99 249,-16 249,-6.87 222.76,-3.69 195.95,-6.47"/>
<polygon fill="#9a32cd" stroke="#9a32cd" points="206.19,-22.8 195.95,-25.53 205.65,-29.78 206.19,-22.8"/>
</a>
</g>
<text text-anchor="start" x="252" y="-21" font-family="Helvetica,sans-Serif" font-size="10.00" fill="grey">listNext</text>
<text text-anchor="start" x="252" y="-6" font-family="Helvetica,sans-Serif" font-size="10.00" fill="grey">listPrevious</text>
</g>
<!-- Node6 -->
<g id="Node000006" class="node">
<title>Node6</title>
<g id="a_Node000006"><a xlink:href="structfiftyone_degrees_data.html" target="_top" xlink:title="Data structure used for reusing memory which may have been allocated in a previous operation.">
<polygon fill="white" stroke="#666666" points="117,-307 0,-307 0,-288 117,-288 117,-307"/>
<text text-anchor="middle" x="58.5" y="-295" font-family="Helvetica,sans-Serif" font-size="10.00">fiftyoneDegreesData</text>
</a>
</g>
</g>
<!-- Node6&#45;&gt;Node1 -->
<g id="edge13_Node000001_Node000006" class="edge">
<title>Node6&#45;&gt;Node1</title>
<g id="a_edge13_Node000001_Node000006"><a xlink:title=" ">
<path fill="none" stroke="#9a32cd" stroke-dasharray="5,2" d="M68.93,-278.99C81.67,-257.62 102.7,-222.33 112.36,-206.12"/>
<polygon fill="#9a32cd" stroke="#9a32cd" points="65.85,-277.33 63.74,-287.71 71.86,-280.92 65.85,-277.33"/>
</a>
</g>
<text text-anchor="start" x="104.5" y="-237" font-family="Helvetica,sans-Serif" font-size="10.00" fill="grey">load</text>
</g>
<!-- Node6&#45;&gt;Node5 -->
<g id="edge9_Node000005_Node000006" class="edge">
<title>Node6&#45;&gt;Node5</title>
<g id="a_edge9_Node000005_Node000006"><a xlink:title=" ">
<path fill="none" stroke="#9a32cd" stroke-dasharray="5,2" d="M53.37,-278.04C48.01,-256.2 41.09,-218.79 46.5,-187 57.32,-123.4 52.48,-98.96 94.5,-50 104.11,-38.8 118.49,-30.82 130.98,-25.51"/>
<polygon fill="#9a32cd" stroke="#9a32cd" points="50.04,-279.14 55.95,-287.93 56.81,-277.37 50.04,-279.14"/>
</a>
</g>
<text text-anchor="start" x="55.5" y="-157.5" font-family="Helvetica,sans-Serif" font-size="10.00" fill="grey">data</text>
</g>
</g>
</svg>
