<?xml version="1.0" encoding="UTF-8" standalone="no"?>
<!DOCTYPE svg PUBLIC "-//W3C//DTD SVG 1.1//EN"
 "http://www.w3.org/Graphics/SVG/1.1/DTD/svg11.dtd">
<!-- Generated by graphviz version 2.43.0 (0)
 -->
<!-- Title: fiftyoneDegreesPoolItem Pages: 1 -->
<svg width="304pt" height="99pt"
 viewBox="0.00 0.00 303.50 99.00" xmlns="http://www.w3.org/2000/svg" xmlns:xlink="http://www.w3.org/1999/xlink">
<g id="graph0" class="graph" transform="scale(1 1) rotate(0) translate(4 95)">
<title>fiftyoneDegreesPoolItem</title>
<!-- Node1 -->
<g id="Node000001" class="node">
<title>Node1</title>
<g id="a_Node000001"><a xlink:title="Pool item node in the stack of items.">
<polygon fill="#999999" stroke="#666666" points="137,-91 0,-91 0,-72 137,-72 137,-91"/>
<text text-anchor="middle" x="68.5" y="-79" font-family="Helvetica,sans-Serif" font-size="10.00">fiftyoneDegreesPoolItem</text>
</a>
</g>
</g>
<!-- Node2 -->
<g id="Node000002" class="node">
<title>Node2</title>
<g id="a_Node000002"><a xlink:href="structfiftyone_degrees_pool.html" target="_top" xlink:title="Pool of resources stored as items in a stack.">
<polygon fill="white" stroke="#666666" points="182,-19 67,-19 67,0 182,0 182,-19"/>
<text text-anchor="middle" x="124.5" y="-7" font-family="Helvetica,sans-Serif" font-size="10.00">fiftyoneDegreesPool</text>
</a>
</g>
</g>
<!-- Node1&#45;&gt;Node2 -->
<g id="edge2_Node000002_Node000001" class="edge">
<title>Node1&#45;&gt;Node2</title>
<g id="a_edge2_Node000002_Node000001"><a xlink:title=" ">
<path fill="none" stroke="#9a32cd" stroke-dasharray="5,2" d="M62.43,-61.89C60.89,-53.67 60.81,-44.25 65.5,-37 70.87,-28.7 79.52,-22.98 88.56,-19.04"/>
<polygon fill="#9a32cd" stroke="#9a32cd" points="59.08,-62.93 65,-71.72 65.86,-61.16 59.08,-62.93"/>
</a>
</g>
<text text-anchor="start" x="69" y="-42.5" font-family="Helvetica,sans-Serif" font-size="10.00" fill="grey">stack</text>
</g>
<!-- Node2&#45;&gt;Node1 -->
<g id="edge1_Node000001_Node000002" class="edge">
<title>Node2&#45;&gt;Node1</title>
<g id="a_edge1_Node000001_Node000002"><a xlink:title=" ">
<path fill="none" stroke="#9a32cd" stroke-dasharray="5,2" d="M117.49,-28.65C113.78,-36.89 108.7,-46.46 102.5,-54 96.79,-60.93 88.97,-67.19 82.26,-71.88"/>
<polygon fill="#9a32cd" stroke="#9a32cd" points="120.82,-29.74 121.43,-19.16 114.36,-27.05 120.82,-29.74"/>
</a>
</g>
<text text-anchor="start" x="116.5" y="-42.5" font-family="Helvetica,sans-Serif" font-size="10.00" fill="grey">pool</text>
</g>
<!-- Node2&#45;&gt;Node2 -->
<g id="edge4_Node000002_Node000002" class="edge">
<title>Node2&#45;&gt;Node2</title>
<g id="a_edge4_Node000002_Node000002"><a xlink:title=" ">
<path fill="none" stroke="#9a32cd" stroke-dasharray="5,2" d="M192.03,-14.5C196.97,-13.37 200,-11.71 200,-9.5 200,-6.05 192.62,-3.93 182.11,-3.12"/>
<polygon fill="#9a32cd" stroke="#9a32cd" points="191.53,-11.03 182.11,-15.88 192.49,-17.97 191.53,-11.03"/>
</a>
</g>
<text text-anchor="start" x="203" y="-6.5" font-family="Helvetica,sans-Serif" font-size="10.00" fill="grey">resourceFree</text>
</g>
<!-- Node3 -->
<g id="Node000003" class="node">
<title>Node3</title>
<g id="a_Node000003"><a xlink:href="unionfiftyone_degrees_pool_head.html" target="_top" xlink:title="The head of the stack used for pop and push operations.">
<polygon fill="white" stroke="#666666" points="295.5,-91 155.5,-91 155.5,-72 295.5,-72 295.5,-91"/>
<text text-anchor="middle" x="225.5" y="-79" font-family="Helvetica,sans-Serif" font-size="10.00">fiftyoneDegreesPoolHead</text>
</a>
</g>
</g>
<!-- Node3&#45;&gt;Node2 -->
<g id="edge3_Node000002_Node000003" class="edge">
<title>Node3&#45;&gt;Node2</title>
<g id="a_edge3_Node000002_Node000003"><a xlink:title=" ">
<path fill="none" stroke="#9a32cd" stroke-dasharray="5,2" d="M204.8,-66.16C184.41,-52.02 153.93,-30.89 136.99,-19.15"/>
<polygon fill="#9a32cd" stroke="#9a32cd" points="202.9,-69.1 213.12,-71.92 206.89,-63.34 202.9,-69.1"/>
</a>
</g>
<text text-anchor="start" x="190" y="-42.5" font-family="Helvetica,sans-Serif" font-size="10.00" fill="grey">head</text>
</g>
</g>
</svg>
