<?xml version="1.0" encoding="UTF-8" standalone="no"?>
<!DOCTYPE svg PUBLIC "-//W3C//DTD SVG 1.1//EN"
 "http://www.w3.org/Graphics/SVG/1.1/DTD/svg11.dtd">
<!-- Generated by graphviz version 2.43.0 (0)
 -->
<!-- Title: fiftyoneDegreesWeightedItemList Pages: 1 -->
<svg width="430pt" height="231pt"
 viewBox="0.00 0.00 430.00 231.00" xmlns="http://www.w3.org/2000/svg" xmlns:xlink="http://www.w3.org/1999/xlink">
<g id="graph0" class="graph" transform="scale(1 1) rotate(0) translate(4 227)">
<title>fiftyoneDegreesWeightedItemList</title>
<!-- Node1 -->
<g id="node1" class="node">
<title>Node1</title>
<g id="a_node1"><a xlink:title="A resizable list of weighted items.">
<polygon fill="#bfbfbf" stroke="black" points="0,-0.5 0,-19.5 179,-19.5 179,-0.5 0,-0.5"/>
<text text-anchor="middle" x="89.5" y="-7.5" font-family="Helvetica,sans-Serif" font-size="10.00">fiftyoneDegreesWeightedItemList</text>
</a>
</g>
</g>
<!-- Node2 -->
<g id="node2" class="node">
<title>Node2</title>
<g id="a_node2"><a xlink:href="structfiftyone_degrees_weighted_item.html" target="_top" xlink:title="A weighted collection item.">
<polygon fill="none" stroke="black" points="8.5,-68.5 8.5,-87.5 170.5,-87.5 170.5,-68.5 8.5,-68.5"/>
<text text-anchor="middle" x="89.5" y="-75.5" font-family="Helvetica,sans-Serif" font-size="10.00">fiftyoneDegreesWeightedItem</text>
</a>
</g>
</g>
<!-- Node2&#45;&gt;Node1 -->
<g id="edge1" class="edge">
<title>Node2&#45;&gt;Node1</title>
<path fill="none" stroke="#9a32cd" stroke-dasharray="5,2" d="M89.5,-58.04C89.5,-45.47 89.5,-29.56 89.5,-19.84"/>
<polygon fill="#9a32cd" stroke="#9a32cd" points="86,-58.37 89.5,-68.37 93,-58.37 86,-58.37"/>
<text text-anchor="middle" x="105" y="-41" font-family="Helvetica,sans-Serif" font-size="10.00"> items</text>
</g>
<!-- Node3 -->
<g id="node3" class="node">
<title>Node3</title>
<g id="a_node3"><a xlink:href="structfiftyone_degrees_collection_item.html" target="_top" xlink:title="Used to store a handle to the underlying item that could be used to release the item when it&#39;s finish...">
<polygon fill="none" stroke="black" points="115,-136.5 115,-155.5 280,-155.5 280,-136.5 115,-136.5"/>
<text text-anchor="middle" x="197.5" y="-143.5" font-family="Helvetica,sans-Serif" font-size="10.00">fiftyoneDegreesCollectionItem</text>
</a>
</g>
</g>
<!-- Node3&#45;&gt;Node2 -->
<g id="edge2" class="edge">
<title>Node3&#45;&gt;Node2</title>
<path fill="none" stroke="#9a32cd" stroke-dasharray="5,2" d="M174.57,-130.99C153.09,-117.86 121.65,-98.65 103.62,-87.63"/>
<polygon fill="#9a32cd" stroke="#9a32cd" points="173.02,-134.14 183.38,-136.37 176.67,-128.17 173.02,-134.14"/>
<text text-anchor="middle" x="166.5" y="-110" font-family="Helvetica,sans-Serif" font-size="10.00"> item</text>
</g>
<!-- Node4 -->
<g id="node4" class="node">
<title>Node4</title>
<g id="a_node4"><a xlink:href="structfiftyone_degrees_collection.html" target="_top" xlink:title="All the shared methods and fields required by file, memory and cached collections.">
<polygon fill="none" stroke="black" points="189,-68.5 189,-87.5 332,-87.5 332,-68.5 189,-68.5"/>
<text text-anchor="middle" x="260.5" y="-75.5" font-family="Helvetica,sans-Serif" font-size="10.00">fiftyoneDegreesCollection</text>
</a>
</g>
</g>
<!-- Node3&#45;&gt;Node4 -->
<g id="edge4" class="edge">
<title>Node3&#45;&gt;Node4</title>
<path fill="none" stroke="#9a32cd" stroke-dasharray="5,2" d="M191.48,-126.25C190.5,-119.69 190.8,-112.59 194.5,-107 200.55,-97.87 210.23,-91.7 220.35,-87.55"/>
<polygon fill="#9a32cd" stroke="#9a32cd" points="188.19,-127.52 193.98,-136.39 194.99,-125.84 188.19,-127.52"/>
<text text-anchor="middle" x="214.5" y="-110" font-family="Helvetica,sans-Serif" font-size="10.00"> release</text>
</g>
<!-- Node4&#45;&gt;Node3 -->
<g id="edge3" class="edge">
<title>Node4&#45;&gt;Node3</title>
<path fill="none" stroke="#9a32cd" stroke-dasharray="5,2" d="M252.64,-96.98C249,-104.04 244.2,-111.89 238.5,-118 231.64,-125.35 222.39,-131.66 214.41,-136.33"/>
<polygon fill="#9a32cd" stroke="#9a32cd" points="256.01,-98.04 257.12,-87.5 249.68,-95.05 256.01,-98.04"/>
<text text-anchor="middle" x="273" y="-110" font-family="Helvetica,sans-Serif" font-size="10.00"> collection</text>
</g>
<!-- Node4&#45;&gt;Node4 -->
<g id="edge5" class="edge">
<title>Node4&#45;&gt;Node4</title>
<path fill="none" stroke="#9a32cd" stroke-dasharray="5,2" d="M342.11,-82.41C347.04,-81.36 350,-79.89 350,-78 350,-75.04 342.79,-73.12 332.13,-72.22"/>
<polygon fill="#9a32cd" stroke="#9a32cd" points="341.56,-78.96 332.13,-83.78 342.51,-85.89 341.56,-78.96"/>
<text text-anchor="middle" x="386" y="-81" font-family="Helvetica,sans-Serif" font-size="10.00"> freeCollection</text>
<text text-anchor="middle" x="386" y="-70" font-family="Helvetica,sans-Serif" font-size="10.00">get</text>
</g>
<!-- Node5 -->
<g id="node5" class="node">
<title>Node5</title>
<g id="a_node5"><a xlink:href="structfiftyone_degrees_data.html" target="_top" xlink:title="Data structure used for reusing memory which may have been allocated in a previous operation.">
<polygon fill="none" stroke="black" points="139,-203.5 139,-222.5 256,-222.5 256,-203.5 139,-203.5"/>
<text text-anchor="middle" x="197.5" y="-210.5" font-family="Helvetica,sans-Serif" font-size="10.00">fiftyoneDegreesData</text>
</a>
</g>
</g>
<!-- Node5&#45;&gt;Node3 -->
<g id="edge6" class="edge">
<title>Node5&#45;&gt;Node3</title>
<path fill="none" stroke="#9a32cd" stroke-dasharray="5,2" d="M197.5,-193.04C197.5,-180.67 197.5,-165.12 197.5,-155.63"/>
<polygon fill="#9a32cd" stroke="#9a32cd" points="194,-193.23 197.5,-203.23 201,-193.23 194,-193.23"/>
<text text-anchor="middle" x="210" y="-177" font-family="Helvetica,sans-Serif" font-size="10.00"> data</text>
</g>
</g>
</svg>
