<?xml version="1.0" encoding="UTF-8" standalone="no"?>
<!DOCTYPE svg PUBLIC "-//W3C//DTD SVG 1.1//EN"
 "http://www.w3.org/Graphics/SVG/1.1/DTD/svg11.dtd">
<!-- Generated by graphviz version 2.43.0 (0)
 -->
<!-- Title: fiftyoneDegreesPropertyAvailable Pages: 1 -->
<svg width="453pt" height="195pt"
 viewBox="0.00 0.00 452.50 195.00" xmlns="http://www.w3.org/2000/svg" xmlns:xlink="http://www.w3.org/1999/xlink">
<g id="graph0" class="graph" transform="scale(1 1) rotate(0) translate(4 191)">
<title>fiftyoneDegreesPropertyAvailable</title>
<!-- Node1 -->
<g id="Node000001" class="node">
<title>Node1</title>
<g id="a_Node000001"><a xlink:title="Used to access the property item quickly without the need to search.">
<polygon fill="#999999" stroke="#666666" points="434.5,-25.5 254.5,-25.5 254.5,-6.5 434.5,-6.5 434.5,-25.5"/>
<text text-anchor="middle" x="344.5" y="-13.5" font-family="Helvetica,sans-Serif" font-size="10.00">fiftyoneDegreesPropertyAvailable</text>
</a>
</g>
</g>
<!-- Node2 -->
<g id="Node000002" class="node">
<title>Node2</title>
<g id="a_Node000002"><a xlink:href="structfiftyone_degrees_collection_item.html" target="_top" xlink:title="Used to store a handle to the underlying item that could be used to release the item when it&#39;s finish...">
<polygon fill="white" stroke="#666666" points="220,-109.5 55,-109.5 55,-90.5 220,-90.5 220,-109.5"/>
<text text-anchor="middle" x="137.5" y="-97.5" font-family="Helvetica,sans-Serif" font-size="10.00">fiftyoneDegreesCollectionItem</text>
</a>
</g>
</g>
<!-- Node2&#45;&gt;Node1 -->
<g id="edge1_Node000001_Node000002" class="edge">
<title>Node2&#45;&gt;Node1</title>
<g id="a_edge1_Node000001_Node000002"><a xlink:title=" ">
<path fill="none" stroke="#9a32cd" stroke-dasharray="5,2" d="M168.56,-86.69C211.07,-69.86 286.25,-40.07 323.03,-25.5"/>
<polygon fill="#9a32cd" stroke="#9a32cd" points="167.27,-83.44 159.26,-90.38 169.85,-89.95 167.27,-83.44"/>
</a>
</g>
<text text-anchor="start" x="263.5" y="-55.5" font-family="Helvetica,sans-Serif" font-size="10.00" fill="grey">name</text>
</g>
<!-- Node4 -->
<g id="Node000004" class="node">
<title>Node4</title>
<g id="a_Node000004"><a xlink:href="structfiftyone_degrees_collection.html" target="_top" xlink:title="All the shared methods and fields required by file, memory and cached collections.">
<polygon fill="white" stroke="#666666" points="143,-25.5 0,-25.5 0,-6.5 143,-6.5 143,-25.5"/>
<text text-anchor="middle" x="71.5" y="-13.5" font-family="Helvetica,sans-Serif" font-size="10.00">fiftyoneDegreesCollection</text>
</a>
</g>
</g>
<!-- Node2&#45;&gt;Node4 -->
<g id="edge5_Node000004_Node000002" class="edge">
<title>Node2&#45;&gt;Node4</title>
<g id="a_edge5_Node000004_Node000002"><a xlink:title=" ">
<path fill="none" stroke="#9a32cd" stroke-dasharray="5,2" d="M90.78,-86.14C81.95,-81.54 73.83,-75.34 68.5,-67 60.45,-54.39 64.57,-36.16 68.14,-25.55"/>
<polygon fill="#9a32cd" stroke="#9a32cd" points="89.59,-89.44 100.14,-90.37 92.47,-83.07 89.59,-89.44"/>
</a>
</g>
<text text-anchor="start" x="72" y="-55.5" font-family="Helvetica,sans-Serif" font-size="10.00" fill="grey">release</text>
</g>
<!-- Node3 -->
<g id="Node000003" class="node">
<title>Node3</title>
<g id="a_Node000003"><a xlink:href="structfiftyone_degrees_data.html" target="_top" xlink:title="Data structure used for reusing memory which may have been allocated in a previous operation.">
<polygon fill="white" stroke="#666666" points="196,-187 79,-187 79,-168 196,-168 196,-187"/>
<text text-anchor="middle" x="137.5" y="-175" font-family="Helvetica,sans-Serif" font-size="10.00">fiftyoneDegreesData</text>
</a>
</g>
</g>
<!-- Node3&#45;&gt;Node2 -->
<g id="edge2_Node000002_Node000003" class="edge">
<title>Node3&#45;&gt;Node2</title>
<g id="a_edge2_Node000002_Node000003"><a xlink:title=" ">
<path fill="none" stroke="#9a32cd" stroke-dasharray="5,2" d="M137.5,-157.4C137.5,-142.01 137.5,-121.11 137.5,-109.56"/>
<polygon fill="#9a32cd" stroke="#9a32cd" points="134,-157.84 137.5,-167.84 141,-157.84 134,-157.84"/>
</a>
</g>
<text text-anchor="start" x="140.5" y="-138.5" font-family="Helvetica,sans-Serif" font-size="10.00" fill="grey">data</text>
</g>
<!-- Node4&#45;&gt;Node2 -->
<g id="edge3_Node000002_Node000004" class="edge">
<title>Node4&#45;&gt;Node2</title>
<g id="a_edge3_Node000002_Node000004"><a xlink:title=" ">
<path fill="none" stroke="#9a32cd" stroke-dasharray="5,2" d="M95.27,-31.46C102.44,-36.65 109.88,-42.97 115.5,-50 125.4,-62.38 131.85,-79.93 135.07,-90.32"/>
<polygon fill="#9a32cd" stroke="#9a32cd" points="96.75,-28.24 86.51,-25.53 92.83,-34.04 96.75,-28.24"/>
</a>
</g>
<text text-anchor="start" x="129.5" y="-55.5" font-family="Helvetica,sans-Serif" font-size="10.00" fill="grey">collection</text>
</g>
<!-- Node4&#45;&gt;Node4 -->
<g id="edge4_Node000004_Node000004" class="edge">
<title>Node4&#45;&gt;Node4</title>
<g id="a_edge4_Node000004_Node000004"><a xlink:title=" ">
<path fill="none" stroke="#9a32cd" stroke-dasharray="5,2" d="M153.11,-21.45C158.04,-20.16 161,-18.34 161,-16 161,-12.35 153.79,-9.97 143.13,-8.86"/>
<polygon fill="#9a32cd" stroke="#9a32cd" points="152.4,-18.02 143.13,-23.14 153.57,-24.92 152.4,-18.02"/>
</a>
</g>
<text text-anchor="start" x="164.5" y="-21" font-family="Helvetica,sans-Serif" font-size="10.00" fill="grey">freeCollection</text>
<text text-anchor="start" x="164.5" y="-6" font-family="Helvetica,sans-Serif" font-size="10.00" fill="grey">get</text>
</g>
<!-- Node5 -->
<g id="Node000005" class="node">
<title>Node5</title>
<g id="a_Node000005"><a xlink:href="structfiftyone_degrees_evidence_property_index_array.html" target="_top" xlink:title="Array of items of type fiftyoneDegreesEvidencePropertyIndex used to easily access and track the size ...">
<polygon fill="white" stroke="#666666" points="434,-115 255,-115 255,-85 434,-85 434,-115"/>
<text text-anchor="start" x="263" y="-103" font-family="Helvetica,sans-Serif" font-size="10.00">fiftyoneDegreesEvidenceProperty</text>
<text text-anchor="middle" x="344.5" y="-92" font-family="Helvetica,sans-Serif" font-size="10.00">IndexArray</text>
</a>
</g>
</g>
<!-- Node5&#45;&gt;Node1 -->
<g id="edge6_Node000001_Node000005" class="edge">
<title>Node5&#45;&gt;Node1</title>
<g id="a_edge6_Node000001_Node000005"><a xlink:title=" ">
<path fill="none" stroke="#9a32cd" stroke-dasharray="5,2" d="M344.5,-74.6C344.5,-58.03 344.5,-37.11 344.5,-25.59"/>
<polygon fill="#9a32cd" stroke="#9a32cd" points="341,-74.72 344.5,-84.72 348,-74.72 341,-74.72"/>
</a>
</g>
<text text-anchor="start" x="347.5" y="-55.5" font-family="Helvetica,sans-Serif" font-size="10.00" fill="grey">evidenceProperties</text>
</g>
</g>
</svg>
