<?xml version="1.0" encoding="UTF-8" standalone="no"?>
<!DOCTYPE svg PUBLIC "-//W3C//DTD SVG 1.1//EN"
 "http://www.w3.org/Graphics/SVG/1.1/DTD/svg11.dtd">
<!-- Generated by graphviz version 2.43.0 (0)
 -->
<!-- Title: ProcessingContext Pages: 1 -->
<svg width="593pt" height="186pt"
 viewBox="0.00 0.00 592.50 186.00" xmlns="http://www.w3.org/2000/svg" xmlns:xlink="http://www.w3.org/1999/xlink">
<g id="graph0" class="graph" transform="scale(1 1) rotate(0) translate(4 182)">
<title>ProcessingContext</title>
<!-- Node1 -->
<g id="Node000001" class="node">
<title>Node1</title>
<g id="a_Node000001"><a xlink:title=" ">
<polygon fill="#999999" stroke="#666666" points="300,-19 193,-19 193,0 300,0 300,-19"/>
<text text-anchor="middle" x="246.5" y="-7" font-family="Helvetica,sans-Serif" font-size="10.00">ProcessingContext</text>
</a>
</g>
</g>
<!-- Node2 -->
<g id="Node000002" class="node">
<title>Node2</title>
<g id="a_Node000002"><a xlink:href="struct_output_state.html" target="_top" xlink:title=" ">
<polygon fill="white" stroke="#bfbfbf" points="116,-91 41,-91 41,-72 116,-72 116,-91"/>
<text text-anchor="middle" x="78.5" y="-79" font-family="Helvetica,sans-Serif" font-size="10.00">OutputState</text>
</a>
</g>
</g>
<!-- Node2&#45;&gt;Node1 -->
<g id="edge1_Node000001_Node000002" class="edge">
<title>Node2&#45;&gt;Node1</title>
<g id="a_edge1_Node000001_Node000002"><a xlink:title=" ">
<path fill="none" stroke="#9a32cd" stroke-dasharray="5,2" d="M92.05,-63.81C100.45,-54.55 112,-43.6 124.5,-37 145.49,-25.92 170.84,-19.47 192.99,-15.72"/>
<polygon fill="#9a32cd" stroke="#9a32cd" points="89.15,-61.81 85.28,-71.67 94.46,-66.37 89.15,-61.81"/>
</a>
</g>
<text text-anchor="start" x="127.5" y="-42.5" font-family="Helvetica,sans-Serif" font-size="10.00" fill="grey">output</text>
</g>
<!-- Node3 -->
<g id="Node000003" class="node">
<title>Node3</title>
<g id="a_Node000003"><a xlink:href="structfiftyone_degrees_string_builder.html" target="_top" xlink:title="String buffer for building strings with memory checks.">
<polygon fill="white" stroke="#666666" points="157,-178 0,-178 0,-159 157,-159 157,-178"/>
<text text-anchor="middle" x="78.5" y="-166" font-family="Helvetica,sans-Serif" font-size="10.00">fiftyoneDegreesStringBuilder</text>
</a>
</g>
</g>
<!-- Node3&#45;&gt;Node2 -->
<g id="edge2_Node000002_Node000003" class="edge">
<title>Node3&#45;&gt;Node2</title>
<g id="a_edge2_Node000002_Node000003"><a xlink:title=" ">
<path fill="none" stroke="#9a32cd" stroke-dasharray="5,2" d="M78.5,-148.62C78.5,-130.79 78.5,-104.83 78.5,-91.36"/>
<polygon fill="#9a32cd" stroke="#9a32cd" points="75,-148.72 78.5,-158.72 82,-148.72 75,-148.72"/>
</a>
</g>
<text text-anchor="start" x="82" y="-122" font-family="Helvetica,sans-Serif" font-size="10.00" fill="grey">stringBuilder</text>
</g>
<!-- Node4 -->
<g id="Node000004" class="node">
<title>Node4</title>
<g id="a_Node000004"><a xlink:href="struct_coord_mode.html" target="_top" xlink:title=" ">
<polygon fill="white" stroke="#bfbfbf" points="206.5,-91 134.5,-91 134.5,-72 206.5,-72 206.5,-91"/>
<text text-anchor="middle" x="170.5" y="-79" font-family="Helvetica,sans-Serif" font-size="10.00">CoordMode</text>
</a>
</g>
</g>
<!-- Node4&#45;&gt;Node1 -->
<g id="edge3_Node000001_Node000004" class="edge">
<title>Node4&#45;&gt;Node1</title>
<g id="a_edge3_Node000001_Node000004"><a xlink:title=" ">
<path fill="none" stroke="#9a32cd" stroke-dasharray="5,2" d="M166.45,-61.94C165.68,-53.6 166.38,-44.06 171.5,-37 177.5,-28.73 186.29,-23.02 195.77,-19.09"/>
<polygon fill="#9a32cd" stroke="#9a32cd" points="163.01,-62.6 168.06,-71.92 169.92,-61.49 163.01,-62.6"/>
</a>
</g>
<text text-anchor="start" x="175" y="-42.5" font-family="Helvetica,sans-Serif" font-size="10.00" fill="grey">coordMode</text>
</g>
<!-- Node5 -->
<g id="Node000005" class="node">
<title>Node5</title>
<g id="a_Node000005"><a xlink:href="struct_raw_value_reader.html" target="_top" xlink:title=" ">
<polygon fill="white" stroke="#bfbfbf" points="340,-178 241,-178 241,-159 340,-159 340,-178"/>
<text text-anchor="middle" x="290.5" y="-166" font-family="Helvetica,sans-Serif" font-size="10.00">RawValueReader</text>
</a>
</g>
</g>
<!-- Node5&#45;&gt;Node1 -->
<g id="edge4_Node000001_Node000005" class="edge">
<title>Node5&#45;&gt;Node1</title>
<g id="a_edge4_Node000001_Node000005"><a xlink:title=" ">
<path fill="none" stroke="#9a32cd" stroke-dasharray="5,2" d="M280.39,-149.72C272.29,-134.6 261.33,-112.04 255.5,-91 248.44,-65.52 246.9,-34.05 246.57,-19.13"/>
<polygon fill="#9a32cd" stroke="#9a32cd" points="277.56,-151.83 285.45,-158.9 283.69,-148.45 277.56,-151.83"/>
</a>
</g>
<text text-anchor="start" x="258.5" y="-78.5" font-family="Helvetica,sans-Serif" font-size="10.00" fill="grey">rawValueReader</text>
</g>
<!-- Node6 -->
<g id="Node000006" class="node">
<title>Node6</title>
<g id="a_Node000006"><a xlink:href="struct_num_reader.html" target="_top" xlink:title=" ">
<polygon fill="white" stroke="#bfbfbf" points="424.5,-91 350.5,-91 350.5,-72 424.5,-72 424.5,-91"/>
<text text-anchor="middle" x="387.5" y="-79" font-family="Helvetica,sans-Serif" font-size="10.00">NumReader</text>
</a>
</g>
</g>
<!-- Node5&#45;&gt;Node6 -->
<g id="edge6_Node000006_Node000005" class="edge">
<title>Node5&#45;&gt;Node6</title>
<g id="a_edge6_Node000006_Node000005"><a xlink:title=" ">
<path fill="none" stroke="#9a32cd" stroke-dasharray="5,2" d="M308.16,-152.02C328.56,-134.15 361.4,-105.38 377.68,-91.1"/>
<polygon fill="#9a32cd" stroke="#9a32cd" points="305.73,-149.5 300.52,-158.72 310.34,-154.77 305.73,-149.5"/>
</a>
</g>
<text text-anchor="start" x="359" y="-130" font-family="Helvetica,sans-Serif" font-size="10.00" fill="grey">readDouble</text>
<text text-anchor="start" x="359" y="-115" font-family="Helvetica,sans-Serif" font-size="10.00" fill="grey">readInt</text>
</g>
<!-- Node6&#45;&gt;Node1 -->
<g id="edge5_Node000001_Node000006" class="edge">
<title>Node6&#45;&gt;Node1</title>
<g id="a_edge5_Node000001_Node000006"><a xlink:title=" ">
<path fill="none" stroke="#9a32cd" stroke-dasharray="5,2" d="M361.24,-67.46C332.83,-53.36 288.32,-31.26 263.93,-19.15"/>
<polygon fill="#9a32cd" stroke="#9a32cd" points="359.7,-70.6 370.21,-71.92 362.81,-64.33 359.7,-70.6"/>
</a>
</g>
<text text-anchor="start" x="337" y="-42.5" font-family="Helvetica,sans-Serif" font-size="10.00" fill="grey">numReader</text>
</g>
<!-- Node7 -->
<g id="Node000007" class="node">
<title>Node7</title>
<g id="a_Node000007"><a xlink:href="structfiftyone_degrees_exception.html" target="_top" xlink:title="Structure used to represent a 51Degrees exception and passed into methods that might generate excepti...">
<polygon fill="white" stroke="#666666" points="584.5,-91 442.5,-91 442.5,-72 584.5,-72 584.5,-91"/>
<text text-anchor="middle" x="513.5" y="-79" font-family="Helvetica,sans-Serif" font-size="10.00">fiftyoneDegreesException</text>
</a>
</g>
</g>
<!-- Node7&#45;&gt;Node1 -->
<g id="edge7_Node000001_Node000007" class="edge">
<title>Node7&#45;&gt;Node1</title>
<g id="a_edge7_Node000001_Node000007"><a xlink:title=" ">
<path fill="none" stroke="#9a32cd" stroke-dasharray="5,2" d="M485.39,-67.89C462.83,-58.22 430.16,-45.17 400.5,-37 367.68,-27.95 330.03,-21.41 300.17,-17.09"/>
<polygon fill="#9a32cd" stroke="#9a32cd" points="484.13,-71.16 494.69,-71.94 486.92,-64.74 484.13,-71.16"/>
</a>
</g>
<text text-anchor="start" x="454" y="-42.5" font-family="Helvetica,sans-Serif" font-size="10.00" fill="grey">exception</text>
</g>
</g>
</svg>
