<?xml version="1.0" encoding="UTF-8" standalone="no"?>
<!DOCTYPE svg PUBLIC "-//W3C//DTD SVG 1.1//EN"
 "http://www.w3.org/Graphics/SVG/1.1/DTD/svg11.dtd">
<!-- Generated by graphviz version 2.43.0 (0)
 -->
<!-- Title: fixedSizeCollectionState Pages: 1 -->
<svg width="420pt" height="112pt"
 viewBox="0.00 0.00 419.50 112.00" xmlns="http://www.w3.org/2000/svg" xmlns:xlink="http://www.w3.org/1999/xlink">
<g id="graph0" class="graph" transform="scale(1 1) rotate(0) translate(4 108)">
<title>fixedSizeCollectionState</title>
<!-- Node1 -->
<g id="Node000001" class="node">
<title>Node1</title>
<g id="a_Node000001"><a xlink:title=" ">
<polygon fill="#999999" stroke="#666666" points="134,-19 0,-19 0,0 134,0 134,-19"/>
<text text-anchor="middle" x="67" y="-7" font-family="Helvetica,sans-Serif" font-size="10.00">fixedSizeCollectionState</text>
</a>
</g>
</g>
<!-- Node2 -->
<g id="Node000002" class="node">
<title>Node2</title>
<g id="a_Node000002"><a xlink:href="structfiftyone_degrees_collection.html" target="_top" xlink:title="All the shared methods and fields required by file, memory and cached collections.">
<polygon fill="white" stroke="#666666" points="183.5,-97.5 40.5,-97.5 40.5,-78.5 183.5,-78.5 183.5,-97.5"/>
<text text-anchor="middle" x="112" y="-85.5" font-family="Helvetica,sans-Serif" font-size="10.00">fiftyoneDegreesCollection</text>
</a>
</g>
</g>
<!-- Node2&#45;&gt;Node1 -->
<g id="edge1_Node000001_Node000002" class="edge">
<title>Node2&#45;&gt;Node1</title>
<g id="a_edge1_Node000001_Node000002"><a xlink:title=" ">
<path fill="none" stroke="#9a32cd" stroke-dasharray="5,2" d="M88.1,-72.24C81.88,-67.23 75.84,-61.07 72,-54 66.05,-43.05 65.67,-28.27 66.17,-19.07"/>
<polygon fill="#9a32cd" stroke="#9a32cd" points="86.38,-75.32 96.53,-78.36 90.49,-69.65 86.38,-75.32"/>
</a>
</g>
<text text-anchor="start" x="75" y="-42.5" font-family="Helvetica,sans-Serif" font-size="10.00" fill="grey">collection</text>
</g>
<!-- Node2&#45;&gt;Node2 -->
<g id="edge2_Node000002_Node000002" class="edge">
<title>Node2&#45;&gt;Node2</title>
<g id="a_edge2_Node000002_Node000002"><a xlink:title=" ">
<path fill="none" stroke="#9a32cd" stroke-dasharray="5,2" d="M193.61,-93.45C198.54,-92.16 201.5,-90.34 201.5,-88 201.5,-84.35 194.29,-81.97 183.63,-80.86"/>
<polygon fill="#9a32cd" stroke="#9a32cd" points="192.9,-90.02 183.63,-95.14 194.07,-96.92 192.9,-90.02"/>
</a>
</g>
<text text-anchor="start" x="205" y="-93" font-family="Helvetica,sans-Serif" font-size="10.00" fill="grey">freeCollection</text>
<text text-anchor="start" x="205" y="-78" font-family="Helvetica,sans-Serif" font-size="10.00" fill="grey">get</text>
</g>
<!-- Node3 -->
<g id="Node000003" class="node">
<title>Node3</title>
<g id="a_Node000003"><a xlink:href="structfiftyone_degrees_collection_item.html" target="_top" xlink:title="Used to store a handle to the underlying item that could be used to release the item when it&#39;s finish...">
<polygon fill="white" stroke="#666666" points="317.5,-19 152.5,-19 152.5,0 317.5,0 317.5,-19"/>
<text text-anchor="middle" x="235" y="-7" font-family="Helvetica,sans-Serif" font-size="10.00">fiftyoneDegreesCollectionItem</text>
</a>
</g>
</g>
<!-- Node2&#45;&gt;Node3 -->
<g id="edge5_Node000003_Node000002" class="edge">
<title>Node2&#45;&gt;Node3</title>
<g id="a_edge5_Node000003_Node000002"><a xlink:title=" ">
<path fill="none" stroke="#9a32cd" stroke-dasharray="5,2" d="M120.9,-69.25C127.14,-58.5 136.41,-45.29 148,-37 159.56,-28.73 173.74,-23 187.27,-19.04"/>
<polygon fill="#9a32cd" stroke="#9a32cd" points="117.73,-67.77 116.06,-78.23 123.89,-71.09 117.73,-67.77"/>
</a>
</g>
<text text-anchor="start" x="151" y="-42.5" font-family="Helvetica,sans-Serif" font-size="10.00" fill="grey">collection</text>
</g>
<!-- Node3&#45;&gt;Node2 -->
<g id="edge3_Node000002_Node000003" class="edge">
<title>Node3&#45;&gt;Node2</title>
<g id="a_edge3_Node000002_Node000003"><a xlink:title=" ">
<path fill="none" stroke="#9a32cd" stroke-dasharray="5,2" d="M226.68,-28.18C221.75,-37 214.75,-47.21 206,-54 190.97,-65.67 171.5,-73.4 154.19,-78.43"/>
<polygon fill="#9a32cd" stroke="#9a32cd" points="229.9,-29.57 231.35,-19.07 223.67,-26.38 229.9,-29.57"/>
</a>
</g>
<text text-anchor="start" x="225.5" y="-42.5" font-family="Helvetica,sans-Serif" font-size="10.00" fill="grey">release</text>
</g>
<!-- Node4 -->
<g id="Node000004" class="node">
<title>Node4</title>
<g id="a_Node000004"><a xlink:href="structfiftyone_degrees_data.html" target="_top" xlink:title="Data structure used for reusing memory which may have been allocated in a previous operation.">
<polygon fill="white" stroke="#666666" points="411.5,-97.5 294.5,-97.5 294.5,-78.5 411.5,-78.5 411.5,-97.5"/>
<text text-anchor="middle" x="353" y="-85.5" font-family="Helvetica,sans-Serif" font-size="10.00">fiftyoneDegreesData</text>
</a>
</g>
</g>
<!-- Node4&#45;&gt;Node3 -->
<g id="edge4_Node000003_Node000004" class="edge">
<title>Node4&#45;&gt;Node3</title>
<g id="a_edge4_Node000003_Node000004"><a xlink:title=" ">
<path fill="none" stroke="#9a32cd" stroke-dasharray="5,2" d="M330.91,-72.68C306.65,-56.95 268.47,-32.2 248.38,-19.17"/>
<polygon fill="#9a32cd" stroke="#9a32cd" points="329.17,-75.72 339.46,-78.22 332.98,-69.85 329.17,-75.72"/>
</a>
</g>
<text text-anchor="start" x="304" y="-42.5" font-family="Helvetica,sans-Serif" font-size="10.00" fill="grey">data</text>
</g>
</g>
</svg>
