<?xml version="1.0" encoding="UTF-8" standalone="no"?>
<!DOCTYPE svg PUBLIC "-//W3C//DTD SVG 1.1//EN"
 "http://www.w3.org/Graphics/SVG/1.1/DTD/svg11.dtd">
<!-- Generated by graphviz version 2.43.0 (0)
 -->
<!-- Title: PropValues Pages: 1 -->
<svg width="262pt" height="171pt"
 viewBox="0.00 0.00 262.00 171.00" xmlns="http://www.w3.org/2000/svg" xmlns:xlink="http://www.w3.org/1999/xlink">
<g id="graph0" class="graph" transform="scale(1 1) rotate(0) translate(4 167)">
<title>PropValues</title>
<!-- Node1 -->
<g id="Node000001" class="node">
<title>Node1</title>
<g id="a_Node000001"><a xlink:title="Structure for a collection of property value chunks.">
<polygon fill="#999999" stroke="#666666" points="110,-19 39,-19 39,0 110,0 110,-19"/>
<text text-anchor="middle" x="74.5" y="-7" font-family="Helvetica,sans-Serif" font-size="10.00">PropValues</text>
</a>
</g>
</g>
<!-- Node2 -->
<g id="Node000002" class="node">
<title>Node2</title>
<g id="a_Node000002"><a xlink:href="structfiftyone_degrees_data.html" target="_top" xlink:title="Data structure used for reusing memory which may have been allocated in a previous operation.">
<polygon fill="white" stroke="#666666" points="117,-163 0,-163 0,-144 117,-144 117,-163"/>
<text text-anchor="middle" x="58.5" y="-151" font-family="Helvetica,sans-Serif" font-size="10.00">fiftyoneDegreesData</text>
</a>
</g>
</g>
<!-- Node2&#45;&gt;Node1 -->
<g id="edge1_Node000001_Node000002" class="edge">
<title>Node2&#45;&gt;Node1</title>
<g id="a_edge1_Node000001_Node000002"><a xlink:title=" ">
<path fill="none" stroke="#9a32cd" stroke-dasharray="5,2" d="M60.65,-133.2C62.46,-116.89 65.14,-92.92 67.5,-72 69.62,-53.21 72.13,-31.19 73.5,-19.26"/>
<polygon fill="#9a32cd" stroke="#9a32cd" points="57.12,-133.24 59.49,-143.57 64.08,-134.01 57.12,-133.24"/>
</a>
</g>
<text text-anchor="start" x="70.5" y="-78.5" font-family="Helvetica,sans-Serif" font-size="10.00" fill="grey">data</text>
</g>
<!-- Node3 -->
<g id="Node000003" class="node">
<title>Node3</title>
<g id="a_Node000003"><a xlink:href="struct_prop_values_chunk.html" target="_top" xlink:title="Structure for a chunk of property values of the same type.">
<polygon fill="white" stroke="#666666" points="206,-91 105,-91 105,-72 206,-72 206,-91"/>
<text text-anchor="middle" x="155.5" y="-79" font-family="Helvetica,sans-Serif" font-size="10.00">PropValuesChunk</text>
</a>
</g>
</g>
<!-- Node2&#45;&gt;Node3 -->
<g id="edge3_Node000003_Node000002" class="edge">
<title>Node2&#45;&gt;Node3</title>
<g id="a_edge3_Node000003_Node000002"><a xlink:title=" ">
<path fill="none" stroke="#9a32cd" stroke-dasharray="5,2" d="M78.64,-137.96C98.22,-123.83 127.31,-102.84 143.51,-91.15"/>
<polygon fill="#9a32cd" stroke="#9a32cd" points="76.45,-135.23 70.39,-143.92 80.55,-140.9 76.45,-135.23"/>
</a>
</g>
<text text-anchor="start" x="122.5" y="-114.5" font-family="Helvetica,sans-Serif" font-size="10.00" fill="grey">data</text>
</g>
<!-- Node3&#45;&gt;Node1 -->
<g id="edge2_Node000001_Node000003" class="edge">
<title>Node3&#45;&gt;Node1</title>
<g id="a_edge2_Node000001_Node000003"><a xlink:title=" ">
<path fill="none" stroke="#9a32cd" stroke-dasharray="5,2" d="M137.79,-65.19C121.46,-51.08 97.79,-30.63 84.51,-19.15"/>
<polygon fill="#9a32cd" stroke="#9a32cd" points="135.71,-68.03 145.57,-71.92 140.29,-62.73 135.71,-68.03"/>
</a>
</g>
<text text-anchor="start" x="128.5" y="-42.5" font-family="Helvetica,sans-Serif" font-size="10.00" fill="grey">items</text>
</g>
<!-- Node4 -->
<g id="Node000004" class="node">
<title>Node4</title>
<g id="a_Node000004"><a xlink:href="struct_prop_values_converter.html" target="_top" xlink:title="Structure defining a converter for property values.">
<polygon fill="white" stroke="#666666" points="254,-163 135,-163 135,-144 254,-144 254,-163"/>
<text text-anchor="middle" x="194.5" y="-151" font-family="Helvetica,sans-Serif" font-size="10.00">PropValuesConverter</text>
</a>
</g>
</g>
<!-- Node4&#45;&gt;Node3 -->
<g id="edge4_Node000003_Node000004" class="edge">
<title>Node4&#45;&gt;Node3</title>
<g id="a_edge4_Node000003_Node000004"><a xlink:title=" ">
<path fill="none" stroke="#9a32cd" stroke-dasharray="5,2" d="M184.64,-134.81C176.87,-120.86 166.36,-102 160.32,-91.15"/>
<polygon fill="#9a32cd" stroke="#9a32cd" points="181.79,-136.88 189.72,-143.92 187.91,-133.48 181.79,-136.88"/>
</a>
</g>
<text text-anchor="start" x="184" y="-114.5" font-family="Helvetica,sans-Serif" font-size="10.00" fill="grey">converter</text>
</g>
</g>
</svg>
