<?xml version="1.0" encoding="UTF-8" standalone="no"?>
<!DOCTYPE svg PUBLIC "-//W3C//DTD SVG 1.1//EN"
 "http://www.w3.org/Graphics/SVG/1.1/DTD/svg11.dtd">
<!-- Generated by graphviz version 2.43.0 (0)
 -->
<!-- Title: fiftyoneDegreesIpiCgInfo Pages: 1 -->
<svg width="341pt" height="240pt"
 viewBox="0.00 0.00 341.00 240.00" xmlns="http://www.w3.org/2000/svg" xmlns:xlink="http://www.w3.org/1999/xlink">
<g id="graph0" class="graph" transform="scale(1 1) rotate(0) translate(4 236)">
<title>fiftyoneDegreesIpiCgInfo</title>
<!-- Node1 -->
<g id="Node000001" class="node">
<title>Node1</title>
<g id="a_Node000001"><a xlink:title="Fixed width record in the collection where the record relates to a component and IP version.">
<polygon fill="#999999" stroke="#666666" points="156,-19 19,-19 19,0 156,0 156,-19"/>
<text text-anchor="middle" x="87.5" y="-7" font-family="Helvetica,sans-Serif" font-size="10.00">fiftyoneDegreesIpiCgInfo</text>
</a>
</g>
</g>
<!-- Node2 -->
<g id="Node000002" class="node">
<title>Node2</title>
<g id="a_Node000002"><a xlink:href="structfiftyone_degrees_collection_header.html" target="_top" xlink:title="Collection header structure which defines the size and location of the collection data.">
<polygon fill="white" stroke="#666666" points="143,-232 0,-232 0,-202 143,-202 143,-232"/>
<text text-anchor="start" x="8" y="-220" font-family="Helvetica,sans-Serif" font-size="10.00">fiftyoneDegreesCollection</text>
<text text-anchor="middle" x="71.5" y="-209" font-family="Helvetica,sans-Serif" font-size="10.00">Header</text>
</a>
</g>
</g>
<!-- Node2&#45;&gt;Node1 -->
<g id="edge1_Node000001_Node000002" class="edge">
<title>Node2&#45;&gt;Node1</title>
<g id="a_edge1_Node000001_Node000002"><a xlink:title=" ">
<path fill="none" stroke="#9a32cd" stroke-dasharray="5,2" d="M73,-191.39C74.8,-162.71 78,-113.89 81.5,-72 83.07,-53.18 85.32,-31.17 86.57,-19.25"/>
<polygon fill="#9a32cd" stroke="#9a32cd" points="69.49,-191.49 72.36,-201.68 76.47,-191.92 69.49,-191.49"/>
</a>
</g>
<text text-anchor="start" x="84.5" y="-107.5" font-family="Helvetica,sans-Serif" font-size="10.00" fill="grey">clusters</text>
<text text-anchor="start" x="84.5" y="-92.5" font-family="Helvetica,sans-Serif" font-size="10.00" fill="grey">spanBytes</text>
<text text-anchor="start" x="84.5" y="-77.5" font-family="Helvetica,sans-Serif" font-size="10.00" fill="grey">spans</text>
</g>
<!-- Node3 -->
<g id="Node000003" class="node">
<title>Node3</title>
<g id="a_Node000003"><a xlink:href="structfiftyone_degrees_ipi_cg_member_node.html" target="_top" xlink:title="Data structure used for the values collection.">
<polygon fill="white" stroke="#666666" points="333,-105 148,-105 148,-86 333,-86 333,-105"/>
<text text-anchor="middle" x="240.5" y="-93" font-family="Helvetica,sans-Serif" font-size="10.00">fiftyoneDegreesIpiCgMemberNode</text>
</a>
</g>
</g>
<!-- Node2&#45;&gt;Node3 -->
<g id="edge3_Node000003_Node000002" class="edge">
<title>Node2&#45;&gt;Node3</title>
<g id="a_edge3_Node000003_Node000002"><a xlink:title=" ">
<path fill="none" stroke="#9a32cd" stroke-dasharray="5,2" d="M99.49,-195.98C121.9,-179.97 154.17,-156.97 182.5,-137 198.16,-125.96 216.27,-113.34 228.03,-105.16"/>
<polygon fill="#9a32cd" stroke="#9a32cd" points="97.21,-193.3 91.11,-201.96 101.28,-198.99 97.21,-193.3"/>
</a>
</g>
<text text-anchor="start" x="185.5" y="-157.5" font-family="Helvetica,sans-Serif" font-size="10.00" fill="grey">collection</text>
</g>
<!-- Node3&#45;&gt;Node1 -->
<g id="edge2_Node000001_Node000003" class="edge">
<title>Node3&#45;&gt;Node1</title>
<g id="a_edge2_Node000001_Node000003"><a xlink:title=" ">
<path fill="none" stroke="#9a32cd" stroke-dasharray="5,2" d="M215.9,-80.99C184.1,-63.54 129.66,-33.65 103.05,-19.04"/>
<polygon fill="#9a32cd" stroke="#9a32cd" points="214.54,-84.24 224.99,-85.98 217.91,-78.1 214.54,-84.24"/>
</a>
</g>
<text text-anchor="start" x="167.5" y="-42.5" font-family="Helvetica,sans-Serif" font-size="10.00" fill="grey">nodes</text>
</g>
<!-- Node4 -->
<g id="Node000004" class="node">
<title>Node4</title>
<g id="a_Node000004"><a xlink:href="structfiftyone_degrees_ipi_cg_member.html" target="_top" xlink:title="DATA STRUCTURES.">
<polygon fill="white" stroke="#666666" points="320,-226.5 161,-226.5 161,-207.5 320,-207.5 320,-226.5"/>
<text text-anchor="middle" x="240.5" y="-214.5" font-family="Helvetica,sans-Serif" font-size="10.00">fiftyoneDegreesIpiCgMember</text>
</a>
</g>
</g>
<!-- Node4&#45;&gt;Node3 -->
<g id="edge4_Node000003_Node000004" class="edge">
<title>Node4&#45;&gt;Node3</title>
<g id="a_edge4_Node000003_Node000004"><a xlink:title=" ">
<path fill="none" stroke="#9a32cd" stroke-dasharray="5,2" d="M240.5,-197.22C240.5,-170.91 240.5,-124.15 240.5,-105.02"/>
<polygon fill="#9a32cd" stroke="#9a32cd" points="237,-197.41 240.5,-207.41 244,-197.41 237,-197.41"/>
</a>
</g>
<text text-anchor="start" x="244" y="-172.5" font-family="Helvetica,sans-Serif" font-size="10.00" fill="grey">lowFlag</text>
<text text-anchor="start" x="244" y="-157.5" font-family="Helvetica,sans-Serif" font-size="10.00" fill="grey">spanIndex</text>
<text text-anchor="start" x="244" y="-142.5" font-family="Helvetica,sans-Serif" font-size="10.00" fill="grey">value</text>
</g>
</g>
</svg>
