<?xml version="1.0" encoding="UTF-8" standalone="no"?>
<!DOCTYPE svg PUBLIC "-//W3C//DTD SVG 1.1//EN"
 "http://www.w3.org/Graphics/SVG/1.1/DTD/svg11.dtd">
<!-- Generated by graphviz version 2.43.0 (0)
 -->
<!-- Title: evidenceFindState Pages: 1 -->
<svg width="165pt" height="173pt"
 viewBox="0.00 0.00 165.00 173.00" xmlns="http://www.w3.org/2000/svg" xmlns:xlink="http://www.w3.org/1999/xlink">
<g id="graph0" class="graph" transform="scale(1 1) rotate(0) translate(4 169)">
<title>evidenceFindState</title>
<!-- Node1 -->
<g id="node1" class="node">
<title>Node1</title>
<g id="a_node1"><a xlink:title=" ">
<polygon fill="#bfbfbf" stroke="black" points="25,-0.5 25,-19.5 132,-19.5 132,-0.5 25,-0.5"/>
<text text-anchor="middle" x="78.5" y="-7.5" font-family="Helvetica,sans-Serif" font-size="10.00">evidenceFindState</text>
</a>
</g>
</g>
<!-- Node2 -->
<g id="node2" class="node">
<title>Node2</title>
<g id="a_node2"><a xlink:href="structfiftyone_degrees_evidence_key_value_pair.html" target="_top" xlink:title="Evidence key value pair structure which combines the prefix, key and value.">
<polygon fill="none" stroke="black" points="0.5,-67.5 0.5,-97.5 156.5,-97.5 156.5,-67.5 0.5,-67.5"/>
<text text-anchor="start" x="8.5" y="-85.5" font-family="Helvetica,sans-Serif" font-size="10.00">fiftyoneDegreesEvidenceKey</text>
<text text-anchor="middle" x="78.5" y="-74.5" font-family="Helvetica,sans-Serif" font-size="10.00">ValuePair</text>
</a>
</g>
</g>
<!-- Node2&#45;&gt;Node1 -->
<g id="edge1" class="edge">
<title>Node2&#45;&gt;Node1</title>
<path fill="none" stroke="#9a32cd" stroke-dasharray="5,2" d="M78.5,-57.09C78.5,-44.21 78.5,-29.2 78.5,-19.89"/>
<polygon fill="#9a32cd" stroke="#9a32cd" points="75,-57.23 78.5,-67.23 82,-57.23 75,-57.23"/>
<text text-anchor="middle" x="89.5" y="-41" font-family="Helvetica,sans-Serif" font-size="10.00"> pair</text>
</g>
<!-- Node3 -->
<g id="node3" class="node">
<title>Node3</title>
<g id="a_node3"><a xlink:href="structfiftyone_degrees_key_value_pair.html" target="_top" xlink:title=" ">
<polygon fill="none" stroke="black" points="0,-145.5 0,-164.5 157,-164.5 157,-145.5 0,-145.5"/>
<text text-anchor="middle" x="78.5" y="-152.5" font-family="Helvetica,sans-Serif" font-size="10.00">fiftyoneDegreesKeyValuePair</text>
</a>
</g>
</g>
<!-- Node3&#45;&gt;Node2 -->
<g id="edge2" class="edge">
<title>Node3&#45;&gt;Node2</title>
<path fill="none" stroke="#9a32cd" stroke-dasharray="5,2" d="M78.5,-135.24C78.5,-123.41 78.5,-108.38 78.5,-97.58"/>
<polygon fill="#9a32cd" stroke="#9a32cd" points="75,-135.36 78.5,-145.36 82,-135.36 75,-135.36"/>
<text text-anchor="middle" x="91.5" y="-119" font-family="Helvetica,sans-Serif" font-size="10.00"> item</text>
</g>
</g>
</svg>
