<?xml version="1.0" encoding="UTF-8" standalone="no"?>
<!DOCTYPE svg PUBLIC "-//W3C//DTD SVG 1.1//EN"
 "http://www.w3.org/Graphics/SVG/1.1/DTD/svg11.dtd">
<!-- Generated by graphviz version 2.43.0 (0)
 -->
<!-- Title: fiftyoneDegreesCollectionKey Pages: 1 -->
<svg width="312pt" height="110pt"
 viewBox="0.00 0.00 312.00 110.00" xmlns="http://www.w3.org/2000/svg" xmlns:xlink="http://www.w3.org/1999/xlink">
<g id="graph0" class="graph" transform="scale(1 1) rotate(0) translate(4 106)">
<title>fiftyoneDegreesCollectionKey</title>
<!-- Node1 -->
<g id="Node000001" class="node">
<title>Node1</title>
<g id="a_Node000001"><a xlink:title="Explains to a collection (or cache) what the consumer is looking for.">
<polygon fill="#999999" stroke="#666666" points="232,-19 71,-19 71,0 232,0 232,-19"/>
<text text-anchor="middle" x="151.5" y="-7" font-family="Helvetica,sans-Serif" font-size="10.00">fiftyoneDegreesCollectionKey</text>
</a>
</g>
</g>
<!-- Node2 -->
<g id="Node000002" class="node">
<title>Node2</title>
<g id="a_Node000002"><a xlink:href="unionfiftyone_degrees_collection_index_or_offset.html" target="_top" xlink:title="Location of the item within the Collection.">
<polygon fill="white" stroke="#666666" points="143,-102 0,-102 0,-72 143,-72 143,-102"/>
<text text-anchor="start" x="8" y="-90" font-family="Helvetica,sans-Serif" font-size="10.00">fiftyoneDegreesCollection</text>
<text text-anchor="middle" x="71.5" y="-79" font-family="Helvetica,sans-Serif" font-size="10.00">IndexOrOffset</text>
</a>
</g>
</g>
<!-- Node2&#45;&gt;Node1 -->
<g id="edge1_Node000001_Node000002" class="edge">
<title>Node2&#45;&gt;Node1</title>
<g id="a_edge1_Node000001_Node000002"><a xlink:title=" ">
<path fill="none" stroke="#9a32cd" stroke-dasharray="5,2" d="M94,-64.77C110.06,-49.61 130.81,-30.02 142.49,-19.01"/>
<polygon fill="#9a32cd" stroke="#9a32cd" points="91.42,-62.39 86.55,-71.8 96.22,-67.48 91.42,-62.39"/>
</a>
</g>
<text text-anchor="start" x="126.5" y="-42.5" font-family="Helvetica,sans-Serif" font-size="10.00" fill="grey">indexOrOffset</text>
</g>
<!-- Node3 -->
<g id="Node000003" class="node">
<title>Node3</title>
<g id="a_Node000003"><a xlink:href="structfiftyone_degrees_collection_key_type.html" target="_top" xlink:title="Explains to a collection how to properly extract the requested value.">
<polygon fill="white" stroke="#666666" points="304,-102 161,-102 161,-72 304,-72 304,-102"/>
<text text-anchor="start" x="169" y="-90" font-family="Helvetica,sans-Serif" font-size="10.00">fiftyoneDegreesCollection</text>
<text text-anchor="middle" x="232.5" y="-79" font-family="Helvetica,sans-Serif" font-size="10.00">KeyType</text>
</a>
</g>
</g>
<!-- Node3&#45;&gt;Node1 -->
<g id="edge2_Node000001_Node000003" class="edge">
<title>Node3&#45;&gt;Node1</title>
<g id="a_edge2_Node000001_Node000003"><a xlink:title=" ">
<path fill="none" stroke="#9a32cd" stroke-dasharray="5,2" d="M221.23,-62.93C216.1,-54.06 209.39,-44.31 201.5,-37 193.43,-29.52 182.85,-23.52 173.5,-19.12"/>
<polygon fill="#9a32cd" stroke="#9a32cd" points="218.16,-64.6 226,-71.73 224.31,-61.27 218.16,-64.6"/>
</a>
</g>
<text text-anchor="start" x="218.5" y="-42.5" font-family="Helvetica,sans-Serif" font-size="10.00" fill="grey">keyType</text>
</g>
</g>
</svg>
