<?xml version="1.0" encoding="UTF-8" standalone="no"?>
<!DOCTYPE svg PUBLIC "-//W3C//DTD SVG 1.1//EN"
 "http://www.w3.org/Graphics/SVG/1.1/DTD/svg11.dtd">
<!-- Generated by graphviz version 2.43.0 (0)
 -->
<!-- Title: FileCollection Pages: 1 -->
<svg width="457pt" height="254pt"
 viewBox="0.00 0.00 456.50 254.00" xmlns="http://www.w3.org/2000/svg" xmlns:xlink="http://www.w3.org/1999/xlink">
<g id="graph0" class="graph" transform="scale(1 1) rotate(0) translate(4 250)">
<title>FileCollection</title>
<!-- Node1 -->
<g id="Node000001" class="node">
<title>Node1</title>
<g id="a_Node000001"><a xlink:title="DATA STRUCTURES.">
<polygon fill="#999999" stroke="#666666" points="262.5,-19 179.5,-19 179.5,0 262.5,0 262.5,-19"/>
<text text-anchor="middle" x="221" y="-7" font-family="Helvetica,sans-Serif" font-size="10.00">FileCollection</text>
</a>
</g>
</g>
<!-- Node2 -->
<g id="Node000002" class="node">
<title>Node2</title>
<g id="a_Node000002"><a xlink:href="structfiftyone_degrees_file_pool.html" target="_top" xlink:title="Stack of handles used to read data from a single source file.">
<polygon fill="white" stroke="#666666" points="132,-96.5 0,-96.5 0,-77.5 132,-77.5 132,-96.5"/>
<text text-anchor="middle" x="66" y="-84.5" font-family="Helvetica,sans-Serif" font-size="10.00">fiftyoneDegreesFilePool</text>
</a>
</g>
</g>
<!-- Node2&#45;&gt;Node1 -->
<g id="edge1_Node000001_Node000002" class="edge">
<title>Node2&#45;&gt;Node1</title>
<g id="a_edge1_Node000001_Node000002"><a xlink:title=" ">
<path fill="none" stroke="#9a32cd" stroke-dasharray="5,2" d="M92.6,-73.04C124.27,-57.62 176.26,-32.29 203.35,-19.1"/>
<polygon fill="#9a32cd" stroke="#9a32cd" points="90.94,-69.96 83.48,-77.49 94,-76.25 90.94,-69.96"/>
</a>
</g>
<text text-anchor="start" x="170" y="-42.5" font-family="Helvetica,sans-Serif" font-size="10.00" fill="grey">reader</text>
</g>
<!-- Node3 -->
<g id="Node000003" class="node">
<title>Node3</title>
<g id="a_Node000003"><a xlink:href="structfiftyone_degrees_pool.html" target="_top" xlink:title="Pool of resources stored as items in a stack.">
<polygon fill="white" stroke="#666666" points="225.5,-174 110.5,-174 110.5,-155 225.5,-155 225.5,-174"/>
<text text-anchor="middle" x="168" y="-162" font-family="Helvetica,sans-Serif" font-size="10.00">fiftyoneDegreesPool</text>
</a>
</g>
</g>
<!-- Node3&#45;&gt;Node2 -->
<g id="edge2_Node000002_Node000003" class="edge">
<title>Node3&#45;&gt;Node2</title>
<g id="a_edge2_Node000002_Node000003"><a xlink:title=" ">
<path fill="none" stroke="#9a32cd" stroke-dasharray="5,2" d="M146.98,-149.09C141.42,-145.21 135.45,-140.99 130,-137 111.25,-123.29 89.9,-106.76 77.21,-96.83"/>
<polygon fill="#9a32cd" stroke="#9a32cd" points="145.02,-151.99 155.23,-154.81 149.01,-146.23 145.02,-151.99"/>
</a>
</g>
<text text-anchor="start" x="133" y="-125.5" font-family="Helvetica,sans-Serif" font-size="10.00" fill="grey">pool</text>
</g>
<!-- Node3&#45;&gt;Node3 -->
<g id="edge6_Node000003_Node000003" class="edge">
<title>Node3&#45;&gt;Node3</title>
<g id="a_edge6_Node000003_Node000003"><a xlink:title=" ">
<path fill="none" stroke="#9a32cd" stroke-dasharray="5,2" d="M235.53,-169.5C240.47,-168.37 243.5,-166.71 243.5,-164.5 243.5,-161.05 236.12,-158.93 225.61,-158.12"/>
<polygon fill="#9a32cd" stroke="#9a32cd" points="235.03,-166.03 225.61,-170.88 235.99,-172.97 235.03,-166.03"/>
</a>
</g>
<text text-anchor="start" x="246.5" y="-161.5" font-family="Helvetica,sans-Serif" font-size="10.00" fill="grey">resourceFree</text>
</g>
<!-- Node4 -->
<g id="Node000004" class="node">
<title>Node4</title>
<g id="a_Node000004"><a xlink:href="structfiftyone_degrees_pool_item.html" target="_top" xlink:title="Pool item node in the stack of items.">
<polygon fill="white" stroke="#666666" points="287.5,-96.5 150.5,-96.5 150.5,-77.5 287.5,-77.5 287.5,-96.5"/>
<text text-anchor="middle" x="219" y="-84.5" font-family="Helvetica,sans-Serif" font-size="10.00">fiftyoneDegreesPoolItem</text>
</a>
</g>
</g>
<!-- Node3&#45;&gt;Node4 -->
<g id="edge4_Node000004_Node000003" class="edge">
<title>Node3&#45;&gt;Node4</title>
<g id="a_edge4_Node000004_Node000003"><a xlink:title=" ">
<path fill="none" stroke="#9a32cd" stroke-dasharray="5,2" d="M162.31,-145.12C160.86,-136.95 160.73,-127.5 165,-120 171.2,-109.11 182.73,-101.55 193.55,-96.52"/>
<polygon fill="#9a32cd" stroke="#9a32cd" points="158.92,-146 164.73,-154.86 165.72,-144.31 158.92,-146"/>
</a>
</g>
<text text-anchor="start" x="168" y="-125.5" font-family="Helvetica,sans-Serif" font-size="10.00" fill="grey">pool</text>
</g>
<!-- Node4&#45;&gt;Node3 -->
<g id="edge3_Node000003_Node000004" class="edge">
<title>Node4&#45;&gt;Node3</title>
<g id="a_edge3_Node000003_Node000004"><a xlink:title=" ">
<path fill="none" stroke="#9a32cd" stroke-dasharray="5,2" d="M212.97,-105.98C209.22,-115.68 203.82,-127.57 197,-137 192.12,-143.74 185.31,-150.08 179.51,-154.86"/>
<polygon fill="#9a32cd" stroke="#9a32cd" points="216.27,-107.12 216.37,-96.53 209.69,-104.75 216.27,-107.12"/>
</a>
</g>
<text text-anchor="start" x="210.5" y="-125.5" font-family="Helvetica,sans-Serif" font-size="10.00" fill="grey">stack</text>
</g>
<!-- Node5 -->
<g id="Node000005" class="node">
<title>Node5</title>
<g id="a_Node000005"><a xlink:href="unionfiftyone_degrees_pool_head.html" target="_top" xlink:title="The head of the stack used for pop and push operations.">
<polygon fill="white" stroke="#666666" points="238,-246 98,-246 98,-227 238,-227 238,-246"/>
<text text-anchor="middle" x="168" y="-234" font-family="Helvetica,sans-Serif" font-size="10.00">fiftyoneDegreesPoolHead</text>
</a>
</g>
</g>
<!-- Node5&#45;&gt;Node3 -->
<g id="edge5_Node000003_Node000005" class="edge">
<title>Node5&#45;&gt;Node3</title>
<g id="a_edge5_Node000003_Node000005"><a xlink:title=" ">
<path fill="none" stroke="#9a32cd" stroke-dasharray="5,2" d="M168,-216.58C168,-202.76 168,-184.68 168,-174.15"/>
<polygon fill="#9a32cd" stroke="#9a32cd" points="164.5,-216.92 168,-226.92 171.5,-216.92 164.5,-216.92"/>
</a>
</g>
<text text-anchor="start" x="171.5" y="-197.5" font-family="Helvetica,sans-Serif" font-size="10.00" fill="grey">head</text>
</g>
<!-- Node6 -->
<g id="Node000006" class="node">
<title>Node6</title>
<g id="a_Node000006"><a xlink:href="structfiftyone_degrees_collection_config.html" target="_top" xlink:title="Collection configuration structure which defines how the collection should be created by the create m...">
<polygon fill="white" stroke="#666666" points="448.5,-102 305.5,-102 305.5,-72 448.5,-72 448.5,-102"/>
<text text-anchor="start" x="313.5" y="-90" font-family="Helvetica,sans-Serif" font-size="10.00">fiftyoneDegreesCollection</text>
<text text-anchor="middle" x="377" y="-79" font-family="Helvetica,sans-Serif" font-size="10.00">Config</text>
</a>
</g>
</g>
<!-- Node6&#45;&gt;Node1 -->
<g id="edge7_Node000001_Node000006" class="edge">
<title>Node6&#45;&gt;Node1</title>
<g id="a_edge7_Node000001_Node000006"><a xlink:title=" ">
<path fill="none" stroke="#9a32cd" stroke-dasharray="5,2" d="M338.96,-67.59C307.04,-52.14 262.89,-30.77 238.67,-19.05"/>
<polygon fill="#9a32cd" stroke="#9a32cd" points="337.5,-70.77 348.02,-71.98 340.55,-64.47 337.5,-70.77"/>
</a>
</g>
<text text-anchor="start" x="312" y="-42.5" font-family="Helvetica,sans-Serif" font-size="10.00" fill="grey">config</text>
</g>
</g>
</svg>
