<?xml version="1.0" encoding="UTF-8" standalone="no"?>
<!DOCTYPE svg PUBLIC "-//W3C//DTD SVG 1.1//EN"
 "http://www.w3.org/Graphics/SVG/1.1/DTD/svg11.dtd">
<!-- Generated by graphviz version 2.43.0 (0)
 -->
<!-- Title: threadState Pages: 1 -->
<svg width="1335pt" height="336pt"
 viewBox="0.00 0.00 1335.00 335.50" xmlns="http://www.w3.org/2000/svg" xmlns:xlink="http://www.w3.org/1999/xlink">
<g id="graph0" class="graph" transform="scale(1 1) rotate(0) translate(4 331.5)">
<title>threadState</title>
<!-- Node1 -->
<g id="Node000001" class="node">
<title>Node1</title>
<g id="a_Node000001"><a xlink:title="State specific to a single thread.">
<polygon fill="#999999" stroke="#666666" points="1083,-172 1009,-172 1009,-153 1083,-153 1083,-172"/>
<text text-anchor="middle" x="1046" y="-160" font-family="Helvetica,sans-Serif" font-size="10.00">threadState</text>
</a>
</g>
</g>
<!-- Node2 -->
<g id="Node000002" class="node">
<title>Node2</title>
<g id="a_Node000002"><a xlink:href="structperformance_state.html" target="_top" xlink:title="Shared performance state.">
<polygon fill="white" stroke="#666666" points="1327,-108 1223,-108 1223,-89 1327,-89 1327,-108"/>
<text text-anchor="middle" x="1275" y="-96" font-family="Helvetica,sans-Serif" font-size="10.00">performanceState</text>
</a>
</g>
</g>
<!-- Node1&#45;&gt;Node2 -->
<g id="edge8_Node000002_Node000001" class="edge">
<title>Node1&#45;&gt;Node2</title>
<g id="a_edge8_Node000002_Node000001"><a xlink:title=" ">
<path fill="none" stroke="#9a32cd" stroke-dasharray="5,2" d="M1093.03,-159.57C1125.13,-156.49 1168.56,-150.21 1205,-137.5 1225.53,-130.34 1247,-117.16 1260.43,-108.12"/>
<polygon fill="#9a32cd" stroke="#9a32cd" points="1092.68,-156.09 1083.03,-160.47 1093.3,-163.06 1092.68,-156.09"/>
</a>
</g>
<text text-anchor="start" x="1129.5" y="-163" font-family="Helvetica,sans-Serif" font-size="10.00" fill="grey">threadStates</text>
</g>
<!-- Node2&#45;&gt;Node1 -->
<g id="edge1_Node000001_Node000002" class="edge">
<title>Node2&#45;&gt;Node1</title>
<g id="a_edge1_Node000001_Node000002"><a xlink:title=" ">
<path fill="none" stroke="#9a32cd" stroke-dasharray="5,2" d="M1212.65,-101.21C1182.8,-103.98 1146.8,-109.52 1116,-120.5 1094.6,-128.13 1072.65,-142.92 1059.42,-152.76"/>
<polygon fill="#9a32cd" stroke="#9a32cd" points="1213.27,-104.67 1222.94,-100.34 1212.68,-97.7 1213.27,-104.67"/>
</a>
</g>
<text text-anchor="start" x="1135.5" y="-126" font-family="Helvetica,sans-Serif" font-size="10.00" fill="grey">mainState</text>
</g>
<!-- Node3 -->
<g id="Node000003" class="node">
<title>Node3</title>
<g id="a_Node000003"><a xlink:href="structfiftyone_degrees_resource_manager.html" target="_top" xlink:title="Manager structure used to provide access to a shared and changing resource.">
<polygon fill="white" stroke="#666666" points="404,-144 222,-144 222,-125 404,-125 404,-144"/>
<text text-anchor="middle" x="313" y="-132" font-family="Helvetica,sans-Serif" font-size="10.00">fiftyoneDegreesResourceManager</text>
</a>
</g>
</g>
<!-- Node3&#45;&gt;Node2 -->
<g id="edge2_Node000002_Node000003" class="edge">
<title>Node3&#45;&gt;Node2</title>
<g id="a_edge2_Node000002_Node000003"><a xlink:title=" ">
<path fill="none" stroke="#9a32cd" stroke-dasharray="5,2" d="M352.5,-121.92C403.08,-106.53 494.95,-82.5 575.5,-82.5 575.5,-82.5 575.5,-82.5 1047,-82.5 1107.45,-82.5 1176.72,-88.22 1222.68,-92.81"/>
<polygon fill="#9a32cd" stroke="#9a32cd" points="351.17,-118.66 342.65,-124.96 353.24,-125.35 351.17,-118.66"/>
</a>
</g>
<text text-anchor="start" x="812" y="-88" font-family="Helvetica,sans-Serif" font-size="10.00" fill="grey">manager</text>
</g>
<!-- Node4 -->
<g id="Node000004" class="node">
<title>Node4</title>
<g id="a_Node000004"><a xlink:href="structfiftyone_degrees_resource_handle.html" target="_top" xlink:title="Handle for a shared resource.">
<polygon fill="white" stroke="#666666" points="663,-186 490,-186 490,-167 663,-167 663,-186"/>
<text text-anchor="middle" x="576.5" y="-174" font-family="Helvetica,sans-Serif" font-size="10.00">fiftyoneDegreesResourceHandle</text>
</a>
</g>
</g>
<!-- Node3&#45;&gt;Node4 -->
<g id="edge5_Node000004_Node000003" class="edge">
<title>Node3&#45;&gt;Node4</title>
<g id="a_edge5_Node000004_Node000003"><a xlink:title=" ">
<path fill="none" stroke="#9a32cd" stroke-dasharray="5,2" d="M414.21,-139.84C433.48,-141.69 453.43,-144.17 472,-147.5 497.71,-152.12 526.26,-160.36 546.84,-166.88"/>
<polygon fill="#9a32cd" stroke="#9a32cd" points="414.48,-136.35 404.21,-138.93 413.85,-143.32 414.48,-136.35"/>
</a>
</g>
<text text-anchor="start" x="425" y="-153" font-family="Helvetica,sans-Serif" font-size="10.00" fill="grey">manager</text>
</g>
<!-- Node11 -->
<g id="Node000011" class="node">
<title>Node11</title>
<g id="a_Node000011"><a xlink:href="class_resource_manager.html" target="_top" xlink:title=" ">
<polygon fill="white" stroke="#bfbfbf" points="886,-175 782,-175 782,-156 886,-156 886,-175"/>
<text text-anchor="middle" x="834" y="-163" font-family="Helvetica,sans-Serif" font-size="10.00">ResourceManager</text>
</a>
</g>
</g>
<!-- Node3&#45;&gt;Node11 -->
<g id="edge17_Node000011_Node000003" class="edge">
<title>Node3&#45;&gt;Node11</title>
<g id="a_edge17_Node000011_Node000003"><a xlink:title=" ">
<path fill="none" stroke="#9a32cd" stroke-dasharray="5,2" d="M414.3,-132.81C484.14,-132.46 579.38,-133.66 663,-140.5 703.14,-143.78 748.22,-150.56 781.87,-156.22"/>
<polygon fill="#9a32cd" stroke="#9a32cd" points="414.16,-129.31 404.18,-132.87 414.2,-136.31 414.16,-129.31"/>
</a>
</g>
<text text-anchor="start" x="554.5" y="-146" font-family="Helvetica,sans-Serif" font-size="10.00" fill="grey">manager</text>
</g>
<!-- Node4&#45;&gt;Node3 -->
<g id="edge3_Node000003_Node000004" class="edge">
<title>Node4&#45;&gt;Node3</title>
<g id="a_edge3_Node000003_Node000004"><a xlink:title=" ">
<path fill="none" stroke="#9a32cd" stroke-dasharray="5,2" d="M479.82,-175.26C460.57,-173.96 440.56,-171.85 422,-168.5 392.6,-163.19 360.04,-152.2 338.43,-144.15"/>
<polygon fill="#9a32cd" stroke="#9a32cd" points="479.61,-178.75 489.81,-175.87 480.04,-171.77 479.61,-178.75"/>
</a>
</g>
<text text-anchor="start" x="432" y="-180" font-family="Helvetica,sans-Serif" font-size="10.00" fill="grey">active</text>
</g>
<!-- Node4&#45;&gt;Node11 -->
<g id="edge18_Node000011_Node000004" class="edge">
<title>Node4&#45;&gt;Node11</title>
<g id="a_edge18_Node000011_Node000004"><a xlink:title=" ">
<path fill="none" stroke="#9a32cd" stroke-dasharray="5,2" d="M673.54,-172.37C710.27,-170.78 750.73,-169.04 781.71,-167.71"/>
<polygon fill="#9a32cd" stroke="#9a32cd" points="673.13,-168.88 663.29,-172.81 673.43,-175.87 673.13,-168.88"/>
</a>
</g>
<text text-anchor="start" x="684.5" y="-178" font-family="Helvetica,sans-Serif" font-size="10.00" fill="grey">resourceHandle</text>
</g>
<!-- Node5 -->
<g id="Node000005" class="node">
<title>Node5</title>
<g id="a_Node000005"><a xlink:href="structfiftyone_degrees_interlock_double_width.html" target="_top" xlink:title="Double width (64 or 128 depending on the architecture) compare and exchange.">
<polygon fill="white" stroke="#666666" points="381.5,-239.5 244.5,-239.5 244.5,-209.5 381.5,-209.5 381.5,-239.5"/>
<text text-anchor="start" x="252.5" y="-227.5" font-family="Helvetica,sans-Serif" font-size="10.00">fiftyoneDegreesInterlock</text>
<text text-anchor="middle" x="313" y="-216.5" font-family="Helvetica,sans-Serif" font-size="10.00">DoubleWidth</text>
</a>
</g>
</g>
<!-- Node5&#45;&gt;Node4 -->
<g id="edge4_Node000004_Node000005" class="edge">
<title>Node5&#45;&gt;Node4</title>
<g id="a_edge4_Node000004_Node000005"><a xlink:title=" ">
<path fill="none" stroke="#9a32cd" stroke-dasharray="5,2" d="M391.72,-210.23C434.22,-202.43 485.72,-192.98 523.37,-186.07"/>
<polygon fill="#9a32cd" stroke="#9a32cd" points="390.89,-206.83 381.68,-212.08 392.15,-213.71 390.89,-206.83"/>
</a>
</g>
<text text-anchor="start" x="429" y="-209" font-family="Helvetica,sans-Serif" font-size="10.00" fill="grey">counter</text>
</g>
<!-- Node6 -->
<g id="Node000006" class="node">
<title>Node6</title>
<g id="a_Node000006"><a xlink:href="structshared_string_node.html" target="_top" xlink:title=" ">
<polygon fill="white" stroke="#bfbfbf" points="1098,-19 994,-19 994,0 1098,0 1098,-19"/>
<text text-anchor="middle" x="1046" y="-7" font-family="Helvetica,sans-Serif" font-size="10.00">sharedStringNode</text>
</a>
</g>
</g>
<!-- Node6&#45;&gt;Node2 -->
<g id="edge6_Node000002_Node000006" class="edge">
<title>Node6&#45;&gt;Node2</title>
<g id="a_edge6_Node000002_Node000006"><a xlink:title=" ">
<path fill="none" stroke="#9a32cd" stroke-dasharray="5,2" d="M1108.33,-11.99C1138.65,-15.17 1175.07,-22.02 1205,-36.5 1231.09,-49.13 1254.61,-74.65 1266.27,-88.69"/>
<polygon fill="#9a32cd" stroke="#9a32cd" points="1108.58,-8.5 1098.3,-11.05 1107.93,-15.47 1108.58,-8.5"/>
</a>
</g>
<text text-anchor="start" x="1119.5" y="-57.5" font-family="Helvetica,sans-Serif" font-size="10.00" fill="grey">sharedStringFirst</text>
<text text-anchor="start" x="1119.5" y="-42.5" font-family="Helvetica,sans-Serif" font-size="10.00" fill="grey">sharedStringLast</text>
</g>
<!-- Node6&#45;&gt;Node6 -->
<g id="edge7_Node000006_Node000006" class="edge">
<title>Node6&#45;&gt;Node6</title>
<g id="a_edge7_Node000006_Node000006"><a xlink:title=" ">
<path fill="none" stroke="#9a32cd" stroke-dasharray="5,2" d="M1026.37,-28.55C1027.68,-33.38 1034.23,-37 1046,-37 1064.84,-37 1070.29,-27.73 1062.34,-19.08"/>
<polygon fill="#9a32cd" stroke="#9a32cd" points="1029.69,-29.68 1029.66,-19.08 1023.07,-27.38 1029.69,-29.68"/>
</a>
</g>
<text text-anchor="start" x="1035" y="-42.5" font-family="Helvetica,sans-Serif" font-size="10.00" fill="grey">next</text>
</g>
<!-- Node7 -->
<g id="Node000007" class="node">
<title>Node7</title>
<g id="a_Node000007"><a xlink:href="structevidence_node.html" target="_top" xlink:title=" ">
<polygon fill="white" stroke="#bfbfbf" points="877,-234 791,-234 791,-215 877,-215 877,-234"/>
<text text-anchor="middle" x="834" y="-222" font-family="Helvetica,sans-Serif" font-size="10.00">evidenceNode</text>
</a>
</g>
</g>
<!-- Node7&#45;&gt;Node1 -->
<g id="edge9_Node000001_Node000007" class="edge">
<title>Node7&#45;&gt;Node1</title>
<g id="a_edge9_Node000001_Node000007"><a xlink:title=" ">
<path fill="none" stroke="#9a32cd" stroke-dasharray="5,2" d="M881.16,-212.38C908.78,-204.97 944.52,-195.09 976,-185.5 989.77,-181.3 1004.96,-176.28 1017.57,-172.01"/>
<polygon fill="#9a32cd" stroke="#9a32cd" points="880.13,-209.03 871.37,-215 881.94,-215.8 880.13,-209.03"/>
</a>
</g>
<text text-anchor="start" x="907" y="-226.5" font-family="Helvetica,sans-Serif" font-size="10.00" fill="grey">evidenceFirst</text>
<text text-anchor="start" x="907" y="-211.5" font-family="Helvetica,sans-Serif" font-size="10.00" fill="grey">evidenceLast</text>
</g>
<!-- Node7&#45;&gt;Node7 -->
<g id="edge13_Node000007_Node000007" class="edge">
<title>Node7&#45;&gt;Node7</title>
<g id="a_edge13_Node000007_Node000007"><a xlink:title=" ">
<path fill="none" stroke="#9a32cd" stroke-dasharray="5,2" d="M814.37,-243.55C815.68,-248.38 822.23,-252 834,-252 852.84,-252 858.29,-242.73 850.34,-234.08"/>
<polygon fill="#9a32cd" stroke="#9a32cd" points="817.69,-244.68 817.66,-234.08 811.07,-242.38 817.69,-244.68"/>
</a>
</g>
<text text-anchor="start" x="823" y="-257.5" font-family="Helvetica,sans-Serif" font-size="10.00" fill="grey">next</text>
</g>
<!-- Node8 -->
<g id="Node000008" class="node">
<title>Node8</title>
<g id="a_Node000008"><a xlink:href="structfiftyone_degrees_evidence_key_value_pair_array.html" target="_top" xlink:title="Array of evidence key value pairs and a pointer to the next array if present or NULL of not present.">
<polygon fill="white" stroke="#666666" points="654.5,-300.5 498.5,-300.5 498.5,-270.5 654.5,-270.5 654.5,-300.5"/>
<text text-anchor="start" x="506.5" y="-288.5" font-family="Helvetica,sans-Serif" font-size="10.00">fiftyoneDegreesEvidenceKey</text>
<text text-anchor="middle" x="576.5" y="-277.5" font-family="Helvetica,sans-Serif" font-size="10.00">ValuePairArray</text>
</a>
</g>
</g>
<!-- Node8&#45;&gt;Node7 -->
<g id="edge10_Node000007_Node000008" class="edge">
<title>Node8&#45;&gt;Node7</title>
<g id="a_edge10_Node000007_Node000008"><a xlink:title=" ">
<path fill="none" stroke="#9a32cd" stroke-dasharray="5,2" d="M650.34,-268.11C696.72,-257.04 755.04,-243.11 793.13,-234.02"/>
<polygon fill="#9a32cd" stroke="#9a32cd" points="649.24,-264.77 640.33,-270.5 650.87,-271.58 649.24,-264.77"/>
</a>
</g>
<text text-anchor="start" x="709.5" y="-266" font-family="Helvetica,sans-Serif" font-size="10.00" fill="grey">array</text>
</g>
<!-- Node9 -->
<g id="Node000009" class="node">
<title>Node9</title>
<g id="a_Node000009"><a xlink:href="structfiftyone_degrees_evidence_key_value_pair.html" target="_top" xlink:title="Evidence key value pair structure which combines the prefix, key and value.">
<polygon fill="white" stroke="#666666" points="391,-325.5 235,-325.5 235,-295.5 391,-295.5 391,-325.5"/>
<text text-anchor="start" x="243" y="-313.5" font-family="Helvetica,sans-Serif" font-size="10.00">fiftyoneDegreesEvidenceKey</text>
<text text-anchor="middle" x="313" y="-302.5" font-family="Helvetica,sans-Serif" font-size="10.00">ValuePair</text>
</a>
</g>
</g>
<!-- Node9&#45;&gt;Node8 -->
<g id="edge11_Node000008_Node000009" class="edge">
<title>Node9&#45;&gt;Node8</title>
<g id="a_edge11_Node000008_Node000009"><a xlink:title=" ">
<path fill="none" stroke="#9a32cd" stroke-dasharray="5,2" d="M401.09,-302.17C432.46,-299.18 467.62,-295.81 498.1,-292.9"/>
<polygon fill="#9a32cd" stroke="#9a32cd" points="400.67,-298.7 391.04,-303.13 401.33,-305.67 400.67,-298.7"/>
</a>
</g>
<text text-anchor="start" x="433" y="-305" font-family="Helvetica,sans-Serif" font-size="10.00" fill="grey">items</text>
</g>
<!-- Node10 -->
<g id="Node000010" class="node">
<title>Node10</title>
<g id="a_Node000010"><a xlink:href="structfiftyone_degrees_key_value_pair.html" target="_top" xlink:title=" ">
<polygon fill="white" stroke="#bfbfbf" points="157,-320 0,-320 0,-301 157,-301 157,-320"/>
<text text-anchor="middle" x="78.5" y="-308" font-family="Helvetica,sans-Serif" font-size="10.00">fiftyoneDegreesKeyValuePair</text>
</a>
</g>
</g>
<!-- Node10&#45;&gt;Node9 -->
<g id="edge12_Node000009_Node000010" class="edge">
<title>Node10&#45;&gt;Node9</title>
<g id="a_edge12_Node000009_Node000010"><a xlink:title=" ">
<path fill="none" stroke="#9a32cd" stroke-dasharray="5,2" d="M167.31,-310.5C189.48,-310.5 213.12,-310.5 234.73,-310.5"/>
<polygon fill="#9a32cd" stroke="#9a32cd" points="167.24,-307 157.24,-310.5 167.24,-314 167.24,-307"/>
</a>
</g>
<text text-anchor="start" x="178.5" y="-316" font-family="Helvetica,sans-Serif" font-size="10.00" fill="grey">item</text>
</g>
<!-- Node11&#45;&gt;Node1 -->
<g id="edge14_Node000001_Node000011" class="edge">
<title>Node11&#45;&gt;Node1</title>
<g id="a_edge14_Node000001_Node000011"><a xlink:title=" ">
<path fill="none" stroke="#9a32cd" stroke-dasharray="5,2" d="M896.17,-164.63C932.73,-164.1 977.93,-163.46 1008.87,-163.02"/>
<polygon fill="#9a32cd" stroke="#9a32cd" points="896.05,-161.13 886.1,-164.77 896.15,-168.13 896.05,-161.13"/>
</a>
</g>
<text text-anchor="start" x="918" y="-170" font-family="Helvetica,sans-Serif" font-size="10.00" fill="grey">manager</text>
</g>
<!-- Node12 -->
<g id="Node000012" class="node">
<title>Node12</title>
<g id="a_Node000012"><a xlink:href="class_base.html" target="_top" xlink:title="Base test class used to carry out memory leak checks.">
<polygon fill="white" stroke="#666666" points="597,-242 556,-242 556,-223 597,-223 597,-242"/>
<text text-anchor="middle" x="576.5" y="-230" font-family="Helvetica,sans-Serif" font-size="10.00">Base</text>
</a>
</g>
</g>
<!-- Node12&#45;&gt;Node11 -->
<g id="edge15_Node000011_Node000012" class="edge">
<title>Node12&#45;&gt;Node11</title>
<g id="a_edge15_Node000011_Node000012"><a xlink:title=" ">
<path fill="none" stroke="#63b8ff" d="M607.15,-227.02C644.19,-219.91 709.35,-206.49 764,-190.5 779.16,-186.06 795.83,-180.06 808.98,-175.05"/>
<polygon fill="#63b8ff" stroke="#63b8ff" points="606.21,-223.64 597.04,-228.94 607.51,-230.52 606.21,-223.64"/>
</a>
</g>
</g>
<!-- Node13 -->
<g id="Node000013" class="node">
<title>Node13</title>
<g id="a_Node000013"><a xlink:title=" ">
<polygon fill="white" stroke="#bfbfbf" points="351,-277 275,-277 275,-258 351,-258 351,-277"/>
<text text-anchor="middle" x="313" y="-265" font-family="Helvetica,sans-Serif" font-size="10.00">testing::Test</text>
</a>
</g>
</g>
<!-- Node13&#45;&gt;Node12 -->
<g id="edge16_Node000012_Node000013" class="edge">
<title>Node13&#45;&gt;Node12</title>
<g id="a_edge16_Node000012_Node000013"><a xlink:title=" ">
<path fill="none" stroke="#63b8ff" d="M361.37,-263.71C392.81,-260.94 434.97,-256.77 472,-251.5 501.3,-247.33 534.96,-240.83 555.74,-236.62"/>
<polygon fill="#63b8ff" stroke="#63b8ff" points="360.8,-260.24 351.13,-264.59 361.4,-267.22 360.8,-260.24"/>
</a>
</g>
</g>
</g>
</svg>
