<?xml version="1.0" encoding="UTF-8" standalone="no"?>
<!DOCTYPE svg PUBLIC "-//W3C//DTD SVG 1.1//EN"
 "http://www.w3.org/Graphics/SVG/1.1/DTD/svg11.dtd">
<!-- Generated by graphviz version 2.43.0 (0)
 -->
<!-- Title: fiftyoneDegreesCacheNode Pages: 1 -->
<svg width="392pt" height="401pt"
 viewBox="0.00 0.00 391.50 401.00" xmlns="http://www.w3.org/2000/svg" xmlns:xlink="http://www.w3.org/1999/xlink">
<g id="graph0" class="graph" transform="scale(1 1) rotate(0) translate(4 397)">
<title>fiftyoneDegreesCacheNode</title>
<!-- Node1 -->
<g id="Node000001" class="node">
<title>Node1</title>
<g id="a_Node000001"><a xlink:title="Cache node structure used for storing data in the cache along with its key.">
<polygon fill="#999999" stroke="#666666" points="249,-199.5 100,-199.5 100,-180.5 249,-180.5 249,-199.5"/>
<text text-anchor="middle" x="174.5" y="-187.5" font-family="Helvetica,sans-Serif" font-size="10.00">fiftyoneDegreesCacheNode</text>
</a>
</g>
</g>
<!-- Node1&#45;&gt;Node1 -->
<g id="edge13_Node000001_Node000001" class="edge">
<title>Node1&#45;&gt;Node1</title>
<g id="a_edge13_Node000001_Node000001"><a xlink:title=" ">
<path fill="none" stroke="#9a32cd" stroke-dasharray="5,2" d="M259.19,-195.36C264.08,-194.07 267,-192.29 267,-190 267,-186.43 259.88,-184.08 249.26,-182.93"/>
<polygon fill="#9a32cd" stroke="#9a32cd" points="258.53,-191.93 249.26,-197.07 259.71,-198.83 258.53,-191.93"/>
</a>
</g>
<text text-anchor="start" x="270" y="-195" font-family="Helvetica,sans-Serif" font-size="10.00" fill="grey">listNext</text>
<text text-anchor="start" x="270" y="-180" font-family="Helvetica,sans-Serif" font-size="10.00" fill="grey">listPrevious</text>
</g>
<!-- Node5 -->
<g id="Node000005" class="node">
<title>Node5</title>
<g id="a_Node000005"><a xlink:href="structfiftyone_degrees_cache_shard.html" target="_top" xlink:title="Cache shard structure used to enable concurrent access to the cache.">
<polygon fill="white" stroke="#666666" points="310.5,-91 158.5,-91 158.5,-72 310.5,-72 310.5,-91"/>
<text text-anchor="middle" x="234.5" y="-79" font-family="Helvetica,sans-Serif" font-size="10.00">fiftyoneDegreesCacheShard</text>
</a>
</g>
</g>
<!-- Node1&#45;&gt;Node5 -->
<g id="edge12_Node000005_Node000001" class="edge">
<title>Node1&#45;&gt;Node5</title>
<g id="a_edge12_Node000005_Node000001"><a xlink:title=" ">
<path fill="none" stroke="#9a32cd" stroke-dasharray="5,2" d="M168.42,-170.42C163.94,-153.06 160.51,-127.17 172.5,-109 177.98,-100.7 186.66,-94.98 195.8,-91.06"/>
<polygon fill="#9a32cd" stroke="#9a32cd" points="165.18,-171.82 171.35,-180.43 171.89,-169.85 165.18,-171.82"/>
</a>
</g>
<text text-anchor="start" x="175.5" y="-144.5" font-family="Helvetica,sans-Serif" font-size="10.00" fill="grey">first</text>
<text text-anchor="start" x="175.5" y="-129.5" font-family="Helvetica,sans-Serif" font-size="10.00" fill="grey">last</text>
<text text-anchor="start" x="175.5" y="-114.5" font-family="Helvetica,sans-Serif" font-size="10.00" fill="grey">nodes</text>
</g>
<!-- Node6 -->
<g id="Node000006" class="node">
<title>Node6</title>
<g id="a_Node000006"><a xlink:href="structfiftyone_degrees_cache.html" target="_top" xlink:title="Cache structure to store the root of the red black tree and a list of allocated cache nodes.">
<polygon fill="white" stroke="#666666" points="182.5,-19 58.5,-19 58.5,0 182.5,0 182.5,-19"/>
<text text-anchor="middle" x="120.5" y="-7" font-family="Helvetica,sans-Serif" font-size="10.00">fiftyoneDegreesCache</text>
</a>
</g>
</g>
<!-- Node1&#45;&gt;Node6 -->
<g id="edge9_Node000006_Node000001" class="edge">
<title>Node1&#45;&gt;Node6</title>
<g id="a_edge9_Node000006_Node000001"><a xlink:title=" ">
<path fill="none" stroke="#9a32cd" stroke-dasharray="5,2" d="M160.07,-172.42C145.06,-153.99 122.54,-122.63 113.5,-91 106.25,-65.64 113.42,-34.11 117.75,-19.15"/>
<polygon fill="#9a32cd" stroke="#9a32cd" points="157.63,-174.96 166.73,-180.37 162.99,-170.46 157.63,-174.96"/>
</a>
</g>
<text text-anchor="start" x="116.5" y="-78.5" font-family="Helvetica,sans-Serif" font-size="10.00" fill="grey">nodes</text>
</g>
<!-- Node2 -->
<g id="Node000002" class="node">
<title>Node2</title>
<g id="a_Node000002"><a xlink:href="structfiftyone_degrees_tree_node.html" target="_top" xlink:title="Node structure defining a single node in the tree.">
<polygon fill="white" stroke="#666666" points="275.5,-292 135.5,-292 135.5,-273 275.5,-273 275.5,-292"/>
<text text-anchor="middle" x="205.5" y="-280" font-family="Helvetica,sans-Serif" font-size="10.00">fiftyoneDegreesTreeNode</text>
</a>
</g>
</g>
<!-- Node2&#45;&gt;Node1 -->
<g id="edge1_Node000001_Node000002" class="edge">
<title>Node2&#45;&gt;Node1</title>
<g id="a_edge1_Node000001_Node000002"><a xlink:title=" ">
<path fill="none" stroke="#9a32cd" stroke-dasharray="5,2" d="M199.26,-263.29C192.62,-243.9 182.39,-214.04 177.42,-199.52"/>
<polygon fill="#9a32cd" stroke="#9a32cd" points="195.98,-264.5 202.53,-272.82 202.6,-262.23 195.98,-264.5"/>
</a>
</g>
<text text-anchor="start" x="194.5" y="-229.5" font-family="Helvetica,sans-Serif" font-size="10.00" fill="grey">tree</text>
</g>
<!-- Node2&#45;&gt;Node2 -->
<g id="edge4_Node000002_Node000002" class="edge">
<title>Node2&#45;&gt;Node2</title>
<g id="a_edge4_Node000002_Node000002"><a xlink:title=" ">
<path fill="none" stroke="#9a32cd" stroke-dasharray="5,2" d="M285.58,-289.04C290.52,-287.5 293.5,-285.32 293.5,-282.5 293.5,-278.11 286.25,-275.26 275.57,-273.95"/>
<polygon fill="#9a32cd" stroke="#9a32cd" points="284.69,-285.65 275.57,-291.05 286.06,-292.52 284.69,-285.65"/>
</a>
</g>
<text text-anchor="start" x="296.5" y="-294.5" font-family="Helvetica,sans-Serif" font-size="10.00" fill="grey">left</text>
<text text-anchor="start" x="296.5" y="-279.5" font-family="Helvetica,sans-Serif" font-size="10.00" fill="grey">parent</text>
<text text-anchor="start" x="296.5" y="-264.5" font-family="Helvetica,sans-Serif" font-size="10.00" fill="grey">right</text>
</g>
<!-- Node3 -->
<g id="Node000003" class="node">
<title>Node3</title>
<g id="a_Node000003"><a xlink:href="structfiftyone_degrees_tree_root.html" target="_top" xlink:title="Tree root structure defining the beginning of the tree.">
<polygon fill="white" stroke="#666666" points="323,-393 186,-393 186,-374 323,-374 323,-393"/>
<text text-anchor="middle" x="254.5" y="-381" font-family="Helvetica,sans-Serif" font-size="10.00">fiftyoneDegreesTreeRoot</text>
</a>
</g>
</g>
<!-- Node2&#45;&gt;Node3 -->
<g id="edge3_Node000003_Node000002" class="edge">
<title>Node2&#45;&gt;Node3</title>
<g id="a_edge3_Node000003_Node000002"><a xlink:title=" ">
<path fill="none" stroke="#9a32cd" stroke-dasharray="5,2" d="M218.25,-300.73C223.09,-307.74 228.42,-316.04 232.5,-324 241.21,-340.99 248.34,-362.27 251.95,-373.91"/>
<polygon fill="#9a32cd" stroke="#9a32cd" points="220.78,-298.25 212.12,-292.15 215.08,-302.32 220.78,-298.25"/>
</a>
</g>
<text text-anchor="start" x="248.5" y="-345" font-family="Helvetica,sans-Serif" font-size="10.00" fill="grey">empty</text>
<text text-anchor="start" x="248.5" y="-330" font-family="Helvetica,sans-Serif" font-size="10.00" fill="grey">root</text>
</g>
<!-- Node3&#45;&gt;Node2 -->
<g id="edge2_Node000002_Node000003" class="edge">
<title>Node3&#45;&gt;Node2</title>
<g id="a_edge2_Node000002_Node000003"><a xlink:title=" ">
<path fill="none" stroke="#9a32cd" stroke-dasharray="5,2" d="M219.15,-368.86C214.12,-365.42 209.6,-361.18 206.5,-356 194.46,-335.92 199.39,-306.75 202.98,-292.29"/>
<polygon fill="#9a32cd" stroke="#9a32cd" points="217.54,-371.98 227.95,-373.94 221.04,-365.91 217.54,-371.98"/>
</a>
</g>
<text text-anchor="start" x="209.5" y="-337" font-family="Helvetica,sans-Serif" font-size="10.00" fill="grey">root</text>
</g>
<!-- Node3&#45;&gt;Node5 -->
<g id="edge11_Node000005_Node000003" class="edge">
<title>Node3&#45;&gt;Node5</title>
<g id="a_edge11_Node000005_Node000003"><a xlink:title=" ">
<path fill="none" stroke="#9a32cd" stroke-dasharray="5,2" d="M279.77,-368.58C300.57,-355.51 328.5,-333.81 340.5,-306 363.74,-252.13 364.33,-227.61 340.5,-174 322.63,-133.79 277.04,-104.7 251.86,-91.11"/>
<polygon fill="#9a32cd" stroke="#9a32cd" points="277.84,-365.65 271.08,-373.81 281.45,-371.65 277.84,-365.65"/>
</a>
</g>
<text text-anchor="start" x="360.5" y="-229.5" font-family="Helvetica,sans-Serif" font-size="10.00" fill="grey">root</text>
</g>
<!-- Node4 -->
<g id="Node000004" class="node">
<title>Node4</title>
<g id="a_Node000004"><a xlink:href="structfiftyone_degrees_data.html" target="_top" xlink:title="Data structure used for reusing memory which may have been allocated in a previous operation.">
<polygon fill="white" stroke="#666666" points="117,-292 0,-292 0,-273 117,-273 117,-292"/>
<text text-anchor="middle" x="58.5" y="-280" font-family="Helvetica,sans-Serif" font-size="10.00">fiftyoneDegreesData</text>
</a>
</g>
</g>
<!-- Node4&#45;&gt;Node1 -->
<g id="edge5_Node000001_Node000004" class="edge">
<title>Node4&#45;&gt;Node1</title>
<g id="a_edge5_Node000001_Node000004"><a xlink:title=" ">
<path fill="none" stroke="#9a32cd" stroke-dasharray="5,2" d="M77.51,-266.67C102.02,-247.55 143.85,-214.92 163.58,-199.52"/>
<polygon fill="#9a32cd" stroke="#9a32cd" points="75.35,-263.91 69.62,-272.82 79.66,-269.43 75.35,-263.91"/>
</a>
</g>
<text text-anchor="start" x="133.5" y="-229.5" font-family="Helvetica,sans-Serif" font-size="10.00" fill="grey">data</text>
</g>
<!-- Node4&#45;&gt;Node6 -->
<g id="edge10_Node000006_Node000004" class="edge">
<title>Node4&#45;&gt;Node6</title>
<g id="a_edge10_Node000006_Node000004"><a xlink:title=" ">
<path fill="none" stroke="#9a32cd" stroke-dasharray="5,2" d="M60.29,-262.73C64.68,-221.05 77.88,-118.02 107.5,-37 109.75,-30.84 113,-24.21 115.69,-19.13"/>
<polygon fill="#9a32cd" stroke="#9a32cd" points="56.79,-262.5 59.28,-272.8 63.76,-263.2 56.79,-262.5"/>
</a>
</g>
<text text-anchor="start" x="89.5" y="-129.5" font-family="Helvetica,sans-Serif" font-size="10.00" fill="grey">load</text>
</g>
<!-- Node5&#45;&gt;Node1 -->
<g id="edge6_Node000001_Node000005" class="edge">
<title>Node5&#45;&gt;Node1</title>
<g id="a_edge6_Node000001_Node000005"><a xlink:title=" ">
<path fill="none" stroke="#9a32cd" stroke-dasharray="5,2" d="M231.86,-101.34C229,-116.96 223.31,-139.25 212.5,-156 206.15,-165.84 196.04,-174.42 187.84,-180.36"/>
<polygon fill="#9a32cd" stroke="#9a32cd" points="235.34,-101.74 233.48,-91.31 228.43,-100.63 235.34,-101.74"/>
</a>
</g>
<text text-anchor="start" x="233.5" y="-129.5" font-family="Helvetica,sans-Serif" font-size="10.00" fill="grey">shard</text>
</g>
<!-- Node5&#45;&gt;Node6 -->
<g id="edge8_Node000006_Node000005" class="edge">
<title>Node5&#45;&gt;Node6</title>
<g id="a_edge8_Node000006_Node000005"><a xlink:title=" ">
<path fill="none" stroke="#9a32cd" stroke-dasharray="5,2" d="M183.9,-68.74C173.63,-65.01 163.29,-60.19 154.5,-54 141.33,-44.73 130.81,-28.89 125.12,-19.1"/>
<polygon fill="#9a32cd" stroke="#9a32cd" points="183.09,-72.16 193.68,-71.99 185.29,-65.51 183.09,-72.16"/>
</a>
</g>
<text text-anchor="start" x="158" y="-42.5" font-family="Helvetica,sans-Serif" font-size="10.00" fill="grey">shards</text>
</g>
<!-- Node6&#45;&gt;Node5 -->
<g id="edge7_Node000005_Node000006" class="edge">
<title>Node6&#45;&gt;Node5</title>
<g id="a_edge7_Node000005_Node000006"><a xlink:title=" ">
<path fill="none" stroke="#9a32cd" stroke-dasharray="5,2" d="M167.79,-22.32C178.08,-26.08 188.56,-30.9 197.5,-37 211.26,-46.39 222.89,-62.19 229.27,-71.94"/>
<polygon fill="#9a32cd" stroke="#9a32cd" points="168.62,-18.91 158.03,-19.03 166.39,-25.54 168.62,-18.91"/>
</a>
</g>
<text text-anchor="start" x="220" y="-42.5" font-family="Helvetica,sans-Serif" font-size="10.00" fill="grey">cache</text>
</g>
</g>
</svg>
