<?xml version="1.0" encoding="UTF-8" standalone="no"?>
<!DOCTYPE svg PUBLIC "-//W3C//DTD SVG 1.1//EN"
 "http://www.w3.org/Graphics/SVG/1.1/DTD/svg11.dtd">
<!-- Generated by graphviz version 2.43.0 (0)
 -->
<!-- Title: fiftyoneDegreesIpiCgArray Pages: 1 -->
<svg width="1119pt" height="260pt"
 viewBox="0.00 0.00 1119.00 260.00" xmlns="http://www.w3.org/2000/svg" xmlns:xlink="http://www.w3.org/1999/xlink">
<g id="graph0" class="graph" transform="scale(1 1) rotate(0) translate(4 256)">
<title>fiftyoneDegreesIpiCgArray</title>
<!-- Node1 -->
<g id="node1" class="node">
<title>Node1</title>
<g id="a_node1"><a xlink:title="An array of all the component graphs and collections available.">
<polygon fill="#bfbfbf" stroke="black" points="966,-135.5 966,-154.5 1111,-154.5 1111,-135.5 966,-135.5"/>
<text text-anchor="middle" x="1038.5" y="-142.5" font-family="Helvetica,sans-Serif" font-size="10.00">fiftyoneDegreesIpiCgArray</text>
</a>
</g>
</g>
<!-- Node2 -->
<g id="node2" class="node">
<title>Node2</title>
<g id="a_node2"><a xlink:href="structfiftyone_degrees_ipi_cg.html" target="_top" xlink:title="The information and a working collection to retrieve entries from the component graph.">
<polygon fill="none" stroke="black" points="757,-135.5 757,-154.5 876,-154.5 876,-135.5 757,-135.5"/>
<text text-anchor="middle" x="816.5" y="-142.5" font-family="Helvetica,sans-Serif" font-size="10.00">fiftyoneDegreesIpiCg</text>
</a>
</g>
</g>
<!-- Node2&#45;&gt;Node1 -->
<g id="edge1" class="edge">
<title>Node2&#45;&gt;Node1</title>
<path fill="none" stroke="#9a32cd" stroke-dasharray="5,2" d="M886.38,-145C911.6,-145 940.18,-145 965.65,-145"/>
<polygon fill="#9a32cd" stroke="#9a32cd" points="886.17,-141.5 876.17,-145 886.17,-148.5 886.17,-141.5"/>
<text text-anchor="middle" x="932.5" y="-148" font-family="Helvetica,sans-Serif" font-size="10.00"> items</text>
</g>
<!-- Node3 -->
<g id="node3" class="node">
<title>Node3</title>
<g id="a_node3"><a xlink:href="structfiftyone_degrees_ipi_cg_info.html" target="_top" xlink:title="Fixed width record in the collection where the record relates to a component and IP version.">
<polygon fill="none" stroke="black" points="506,-169.5 506,-188.5 643,-188.5 643,-169.5 506,-169.5"/>
<text text-anchor="middle" x="574.5" y="-176.5" font-family="Helvetica,sans-Serif" font-size="10.00">fiftyoneDegreesIpiCgInfo</text>
</a>
</g>
</g>
<!-- Node3&#45;&gt;Node2 -->
<g id="edge2" class="edge">
<title>Node3&#45;&gt;Node2</title>
<path fill="none" stroke="#9a32cd" stroke-dasharray="5,2" d="M652.97,-168.03C686.72,-163.24 725.63,-157.73 756.91,-153.3"/>
<polygon fill="#9a32cd" stroke="#9a32cd" points="652.08,-164.62 642.67,-169.48 653.06,-171.55 652.08,-164.62"/>
<text text-anchor="middle" x="690" y="-169" font-family="Helvetica,sans-Serif" font-size="10.00"> info</text>
</g>
<!-- Node4 -->
<g id="node4" class="node">
<title>Node4</title>
<g id="a_node4"><a xlink:href="structfiftyone_degrees_ipi_cg_member_node.html" target="_top" xlink:title="Data structure used for the values collection.">
<polygon fill="none" stroke="black" points="249,-206.5 249,-225.5 434,-225.5 434,-206.5 249,-206.5"/>
<text text-anchor="middle" x="341.5" y="-213.5" font-family="Helvetica,sans-Serif" font-size="10.00">fiftyoneDegreesIpiCgMemberNode</text>
</a>
</g>
</g>
<!-- Node4&#45;&gt;Node3 -->
<g id="edge3" class="edge">
<title>Node4&#45;&gt;Node3</title>
<path fill="none" stroke="#9a32cd" stroke-dasharray="5,2" d="M411.87,-204.89C444.34,-199.69 482.65,-193.55 513.81,-188.56"/>
<polygon fill="#9a32cd" stroke="#9a32cd" points="411.31,-201.43 401.99,-206.47 412.42,-208.35 411.31,-201.43"/>
<text text-anchor="middle" x="468.5" y="-200" font-family="Helvetica,sans-Serif" font-size="10.00"> nodes</text>
</g>
<!-- Node5 -->
<g id="node5" class="node">
<title>Node5</title>
<g id="a_node5"><a xlink:href="structfiftyone_degrees_ipi_cg_member.html" target="_top" xlink:title="DATA STRUCTURES.">
<polygon fill="none" stroke="black" points="0,-212.5 0,-231.5 159,-231.5 159,-212.5 0,-212.5"/>
<text text-anchor="middle" x="79.5" y="-219.5" font-family="Helvetica,sans-Serif" font-size="10.00">fiftyoneDegreesIpiCgMember</text>
</a>
</g>
</g>
<!-- Node5&#45;&gt;Node4 -->
<g id="edge4" class="edge">
<title>Node5&#45;&gt;Node4</title>
<path fill="none" stroke="#9a32cd" stroke-dasharray="5,2" d="M169.29,-219.95C194.95,-219.36 222.99,-218.71 248.81,-218.12"/>
<polygon fill="#9a32cd" stroke="#9a32cd" points="169.13,-216.45 159.21,-220.18 169.29,-223.45 169.13,-216.45"/>
<text text-anchor="middle" x="204" y="-244" font-family="Helvetica,sans-Serif" font-size="10.00"> spanIndex</text>
<text text-anchor="middle" x="204" y="-233" font-family="Helvetica,sans-Serif" font-size="10.00">lowFlag</text>
<text text-anchor="middle" x="204" y="-222" font-family="Helvetica,sans-Serif" font-size="10.00">value</text>
</g>
<!-- Node6 -->
<g id="node6" class="node">
<title>Node6</title>
<g id="a_node6"><a xlink:href="structfiftyone_degrees_collection_header.html" target="_top" xlink:title="Collection header structure which defines the size and location of the collection data.">
<polygon fill="none" stroke="black" points="8,-152 8,-182 151,-182 151,-152 8,-152"/>
<text text-anchor="start" x="16" y="-170" font-family="Helvetica,sans-Serif" font-size="10.00">fiftyoneDegreesCollection</text>
<text text-anchor="middle" x="79.5" y="-159" font-family="Helvetica,sans-Serif" font-size="10.00">Header</text>
</a>
</g>
</g>
<!-- Node6&#45;&gt;Node3 -->
<g id="edge6" class="edge">
<title>Node6&#45;&gt;Node3</title>
<path fill="none" stroke="#9a32cd" stroke-dasharray="5,2" d="M161.63,-163.46C233.32,-161.01 340.69,-159 434,-164 457.47,-165.26 483.07,-167.7 505.86,-170.25"/>
<polygon fill="#9a32cd" stroke="#9a32cd" points="161.19,-159.97 151.32,-163.82 161.43,-166.97 161.19,-159.97"/>
<text text-anchor="middle" x="341.5" y="-189" font-family="Helvetica,sans-Serif" font-size="10.00"> clusters</text>
<text text-anchor="middle" x="341.5" y="-178" font-family="Helvetica,sans-Serif" font-size="10.00">spanBytes</text>
<text text-anchor="middle" x="341.5" y="-167" font-family="Helvetica,sans-Serif" font-size="10.00">spans</text>
</g>
<!-- Node6&#45;&gt;Node4 -->
<g id="edge5" class="edge">
<title>Node6&#45;&gt;Node4</title>
<path fill="none" stroke="#9a32cd" stroke-dasharray="5,2" d="M161.16,-182.2C203.25,-190.13 253.44,-199.59 290.01,-206.48"/>
<polygon fill="#9a32cd" stroke="#9a32cd" points="161.68,-178.74 151.2,-180.32 160.38,-185.62 161.68,-178.74"/>
<text text-anchor="middle" x="204" y="-197" font-family="Helvetica,sans-Serif" font-size="10.00"> collection</text>
</g>
<!-- Node7 -->
<g id="node7" class="node">
<title>Node7</title>
<g id="a_node7"><a xlink:href="structfiftyone_degrees_collection.html" target="_top" xlink:title="All the shared methods and fields required by file, memory and cached collections.">
<polygon fill="none" stroke="black" points="503,-68.5 503,-87.5 646,-87.5 646,-68.5 503,-68.5"/>
<text text-anchor="middle" x="574.5" y="-75.5" font-family="Helvetica,sans-Serif" font-size="10.00">fiftyoneDegreesCollection</text>
</a>
</g>
</g>
<!-- Node7&#45;&gt;Node2 -->
<g id="edge7" class="edge">
<title>Node7&#45;&gt;Node2</title>
<path fill="none" stroke="#9a32cd" stroke-dasharray="5,2" d="M631.07,-89.73C657.03,-95.54 688.26,-103.02 716,-111 741.44,-118.31 769.98,-128.25 789.95,-135.49"/>
<polygon fill="#9a32cd" stroke="#9a32cd" points="631.56,-86.25 621.04,-87.5 630.04,-93.08 631.56,-86.25"/>
<text text-anchor="middle" x="690" y="-147" font-family="Helvetica,sans-Serif" font-size="10.00"> clusters</text>
<text text-anchor="middle" x="690" y="-136" font-family="Helvetica,sans-Serif" font-size="10.00">spanBytes</text>
<text text-anchor="middle" x="690" y="-125" font-family="Helvetica,sans-Serif" font-size="10.00">spans</text>
<text text-anchor="middle" x="690" y="-114" font-family="Helvetica,sans-Serif" font-size="10.00">nodes</text>
</g>
<!-- Node7&#45;&gt;Node7 -->
<g id="edge11" class="edge">
<title>Node7&#45;&gt;Node7</title>
<path fill="none" stroke="#9a32cd" stroke-dasharray="5,2" d="M554.87,-97.4C556.18,-102.31 562.73,-106 574.5,-106 593.34,-106 598.79,-96.57 590.84,-87.76"/>
<polygon fill="#9a32cd" stroke="#9a32cd" points="558.24,-98.35 558.16,-87.76 551.62,-96.09 558.24,-98.35"/>
<text text-anchor="middle" x="574.5" y="-120" font-family="Helvetica,sans-Serif" font-size="10.00"> freeCollection</text>
<text text-anchor="middle" x="574.5" y="-109" font-family="Helvetica,sans-Serif" font-size="10.00">get</text>
</g>
<!-- Node8 -->
<g id="node8" class="node">
<title>Node8</title>
<g id="a_node8"><a xlink:href="structfiftyone_degrees_collection_item.html" target="_top" xlink:title="Used to store a handle to the underlying item that could be used to release the item when it&#39;s finish...">
<polygon fill="none" stroke="black" points="734,-34.5 734,-53.5 899,-53.5 899,-34.5 734,-34.5"/>
<text text-anchor="middle" x="816.5" y="-41.5" font-family="Helvetica,sans-Serif" font-size="10.00">fiftyoneDegreesCollectionItem</text>
</a>
</g>
</g>
<!-- Node7&#45;&gt;Node8 -->
<g id="edge9" class="edge">
<title>Node7&#45;&gt;Node8</title>
<path fill="none" stroke="#9a32cd" stroke-dasharray="5,2" d="M652.92,-67.03C683.66,-62.68 718.69,-57.71 748.34,-53.51"/>
<polygon fill="#9a32cd" stroke="#9a32cd" points="652.08,-63.62 642.67,-68.48 653.06,-70.55 652.08,-63.62"/>
<text text-anchor="middle" x="690" y="-68" font-family="Helvetica,sans-Serif" font-size="10.00"> collection</text>
</g>
<!-- Node8&#45;&gt;Node7 -->
<g id="edge8" class="edge">
<title>Node8&#45;&gt;Node7</title>
<path fill="none" stroke="#9a32cd" stroke-dasharray="5,2" d="M723.41,-39.47C703.69,-39.93 683.06,-41.5 664,-45 639.32,-49.54 612.53,-60.44 594.97,-68.47"/>
<polygon fill="#9a32cd" stroke="#9a32cd" points="723.68,-42.97 733.63,-39.33 723.58,-35.97 723.68,-42.97"/>
<text text-anchor="middle" x="690" y="-48" font-family="Helvetica,sans-Serif" font-size="10.00"> release</text>
</g>
<!-- Node9 -->
<g id="node9" class="node">
<title>Node9</title>
<g id="a_node9"><a xlink:href="structfiftyone_degrees_data.html" target="_top" xlink:title="Data structure used for reusing memory which may have been allocated in a previous operation.">
<polygon fill="none" stroke="black" points="516,-0.5 516,-19.5 633,-19.5 633,-0.5 516,-0.5"/>
<text text-anchor="middle" x="574.5" y="-7.5" font-family="Helvetica,sans-Serif" font-size="10.00">fiftyoneDegreesData</text>
</a>
</g>
</g>
<!-- Node9&#45;&gt;Node8 -->
<g id="edge10" class="edge">
<title>Node9&#45;&gt;Node8</title>
<path fill="none" stroke="#9a32cd" stroke-dasharray="5,2" d="M643.13,-16.08C666.29,-18.47 692.33,-21.48 716,-25 733.57,-27.61 752.76,-31.12 769.56,-34.41"/>
<polygon fill="#9a32cd" stroke="#9a32cd" points="643.36,-12.59 633.06,-15.07 642.66,-19.55 643.36,-12.59"/>
<text text-anchor="middle" x="690" y="-28" font-family="Helvetica,sans-Serif" font-size="10.00"> data</text>
</g>
</g>
</svg>
