<?xml version="1.0" encoding="UTF-8" standalone="no"?>
<!DOCTYPE svg PUBLIC "-//W3C//DTD SVG 1.1//EN"
 "http://www.w3.org/Graphics/SVG/1.1/DTD/svg11.dtd">
<!-- Generated by graphviz version 2.43.0 (0)
 -->
<!-- Title: fiftyoneDegreesTreeNode Pages: 1 -->
<svg width="204pt" height="142pt"
 viewBox="0.00 0.00 204.00 142.00" xmlns="http://www.w3.org/2000/svg" xmlns:xlink="http://www.w3.org/1999/xlink">
<g id="graph0" class="graph" transform="scale(1 1) rotate(0) translate(4 138)">
<title>fiftyoneDegreesTreeNode</title>
<!-- Node1 -->
<g id="Node000001" class="node">
<title>Node1</title>
<g id="a_Node000001"><a xlink:title="Node structure defining a single node in the tree.">
<polygon fill="#999999" stroke="#666666" points="140,-120 0,-120 0,-101 140,-101 140,-120"/>
<text text-anchor="middle" x="70" y="-108" font-family="Helvetica,sans-Serif" font-size="10.00">fiftyoneDegreesTreeNode</text>
</a>
</g>
</g>
<!-- Node1&#45;&gt;Node1 -->
<g id="edge3_Node000001_Node000001" class="edge">
<title>Node1&#45;&gt;Node1</title>
<g id="a_edge3_Node000001_Node000001"><a xlink:title=" ">
<path fill="none" stroke="#9a32cd" stroke-dasharray="5,2" d="M117.61,-120.82C139.23,-121.86 158,-118.42 158,-110.5 158,-101.37 133.03,-98.19 107.53,-100.97"/>
<polygon fill="#9a32cd" stroke="#9a32cd" points="117.78,-117.32 107.53,-120.03 117.23,-124.3 117.78,-117.32"/>
</a>
</g>
<text text-anchor="start" x="161" y="-122.5" font-family="Helvetica,sans-Serif" font-size="10.00" fill="grey">left</text>
<text text-anchor="start" x="161" y="-107.5" font-family="Helvetica,sans-Serif" font-size="10.00" fill="grey">parent</text>
<text text-anchor="start" x="161" y="-92.5" font-family="Helvetica,sans-Serif" font-size="10.00" fill="grey">right</text>
</g>
<!-- Node2 -->
<g id="Node000002" class="node">
<title>Node2</title>
<g id="a_Node000002"><a xlink:href="structfiftyone_degrees_tree_root.html" target="_top" xlink:title="Tree root structure defining the beginning of the tree.">
<polygon fill="white" stroke="#666666" points="138.5,-19 1.5,-19 1.5,0 138.5,0 138.5,-19"/>
<text text-anchor="middle" x="70" y="-7" font-family="Helvetica,sans-Serif" font-size="10.00">fiftyoneDegreesTreeRoot</text>
</a>
</g>
</g>
<!-- Node1&#45;&gt;Node2 -->
<g id="edge2_Node000002_Node000001" class="edge">
<title>Node1&#45;&gt;Node2</title>
<g id="a_edge2_Node000002_Node000001"><a xlink:title=" ">
<path fill="none" stroke="#9a32cd" stroke-dasharray="5,2" d="M52.67,-93.48C46.48,-86.62 40.23,-78.09 37,-69 32.23,-55.6 30.85,-49.82 37,-37 40.56,-29.58 47.32,-23.58 53.8,-19.18"/>
<polygon fill="#9a32cd" stroke="#9a32cd" points="50.25,-96.01 59.74,-100.71 55.25,-91.11 50.25,-96.01"/>
</a>
</g>
<text text-anchor="start" x="40" y="-58" font-family="Helvetica,sans-Serif" font-size="10.00" fill="grey">empty</text>
<text text-anchor="start" x="40" y="-43" font-family="Helvetica,sans-Serif" font-size="10.00" fill="grey">root</text>
</g>
<!-- Node2&#45;&gt;Node1 -->
<g id="edge1_Node000001_Node000002" class="edge">
<title>Node2&#45;&gt;Node1</title>
<g id="a_edge1_Node000001_Node000002"><a xlink:title=" ">
<path fill="none" stroke="#9a32cd" stroke-dasharray="5,2" d="M77.08,-28.84C77.88,-31.54 78.56,-34.32 79,-37 82.8,-60.03 76.49,-87.41 72.64,-100.99"/>
<polygon fill="#9a32cd" stroke="#9a32cd" points="80.31,-27.46 73.74,-19.15 73.7,-29.74 80.31,-27.46"/>
</a>
</g>
<text text-anchor="start" x="83" y="-50" font-family="Helvetica,sans-Serif" font-size="10.00" fill="grey">root</text>
</g>
</g>
</svg>
