<?xml version="1.0" encoding="UTF-8" standalone="no"?>
<!DOCTYPE svg PUBLIC "-//W3C//DTD SVG 1.1//EN"
 "http://www.w3.org/Graphics/SVG/1.1/DTD/svg11.dtd">
<!-- Generated by graphviz version 2.43.0 (0)
 -->
<!-- Title: evidenceFindState Pages: 1 -->
<svg width="165pt" height="182pt"
 viewBox="0.00 0.00 165.00 182.00" xmlns="http://www.w3.org/2000/svg" xmlns:xlink="http://www.w3.org/1999/xlink">
<g id="graph0" class="graph" transform="scale(1 1) rotate(0) translate(4 178)">
<title>evidenceFindState</title>
<!-- Node1 -->
<g id="Node000001" class="node">
<title>Node1</title>
<g id="a_Node000001"><a xlink:title=" ">
<polygon fill="#999999" stroke="#666666" points="132,-19 25,-19 25,0 132,0 132,-19"/>
<text text-anchor="middle" x="78.5" y="-7" font-family="Helvetica,sans-Serif" font-size="10.00">evidenceFindState</text>
</a>
</g>
</g>
<!-- Node2 -->
<g id="Node000002" class="node">
<title>Node2</title>
<g id="a_Node000002"><a xlink:href="structfiftyone_degrees_evidence_key_value_pair.html" target="_top" xlink:title="Evidence key value pair structure which combines the prefix, key and value.">
<polygon fill="white" stroke="#666666" points="156.5,-102 0.5,-102 0.5,-72 156.5,-72 156.5,-102"/>
<text text-anchor="start" x="8.5" y="-90" font-family="Helvetica,sans-Serif" font-size="10.00">fiftyoneDegreesEvidenceKey</text>
<text text-anchor="middle" x="78.5" y="-79" font-family="Helvetica,sans-Serif" font-size="10.00">ValuePair</text>
</a>
</g>
</g>
<!-- Node2&#45;&gt;Node1 -->
<g id="edge1_Node000001_Node000002" class="edge">
<title>Node2&#45;&gt;Node1</title>
<g id="a_edge1_Node000001_Node000002"><a xlink:title=" ">
<path fill="none" stroke="#9a32cd" stroke-dasharray="5,2" d="M78.5,-61.4C78.5,-46.81 78.5,-29.22 78.5,-19.01"/>
<polygon fill="#9a32cd" stroke="#9a32cd" points="75,-61.8 78.5,-71.8 82,-61.8 75,-61.8"/>
</a>
</g>
<text text-anchor="start" x="82" y="-42.5" font-family="Helvetica,sans-Serif" font-size="10.00" fill="grey">pair</text>
</g>
<!-- Node3 -->
<g id="Node000003" class="node">
<title>Node3</title>
<g id="a_Node000003"><a xlink:href="structfiftyone_degrees_key_value_pair.html" target="_top" xlink:title=" ">
<polygon fill="white" stroke="#bfbfbf" points="157,-174 0,-174 0,-155 157,-155 157,-174"/>
<text text-anchor="middle" x="78.5" y="-162" font-family="Helvetica,sans-Serif" font-size="10.00">fiftyoneDegreesKeyValuePair</text>
</a>
</g>
</g>
<!-- Node3&#45;&gt;Node2 -->
<g id="edge2_Node000002_Node000003" class="edge">
<title>Node3&#45;&gt;Node2</title>
<g id="a_edge2_Node000002_Node000003"><a xlink:title=" ">
<path fill="none" stroke="#9a32cd" stroke-dasharray="5,2" d="M78.5,-144.57C78.5,-131.43 78.5,-114.18 78.5,-102.21"/>
<polygon fill="#9a32cd" stroke="#9a32cd" points="75,-144.84 78.5,-154.84 82,-144.84 75,-144.84"/>
</a>
</g>
<text text-anchor="start" x="82" y="-125.5" font-family="Helvetica,sans-Serif" font-size="10.00" fill="grey">item</text>
</g>
</g>
</svg>
