<?xml version="1.0" encoding="UTF-8" standalone="no"?>
<!DOCTYPE svg PUBLIC "-//W3C//DTD SVG 1.1//EN"
 "http://www.w3.org/Graphics/SVG/1.1/DTD/svg11.dtd">
<!-- Generated by graphviz version 2.43.0 (0)
 -->
<!-- Title: Counter Pages: 1 -->
<svg width="264pt" height="173pt"
 viewBox="0.00 0.00 263.50 173.00" xmlns="http://www.w3.org/2000/svg" xmlns:xlink="http://www.w3.org/1999/xlink">
<g id="graph0" class="graph" transform="scale(1 1) rotate(0) translate(4 169)">
<title>Counter</title>
<!-- Node1 -->
<g id="node1" class="node">
<title>Node1</title>
<g id="a_node1"><a xlink:title=" ">
<polygon fill="#bfbfbf" stroke="black" points="0,-0.5 0,-19.5 55,-19.5 55,-0.5 0,-0.5"/>
<text text-anchor="middle" x="27.5" y="-7.5" font-family="Helvetica,sans-Serif" font-size="10.00">Counter</text>
</a>
</g>
</g>
<!-- Node2 -->
<g id="node2" class="node">
<title>Node2</title>
<g id="a_node2"><a xlink:href="structfiftyone_degrees_resource_handle.html" target="_top" xlink:title="Handle for a shared resource.">
<polygon fill="none" stroke="black" points="21,-67.5 21,-86.5 194,-86.5 194,-67.5 21,-67.5"/>
<text text-anchor="middle" x="107.5" y="-74.5" font-family="Helvetica,sans-Serif" font-size="10.00">fiftyoneDegreesResourceHandle</text>
</a>
</g>
</g>
<!-- Node2&#45;&gt;Node1 -->
<g id="edge1" class="edge">
<title>Node2&#45;&gt;Node1</title>
<path fill="none" stroke="#9a32cd" stroke-dasharray="5,2" d="M80.26,-62.4C73.51,-58.49 66.49,-53.93 60.5,-49 49.84,-40.23 39.77,-27.81 33.62,-19.59"/>
<polygon fill="#9a32cd" stroke="#9a32cd" points="78.73,-65.56 89.18,-67.31 82.11,-59.43 78.73,-65.56"/>
<text text-anchor="middle" x="79" y="-41" font-family="Helvetica,sans-Serif" font-size="10.00"> handle</text>
</g>
<!-- Node3 -->
<g id="node3" class="node">
<title>Node3</title>
<g id="a_node3"><a xlink:href="structfiftyone_degrees_resource_manager.html" target="_top" xlink:title="Manager structure used to provide access to a shared and changing resource.">
<polygon fill="none" stroke="black" points="73.5,-0.5 73.5,-19.5 255.5,-19.5 255.5,-0.5 73.5,-0.5"/>
<text text-anchor="middle" x="164.5" y="-7.5" font-family="Helvetica,sans-Serif" font-size="10.00">fiftyoneDegreesResourceManager</text>
</a>
</g>
</g>
<!-- Node2&#45;&gt;Node3 -->
<g id="edge3" class="edge">
<title>Node2&#45;&gt;Node3</title>
<path fill="none" stroke="#9a32cd" stroke-dasharray="5,2" d="M101.55,-57.29C100.57,-50.74 100.86,-43.62 104.5,-38 110.02,-29.46 118.95,-23.6 128.26,-19.58"/>
<polygon fill="#9a32cd" stroke="#9a32cd" points="98.25,-58.53 104.02,-67.42 105.05,-56.87 98.25,-58.53"/>
<text text-anchor="middle" x="121.5" y="-41" font-family="Helvetica,sans-Serif" font-size="10.00"> active</text>
</g>
<!-- Node3&#45;&gt;Node2 -->
<g id="edge2" class="edge">
<title>Node3&#45;&gt;Node2</title>
<path fill="none" stroke="#9a32cd" stroke-dasharray="5,2" d="M156.05,-28.82C152.41,-35.53 147.76,-42.99 142.5,-49 136.33,-56.04 128.09,-62.51 121.16,-67.34"/>
<polygon fill="#9a32cd" stroke="#9a32cd" points="159.24,-30.27 160.64,-19.77 152.99,-27.11 159.24,-30.27"/>
<text text-anchor="middle" x="174" y="-41" font-family="Helvetica,sans-Serif" font-size="10.00"> manager</text>
</g>
<!-- Node4 -->
<g id="node4" class="node">
<title>Node4</title>
<g id="a_node4"><a xlink:href="structfiftyone_degrees_interlock_double_width.html" target="_top" xlink:title="Double width (64 or 128 depending on the architecture) compare and exchange.">
<polygon fill="none" stroke="black" points="39,-134.5 39,-164.5 176,-164.5 176,-134.5 39,-134.5"/>
<text text-anchor="start" x="47" y="-152.5" font-family="Helvetica,sans-Serif" font-size="10.00">fiftyoneDegreesInterlock</text>
<text text-anchor="middle" x="107.5" y="-141.5" font-family="Helvetica,sans-Serif" font-size="10.00">DoubleWidth</text>
</a>
</g>
</g>
<!-- Node4&#45;&gt;Node2 -->
<g id="edge4" class="edge">
<title>Node4&#45;&gt;Node2</title>
<path fill="none" stroke="#9a32cd" stroke-dasharray="5,2" d="M107.5,-124.09C107.5,-111.21 107.5,-96.2 107.5,-86.89"/>
<polygon fill="#9a32cd" stroke="#9a32cd" points="104,-124.23 107.5,-134.23 111,-124.23 104,-124.23"/>
<text text-anchor="middle" x="127.5" y="-108" font-family="Helvetica,sans-Serif" font-size="10.00"> counter</text>
</g>
</g>
</svg>
