<?xml version="1.0" encoding="UTF-8" standalone="no"?>
<!DOCTYPE svg PUBLIC "-//W3C//DTD SVG 1.1//EN"
 "http://www.w3.org/Graphics/SVG/1.1/DTD/svg11.dtd">
<!-- Generated by graphviz version 2.43.0 (0)
 -->
<!-- Title: fiftyoneDegreesCollectionCache Pages: 1 -->
<svg width="854pt" height="363pt"
 viewBox="0.00 0.00 854.00 363.39" xmlns="http://www.w3.org/2000/svg" xmlns:xlink="http://www.w3.org/1999/xlink">
<g id="graph0" class="graph" transform="scale(1 1) rotate(0) translate(4 359.39)">
<title>fiftyoneDegreesCollectionCache</title>
<!-- Node1 -->
<g id="Node000001" class="node">
<title>Node1</title>
<g id="a_Node000001"><a xlink:title="Type of collection where items are cached as they are used.">
<polygon fill="#999999" stroke="#666666" points="620.5,-275.89 477.5,-275.89 477.5,-245.89 620.5,-245.89 620.5,-275.89"/>
<text text-anchor="start" x="485.5" y="-263.89" font-family="Helvetica,sans-Serif" font-size="10.00">fiftyoneDegreesCollection</text>
<text text-anchor="middle" x="549" y="-252.89" font-family="Helvetica,sans-Serif" font-size="10.00">Cache</text>
</a>
</g>
</g>
<!-- Node2 -->
<g id="Node000002" class="node">
<title>Node2</title>
<g id="a_Node000002"><a xlink:href="structfiftyone_degrees_collection.html" target="_top" xlink:title="All the shared methods and fields required by file, memory and cached collections.">
<polygon fill="white" stroke="#666666" points="143,-305.39 0,-305.39 0,-286.39 143,-286.39 143,-305.39"/>
<text text-anchor="middle" x="71.5" y="-293.39" font-family="Helvetica,sans-Serif" font-size="10.00">fiftyoneDegreesCollection</text>
</a>
</g>
</g>
<!-- Node2&#45;&gt;Node1 -->
<g id="edge1_Node000001_Node000002" class="edge">
<title>Node2&#45;&gt;Node1</title>
<g id="a_edge1_Node000001_Node000002"><a xlink:title=" ">
<path fill="none" stroke="#9a32cd" stroke-dasharray="5,2" d="M153.69,-302.57C156.16,-302.69 158.6,-302.8 161,-302.89 271.92,-307.27 399.81,-288.74 477.24,-274.9"/>
<polygon fill="#9a32cd" stroke="#9a32cd" points="153.66,-299.06 143.48,-302 153.27,-306.05 153.66,-299.06"/>
</a>
</g>
<text text-anchor="start" x="299.5" y="-307.39" font-family="Helvetica,sans-Serif" font-size="10.00" fill="grey">source</text>
</g>
<!-- Node2&#45;&gt;Node2 -->
<g id="edge2_Node000002_Node000002" class="edge">
<title>Node2&#45;&gt;Node2</title>
<g id="a_edge2_Node000002_Node000002"><a xlink:title=" ">
<path fill="none" stroke="#9a32cd" stroke-dasharray="5,2" d="M50.02,-314.95C51.45,-319.77 58.61,-323.39 71.5,-323.39 92.12,-323.39 98.08,-314.13 89.38,-305.48"/>
<polygon fill="#9a32cd" stroke="#9a32cd" points="53.34,-316.07 53.62,-305.48 46.8,-313.58 53.34,-316.07"/>
</a>
</g>
<text text-anchor="start" x="37.5" y="-344.39" font-family="Helvetica,sans-Serif" font-size="10.00" fill="grey">freeCollection</text>
<text text-anchor="start" x="37.5" y="-329.39" font-family="Helvetica,sans-Serif" font-size="10.00" fill="grey">get</text>
</g>
<!-- Node3 -->
<g id="Node000003" class="node">
<title>Node3</title>
<g id="a_Node000003"><a xlink:href="structfiftyone_degrees_collection_item.html" target="_top" xlink:title="Used to store a handle to the underlying item that could be used to release the item when it&#39;s finish...">
<polygon fill="white" stroke="#666666" points="398,-265.39 233,-265.39 233,-246.39 398,-246.39 398,-265.39"/>
<text text-anchor="middle" x="315.5" y="-253.39" font-family="Helvetica,sans-Serif" font-size="10.00">fiftyoneDegreesCollectionItem</text>
</a>
</g>
</g>
<!-- Node2&#45;&gt;Node3 -->
<g id="edge5_Node000003_Node000002" class="edge">
<title>Node2&#45;&gt;Node3</title>
<g id="a_edge5_Node000003_Node000002"><a xlink:title=" ">
<path fill="none" stroke="#9a32cd" stroke-dasharray="5,2" d="M95.86,-280.91C113.1,-270.77 137.54,-258.29 161,-252.89 183.99,-247.61 209.43,-246.33 232.88,-246.93"/>
<polygon fill="#9a32cd" stroke="#9a32cd" points="93.81,-278.06 87.07,-286.24 97.44,-284.04 93.81,-278.06"/>
</a>
</g>
<text text-anchor="start" x="164" y="-258.39" font-family="Helvetica,sans-Serif" font-size="10.00" fill="grey">collection</text>
</g>
<!-- Node3&#45;&gt;Node2 -->
<g id="edge3_Node000002_Node000003" class="edge">
<title>Node3&#45;&gt;Node2</title>
<g id="a_edge3_Node000002_Node000003"><a xlink:title=" ">
<path fill="none" stroke="#9a32cd" stroke-dasharray="5,2" d="M253.4,-267.2C240.72,-269.48 227.43,-271.81 215,-273.89 189.32,-278.2 160.99,-282.64 136.4,-286.39"/>
<polygon fill="#9a32cd" stroke="#9a32cd" points="254.19,-270.62 263.41,-265.4 252.95,-263.73 254.19,-270.62"/>
</a>
</g>
<text text-anchor="start" x="170" y="-287.39" font-family="Helvetica,sans-Serif" font-size="10.00" fill="grey">release</text>
</g>
<!-- Node4 -->
<g id="Node000004" class="node">
<title>Node4</title>
<g id="a_Node000004"><a xlink:href="structfiftyone_degrees_data.html" target="_top" xlink:title="Data structure used for reusing memory which may have been allocated in a previous operation.">
<polygon fill="white" stroke="#666666" points="130,-192.39 13,-192.39 13,-173.39 130,-173.39 130,-192.39"/>
<text text-anchor="middle" x="71.5" y="-180.39" font-family="Helvetica,sans-Serif" font-size="10.00">fiftyoneDegreesData</text>
</a>
</g>
</g>
<!-- Node4&#45;&gt;Node3 -->
<g id="edge4_Node000003_Node000004" class="edge">
<title>Node4&#45;&gt;Node3</title>
<g id="a_edge4_Node000003_Node000004"><a xlink:title=" ">
<path fill="none" stroke="#9a32cd" stroke-dasharray="5,2" d="M113.88,-195.38C161.76,-209.82 239.55,-233.29 282.85,-246.35"/>
<polygon fill="#9a32cd" stroke="#9a32cd" points="114.72,-191.98 104.14,-192.44 112.7,-198.68 114.72,-191.98"/>
</a>
</g>
<text text-anchor="start" x="177" y="-228.39" font-family="Helvetica,sans-Serif" font-size="10.00" fill="grey">data</text>
</g>
<!-- Node5 -->
<g id="Node000005" class="node">
<title>Node5</title>
<g id="a_Node000005"><a xlink:href="structfiftyone_degrees_cache.html" target="_top" xlink:title="Cache structure to store the root of the red black tree and a list of allocated cache nodes.">
<polygon fill="white" stroke="#666666" points="377.5,-147.39 253.5,-147.39 253.5,-128.39 377.5,-128.39 377.5,-147.39"/>
<text text-anchor="middle" x="315.5" y="-135.39" font-family="Helvetica,sans-Serif" font-size="10.00">fiftyoneDegreesCache</text>
</a>
</g>
</g>
<!-- Node4&#45;&gt;Node5 -->
<g id="edge19_Node000005_Node000004" class="edge">
<title>Node4&#45;&gt;Node5</title>
<g id="a_edge19_Node000005_Node000004"><a xlink:title=" ">
<path fill="none" stroke="#9a32cd" stroke-dasharray="5,2" d="M104.7,-169.47C121.24,-163.12 141.9,-156.04 161,-151.89 191.07,-145.36 225.1,-141.87 253.47,-140.01"/>
<polygon fill="#9a32cd" stroke="#9a32cd" points="103,-166.37 94.98,-173.29 105.56,-172.89 103,-166.37"/>
</a>
</g>
<text text-anchor="start" x="177" y="-157.39" font-family="Helvetica,sans-Serif" font-size="10.00" fill="grey">load</text>
</g>
<!-- Node9 -->
<g id="Node000009" class="node">
<title>Node9</title>
<g id="a_Node000009"><a xlink:href="structfiftyone_degrees_cache_node.html" target="_top" xlink:title="Cache node structure used for storing data in the cache along with its key.">
<polygon fill="white" stroke="#666666" points="846,-85.39 697,-85.39 697,-66.39 846,-66.39 846,-85.39"/>
<text text-anchor="middle" x="771.5" y="-73.39" font-family="Helvetica,sans-Serif" font-size="10.00">fiftyoneDegreesCacheNode</text>
</a>
</g>
</g>
<!-- Node4&#45;&gt;Node9 -->
<g id="edge15_Node000009_Node000004" class="edge">
<title>Node4&#45;&gt;Node9</title>
<g id="a_edge15_Node000009_Node000004"><a xlink:title=" ">
<path fill="none" stroke="#9a32cd" stroke-dasharray="5,2" d="M140.49,-182.44C277.84,-181.28 579.26,-177.44 625,-165.89 682.02,-151.5 737.88,-105.54 760.26,-85.44"/>
<polygon fill="#9a32cd" stroke="#9a32cd" points="140.07,-178.94 130.1,-182.52 140.12,-185.94 140.07,-178.94"/>
</a>
</g>
<text text-anchor="start" x="424.5" y="-183.39" font-family="Helvetica,sans-Serif" font-size="10.00" fill="grey">data</text>
</g>
<!-- Node5&#45;&gt;Node1 -->
<g id="edge6_Node000001_Node000005" class="edge">
<title>Node5&#45;&gt;Node1</title>
<g id="a_edge6_Node000001_Node000005"><a xlink:title=" ">
<path fill="none" stroke="#9a32cd" stroke-dasharray="5,2" d="M337.47,-153.4C357.15,-167.56 387.71,-188.56 416,-203.89 445.96,-220.13 481.5,-235.26 508.15,-245.84"/>
<polygon fill="#9a32cd" stroke="#9a32cd" points="339.38,-150.46 329.24,-147.42 335.27,-156.13 339.38,-150.46"/>
</a>
</g>
<text text-anchor="start" x="421.5" y="-228.39" font-family="Helvetica,sans-Serif" font-size="10.00" fill="grey">cache</text>
</g>
<!-- Node6 -->
<g id="Node000006" class="node">
<title>Node6</title>
<g id="a_Node000006"><a xlink:href="structfiftyone_degrees_cache_shard.html" target="_top" xlink:title="Cache shard structure used to enable concurrent access to the cache.">
<polygon fill="white" stroke="#666666" points="625,-75.39 473,-75.39 473,-56.39 625,-56.39 625,-75.39"/>
<text text-anchor="middle" x="549" y="-63.39" font-family="Helvetica,sans-Serif" font-size="10.00">fiftyoneDegreesCacheShard</text>
</a>
</g>
</g>
<!-- Node5&#45;&gt;Node6 -->
<g id="edge8_Node000006_Node000005" class="edge">
<title>Node5&#45;&gt;Node6</title>
<g id="a_edge8_Node000006_Node000005"><a xlink:title=" ">
<path fill="none" stroke="#9a32cd" stroke-dasharray="5,2" d="M334.96,-121.83C353.88,-106.43 384.85,-84.08 416,-73.89 433.89,-68.04 453.87,-65.12 472.75,-63.85"/>
<polygon fill="#9a32cd" stroke="#9a32cd" points="332.59,-119.25 327.16,-128.34 337.08,-124.62 332.59,-119.25"/>
</a>
</g>
<text text-anchor="start" x="421.5" y="-79.39" font-family="Helvetica,sans-Serif" font-size="10.00" fill="grey">cache</text>
</g>
<!-- Node6&#45;&gt;Node5 -->
<g id="edge7_Node000005_Node000006" class="edge">
<title>Node6&#45;&gt;Node5</title>
<g id="a_edge7_Node000005_Node000006"><a xlink:title=" ">
<path fill="none" stroke="#9a32cd" stroke-dasharray="5,2" d="M507.75,-78.38C481.61,-86.5 446.78,-97.32 416,-106.89 392.85,-114.1 366.67,-122.25 346.98,-128.39"/>
<polygon fill="#9a32cd" stroke="#9a32cd" points="508.81,-81.72 517.32,-75.41 506.74,-75.04 508.81,-81.72"/>
</a>
</g>
<text text-anchor="start" x="419.5" y="-112.39" font-family="Helvetica,sans-Serif" font-size="10.00" fill="grey">shards</text>
</g>
<!-- Node6&#45;&gt;Node9 -->
<g id="edge16_Node000009_Node000006" class="edge">
<title>Node6&#45;&gt;Node9</title>
<g id="a_edge16_Node000009_Node000006"><a xlink:title=" ">
<path fill="none" stroke="#9a32cd" stroke-dasharray="5,2" d="M593.63,-54.17C618.64,-48.94 650.61,-44.79 679,-48.89 701.95,-52.21 727.16,-59.97 745.3,-66.33"/>
<polygon fill="#9a32cd" stroke="#9a32cd" points="592.71,-50.79 583.71,-56.37 594.23,-57.62 592.71,-50.79"/>
</a>
</g>
<text text-anchor="start" x="647" y="-54.39" font-family="Helvetica,sans-Serif" font-size="10.00" fill="grey">shard</text>
</g>
<!-- Node7 -->
<g id="Node000007" class="node">
<title>Node7</title>
<g id="a_Node000007"><a xlink:href="structfiftyone_degrees_tree_root.html" target="_top" xlink:title="Tree root structure defining the beginning of the tree.">
<polygon fill="white" stroke="#666666" points="384,-35.39 247,-35.39 247,-16.39 384,-16.39 384,-35.39"/>
<text text-anchor="middle" x="315.5" y="-23.39" font-family="Helvetica,sans-Serif" font-size="10.00">fiftyoneDegreesTreeRoot</text>
</a>
</g>
</g>
<!-- Node7&#45;&gt;Node6 -->
<g id="edge9_Node000006_Node000007" class="edge">
<title>Node7&#45;&gt;Node6</title>
<g id="a_edge9_Node000006_Node000007"><a xlink:title=" ">
<path fill="none" stroke="#9a32cd" stroke-dasharray="5,2" d="M394.57,-21.16C414.44,-21.4 435.64,-22.93 455,-26.89 482.79,-32.59 512.65,-46.69 530.83,-56.28"/>
<polygon fill="#9a32cd" stroke="#9a32cd" points="394.33,-17.66 384.32,-21.15 394.32,-24.66 394.33,-17.66"/>
</a>
</g>
<text text-anchor="start" x="425.5" y="-32.39" font-family="Helvetica,sans-Serif" font-size="10.00" fill="grey">root</text>
</g>
<!-- Node8 -->
<g id="Node000008" class="node">
<title>Node8</title>
<g id="a_Node000008"><a xlink:href="structfiftyone_degrees_tree_node.html" target="_top" xlink:title="Node structure defining a single node in the tree.">
<polygon fill="white" stroke="#666666" points="141.5,-28.39 1.5,-28.39 1.5,-9.39 141.5,-9.39 141.5,-28.39"/>
<text text-anchor="middle" x="71.5" y="-16.39" font-family="Helvetica,sans-Serif" font-size="10.00">fiftyoneDegreesTreeNode</text>
</a>
</g>
</g>
<!-- Node7&#45;&gt;Node8 -->
<g id="edge11_Node000008_Node000007" class="edge">
<title>Node7&#45;&gt;Node8</title>
<g id="a_edge11_Node000008_Node000007"><a xlink:title=" ">
<path fill="none" stroke="#9a32cd" stroke-dasharray="5,2" d="M236.83,-17.33C229.46,-16.75 222.09,-16.25 215,-15.89 191.03,-14.69 185,-15.49 161,-15.89 154.7,-16 148.14,-16.15 141.58,-16.33"/>
<polygon fill="#9a32cd" stroke="#9a32cd" points="236.6,-20.82 246.86,-18.18 237.19,-13.85 236.6,-20.82"/>
</a>
</g>
<text text-anchor="start" x="178" y="-21.39" font-family="Helvetica,sans-Serif" font-size="10.00" fill="grey">root</text>
</g>
<!-- Node8&#45;&gt;Node7 -->
<g id="edge10_Node000007_Node000008" class="edge">
<title>Node8&#45;&gt;Node7</title>
<g id="a_edge10_Node000007_Node000008"><a xlink:title=" ">
<path fill="none" stroke="#9a32cd" stroke-dasharray="5,2" d="M121.09,-30.6C133.98,-33.2 147.95,-35.58 161,-36.89 190.24,-39.84 222.69,-38.22 250.2,-35.42"/>
<polygon fill="#9a32cd" stroke="#9a32cd" points="121.52,-27.11 111.01,-28.48 120.08,-33.96 121.52,-27.11"/>
</a>
</g>
<text text-anchor="start" x="172" y="-58.89" font-family="Helvetica,sans-Serif" font-size="10.00" fill="grey">empty</text>
<text text-anchor="start" x="172" y="-43.89" font-family="Helvetica,sans-Serif" font-size="10.00" fill="grey">root</text>
</g>
<!-- Node8&#45;&gt;Node8 -->
<g id="edge12_Node000008_Node000008" class="edge">
<title>Node8&#45;&gt;Node8</title>
<g id="a_edge12_Node000008_Node000008"><a xlink:title=" ">
<path fill="none" stroke="#9a32cd" stroke-dasharray="5,2" d="M50.02,-37.95C51.45,-42.77 58.61,-46.39 71.5,-46.39 92.12,-46.39 98.08,-37.13 89.38,-28.48"/>
<polygon fill="#9a32cd" stroke="#9a32cd" points="53.34,-39.07 53.62,-28.48 46.8,-36.58 53.34,-39.07"/>
</a>
</g>
<text text-anchor="start" x="55.5" y="-81.89" font-family="Helvetica,sans-Serif" font-size="10.00" fill="grey">left</text>
<text text-anchor="start" x="55.5" y="-66.89" font-family="Helvetica,sans-Serif" font-size="10.00" fill="grey">parent</text>
<text text-anchor="start" x="55.5" y="-51.89" font-family="Helvetica,sans-Serif" font-size="10.00" fill="grey">right</text>
</g>
<!-- Node8&#45;&gt;Node9 -->
<g id="edge14_Node000009_Node000008" class="edge">
<title>Node8&#45;&gt;Node9</title>
<g id="a_edge14_Node000009_Node000008"><a xlink:title=" ">
<path fill="none" stroke="#9a32cd" stroke-dasharray="5,2" d="M151.72,-12.14C177.61,-10.16 206.51,-8.18 233,-6.89 431.63,2.71 487,8.92 679,-42.89 702.64,-49.27 728.86,-59.01 747.14,-66.26"/>
<polygon fill="#9a32cd" stroke="#9a32cd" points="151.28,-8.66 141.58,-12.93 151.82,-15.64 151.28,-8.66"/>
</a>
</g>
<text text-anchor="start" x="425.5" y="-7.39" font-family="Helvetica,sans-Serif" font-size="10.00" fill="grey">tree</text>
</g>
<!-- Node9&#45;&gt;Node5 -->
<g id="edge18_Node000005_Node000009" class="edge">
<title>Node9&#45;&gt;Node5</title>
<g id="a_edge18_Node000005_Node000009"><a xlink:title=" ">
<path fill="none" stroke="#9a32cd" stroke-dasharray="5,2" d="M747.79,-90.72C729.9,-101.54 703.91,-115.4 679,-121.89 575.83,-148.79 450.63,-147.11 377.62,-142.89"/>
<polygon fill="#9a32cd" stroke="#9a32cd" points="749.72,-93.65 756.36,-85.4 746.02,-87.71 749.72,-93.65"/>
</a>
</g>
<text text-anchor="start" x="534" y="-150.39" font-family="Helvetica,sans-Serif" font-size="10.00" fill="grey">nodes</text>
</g>
<!-- Node9&#45;&gt;Node6 -->
<g id="edge13_Node000006_Node000009" class="edge">
<title>Node9&#45;&gt;Node6</title>
<g id="a_edge13_Node000006_Node000009"><a xlink:title=" ">
<path fill="none" stroke="#9a32cd" stroke-dasharray="5,2" d="M686.59,-72.09C666.43,-71.17 645.01,-70.2 625.27,-69.31"/>
<polygon fill="#9a32cd" stroke="#9a32cd" points="686.54,-75.59 696.69,-72.55 686.86,-68.6 686.54,-75.59"/>
</a>
</g>
<text text-anchor="start" x="646" y="-106.39" font-family="Helvetica,sans-Serif" font-size="10.00" fill="grey">first</text>
<text text-anchor="start" x="646" y="-91.39" font-family="Helvetica,sans-Serif" font-size="10.00" fill="grey">last</text>
<text text-anchor="start" x="646" y="-76.39" font-family="Helvetica,sans-Serif" font-size="10.00" fill="grey">nodes</text>
</g>
<!-- Node9&#45;&gt;Node9 -->
<g id="edge17_Node000009_Node000009" class="edge">
<title>Node9&#45;&gt;Node9</title>
<g id="a_edge17_Node000009_Node000009"><a xlink:title=" ">
<path fill="none" stroke="#9a32cd" stroke-dasharray="5,2" d="M751.13,-94.95C752.49,-99.77 759.28,-103.39 771.5,-103.39 791.05,-103.39 796.7,-94.13 788.45,-85.48"/>
<polygon fill="#9a32cd" stroke="#9a32cd" points="754.45,-96.07 754.55,-85.48 747.86,-93.7 754.45,-96.07"/>
</a>
</g>
<text text-anchor="start" x="742.5" y="-124.39" font-family="Helvetica,sans-Serif" font-size="10.00" fill="grey">listNext</text>
<text text-anchor="start" x="742.5" y="-109.39" font-family="Helvetica,sans-Serif" font-size="10.00" fill="grey">listPrevious</text>
</g>
</g>
</svg>
