<?xml version="1.0" encoding="UTF-8" standalone="no"?>
<!DOCTYPE svg PUBLIC "-//W3C//DTD SVG 1.1//EN"
 "http://www.w3.org/Graphics/SVG/1.1/DTD/svg11.dtd">
<!-- Generated by graphviz version 2.43.0 (0)
 -->
<!-- Title: fiftyoneDegreesCacheShard Pages: 1 -->
<svg width="396pt" height="401pt"
 viewBox="0.00 0.00 395.50 401.00" xmlns="http://www.w3.org/2000/svg" xmlns:xlink="http://www.w3.org/1999/xlink">
<g id="graph0" class="graph" transform="scale(1 1) rotate(0) translate(4 397)">
<title>fiftyoneDegreesCacheShard</title>
<!-- Node1 -->
<g id="Node000001" class="node">
<title>Node1</title>
<g id="a_Node000001"><a xlink:title="Cache shard structure used to enable concurrent access to the cache.">
<polygon fill="#999999" stroke="#666666" points="152,-206 0,-206 0,-187 152,-187 152,-206"/>
<text text-anchor="middle" x="76" y="-194" font-family="Helvetica,sans-Serif" font-size="10.00">fiftyoneDegreesCacheShard</text>
</a>
</g>
</g>
<!-- Node2 -->
<g id="Node000002" class="node">
<title>Node2</title>
<g id="a_Node000002"><a xlink:href="structfiftyone_degrees_cache.html" target="_top" xlink:title="Cache structure to store the root of the red black tree and a list of allocated cache nodes.">
<polygon fill="white" stroke="#666666" points="145,-19 21,-19 21,0 145,0 145,-19"/>
<text text-anchor="middle" x="83" y="-7" font-family="Helvetica,sans-Serif" font-size="10.00">fiftyoneDegreesCache</text>
</a>
</g>
</g>
<!-- Node1&#45;&gt;Node2 -->
<g id="edge2_Node000002_Node000001" class="edge">
<title>Node1&#45;&gt;Node2</title>
<g id="a_edge2_Node000002_Node000001"><a xlink:title=" ">
<path fill="none" stroke="#9a32cd" stroke-dasharray="5,2" d="M56.54,-180.04C30.03,-156.98 -12.09,-112 7,-72 18.92,-47.03 46.47,-28.93 64.91,-19.07"/>
<polygon fill="#9a32cd" stroke="#9a32cd" points="54.59,-182.97 64.5,-186.72 59.09,-177.61 54.59,-182.97"/>
</a>
</g>
<text text-anchor="start" x="10.5" y="-85" font-family="Helvetica,sans-Serif" font-size="10.00" fill="grey">shards</text>
</g>
<!-- Node3 -->
<g id="Node000003" class="node">
<title>Node3</title>
<g id="a_Node000003"><a xlink:href="structfiftyone_degrees_cache_node.html" target="_top" xlink:title="Cache node structure used for storing data in the cache along with its key.">
<polygon fill="white" stroke="#666666" points="244.5,-97.5 95.5,-97.5 95.5,-78.5 244.5,-78.5 244.5,-97.5"/>
<text text-anchor="middle" x="170" y="-85.5" font-family="Helvetica,sans-Serif" font-size="10.00">fiftyoneDegreesCacheNode</text>
</a>
</g>
</g>
<!-- Node1&#45;&gt;Node3 -->
<g id="edge9_Node000003_Node000001" class="edge">
<title>Node1&#45;&gt;Node3</title>
<g id="a_edge9_Node000003_Node000001"><a xlink:title=" ">
<path fill="none" stroke="#9a32cd" stroke-dasharray="5,2" d="M70.82,-177.01C67.49,-160.95 65.65,-137.85 77,-122 85.48,-110.16 98.58,-102.55 112.3,-97.66"/>
<polygon fill="#9a32cd" stroke="#9a32cd" points="67.44,-177.94 73.22,-186.83 74.24,-176.28 67.44,-177.94"/>
</a>
</g>
<text text-anchor="start" x="80" y="-142.5" font-family="Helvetica,sans-Serif" font-size="10.00" fill="grey">shard</text>
</g>
<!-- Node2&#45;&gt;Node1 -->
<g id="edge1_Node000001_Node000002" class="edge">
<title>Node2&#45;&gt;Node1</title>
<g id="a_edge1_Node000001_Node000002"><a xlink:title=" ">
<path fill="none" stroke="#9a32cd" stroke-dasharray="5,2" d="M71.42,-27.96C64.27,-39.83 55.76,-56.19 52,-72 41.84,-114.71 62.43,-166.49 71.75,-186.76"/>
<polygon fill="#9a32cd" stroke="#9a32cd" points="74.6,-29.48 76.98,-19.16 68.68,-25.75 74.6,-29.48"/>
</a>
</g>
<text text-anchor="start" x="55.5" y="-85" font-family="Helvetica,sans-Serif" font-size="10.00" fill="grey">cache</text>
</g>
<!-- Node3&#45;&gt;Node1 -->
<g id="edge13_Node000001_Node000003" class="edge">
<title>Node3&#45;&gt;Node1</title>
<g id="a_edge13_Node000001_Node000003"><a xlink:title=" ">
<path fill="none" stroke="#9a32cd" stroke-dasharray="5,2" d="M150.89,-104.11C145.01,-109.36 138.82,-115.56 134,-122 120.07,-140.63 125.78,-151.05 111,-169 105.19,-176.06 97.13,-182.32 90.22,-186.99"/>
<polygon fill="#9a32cd" stroke="#9a32cd" points="153.21,-106.73 158.57,-97.6 148.68,-101.39 153.21,-106.73"/>
</a>
</g>
<text text-anchor="start" x="137" y="-157.5" font-family="Helvetica,sans-Serif" font-size="10.00" fill="grey">first</text>
<text text-anchor="start" x="137" y="-142.5" font-family="Helvetica,sans-Serif" font-size="10.00" fill="grey">last</text>
<text text-anchor="start" x="137" y="-127.5" font-family="Helvetica,sans-Serif" font-size="10.00" fill="grey">nodes</text>
</g>
<!-- Node3&#45;&gt;Node2 -->
<g id="edge3_Node000002_Node000003" class="edge">
<title>Node3&#45;&gt;Node2</title>
<g id="a_edge3_Node000002_Node000003"><a xlink:title=" ">
<path fill="none" stroke="#9a32cd" stroke-dasharray="5,2" d="M152.03,-71.2C134.1,-55.44 107.22,-31.8 92.86,-19.17"/>
<polygon fill="#9a32cd" stroke="#9a32cd" points="150.2,-74.25 160.02,-78.22 154.82,-68.99 150.2,-74.25"/>
</a>
</g>
<text text-anchor="start" x="135" y="-42.5" font-family="Helvetica,sans-Serif" font-size="10.00" fill="grey">nodes</text>
</g>
<!-- Node3&#45;&gt;Node3 -->
<g id="edge10_Node000003_Node000003" class="edge">
<title>Node3&#45;&gt;Node3</title>
<g id="a_edge10_Node000003_Node000003"><a xlink:title=" ">
<path fill="none" stroke="#9a32cd" stroke-dasharray="5,2" d="M254.69,-93.36C259.58,-92.07 262.5,-90.29 262.5,-88 262.5,-84.43 255.38,-82.08 244.76,-80.93"/>
<polygon fill="#9a32cd" stroke="#9a32cd" points="254.03,-89.93 244.76,-95.07 255.21,-96.83 254.03,-89.93"/>
</a>
</g>
<text text-anchor="start" x="265.5" y="-93" font-family="Helvetica,sans-Serif" font-size="10.00" fill="grey">listNext</text>
<text text-anchor="start" x="265.5" y="-78" font-family="Helvetica,sans-Serif" font-size="10.00" fill="grey">listPrevious</text>
</g>
<!-- Node4 -->
<g id="Node000004" class="node">
<title>Node4</title>
<g id="a_Node000004"><a xlink:href="structfiftyone_degrees_tree_node.html" target="_top" xlink:title="Node structure defining a single node in the tree.">
<polygon fill="white" stroke="#666666" points="212,-379 72,-379 72,-360 212,-360 212,-379"/>
<text text-anchor="middle" x="142" y="-367" font-family="Helvetica,sans-Serif" font-size="10.00">fiftyoneDegreesTreeNode</text>
</a>
</g>
</g>
<!-- Node4&#45;&gt;Node3 -->
<g id="edge4_Node000003_Node000004" class="edge">
<title>Node4&#45;&gt;Node3</title>
<g id="a_edge4_Node000003_Node000004"><a xlink:title=" ">
<path fill="none" stroke="#9a32cd" stroke-dasharray="5,2" d="M154.23,-351.28C158.46,-344.38 162.71,-336.13 165,-328 189.37,-241.3 176.02,-129.86 171.38,-97.91"/>
<polygon fill="#9a32cd" stroke="#9a32cd" points="151.24,-349.46 148.66,-359.74 157.08,-353.31 151.24,-349.46"/>
</a>
</g>
<text text-anchor="start" x="182" y="-229.5" font-family="Helvetica,sans-Serif" font-size="10.00" fill="grey">tree</text>
</g>
<!-- Node4&#45;&gt;Node4 -->
<g id="edge7_Node000004_Node000004" class="edge">
<title>Node4&#45;&gt;Node4</title>
<g id="a_edge7_Node000004_Node000004"><a xlink:title=" ">
<path fill="none" stroke="#9a32cd" stroke-dasharray="5,2" d="M189.61,-379.82C211.23,-380.86 230,-377.42 230,-369.5 230,-360.37 205.03,-357.19 179.53,-359.97"/>
<polygon fill="#9a32cd" stroke="#9a32cd" points="189.78,-376.32 179.53,-379.03 189.23,-383.3 189.78,-376.32"/>
</a>
</g>
<text text-anchor="start" x="233" y="-381.5" font-family="Helvetica,sans-Serif" font-size="10.00" fill="grey">left</text>
<text text-anchor="start" x="233" y="-366.5" font-family="Helvetica,sans-Serif" font-size="10.00" fill="grey">parent</text>
<text text-anchor="start" x="233" y="-351.5" font-family="Helvetica,sans-Serif" font-size="10.00" fill="grey">right</text>
</g>
<!-- Node5 -->
<g id="Node000005" class="node">
<title>Node5</title>
<g id="a_Node000005"><a xlink:href="structfiftyone_degrees_tree_root.html" target="_top" xlink:title="Tree root structure defining the beginning of the tree.">
<polygon fill="white" stroke="#666666" points="149.5,-278 12.5,-278 12.5,-259 149.5,-259 149.5,-278"/>
<text text-anchor="middle" x="81" y="-266" font-family="Helvetica,sans-Serif" font-size="10.00">fiftyoneDegreesTreeRoot</text>
</a>
</g>
</g>
<!-- Node4&#45;&gt;Node5 -->
<g id="edge6_Node000005_Node000004" class="edge">
<title>Node4&#45;&gt;Node5</title>
<g id="a_edge6_Node000005_Node000004"><a xlink:title=" ">
<path fill="none" stroke="#9a32cd" stroke-dasharray="5,2" d="M108.13,-355.32C96.43,-348.94 84.61,-340 78,-328 69.27,-312.14 74.13,-290.05 77.9,-278.07"/>
<polygon fill="#9a32cd" stroke="#9a32cd" points="106.88,-358.6 117.39,-359.9 109.98,-352.33 106.88,-358.6"/>
</a>
</g>
<text text-anchor="start" x="81" y="-317" font-family="Helvetica,sans-Serif" font-size="10.00" fill="grey">empty</text>
<text text-anchor="start" x="81" y="-302" font-family="Helvetica,sans-Serif" font-size="10.00" fill="grey">root</text>
</g>
<!-- Node5&#45;&gt;Node1 -->
<g id="edge12_Node000001_Node000005" class="edge">
<title>Node5&#45;&gt;Node1</title>
<g id="a_edge12_Node000001_Node000005"><a xlink:title=" ">
<path fill="none" stroke="#9a32cd" stroke-dasharray="5,2" d="M79.65,-248.58C78.66,-234.76 77.37,-216.68 76.62,-206.15"/>
<polygon fill="#9a32cd" stroke="#9a32cd" points="76.18,-249.19 80.39,-258.92 83.17,-248.69 76.18,-249.19"/>
</a>
</g>
<text text-anchor="start" x="83" y="-229.5" font-family="Helvetica,sans-Serif" font-size="10.00" fill="grey">root</text>
</g>
<!-- Node5&#45;&gt;Node4 -->
<g id="edge5_Node000004_Node000005" class="edge">
<title>Node5&#45;&gt;Node4</title>
<g id="a_edge5_Node000004_Node000005"><a xlink:title=" ">
<path fill="none" stroke="#9a32cd" stroke-dasharray="5,2" d="M107.47,-283.83C112.15,-287.31 116.6,-291.38 120,-296 134.5,-315.71 139.54,-345.05 141.22,-359.62"/>
<polygon fill="#9a32cd" stroke="#9a32cd" points="109.25,-280.81 98.98,-278.21 105.39,-286.65 109.25,-280.81"/>
</a>
</g>
<text text-anchor="start" x="138" y="-309" font-family="Helvetica,sans-Serif" font-size="10.00" fill="grey">root</text>
</g>
<!-- Node6 -->
<g id="Node000006" class="node">
<title>Node6</title>
<g id="a_Node000006"><a xlink:href="structfiftyone_degrees_data.html" target="_top" xlink:title="Data structure used for reusing memory which may have been allocated in a previous operation.">
<polygon fill="white" stroke="#666666" points="387.5,-206 270.5,-206 270.5,-187 387.5,-187 387.5,-206"/>
<text text-anchor="middle" x="329" y="-194" font-family="Helvetica,sans-Serif" font-size="10.00">fiftyoneDegreesData</text>
</a>
</g>
</g>
<!-- Node6&#45;&gt;Node2 -->
<g id="edge11_Node000002_Node000006" class="edge">
<title>Node6&#45;&gt;Node2</title>
<g id="a_edge11_Node000002_Node000006"><a xlink:title=" ">
<path fill="none" stroke="#9a32cd" stroke-dasharray="5,2" d="M336.77,-177.42C346.7,-151.2 359.91,-102.42 336,-72 312.67,-42.33 212.12,-25.2 145.02,-16.87"/>
<polygon fill="#9a32cd" stroke="#9a32cd" points="333.46,-176.29 332.96,-186.87 339.95,-178.9 333.46,-176.29"/>
</a>
</g>
<text text-anchor="start" x="351" y="-85" font-family="Helvetica,sans-Serif" font-size="10.00" fill="grey">load</text>
</g>
<!-- Node6&#45;&gt;Node3 -->
<g id="edge8_Node000003_Node000006" class="edge">
<title>Node6&#45;&gt;Node3</title>
<g id="a_edge8_Node000003_Node000006"><a xlink:title=" ">
<path fill="none" stroke="#9a32cd" stroke-dasharray="5,2" d="M307.66,-181.21C274.12,-158.74 210.07,-115.84 182.8,-97.58"/>
<polygon fill="#9a32cd" stroke="#9a32cd" points="306,-184.31 316.26,-186.96 309.9,-178.49 306,-184.31"/>
</a>
</g>
<text text-anchor="start" x="289" y="-142.5" font-family="Helvetica,sans-Serif" font-size="10.00" fill="grey">data</text>
</g>
</g>
</svg>
