<?xml version="1.0" encoding="UTF-8" standalone="no"?>
<!DOCTYPE svg PUBLIC "-//W3C//DTD SVG 1.1//EN"
 "http://www.w3.org/Graphics/SVG/1.1/DTD/svg11.dtd">
<!-- Generated by graphviz version 2.43.0 (0)
 -->
<!-- Title: fiftyoneDegreesPropertiesRequired Pages: 1 -->
<svg width="453pt" height="361pt"
 viewBox="0.00 0.00 452.50 361.00" xmlns="http://www.w3.org/2000/svg" xmlns:xlink="http://www.w3.org/1999/xlink">
<g id="graph0" class="graph" transform="scale(1 1) rotate(0) translate(4 357)">
<title>fiftyoneDegreesPropertiesRequired</title>
<!-- Node1 -->
<g id="Node000001" class="node">
<title>Node1</title>
<g id="a_Node000001"><a xlink:title="Defines a set of properties which are required by a caller.">
<polygon fill="#999999" stroke="#666666" points="416,-30 273,-30 273,0 416,0 416,-30"/>
<text text-anchor="start" x="281" y="-18" font-family="Helvetica,sans-Serif" font-size="10.00">fiftyoneDegreesProperties</text>
<text text-anchor="middle" x="344.5" y="-7" font-family="Helvetica,sans-Serif" font-size="10.00">Required</text>
</a>
</g>
</g>
<!-- Node2 -->
<g id="Node000002" class="node">
<title>Node2</title>
<g id="a_Node000002"><a xlink:href="structfiftyone_degrees_property_available_array.html" target="_top" xlink:title="Array of items of type fiftyoneDegreesPropertyAvailable used to easily access and track the size of t...">
<polygon fill="white" stroke="#666666" points="434.5,-113 254.5,-113 254.5,-83 434.5,-83 434.5,-113"/>
<text text-anchor="start" x="262.5" y="-101" font-family="Helvetica,sans-Serif" font-size="10.00">fiftyoneDegreesPropertyAvailable</text>
<text text-anchor="middle" x="344.5" y="-90" font-family="Helvetica,sans-Serif" font-size="10.00">Array</text>
</a>
</g>
</g>
<!-- Node2&#45;&gt;Node1 -->
<g id="edge1_Node000001_Node000002" class="edge">
<title>Node2&#45;&gt;Node1</title>
<g id="a_edge1_Node000001_Node000002"><a xlink:title=" ">
<path fill="none" stroke="#9a32cd" stroke-dasharray="5,2" d="M344.5,-72.59C344.5,-58.75 344.5,-41.91 344.5,-30.22"/>
<polygon fill="#9a32cd" stroke="#9a32cd" points="341,-72.89 344.5,-82.89 348,-72.89 341,-72.89"/>
</a>
</g>
<text text-anchor="start" x="347.5" y="-53.5" font-family="Helvetica,sans-Serif" font-size="10.00" fill="grey">existing</text>
</g>
<!-- Node3 -->
<g id="Node000003" class="node">
<title>Node3</title>
<g id="a_Node000003"><a xlink:href="structfiftyone_degrees_property_available.html" target="_top" xlink:title="Used to access the property item quickly without the need to search.">
<polygon fill="white" stroke="#666666" points="434.5,-191.5 254.5,-191.5 254.5,-172.5 434.5,-172.5 434.5,-191.5"/>
<text text-anchor="middle" x="344.5" y="-179.5" font-family="Helvetica,sans-Serif" font-size="10.00">fiftyoneDegreesPropertyAvailable</text>
</a>
</g>
</g>
<!-- Node3&#45;&gt;Node2 -->
<g id="edge2_Node000002_Node000003" class="edge">
<title>Node3&#45;&gt;Node2</title>
<g id="a_edge2_Node000002_Node000003"><a xlink:title=" ">
<path fill="none" stroke="#9a32cd" stroke-dasharray="5,2" d="M344.5,-162.11C344.5,-147.2 344.5,-126.72 344.5,-113.18"/>
<polygon fill="#9a32cd" stroke="#9a32cd" points="341,-162.22 344.5,-172.22 348,-162.22 341,-162.22"/>
</a>
</g>
<text text-anchor="start" x="347.5" y="-136.5" font-family="Helvetica,sans-Serif" font-size="10.00" fill="grey">items</text>
</g>
<!-- Node4 -->
<g id="Node000004" class="node">
<title>Node4</title>
<g id="a_Node000004"><a xlink:href="structfiftyone_degrees_collection_item.html" target="_top" xlink:title="Used to store a handle to the underlying item that could be used to release the item when it&#39;s finish...">
<polygon fill="white" stroke="#666666" points="220,-275.5 55,-275.5 55,-256.5 220,-256.5 220,-275.5"/>
<text text-anchor="middle" x="137.5" y="-263.5" font-family="Helvetica,sans-Serif" font-size="10.00">fiftyoneDegreesCollectionItem</text>
</a>
</g>
</g>
<!-- Node4&#45;&gt;Node3 -->
<g id="edge3_Node000003_Node000004" class="edge">
<title>Node4&#45;&gt;Node3</title>
<g id="a_edge3_Node000003_Node000004"><a xlink:title=" ">
<path fill="none" stroke="#9a32cd" stroke-dasharray="5,2" d="M168.56,-252.69C211.07,-235.86 286.25,-206.07 323.03,-191.5"/>
<polygon fill="#9a32cd" stroke="#9a32cd" points="167.27,-249.44 159.26,-256.38 169.85,-255.95 167.27,-249.44"/>
</a>
</g>
<text text-anchor="start" x="263.5" y="-221.5" font-family="Helvetica,sans-Serif" font-size="10.00" fill="grey">name</text>
</g>
<!-- Node6 -->
<g id="Node000006" class="node">
<title>Node6</title>
<g id="a_Node000006"><a xlink:href="structfiftyone_degrees_collection.html" target="_top" xlink:title="All the shared methods and fields required by file, memory and cached collections.">
<polygon fill="white" stroke="#666666" points="143,-191.5 0,-191.5 0,-172.5 143,-172.5 143,-191.5"/>
<text text-anchor="middle" x="71.5" y="-179.5" font-family="Helvetica,sans-Serif" font-size="10.00">fiftyoneDegreesCollection</text>
</a>
</g>
</g>
<!-- Node4&#45;&gt;Node6 -->
<g id="edge7_Node000006_Node000004" class="edge">
<title>Node4&#45;&gt;Node6</title>
<g id="a_edge7_Node000006_Node000004"><a xlink:title=" ">
<path fill="none" stroke="#9a32cd" stroke-dasharray="5,2" d="M90.78,-252.14C81.95,-247.54 73.83,-241.34 68.5,-233 60.45,-220.39 64.57,-202.16 68.14,-191.55"/>
<polygon fill="#9a32cd" stroke="#9a32cd" points="89.59,-255.44 100.14,-256.37 92.47,-249.07 89.59,-255.44"/>
</a>
</g>
<text text-anchor="start" x="72" y="-221.5" font-family="Helvetica,sans-Serif" font-size="10.00" fill="grey">release</text>
</g>
<!-- Node5 -->
<g id="Node000005" class="node">
<title>Node5</title>
<g id="a_Node000005"><a xlink:href="structfiftyone_degrees_data.html" target="_top" xlink:title="Data structure used for reusing memory which may have been allocated in a previous operation.">
<polygon fill="white" stroke="#666666" points="196,-353 79,-353 79,-334 196,-334 196,-353"/>
<text text-anchor="middle" x="137.5" y="-341" font-family="Helvetica,sans-Serif" font-size="10.00">fiftyoneDegreesData</text>
</a>
</g>
</g>
<!-- Node5&#45;&gt;Node4 -->
<g id="edge4_Node000004_Node000005" class="edge">
<title>Node5&#45;&gt;Node4</title>
<g id="a_edge4_Node000004_Node000005"><a xlink:title=" ">
<path fill="none" stroke="#9a32cd" stroke-dasharray="5,2" d="M137.5,-323.4C137.5,-308.01 137.5,-287.11 137.5,-275.56"/>
<polygon fill="#9a32cd" stroke="#9a32cd" points="134,-323.84 137.5,-333.84 141,-323.84 134,-323.84"/>
</a>
</g>
<text text-anchor="start" x="140.5" y="-304.5" font-family="Helvetica,sans-Serif" font-size="10.00" fill="grey">data</text>
</g>
<!-- Node6&#45;&gt;Node4 -->
<g id="edge5_Node000004_Node000006" class="edge">
<title>Node6&#45;&gt;Node4</title>
<g id="a_edge5_Node000004_Node000006"><a xlink:title=" ">
<path fill="none" stroke="#9a32cd" stroke-dasharray="5,2" d="M95.27,-197.46C102.44,-202.65 109.88,-208.97 115.5,-216 125.4,-228.38 131.85,-245.93 135.07,-256.32"/>
<polygon fill="#9a32cd" stroke="#9a32cd" points="96.75,-194.24 86.51,-191.53 92.83,-200.04 96.75,-194.24"/>
</a>
</g>
<text text-anchor="start" x="129.5" y="-221.5" font-family="Helvetica,sans-Serif" font-size="10.00" fill="grey">collection</text>
</g>
<!-- Node6&#45;&gt;Node6 -->
<g id="edge6_Node000006_Node000006" class="edge">
<title>Node6&#45;&gt;Node6</title>
<g id="a_edge6_Node000006_Node000006"><a xlink:title=" ">
<path fill="none" stroke="#9a32cd" stroke-dasharray="5,2" d="M153.11,-187.45C158.04,-186.16 161,-184.34 161,-182 161,-178.35 153.79,-175.97 143.13,-174.86"/>
<polygon fill="#9a32cd" stroke="#9a32cd" points="152.4,-184.02 143.13,-189.14 153.57,-190.92 152.4,-184.02"/>
</a>
</g>
<text text-anchor="start" x="164.5" y="-187" font-family="Helvetica,sans-Serif" font-size="10.00" fill="grey">freeCollection</text>
<text text-anchor="start" x="164.5" y="-172" font-family="Helvetica,sans-Serif" font-size="10.00" fill="grey">get</text>
</g>
<!-- Node7 -->
<g id="Node000007" class="node">
<title>Node7</title>
<g id="a_Node000007"><a xlink:href="structfiftyone_degrees_evidence_property_index_array.html" target="_top" xlink:title="Array of items of type fiftyoneDegreesEvidencePropertyIndex used to easily access and track the size ...">
<polygon fill="white" stroke="#666666" points="434,-281 255,-281 255,-251 434,-251 434,-281"/>
<text text-anchor="start" x="263" y="-269" font-family="Helvetica,sans-Serif" font-size="10.00">fiftyoneDegreesEvidenceProperty</text>
<text text-anchor="middle" x="344.5" y="-258" font-family="Helvetica,sans-Serif" font-size="10.00">IndexArray</text>
</a>
</g>
</g>
<!-- Node7&#45;&gt;Node3 -->
<g id="edge8_Node000003_Node000007" class="edge">
<title>Node7&#45;&gt;Node3</title>
<g id="a_edge8_Node000003_Node000007"><a xlink:title=" ">
<path fill="none" stroke="#9a32cd" stroke-dasharray="5,2" d="M344.5,-240.6C344.5,-224.03 344.5,-203.11 344.5,-191.59"/>
<polygon fill="#9a32cd" stroke="#9a32cd" points="341,-240.72 344.5,-250.72 348,-240.72 341,-240.72"/>
</a>
</g>
<text text-anchor="start" x="347.5" y="-221.5" font-family="Helvetica,sans-Serif" font-size="10.00" fill="grey">evidenceProperties</text>
</g>
</g>
</svg>
