<?xml version="1.0" encoding="UTF-8" standalone="no"?>
<!DOCTYPE svg PUBLIC "-//W3C//DTD SVG 1.1//EN"
 "http://www.w3.org/Graphics/SVG/1.1/DTD/svg11.dtd">
<!-- Generated by graphviz version 2.43.0 (0)
 -->
<!-- Title: PropValuesChunkContext Pages: 1 -->
<svg width="651pt" height="231pt"
 viewBox="0.00 0.00 651.00 231.00" xmlns="http://www.w3.org/2000/svg" xmlns:xlink="http://www.w3.org/1999/xlink">
<g id="graph0" class="graph" transform="scale(1 1) rotate(0) translate(4 227)">
<title>PropValuesChunkContext</title>
<!-- Node1 -->
<g id="node1" class="node">
<title>Node1</title>
<g id="a_node1"><a xlink:title="Context structure for populating a property values chunk.">
<polygon fill="#bfbfbf" stroke="black" points="380,-0.5 380,-19.5 520,-19.5 520,-0.5 380,-0.5"/>
<text text-anchor="middle" x="450" y="-7.5" font-family="Helvetica,sans-Serif" font-size="10.00">PropValuesChunkContext</text>
</a>
</g>
</g>
<!-- Node2 -->
<g id="node2" class="node">
<title>Node2</title>
<g id="a_node2"><a xlink:href="structfiftyone_degrees_weighted_item.html" target="_top" xlink:title="A weighted collection item.">
<polygon fill="none" stroke="black" points="0,-68.5 0,-87.5 162,-87.5 162,-68.5 0,-68.5"/>
<text text-anchor="middle" x="81" y="-75.5" font-family="Helvetica,sans-Serif" font-size="10.00">fiftyoneDegreesWeightedItem</text>
</a>
</g>
</g>
<!-- Node2&#45;&gt;Node1 -->
<g id="edge1" class="edge">
<title>Node2&#45;&gt;Node1</title>
<path fill="none" stroke="#9a32cd" stroke-dasharray="5,2" d="M138.76,-66.67C211.37,-53.68 334.66,-31.63 402.22,-19.55"/>
<polygon fill="#9a32cd" stroke="#9a32cd" points="138.09,-63.23 128.86,-68.44 139.32,-70.12 138.09,-63.23"/>
<text text-anchor="middle" x="331" y="-41" font-family="Helvetica,sans-Serif" font-size="10.00"> valuesItems</text>
</g>
<!-- Node3 -->
<g id="node3" class="node">
<title>Node3</title>
<g id="a_node3"><a xlink:href="structfiftyone_degrees_collection_item.html" target="_top" xlink:title="Used to store a handle to the underlying item that could be used to release the item when it&#39;s finish...">
<polygon fill="none" stroke="black" points="157.5,-136.5 157.5,-155.5 322.5,-155.5 322.5,-136.5 157.5,-136.5"/>
<text text-anchor="middle" x="240" y="-143.5" font-family="Helvetica,sans-Serif" font-size="10.00">fiftyoneDegreesCollectionItem</text>
</a>
</g>
</g>
<!-- Node3&#45;&gt;Node2 -->
<g id="edge2" class="edge">
<title>Node3&#45;&gt;Node2</title>
<path fill="none" stroke="#9a32cd" stroke-dasharray="5,2" d="M209.97,-132.54C178.26,-119.37 129.1,-98.97 101.54,-87.53"/>
<polygon fill="#9a32cd" stroke="#9a32cd" points="208.64,-135.77 219.21,-136.37 211.32,-129.31 208.64,-135.77"/>
<text text-anchor="middle" x="188" y="-110" font-family="Helvetica,sans-Serif" font-size="10.00"> item</text>
</g>
<!-- Node4 -->
<g id="node4" class="node">
<title>Node4</title>
<g id="a_node4"><a xlink:href="structfiftyone_degrees_collection.html" target="_top" xlink:title="All the shared methods and fields required by file, memory and cached collections.">
<polygon fill="none" stroke="black" points="180.5,-68.5 180.5,-87.5 323.5,-87.5 323.5,-68.5 180.5,-68.5"/>
<text text-anchor="middle" x="252" y="-75.5" font-family="Helvetica,sans-Serif" font-size="10.00">fiftyoneDegreesCollection</text>
</a>
</g>
</g>
<!-- Node3&#45;&gt;Node4 -->
<g id="edge4" class="edge">
<title>Node3&#45;&gt;Node4</title>
<path fill="none" stroke="#9a32cd" stroke-dasharray="5,2" d="M214.67,-130.21C206.79,-123.62 201.25,-115.45 206,-107 210.86,-98.36 219.58,-92.08 228.13,-87.68"/>
<polygon fill="#9a32cd" stroke="#9a32cd" points="212.89,-133.24 223.05,-136.22 216.97,-127.55 212.89,-133.24"/>
<text text-anchor="middle" x="226" y="-110" font-family="Helvetica,sans-Serif" font-size="10.00"> release</text>
</g>
<!-- Node4&#45;&gt;Node3 -->
<g id="edge3" class="edge">
<title>Node4&#45;&gt;Node3</title>
<path fill="none" stroke="#9a32cd" stroke-dasharray="5,2" d="M252.17,-98.14C251.92,-104.51 251.32,-111.61 250,-118 248.71,-124.27 246.21,-131.02 244.03,-136.2"/>
<polygon fill="#9a32cd" stroke="#9a32cd" points="255.68,-97.81 252.3,-87.77 248.68,-97.72 255.68,-97.81"/>
<text text-anchor="middle" x="277.5" y="-110" font-family="Helvetica,sans-Serif" font-size="10.00"> collection</text>
</g>
<!-- Node4&#45;&gt;Node4 -->
<g id="edge5" class="edge">
<title>Node4&#45;&gt;Node4</title>
<path fill="none" stroke="#9a32cd" stroke-dasharray="5,2" d="M333.61,-82.41C338.54,-81.36 341.5,-79.89 341.5,-78 341.5,-75.04 334.29,-73.12 323.63,-72.22"/>
<polygon fill="#9a32cd" stroke="#9a32cd" points="333.06,-78.96 323.63,-83.78 334.01,-85.89 333.06,-78.96"/>
<text text-anchor="middle" x="377.5" y="-81" font-family="Helvetica,sans-Serif" font-size="10.00"> freeCollection</text>
<text text-anchor="middle" x="377.5" y="-70" font-family="Helvetica,sans-Serif" font-size="10.00">get</text>
</g>
<!-- Node5 -->
<g id="node5" class="node">
<title>Node5</title>
<g id="a_node5"><a xlink:href="structfiftyone_degrees_data.html" target="_top" xlink:title="Data structure used for reusing memory which may have been allocated in a previous operation.">
<polygon fill="none" stroke="black" points="231.5,-203.5 231.5,-222.5 348.5,-222.5 348.5,-203.5 231.5,-203.5"/>
<text text-anchor="middle" x="290" y="-210.5" font-family="Helvetica,sans-Serif" font-size="10.00">fiftyoneDegreesData</text>
</a>
</g>
</g>
<!-- Node5&#45;&gt;Node3 -->
<g id="edge6" class="edge">
<title>Node5&#45;&gt;Node3</title>
<path fill="none" stroke="#9a32cd" stroke-dasharray="5,2" d="M277.13,-195.27C267.38,-182.6 254.39,-165.7 246.64,-155.63"/>
<polygon fill="#9a32cd" stroke="#9a32cd" points="274.39,-197.44 283.26,-203.23 279.93,-193.17 274.39,-197.44"/>
<text text-anchor="middle" x="280.5" y="-177" font-family="Helvetica,sans-Serif" font-size="10.00"> data</text>
</g>
<!-- Node6 -->
<g id="node6" class="node">
<title>Node6</title>
<g id="a_node6"><a xlink:href="struct_prop_values_chunk.html" target="_top" xlink:title="Structure for a chunk of property values of the same type.">
<polygon fill="none" stroke="black" points="379.5,-136.5 379.5,-155.5 480.5,-155.5 480.5,-136.5 379.5,-136.5"/>
<text text-anchor="middle" x="430" y="-143.5" font-family="Helvetica,sans-Serif" font-size="10.00">PropValuesChunk</text>
</a>
</g>
</g>
<!-- Node5&#45;&gt;Node6 -->
<g id="edge9" class="edge">
<title>Node5&#45;&gt;Node6</title>
<path fill="none" stroke="#9a32cd" stroke-dasharray="5,2" d="M317.76,-199.11C345.49,-186.24 387.34,-166.81 411.33,-155.67"/>
<polygon fill="#9a32cd" stroke="#9a32cd" points="316.19,-195.98 308.59,-203.37 319.13,-202.33 316.19,-195.98"/>
<text text-anchor="middle" x="381.5" y="-177" font-family="Helvetica,sans-Serif" font-size="10.00"> data</text>
</g>
<!-- Node6&#45;&gt;Node1 -->
<g id="edge7" class="edge">
<title>Node6&#45;&gt;Node1</title>
<path fill="none" stroke="#9a32cd" stroke-dasharray="5,2" d="M432.84,-125.99C437.24,-96.52 445.52,-40.99 448.71,-19.65"/>
<polygon fill="#9a32cd" stroke="#9a32cd" points="429.33,-125.8 431.31,-136.21 436.25,-126.83 429.33,-125.8"/>
<text text-anchor="middle" x="458.5" y="-75.5" font-family="Helvetica,sans-Serif" font-size="10.00"> chunk</text>
</g>
<!-- Node7 -->
<g id="node7" class="node">
<title>Node7</title>
<g id="a_node7"><a xlink:href="struct_prop_values_converter.html" target="_top" xlink:title="Structure defining a converter for property values.">
<polygon fill="none" stroke="black" points="370.5,-203.5 370.5,-222.5 489.5,-222.5 489.5,-203.5 370.5,-203.5"/>
<text text-anchor="middle" x="430" y="-210.5" font-family="Helvetica,sans-Serif" font-size="10.00">PropValuesConverter</text>
</a>
</g>
</g>
<!-- Node7&#45;&gt;Node6 -->
<g id="edge8" class="edge">
<title>Node7&#45;&gt;Node6</title>
<path fill="none" stroke="#9a32cd" stroke-dasharray="5,2" d="M430,-193.04C430,-180.67 430,-165.12 430,-155.63"/>
<polygon fill="#9a32cd" stroke="#9a32cd" points="426.5,-193.23 430,-203.23 433.5,-193.23 426.5,-193.23"/>
<text text-anchor="middle" x="455" y="-177" font-family="Helvetica,sans-Serif" font-size="10.00"> converter</text>
</g>
<!-- Node8 -->
<g id="node8" class="node">
<title>Node8</title>
<g id="a_node8"><a xlink:href="structfiftyone_degrees_exception.html" target="_top" xlink:title="Structure used to represent a 51Degrees exception and passed into methods that might generate excepti...">
<polygon fill="none" stroke="black" points="501,-68.5 501,-87.5 643,-87.5 643,-68.5 501,-68.5"/>
<text text-anchor="middle" x="572" y="-75.5" font-family="Helvetica,sans-Serif" font-size="10.00">fiftyoneDegreesException</text>
</a>
</g>
</g>
<!-- Node8&#45;&gt;Node1 -->
<g id="edge10" class="edge">
<title>Node8&#45;&gt;Node1</title>
<path fill="none" stroke="#9a32cd" stroke-dasharray="5,2" d="M547.07,-63.51C522.79,-50.38 486.6,-30.8 465.95,-19.63"/>
<polygon fill="#9a32cd" stroke="#9a32cd" points="545.59,-66.69 556.05,-68.37 548.92,-60.54 545.59,-66.69"/>
<text text-anchor="middle" x="544" y="-41" font-family="Helvetica,sans-Serif" font-size="10.00"> exception</text>
</g>
</g>
</svg>
