<?xml version="1.0" encoding="UTF-8" standalone="no"?>
<!DOCTYPE svg PUBLIC "-//W3C//DTD SVG 1.1//EN"
 "http://www.w3.org/Graphics/SVG/1.1/DTD/svg11.dtd">
<!-- Generated by graphviz version 2.43.0 (0)
 -->
<!-- Title: fiftyoneDegreesEvidenceKeyValuePairArray Pages: 1 -->
<svg width="165pt" height="193pt"
 viewBox="0.00 0.00 165.00 193.00" xmlns="http://www.w3.org/2000/svg" xmlns:xlink="http://www.w3.org/1999/xlink">
<g id="graph0" class="graph" transform="scale(1 1) rotate(0) translate(4 189)">
<title>fiftyoneDegreesEvidenceKeyValuePairArray</title>
<!-- Node1 -->
<g id="Node000001" class="node">
<title>Node1</title>
<g id="a_Node000001"><a xlink:title="Array of evidence key value pairs and a pointer to the next array if present or NULL of not present.">
<polygon fill="#999999" stroke="#666666" points="156.5,-30 0.5,-30 0.5,0 156.5,0 156.5,-30"/>
<text text-anchor="start" x="8.5" y="-18" font-family="Helvetica,sans-Serif" font-size="10.00">fiftyoneDegreesEvidenceKey</text>
<text text-anchor="middle" x="78.5" y="-7" font-family="Helvetica,sans-Serif" font-size="10.00">ValuePairArray</text>
</a>
</g>
</g>
<!-- Node2 -->
<g id="Node000002" class="node">
<title>Node2</title>
<g id="a_Node000002"><a xlink:href="structfiftyone_degrees_evidence_key_value_pair.html" target="_top" xlink:title="Evidence key value pair structure which combines the prefix, key and value.">
<polygon fill="white" stroke="#666666" points="156.5,-113 0.5,-113 0.5,-83 156.5,-83 156.5,-113"/>
<text text-anchor="start" x="8.5" y="-101" font-family="Helvetica,sans-Serif" font-size="10.00">fiftyoneDegreesEvidenceKey</text>
<text text-anchor="middle" x="78.5" y="-90" font-family="Helvetica,sans-Serif" font-size="10.00">ValuePair</text>
</a>
</g>
</g>
<!-- Node2&#45;&gt;Node1 -->
<g id="edge1_Node000001_Node000002" class="edge">
<title>Node2&#45;&gt;Node1</title>
<g id="a_edge1_Node000001_Node000002"><a xlink:title=" ">
<path fill="none" stroke="#9a32cd" stroke-dasharray="5,2" d="M78.5,-72.59C78.5,-58.75 78.5,-41.91 78.5,-30.22"/>
<polygon fill="#9a32cd" stroke="#9a32cd" points="75,-72.89 78.5,-82.89 82,-72.89 75,-72.89"/>
</a>
</g>
<text text-anchor="start" x="81.5" y="-53.5" font-family="Helvetica,sans-Serif" font-size="10.00" fill="grey">items</text>
</g>
<!-- Node3 -->
<g id="Node000003" class="node">
<title>Node3</title>
<g id="a_Node000003"><a xlink:href="structfiftyone_degrees_key_value_pair.html" target="_top" xlink:title=" ">
<polygon fill="white" stroke="#bfbfbf" points="157,-185 0,-185 0,-166 157,-166 157,-185"/>
<text text-anchor="middle" x="78.5" y="-173" font-family="Helvetica,sans-Serif" font-size="10.00">fiftyoneDegreesKeyValuePair</text>
</a>
</g>
</g>
<!-- Node3&#45;&gt;Node2 -->
<g id="edge2_Node000002_Node000003" class="edge">
<title>Node3&#45;&gt;Node2</title>
<g id="a_edge2_Node000002_Node000003"><a xlink:title=" ">
<path fill="none" stroke="#9a32cd" stroke-dasharray="5,2" d="M78.5,-155.57C78.5,-142.43 78.5,-125.18 78.5,-113.21"/>
<polygon fill="#9a32cd" stroke="#9a32cd" points="75,-155.84 78.5,-165.84 82,-155.84 75,-155.84"/>
</a>
</g>
<text text-anchor="start" x="82" y="-136.5" font-family="Helvetica,sans-Serif" font-size="10.00" fill="grey">item</text>
</g>
</g>
</svg>
