<?xml version="1.0" encoding="UTF-8" standalone="no"?>
<!DOCTYPE svg PUBLIC "-//W3C//DTD SVG 1.1//EN"
 "http://www.w3.org/Graphics/SVG/1.1/DTD/svg11.dtd">
<!-- Generated by graphviz version 2.43.0 (0)
 -->
<!-- Title: PropValues Pages: 1 -->
<svg width="262pt" height="162pt"
 viewBox="0.00 0.00 262.00 162.00" xmlns="http://www.w3.org/2000/svg" xmlns:xlink="http://www.w3.org/1999/xlink">
<g id="graph0" class="graph" transform="scale(1 1) rotate(0) translate(4 158)">
<title>PropValues</title>
<!-- Node1 -->
<g id="node1" class="node">
<title>Node1</title>
<g id="a_node1"><a xlink:title="Structure for a collection of property value chunks.">
<polygon fill="#bfbfbf" stroke="black" points="117,-0.5 117,-19.5 188,-19.5 188,-0.5 117,-0.5"/>
<text text-anchor="middle" x="152.5" y="-7.5" font-family="Helvetica,sans-Serif" font-size="10.00">PropValues</text>
</a>
</g>
</g>
<!-- Node2 -->
<g id="node2" class="node">
<title>Node2</title>
<g id="a_node2"><a xlink:href="struct_prop_values_chunk.html" target="_top" xlink:title="Structure for a chunk of property values of the same type.">
<polygon fill="none" stroke="black" points="58,-67.5 58,-86.5 159,-86.5 159,-67.5 58,-67.5"/>
<text text-anchor="middle" x="108.5" y="-74.5" font-family="Helvetica,sans-Serif" font-size="10.00">PropValuesChunk</text>
</a>
</g>
</g>
<!-- Node2&#45;&gt;Node1 -->
<g id="edge1" class="edge">
<title>Node2&#45;&gt;Node1</title>
<path fill="none" stroke="#9a32cd" stroke-dasharray="5,2" d="M120.07,-58.9C128.62,-46.27 139.91,-29.6 146.66,-19.63"/>
<polygon fill="#9a32cd" stroke="#9a32cd" points="117.14,-56.99 114.43,-67.23 122.94,-60.91 117.14,-56.99"/>
<text text-anchor="middle" x="149" y="-41" font-family="Helvetica,sans-Serif" font-size="10.00"> items</text>
</g>
<!-- Node3 -->
<g id="node3" class="node">
<title>Node3</title>
<g id="a_node3"><a xlink:href="struct_prop_values_converter.html" target="_top" xlink:title="Structure defining a converter for property values.">
<polygon fill="none" stroke="black" points="0,-134.5 0,-153.5 119,-153.5 119,-134.5 0,-134.5"/>
<text text-anchor="middle" x="59.5" y="-141.5" font-family="Helvetica,sans-Serif" font-size="10.00">PropValuesConverter</text>
</a>
</g>
</g>
<!-- Node3&#45;&gt;Node2 -->
<g id="edge2" class="edge">
<title>Node3&#45;&gt;Node2</title>
<path fill="none" stroke="#9a32cd" stroke-dasharray="5,2" d="M63.46,-124.39C65.45,-117.84 68.35,-110.71 72.5,-105 77.92,-97.54 85.99,-91.22 93.12,-86.58"/>
<polygon fill="#9a32cd" stroke="#9a32cd" points="59.97,-123.92 60.91,-134.48 66.75,-125.64 59.97,-123.92"/>
<text text-anchor="middle" x="97.5" y="-108" font-family="Helvetica,sans-Serif" font-size="10.00"> converter</text>
</g>
<!-- Node4 -->
<g id="node4" class="node">
<title>Node4</title>
<g id="a_node4"><a xlink:href="structfiftyone_degrees_data.html" target="_top" xlink:title="Data structure used for reusing memory which may have been allocated in a previous operation.">
<polygon fill="none" stroke="black" points="137,-134.5 137,-153.5 254,-153.5 254,-134.5 137,-134.5"/>
<text text-anchor="middle" x="195.5" y="-141.5" font-family="Helvetica,sans-Serif" font-size="10.00">fiftyoneDegreesData</text>
</a>
</g>
</g>
<!-- Node4&#45;&gt;Node1 -->
<g id="edge4" class="edge">
<title>Node4&#45;&gt;Node1</title>
<path fill="none" stroke="#9a32cd" stroke-dasharray="5,2" d="M192.35,-124.27C188.37,-102.86 180.55,-67.03 168.5,-38 165.83,-31.56 161.83,-24.81 158.5,-19.67"/>
<polygon fill="#9a32cd" stroke="#9a32cd" points="188.93,-125.06 194.12,-134.3 195.82,-123.84 188.93,-125.06"/>
<text text-anchor="middle" x="197" y="-74.5" font-family="Helvetica,sans-Serif" font-size="10.00"> data</text>
</g>
<!-- Node4&#45;&gt;Node2 -->
<g id="edge3" class="edge">
<title>Node4&#45;&gt;Node2</title>
<path fill="none" stroke="#9a32cd" stroke-dasharray="5,2" d="M174.14,-128.57C168.36,-124.58 162.15,-120.18 156.5,-116 143.35,-106.26 128.65,-94.48 119.02,-86.65"/>
<polygon fill="#9a32cd" stroke="#9a32cd" points="172.48,-131.68 182.71,-134.45 176.44,-125.91 172.48,-131.68"/>
<text text-anchor="middle" x="169" y="-108" font-family="Helvetica,sans-Serif" font-size="10.00"> data</text>
</g>
</g>
</svg>
