<?xml version="1.0" encoding="UTF-8" standalone="no"?>
<!DOCTYPE svg PUBLIC "-//W3C//DTD SVG 1.1//EN"
 "http://www.w3.org/Graphics/SVG/1.1/DTD/svg11.dtd">
<!-- Generated by graphviz version 2.43.0 (0)
 -->
<!-- Title: valueSearch Pages: 1 -->
<svg width="554pt" height="112pt"
 viewBox="0.00 0.00 554.00 112.00" xmlns="http://www.w3.org/2000/svg" xmlns:xlink="http://www.w3.org/1999/xlink">
<g id="graph0" class="graph" transform="scale(1 1) rotate(0) translate(4 108)">
<title>valueSearch</title>
<!-- Node1 -->
<g id="Node000001" class="node">
<title>Node1</title>
<g id="a_Node000001"><a xlink:title=" ">
<polygon fill="#999999" stroke="#666666" points="444,-19 367,-19 367,0 444,0 444,-19"/>
<text text-anchor="middle" x="405.5" y="-7" font-family="Helvetica,sans-Serif" font-size="10.00">valueSearch</text>
</a>
</g>
</g>
<!-- Node2 -->
<g id="Node000002" class="node">
<title>Node2</title>
<g id="a_Node000002"><a xlink:href="structfiftyone_degrees_collection.html" target="_top" xlink:title="All the shared methods and fields required by file, memory and cached collections.">
<polygon fill="white" stroke="#666666" points="278,-97.5 135,-97.5 135,-78.5 278,-78.5 278,-97.5"/>
<text text-anchor="middle" x="206.5" y="-85.5" font-family="Helvetica,sans-Serif" font-size="10.00">fiftyoneDegreesCollection</text>
</a>
</g>
</g>
<!-- Node2&#45;&gt;Node1 -->
<g id="edge1_Node000001_Node000002" class="edge">
<title>Node2&#45;&gt;Node1</title>
<g id="a_edge1_Node000001_Node000002"><a xlink:title=" ">
<path fill="none" stroke="#9a32cd" stroke-dasharray="5,2" d="M238.35,-74.76C278.86,-59.18 347.79,-32.68 383.14,-19.1"/>
<polygon fill="#9a32cd" stroke="#9a32cd" points="237.02,-71.52 228.94,-78.37 239.53,-78.05 237.02,-71.52"/>
</a>
</g>
<text text-anchor="start" x="337.5" y="-42.5" font-family="Helvetica,sans-Serif" font-size="10.00" fill="grey">strings</text>
</g>
<!-- Node2&#45;&gt;Node2 -->
<g id="edge2_Node000002_Node000002" class="edge">
<title>Node2&#45;&gt;Node2</title>
<g id="a_edge2_Node000002_Node000002"><a xlink:title=" ">
<path fill="none" stroke="#9a32cd" stroke-dasharray="5,2" d="M288.11,-93.45C293.04,-92.16 296,-90.34 296,-88 296,-84.35 288.79,-81.97 278.13,-80.86"/>
<polygon fill="#9a32cd" stroke="#9a32cd" points="287.4,-90.02 278.13,-95.14 288.57,-96.92 287.4,-90.02"/>
</a>
</g>
<text text-anchor="start" x="299.5" y="-93" font-family="Helvetica,sans-Serif" font-size="10.00" fill="grey">freeCollection</text>
<text text-anchor="start" x="299.5" y="-78" font-family="Helvetica,sans-Serif" font-size="10.00" fill="grey">get</text>
</g>
<!-- Node3 -->
<g id="Node000003" class="node">
<title>Node3</title>
<g id="a_Node000003"><a xlink:href="structfiftyone_degrees_collection_item.html" target="_top" xlink:title="Used to store a handle to the underlying item that could be used to release the item when it&#39;s finish...">
<polygon fill="white" stroke="#666666" points="223,-19 58,-19 58,0 223,0 223,-19"/>
<text text-anchor="middle" x="140.5" y="-7" font-family="Helvetica,sans-Serif" font-size="10.00">fiftyoneDegreesCollectionItem</text>
</a>
</g>
</g>
<!-- Node2&#45;&gt;Node3 -->
<g id="edge5_Node000003_Node000002" class="edge">
<title>Node2&#45;&gt;Node3</title>
<g id="a_edge5_Node000003_Node000002"><a xlink:title=" ">
<path fill="none" stroke="#9a32cd" stroke-dasharray="5,2" d="M201.49,-68.75C197.99,-58.55 192.5,-46.09 184.5,-37 177.9,-29.5 168.66,-23.49 160.34,-19.1"/>
<polygon fill="#9a32cd" stroke="#9a32cd" points="198.15,-69.81 204.43,-78.34 204.84,-67.75 198.15,-69.81"/>
</a>
</g>
<text text-anchor="start" x="198.5" y="-42.5" font-family="Helvetica,sans-Serif" font-size="10.00" fill="grey">collection</text>
</g>
<!-- Node3&#45;&gt;Node2 -->
<g id="edge3_Node000002_Node000003" class="edge">
<title>Node3&#45;&gt;Node2</title>
<g id="a_edge3_Node000002_Node000003"><a xlink:title=" ">
<path fill="none" stroke="#9a32cd" stroke-dasharray="5,2" d="M136.83,-29.35C136.23,-37.5 136.96,-46.79 141.5,-54 148.85,-65.67 161.73,-73.39 174.09,-78.4"/>
<polygon fill="#9a32cd" stroke="#9a32cd" points="140.32,-29.64 138.24,-19.25 133.39,-28.67 140.32,-29.64"/>
</a>
</g>
<text text-anchor="start" x="145" y="-42.5" font-family="Helvetica,sans-Serif" font-size="10.00" fill="grey">release</text>
</g>
<!-- Node4 -->
<g id="Node000004" class="node">
<title>Node4</title>
<g id="a_Node000004"><a xlink:href="structfiftyone_degrees_data.html" target="_top" xlink:title="Data structure used for reusing memory which may have been allocated in a previous operation.">
<polygon fill="white" stroke="#666666" points="117,-97.5 0,-97.5 0,-78.5 117,-78.5 117,-97.5"/>
<text text-anchor="middle" x="58.5" y="-85.5" font-family="Helvetica,sans-Serif" font-size="10.00">fiftyoneDegreesData</text>
</a>
</g>
</g>
<!-- Node4&#45;&gt;Node3 -->
<g id="edge4_Node000003_Node000004" class="edge">
<title>Node4&#45;&gt;Node3</title>
<g id="a_edge4_Node000003_Node000004"><a xlink:title=" ">
<path fill="none" stroke="#9a32cd" stroke-dasharray="5,2" d="M72.5,-70.76C81.52,-60.64 93.73,-47.58 105.5,-37 112.64,-30.58 121.23,-24.06 128.12,-19.09"/>
<polygon fill="#9a32cd" stroke="#9a32cd" points="69.72,-68.62 65.75,-78.45 74.98,-73.24 69.72,-68.62"/>
</a>
</g>
<text text-anchor="start" x="108.5" y="-42.5" font-family="Helvetica,sans-Serif" font-size="10.00" fill="grey">data</text>
</g>
<!-- Node5 -->
<g id="Node000005" class="node">
<title>Node5</title>
<g id="a_Node000005"><a xlink:href="structfiftyone_degrees_string_builder.html" target="_top" xlink:title="String buffer for building strings with memory checks.">
<polygon fill="white" stroke="#666666" points="546,-97.5 389,-97.5 389,-78.5 546,-78.5 546,-97.5"/>
<text text-anchor="middle" x="467.5" y="-85.5" font-family="Helvetica,sans-Serif" font-size="10.00">fiftyoneDegreesStringBuilder</text>
</a>
</g>
</g>
<!-- Node5&#45;&gt;Node1 -->
<g id="edge6_Node000001_Node000005" class="edge">
<title>Node5&#45;&gt;Node1</title>
<g id="a_edge6_Node000001_Node000005"><a xlink:title=" ">
<path fill="none" stroke="#9a32cd" stroke-dasharray="5,2" d="M453.99,-70.33C441.22,-54.58 422.57,-31.57 412.53,-19.17"/>
<polygon fill="#9a32cd" stroke="#9a32cd" points="451.37,-72.66 460.39,-78.22 456.81,-68.25 451.37,-72.66"/>
</a>
</g>
<text text-anchor="start" x="443" y="-42.5" font-family="Helvetica,sans-Serif" font-size="10.00" fill="grey">tempBuilder</text>
</g>
</g>
</svg>
