<?xml version="1.0" encoding="UTF-8" standalone="no"?>
<!DOCTYPE svg PUBLIC "-//W3C//DTD SVG 1.1//EN"
 "http://www.w3.org/Graphics/SVG/1.1/DTD/svg11.dtd">
<!-- Generated by graphviz version 2.43.0 (0)
 -->
<!-- Title: IndirectProfileSearch Pages: 1 -->
<svg width="375pt" height="231pt"
 viewBox="0.00 0.00 375.00 231.00" xmlns="http://www.w3.org/2000/svg" xmlns:xlink="http://www.w3.org/1999/xlink">
<g id="graph0" class="graph" transform="scale(1 1) rotate(0) translate(4 227)">
<title>IndirectProfileSearch</title>
<!-- Node1 -->
<g id="node1" class="node">
<title>Node1</title>
<g id="a_node1"><a xlink:title=" ">
<polygon fill="#bfbfbf" stroke="black" points="0,-0.5 0,-19.5 117,-19.5 117,-0.5 0,-0.5"/>
<text text-anchor="middle" x="58.5" y="-7.5" font-family="Helvetica,sans-Serif" font-size="10.00">IndirectProfileSearch</text>
</a>
</g>
</g>
<!-- Node2 -->
<g id="node2" class="node">
<title>Node2</title>
<g id="a_node2"><a xlink:href="structfiftyone_degrees_collection_item.html" target="_top" xlink:title="Used to store a handle to the underlying item that could be used to release the item when it&#39;s finish...">
<polygon fill="none" stroke="black" points="60,-136.5 60,-155.5 225,-155.5 225,-136.5 60,-136.5"/>
<text text-anchor="middle" x="142.5" y="-143.5" font-family="Helvetica,sans-Serif" font-size="10.00">fiftyoneDegreesCollectionItem</text>
</a>
</g>
</g>
<!-- Node2&#45;&gt;Node1 -->
<g id="edge1" class="edge">
<title>Node2&#45;&gt;Node1</title>
<path fill="none" stroke="#9a32cd" stroke-dasharray="5,2" d="M105.71,-132.56C85.85,-123.74 63.09,-109.74 51.5,-89 39.03,-66.69 48.65,-35.08 54.64,-19.86"/>
<polygon fill="#9a32cd" stroke="#9a32cd" points="104.59,-135.88 115.16,-136.47 107.27,-129.41 104.59,-135.88"/>
<text text-anchor="middle" x="88" y="-75.5" font-family="Helvetica,sans-Serif" font-size="10.00"> outProfileItem</text>
</g>
<!-- Node3 -->
<g id="node3" class="node">
<title>Node3</title>
<g id="a_node3"><a xlink:href="structfiftyone_degrees_collection.html" target="_top" xlink:title="All the shared methods and fields required by file, memory and cached collections.">
<polygon fill="none" stroke="black" points="134,-68.5 134,-87.5 277,-87.5 277,-68.5 134,-68.5"/>
<text text-anchor="middle" x="205.5" y="-75.5" font-family="Helvetica,sans-Serif" font-size="10.00">fiftyoneDegreesCollection</text>
</a>
</g>
</g>
<!-- Node2&#45;&gt;Node3 -->
<g id="edge3" class="edge">
<title>Node2&#45;&gt;Node3</title>
<path fill="none" stroke="#9a32cd" stroke-dasharray="5,2" d="M136.48,-126.25C135.5,-119.69 135.8,-112.59 139.5,-107 145.55,-97.87 155.23,-91.7 165.35,-87.55"/>
<polygon fill="#9a32cd" stroke="#9a32cd" points="133.19,-127.52 138.98,-136.39 139.99,-125.84 133.19,-127.52"/>
<text text-anchor="middle" x="159.5" y="-110" font-family="Helvetica,sans-Serif" font-size="10.00"> release</text>
</g>
<!-- Node3&#45;&gt;Node1 -->
<g id="edge6" class="edge">
<title>Node3&#45;&gt;Node1</title>
<path fill="none" stroke="#9a32cd" stroke-dasharray="5,2" d="M177,-64.21C147.75,-51.07 103.04,-31 77.72,-19.63"/>
<polygon fill="#9a32cd" stroke="#9a32cd" points="175.73,-67.47 186.28,-68.37 178.59,-61.08 175.73,-67.47"/>
<text text-anchor="middle" x="161.5" y="-41" font-family="Helvetica,sans-Serif" font-size="10.00"> profiles</text>
</g>
<!-- Node3&#45;&gt;Node2 -->
<g id="edge2" class="edge">
<title>Node3&#45;&gt;Node2</title>
<path fill="none" stroke="#9a32cd" stroke-dasharray="5,2" d="M197.64,-96.98C194,-104.04 189.2,-111.89 183.5,-118 176.64,-125.35 167.39,-131.66 159.41,-136.33"/>
<polygon fill="#9a32cd" stroke="#9a32cd" points="201.01,-98.04 202.12,-87.5 194.68,-95.05 201.01,-98.04"/>
<text text-anchor="middle" x="218" y="-110" font-family="Helvetica,sans-Serif" font-size="10.00"> collection</text>
</g>
<!-- Node3&#45;&gt;Node3 -->
<g id="edge4" class="edge">
<title>Node3&#45;&gt;Node3</title>
<path fill="none" stroke="#9a32cd" stroke-dasharray="5,2" d="M287.11,-82.41C292.04,-81.36 295,-79.89 295,-78 295,-75.04 287.79,-73.12 277.13,-72.22"/>
<polygon fill="#9a32cd" stroke="#9a32cd" points="286.56,-78.96 277.13,-83.78 287.51,-85.89 286.56,-78.96"/>
<text text-anchor="middle" x="331" y="-81" font-family="Helvetica,sans-Serif" font-size="10.00"> freeCollection</text>
<text text-anchor="middle" x="331" y="-70" font-family="Helvetica,sans-Serif" font-size="10.00">get</text>
</g>
<!-- Node4 -->
<g id="node4" class="node">
<title>Node4</title>
<g id="a_node4"><a xlink:href="structfiftyone_degrees_data.html" target="_top" xlink:title="Data structure used for reusing memory which may have been allocated in a previous operation.">
<polygon fill="none" stroke="black" points="84,-203.5 84,-222.5 201,-222.5 201,-203.5 84,-203.5"/>
<text text-anchor="middle" x="142.5" y="-210.5" font-family="Helvetica,sans-Serif" font-size="10.00">fiftyoneDegreesData</text>
</a>
</g>
</g>
<!-- Node4&#45;&gt;Node2 -->
<g id="edge5" class="edge">
<title>Node4&#45;&gt;Node2</title>
<path fill="none" stroke="#9a32cd" stroke-dasharray="5,2" d="M142.5,-193.04C142.5,-180.67 142.5,-165.12 142.5,-155.63"/>
<polygon fill="#9a32cd" stroke="#9a32cd" points="139,-193.23 142.5,-203.23 146,-193.23 139,-193.23"/>
<text text-anchor="middle" x="155" y="-177" font-family="Helvetica,sans-Serif" font-size="10.00"> data</text>
</g>
</g>
</svg>
