<?xml version="1.0" encoding="UTF-8" standalone="no"?>
<!DOCTYPE svg PUBLIC "-//W3C//DTD SVG 1.1//EN"
 "http://www.w3.org/Graphics/SVG/1.1/DTD/svg11.dtd">
<!-- Generated by graphviz version 2.43.0 (0)
 -->
<!-- Title: performanceState Pages: 1 -->
<svg width="830pt" height="340pt"
 viewBox="0.00 0.00 829.50 340.00" xmlns="http://www.w3.org/2000/svg" xmlns:xlink="http://www.w3.org/1999/xlink">
<g id="graph0" class="graph" transform="scale(1 1) rotate(0) translate(4 336)">
<title>performanceState</title>
<!-- Node1 -->
<g id="node1" class="node">
<title>Node1</title>
<g id="a_node1"><a xlink:title="Shared performance state.">
<polygon fill="#bfbfbf" stroke="black" points="286.5,-78.5 286.5,-97.5 390.5,-97.5 390.5,-78.5 286.5,-78.5"/>
<text text-anchor="middle" x="338.5" y="-85.5" font-family="Helvetica,sans-Serif" font-size="10.00">performanceState</text>
</a>
</g>
</g>
<!-- Node6 -->
<g id="node6" class="node">
<title>Node6</title>
<g id="a_node6"><a xlink:href="structthread_state.html" target="_top" xlink:title="State specific to a single thread.">
<polygon fill="none" stroke="black" points="304.5,-0.5 304.5,-19.5 378.5,-19.5 378.5,-0.5 304.5,-0.5"/>
<text text-anchor="middle" x="341.5" y="-7.5" font-family="Helvetica,sans-Serif" font-size="10.00">threadState</text>
</a>
</g>
</g>
<!-- Node1&#45;&gt;Node6 -->
<g id="edge14" class="edge">
<title>Node1&#45;&gt;Node6</title>
<path fill="none" stroke="#9a32cd" stroke-dasharray="5,2" d="M311.02,-72.46C306.78,-68.97 302.99,-64.82 300.5,-60 296.02,-51.31 295.86,-46.61 300.5,-38 304.87,-29.9 312.85,-23.83 320.61,-19.51"/>
<polygon fill="#9a32cd" stroke="#9a32cd" points="309.3,-75.53 319.5,-78.39 313.31,-69.79 309.3,-75.53"/>
<text text-anchor="middle" x="327.5" y="-46.5" font-family="Helvetica,sans-Serif" font-size="10.00"> mainState</text>
</g>
<!-- Node2 -->
<g id="node2" class="node">
<title>Node2</title>
<g id="a_node2"><a xlink:href="structfiftyone_degrees_resource_manager.html" target="_top" xlink:title="Manager structure used to provide access to a shared and changing resource.">
<polygon fill="none" stroke="black" points="389.5,-240 389.5,-259 571.5,-259 571.5,-240 389.5,-240"/>
<text text-anchor="middle" x="480.5" y="-247" font-family="Helvetica,sans-Serif" font-size="10.00">fiftyoneDegreesResourceManager</text>
</a>
</g>
</g>
<!-- Node2&#45;&gt;Node1 -->
<g id="edge1" class="edge">
<title>Node2&#45;&gt;Node1</title>
<path fill="none" stroke="#9a32cd" stroke-dasharray="5,2" d="M468.72,-231.69C444.06,-196.54 389.1,-118.34 386.5,-116 378.26,-108.58 367.63,-102.34 358.47,-97.73"/>
<polygon fill="#9a32cd" stroke="#9a32cd" points="465.93,-233.81 474.54,-239.99 471.66,-229.8 465.93,-233.81"/>
<text text-anchor="middle" x="459" y="-169" font-family="Helvetica,sans-Serif" font-size="10.00"> manager</text>
</g>
<!-- Node3 -->
<g id="node3" class="node">
<title>Node3</title>
<g id="a_node3"><a xlink:href="structfiftyone_degrees_resource_handle.html" target="_top" xlink:title="Handle for a shared resource.">
<polygon fill="none" stroke="black" points="549,-162 549,-181 722,-181 722,-162 549,-162"/>
<text text-anchor="middle" x="635.5" y="-169" font-family="Helvetica,sans-Serif" font-size="10.00">fiftyoneDegreesResourceHandle</text>
</a>
</g>
</g>
<!-- Node2&#45;&gt;Node3 -->
<g id="edge3" class="edge">
<title>Node2&#45;&gt;Node3</title>
<path fill="none" stroke="#9a32cd" stroke-dasharray="5,2" d="M515.61,-236.52C530.9,-230.9 548.86,-223.74 564.5,-216 585.88,-205.42 609.19,-190.41 623.07,-181.07"/>
<polygon fill="#9a32cd" stroke="#9a32cd" points="514.22,-233.3 506,-239.99 516.6,-239.89 514.22,-233.3"/>
<text text-anchor="middle" x="608" y="-208" font-family="Helvetica,sans-Serif" font-size="10.00"> manager</text>
</g>
<!-- Node11 -->
<g id="node11" class="node">
<title>Node11</title>
<g id="a_node11"><a xlink:href="class_resource_manager.html" target="_top" xlink:title=" ">
<polygon fill="none" stroke="black" points="449.5,-78.5 449.5,-97.5 553.5,-97.5 553.5,-78.5 449.5,-78.5"/>
<text text-anchor="middle" x="501.5" y="-85.5" font-family="Helvetica,sans-Serif" font-size="10.00">ResourceManager</text>
</a>
</g>
</g>
<!-- Node2&#45;&gt;Node11 -->
<g id="edge18" class="edge">
<title>Node2&#45;&gt;Node11</title>
<path fill="none" stroke="#9a32cd" stroke-dasharray="5,2" d="M482.96,-229.78C487.52,-195.2 497.08,-122.55 500.37,-97.62"/>
<polygon fill="#9a32cd" stroke="#9a32cd" points="479.46,-229.55 481.63,-239.92 486.4,-230.47 479.46,-229.55"/>
<text text-anchor="middle" x="515" y="-169" font-family="Helvetica,sans-Serif" font-size="10.00"> manager</text>
</g>
<!-- Node3&#45;&gt;Node2 -->
<g id="edge2" class="edge">
<title>Node3&#45;&gt;Node2</title>
<path fill="none" stroke="#9a32cd" stroke-dasharray="5,2" d="M584.61,-183.66C566.83,-188.73 547.17,-195.72 530.5,-205 513.61,-214.4 497.36,-230.2 488.18,-239.95"/>
<polygon fill="#9a32cd" stroke="#9a32cd" points="585.53,-187.03 594.26,-181.03 583.7,-180.28 585.53,-187.03"/>
<text text-anchor="middle" x="547.5" y="-208" font-family="Helvetica,sans-Serif" font-size="10.00"> active</text>
</g>
<!-- Node3&#45;&gt;Node11 -->
<g id="edge19" class="edge">
<title>Node3&#45;&gt;Node11</title>
<path fill="none" stroke="#9a32cd" stroke-dasharray="5,2" d="M612.49,-156.51C584.71,-139.61 538.84,-111.71 515.74,-97.66"/>
<polygon fill="#9a32cd" stroke="#9a32cd" points="610.8,-159.57 621.16,-161.78 614.43,-153.59 610.8,-159.57"/>
<text text-anchor="middle" x="620.5" y="-124.5" font-family="Helvetica,sans-Serif" font-size="10.00"> resourceHandle</text>
</g>
<!-- Node4 -->
<g id="node4" class="node">
<title>Node4</title>
<g id="a_node4"><a xlink:href="structfiftyone_degrees_interlock_double_width.html" target="_top" xlink:title="Double width (64 or 128 depending on the architecture) compare and exchange.">
<polygon fill="none" stroke="black" points="590,-234.5 590,-264.5 727,-264.5 727,-234.5 590,-234.5"/>
<text text-anchor="start" x="598" y="-252.5" font-family="Helvetica,sans-Serif" font-size="10.00">fiftyoneDegreesInterlock</text>
<text text-anchor="middle" x="658.5" y="-241.5" font-family="Helvetica,sans-Serif" font-size="10.00">DoubleWidth</text>
</a>
</g>
</g>
<!-- Node4&#45;&gt;Node3 -->
<g id="edge4" class="edge">
<title>Node4&#45;&gt;Node3</title>
<path fill="none" stroke="#9a32cd" stroke-dasharray="5,2" d="M651.27,-224.59C646.77,-209.74 641.26,-191.55 638.09,-181.06"/>
<polygon fill="#9a32cd" stroke="#9a32cd" points="647.93,-225.65 654.17,-234.2 654.63,-223.62 647.93,-225.65"/>
<text text-anchor="middle" x="667.5" y="-208" font-family="Helvetica,sans-Serif" font-size="10.00"> counter</text>
</g>
<!-- Node5 -->
<g id="node5" class="node">
<title>Node5</title>
<g id="a_node5"><a xlink:href="structshared_string_node.html" target="_top" xlink:title=" ">
<polygon fill="none" stroke="black" points="217.5,-162 217.5,-181 321.5,-181 321.5,-162 217.5,-162"/>
<text text-anchor="middle" x="269.5" y="-169" font-family="Helvetica,sans-Serif" font-size="10.00">sharedStringNode</text>
</a>
</g>
</g>
<!-- Node5&#45;&gt;Node1 -->
<g id="edge5" class="edge">
<title>Node5&#45;&gt;Node1</title>
<path fill="none" stroke="#9a32cd" stroke-dasharray="5,2" d="M277.75,-152.39C283.43,-141.15 291.69,-126.84 301.5,-116 308.01,-108.81 316.72,-102.34 324.05,-97.54"/>
<polygon fill="#9a32cd" stroke="#9a32cd" points="274.48,-151.13 273.3,-161.66 280.79,-154.16 274.48,-151.13"/>
<text text-anchor="middle" x="344" y="-130" font-family="Helvetica,sans-Serif" font-size="10.00"> sharedStringLast</text>
<text text-anchor="middle" x="344" y="-119" font-family="Helvetica,sans-Serif" font-size="10.00">sharedStringFirst</text>
</g>
<!-- Node5&#45;&gt;Node5 -->
<g id="edge6" class="edge">
<title>Node5&#45;&gt;Node5</title>
<path fill="none" stroke="#9a32cd" stroke-dasharray="5,2" d="M331.9,-176.83C336.61,-175.64 339.5,-173.87 339.5,-171.5 339.5,-167.71 332.09,-165.44 321.7,-164.67"/>
<polygon fill="#9a32cd" stroke="#9a32cd" points="331.09,-173.41 321.7,-178.33 332.11,-180.34 331.09,-173.41"/>
<text text-anchor="middle" x="352" y="-169" font-family="Helvetica,sans-Serif" font-size="10.00"> next</text>
</g>
<!-- Node6&#45;&gt;Node1 -->
<g id="edge7" class="edge">
<title>Node6&#45;&gt;Node1</title>
<path fill="none" stroke="#9a32cd" stroke-dasharray="5,2" d="M354.35,-28.33C356.06,-31.42 357.55,-34.7 358.5,-38 361.21,-47.39 361.56,-50.71 358.5,-60 356.23,-66.87 351.47,-73.42 347.16,-78.35"/>
<polygon fill="#9a32cd" stroke="#9a32cd" points="357.25,-26.37 348.88,-19.87 351.37,-30.17 357.25,-26.37"/>
<text text-anchor="middle" x="393.5" y="-46.5" font-family="Helvetica,sans-Serif" font-size="10.00"> threadStates</text>
</g>
<!-- Node7 -->
<g id="node7" class="node">
<title>Node7</title>
<g id="a_node7"><a xlink:href="structevidence_node.html" target="_top" xlink:title=" ">
<polygon fill="none" stroke="black" points="128.5,-78.5 128.5,-97.5 214.5,-97.5 214.5,-78.5 128.5,-78.5"/>
<text text-anchor="middle" x="171.5" y="-85.5" font-family="Helvetica,sans-Serif" font-size="10.00">evidenceNode</text>
</a>
</g>
</g>
<!-- Node7&#45;&gt;Node6 -->
<g id="edge8" class="edge">
<title>Node7&#45;&gt;Node6</title>
<path fill="none" stroke="#9a32cd" stroke-dasharray="5,2" d="M185.02,-70.67C194.87,-59.82 209.14,-46.12 224.5,-38 249.38,-24.84 280.55,-18.05 304.47,-14.58"/>
<polygon fill="#9a32cd" stroke="#9a32cd" points="182.32,-68.44 178.4,-78.28 187.6,-73.03 182.32,-68.44"/>
<text text-anchor="middle" x="258.5" y="-52" font-family="Helvetica,sans-Serif" font-size="10.00"> evidenceLast</text>
<text text-anchor="middle" x="258.5" y="-41" font-family="Helvetica,sans-Serif" font-size="10.00">evidenceFirst</text>
</g>
<!-- Node7&#45;&gt;Node7 -->
<g id="edge9" class="edge">
<title>Node7&#45;&gt;Node7</title>
<path fill="none" stroke="#9a32cd" stroke-dasharray="5,2" d="M224.75,-93.63C229.51,-92.45 232.5,-90.57 232.5,-88 232.5,-83.88 224.85,-81.55 214.54,-81"/>
<polygon fill="#9a32cd" stroke="#9a32cd" points="223.98,-90.2 214.54,-95 224.91,-97.14 223.98,-90.2"/>
<text text-anchor="middle" x="245" y="-85.5" font-family="Helvetica,sans-Serif" font-size="10.00"> next</text>
</g>
<!-- Node8 -->
<g id="node8" class="node">
<title>Node8</title>
<g id="a_node8"><a xlink:href="structfiftyone_degrees_evidence_key_value_pair_array.html" target="_top" xlink:title="Array of evidence key value pairs and a pointer to the next array if present or NULL of not present.">
<polygon fill="none" stroke="black" points="0.5,-156.5 0.5,-186.5 156.5,-186.5 156.5,-156.5 0.5,-156.5"/>
<text text-anchor="start" x="8.5" y="-174.5" font-family="Helvetica,sans-Serif" font-size="10.00">fiftyoneDegreesEvidenceKey</text>
<text text-anchor="middle" x="78.5" y="-163.5" font-family="Helvetica,sans-Serif" font-size="10.00">ValuePairArray</text>
</a>
</g>
</g>
<!-- Node8&#45;&gt;Node7 -->
<g id="edge10" class="edge">
<title>Node8&#45;&gt;Node7</title>
<path fill="none" stroke="#9a32cd" stroke-dasharray="5,2" d="M102.23,-149.71C121.52,-132.8 147.76,-109.81 161.76,-97.54"/>
<polygon fill="#9a32cd" stroke="#9a32cd" points="99.91,-147.08 94.7,-156.3 104.53,-152.35 99.91,-147.08"/>
<text text-anchor="middle" x="154" y="-124.5" font-family="Helvetica,sans-Serif" font-size="10.00"> array</text>
</g>
<!-- Node8&#45;&gt;Node8 -->
<g id="edge13" class="edge">
<title>Node8&#45;&gt;Node8</title>
<path fill="none" stroke="#9a32cd" stroke-dasharray="5,2" d="M166.74,-176.27C171.6,-175.11 174.5,-173.52 174.5,-171.5 174.5,-168.35 167.44,-166.24 156.85,-165.18"/>
<polygon fill="#9a32cd" stroke="#9a32cd" points="166.19,-172.82 156.85,-177.82 167.27,-179.73 166.19,-172.82"/>
<text text-anchor="middle" x="187" y="-174.5" font-family="Helvetica,sans-Serif" font-size="10.00"> prev</text>
<text text-anchor="middle" x="187" y="-163.5" font-family="Helvetica,sans-Serif" font-size="10.00">next</text>
</g>
<!-- Node9 -->
<g id="node9" class="node">
<title>Node9</title>
<g id="a_node9"><a xlink:href="structfiftyone_degrees_evidence_key_value_pair.html" target="_top" xlink:title="Evidence key value pair structure which combines the prefix, key and value.">
<polygon fill="none" stroke="black" points="0.5,-234.5 0.5,-264.5 156.5,-264.5 156.5,-234.5 0.5,-234.5"/>
<text text-anchor="start" x="8.5" y="-252.5" font-family="Helvetica,sans-Serif" font-size="10.00">fiftyoneDegreesEvidenceKey</text>
<text text-anchor="middle" x="78.5" y="-241.5" font-family="Helvetica,sans-Serif" font-size="10.00">ValuePair</text>
</a>
</g>
</g>
<!-- Node9&#45;&gt;Node8 -->
<g id="edge11" class="edge">
<title>Node9&#45;&gt;Node8</title>
<path fill="none" stroke="#9a32cd" stroke-dasharray="5,2" d="M78.5,-224.09C78.5,-211.76 78.5,-197.22 78.5,-186.73"/>
<polygon fill="#9a32cd" stroke="#9a32cd" points="75,-224.2 78.5,-234.2 82,-224.21 75,-224.2"/>
<text text-anchor="middle" x="94" y="-208" font-family="Helvetica,sans-Serif" font-size="10.00"> items</text>
</g>
<!-- Node10 -->
<g id="node10" class="node">
<title>Node10</title>
<g id="a_node10"><a xlink:href="structfiftyone_degrees_key_value_pair.html" target="_top" xlink:title=" ">
<polygon fill="none" stroke="black" points="0,-312.5 0,-331.5 157,-331.5 157,-312.5 0,-312.5"/>
<text text-anchor="middle" x="78.5" y="-319.5" font-family="Helvetica,sans-Serif" font-size="10.00">fiftyoneDegreesKeyValuePair</text>
</a>
</g>
</g>
<!-- Node10&#45;&gt;Node9 -->
<g id="edge12" class="edge">
<title>Node10&#45;&gt;Node9</title>
<path fill="none" stroke="#9a32cd" stroke-dasharray="5,2" d="M78.5,-302.24C78.5,-290.41 78.5,-275.38 78.5,-264.58"/>
<polygon fill="#9a32cd" stroke="#9a32cd" points="75,-302.36 78.5,-312.36 82,-302.36 75,-302.36"/>
<text text-anchor="middle" x="91.5" y="-286" font-family="Helvetica,sans-Serif" font-size="10.00"> item</text>
</g>
<!-- Node11&#45;&gt;Node6 -->
<g id="edge15" class="edge">
<title>Node11&#45;&gt;Node6</title>
<path fill="none" stroke="#9a32cd" stroke-dasharray="5,2" d="M482.93,-71.79C469.15,-61.12 449.53,-47.18 430.5,-38 414.21,-30.15 395.14,-24 378.84,-19.56"/>
<polygon fill="#9a32cd" stroke="#9a32cd" points="481.07,-74.78 491.08,-78.25 485.41,-69.3 481.07,-74.78"/>
<text text-anchor="middle" x="490" y="-46.5" font-family="Helvetica,sans-Serif" font-size="10.00"> manager</text>
</g>
<!-- Node12 -->
<g id="node12" class="node">
<title>Node12</title>
<g id="a_node12"><a xlink:href="class_base.html" target="_top" xlink:title="Base test class used to carry out memory leak checks.">
<polygon fill="none" stroke="black" points="752,-162 752,-181 793,-181 793,-162 752,-162"/>
<text text-anchor="middle" x="772.5" y="-169" font-family="Helvetica,sans-Serif" font-size="10.00">Base</text>
</a>
</g>
</g>
<!-- Node12&#45;&gt;Node11 -->
<g id="edge16" class="edge">
<title>Node12&#45;&gt;Node11</title>
<path fill="none" stroke="midnightblue" d="M750.16,-156.69C728.9,-144.17 695.63,-126.17 664.5,-116 628.51,-104.24 586.3,-97.43 553.85,-93.59"/>
<polygon fill="midnightblue" stroke="midnightblue" points="748.39,-159.7 758.76,-161.84 751.99,-153.7 748.39,-159.7"/>
</g>
<!-- Node13 -->
<g id="node13" class="node">
<title>Node13</title>
<g id="a_node13"><a xlink:title=" ">
<polygon fill="none" stroke="#bfbfbf" points="745.5,-240 745.5,-259 821.5,-259 821.5,-240 745.5,-240"/>
<text text-anchor="middle" x="783.5" y="-247" font-family="Helvetica,sans-Serif" font-size="10.00">testing::Test</text>
</a>
</g>
</g>
<!-- Node13&#45;&gt;Node12 -->
<g id="edge17" class="edge">
<title>Node13&#45;&gt;Node12</title>
<path fill="none" stroke="midnightblue" d="M780.78,-229.72C778.54,-214.2 775.45,-192.86 773.75,-181.12"/>
<polygon fill="midnightblue" stroke="midnightblue" points="777.34,-230.39 782.24,-239.78 784.27,-229.38 777.34,-230.39"/>
</g>
</g>
</svg>
