<?xml version="1.0" encoding="UTF-8" standalone="no"?>
<!DOCTYPE svg PUBLIC "-//W3C//DTD SVG 1.1//EN"
 "http://www.w3.org/Graphics/SVG/1.1/DTD/svg11.dtd">
<!-- Generated by graphviz version 2.43.0 (0)
 -->
<!-- Title: fiftyoneDegreesCollectionItem Pages: 1 -->
<svg width="255pt" height="184pt"
 viewBox="0.00 0.00 255.00 184.00" xmlns="http://www.w3.org/2000/svg" xmlns:xlink="http://www.w3.org/1999/xlink">
<g id="graph0" class="graph" transform="scale(1 1) rotate(0) translate(4 180)">
<title>fiftyoneDegreesCollectionItem</title>
<!-- Node1 -->
<g id="Node000001" class="node">
<title>Node1</title>
<g id="a_Node000001"><a xlink:title="Used to store a handle to the underlying item that could be used to release the item when it&#39;s finish...">
<polygon fill="#999999" stroke="#666666" points="165,-104 0,-104 0,-85 165,-85 165,-104"/>
<text text-anchor="middle" x="82.5" y="-92" font-family="Helvetica,sans-Serif" font-size="10.00">fiftyoneDegreesCollectionItem</text>
</a>
</g>
</g>
<!-- Node3 -->
<g id="Node000003" class="node">
<title>Node3</title>
<g id="a_Node000003"><a xlink:href="structfiftyone_degrees_collection.html" target="_top" xlink:title="All the shared methods and fields required by file, memory and cached collections.">
<polygon fill="white" stroke="#666666" points="154,-25.5 11,-25.5 11,-6.5 154,-6.5 154,-25.5"/>
<text text-anchor="middle" x="82.5" y="-13.5" font-family="Helvetica,sans-Serif" font-size="10.00">fiftyoneDegreesCollection</text>
</a>
</g>
</g>
<!-- Node1&#45;&gt;Node3 -->
<g id="edge4_Node000003_Node000001" class="edge">
<title>Node1&#45;&gt;Node3</title>
<g id="a_edge4_Node000003_Node000001"><a xlink:title=" ">
<path fill="none" stroke="#9a32cd" stroke-dasharray="5,2" d="M56.14,-78.82C52.25,-75.46 48.79,-71.52 46.5,-67 43.09,-60.26 43.46,-56.92 46.5,-50 51.01,-39.76 60.44,-31.3 68.52,-25.52"/>
<polygon fill="#9a32cd" stroke="#9a32cd" points="54.34,-81.85 64.49,-84.91 58.47,-76.19 54.34,-81.85"/>
</a>
</g>
<text text-anchor="start" x="50" y="-55.5" font-family="Helvetica,sans-Serif" font-size="10.00" fill="grey">release</text>
</g>
<!-- Node2 -->
<g id="Node000002" class="node">
<title>Node2</title>
<g id="a_Node000002"><a xlink:href="structfiftyone_degrees_data.html" target="_top" xlink:title="Data structure used for reusing memory which may have been allocated in a previous operation.">
<polygon fill="white" stroke="#666666" points="141,-176 24,-176 24,-157 141,-157 141,-176"/>
<text text-anchor="middle" x="82.5" y="-164" font-family="Helvetica,sans-Serif" font-size="10.00">fiftyoneDegreesData</text>
</a>
</g>
</g>
<!-- Node2&#45;&gt;Node1 -->
<g id="edge1_Node000001_Node000002" class="edge">
<title>Node2&#45;&gt;Node1</title>
<g id="a_edge1_Node000001_Node000002"><a xlink:title=" ">
<path fill="none" stroke="#9a32cd" stroke-dasharray="5,2" d="M82.5,-146.58C82.5,-132.76 82.5,-114.68 82.5,-104.15"/>
<polygon fill="#9a32cd" stroke="#9a32cd" points="79,-146.92 82.5,-156.92 86,-146.92 79,-146.92"/>
</a>
</g>
<text text-anchor="start" x="85.5" y="-127.5" font-family="Helvetica,sans-Serif" font-size="10.00" fill="grey">data</text>
</g>
<!-- Node3&#45;&gt;Node1 -->
<g id="edge2_Node000001_Node000003" class="edge">
<title>Node3&#45;&gt;Node1</title>
<g id="a_edge2_Node000001_Node000003"><a xlink:title=" ">
<path fill="none" stroke="#9a32cd" stroke-dasharray="5,2" d="M90.23,-35.34C93.27,-44.78 95.6,-56.49 93.5,-67 92.25,-73.25 89.5,-79.88 87.07,-84.94"/>
<polygon fill="#9a32cd" stroke="#9a32cd" points="93.46,-33.98 86.69,-25.83 86.9,-36.42 93.46,-33.98"/>
</a>
</g>
<text text-anchor="start" x="96.5" y="-55.5" font-family="Helvetica,sans-Serif" font-size="10.00" fill="grey">collection</text>
</g>
<!-- Node3&#45;&gt;Node3 -->
<g id="edge3_Node000003_Node000003" class="edge">
<title>Node3&#45;&gt;Node3</title>
<g id="a_edge3_Node000003_Node000003"><a xlink:title=" ">
<path fill="none" stroke="#9a32cd" stroke-dasharray="5,2" d="M164.11,-21.45C169.04,-20.16 172,-18.34 172,-16 172,-12.35 164.79,-9.97 154.13,-8.86"/>
<polygon fill="#9a32cd" stroke="#9a32cd" points="163.4,-18.02 154.13,-23.14 164.57,-24.92 163.4,-18.02"/>
</a>
</g>
<text text-anchor="start" x="175.5" y="-21" font-family="Helvetica,sans-Serif" font-size="10.00" fill="grey">freeCollection</text>
<text text-anchor="start" x="175.5" y="-6" font-family="Helvetica,sans-Serif" font-size="10.00" fill="grey">get</text>
</g>
</g>
</svg>
