<?xml version="1.0" encoding="UTF-8" standalone="no"?>
<!DOCTYPE svg PUBLIC "-//W3C//DTD SVG 1.1//EN"
 "http://www.w3.org/Graphics/SVG/1.1/DTD/svg11.dtd">
<!-- Generated by graphviz version 2.43.0 (0)
 -->
<!-- Title: fiftyoneDegreesDataSetIpi Pages: 1 -->
<svg width="2293pt" height="1107pt"
 viewBox="0.00 0.00 2293.00 1107.21" xmlns="http://www.w3.org/2000/svg" xmlns:xlink="http://www.w3.org/1999/xlink">
<g id="graph0" class="graph" transform="scale(1 1) rotate(0) translate(4 1103.21)">
<title>fiftyoneDegreesDataSetIpi</title>
<!-- Node1 -->
<g id="Node000001" class="node">
<title>Node1</title>
<g id="a_Node000001"><a xlink:title="Data set structure containing all the components used for IP intelligence.">
<polygon fill="#999999" stroke="#666666" points="2285,-388.71 2140,-388.71 2140,-369.71 2285,-369.71 2285,-388.71"/>
<text text-anchor="middle" x="2212.5" y="-376.71" font-family="Helvetica,sans-Serif" font-size="10.00">fiftyoneDegreesDataSetIpi</text>
</a>
</g>
</g>
<!-- Node2 -->
<g id="Node000002" class="node">
<title>Node2</title>
<g id="a_Node000002"><a xlink:href="structfiftyone_degrees_data_set_ipi_base.html" target="_top" xlink:title="Data set structure which contains the base dataset structure.">
<polygon fill="white" stroke="#666666" points="2038,-722.71 1869,-722.71 1869,-703.71 2038,-703.71 2038,-722.71"/>
<text text-anchor="middle" x="1953.5" y="-710.71" font-family="Helvetica,sans-Serif" font-size="10.00">fiftyoneDegreesDataSetIpiBase</text>
</a>
</g>
</g>
<!-- Node2&#45;&gt;Node1 -->
<g id="edge1_Node000001_Node000002" class="edge">
<title>Node2&#45;&gt;Node1</title>
<g id="a_edge1_Node000001_Node000002"><a xlink:title=" ">
<path fill="none" stroke="#9a32cd" stroke-dasharray="5,2" d="M2003.31,-700.65C2040.52,-688.74 2090.55,-667.34 2122,-632.21 2190.06,-556.19 2207.17,-425.08 2210.7,-388.77"/>
<polygon fill="#9a32cd" stroke="#9a32cd" points="2002.19,-697.33 1993.67,-703.62 2004.25,-704.02 2002.19,-697.33"/>
</a>
</g>
<text text-anchor="start" x="2086" y="-683.71" font-family="Helvetica,sans-Serif" font-size="10.00" fill="grey">b</text>
</g>
<!-- Node3 -->
<g id="Node000003" class="node">
<title>Node3</title>
<g id="a_Node000003"><a xlink:href="structfiftyone_degrees_data_set_base.html" target="_top" xlink:title="Base data set structure which contains the &#39;must have&#39;s for all data sets.">
<polygon fill="white" stroke="#666666" points="1744.5,-894.71 1587.5,-894.71 1587.5,-875.71 1744.5,-875.71 1744.5,-894.71"/>
<text text-anchor="middle" x="1666" y="-882.71" font-family="Helvetica,sans-Serif" font-size="10.00">fiftyoneDegreesDataSetBase</text>
</a>
</g>
</g>
<!-- Node3&#45;&gt;Node2 -->
<g id="edge2_Node000002_Node000003" class="edge">
<title>Node3&#45;&gt;Node2</title>
<g id="a_edge2_Node000002_Node000003"><a xlink:title=" ">
<path fill="none" stroke="#9a32cd" stroke-dasharray="5,2" d="M1691.95,-870.18C1749.28,-835.64 1889.14,-751.38 1936.51,-722.84"/>
<polygon fill="#9a32cd" stroke="#9a32cd" points="1689.93,-867.31 1683.17,-875.47 1693.54,-873.31 1689.93,-867.31"/>
</a>
</g>
<text text-anchor="start" x="1810" y="-824.71" font-family="Helvetica,sans-Serif" font-size="10.00" fill="grey">b</text>
</g>
<!-- Node4 -->
<g id="Node000004" class="node">
<title>Node4</title>
<g id="a_Node000004"><a xlink:href="structfiftyone_degrees_file_pool.html" target="_top" xlink:title="Stack of handles used to read data from a single source file.">
<polygon fill="white" stroke="#666666" points="1410.5,-980.71 1278.5,-980.71 1278.5,-961.71 1410.5,-961.71 1410.5,-980.71"/>
<text text-anchor="middle" x="1344.5" y="-968.71" font-family="Helvetica,sans-Serif" font-size="10.00">fiftyoneDegreesFilePool</text>
</a>
</g>
</g>
<!-- Node4&#45;&gt;Node3 -->
<g id="edge3_Node000003_Node000004" class="edge">
<title>Node4&#45;&gt;Node3</title>
<g id="a_edge3_Node000003_Node000004"><a xlink:title=" ">
<path fill="none" stroke="#9a32cd" stroke-dasharray="5,2" d="M1420.7,-965.04C1461.68,-960.3 1512.89,-952.12 1557,-938.21 1591.46,-927.34 1628.67,-906.96 1649.17,-894.88"/>
<polygon fill="#9a32cd" stroke="#9a32cd" points="1420.07,-961.59 1410.52,-966.17 1420.84,-968.55 1420.07,-961.59"/>
</a>
</g>
<text text-anchor="start" x="1486" y="-965.71" font-family="Helvetica,sans-Serif" font-size="10.00" fill="grey">filePool</text>
</g>
<!-- Node5 -->
<g id="Node000005" class="node">
<title>Node5</title>
<g id="a_Node000005"><a xlink:href="structfiftyone_degrees_pool.html" target="_top" xlink:title="Pool of resources stored as items in a stack.">
<polygon fill="white" stroke="#666666" points="1005,-1008.71 890,-1008.71 890,-989.71 1005,-989.71 1005,-1008.71"/>
<text text-anchor="middle" x="947.5" y="-996.71" font-family="Helvetica,sans-Serif" font-size="10.00">fiftyoneDegreesPool</text>
</a>
</g>
</g>
<!-- Node5&#45;&gt;Node4 -->
<g id="edge4_Node000004_Node000005" class="edge">
<title>Node5&#45;&gt;Node4</title>
<g id="a_edge4_Node000004_Node000005"><a xlink:title=" ">
<path fill="none" stroke="#9a32cd" stroke-dasharray="5,2" d="M978.2,-985.5C999.81,-976.31 1030.06,-965.04 1058,-960.21 1135.11,-946.89 1225.59,-954.16 1283.69,-961.71"/>
<polygon fill="#9a32cd" stroke="#9a32cd" points="976.69,-982.34 968.92,-989.55 979.48,-988.76 976.69,-982.34"/>
</a>
</g>
<text text-anchor="start" x="1137" y="-965.71" font-family="Helvetica,sans-Serif" font-size="10.00" fill="grey">pool</text>
</g>
<!-- Node5&#45;&gt;Node5 -->
<g id="edge8_Node000005_Node000005" class="edge">
<title>Node5&#45;&gt;Node5</title>
<g id="a_edge8_Node000005_Node000005"><a xlink:title=" ">
<path fill="none" stroke="#9a32cd" stroke-dasharray="5,2" d="M913.39,-1016.78C913.89,-1022.33 925.26,-1026.71 947.5,-1026.71 979.85,-1026.71 989.2,-1017.44 975.55,-1008.79"/>
<polygon fill="#9a32cd" stroke="#9a32cd" points="916.2,-1018.88 919.45,-1008.79 910.62,-1014.65 916.2,-1018.88"/>
</a>
</g>
<text text-anchor="start" x="915.5" y="-1032.21" font-family="Helvetica,sans-Serif" font-size="10.00" fill="grey">resourceFree</text>
</g>
<!-- Node6 -->
<g id="Node000006" class="node">
<title>Node6</title>
<g id="a_Node000006"><a xlink:href="structfiftyone_degrees_pool_item.html" target="_top" xlink:title="Pool item node in the stack of items.">
<polygon fill="white" stroke="#666666" points="1413,-1037.71 1276,-1037.71 1276,-1018.71 1413,-1018.71 1413,-1037.71"/>
<text text-anchor="middle" x="1344.5" y="-1025.71" font-family="Helvetica,sans-Serif" font-size="10.00">fiftyoneDegreesPoolItem</text>
</a>
</g>
</g>
<!-- Node5&#45;&gt;Node6 -->
<g id="edge6_Node000006_Node000005" class="edge">
<title>Node5&#45;&gt;Node6</title>
<g id="a_edge6_Node000006_Node000005"><a xlink:title=" ">
<path fill="none" stroke="#9a32cd" stroke-dasharray="5,2" d="M1015.46,-992.59C1074.4,-988.16 1162.37,-984.99 1238,-996.21 1266.59,-1000.45 1298.16,-1010.82 1319.24,-1018.61"/>
<polygon fill="#9a32cd" stroke="#9a32cd" points="1014.87,-989.12 1005.17,-993.39 1015.41,-996.1 1014.87,-989.12"/>
</a>
</g>
<text text-anchor="start" x="1137" y="-1001.71" font-family="Helvetica,sans-Serif" font-size="10.00" fill="grey">pool</text>
</g>
<!-- Node6&#45;&gt;Node5 -->
<g id="edge5_Node000005_Node000006" class="edge">
<title>Node6&#45;&gt;Node5</title>
<g id="a_edge5_Node000005_Node000006"><a xlink:title=" ">
<path fill="none" stroke="#9a32cd" stroke-dasharray="5,2" d="M1265.74,-1027.82C1208.23,-1026.9 1128.07,-1024.29 1058,-1017.21 1038.35,-1015.22 1016.88,-1011.94 998.2,-1008.72"/>
<polygon fill="#9a32cd" stroke="#9a32cd" points="1265.79,-1031.32 1275.84,-1027.97 1265.9,-1024.32 1265.79,-1031.32"/>
</a>
</g>
<text text-anchor="start" x="1135" y="-1031.71" font-family="Helvetica,sans-Serif" font-size="10.00" fill="grey">stack</text>
</g>
<!-- Node7 -->
<g id="Node000007" class="node">
<title>Node7</title>
<g id="a_Node000007"><a xlink:href="unionfiftyone_degrees_pool_head.html" target="_top" xlink:title="The head of the stack used for pop and push operations.">
<polygon fill="white" stroke="#666666" points="656,-1008.71 516,-1008.71 516,-989.71 656,-989.71 656,-1008.71"/>
<text text-anchor="middle" x="586" y="-996.71" font-family="Helvetica,sans-Serif" font-size="10.00">fiftyoneDegreesPoolHead</text>
</a>
</g>
</g>
<!-- Node7&#45;&gt;Node5 -->
<g id="edge7_Node000005_Node000007" class="edge">
<title>Node7&#45;&gt;Node5</title>
<g id="a_edge7_Node000005_Node000007"><a xlink:title=" ">
<path fill="none" stroke="#9a32cd" stroke-dasharray="5,2" d="M666.51,-999.21C734.16,-999.21 829.66,-999.21 889.81,-999.21"/>
<polygon fill="#9a32cd" stroke="#9a32cd" points="666.32,-995.71 656.32,-999.21 666.32,-1002.71 666.32,-995.71"/>
</a>
</g>
<text text-anchor="start" x="753.5" y="-1004.71" font-family="Helvetica,sans-Serif" font-size="10.00" fill="grey">head</text>
</g>
<!-- Node8 -->
<g id="Node000008" class="node">
<title>Node8</title>
<g id="a_Node000008"><a xlink:href="structfiftyone_degrees_resource_handle.html" target="_top" xlink:title="Handle for a shared resource.">
<polygon fill="white" stroke="#666666" points="1431,-1075.71 1258,-1075.71 1258,-1056.71 1431,-1056.71 1431,-1075.71"/>
<text text-anchor="middle" x="1344.5" y="-1063.71" font-family="Helvetica,sans-Serif" font-size="10.00">fiftyoneDegreesResourceHandle</text>
</a>
</g>
</g>
<!-- Node8&#45;&gt;Node3 -->
<g id="edge9_Node000003_Node000008" class="edge">
<title>Node8&#45;&gt;Node3</title>
<g id="a_edge9_Node000003_Node000008"><a xlink:title=" ">
<path fill="none" stroke="#9a32cd" stroke-dasharray="5,2" d="M1410.48,-1054.2C1418.16,-1052.17 1425.82,-1049.84 1433,-1047.21 1436.66,-1045.87 1553.8,-983.44 1557,-981.21 1596.74,-953.56 1637.95,-913.03 1655.82,-894.77"/>
<polygon fill="#9a32cd" stroke="#9a32cd" points="1409.63,-1050.81 1400.77,-1056.63 1411.32,-1057.6 1409.63,-1050.81"/>
</a>
</g>
<text text-anchor="start" x="1487" y="-1042.71" font-family="Helvetica,sans-Serif" font-size="10.00" fill="grey">handle</text>
</g>
<!-- Node10 -->
<g id="Node000010" class="node">
<title>Node10</title>
<g id="a_Node000010"><a xlink:href="structfiftyone_degrees_resource_manager.html" target="_top" xlink:title="Manager structure used to provide access to a shared and changing resource.">
<polygon fill="white" stroke="#666666" points="1757,-1090.71 1575,-1090.71 1575,-1071.71 1757,-1071.71 1757,-1090.71"/>
<text text-anchor="middle" x="1666" y="-1078.71" font-family="Helvetica,sans-Serif" font-size="10.00">fiftyoneDegreesResourceManager</text>
</a>
</g>
</g>
<!-- Node8&#45;&gt;Node10 -->
<g id="edge12_Node000010_Node000008" class="edge">
<title>Node8&#45;&gt;Node10</title>
<g id="a_edge12_Node000010_Node000008"><a xlink:title=" ">
<path fill="none" stroke="#9a32cd" stroke-dasharray="5,2" d="M1423.49,-1076.82C1432.75,-1077.79 1442.07,-1078.62 1451,-1079.21 1491.6,-1081.89 1536.62,-1082.64 1574.85,-1082.63"/>
<polygon fill="#9a32cd" stroke="#9a32cd" points="1423.82,-1073.34 1413.49,-1075.74 1423.06,-1080.3 1423.82,-1073.34"/>
</a>
</g>
<text text-anchor="start" x="1489" y="-1087.71" font-family="Helvetica,sans-Serif" font-size="10.00" fill="grey">active</text>
</g>
<!-- Node9 -->
<g id="Node000009" class="node">
<title>Node9</title>
<g id="a_Node000009"><a xlink:href="structfiftyone_degrees_interlock_double_width.html" target="_top" xlink:title="Double width (64 or 128 depending on the architecture) compare and exchange.">
<polygon fill="white" stroke="#666666" points="1016,-1094.21 879,-1094.21 879,-1064.21 1016,-1064.21 1016,-1094.21"/>
<text text-anchor="start" x="887" y="-1082.21" font-family="Helvetica,sans-Serif" font-size="10.00">fiftyoneDegreesInterlock</text>
<text text-anchor="middle" x="947.5" y="-1071.21" font-family="Helvetica,sans-Serif" font-size="10.00">DoubleWidth</text>
</a>
</g>
</g>
<!-- Node9&#45;&gt;Node8 -->
<g id="edge10_Node000008_Node000009" class="edge">
<title>Node9&#45;&gt;Node8</title>
<g id="a_edge10_Node000008_Node000009"><a xlink:title=" ">
<path fill="none" stroke="#9a32cd" stroke-dasharray="5,2" d="M1026.44,-1076.64C1093.16,-1074.45 1189.06,-1071.29 1257.9,-1069.03"/>
<polygon fill="#9a32cd" stroke="#9a32cd" points="1026.28,-1073.15 1016.4,-1076.97 1026.51,-1080.14 1026.28,-1073.15"/>
</a>
</g>
<text text-anchor="start" x="1130" y="-1080.71" font-family="Helvetica,sans-Serif" font-size="10.00" fill="grey">counter</text>
</g>
<!-- Node10&#45;&gt;Node8 -->
<g id="edge11_Node000008_Node000010" class="edge">
<title>Node10&#45;&gt;Node8</title>
<g id="a_edge11_Node000008_Node000010"><a xlink:title=" ">
<path fill="none" stroke="#9a32cd" stroke-dasharray="5,2" d="M1611.2,-1069.84C1593.97,-1066.72 1574.76,-1063.76 1557,-1062.21 1515.66,-1058.6 1469.6,-1058.96 1431.05,-1060.48"/>
<polygon fill="#9a32cd" stroke="#9a32cd" points="1610.62,-1073.3 1621.09,-1071.7 1611.91,-1066.42 1610.62,-1073.3"/>
</a>
</g>
<text text-anchor="start" x="1482" y="-1067.71" font-family="Helvetica,sans-Serif" font-size="10.00" fill="grey">manager</text>
</g>
<!-- Node11 -->
<g id="Node000011" class="node">
<title>Node11</title>
<g id="a_Node000011"><a xlink:href="structfiftyone_degrees_property_available_array.html" target="_top" xlink:title="Array of items of type fiftyoneDegreesPropertyAvailable used to easily access and track the size of t...">
<polygon fill="white" stroke="#666666" points="1238,-855.21 1058,-855.21 1058,-825.21 1238,-825.21 1238,-855.21"/>
<text text-anchor="start" x="1066" y="-843.21" font-family="Helvetica,sans-Serif" font-size="10.00">fiftyoneDegreesPropertyAvailable</text>
<text text-anchor="middle" x="1148" y="-832.21" font-family="Helvetica,sans-Serif" font-size="10.00">Array</text>
</a>
</g>
</g>
<!-- Node11&#45;&gt;Node3 -->
<g id="edge13_Node000003_Node000011" class="edge">
<title>Node11&#45;&gt;Node3</title>
<g id="a_edge13_Node000003_Node000011"><a xlink:title=" ">
<path fill="none" stroke="#9a32cd" stroke-dasharray="5,2" d="M1248.1,-840.92C1302.73,-842.01 1371.72,-844.53 1433,-850.21 1495.26,-855.98 1566.27,-867.42 1613.15,-875.65"/>
<polygon fill="#9a32cd" stroke="#9a32cd" points="1248.13,-837.42 1238.07,-840.73 1248,-844.42 1248.13,-837.42"/>
</a>
</g>
<text text-anchor="start" x="1321.5" y="-855.71" font-family="Helvetica,sans-Serif" font-size="10.00" fill="grey">available</text>
</g>
<!-- Node12 -->
<g id="Node000012" class="node">
<title>Node12</title>
<g id="a_Node000012"><a xlink:href="structfiftyone_degrees_property_available.html" target="_top" xlink:title="Used to access the property item quickly without the need to search.">
<polygon fill="white" stroke="#666666" points="676,-849.71 496,-849.71 496,-830.71 676,-830.71 676,-849.71"/>
<text text-anchor="middle" x="586" y="-837.71" font-family="Helvetica,sans-Serif" font-size="10.00">fiftyoneDegreesPropertyAvailable</text>
</a>
</g>
</g>
<!-- Node12&#45;&gt;Node11 -->
<g id="edge14_Node000011_Node000012" class="edge">
<title>Node12&#45;&gt;Node11</title>
<g id="a_edge14_Node000011_Node000012"><a xlink:title=" ">
<path fill="none" stroke="#9a32cd" stroke-dasharray="5,2" d="M686.05,-840.21C791.38,-840.21 956.47,-840.21 1057.86,-840.21"/>
<polygon fill="#9a32cd" stroke="#9a32cd" points="686.04,-836.71 676.04,-840.21 686.04,-843.71 686.04,-836.71"/>
</a>
</g>
<text text-anchor="start" x="751.5" y="-845.71" font-family="Helvetica,sans-Serif" font-size="10.00" fill="grey">items</text>
</g>
<!-- Node19 -->
<g id="Node000019" class="node">
<title>Node19</title>
<g id="a_Node000019"><a xlink:href="structfiftyone_degrees_override_property.html" target="_top" xlink:title="Index and pointer to a property which can be overridden.">
<polygon fill="white" stroke="#666666" points="1036,-910.71 859,-910.71 859,-891.71 1036,-891.71 1036,-910.71"/>
<text text-anchor="middle" x="947.5" y="-898.71" font-family="Helvetica,sans-Serif" font-size="10.00">fiftyoneDegreesOverrideProperty</text>
</a>
</g>
</g>
<!-- Node12&#45;&gt;Node19 -->
<g id="edge24_Node000019_Node000012" class="edge">
<title>Node12&#45;&gt;Node19</title>
<g id="a_edge24_Node000019_Node000012"><a xlink:title=" ">
<path fill="none" stroke="#9a32cd" stroke-dasharray="5,2" d="M643.46,-851.69C659.75,-854.9 677.56,-858.29 694,-861.21 757.91,-872.54 831.21,-883.98 882.31,-891.7"/>
<polygon fill="#9a32cd" stroke="#9a32cd" points="644.03,-848.24 633.54,-849.73 642.67,-855.1 644.03,-848.24"/>
</a>
</g>
<text text-anchor="start" x="742.5" y="-888.71" font-family="Helvetica,sans-Serif" font-size="10.00" fill="grey">available</text>
</g>
<!-- Node13 -->
<g id="Node000013" class="node">
<title>Node13</title>
<g id="a_Node000013"><a xlink:href="structfiftyone_degrees_collection_item.html" target="_top" xlink:title="Used to store a handle to the underlying item that could be used to release the item when it&#39;s finish...">
<polygon fill="white" stroke="#666666" points="353,-583.71 188,-583.71 188,-564.71 353,-564.71 353,-583.71"/>
<text text-anchor="middle" x="270.5" y="-571.71" font-family="Helvetica,sans-Serif" font-size="10.00">fiftyoneDegreesCollectionItem</text>
</a>
</g>
</g>
<!-- Node13&#45;&gt;Node12 -->
<g id="edge15_Node000012_Node000013" class="edge">
<title>Node13&#45;&gt;Node12</title>
<g id="a_edge15_Node000012_Node000013"><a xlink:title=" ">
<path fill="none" stroke="#9a32cd" stroke-dasharray="5,2" d="M290.87,-590.65C350.04,-640.85 527.16,-791.13 573.7,-830.62"/>
<polygon fill="#9a32cd" stroke="#9a32cd" points="292.92,-587.79 283.03,-583.99 288.39,-593.13 292.92,-587.79"/>
</a>
</g>
<text text-anchor="start" x="414" y="-751.71" font-family="Helvetica,sans-Serif" font-size="10.00" fill="grey">name</text>
</g>
<!-- Node15 -->
<g id="Node000015" class="node">
<title>Node15</title>
<g id="a_Node000015"><a xlink:href="structfiftyone_degrees_collection.html" target="_top" xlink:title="All the shared methods and fields required by file, memory and cached collections.">
<polygon fill="white" stroke="#666666" points="837,-583.71 694,-583.71 694,-564.71 837,-564.71 837,-583.71"/>
<text text-anchor="middle" x="765.5" y="-571.71" font-family="Helvetica,sans-Serif" font-size="10.00">fiftyoneDegreesCollection</text>
</a>
</g>
</g>
<!-- Node13&#45;&gt;Node15 -->
<g id="edge19_Node000015_Node000013" class="edge">
<title>Node13&#45;&gt;Node15</title>
<g id="a_edge19_Node000015_Node000013"><a xlink:title=" ">
<path fill="none" stroke="#9a32cd" stroke-dasharray="5,2" d="M320.18,-562.54C338.23,-558.76 358.94,-555.07 378,-553.21 490.7,-542.2 622.48,-554.78 699.4,-564.67"/>
<polygon fill="#9a32cd" stroke="#9a32cd" points="319.22,-559.17 310.18,-564.7 320.69,-566.01 319.22,-559.17"/>
</a>
</g>
<text text-anchor="start" x="410" y="-558.71" font-family="Helvetica,sans-Serif" font-size="10.00" fill="grey">release</text>
</g>
<!-- Node27 -->
<g id="Node000027" class="node">
<title>Node27</title>
<g id="a_Node000027"><a xlink:href="structfiftyone_degrees_list.html" target="_top" xlink:title="List structure which contains a list of collection items.">
<polygon fill="white" stroke="#666666" points="821,-479.71 710,-479.71 710,-460.71 821,-460.71 821,-479.71"/>
<text text-anchor="middle" x="765.5" y="-467.71" font-family="Helvetica,sans-Serif" font-size="10.00">fiftyoneDegreesList</text>
</a>
</g>
</g>
<!-- Node13&#45;&gt;Node27 -->
<g id="edge34_Node000027_Node000013" class="edge">
<title>Node13&#45;&gt;Node27</title>
<g id="a_edge34_Node000027_Node000013"><a xlink:title=" ">
<path fill="none" stroke="#9a32cd" stroke-dasharray="5,2" d="M298.02,-560.1C319.13,-549.47 349.71,-535.37 378,-527.21 493.34,-493.91 633.95,-479.41 709.75,-473.63"/>
<polygon fill="#9a32cd" stroke="#9a32cd" points="296.34,-557.03 289.04,-564.7 299.53,-563.26 296.34,-557.03"/>
</a>
</g>
<text text-anchor="start" x="414" y="-532.71" font-family="Helvetica,sans-Serif" font-size="10.00" fill="grey">items</text>
</g>
<!-- Node14 -->
<g id="Node000014" class="node">
<title>Node14</title>
<g id="a_Node000014"><a xlink:href="structfiftyone_degrees_data.html" target="_top" xlink:title="Data structure used for reusing memory which may have been allocated in a previous operation.">
<polygon fill="white" stroke="#666666" points="117,-583.71 0,-583.71 0,-564.71 117,-564.71 117,-583.71"/>
<text text-anchor="middle" x="58.5" y="-571.71" font-family="Helvetica,sans-Serif" font-size="10.00">fiftyoneDegreesData</text>
</a>
</g>
</g>
<!-- Node14&#45;&gt;Node13 -->
<g id="edge16_Node000013_Node000014" class="edge">
<title>Node14&#45;&gt;Node13</title>
<g id="a_edge16_Node000013_Node000014"><a xlink:title=" ">
<path fill="none" stroke="#9a32cd" stroke-dasharray="5,2" d="M127.37,-574.21C146.69,-574.21 167.94,-574.21 187.98,-574.21"/>
<polygon fill="#9a32cd" stroke="#9a32cd" points="127.16,-570.71 117.16,-574.21 127.16,-577.71 127.16,-570.71"/>
</a>
</g>
<text text-anchor="start" x="138" y="-579.71" font-family="Helvetica,sans-Serif" font-size="10.00" fill="grey">data</text>
</g>
<!-- Node15&#45;&gt;Node1 -->
<g id="edge32_Node000001_Node000015" class="edge">
<title>Node15&#45;&gt;Node1</title>
<g id="a_edge32_Node000001_Node000015"><a xlink:title=" ">
<path fill="none" stroke="#9a32cd" stroke-dasharray="5,2" d="M826.93,-585.55C901.78,-598.59 1033.31,-618.21 1147,-618.21 1147,-618.21 1147,-618.21 1954.5,-618.21 2091.59,-618.21 2186.23,-433.59 2207.14,-388.87"/>
<polygon fill="#9a32cd" stroke="#9a32cd" points="827.21,-582.04 816.76,-583.76 826,-588.94 827.21,-582.04"/>
</a>
</g>
<text text-anchor="start" x="1469" y="-773.71" font-family="Helvetica,sans-Serif" font-size="10.00" fill="grey">components</text>
<text text-anchor="start" x="1469" y="-758.71" font-family="Helvetica,sans-Serif" font-size="10.00" fill="grey">graphs</text>
<text text-anchor="start" x="1469" y="-743.71" font-family="Helvetica,sans-Serif" font-size="10.00" fill="grey">maps</text>
<text text-anchor="start" x="1469" y="-728.71" font-family="Helvetica,sans-Serif" font-size="10.00" fill="grey">profileGroups</text>
<text text-anchor="start" x="1469" y="-713.71" font-family="Helvetica,sans-Serif" font-size="10.00" fill="grey">profileOffsets</text>
<text text-anchor="start" x="1469" y="-698.71" font-family="Helvetica,sans-Serif" font-size="10.00" fill="grey">profiles</text>
<text text-anchor="start" x="1469" y="-683.71" font-family="Helvetica,sans-Serif" font-size="10.00" fill="grey">properties</text>
<text text-anchor="start" x="1469" y="-668.71" font-family="Helvetica,sans-Serif" font-size="10.00" fill="grey">propertyTypes</text>
<text text-anchor="start" x="1469" y="-653.71" font-family="Helvetica,sans-Serif" font-size="10.00" fill="grey">strings</text>
<text text-anchor="start" x="1469" y="-638.71" font-family="Helvetica,sans-Serif" font-size="10.00" fill="grey">values</text>
<text text-anchor="start" x="1469" y="-623.71" font-family="Helvetica,sans-Serif" font-size="10.00" fill="grey"> &#160;...</text>
</g>
<!-- Node15&#45;&gt;Node13 -->
<g id="edge17_Node000013_Node000015" class="edge">
<title>Node15&#45;&gt;Node13</title>
<g id="a_edge17_Node000013_Node000015"><a xlink:title=" ">
<path fill="none" stroke="#9a32cd" stroke-dasharray="5,2" d="M683.84,-574.21C592.6,-574.21 444.84,-574.21 353.19,-574.21"/>
<polygon fill="#9a32cd" stroke="#9a32cd" points="683.86,-577.71 693.86,-574.21 683.86,-570.71 683.86,-577.71"/>
</a>
</g>
<text text-anchor="start" x="404" y="-579.71" font-family="Helvetica,sans-Serif" font-size="10.00" fill="grey">collection</text>
</g>
<!-- Node15&#45;&gt;Node15 -->
<g id="edge18_Node000015_Node000015" class="edge">
<title>Node15&#45;&gt;Node15</title>
<g id="a_edge18_Node000015_Node000015"><a xlink:title=" ">
<path fill="none" stroke="#9a32cd" stroke-dasharray="5,2" d="M732.19,-592.16C733.14,-597.53 744.24,-601.71 765.5,-601.71 797.14,-601.71 806.28,-592.44 792.93,-583.79"/>
<polygon fill="#9a32cd" stroke="#9a32cd" points="735.18,-593.99 738.07,-583.79 729.45,-589.96 735.18,-593.99"/>
</a>
</g>
<text text-anchor="start" x="731.5" y="-622.71" font-family="Helvetica,sans-Serif" font-size="10.00" fill="grey">freeCollection</text>
<text text-anchor="start" x="731.5" y="-607.71" font-family="Helvetica,sans-Serif" font-size="10.00" fill="grey">get</text>
</g>
<!-- Node29 -->
<g id="Node000029" class="node">
<title>Node29</title>
<g id="a_Node000029"><a xlink:href="structfiftyone_degrees_ipi_cg.html" target="_top" xlink:title="The information and a working collection to retrieve entries from the component graph.">
<polygon fill="white" stroke="#666666" points="1725.5,-332.71 1606.5,-332.71 1606.5,-313.71 1725.5,-313.71 1725.5,-332.71"/>
<text text-anchor="middle" x="1666" y="-320.71" font-family="Helvetica,sans-Serif" font-size="10.00">fiftyoneDegreesIpiCg</text>
</a>
</g>
</g>
<!-- Node15&#45;&gt;Node29 -->
<g id="edge42_Node000029_Node000015" class="edge">
<title>Node15&#45;&gt;Node29</title>
<g id="a_edge42_Node000029_Node000015"><a xlink:title=" ">
<path fill="none" stroke="#9a32cd" stroke-dasharray="5,2" d="M839.31,-563.09C980.98,-540.04 1302.15,-480.8 1557,-382.21 1592.07,-368.64 1629.97,-345.84 1650.23,-332.92"/>
<polygon fill="#9a32cd" stroke="#9a32cd" points="838.74,-559.64 829.43,-564.69 839.86,-566.55 838.74,-559.64"/>
</a>
</g>
<text text-anchor="start" x="1122" y="-572.21" font-family="Helvetica,sans-Serif" font-size="10.00" fill="grey">clusters</text>
<text text-anchor="start" x="1122" y="-557.21" font-family="Helvetica,sans-Serif" font-size="10.00" fill="grey">nodes</text>
<text text-anchor="start" x="1122" y="-542.21" font-family="Helvetica,sans-Serif" font-size="10.00" fill="grey">spanBytes</text>
<text text-anchor="start" x="1122" y="-527.21" font-family="Helvetica,sans-Serif" font-size="10.00" fill="grey">spans</text>
</g>
<!-- Node16 -->
<g id="Node000016" class="node">
<title>Node16</title>
<g id="a_Node000016"><a xlink:href="structfiftyone_degrees_evidence_property_index_array.html" target="_top" xlink:title="Array of items of type fiftyoneDegreesEvidencePropertyIndex used to easily access and track the size ...">
<polygon fill="white" stroke="#666666" points="360,-855.21 181,-855.21 181,-825.21 360,-825.21 360,-855.21"/>
<text text-anchor="start" x="189" y="-843.21" font-family="Helvetica,sans-Serif" font-size="10.00">fiftyoneDegreesEvidenceProperty</text>
<text text-anchor="middle" x="270.5" y="-832.21" font-family="Helvetica,sans-Serif" font-size="10.00">IndexArray</text>
</a>
</g>
</g>
<!-- Node16&#45;&gt;Node12 -->
<g id="edge20_Node000012_Node000016" class="edge">
<title>Node16&#45;&gt;Node12</title>
<g id="a_edge20_Node000012_Node000016"><a xlink:title=" ">
<path fill="none" stroke="#9a32cd" stroke-dasharray="5,2" d="M370.17,-840.21C410.42,-840.21 456.61,-840.21 495.82,-840.21"/>
<polygon fill="#9a32cd" stroke="#9a32cd" points="370.08,-836.71 360.08,-840.21 370.08,-843.71 370.08,-836.71"/>
</a>
</g>
<text text-anchor="start" x="381" y="-845.71" font-family="Helvetica,sans-Serif" font-size="10.00" fill="grey">evidenceProperties</text>
</g>
<!-- Node17 -->
<g id="Node000017" class="node">
<title>Node17</title>
<g id="a_Node000017"><a xlink:href="structfiftyone_degrees_header_array.html" target="_top" xlink:title="Array of Headers which should always be ordered in ascending order of fullHeaderId.">
<polygon fill="white" stroke="#666666" points="1422,-894.71 1267,-894.71 1267,-875.71 1422,-875.71 1422,-894.71"/>
<text text-anchor="middle" x="1344.5" y="-882.71" font-family="Helvetica,sans-Serif" font-size="10.00">fiftyoneDegreesHeaderArray</text>
</a>
</g>
</g>
<!-- Node17&#45;&gt;Node3 -->
<g id="edge21_Node000003_Node000017" class="edge">
<title>Node17&#45;&gt;Node3</title>
<g id="a_edge21_Node000003_Node000017"><a xlink:title=" ">
<path fill="none" stroke="#9a32cd" stroke-dasharray="5,2" d="M1432.19,-885.21C1480.64,-885.21 1540.53,-885.21 1587.43,-885.21"/>
<polygon fill="#9a32cd" stroke="#9a32cd" points="1432.03,-881.71 1422.03,-885.21 1432.03,-888.71 1432.03,-881.71"/>
</a>
</g>
<text text-anchor="start" x="1467" y="-890.71" font-family="Helvetica,sans-Serif" font-size="10.00" fill="grey">uniqueHeaders</text>
</g>
<!-- Node18 -->
<g id="Node000018" class="node">
<title>Node18</title>
<g id="a_Node000018"><a xlink:href="structfiftyone_degrees_override_property_array.html" target="_top" xlink:title="Array of items of type fiftyoneDegreesOverrideProperty used to easily access and track the size of th...">
<polygon fill="white" stroke="#666666" points="1433,-943.21 1256,-943.21 1256,-913.21 1433,-913.21 1433,-943.21"/>
<text text-anchor="start" x="1264" y="-931.21" font-family="Helvetica,sans-Serif" font-size="10.00">fiftyoneDegreesOverrideProperty</text>
<text text-anchor="middle" x="1344.5" y="-920.21" font-family="Helvetica,sans-Serif" font-size="10.00">Array</text>
</a>
</g>
</g>
<!-- Node18&#45;&gt;Node3 -->
<g id="edge22_Node000003_Node000018" class="edge">
<title>Node18&#45;&gt;Node3</title>
<g id="a_edge22_Node000003_Node000018"><a xlink:title=" ">
<path fill="none" stroke="#9a32cd" stroke-dasharray="5,2" d="M1443.1,-918.39C1478.98,-914.46 1519.89,-909.57 1557,-904.21 1575.84,-901.48 1596.44,-897.99 1614.55,-894.74"/>
<polygon fill="#9a32cd" stroke="#9a32cd" points="1442.68,-914.92 1433.12,-919.48 1443.44,-921.88 1442.68,-914.92"/>
</a>
</g>
<text text-anchor="start" x="1476" y="-922.71" font-family="Helvetica,sans-Serif" font-size="10.00" fill="grey">overridable</text>
</g>
<!-- Node19&#45;&gt;Node18 -->
<g id="edge23_Node000018_Node000019" class="edge">
<title>Node19&#45;&gt;Node18</title>
<g id="a_edge23_Node000018_Node000019"><a xlink:title=" ">
<path fill="none" stroke="#9a32cd" stroke-dasharray="5,2" d="M1046.53,-907.39C1102.61,-911 1174.26,-915.7 1238,-920.21 1243.77,-920.62 1249.72,-921.05 1255.71,-921.48"/>
<polygon fill="#9a32cd" stroke="#9a32cd" points="1046.45,-903.88 1036.25,-906.74 1046,-910.87 1046.45,-903.88"/>
</a>
</g>
<text text-anchor="start" x="1134" y="-925.71" font-family="Helvetica,sans-Serif" font-size="10.00" fill="grey">items</text>
</g>
<!-- Node20 -->
<g id="Node000020" class="node">
<title>Node20</title>
<g id="a_Node000020"><a xlink:href="structfiftyone_degrees_indices_property_profile.html" target="_top" xlink:title="Maps the profile index and the property index to the first value index of the profile for the propert...">
<polygon fill="white" stroke="#666666" points="1429.5,-804.21 1259.5,-804.21 1259.5,-774.21 1429.5,-774.21 1429.5,-804.21"/>
<text text-anchor="start" x="1267.5" y="-792.21" font-family="Helvetica,sans-Serif" font-size="10.00">fiftyoneDegreesIndicesProperty</text>
<text text-anchor="middle" x="1344.5" y="-781.21" font-family="Helvetica,sans-Serif" font-size="10.00">Profile</text>
</a>
</g>
</g>
<!-- Node20&#45;&gt;Node3 -->
<g id="edge25_Node000003_Node000020" class="edge">
<title>Node20&#45;&gt;Node3</title>
<g id="a_edge25_Node000003_Node000020"><a xlink:title=" ">
<path fill="none" stroke="#9a32cd" stroke-dasharray="5,2" d="M1439.96,-787.78C1477.37,-789.86 1520.16,-795.6 1557,-809.21 1597.86,-824.3 1637.56,-858.85 1655.31,-875.67"/>
<polygon fill="#9a32cd" stroke="#9a32cd" points="1439.71,-784.27 1429.56,-787.29 1439.38,-791.26 1439.71,-784.27"/>
</a>
</g>
<text text-anchor="start" x="1454" y="-814.71" font-family="Helvetica,sans-Serif" font-size="10.00" fill="grey">indexPropertyProfile</text>
</g>
<!-- Node21 -->
<g id="Node000021" class="node">
<title>Node21</title>
<g id="a_Node000021"><a xlink:href="structfiftyone_degrees_data_set_ipi_header.html" target="_top" xlink:title="DATA STRUCTURES.">
<polygon fill="white" stroke="#666666" points="1020,-81.21 875,-81.21 875,-51.21 1020,-51.21 1020,-81.21"/>
<text text-anchor="start" x="883" y="-69.21" font-family="Helvetica,sans-Serif" font-size="10.00">fiftyoneDegreesDataSetIpi</text>
<text text-anchor="middle" x="947.5" y="-58.21" font-family="Helvetica,sans-Serif" font-size="10.00">Header</text>
</a>
</g>
</g>
<!-- Node21&#45;&gt;Node1 -->
<g id="edge26_Node000001_Node000021" class="edge">
<title>Node21&#45;&gt;Node1</title>
<g id="a_edge26_Node000001_Node000021"><a xlink:title=" ">
<path fill="none" stroke="#9a32cd" stroke-dasharray="5,2" d="M1003.32,-84.3C1078.96,-107.63 1220.02,-145.21 1343.5,-145.21 1343.5,-145.21 1343.5,-145.21 1954.5,-145.21 2089.97,-145.21 2185.48,-325.17 2206.94,-369.45"/>
<polygon fill="#9a32cd" stroke="#9a32cd" points="1004.12,-80.89 993.53,-81.25 1002.04,-87.57 1004.12,-80.89"/>
</a>
</g>
<text text-anchor="start" x="1649" y="-150.71" font-family="Helvetica,sans-Serif" font-size="10.00" fill="grey">header</text>
</g>
<!-- Node22 -->
<g id="Node000022" class="node">
<title>Node22</title>
<g id="a_Node000022"><a xlink:href="structfiftyone_degrees_date.html" target="_top" xlink:title="Used to store the date when the dataset was produced and next date 51Degrees expect to provide a new ...">
<polygon fill="white" stroke="#666666" points="644.5,-20.71 527.5,-20.71 527.5,-1.71 644.5,-1.71 644.5,-20.71"/>
<text text-anchor="middle" x="586" y="-8.71" font-family="Helvetica,sans-Serif" font-size="10.00">fiftyoneDegreesDate</text>
</a>
</g>
</g>
<!-- Node22&#45;&gt;Node21 -->
<g id="edge27_Node000021_Node000022" class="edge">
<title>Node22&#45;&gt;Node21</title>
<g id="a_edge27_Node000021_Node000022"><a xlink:title=" ">
<path fill="none" stroke="#9a32cd" stroke-dasharray="5,2" d="M654.91,-3.3C705.75,0.65 776.62,2 837,-12.21 868.98,-19.73 902.38,-37.94 923.75,-51.14"/>
<polygon fill="#9a32cd" stroke="#9a32cd" points="654.38,0.16 644.7,-4.16 654.96,-6.81 654.38,0.16"/>
</a>
</g>
<text text-anchor="start" x="736.5" y="-33.21" font-family="Helvetica,sans-Serif" font-size="10.00" fill="grey">nextUpdate</text>
<text text-anchor="start" x="736.5" y="-18.21" font-family="Helvetica,sans-Serif" font-size="10.00" fill="grey">published</text>
</g>
<!-- Node23 -->
<g id="Node000023" class="node">
<title>Node23</title>
<g id="a_Node000023"><a xlink:href="structfiftyone_degrees_collection_header.html" target="_top" xlink:title="Collection header structure which defines the size and location of the collection data.">
<polygon fill="white" stroke="#666666" points="657.5,-263.21 514.5,-263.21 514.5,-233.21 657.5,-233.21 657.5,-263.21"/>
<text text-anchor="start" x="522.5" y="-251.21" font-family="Helvetica,sans-Serif" font-size="10.00">fiftyoneDegreesCollection</text>
<text text-anchor="middle" x="586" y="-240.21" font-family="Helvetica,sans-Serif" font-size="10.00">Header</text>
</a>
</g>
</g>
<!-- Node23&#45;&gt;Node21 -->
<g id="edge28_Node000021_Node000023" class="edge">
<title>Node23&#45;&gt;Node21</title>
<g id="a_edge28_Node000021_Node000023"><a xlink:title=" ">
<path fill="none" stroke="#9a32cd" stroke-dasharray="5,2" d="M593.18,-223.38C604.92,-182.26 634.71,-101.19 694,-67.21 723.71,-50.18 811.22,-53.56 874.9,-58.79"/>
<polygon fill="#9a32cd" stroke="#9a32cd" points="589.77,-222.59 590.52,-233.15 596.53,-224.43 589.77,-222.59"/>
</a>
</g>
<text text-anchor="start" x="730.5" y="-222.71" font-family="Helvetica,sans-Serif" font-size="10.00" fill="grey">components</text>
<text text-anchor="start" x="730.5" y="-207.71" font-family="Helvetica,sans-Serif" font-size="10.00" fill="grey">graphs</text>
<text text-anchor="start" x="730.5" y="-192.71" font-family="Helvetica,sans-Serif" font-size="10.00" fill="grey">maps</text>
<text text-anchor="start" x="730.5" y="-177.71" font-family="Helvetica,sans-Serif" font-size="10.00" fill="grey">profileGroups</text>
<text text-anchor="start" x="730.5" y="-162.71" font-family="Helvetica,sans-Serif" font-size="10.00" fill="grey">profileOffsets</text>
<text text-anchor="start" x="730.5" y="-147.71" font-family="Helvetica,sans-Serif" font-size="10.00" fill="grey">profiles</text>
<text text-anchor="start" x="730.5" y="-132.71" font-family="Helvetica,sans-Serif" font-size="10.00" fill="grey">properties</text>
<text text-anchor="start" x="730.5" y="-117.71" font-family="Helvetica,sans-Serif" font-size="10.00" fill="grey">propertyTypes</text>
<text text-anchor="start" x="730.5" y="-102.71" font-family="Helvetica,sans-Serif" font-size="10.00" fill="grey">strings</text>
<text text-anchor="start" x="730.5" y="-87.71" font-family="Helvetica,sans-Serif" font-size="10.00" fill="grey">values</text>
<text text-anchor="start" x="730.5" y="-72.71" font-family="Helvetica,sans-Serif" font-size="10.00" fill="grey"> &#160;...</text>
</g>
<!-- Node30 -->
<g id="Node000030" class="node">
<title>Node30</title>
<g id="a_Node000030"><a xlink:href="structfiftyone_degrees_ipi_cg_info.html" target="_top" xlink:title="Fixed width record in the collection where the record relates to a component and IP version.">
<polygon fill="white" stroke="#666666" points="1413,-330.71 1276,-330.71 1276,-311.71 1413,-311.71 1413,-330.71"/>
<text text-anchor="middle" x="1344.5" y="-318.71" font-family="Helvetica,sans-Serif" font-size="10.00">fiftyoneDegreesIpiCgInfo</text>
</a>
</g>
</g>
<!-- Node23&#45;&gt;Node30 -->
<g id="edge38_Node000030_Node000023" class="edge">
<title>Node23&#45;&gt;Node30</title>
<g id="a_edge38_Node000030_Node000023"><a xlink:title=" ">
<path fill="none" stroke="#9a32cd" stroke-dasharray="5,2" d="M667.73,-245.26C758.57,-242.99 910.38,-242.39 1040,-257.21 1138.71,-268.5 1252.78,-296.76 1308.8,-311.66"/>
<polygon fill="#9a32cd" stroke="#9a32cd" points="667.41,-241.76 657.5,-245.53 667.59,-248.76 667.41,-241.76"/>
</a>
</g>
<text text-anchor="start" x="921.5" y="-292.71" font-family="Helvetica,sans-Serif" font-size="10.00" fill="grey">clusters</text>
<text text-anchor="start" x="921.5" y="-277.71" font-family="Helvetica,sans-Serif" font-size="10.00" fill="grey">spanBytes</text>
<text text-anchor="start" x="921.5" y="-262.71" font-family="Helvetica,sans-Serif" font-size="10.00" fill="grey">spans</text>
</g>
<!-- Node31 -->
<g id="Node000031" class="node">
<title>Node31</title>
<g id="a_Node000031"><a xlink:href="structfiftyone_degrees_ipi_cg_member_node.html" target="_top" xlink:title="Data structure used for the values collection.">
<polygon fill="white" stroke="#666666" points="1040,-332.71 855,-332.71 855,-313.71 1040,-313.71 1040,-332.71"/>
<text text-anchor="middle" x="947.5" y="-320.71" font-family="Helvetica,sans-Serif" font-size="10.00">fiftyoneDegreesIpiCgMemberNode</text>
</a>
</g>
</g>
<!-- Node23&#45;&gt;Node31 -->
<g id="edge40_Node000031_Node000023" class="edge">
<title>Node23&#45;&gt;Node31</title>
<g id="a_edge40_Node000031_Node000023"><a xlink:title=" ">
<path fill="none" stroke="#9a32cd" stroke-dasharray="5,2" d="M667.53,-265.01C739.44,-280.01 842.2,-301.45 900.84,-313.68"/>
<polygon fill="#9a32cd" stroke="#9a32cd" points="668.1,-261.55 657.6,-262.94 666.67,-268.41 668.1,-261.55"/>
</a>
</g>
<text text-anchor="start" x="741.5" y="-304.71" font-family="Helvetica,sans-Serif" font-size="10.00" fill="grey">collection</text>
</g>
<!-- Node24 -->
<g id="Node000024" class="node">
<title>Node24</title>
<g id="a_Node000024"><a xlink:href="structfiftyone_degrees_config_ipi.html" target="_top" xlink:title="IP Intelligence specific configuration structure.">
<polygon fill="white" stroke="#666666" points="2022,-408.71 1885,-408.71 1885,-389.71 2022,-389.71 2022,-408.71"/>
<text text-anchor="middle" x="1953.5" y="-396.71" font-family="Helvetica,sans-Serif" font-size="10.00">fiftyoneDegreesConfigIpi</text>
</a>
</g>
</g>
<!-- Node24&#45;&gt;Node1 -->
<g id="edge29_Node000001_Node000024" class="edge">
<title>Node24&#45;&gt;Node1</title>
<g id="a_edge29_Node000001_Node000024"><a xlink:title=" ">
<path fill="none" stroke="#9a32cd" stroke-dasharray="5,2" d="M2032,-393.18C2066.29,-390.51 2106.36,-387.39 2139.93,-384.78"/>
<polygon fill="#9a32cd" stroke="#9a32cd" points="2031.72,-389.69 2022.02,-393.95 2032.27,-396.67 2031.72,-389.69"/>
</a>
</g>
<text text-anchor="start" x="2074" y="-396.71" font-family="Helvetica,sans-Serif" font-size="10.00" fill="grey">config</text>
</g>
<!-- Node25 -->
<g id="Node000025" class="node">
<title>Node25</title>
<g id="a_Node000025"><a xlink:href="structfiftyone_degrees_config_base.html" target="_top" xlink:title="Base configuration structure containing common configuration options, and options that apply to struc...">
<polygon fill="white" stroke="#666666" points="1740.5,-408.71 1591.5,-408.71 1591.5,-389.71 1740.5,-389.71 1740.5,-408.71"/>
<text text-anchor="middle" x="1666" y="-396.71" font-family="Helvetica,sans-Serif" font-size="10.00">fiftyoneDegreesConfigBase</text>
</a>
</g>
</g>
<!-- Node25&#45;&gt;Node24 -->
<g id="edge30_Node000024_Node000025" class="edge">
<title>Node25&#45;&gt;Node24</title>
<g id="a_edge30_Node000024_Node000025"><a xlink:title=" ">
<path fill="none" stroke="#9a32cd" stroke-dasharray="5,2" d="M1751.02,-397.5C1759.13,-397.38 1767.22,-397.28 1775,-397.21 1808.78,-396.9 1817.22,-396.88 1851,-397.21 1861.93,-397.32 1873.51,-397.49 1884.8,-397.69"/>
<polygon fill="#9a32cd" stroke="#9a32cd" points="1750.72,-394.01 1740.78,-397.66 1750.83,-401 1750.72,-394.01"/>
</a>
</g>
<text text-anchor="start" x="1810" y="-402.71" font-family="Helvetica,sans-Serif" font-size="10.00" fill="grey">b</text>
</g>
<!-- Node26 -->
<g id="Node000026" class="node">
<title>Node26</title>
<g id="a_Node000026"><a xlink:href="structfiftyone_degrees_collection_config.html" target="_top" xlink:title="Collection configuration structure which defines how the collection should be created by the create m...">
<polygon fill="white" stroke="#666666" points="1737.5,-457.21 1594.5,-457.21 1594.5,-427.21 1737.5,-427.21 1737.5,-457.21"/>
<text text-anchor="start" x="1602.5" y="-445.21" font-family="Helvetica,sans-Serif" font-size="10.00">fiftyoneDegreesCollection</text>
<text text-anchor="middle" x="1666" y="-434.21" font-family="Helvetica,sans-Serif" font-size="10.00">Config</text>
</a>
</g>
</g>
<!-- Node26&#45;&gt;Node24 -->
<g id="edge31_Node000024_Node000026" class="edge">
<title>Node26&#45;&gt;Node24</title>
<g id="a_edge31_Node000024_Node000026"><a xlink:title=" ">
<path fill="none" stroke="#9a32cd" stroke-dasharray="5,2" d="M1747.56,-430.08C1792.36,-423.33 1847.34,-415.05 1889.06,-408.76"/>
<polygon fill="#9a32cd" stroke="#9a32cd" points="1746.94,-426.63 1737.57,-431.58 1747.98,-433.55 1746.94,-426.63"/>
</a>
</g>
<text text-anchor="start" x="1778" y="-580.71" font-family="Helvetica,sans-Serif" font-size="10.00" fill="grey">components</text>
<text text-anchor="start" x="1778" y="-565.71" font-family="Helvetica,sans-Serif" font-size="10.00" fill="grey">graph</text>
<text text-anchor="start" x="1778" y="-550.71" font-family="Helvetica,sans-Serif" font-size="10.00" fill="grey">graphs</text>
<text text-anchor="start" x="1778" y="-535.71" font-family="Helvetica,sans-Serif" font-size="10.00" fill="grey">maps</text>
<text text-anchor="start" x="1778" y="-520.71" font-family="Helvetica,sans-Serif" font-size="10.00" fill="grey">profileGroups</text>
<text text-anchor="start" x="1778" y="-505.71" font-family="Helvetica,sans-Serif" font-size="10.00" fill="grey">profileOffsets</text>
<text text-anchor="start" x="1778" y="-490.71" font-family="Helvetica,sans-Serif" font-size="10.00" fill="grey">profiles</text>
<text text-anchor="start" x="1778" y="-475.71" font-family="Helvetica,sans-Serif" font-size="10.00" fill="grey">properties</text>
<text text-anchor="start" x="1778" y="-460.71" font-family="Helvetica,sans-Serif" font-size="10.00" fill="grey">propertyTypes</text>
<text text-anchor="start" x="1778" y="-445.71" font-family="Helvetica,sans-Serif" font-size="10.00" fill="grey">strings</text>
<text text-anchor="start" x="1778" y="-430.71" font-family="Helvetica,sans-Serif" font-size="10.00" fill="grey"> &#160;...</text>
</g>
<!-- Node27&#45;&gt;Node1 -->
<g id="edge33_Node000001_Node000027" class="edge">
<title>Node27&#45;&gt;Node1</title>
<g id="a_edge33_Node000001_Node000027"><a xlink:title=" ">
<path fill="none" stroke="#9a32cd" stroke-dasharray="5,2" d="M794.93,-456.13C857.13,-426.67 1010.68,-361.21 1147,-361.21 1147,-361.21 1147,-361.21 1954.5,-361.21 2017.23,-361.21 2088.36,-366.61 2139.86,-371.5"/>
<polygon fill="#9a32cd" stroke="#9a32cd" points="793.25,-453.06 785.74,-460.54 796.27,-459.37 793.25,-453.06"/>
</a>
</g>
<text text-anchor="start" x="1465" y="-366.71" font-family="Helvetica,sans-Serif" font-size="10.00" fill="grey">componentsList</text>
</g>
<!-- Node28 -->
<g id="Node000028" class="node">
<title>Node28</title>
<g id="a_Node000028"><a xlink:href="structfiftyone_degrees_ipi_cg_array.html" target="_top" xlink:title="An array of all the component graphs and collections available.">
<polygon fill="white" stroke="#666666" points="2026,-332.71 1881,-332.71 1881,-313.71 2026,-313.71 2026,-332.71"/>
<text text-anchor="middle" x="1953.5" y="-320.71" font-family="Helvetica,sans-Serif" font-size="10.00">fiftyoneDegreesIpiCgArray</text>
</a>
</g>
</g>
<!-- Node28&#45;&gt;Node1 -->
<g id="edge35_Node000001_Node000028" class="edge">
<title>Node28&#45;&gt;Node1</title>
<g id="a_edge35_Node000001_Node000028"><a xlink:title=" ">
<path fill="none" stroke="#9a32cd" stroke-dasharray="5,2" d="M2036.16,-319.19C2063.83,-319.77 2094.65,-322.6 2122,-330.21 2151.52,-338.42 2182.02,-357.91 2198.69,-369.69"/>
<polygon fill="#9a32cd" stroke="#9a32cd" points="2036.16,-315.69 2026.11,-319.07 2036.07,-322.69 2036.16,-315.69"/>
</a>
</g>
<text text-anchor="start" x="2059" y="-335.71" font-family="Helvetica,sans-Serif" font-size="10.00" fill="grey">graphsArray</text>
</g>
<!-- Node29&#45;&gt;Node28 -->
<g id="edge36_Node000028_Node000029" class="edge">
<title>Node29&#45;&gt;Node28</title>
<g id="a_edge36_Node000028_Node000029"><a xlink:title=" ">
<path fill="none" stroke="#9a32cd" stroke-dasharray="5,2" d="M1735.82,-323.21C1779.7,-323.21 1836.45,-323.21 1880.87,-323.21"/>
<polygon fill="#9a32cd" stroke="#9a32cd" points="1735.81,-319.71 1725.81,-323.21 1735.81,-326.71 1735.81,-319.71"/>
</a>
</g>
<text text-anchor="start" x="1799" y="-328.71" font-family="Helvetica,sans-Serif" font-size="10.00" fill="grey">items</text>
</g>
<!-- Node30&#45;&gt;Node29 -->
<g id="edge37_Node000029_Node000030" class="edge">
<title>Node30&#45;&gt;Node29</title>
<g id="a_edge37_Node000029_Node000030"><a xlink:title=" ">
<path fill="none" stroke="#9a32cd" stroke-dasharray="5,2" d="M1423.34,-321.49C1463.29,-321.66 1512.75,-321.9 1557,-322.21 1573.03,-322.32 1590.4,-322.47 1606.43,-322.62"/>
<polygon fill="#9a32cd" stroke="#9a32cd" points="1423.14,-317.99 1413.13,-321.45 1423.11,-324.99 1423.14,-317.99"/>
</a>
</g>
<text text-anchor="start" x="1495" y="-327.71" font-family="Helvetica,sans-Serif" font-size="10.00" fill="grey">info</text>
</g>
<!-- Node31&#45;&gt;Node30 -->
<g id="edge39_Node000030_Node000031" class="edge">
<title>Node31&#45;&gt;Node30</title>
<g id="a_edge39_Node000030_Node000031"><a xlink:title=" ">
<path fill="none" stroke="#9a32cd" stroke-dasharray="5,2" d="M1050.41,-322.69C1121.31,-322.33 1213.87,-321.87 1275.82,-321.55"/>
<polygon fill="#9a32cd" stroke="#9a32cd" points="1050.1,-319.19 1040.11,-322.74 1050.13,-326.19 1050.1,-319.19"/>
</a>
</g>
<text text-anchor="start" x="1133" y="-328.71" font-family="Helvetica,sans-Serif" font-size="10.00" fill="grey">nodes</text>
</g>
<!-- Node32 -->
<g id="Node000032" class="node">
<title>Node32</title>
<g id="a_Node000032"><a xlink:href="structfiftyone_degrees_ipi_cg_member.html" target="_top" xlink:title="DATA STRUCTURES.">
<polygon fill="white" stroke="#666666" points="665.5,-332.71 506.5,-332.71 506.5,-313.71 665.5,-313.71 665.5,-332.71"/>
<text text-anchor="middle" x="586" y="-320.71" font-family="Helvetica,sans-Serif" font-size="10.00">fiftyoneDegreesIpiCgMember</text>
</a>
</g>
</g>
<!-- Node32&#45;&gt;Node31 -->
<g id="edge41_Node000031_Node000032" class="edge">
<title>Node32&#45;&gt;Node31</title>
<g id="a_edge41_Node000031_Node000032"><a xlink:title=" ">
<path fill="none" stroke="#9a32cd" stroke-dasharray="5,2" d="M676.21,-323.21C730.59,-323.21 799.94,-323.21 854.77,-323.21"/>
<polygon fill="#9a32cd" stroke="#9a32cd" points="675.89,-319.71 665.89,-323.21 675.89,-326.71 675.89,-319.71"/>
</a>
</g>
<text text-anchor="start" x="740.5" y="-358.71" font-family="Helvetica,sans-Serif" font-size="10.00" fill="grey">lowFlag</text>
<text text-anchor="start" x="740.5" y="-343.71" font-family="Helvetica,sans-Serif" font-size="10.00" fill="grey">spanIndex</text>
<text text-anchor="start" x="740.5" y="-328.71" font-family="Helvetica,sans-Serif" font-size="10.00" fill="grey">value</text>
</g>
</g>
</svg>
