<?xml version="1.0" encoding="UTF-8" standalone="no"?>
<!DOCTYPE svg PUBLIC "-//W3C//DTD SVG 1.1//EN"
 "http://www.w3.org/Graphics/SVG/1.1/DTD/svg11.dtd">
<!-- Generated by graphviz version 2.43.0 (0)
 -->
<!-- Title: performanceState Pages: 1 -->
<svg width="794pt" height="367pt"
 viewBox="0.00 0.00 793.50 367.00" xmlns="http://www.w3.org/2000/svg" xmlns:xlink="http://www.w3.org/1999/xlink">
<g id="graph0" class="graph" transform="scale(1 1) rotate(0) translate(4 363)">
<title>performanceState</title>
<!-- Node1 -->
<g id="Node000001" class="node">
<title>Node1</title>
<g id="a_Node000001"><a xlink:title="Shared performance state.">
<polygon fill="#999999" stroke="#666666" points="362.5,-106 258.5,-106 258.5,-87 362.5,-87 362.5,-106"/>
<text text-anchor="middle" x="310.5" y="-94" font-family="Helvetica,sans-Serif" font-size="10.00">performanceState</text>
</a>
</g>
</g>
<!-- Node6 -->
<g id="Node000006" class="node">
<title>Node6</title>
<g id="a_Node000006"><a xlink:href="structthread_state.html" target="_top" xlink:title="State specific to a single thread.">
<polygon fill="white" stroke="#666666" points="344.5,-19 270.5,-19 270.5,0 344.5,0 344.5,-19"/>
<text text-anchor="middle" x="307.5" y="-7" font-family="Helvetica,sans-Serif" font-size="10.00">threadState</text>
</a>
</g>
</g>
<!-- Node1&#45;&gt;Node6 -->
<g id="edge8_Node000006_Node000001" class="edge">
<title>Node1&#45;&gt;Node6</title>
<g id="a_edge8_Node000006_Node000001"><a xlink:title=" ">
<path fill="none" stroke="#9a32cd" stroke-dasharray="5,2" d="M276.33,-81.52C271.6,-78.12 267.38,-73.99 264.5,-69 257.38,-56.69 257.57,-49.42 264.5,-37 268.95,-29.04 276.88,-23.17 284.73,-19.01"/>
<polygon fill="#9a32cd" stroke="#9a32cd" points="274.84,-84.7 285.21,-86.86 278.45,-78.71 274.84,-84.7"/>
</a>
</g>
<text text-anchor="start" x="268" y="-50" font-family="Helvetica,sans-Serif" font-size="10.00" fill="grey">mainState</text>
</g>
<!-- Node2 -->
<g id="Node000002" class="node">
<title>Node2</title>
<g id="a_Node000002"><a xlink:href="structfiftyone_degrees_resource_manager.html" target="_top" xlink:title="Manager structure used to provide access to a shared and changing resource.">
<polygon fill="white" stroke="#666666" points="535.5,-281.5 353.5,-281.5 353.5,-262.5 535.5,-262.5 535.5,-281.5"/>
<text text-anchor="middle" x="444.5" y="-269.5" font-family="Helvetica,sans-Serif" font-size="10.00">fiftyoneDegreesResourceManager</text>
</a>
</g>
</g>
<!-- Node2&#45;&gt;Node1 -->
<g id="edge1_Node000001_Node000002" class="edge">
<title>Node2&#45;&gt;Node1</title>
<g id="a_edge1_Node000001_Node000002"><a xlink:title=" ">
<path fill="none" stroke="#9a32cd" stroke-dasharray="5,2" d="M432.71,-254.08C423.34,-240.58 409.96,-221.16 398.5,-204 374.94,-168.74 375.6,-154.85 346.5,-124 340,-117.11 331.52,-110.77 324.42,-106.02"/>
<polygon fill="#9a32cd" stroke="#9a32cd" points="429.89,-256.16 438.48,-262.37 435.64,-252.17 429.89,-256.16"/>
</a>
</g>
<text text-anchor="start" x="401.5" y="-186" font-family="Helvetica,sans-Serif" font-size="10.00" fill="grey">manager</text>
</g>
<!-- Node3 -->
<g id="Node000003" class="node">
<title>Node3</title>
<g id="a_Node000003"><a xlink:href="structfiftyone_degrees_resource_handle.html" target="_top" xlink:title="Handle for a shared resource.">
<polygon fill="white" stroke="#666666" points="688,-198.5 515,-198.5 515,-179.5 688,-179.5 688,-198.5"/>
<text text-anchor="middle" x="601.5" y="-186.5" font-family="Helvetica,sans-Serif" font-size="10.00">fiftyoneDegreesResourceHandle</text>
</a>
</g>
</g>
<!-- Node2&#45;&gt;Node3 -->
<g id="edge4_Node000003_Node000002" class="edge">
<title>Node2&#45;&gt;Node3</title>
<g id="a_edge4_Node000003_Node000002"><a xlink:title=" ">
<path fill="none" stroke="#9a32cd" stroke-dasharray="5,2" d="M480.29,-258.86C494.92,-253.44 511.82,-246.56 526.5,-239 538.95,-232.59 570.97,-210.97 588.89,-198.7"/>
<polygon fill="#9a32cd" stroke="#9a32cd" points="478.79,-255.68 470.58,-262.38 481.18,-262.27 478.79,-255.68"/>
</a>
</g>
<text text-anchor="start" x="554.5" y="-227.5" font-family="Helvetica,sans-Serif" font-size="10.00" fill="grey">manager</text>
</g>
<!-- Node11 -->
<g id="Node000011" class="node">
<title>Node11</title>
<g id="a_Node000011"><a xlink:href="class_resource_manager.html" target="_top" xlink:title=" ">
<polygon fill="white" stroke="#bfbfbf" points="516.5,-106 412.5,-106 412.5,-87 516.5,-87 516.5,-106"/>
<text text-anchor="middle" x="464.5" y="-94" font-family="Helvetica,sans-Serif" font-size="10.00">ResourceManager</text>
</a>
</g>
</g>
<!-- Node2&#45;&gt;Node11 -->
<g id="edge17_Node000011_Node000002" class="edge">
<title>Node2&#45;&gt;Node11</title>
<g id="a_edge17_Node000011_Node000002"><a xlink:title=" ">
<path fill="none" stroke="#9a32cd" stroke-dasharray="5,2" d="M446.68,-252.11C450.98,-214.78 460.43,-132.85 463.51,-106.12"/>
<polygon fill="#9a32cd" stroke="#9a32cd" points="443.19,-251.82 445.52,-262.16 450.14,-252.62 443.19,-251.82"/>
</a>
</g>
<text text-anchor="start" x="457.5" y="-186" font-family="Helvetica,sans-Serif" font-size="10.00" fill="grey">manager</text>
</g>
<!-- Node3&#45;&gt;Node2 -->
<g id="edge2_Node000002_Node000003" class="edge">
<title>Node3&#45;&gt;Node2</title>
<g id="a_edge2_Node000002_Node000003"><a xlink:title=" ">
<path fill="none" stroke="#9a32cd" stroke-dasharray="5,2" d="M539.78,-201.15C522.69,-205.92 504.68,-212.63 489.5,-222 472.4,-232.56 457.76,-251.4 450.13,-262.39"/>
<polygon fill="#9a32cd" stroke="#9a32cd" points="540.92,-204.47 549.71,-198.55 539.15,-197.69 540.92,-204.47"/>
</a>
</g>
<text text-anchor="start" x="493" y="-227.5" font-family="Helvetica,sans-Serif" font-size="10.00" fill="grey">active</text>
</g>
<!-- Node3&#45;&gt;Node11 -->
<g id="edge18_Node000011_Node000003" class="edge">
<title>Node3&#45;&gt;Node11</title>
<g id="a_edge18_Node000011_Node000003"><a xlink:title=" ">
<path fill="none" stroke="#9a32cd" stroke-dasharray="5,2" d="M580.09,-173.85C551.31,-154.85 501.06,-121.65 477.45,-106.06"/>
<polygon fill="#9a32cd" stroke="#9a32cd" points="578.34,-176.89 588.61,-179.49 582.2,-171.05 578.34,-176.89"/>
</a>
</g>
<text text-anchor="start" x="552" y="-137" font-family="Helvetica,sans-Serif" font-size="10.00" fill="grey">resourceHandle</text>
</g>
<!-- Node4 -->
<g id="Node000004" class="node">
<title>Node4</title>
<g id="a_Node000004"><a xlink:href="structfiftyone_degrees_interlock_double_width.html" target="_top" xlink:title="Double width (64 or 128 depending on the architecture) compare and exchange.">
<polygon fill="white" stroke="#666666" points="691,-287 554,-287 554,-257 691,-257 691,-287"/>
<text text-anchor="start" x="562" y="-275" font-family="Helvetica,sans-Serif" font-size="10.00">fiftyoneDegreesInterlock</text>
<text text-anchor="middle" x="622.5" y="-264" font-family="Helvetica,sans-Serif" font-size="10.00">DoubleWidth</text>
</a>
</g>
</g>
<!-- Node4&#45;&gt;Node3 -->
<g id="edge3_Node000003_Node000004" class="edge">
<title>Node4&#45;&gt;Node3</title>
<g id="a_edge3_Node000003_Node000004"><a xlink:title=" ">
<path fill="none" stroke="#9a32cd" stroke-dasharray="5,2" d="M616.28,-247.01C612.09,-230.84 606.8,-210.43 603.82,-198.94"/>
<polygon fill="#9a32cd" stroke="#9a32cd" points="612.94,-248.09 618.84,-256.89 619.72,-246.33 612.94,-248.09"/>
</a>
</g>
<text text-anchor="start" x="617" y="-227.5" font-family="Helvetica,sans-Serif" font-size="10.00" fill="grey">counter</text>
</g>
<!-- Node5 -->
<g id="Node000005" class="node">
<title>Node5</title>
<g id="a_Node000005"><a xlink:href="structshared_string_node.html" target="_top" xlink:title=" ">
<polygon fill="white" stroke="#bfbfbf" points="278.5,-198.5 174.5,-198.5 174.5,-179.5 278.5,-179.5 278.5,-198.5"/>
<text text-anchor="middle" x="226.5" y="-186.5" font-family="Helvetica,sans-Serif" font-size="10.00">sharedStringNode</text>
</a>
</g>
</g>
<!-- Node5&#45;&gt;Node1 -->
<g id="edge5_Node000001_Node000005" class="edge">
<title>Node5&#45;&gt;Node1</title>
<g id="a_edge5_Node000001_Node000005"><a xlink:title=" ">
<path fill="none" stroke="#9a32cd" stroke-dasharray="5,2" d="M231.82,-169.58C236.63,-155.63 244.91,-136.75 257.5,-124 265.23,-116.17 275.76,-110.25 285.4,-106.02"/>
<polygon fill="#9a32cd" stroke="#9a32cd" points="228.36,-168.91 228.69,-179.5 235.03,-171.01 228.36,-168.91"/>
</a>
</g>
<text text-anchor="start" x="261" y="-145" font-family="Helvetica,sans-Serif" font-size="10.00" fill="grey">sharedStringFirst</text>
<text text-anchor="start" x="261" y="-130" font-family="Helvetica,sans-Serif" font-size="10.00" fill="grey">sharedStringLast</text>
</g>
<!-- Node5&#45;&gt;Node5 -->
<g id="edge6_Node000005_Node000005" class="edge">
<title>Node5&#45;&gt;Node5</title>
<g id="a_edge6_Node000005_Node000005"><a xlink:title=" ">
<path fill="none" stroke="#9a32cd" stroke-dasharray="5,2" d="M288.9,-194.61C293.61,-193.36 296.5,-191.49 296.5,-189 296.5,-185.02 289.09,-182.62 278.7,-181.81"/>
<polygon fill="#9a32cd" stroke="#9a32cd" points="288.05,-191.2 278.7,-196.19 289.12,-198.12 288.05,-191.2"/>
</a>
</g>
<text text-anchor="start" x="299.5" y="-186" font-family="Helvetica,sans-Serif" font-size="10.00" fill="grey">next</text>
</g>
<!-- Node6&#45;&gt;Node1 -->
<g id="edge7_Node000001_Node000006" class="edge">
<title>Node6&#45;&gt;Node1</title>
<g id="a_edge7_Node000001_Node000006"><a xlink:title=" ">
<path fill="none" stroke="#9a32cd" stroke-dasharray="5,2" d="M321.1,-27.41C322.91,-30.45 324.49,-33.7 325.5,-37 329.68,-50.59 329.12,-55.25 325.5,-69 323.83,-75.34 320.26,-81.75 317.02,-86.69"/>
<polygon fill="#9a32cd" stroke="#9a32cd" points="323.9,-25.31 315.3,-19.11 318.16,-29.32 323.9,-25.31"/>
</a>
</g>
<text text-anchor="start" x="331" y="-50" font-family="Helvetica,sans-Serif" font-size="10.00" fill="grey">threadStates</text>
</g>
<!-- Node7 -->
<g id="Node000007" class="node">
<title>Node7</title>
<g id="a_Node000007"><a xlink:href="structevidence_node.html" target="_top" xlink:title=" ">
<polygon fill="white" stroke="#bfbfbf" points="183.5,-106 97.5,-106 97.5,-87 183.5,-87 183.5,-106"/>
<text text-anchor="middle" x="140.5" y="-94" font-family="Helvetica,sans-Serif" font-size="10.00">evidenceNode</text>
</a>
</g>
</g>
<!-- Node7&#45;&gt;Node6 -->
<g id="edge9_Node000006_Node000007" class="edge">
<title>Node7&#45;&gt;Node6</title>
<g id="a_edge9_Node000006_Node000007"><a xlink:title=" ">
<path fill="none" stroke="#9a32cd" stroke-dasharray="5,2" d="M148.78,-77.64C155.86,-64.37 167.32,-46.91 182.5,-37 208.69,-19.9 243.95,-13.6 270.34,-11.38"/>
<polygon fill="#9a32cd" stroke="#9a32cd" points="145.55,-76.27 144.22,-86.78 151.82,-79.39 145.55,-76.27"/>
</a>
</g>
<text text-anchor="start" x="185.5" y="-58" font-family="Helvetica,sans-Serif" font-size="10.00" fill="grey">evidenceFirst</text>
<text text-anchor="start" x="185.5" y="-43" font-family="Helvetica,sans-Serif" font-size="10.00" fill="grey">evidenceLast</text>
</g>
<!-- Node7&#45;&gt;Node7 -->
<g id="edge13_Node000007_Node000007" class="edge">
<title>Node7&#45;&gt;Node7</title>
<g id="a_edge13_Node000007_Node000007"><a xlink:title=" ">
<path fill="none" stroke="#9a32cd" stroke-dasharray="5,2" d="M193.75,-102.72C198.51,-101.42 201.5,-99.35 201.5,-96.5 201.5,-91.95 193.85,-89.37 183.54,-88.76"/>
<polygon fill="#9a32cd" stroke="#9a32cd" points="192.92,-99.31 183.54,-104.24 193.94,-106.23 192.92,-99.31"/>
</a>
</g>
<text text-anchor="start" x="204.5" y="-93.5" font-family="Helvetica,sans-Serif" font-size="10.00" fill="grey">next</text>
</g>
<!-- Node8 -->
<g id="Node000008" class="node">
<title>Node8</title>
<g id="a_Node000008"><a xlink:href="structfiftyone_degrees_evidence_key_value_pair_array.html" target="_top" xlink:title="Array of evidence key value pairs and a pointer to the next array if present or NULL of not present.">
<polygon fill="white" stroke="#666666" points="156.5,-204 0.5,-204 0.5,-174 156.5,-174 156.5,-204"/>
<text text-anchor="start" x="8.5" y="-192" font-family="Helvetica,sans-Serif" font-size="10.00">fiftyoneDegreesEvidenceKey</text>
<text text-anchor="middle" x="78.5" y="-181" font-family="Helvetica,sans-Serif" font-size="10.00">ValuePairArray</text>
</a>
</g>
</g>
<!-- Node8&#45;&gt;Node7 -->
<g id="edge10_Node000007_Node000008" class="edge">
<title>Node8&#45;&gt;Node7</title>
<g id="a_edge10_Node000007_Node000008"><a xlink:title=" ">
<path fill="none" stroke="#9a32cd" stroke-dasharray="5,2" d="M94.01,-165.36C107.18,-146.13 125.38,-119.58 134.61,-106.1"/>
<polygon fill="#9a32cd" stroke="#9a32cd" points="90.95,-163.63 88.19,-173.86 96.73,-167.59 90.95,-163.63"/>
</a>
</g>
<text text-anchor="start" x="125.5" y="-137" font-family="Helvetica,sans-Serif" font-size="10.00" fill="grey">array</text>
</g>
<!-- Node9 -->
<g id="Node000009" class="node">
<title>Node9</title>
<g id="a_Node000009"><a xlink:href="structfiftyone_degrees_evidence_key_value_pair.html" target="_top" xlink:title="Evidence key value pair structure which combines the prefix, key and value.">
<polygon fill="white" stroke="#666666" points="156.5,-287 0.5,-287 0.5,-257 156.5,-257 156.5,-287"/>
<text text-anchor="start" x="8.5" y="-275" font-family="Helvetica,sans-Serif" font-size="10.00">fiftyoneDegreesEvidenceKey</text>
<text text-anchor="middle" x="78.5" y="-264" font-family="Helvetica,sans-Serif" font-size="10.00">ValuePair</text>
</a>
</g>
</g>
<!-- Node9&#45;&gt;Node8 -->
<g id="edge11_Node000008_Node000009" class="edge">
<title>Node9&#45;&gt;Node8</title>
<g id="a_edge11_Node000008_Node000009"><a xlink:title=" ">
<path fill="none" stroke="#9a32cd" stroke-dasharray="5,2" d="M78.5,-246.59C78.5,-232.75 78.5,-215.91 78.5,-204.22"/>
<polygon fill="#9a32cd" stroke="#9a32cd" points="75,-246.89 78.5,-256.89 82,-246.89 75,-246.89"/>
</a>
</g>
<text text-anchor="start" x="81.5" y="-227.5" font-family="Helvetica,sans-Serif" font-size="10.00" fill="grey">items</text>
</g>
<!-- Node10 -->
<g id="Node000010" class="node">
<title>Node10</title>
<g id="a_Node000010"><a xlink:href="structfiftyone_degrees_key_value_pair.html" target="_top" xlink:title=" ">
<polygon fill="white" stroke="#bfbfbf" points="157,-359 0,-359 0,-340 157,-340 157,-359"/>
<text text-anchor="middle" x="78.5" y="-347" font-family="Helvetica,sans-Serif" font-size="10.00">fiftyoneDegreesKeyValuePair</text>
</a>
</g>
</g>
<!-- Node10&#45;&gt;Node9 -->
<g id="edge12_Node000009_Node000010" class="edge">
<title>Node10&#45;&gt;Node9</title>
<g id="a_edge12_Node000009_Node000010"><a xlink:title=" ">
<path fill="none" stroke="#9a32cd" stroke-dasharray="5,2" d="M78.5,-329.57C78.5,-316.43 78.5,-299.18 78.5,-287.21"/>
<polygon fill="#9a32cd" stroke="#9a32cd" points="75,-329.84 78.5,-339.84 82,-329.84 75,-329.84"/>
</a>
</g>
<text text-anchor="start" x="82" y="-310.5" font-family="Helvetica,sans-Serif" font-size="10.00" fill="grey">item</text>
</g>
<!-- Node11&#45;&gt;Node6 -->
<g id="edge14_Node000006_Node000011" class="edge">
<title>Node11&#45;&gt;Node6</title>
<g id="a_edge14_Node000006_Node000011"><a xlink:title=" ">
<path fill="none" stroke="#9a32cd" stroke-dasharray="5,2" d="M450.24,-78.76C438.22,-65.63 419.91,-47.83 400.5,-37 383.35,-27.43 362.45,-21.07 344.81,-16.99"/>
<polygon fill="#9a32cd" stroke="#9a32cd" points="447.93,-81.42 457.18,-86.59 453.17,-76.78 447.93,-81.42"/>
</a>
</g>
<text text-anchor="start" x="443.5" y="-50" font-family="Helvetica,sans-Serif" font-size="10.00" fill="grey">manager</text>
</g>
<!-- Node12 -->
<g id="Node000012" class="node">
<title>Node12</title>
<g id="a_Node000012"><a xlink:href="class_base.html" target="_top" xlink:title="Base test class used to carry out memory leak checks.">
<polygon fill="white" stroke="#666666" points="758,-198.5 717,-198.5 717,-179.5 758,-179.5 758,-198.5"/>
<text text-anchor="middle" x="737.5" y="-186.5" font-family="Helvetica,sans-Serif" font-size="10.00">Base</text>
</a>
</g>
</g>
<!-- Node12&#45;&gt;Node11 -->
<g id="edge15_Node000011_Node000012" class="edge">
<title>Node12&#45;&gt;Node11</title>
<g id="a_edge15_Node000011_Node000012"><a xlink:title=" ">
<path fill="none" stroke="#63b8ff" d="M718.92,-173.04C699.37,-158.13 667.09,-135.79 635.5,-124 597.22,-109.72 551.35,-103.13 516.76,-100.1"/>
<polygon fill="#63b8ff" stroke="#63b8ff" points="716.92,-175.92 726.96,-179.31 721.23,-170.4 716.92,-175.92"/>
</a>
</g>
</g>
<!-- Node13 -->
<g id="Node000013" class="node">
<title>Node13</title>
<g id="a_Node000013"><a xlink:title=" ">
<polygon fill="white" stroke="#bfbfbf" points="785.5,-281.5 709.5,-281.5 709.5,-262.5 785.5,-262.5 785.5,-281.5"/>
<text text-anchor="middle" x="747.5" y="-269.5" font-family="Helvetica,sans-Serif" font-size="10.00">testing::Test</text>
</a>
</g>
</g>
<!-- Node13&#45;&gt;Node12 -->
<g id="edge16_Node000012_Node000013" class="edge">
<title>Node13&#45;&gt;Node12</title>
<g id="a_edge16_Node000012_Node000013"><a xlink:title=" ">
<path fill="none" stroke="#63b8ff" d="M745.16,-252.05C743.09,-235.29 740.16,-211.56 738.59,-198.85"/>
<polygon fill="#63b8ff" stroke="#63b8ff" points="741.73,-252.84 746.43,-262.33 748.68,-251.98 741.73,-252.84"/>
</a>
</g>
</g>
</g>
</svg>
