<?xml version="1.0" encoding="UTF-8" standalone="no"?>
<!DOCTYPE svg PUBLIC "-//W3C//DTD SVG 1.1//EN"
 "http://www.w3.org/Graphics/SVG/1.1/DTD/svg11.dtd">
<!-- Generated by graphviz version 2.43.0 (0)
 -->
<!-- Title: fiftyoneDegreesDataSetIpiBase Pages: 1 -->
<svg width="1884pt" height="326pt"
 viewBox="0.00 0.00 1884.00 326.00" xmlns="http://www.w3.org/2000/svg" xmlns:xlink="http://www.w3.org/1999/xlink">
<g id="graph0" class="graph" transform="scale(1 1) rotate(0) translate(4 322)">
<title>fiftyoneDegreesDataSetIpiBase</title>
<!-- Node1 -->
<g id="Node000001" class="node">
<title>Node1</title>
<g id="a_Node000001"><a xlink:title="Data set structure which contains the base dataset structure.">
<polygon fill="#999999" stroke="#666666" points="1876,-141.5 1707,-141.5 1707,-122.5 1876,-122.5 1876,-141.5"/>
<text text-anchor="middle" x="1791.5" y="-129.5" font-family="Helvetica,sans-Serif" font-size="10.00">fiftyoneDegreesDataSetIpiBase</text>
</a>
</g>
</g>
<!-- Node2 -->
<g id="Node000002" class="node">
<title>Node2</title>
<g id="a_Node000002"><a xlink:href="structfiftyone_degrees_data_set_base.html" target="_top" xlink:title="Base data set structure which contains the &#39;must have&#39;s for all data sets.">
<polygon fill="white" stroke="#666666" points="1645.5,-141.5 1488.5,-141.5 1488.5,-122.5 1645.5,-122.5 1645.5,-141.5"/>
<text text-anchor="middle" x="1567" y="-129.5" font-family="Helvetica,sans-Serif" font-size="10.00">fiftyoneDegreesDataSetBase</text>
</a>
</g>
</g>
<!-- Node2&#45;&gt;Node1 -->
<g id="edge1_Node000001_Node000002" class="edge">
<title>Node2&#45;&gt;Node1</title>
<g id="a_edge1_Node000001_Node000002"><a xlink:title=" ">
<path fill="none" stroke="#9a32cd" stroke-dasharray="5,2" d="M1655.85,-132C1672.64,-132 1690.17,-132 1706.83,-132"/>
<polygon fill="#9a32cd" stroke="#9a32cd" points="1655.51,-128.5 1645.51,-132 1655.51,-135.5 1655.51,-128.5"/>
</a>
</g>
<text text-anchor="start" x="1679.5" y="-137.5" font-family="Helvetica,sans-Serif" font-size="10.00" fill="grey">b</text>
</g>
<!-- Node3 -->
<g id="Node000003" class="node">
<title>Node3</title>
<g id="a_Node000003"><a xlink:href="structfiftyone_degrees_file_pool.html" target="_top" xlink:title="Stack of handles used to read data from a single source file.">
<polygon fill="white" stroke="#666666" points="1311.5,-201.5 1179.5,-201.5 1179.5,-182.5 1311.5,-182.5 1311.5,-201.5"/>
<text text-anchor="middle" x="1245.5" y="-189.5" font-family="Helvetica,sans-Serif" font-size="10.00">fiftyoneDegreesFilePool</text>
</a>
</g>
</g>
<!-- Node3&#45;&gt;Node2 -->
<g id="edge2_Node000002_Node000003" class="edge">
<title>Node3&#45;&gt;Node2</title>
<g id="a_edge2_Node000002_Node000003"><a xlink:title=" ">
<path fill="none" stroke="#9a32cd" stroke-dasharray="5,2" d="M1321.94,-186.69C1362.58,-182.93 1413.38,-176.77 1458,-167 1487.07,-160.64 1519.42,-149.6 1541.07,-141.62"/>
<polygon fill="#9a32cd" stroke="#9a32cd" points="1321.49,-183.22 1311.84,-187.6 1322.12,-190.19 1321.49,-183.22"/>
</a>
</g>
<text text-anchor="start" x="1387" y="-188.5" font-family="Helvetica,sans-Serif" font-size="10.00" fill="grey">filePool</text>
</g>
<!-- Node4 -->
<g id="Node000004" class="node">
<title>Node4</title>
<g id="a_Node000004"><a xlink:href="structfiftyone_degrees_pool.html" target="_top" xlink:title="Pool of resources stored as items in a stack.">
<polygon fill="white" stroke="#666666" points="910,-226.5 795,-226.5 795,-207.5 910,-207.5 910,-226.5"/>
<text text-anchor="middle" x="852.5" y="-214.5" font-family="Helvetica,sans-Serif" font-size="10.00">fiftyoneDegreesPool</text>
</a>
</g>
</g>
<!-- Node4&#45;&gt;Node3 -->
<g id="edge3_Node000003_Node000004" class="edge">
<title>Node4&#45;&gt;Node3</title>
<g id="a_edge3_Node000003_Node000004"><a xlink:title=" ">
<path fill="none" stroke="#9a32cd" stroke-dasharray="5,2" d="M882.34,-203.17C903.12,-194 932.12,-182.81 959,-178 1039.6,-163.58 1134.91,-173.56 1192.48,-182.48"/>
<polygon fill="#9a32cd" stroke="#9a32cd" points="880.8,-200.03 873.13,-207.34 883.68,-206.41 880.8,-200.03"/>
</a>
</g>
<text text-anchor="start" x="1038" y="-183.5" font-family="Helvetica,sans-Serif" font-size="10.00" fill="grey">pool</text>
</g>
<!-- Node4&#45;&gt;Node4 -->
<g id="edge7_Node000004_Node000004" class="edge">
<title>Node4&#45;&gt;Node4</title>
<g id="a_edge7_Node000004_Node000004"><a xlink:title=" ">
<path fill="none" stroke="#9a32cd" stroke-dasharray="5,2" d="M827.95,-235.69C829.29,-240.7 837.47,-244.5 852.5,-244.5 875.96,-244.5 882.74,-235.23 872.85,-226.58"/>
<polygon fill="#9a32cd" stroke="#9a32cd" points="831.14,-237.13 832.15,-226.58 824.78,-234.19 831.14,-237.13"/>
</a>
</g>
<text text-anchor="start" x="820.5" y="-250" font-family="Helvetica,sans-Serif" font-size="10.00" fill="grey">resourceFree</text>
</g>
<!-- Node5 -->
<g id="Node000005" class="node">
<title>Node5</title>
<g id="a_Node000005"><a xlink:href="structfiftyone_degrees_pool_item.html" target="_top" xlink:title="Pool item node in the stack of items.">
<polygon fill="white" stroke="#666666" points="1314,-253.5 1177,-253.5 1177,-234.5 1314,-234.5 1314,-253.5"/>
<text text-anchor="middle" x="1245.5" y="-241.5" font-family="Helvetica,sans-Serif" font-size="10.00">fiftyoneDegreesPoolItem</text>
</a>
</g>
</g>
<!-- Node4&#45;&gt;Node5 -->
<g id="edge5_Node000005_Node000004" class="edge">
<title>Node4&#45;&gt;Node5</title>
<g id="a_edge5_Node000005_Node000004"><a xlink:title=" ">
<path fill="none" stroke="#9a32cd" stroke-dasharray="5,2" d="M920.3,-210.72C978.39,-206.58 1064.67,-203.64 1139,-214 1166.72,-217.87 1197.39,-227.18 1218.49,-234.42"/>
<polygon fill="#9a32cd" stroke="#9a32cd" points="919.87,-207.24 910.15,-211.47 920.39,-214.22 919.87,-207.24"/>
</a>
</g>
<text text-anchor="start" x="1038" y="-219.5" font-family="Helvetica,sans-Serif" font-size="10.00" fill="grey">pool</text>
</g>
<!-- Node5&#45;&gt;Node4 -->
<g id="edge4_Node000004_Node000005" class="edge">
<title>Node5&#45;&gt;Node4</title>
<g id="a_edge4_Node000004_Node000005"><a xlink:title=" ">
<path fill="none" stroke="#9a32cd" stroke-dasharray="5,2" d="M1166.73,-244.43C1109.22,-244.05 1029.05,-242.05 959,-235 939.87,-233.08 918.96,-229.76 900.84,-226.5"/>
<polygon fill="#9a32cd" stroke="#9a32cd" points="1166.82,-247.93 1176.84,-244.48 1166.85,-240.93 1166.82,-247.93"/>
</a>
</g>
<text text-anchor="start" x="1036" y="-249.5" font-family="Helvetica,sans-Serif" font-size="10.00" fill="grey">stack</text>
</g>
<!-- Node6 -->
<g id="Node000006" class="node">
<title>Node6</title>
<g id="a_Node000006"><a xlink:href="unionfiftyone_degrees_pool_head.html" target="_top" xlink:title="The head of the stack used for pop and push operations.">
<polygon fill="white" stroke="#666666" points="656,-226.5 516,-226.5 516,-207.5 656,-207.5 656,-226.5"/>
<text text-anchor="middle" x="586" y="-214.5" font-family="Helvetica,sans-Serif" font-size="10.00">fiftyoneDegreesPoolHead</text>
</a>
</g>
</g>
<!-- Node6&#45;&gt;Node4 -->
<g id="edge6_Node000004_Node000006" class="edge">
<title>Node6&#45;&gt;Node4</title>
<g id="a_edge6_Node000004_Node000006"><a xlink:title=" ">
<path fill="none" stroke="#9a32cd" stroke-dasharray="5,2" d="M666.2,-217C707.59,-217 757.28,-217 794.78,-217"/>
<polygon fill="#9a32cd" stroke="#9a32cd" points="666.15,-213.5 656.15,-217 666.15,-220.5 666.15,-213.5"/>
</a>
</g>
<text text-anchor="start" x="708" y="-222.5" font-family="Helvetica,sans-Serif" font-size="10.00" fill="grey">head</text>
</g>
<!-- Node7 -->
<g id="Node000007" class="node">
<title>Node7</title>
<g id="a_Node000007"><a xlink:href="structfiftyone_degrees_resource_handle.html" target="_top" xlink:title="Handle for a shared resource.">
<polygon fill="white" stroke="#666666" points="1332,-304.5 1159,-304.5 1159,-285.5 1332,-285.5 1332,-304.5"/>
<text text-anchor="middle" x="1245.5" y="-292.5" font-family="Helvetica,sans-Serif" font-size="10.00">fiftyoneDegreesResourceHandle</text>
</a>
</g>
</g>
<!-- Node7&#45;&gt;Node2 -->
<g id="edge8_Node000002_Node000007" class="edge">
<title>Node7&#45;&gt;Node2</title>
<g id="a_edge8_Node000002_Node000007"><a xlink:title=" ">
<path fill="none" stroke="#9a32cd" stroke-dasharray="5,2" d="M1284.92,-282.01C1300.33,-276.52 1318.16,-269.83 1334,-263 1342.21,-259.46 1343.95,-257.91 1352,-254 1398.85,-231.24 1412.65,-229.63 1458,-204 1493.71,-183.82 1533.23,-155.94 1553.1,-141.51"/>
<polygon fill="#9a32cd" stroke="#9a32cd" points="1283.47,-278.81 1275.19,-285.43 1285.79,-285.41 1283.47,-278.81"/>
</a>
</g>
<text text-anchor="start" x="1388" y="-259.5" font-family="Helvetica,sans-Serif" font-size="10.00" fill="grey">handle</text>
</g>
<!-- Node9 -->
<g id="Node000009" class="node">
<title>Node9</title>
<g id="a_Node000009"><a xlink:href="structfiftyone_degrees_resource_manager.html" target="_top" xlink:title="Manager structure used to provide access to a shared and changing resource.">
<polygon fill="white" stroke="#666666" points="1658,-311.5 1476,-311.5 1476,-292.5 1658,-292.5 1658,-311.5"/>
<text text-anchor="middle" x="1567" y="-299.5" font-family="Helvetica,sans-Serif" font-size="10.00">fiftyoneDegreesResourceManager</text>
</a>
</g>
</g>
<!-- Node7&#45;&gt;Node9 -->
<g id="edge11_Node000009_Node000007" class="edge">
<title>Node7&#45;&gt;Node9</title>
<g id="a_edge11_Node000009_Node000007"><a xlink:title=" ">
<path fill="none" stroke="#9a32cd" stroke-dasharray="5,2" d="M1309,-283.93C1323.1,-281.88 1338.03,-280.05 1352,-279 1398.98,-275.46 1411.15,-274.07 1458,-279 1482.4,-281.57 1509.4,-287.32 1530.3,-292.43"/>
<polygon fill="#9a32cd" stroke="#9a32cd" points="1308.28,-280.5 1298.91,-285.46 1309.32,-287.43 1308.28,-280.5"/>
</a>
</g>
<text text-anchor="start" x="1390" y="-284.5" font-family="Helvetica,sans-Serif" font-size="10.00" fill="grey">active</text>
</g>
<!-- Node8 -->
<g id="Node000008" class="node">
<title>Node8</title>
<g id="a_Node000008"><a xlink:href="structfiftyone_degrees_interlock_double_width.html" target="_top" xlink:title="Double width (64 or 128 depending on the architecture) compare and exchange.">
<polygon fill="white" stroke="#666666" points="921,-312 784,-312 784,-282 921,-282 921,-312"/>
<text text-anchor="start" x="792" y="-300" font-family="Helvetica,sans-Serif" font-size="10.00">fiftyoneDegreesInterlock</text>
<text text-anchor="middle" x="852.5" y="-289" font-family="Helvetica,sans-Serif" font-size="10.00">DoubleWidth</text>
</a>
</g>
</g>
<!-- Node8&#45;&gt;Node7 -->
<g id="edge9_Node000007_Node000008" class="edge">
<title>Node8&#45;&gt;Node7</title>
<g id="a_edge9_Node000007_Node000008"><a xlink:title=" ">
<path fill="none" stroke="#9a32cd" stroke-dasharray="5,2" d="M931.46,-296.6C997.18,-296.27 1091.1,-295.78 1158.89,-295.44"/>
<polygon fill="#9a32cd" stroke="#9a32cd" points="931.14,-293.1 921.16,-296.65 931.18,-300.1 931.14,-293.1"/>
</a>
</g>
<text text-anchor="start" x="1031" y="-301.5" font-family="Helvetica,sans-Serif" font-size="10.00" fill="grey">counter</text>
</g>
<!-- Node9&#45;&gt;Node7 -->
<g id="edge10_Node000007_Node000009" class="edge">
<title>Node9&#45;&gt;Node7</title>
<g id="a_edge10_Node000007_Node000009"><a xlink:title=" ">
<path fill="none" stroke="#9a32cd" stroke-dasharray="5,2" d="M1465.46,-301.85C1429.64,-301.59 1389.01,-301.05 1352,-300 1345.58,-299.82 1338.95,-299.59 1332.28,-299.34"/>
<polygon fill="#9a32cd" stroke="#9a32cd" points="1465.9,-305.35 1475.92,-301.92 1465.94,-298.35 1465.9,-305.35"/>
</a>
</g>
<text text-anchor="start" x="1383" y="-306.5" font-family="Helvetica,sans-Serif" font-size="10.00" fill="grey">manager</text>
</g>
<!-- Node10 -->
<g id="Node000010" class="node">
<title>Node10</title>
<g id="a_Node000010"><a xlink:href="structfiftyone_degrees_property_available_array.html" target="_top" xlink:title="Array of items of type fiftyoneDegreesPropertyAvailable used to easily access and track the size of t...">
<polygon fill="white" stroke="#666666" points="1139,-30 959,-30 959,0 1139,0 1139,-30"/>
<text text-anchor="start" x="967" y="-18" font-family="Helvetica,sans-Serif" font-size="10.00">fiftyoneDegreesPropertyAvailable</text>
<text text-anchor="middle" x="1049" y="-7" font-family="Helvetica,sans-Serif" font-size="10.00">Array</text>
</a>
</g>
</g>
<!-- Node10&#45;&gt;Node2 -->
<g id="edge12_Node000002_Node000010" class="edge">
<title>Node10&#45;&gt;Node2</title>
<g id="a_edge12_Node000002_Node000010"><a xlink:title=" ">
<path fill="none" stroke="#9a32cd" stroke-dasharray="5,2" d="M1149.38,-10.42C1204.25,-9.74 1273.36,-11.9 1334,-23 1391.38,-33.5 1405.25,-41.09 1458,-66 1493.77,-82.89 1532.63,-108.66 1552.55,-122.47"/>
<polygon fill="#9a32cd" stroke="#9a32cd" points="1149.25,-6.92 1139.31,-10.58 1149.37,-13.92 1149.25,-6.92"/>
</a>
</g>
<text text-anchor="start" x="1222.5" y="-28.5" font-family="Helvetica,sans-Serif" font-size="10.00" fill="grey">available</text>
</g>
<!-- Node11 -->
<g id="Node000011" class="node">
<title>Node11</title>
<g id="a_Node000011"><a xlink:href="structfiftyone_degrees_property_available.html" target="_top" xlink:title="Used to access the property item quickly without the need to search.">
<polygon fill="white" stroke="#666666" points="676,-49.5 496,-49.5 496,-30.5 676,-30.5 676,-49.5"/>
<text text-anchor="middle" x="586" y="-37.5" font-family="Helvetica,sans-Serif" font-size="10.00">fiftyoneDegreesPropertyAvailable</text>
</a>
</g>
</g>
<!-- Node11&#45;&gt;Node10 -->
<g id="edge13_Node000010_Node000011" class="edge">
<title>Node11&#45;&gt;Node10</title>
<g id="a_edge13_Node000010_Node000011"><a xlink:title=" ">
<path fill="none" stroke="#9a32cd" stroke-dasharray="5,2" d="M676.05,-29.5C682.12,-28.94 688.15,-28.43 694,-28 784,-21.31 887.15,-18.02 958.79,-16.43"/>
<polygon fill="#9a32cd" stroke="#9a32cd" points="675.44,-26.04 665.82,-30.48 676.11,-33.01 675.44,-26.04"/>
</a>
</g>
<text text-anchor="start" x="706" y="-33.5" font-family="Helvetica,sans-Serif" font-size="10.00" fill="grey">items</text>
</g>
<!-- Node18 -->
<g id="Node000018" class="node">
<title>Node18</title>
<g id="a_Node000018"><a xlink:href="structfiftyone_degrees_override_property.html" target="_top" xlink:title="Index and pointer to a property which can be overridden.">
<polygon fill="white" stroke="#666666" points="941,-70.5 764,-70.5 764,-51.5 941,-51.5 941,-70.5"/>
<text text-anchor="middle" x="852.5" y="-58.5" font-family="Helvetica,sans-Serif" font-size="10.00">fiftyoneDegreesOverrideProperty</text>
</a>
</g>
</g>
<!-- Node11&#45;&gt;Node18 -->
<g id="edge23_Node000018_Node000011" class="edge">
<title>Node11&#45;&gt;Node18</title>
<g id="a_edge23_Node000018_Node000011"><a xlink:title=" ">
<path fill="none" stroke="#9a32cd" stroke-dasharray="5,2" d="M686.2,-47.88C711.63,-49.89 738.8,-52.05 763.61,-54.02"/>
<polygon fill="#9a32cd" stroke="#9a32cd" points="686.42,-44.38 676.18,-47.08 685.87,-51.36 686.42,-44.38"/>
</a>
</g>
<text text-anchor="start" x="697" y="-58.5" font-family="Helvetica,sans-Serif" font-size="10.00" fill="grey">available</text>
</g>
<!-- Node12 -->
<g id="Node000012" class="node">
<title>Node12</title>
<g id="a_Node000012"><a xlink:href="structfiftyone_degrees_collection_item.html" target="_top" xlink:title="Used to store a handle to the underlying item that could be used to release the item when it&#39;s finish...">
<polygon fill="white" stroke="#666666" points="353,-110.5 188,-110.5 188,-91.5 353,-91.5 353,-110.5"/>
<text text-anchor="middle" x="270.5" y="-98.5" font-family="Helvetica,sans-Serif" font-size="10.00">fiftyoneDegreesCollectionItem</text>
</a>
</g>
</g>
<!-- Node12&#45;&gt;Node11 -->
<g id="edge14_Node000011_Node000012" class="edge">
<title>Node12&#45;&gt;Node11</title>
<g id="a_edge14_Node000011_Node000012"><a xlink:title=" ">
<path fill="none" stroke="#9a32cd" stroke-dasharray="5,2" d="M314.15,-88.75C333.53,-83.46 356.81,-77.46 378,-73 423.05,-63.51 474.12,-55.34 514.26,-49.51"/>
<polygon fill="#9a32cd" stroke="#9a32cd" points="313.11,-85.41 304.4,-91.45 314.97,-92.16 313.11,-85.41"/>
</a>
</g>
<text text-anchor="start" x="414" y="-78.5" font-family="Helvetica,sans-Serif" font-size="10.00" fill="grey">name</text>
</g>
<!-- Node14 -->
<g id="Node000014" class="node">
<title>Node14</title>
<g id="a_Node000014"><a xlink:href="structfiftyone_degrees_collection.html" target="_top" xlink:title="All the shared methods and fields required by file, memory and cached collections.">
<polygon fill="white" stroke="#666666" points="657.5,-129.5 514.5,-129.5 514.5,-110.5 657.5,-110.5 657.5,-129.5"/>
<text text-anchor="middle" x="586" y="-117.5" font-family="Helvetica,sans-Serif" font-size="10.00">fiftyoneDegreesCollection</text>
</a>
</g>
</g>
<!-- Node12&#45;&gt;Node14 -->
<g id="edge18_Node000014_Node000012" class="edge">
<title>Node12&#45;&gt;Node14</title>
<g id="a_edge18_Node000014_Node000012"><a xlink:title=" ">
<path fill="none" stroke="#9a32cd" stroke-dasharray="5,2" d="M363.53,-95.11C399.34,-94.01 440.66,-94.2 478,-98 501.58,-100.4 527.65,-105.7 548.15,-110.5"/>
<polygon fill="#9a32cd" stroke="#9a32cd" points="362.97,-91.63 353.09,-95.47 363.21,-98.63 362.97,-91.63"/>
</a>
</g>
<text text-anchor="start" x="410" y="-103.5" font-family="Helvetica,sans-Serif" font-size="10.00" fill="grey">release</text>
</g>
<!-- Node13 -->
<g id="Node000013" class="node">
<title>Node13</title>
<g id="a_Node000013"><a xlink:href="structfiftyone_degrees_data.html" target="_top" xlink:title="Data structure used for reusing memory which may have been allocated in a previous operation.">
<polygon fill="white" stroke="#666666" points="117,-110.5 0,-110.5 0,-91.5 117,-91.5 117,-110.5"/>
<text text-anchor="middle" x="58.5" y="-98.5" font-family="Helvetica,sans-Serif" font-size="10.00">fiftyoneDegreesData</text>
</a>
</g>
</g>
<!-- Node13&#45;&gt;Node12 -->
<g id="edge15_Node000012_Node000013" class="edge">
<title>Node13&#45;&gt;Node12</title>
<g id="a_edge15_Node000012_Node000013"><a xlink:title=" ">
<path fill="none" stroke="#9a32cd" stroke-dasharray="5,2" d="M127.37,-101C146.69,-101 167.94,-101 187.98,-101"/>
<polygon fill="#9a32cd" stroke="#9a32cd" points="127.16,-97.5 117.16,-101 127.16,-104.5 127.16,-97.5"/>
</a>
</g>
<text text-anchor="start" x="138" y="-106.5" font-family="Helvetica,sans-Serif" font-size="10.00" fill="grey">data</text>
</g>
<!-- Node14&#45;&gt;Node12 -->
<g id="edge16_Node000012_Node000014" class="edge">
<title>Node14&#45;&gt;Node12</title>
<g id="a_edge16_Node000012_Node000014"><a xlink:title=" ">
<path fill="none" stroke="#9a32cd" stroke-dasharray="5,2" d="M504.37,-122.65C466.03,-123.13 419.58,-122.59 378,-119 358.2,-117.29 336.53,-113.91 317.95,-110.54"/>
<polygon fill="#9a32cd" stroke="#9a32cd" points="504.51,-126.14 514.45,-122.49 504.4,-119.15 504.51,-126.14"/>
</a>
</g>
<text text-anchor="start" x="404" y="-127.5" font-family="Helvetica,sans-Serif" font-size="10.00" fill="grey">collection</text>
</g>
<!-- Node14&#45;&gt;Node14 -->
<g id="edge17_Node000014_Node000014" class="edge">
<title>Node14&#45;&gt;Node14</title>
<g id="a_edge17_Node000014_Node000014"><a xlink:title=" ">
<path fill="none" stroke="#9a32cd" stroke-dasharray="5,2" d="M561.07,-138.69C562.43,-143.7 570.74,-147.5 586,-147.5 609.82,-147.5 616.7,-138.23 606.65,-129.58"/>
<polygon fill="#9a32cd" stroke="#9a32cd" points="564.27,-140.12 565.35,-129.58 557.93,-137.15 564.27,-140.12"/>
</a>
</g>
<text text-anchor="start" x="552" y="-168.5" font-family="Helvetica,sans-Serif" font-size="10.00" fill="grey">freeCollection</text>
<text text-anchor="start" x="552" y="-153.5" font-family="Helvetica,sans-Serif" font-size="10.00" fill="grey">get</text>
</g>
<!-- Node15 -->
<g id="Node000015" class="node">
<title>Node15</title>
<g id="a_Node000015"><a xlink:href="structfiftyone_degrees_evidence_property_index_array.html" target="_top" xlink:title="Array of items of type fiftyoneDegreesEvidencePropertyIndex used to easily access and track the size ...">
<polygon fill="white" stroke="#666666" points="360,-36 181,-36 181,-6 360,-6 360,-36"/>
<text text-anchor="start" x="189" y="-24" font-family="Helvetica,sans-Serif" font-size="10.00">fiftyoneDegreesEvidenceProperty</text>
<text text-anchor="middle" x="270.5" y="-13" font-family="Helvetica,sans-Serif" font-size="10.00">IndexArray</text>
</a>
</g>
</g>
<!-- Node15&#45;&gt;Node11 -->
<g id="edge19_Node000011_Node000015" class="edge">
<title>Node15&#45;&gt;Node11</title>
<g id="a_edge19_Node000011_Node000015"><a xlink:title=" ">
<path fill="none" stroke="#9a32cd" stroke-dasharray="5,2" d="M370.07,-18.23C404.3,-18.13 442.89,-18.98 478,-22 497.89,-23.71 519.66,-27.09 538.33,-30.46"/>
<polygon fill="#9a32cd" stroke="#9a32cd" points="370.05,-14.73 360.07,-18.29 370.09,-21.73 370.05,-14.73"/>
</a>
</g>
<text text-anchor="start" x="381" y="-27.5" font-family="Helvetica,sans-Serif" font-size="10.00" fill="grey">evidenceProperties</text>
</g>
<!-- Node16 -->
<g id="Node000016" class="node">
<title>Node16</title>
<g id="a_Node000016"><a xlink:href="structfiftyone_degrees_header_array.html" target="_top" xlink:title="Array of Headers which should always be ordered in ascending order of fullHeaderId.">
<polygon fill="white" stroke="#666666" points="1323,-164.5 1168,-164.5 1168,-145.5 1323,-145.5 1323,-164.5"/>
<text text-anchor="middle" x="1245.5" y="-152.5" font-family="Helvetica,sans-Serif" font-size="10.00">fiftyoneDegreesHeaderArray</text>
</a>
</g>
</g>
<!-- Node16&#45;&gt;Node2 -->
<g id="edge20_Node000002_Node000016" class="edge">
<title>Node16&#45;&gt;Node2</title>
<g id="a_edge20_Node000002_Node000016"><a xlink:title=" ">
<path fill="none" stroke="#9a32cd" stroke-dasharray="5,2" d="M1333.19,-148.76C1381.64,-145.27 1441.53,-140.96 1488.43,-137.58"/>
<polygon fill="#9a32cd" stroke="#9a32cd" points="1332.75,-145.28 1323.03,-149.49 1333.25,-152.26 1332.75,-145.28"/>
</a>
</g>
<text text-anchor="start" x="1368" y="-151.5" font-family="Helvetica,sans-Serif" font-size="10.00" fill="grey">uniqueHeaders</text>
</g>
<!-- Node17 -->
<g id="Node000017" class="node">
<title>Node17</title>
<g id="a_Node000017"><a xlink:href="structfiftyone_degrees_override_property_array.html" target="_top" xlink:title="Array of items of type fiftyoneDegreesOverrideProperty used to easily access and track the size of th...">
<polygon fill="white" stroke="#666666" points="1334,-79 1157,-79 1157,-49 1334,-49 1334,-79"/>
<text text-anchor="start" x="1165" y="-67" font-family="Helvetica,sans-Serif" font-size="10.00">fiftyoneDegreesOverrideProperty</text>
<text text-anchor="middle" x="1245.5" y="-56" font-family="Helvetica,sans-Serif" font-size="10.00">Array</text>
</a>
</g>
</g>
<!-- Node17&#45;&gt;Node2 -->
<g id="edge21_Node000002_Node000017" class="edge">
<title>Node17&#45;&gt;Node2</title>
<g id="a_edge21_Node000002_Node000017"><a xlink:title=" ">
<path fill="none" stroke="#9a32cd" stroke-dasharray="5,2" d="M1344.26,-68.76C1380.41,-72.05 1421.46,-77.61 1458,-87 1490.66,-95.39 1526.37,-111.82 1547.45,-122.34"/>
<polygon fill="#9a32cd" stroke="#9a32cd" points="1344.47,-65.27 1334.2,-67.89 1343.86,-72.24 1344.47,-65.27"/>
</a>
</g>
<text text-anchor="start" x="1377" y="-92.5" font-family="Helvetica,sans-Serif" font-size="10.00" fill="grey">overridable</text>
</g>
<!-- Node18&#45;&gt;Node17 -->
<g id="edge22_Node000017_Node000018" class="edge">
<title>Node18&#45;&gt;Node17</title>
<g id="a_edge22_Node000017_Node000018"><a xlink:title=" ">
<path fill="none" stroke="#9a32cd" stroke-dasharray="5,2" d="M951.6,-61.75C1014.63,-62.24 1095.81,-62.86 1156.71,-63.33"/>
<polygon fill="#9a32cd" stroke="#9a32cd" points="951.27,-58.25 941.25,-61.67 951.22,-65.25 951.27,-58.25"/>
</a>
</g>
<text text-anchor="start" x="1035" y="-69.5" font-family="Helvetica,sans-Serif" font-size="10.00" fill="grey">items</text>
</g>
<!-- Node19 -->
<g id="Node000019" class="node">
<title>Node19</title>
<g id="a_Node000019"><a xlink:href="structfiftyone_degrees_indices_property_profile.html" target="_top" xlink:title="Maps the profile index and the property index to the first value index of the profile for the propert...">
<polygon fill="white" stroke="#666666" points="1330.5,-127 1160.5,-127 1160.5,-97 1330.5,-97 1330.5,-127"/>
<text text-anchor="start" x="1168.5" y="-115" font-family="Helvetica,sans-Serif" font-size="10.00">fiftyoneDegreesIndicesProperty</text>
<text text-anchor="middle" x="1245.5" y="-104" font-family="Helvetica,sans-Serif" font-size="10.00">Profile</text>
</a>
</g>
</g>
<!-- Node19&#45;&gt;Node2 -->
<g id="edge24_Node000002_Node000019" class="edge">
<title>Node19&#45;&gt;Node2</title>
<g id="a_edge24_Node000002_Node000019"><a xlink:title=" ">
<path fill="none" stroke="#9a32cd" stroke-dasharray="5,2" d="M1340.72,-109.04C1377.39,-108.77 1419.72,-109.57 1458,-113 1479.14,-114.9 1502.36,-118.74 1521.82,-122.49"/>
<polygon fill="#9a32cd" stroke="#9a32cd" points="1340.5,-105.54 1330.54,-109.14 1340.57,-112.54 1340.5,-105.54"/>
</a>
</g>
<text text-anchor="start" x="1355" y="-118.5" font-family="Helvetica,sans-Serif" font-size="10.00" fill="grey">indexPropertyProfile</text>
</g>
</g>
</svg>
