<?xml version="1.0" encoding="UTF-8" standalone="no"?>
<!DOCTYPE svg PUBLIC "-//W3C//DTD SVG 1.1//EN"
 "http://www.w3.org/Graphics/SVG/1.1/DTD/svg11.dtd">
<!-- Generated by graphviz version 2.43.0 (0)
 -->
<!-- Title: fiftyoneDegreesCollectionMemory Pages: 1 -->
<svg width="419pt" height="123pt"
 viewBox="0.00 0.00 419.00 123.00" xmlns="http://www.w3.org/2000/svg" xmlns:xlink="http://www.w3.org/1999/xlink">
<g id="graph0" class="graph" transform="scale(1 1) rotate(0) translate(4 119)">
<title>fiftyoneDegreesCollectionMemory</title>
<!-- Node1 -->
<g id="Node000001" class="node">
<title>Node1</title>
<g id="a_Node000001"><a xlink:title="Type of collection where the collection is held in continuous memory.">
<polygon fill="#999999" stroke="#666666" points="143,-30 0,-30 0,0 143,0 143,-30"/>
<text text-anchor="start" x="8" y="-18" font-family="Helvetica,sans-Serif" font-size="10.00">fiftyoneDegreesCollection</text>
<text text-anchor="middle" x="71.5" y="-7" font-family="Helvetica,sans-Serif" font-size="10.00">Memory</text>
</a>
</g>
</g>
<!-- Node2 -->
<g id="Node000002" class="node">
<title>Node2</title>
<g id="a_Node000002"><a xlink:href="structfiftyone_degrees_collection.html" target="_top" xlink:title="All the shared methods and fields required by file, memory and cached collections.">
<polygon fill="white" stroke="#666666" points="183,-108.5 40,-108.5 40,-89.5 183,-89.5 183,-108.5"/>
<text text-anchor="middle" x="111.5" y="-96.5" font-family="Helvetica,sans-Serif" font-size="10.00">fiftyoneDegreesCollection</text>
</a>
</g>
</g>
<!-- Node2&#45;&gt;Node1 -->
<g id="edge1_Node000001_Node000002" class="edge">
<title>Node2&#45;&gt;Node1</title>
<g id="a_edge1_Node000001_Node000002"><a xlink:title=" ">
<path fill="none" stroke="#9a32cd" stroke-dasharray="5,2" d="M90.64,-82.88C85.14,-77.82 79.83,-71.74 76.5,-65 71.13,-54.11 70.18,-40.23 70.4,-30.02"/>
<polygon fill="#9a32cd" stroke="#9a32cd" points="88.67,-85.8 98.6,-89.5 93.15,-80.41 88.67,-85.8"/>
</a>
</g>
<text text-anchor="start" x="79.5" y="-53.5" font-family="Helvetica,sans-Serif" font-size="10.00" fill="grey">collection</text>
</g>
<!-- Node2&#45;&gt;Node2 -->
<g id="edge2_Node000002_Node000002" class="edge">
<title>Node2&#45;&gt;Node2</title>
<g id="a_edge2_Node000002_Node000002"><a xlink:title=" ">
<path fill="none" stroke="#9a32cd" stroke-dasharray="5,2" d="M193.11,-104.45C198.04,-103.16 201,-101.34 201,-99 201,-95.35 193.79,-92.97 183.13,-91.86"/>
<polygon fill="#9a32cd" stroke="#9a32cd" points="192.4,-101.02 183.13,-106.14 193.57,-107.92 192.4,-101.02"/>
</a>
</g>
<text text-anchor="start" x="204.5" y="-104" font-family="Helvetica,sans-Serif" font-size="10.00" fill="grey">freeCollection</text>
<text text-anchor="start" x="204.5" y="-89" font-family="Helvetica,sans-Serif" font-size="10.00" fill="grey">get</text>
</g>
<!-- Node3 -->
<g id="Node000003" class="node">
<title>Node3</title>
<g id="a_Node000003"><a xlink:href="structfiftyone_degrees_collection_item.html" target="_top" xlink:title="Used to store a handle to the underlying item that could be used to release the item when it&#39;s finish...">
<polygon fill="white" stroke="#666666" points="326,-24.5 161,-24.5 161,-5.5 326,-5.5 326,-24.5"/>
<text text-anchor="middle" x="243.5" y="-12.5" font-family="Helvetica,sans-Serif" font-size="10.00">fiftyoneDegreesCollectionItem</text>
</a>
</g>
</g>
<!-- Node2&#45;&gt;Node3 -->
<g id="edge5_Node000003_Node000002" class="edge">
<title>Node2&#45;&gt;Node3</title>
<g id="a_edge5_Node000003_Node000002"><a xlink:title=" ">
<path fill="none" stroke="#9a32cd" stroke-dasharray="5,2" d="M122.07,-80.78C129.43,-70.04 140.13,-56.67 152.5,-48 168.14,-37.05 187.89,-29.5 205,-24.5"/>
<polygon fill="#9a32cd" stroke="#9a32cd" points="119.01,-79.05 116.5,-89.35 124.88,-82.87 119.01,-79.05"/>
</a>
</g>
<text text-anchor="start" x="155.5" y="-53.5" font-family="Helvetica,sans-Serif" font-size="10.00" fill="grey">collection</text>
</g>
<!-- Node3&#45;&gt;Node2 -->
<g id="edge3_Node000002_Node000003" class="edge">
<title>Node3&#45;&gt;Node2</title>
<g id="a_edge3_Node000002_Node000003"><a xlink:title=" ">
<path fill="none" stroke="#9a32cd" stroke-dasharray="5,2" d="M235.34,-33.62C229.7,-44.06 221.27,-56.82 210.5,-65 194.99,-76.79 175.05,-84.49 157.14,-89.47"/>
<polygon fill="#9a32cd" stroke="#9a32cd" points="238.54,-35.05 239.88,-24.54 232.28,-31.91 238.54,-35.05"/>
</a>
</g>
<text text-anchor="start" x="229" y="-53.5" font-family="Helvetica,sans-Serif" font-size="10.00" fill="grey">release</text>
</g>
<!-- Node4 -->
<g id="Node000004" class="node">
<title>Node4</title>
<g id="a_Node000004"><a xlink:href="structfiftyone_degrees_data.html" target="_top" xlink:title="Data structure used for reusing memory which may have been allocated in a previous operation.">
<polygon fill="white" stroke="#666666" points="411,-108.5 294,-108.5 294,-89.5 411,-89.5 411,-108.5"/>
<text text-anchor="middle" x="352.5" y="-96.5" font-family="Helvetica,sans-Serif" font-size="10.00">fiftyoneDegreesData</text>
</a>
</g>
</g>
<!-- Node4&#45;&gt;Node3 -->
<g id="edge4_Node000003_Node000004" class="edge">
<title>Node4&#45;&gt;Node3</title>
<g id="a_edge4_Node000003_Node000004"><a xlink:title=" ">
<path fill="none" stroke="#9a32cd" stroke-dasharray="5,2" d="M332.59,-83.02C309.89,-65.95 273.55,-38.6 255.08,-24.71"/>
<polygon fill="#9a32cd" stroke="#9a32cd" points="330.74,-86.01 340.84,-89.22 334.95,-80.42 330.74,-86.01"/>
</a>
</g>
<text text-anchor="start" x="310.5" y="-53.5" font-family="Helvetica,sans-Serif" font-size="10.00" fill="grey">data</text>
</g>
</g>
</svg>
