<?xml version="1.0" encoding="UTF-8" standalone="no"?>
<!DOCTYPE svg PUBLIC "-//W3C//DTD SVG 1.1//EN"
 "http://www.w3.org/Graphics/SVG/1.1/DTD/svg11.dtd">
<!-- Generated by graphviz version 2.43.0 (0)
 -->
<!-- Title: FileCollection Pages: 1 -->
<svg width="483pt" height="240pt"
 viewBox="0.00 0.00 483.00 240.00" xmlns="http://www.w3.org/2000/svg" xmlns:xlink="http://www.w3.org/1999/xlink">
<g id="graph0" class="graph" transform="scale(1 1) rotate(0) translate(4 236)">
<title>FileCollection</title>
<!-- Node1 -->
<g id="node1" class="node">
<title>Node1</title>
<g id="a_node1"><a xlink:title="DATA STRUCTURES.">
<polygon fill="#bfbfbf" stroke="black" points="58,-0.5 58,-19.5 141,-19.5 141,-0.5 58,-0.5"/>
<text text-anchor="middle" x="99.5" y="-7.5" font-family="Helvetica,sans-Serif" font-size="10.00">FileCollection</text>
</a>
</g>
</g>
<!-- Node2 -->
<g id="node2" class="node">
<title>Node2</title>
<g id="a_node2"><a xlink:href="structfiftyone_degrees_collection_config.html" target="_top" xlink:title="Collection configuration structure which defines how the collection should be created by the create m...">
<polygon fill="none" stroke="black" points="0,-67.5 0,-97.5 143,-97.5 143,-67.5 0,-67.5"/>
<text text-anchor="start" x="8" y="-85.5" font-family="Helvetica,sans-Serif" font-size="10.00">fiftyoneDegreesCollection</text>
<text text-anchor="middle" x="71.5" y="-74.5" font-family="Helvetica,sans-Serif" font-size="10.00">Config</text>
</a>
</g>
</g>
<!-- Node2&#45;&gt;Node1 -->
<g id="edge1" class="edge">
<title>Node2&#45;&gt;Node1</title>
<path fill="none" stroke="#9a32cd" stroke-dasharray="5,2" d="M80.89,-57.86C86.07,-44.82 92.2,-29.38 95.97,-19.89"/>
<polygon fill="#9a32cd" stroke="#9a32cd" points="77.6,-56.65 77.17,-67.23 84.11,-59.23 77.6,-56.65"/>
<text text-anchor="middle" x="105" y="-41" font-family="Helvetica,sans-Serif" font-size="10.00"> config</text>
</g>
<!-- Node3 -->
<g id="node3" class="node">
<title>Node3</title>
<g id="a_node3"><a xlink:href="structfiftyone_degrees_file_pool.html" target="_top" xlink:title="Stack of handles used to read data from a single source file.">
<polygon fill="none" stroke="black" points="161.5,-73 161.5,-92 293.5,-92 293.5,-73 161.5,-73"/>
<text text-anchor="middle" x="227.5" y="-80" font-family="Helvetica,sans-Serif" font-size="10.00">fiftyoneDegreesFilePool</text>
</a>
</g>
</g>
<!-- Node3&#45;&gt;Node1 -->
<g id="edge2" class="edge">
<title>Node3&#45;&gt;Node1</title>
<path fill="none" stroke="#9a32cd" stroke-dasharray="5,2" d="M203.21,-68.12C177.27,-53.84 136.94,-31.62 114.99,-19.53"/>
<polygon fill="#9a32cd" stroke="#9a32cd" points="201.61,-71.24 212.06,-73 204.99,-65.11 201.61,-71.24"/>
<text text-anchor="middle" x="185" y="-41" font-family="Helvetica,sans-Serif" font-size="10.00"> reader</text>
</g>
<!-- Node4 -->
<g id="node4" class="node">
<title>Node4</title>
<g id="a_node4"><a xlink:href="structfiftyone_degrees_pool.html" target="_top" xlink:title="Pool of resources stored as items in a stack.">
<polygon fill="none" stroke="black" points="275,-145.5 275,-164.5 390,-164.5 390,-145.5 275,-145.5"/>
<text text-anchor="middle" x="332.5" y="-152.5" font-family="Helvetica,sans-Serif" font-size="10.00">fiftyoneDegreesPool</text>
</a>
</g>
</g>
<!-- Node4&#45;&gt;Node3 -->
<g id="edge3" class="edge">
<title>Node4&#45;&gt;Node3</title>
<path fill="none" stroke="#9a32cd" stroke-dasharray="5,2" d="M311.27,-139.74C290.07,-125.51 258.17,-104.09 240.48,-92.22"/>
<polygon fill="#9a32cd" stroke="#9a32cd" points="309.37,-142.69 319.62,-145.36 313.27,-136.88 309.37,-142.69"/>
<text text-anchor="middle" x="302" y="-119" font-family="Helvetica,sans-Serif" font-size="10.00"> pool</text>
</g>
<!-- Node4&#45;&gt;Node4 -->
<g id="edge4" class="edge">
<title>Node4&#45;&gt;Node4</title>
<path fill="none" stroke="#9a32cd" stroke-dasharray="5,2" d="M400.03,-159.44C404.97,-158.44 408,-156.96 408,-155 408,-151.94 400.62,-150.05 390.11,-149.33"/>
<polygon fill="#9a32cd" stroke="#9a32cd" points="399.6,-155.97 390.11,-160.67 400.46,-162.92 399.6,-155.97"/>
<text text-anchor="middle" x="441.5" y="-152.5" font-family="Helvetica,sans-Serif" font-size="10.00"> resourceFree</text>
</g>
<!-- Node6 -->
<g id="node6" class="node">
<title>Node6</title>
<g id="a_node6"><a xlink:href="structfiftyone_degrees_pool_item.html" target="_top" xlink:title="Pool item node in the stack of items.">
<polygon fill="none" stroke="black" points="312,-73 312,-92 449,-92 449,-73 312,-73"/>
<text text-anchor="middle" x="380.5" y="-80" font-family="Helvetica,sans-Serif" font-size="10.00">fiftyoneDegreesPoolItem</text>
</a>
</g>
</g>
<!-- Node4&#45;&gt;Node6 -->
<g id="edge7" class="edge">
<title>Node4&#45;&gt;Node6</title>
<path fill="none" stroke="#9a32cd" stroke-dasharray="5,2" d="M326.97,-135.32C326.08,-128.86 326.32,-121.8 329.5,-116 335.51,-105.05 346.95,-97.25 357.48,-92.05"/>
<polygon fill="#9a32cd" stroke="#9a32cd" points="323.6,-136.29 329.21,-145.28 330.43,-134.75 323.6,-136.29"/>
<text text-anchor="middle" x="342" y="-119" font-family="Helvetica,sans-Serif" font-size="10.00"> pool</text>
</g>
<!-- Node5 -->
<g id="node5" class="node">
<title>Node5</title>
<g id="a_node5"><a xlink:href="unionfiftyone_degrees_pool_head.html" target="_top" xlink:title="The head of the stack used for pop and push operations.">
<polygon fill="none" stroke="black" points="262.5,-212.5 262.5,-231.5 402.5,-231.5 402.5,-212.5 262.5,-212.5"/>
<text text-anchor="middle" x="332.5" y="-219.5" font-family="Helvetica,sans-Serif" font-size="10.00">fiftyoneDegreesPoolHead</text>
</a>
</g>
</g>
<!-- Node5&#45;&gt;Node4 -->
<g id="edge5" class="edge">
<title>Node5&#45;&gt;Node4</title>
<path fill="none" stroke="#9a32cd" stroke-dasharray="5,2" d="M332.5,-202.04C332.5,-189.67 332.5,-174.12 332.5,-164.63"/>
<polygon fill="#9a32cd" stroke="#9a32cd" points="329,-202.23 332.5,-212.23 336,-202.23 329,-202.23"/>
<text text-anchor="middle" x="346.5" y="-186" font-family="Helvetica,sans-Serif" font-size="10.00"> head</text>
</g>
<!-- Node6&#45;&gt;Node4 -->
<g id="edge6" class="edge">
<title>Node6&#45;&gt;Node4</title>
<path fill="none" stroke="#9a32cd" stroke-dasharray="5,2" d="M372.85,-101.56C369.05,-109.66 364.08,-119.14 358.5,-127 353.75,-133.69 347.38,-140.33 342.13,-145.36"/>
<polygon fill="#9a32cd" stroke="#9a32cd" points="376.12,-102.82 376.99,-92.27 369.72,-99.98 376.12,-102.82"/>
<text text-anchor="middle" x="380.5" y="-119" font-family="Helvetica,sans-Serif" font-size="10.00"> stack</text>
</g>
</g>
</svg>
