<?xml version="1.0" encoding="UTF-8" standalone="no"?>
<!DOCTYPE svg PUBLIC "-//W3C//DTD SVG 1.1//EN"
 "http://www.w3.org/Graphics/SVG/1.1/DTD/svg11.dtd">
<!-- Generated by graphviz version 2.43.0 (0)
 -->
<!-- Title: memoryState Pages: 1 -->
<svg width="346pt" height="110pt"
 viewBox="0.00 0.00 346.00 110.00" xmlns="http://www.w3.org/2000/svg" xmlns:xlink="http://www.w3.org/1999/xlink">
<g id="graph0" class="graph" transform="scale(1 1) rotate(0) translate(4 106)">
<title>memoryState</title>
<!-- Node1 -->
<g id="Node000001" class="node">
<title>Node1</title>
<g id="a_Node000001"><a xlink:title="Shared test state.">
<polygon fill="#999999" stroke="#666666" points="83,-19 0,-19 0,0 83,0 83,-19"/>
<text text-anchor="middle" x="41.5" y="-7" font-family="Helvetica,sans-Serif" font-size="10.00">memoryState</text>
</a>
</g>
</g>
<!-- Node2 -->
<g id="Node000002" class="node">
<title>Node2</title>
<g id="a_Node000002"><a xlink:href="structfiftyone_degrees_resource_manager.html" target="_top" xlink:title="Manager structure used to provide access to a shared and changing resource.">
<polygon fill="white" stroke="#666666" points="182.5,-96.5 0.5,-96.5 0.5,-77.5 182.5,-77.5 182.5,-96.5"/>
<text text-anchor="middle" x="91.5" y="-84.5" font-family="Helvetica,sans-Serif" font-size="10.00">fiftyoneDegreesResourceManager</text>
</a>
</g>
</g>
<!-- Node2&#45;&gt;Node1 -->
<g id="edge1_Node000001_Node000002" class="edge">
<title>Node2&#45;&gt;Node1</title>
<g id="a_edge1_Node000001_Node000002"><a xlink:title=" ">
<path fill="none" stroke="#9a32cd" stroke-dasharray="5,2" d="M60.4,-72.12C53.3,-67.42 46.63,-61.43 42.5,-54 36.48,-43.17 37.76,-28.37 39.46,-19.12"/>
<polygon fill="#9a32cd" stroke="#9a32cd" points="59.07,-75.39 69.47,-77.39 62.58,-69.34 59.07,-75.39"/>
</a>
</g>
<text text-anchor="start" x="45.5" y="-42.5" font-family="Helvetica,sans-Serif" font-size="10.00" fill="grey">manager</text>
</g>
<!-- Node3 -->
<g id="Node000003" class="node">
<title>Node3</title>
<g id="a_Node000003"><a xlink:href="structfiftyone_degrees_resource_handle.html" target="_top" xlink:title="Handle for a shared resource.">
<polygon fill="white" stroke="#666666" points="274,-19 101,-19 101,0 274,0 274,-19"/>
<text text-anchor="middle" x="187.5" y="-7" font-family="Helvetica,sans-Serif" font-size="10.00">fiftyoneDegreesResourceHandle</text>
</a>
</g>
</g>
<!-- Node2&#45;&gt;Node3 -->
<g id="edge4_Node000003_Node000002" class="edge">
<title>Node2&#45;&gt;Node3</title>
<g id="a_edge4_Node000003_Node000002"><a xlink:title=" ">
<path fill="none" stroke="#9a32cd" stroke-dasharray="5,2" d="M95.22,-67.17C98.1,-57.02 103.08,-44.99 111.5,-37 120.22,-28.73 131.65,-23.02 143,-19.09"/>
<polygon fill="#9a32cd" stroke="#9a32cd" points="91.75,-66.61 92.84,-77.15 98.56,-68.23 91.75,-66.61"/>
</a>
</g>
<text text-anchor="start" x="114.5" y="-42.5" font-family="Helvetica,sans-Serif" font-size="10.00" fill="grey">manager</text>
</g>
<!-- Node3&#45;&gt;Node2 -->
<g id="edge2_Node000002_Node000003" class="edge">
<title>Node3&#45;&gt;Node2</title>
<g id="a_edge2_Node000002_Node000003"><a xlink:title=" ">
<path fill="none" stroke="#9a32cd" stroke-dasharray="5,2" d="M181.55,-28.82C178.01,-37.37 172.77,-47.15 165.5,-54 153.88,-64.94 137.94,-72.48 123.82,-77.48"/>
<polygon fill="#9a32cd" stroke="#9a32cd" points="184.9,-29.87 185.05,-19.28 178.32,-27.47 184.9,-29.87"/>
</a>
</g>
<text text-anchor="start" x="181" y="-42.5" font-family="Helvetica,sans-Serif" font-size="10.00" fill="grey">active</text>
</g>
<!-- Node4 -->
<g id="Node000004" class="node">
<title>Node4</title>
<g id="a_Node000004"><a xlink:href="structfiftyone_degrees_interlock_double_width.html" target="_top" xlink:title="Double width (64 or 128 depending on the architecture) compare and exchange.">
<polygon fill="white" stroke="#666666" points="338,-102 201,-102 201,-72 338,-72 338,-102"/>
<text text-anchor="start" x="209" y="-90" font-family="Helvetica,sans-Serif" font-size="10.00">fiftyoneDegreesInterlock</text>
<text text-anchor="middle" x="269.5" y="-79" font-family="Helvetica,sans-Serif" font-size="10.00">DoubleWidth</text>
</a>
</g>
</g>
<!-- Node4&#45;&gt;Node3 -->
<g id="edge3_Node000003_Node000004" class="edge">
<title>Node4&#45;&gt;Node3</title>
<g id="a_edge3_Node000003_Node000004"><a xlink:title=" ">
<path fill="none" stroke="#9a32cd" stroke-dasharray="5,2" d="M253.16,-63.66C246.11,-54.82 237.44,-44.91 228.5,-37 220.75,-30.15 211.08,-23.81 203.07,-19.05"/>
<polygon fill="#9a32cd" stroke="#9a32cd" points="250.49,-65.93 259.37,-71.71 256.03,-61.66 250.49,-65.93"/>
</a>
</g>
<text text-anchor="start" x="247" y="-42.5" font-family="Helvetica,sans-Serif" font-size="10.00" fill="grey">counter</text>
</g>
</g>
</svg>
