<?xml version="1.0" encoding="UTF-8" standalone="no"?>
<!DOCTYPE svg PUBLIC "-//W3C//DTD SVG 1.1//EN"
 "http://www.w3.org/Graphics/SVG/1.1/DTD/svg11.dtd">
<!-- Generated by graphviz version 2.43.0 (0)
 -->
<!-- Title: memoryThreadState Pages: 1 -->
<svg width="1345pt" height="351pt"
 viewBox="0.00 0.00 1345.00 351.00" xmlns="http://www.w3.org/2000/svg" xmlns:xlink="http://www.w3.org/1999/xlink">
<g id="graph0" class="graph" transform="scale(1 1) rotate(0) translate(4 347)">
<title>memoryThreadState</title>
<!-- Node1 -->
<g id="node1" class="node">
<title>Node1</title>
<g id="a_node1"><a xlink:title="Individual thread state where all members are exclusively accessed by a single test thread.">
<polygon fill="#bfbfbf" stroke="black" points="1220,-231.5 1220,-250.5 1337,-250.5 1337,-231.5 1220,-231.5"/>
<text text-anchor="middle" x="1278.5" y="-238.5" font-family="Helvetica,sans-Serif" font-size="10.00">memoryThreadState</text>
</a>
</g>
</g>
<!-- Node2 -->
<g id="node2" class="node">
<title>Node2</title>
<g id="a_node2"><a xlink:href="structmemory_state.html" target="_top" xlink:title="Shared test state.">
<polygon fill="none" stroke="black" points="1019,-323.5 1019,-342.5 1102,-342.5 1102,-323.5 1019,-323.5"/>
<text text-anchor="middle" x="1060.5" y="-330.5" font-family="Helvetica,sans-Serif" font-size="10.00">memoryState</text>
</a>
</g>
</g>
<!-- Node2&#45;&gt;Node1 -->
<g id="edge1" class="edge">
<title>Node2&#45;&gt;Node1</title>
<path fill="none" stroke="#9a32cd" stroke-dasharray="5,2" d="M1095.63,-319.79C1111.33,-313.62 1130.17,-306.08 1147,-299 1185.85,-282.65 1230.65,-262.44 1256.37,-250.7"/>
<polygon fill="#9a32cd" stroke="#9a32cd" points="1094.34,-316.53 1086.3,-323.44 1096.89,-323.05 1094.34,-316.53"/>
<text text-anchor="middle" x="1183.5" y="-292" font-family="Helvetica,sans-Serif" font-size="10.00"> main</text>
</g>
<!-- Node3 -->
<g id="node3" class="node">
<title>Node3</title>
<g id="a_node3"><a xlink:href="structfiftyone_degrees_resource_manager.html" target="_top" xlink:title="Manager structure used to provide access to a shared and changing resource.">
<polygon fill="none" stroke="black" points="709,-304.5 709,-323.5 891,-323.5 891,-304.5 709,-304.5"/>
<text text-anchor="middle" x="800" y="-311.5" font-family="Helvetica,sans-Serif" font-size="10.00">fiftyoneDegreesResourceManager</text>
</a>
</g>
</g>
<!-- Node3&#45;&gt;Node2 -->
<g id="edge2" class="edge">
<title>Node3&#45;&gt;Node2</title>
<path fill="none" stroke="#9a32cd" stroke-dasharray="5,2" d="M891.46,-324.48C897.39,-325.04 903.28,-325.55 909,-326 946.16,-328.93 988.58,-330.76 1018.89,-331.82"/>
<polygon fill="#9a32cd" stroke="#9a32cd" points="891.74,-320.99 881.45,-323.51 891.06,-327.96 891.74,-320.99"/>
<text text-anchor="middle" x="932.5" y="-331" font-family="Helvetica,sans-Serif" font-size="10.00"> manager</text>
</g>
<!-- Node4 -->
<g id="node4" class="node">
<title>Node4</title>
<g id="a_node4"><a xlink:href="structfiftyone_degrees_resource_handle.html" target="_top" xlink:title="Handle for a shared resource.">
<polygon fill="none" stroke="black" points="974,-270.5 974,-289.5 1147,-289.5 1147,-270.5 974,-270.5"/>
<text text-anchor="middle" x="1060.5" y="-277.5" font-family="Helvetica,sans-Serif" font-size="10.00">fiftyoneDegreesResourceHandle</text>
</a>
</g>
</g>
<!-- Node3&#45;&gt;Node4 -->
<g id="edge4" class="edge">
<title>Node3&#45;&gt;Node4</title>
<path fill="none" stroke="#9a32cd" stroke-dasharray="5,2" d="M883.53,-303.15C916.85,-298.76 954.95,-293.75 987.17,-289.51"/>
<polygon fill="#9a32cd" stroke="#9a32cd" points="882.81,-299.71 873.35,-304.48 883.72,-306.65 882.81,-299.71"/>
<text text-anchor="middle" x="932.5" y="-302" font-family="Helvetica,sans-Serif" font-size="10.00"> manager</text>
</g>
<!-- Node4&#45;&gt;Node3 -->
<g id="edge3" class="edge">
<title>Node4&#45;&gt;Node3</title>
<path fill="none" stroke="#9a32cd" stroke-dasharray="5,2" d="M963.91,-276.48C945.61,-276.98 926.65,-278.3 909,-281 879.35,-285.53 846.56,-296.43 824.98,-304.47"/>
<polygon fill="#9a32cd" stroke="#9a32cd" points="964.07,-279.97 974,-276.28 963.93,-272.98 964.07,-279.97"/>
<text text-anchor="middle" x="932.5" y="-284" font-family="Helvetica,sans-Serif" font-size="10.00"> active</text>
</g>
<!-- Node5 -->
<g id="node5" class="node">
<title>Node5</title>
<g id="a_node5"><a xlink:href="structfiftyone_degrees_interlock_double_width.html" target="_top" xlink:title="Double width (64 or 128 depending on the architecture) compare and exchange.">
<polygon fill="none" stroke="black" points="731.5,-231 731.5,-261 868.5,-261 868.5,-231 731.5,-231"/>
<text text-anchor="start" x="739.5" y="-249" font-family="Helvetica,sans-Serif" font-size="10.00">fiftyoneDegreesInterlock</text>
<text text-anchor="middle" x="800" y="-238" font-family="Helvetica,sans-Serif" font-size="10.00">DoubleWidth</text>
</a>
</g>
</g>
<!-- Node5&#45;&gt;Node4 -->
<g id="edge5" class="edge">
<title>Node5&#45;&gt;Node4</title>
<path fill="none" stroke="#9a32cd" stroke-dasharray="5,2" d="M878.73,-252.22C903.48,-254.55 930.94,-257.49 956,-261 974.55,-263.59 994.83,-267.16 1012.49,-270.5"/>
<polygon fill="#9a32cd" stroke="#9a32cd" points="878.95,-248.72 868.67,-251.29 878.31,-255.69 878.95,-248.72"/>
<text text-anchor="middle" x="932.5" y="-264" font-family="Helvetica,sans-Serif" font-size="10.00"> counter</text>
</g>
<!-- Node6 -->
<g id="node6" class="node">
<title>Node6</title>
<g id="a_node6"><a xlink:href="structfiftyone_degrees_result_ipi_array.html" target="_top" xlink:title="Array of items of type fiftyoneDegreesResultIpi used to easily access and track the size of the array...">
<polygon fill="none" stroke="black" points="992,-149 992,-179 1129,-179 1129,-149 992,-149"/>
<text text-anchor="start" x="1000" y="-167" font-family="Helvetica,sans-Serif" font-size="10.00">fiftyoneDegreesResultIpi</text>
<text text-anchor="middle" x="1060.5" y="-156" font-family="Helvetica,sans-Serif" font-size="10.00">Array</text>
</a>
</g>
</g>
<!-- Node6&#45;&gt;Node1 -->
<g id="edge6" class="edge">
<title>Node6&#45;&gt;Node1</title>
<path fill="none" stroke="#9a32cd" stroke-dasharray="5,2" d="M1113.18,-182.42C1156.48,-197.86 1216.55,-219.27 1250.78,-231.48"/>
<polygon fill="#9a32cd" stroke="#9a32cd" points="1114.25,-179.09 1103.66,-179.03 1111.9,-185.68 1114.25,-179.09"/>
<text text-anchor="middle" x="1183.5" y="-216" font-family="Helvetica,sans-Serif" font-size="10.00"> results</text>
</g>
<!-- Node7 -->
<g id="node7" class="node">
<title>Node7</title>
<g id="a_node7"><a xlink:href="structfiftyone_degrees_result_ipi.html" target="_top" xlink:title="Singular IP address result returned by a detection process method.">
<polygon fill="none" stroke="black" points="731.5,-192.5 731.5,-211.5 868.5,-211.5 868.5,-192.5 731.5,-192.5"/>
<text text-anchor="middle" x="800" y="-199.5" font-family="Helvetica,sans-Serif" font-size="10.00">fiftyoneDegreesResultIpi</text>
</a>
</g>
</g>
<!-- Node7&#45;&gt;Node6 -->
<g id="edge7" class="edge">
<title>Node7&#45;&gt;Node6</title>
<path fill="none" stroke="#9a32cd" stroke-dasharray="5,2" d="M876.02,-190.97C912.62,-185.59 956.31,-179.17 991.87,-173.94"/>
<polygon fill="#9a32cd" stroke="#9a32cd" points="875.28,-187.54 865.9,-192.46 876.3,-194.47 875.28,-187.54"/>
<text text-anchor="middle" x="932.5" y="-188" font-family="Helvetica,sans-Serif" font-size="10.00"> items</text>
</g>
<!-- Node8 -->
<g id="node8" class="node">
<title>Node8</title>
<g id="a_node8"><a xlink:href="structfiftyone_degrees_ip_address.html" target="_top" xlink:title="The structure to hold a IP Address in byte array format.">
<polygon fill="none" stroke="black" points="440,-211.5 440,-230.5 582,-230.5 582,-211.5 440,-211.5"/>
<text text-anchor="middle" x="511" y="-218.5" font-family="Helvetica,sans-Serif" font-size="10.00">fiftyoneDegreesIpAddress</text>
</a>
</g>
</g>
<!-- Node8&#45;&gt;Node7 -->
<g id="edge8" class="edge">
<title>Node8&#45;&gt;Node7</title>
<path fill="none" stroke="#9a32cd" stroke-dasharray="5,2" d="M592.27,-215.69C636.12,-212.78 689.82,-209.23 731.49,-206.47"/>
<polygon fill="#9a32cd" stroke="#9a32cd" points="591.96,-212.2 582.21,-216.35 592.42,-219.18 591.96,-212.2"/>
<text text-anchor="middle" x="650.5" y="-217" font-family="Helvetica,sans-Serif" font-size="10.00"> targetIpAddress</text>
</g>
<!-- Node9 -->
<g id="node9" class="node">
<title>Node9</title>
<g id="a_node9"><a xlink:href="structfiftyone_degrees_ipi_cg_result.html" target="_top" xlink:title="The evaluation result from graph collection.">
<polygon fill="none" stroke="black" points="436.5,-173.5 436.5,-192.5 585.5,-192.5 585.5,-173.5 436.5,-173.5"/>
<text text-anchor="middle" x="511" y="-180.5" font-family="Helvetica,sans-Serif" font-size="10.00">fiftyoneDegreesIpiCgResult</text>
</a>
</g>
</g>
<!-- Node9&#45;&gt;Node7 -->
<g id="edge9" class="edge">
<title>Node9&#45;&gt;Node7</title>
<path fill="none" stroke="#9a32cd" stroke-dasharray="5,2" d="M595.63,-187.92C625.71,-189.75 659.88,-191.89 691,-194 704.04,-194.88 717.96,-195.88 731.32,-196.86"/>
<polygon fill="#9a32cd" stroke="#9a32cd" points="595.8,-184.42 585.6,-187.31 595.37,-191.41 595.8,-184.42"/>
<text text-anchor="middle" x="650.5" y="-197" font-family="Helvetica,sans-Serif" font-size="10.00"> graphResult</text>
</g>
<!-- Node10 -->
<g id="node10" class="node">
<title>Node10</title>
<g id="a_node10"><a xlink:href="structfiftyone_degrees_results_base.html" target="_top" xlink:title="Base results structure which any processing results should extend.">
<polygon fill="none" stroke="black" points="723,-154.5 723,-173.5 877,-173.5 877,-154.5 723,-154.5"/>
<text text-anchor="middle" x="800" y="-161.5" font-family="Helvetica,sans-Serif" font-size="10.00">fiftyoneDegreesResultsBase</text>
</a>
</g>
</g>
<!-- Node10&#45;&gt;Node6 -->
<g id="edge10" class="edge">
<title>Node10&#45;&gt;Node6</title>
<path fill="none" stroke="#9a32cd" stroke-dasharray="5,2" d="M887.55,-164C921.51,-164 959.91,-164 991.79,-164"/>
<polygon fill="#9a32cd" stroke="#9a32cd" points="887.16,-160.5 877.16,-164 887.16,-167.5 887.16,-160.5"/>
<text text-anchor="middle" x="932.5" y="-167" font-family="Helvetica,sans-Serif" font-size="10.00"> b</text>
</g>
<!-- Node11 -->
<g id="node11" class="node">
<title>Node11</title>
<g id="a_node11"><a xlink:href="structfiftyone_degrees_collection_item.html" target="_top" xlink:title="Used to store a handle to the underlying item that could be used to release the item when it&#39;s finish...">
<polygon fill="none" stroke="black" points="178,-53.5 178,-72.5 343,-72.5 343,-53.5 178,-53.5"/>
<text text-anchor="middle" x="260.5" y="-60.5" font-family="Helvetica,sans-Serif" font-size="10.00">fiftyoneDegreesCollectionItem</text>
</a>
</g>
</g>
<!-- Node11&#45;&gt;Node6 -->
<g id="edge11" class="edge">
<title>Node11&#45;&gt;Node6</title>
<path fill="none" stroke="#9a32cd" stroke-dasharray="5,2" d="M301.57,-75.56C335.44,-85.67 385.43,-99.4 430,-107 632.66,-141.54 686.39,-125.04 891,-145 924.26,-148.24 961.14,-152.35 991.91,-155.91"/>
<polygon fill="#9a32cd" stroke="#9a32cd" points="302.18,-72.09 291.6,-72.55 300.16,-78.79 302.18,-72.09"/>
<text text-anchor="middle" x="650.5" y="-135" font-family="Helvetica,sans-Serif" font-size="10.00"> propertyItem</text>
</g>
<!-- Node12 -->
<g id="node12" class="node">
<title>Node12</title>
<g id="a_node12"><a xlink:href="structfiftyone_degrees_collection.html" target="_top" xlink:title="All the shared methods and fields required by file, memory and cached collections.">
<polygon fill="none" stroke="black" points="439.5,-38.5 439.5,-57.5 582.5,-57.5 582.5,-38.5 439.5,-38.5"/>
<text text-anchor="middle" x="511" y="-45.5" font-family="Helvetica,sans-Serif" font-size="10.00">fiftyoneDegreesCollection</text>
</a>
</g>
</g>
<!-- Node11&#45;&gt;Node12 -->
<g id="edge13" class="edge">
<title>Node11&#45;&gt;Node12</title>
<path fill="none" stroke="#9a32cd" stroke-dasharray="5,2" d="M353.23,-60.95C372.65,-60.24 393.01,-59.28 412,-58 420.87,-57.4 430.18,-56.63 439.39,-55.79"/>
<polygon fill="#9a32cd" stroke="#9a32cd" points="353.05,-57.46 343.17,-61.31 353.29,-64.45 353.05,-57.46"/>
<text text-anchor="middle" x="386.5" y="-64" font-family="Helvetica,sans-Serif" font-size="10.00"> release</text>
</g>
<!-- Node15 -->
<g id="node15" class="node">
<title>Node15</title>
<g id="a_node15"><a xlink:href="structfiftyone_degrees_weighted_item.html" target="_top" xlink:title="A weighted collection item.">
<polygon fill="none" stroke="black" points="430,-0.5 430,-19.5 592,-19.5 592,-0.5 430,-0.5"/>
<text text-anchor="middle" x="511" y="-7.5" font-family="Helvetica,sans-Serif" font-size="10.00">fiftyoneDegreesWeightedItem</text>
</a>
</g>
</g>
<!-- Node11&#45;&gt;Node15 -->
<g id="edge18" class="edge">
<title>Node11&#45;&gt;Node15</title>
<path fill="none" stroke="#9a32cd" stroke-dasharray="5,2" d="M295.5,-49.97C314.52,-43.13 338.8,-35.12 361,-30 383.13,-24.89 407.42,-20.95 429.86,-17.96"/>
<polygon fill="#9a32cd" stroke="#9a32cd" points="294.26,-46.7 286.08,-53.42 296.67,-53.27 294.26,-46.7"/>
<text text-anchor="middle" x="386.5" y="-33" font-family="Helvetica,sans-Serif" font-size="10.00"> item</text>
</g>
<!-- Node12&#45;&gt;Node11 -->
<g id="edge12" class="edge">
<title>Node12&#45;&gt;Node11</title>
<path fill="none" stroke="#9a32cd" stroke-dasharray="5,2" d="M429.37,-44.92C407.19,-44.76 383.14,-45.23 361,-47 344.61,-48.31 326.84,-50.81 310.91,-53.46"/>
<polygon fill="#9a32cd" stroke="#9a32cd" points="429.38,-48.42 439.42,-45.03 429.46,-41.42 429.38,-48.42"/>
<text text-anchor="middle" x="386.5" y="-50" font-family="Helvetica,sans-Serif" font-size="10.00"> collection</text>
</g>
<!-- Node12&#45;&gt;Node12 -->
<g id="edge14" class="edge">
<title>Node12&#45;&gt;Node12</title>
<path fill="none" stroke="#9a32cd" stroke-dasharray="5,2" d="M487.93,-67.03C489.19,-72.13 496.88,-76 511,-76 533.04,-76 539.41,-66.57 530.11,-57.76"/>
<polygon fill="#9a32cd" stroke="#9a32cd" points="491.19,-68.33 491.89,-57.76 484.75,-65.58 491.19,-68.33"/>
<text text-anchor="middle" x="511" y="-90" font-family="Helvetica,sans-Serif" font-size="10.00"> freeCollection</text>
<text text-anchor="middle" x="511" y="-79" font-family="Helvetica,sans-Serif" font-size="10.00">get</text>
</g>
<!-- Node13 -->
<g id="node13" class="node">
<title>Node13</title>
<g id="a_node13"><a xlink:href="structfiftyone_degrees_data.html" target="_top" xlink:title="Data structure used for reusing memory which may have been allocated in a previous operation.">
<polygon fill="none" stroke="black" points="0,-53.5 0,-72.5 117,-72.5 117,-53.5 0,-53.5"/>
<text text-anchor="middle" x="58.5" y="-60.5" font-family="Helvetica,sans-Serif" font-size="10.00">fiftyoneDegreesData</text>
</a>
</g>
</g>
<!-- Node13&#45;&gt;Node11 -->
<g id="edge15" class="edge">
<title>Node13&#45;&gt;Node11</title>
<path fill="none" stroke="#9a32cd" stroke-dasharray="5,2" d="M127.5,-63C143.67,-63 161.08,-63 177.78,-63"/>
<polygon fill="#9a32cd" stroke="#9a32cd" points="127.08,-59.5 117.08,-63 127.08,-66.5 127.08,-59.5"/>
<text text-anchor="middle" x="147.5" y="-66" font-family="Helvetica,sans-Serif" font-size="10.00"> data</text>
</g>
<!-- Node14 -->
<g id="node14" class="node">
<title>Node14</title>
<g id="a_node14"><a xlink:href="structfiftyone_degrees_weighted_item_list.html" target="_top" xlink:title="A resizable list of weighted items.">
<polygon fill="none" stroke="black" points="710.5,-59.5 710.5,-78.5 889.5,-78.5 889.5,-59.5 710.5,-59.5"/>
<text text-anchor="middle" x="800" y="-66.5" font-family="Helvetica,sans-Serif" font-size="10.00">fiftyoneDegreesWeightedItemList</text>
</a>
</g>
</g>
<!-- Node14&#45;&gt;Node6 -->
<g id="edge16" class="edge">
<title>Node14&#45;&gt;Node6</title>
<path fill="none" stroke="#9a32cd" stroke-dasharray="5,2" d="M882.55,-80.4C906.7,-85.21 932.86,-91.88 956,-101 987.12,-113.26 1019.51,-134.59 1039.59,-149"/>
<polygon fill="#9a32cd" stroke="#9a32cd" points="883.18,-76.96 872.7,-78.51 881.86,-83.83 883.18,-76.96"/>
<text text-anchor="middle" x="932.5" y="-104" font-family="Helvetica,sans-Serif" font-size="10.00"> values</text>
</g>
<!-- Node15&#45;&gt;Node14 -->
<g id="edge17" class="edge">
<title>Node15&#45;&gt;Node14</title>
<path fill="none" stroke="#9a32cd" stroke-dasharray="5,2" d="M568.5,-21.61C622.34,-32.68 702.44,-49.15 752.64,-59.47"/>
<polygon fill="#9a32cd" stroke="#9a32cd" points="568.93,-18.13 558.43,-19.54 567.52,-24.99 568.93,-18.13"/>
<text text-anchor="middle" x="650.5" y="-50" font-family="Helvetica,sans-Serif" font-size="10.00"> items</text>
</g>
</g>
</svg>
