<?xml version="1.0" encoding="UTF-8" standalone="no"?>
<!DOCTYPE svg PUBLIC "-//W3C//DTD SVG 1.1//EN"
 "http://www.w3.org/Graphics/SVG/1.1/DTD/svg11.dtd">
<!-- Generated by graphviz version 2.43.0 (0)
 -->
<!-- Title: allocation Pages: 1 -->
<svg width="228pt" height="142pt"
 viewBox="0.00 0.00 228.00 142.00" xmlns="http://www.w3.org/2000/svg" xmlns:xlink="http://www.w3.org/1999/xlink">
<g id="graph0" class="graph" transform="scale(1 1) rotate(0) translate(4 138)">
<title>allocation</title>
<!-- Node1 -->
<g id="Node000001" class="node">
<title>Node1</title>
<g id="a_Node000001"><a xlink:title=" ">
<polygon fill="#999999" stroke="#666666" points="65,-19 0,-19 0,0 65,0 65,-19"/>
<text text-anchor="middle" x="32.5" y="-7" font-family="Helvetica,sans-Serif" font-size="10.00">allocation</text>
</a>
</g>
</g>
<!-- Node2 -->
<g id="Node000002" class="node">
<title>Node2</title>
<g id="a_Node000002"><a xlink:href="structfiftyone_degrees_tree_node.html" target="_top" xlink:title="Node structure defining a single node in the tree.">
<polygon fill="white" stroke="#666666" points="160.5,-120 20.5,-120 20.5,-101 160.5,-101 160.5,-120"/>
<text text-anchor="middle" x="90.5" y="-108" font-family="Helvetica,sans-Serif" font-size="10.00">fiftyoneDegreesTreeNode</text>
</a>
</g>
</g>
<!-- Node2&#45;&gt;Node1 -->
<g id="edge1_Node000001_Node000002" class="edge">
<title>Node2&#45;&gt;Node1</title>
<g id="a_edge1_Node000001_Node000002"><a xlink:title=" ">
<path fill="none" stroke="#9a32cd" stroke-dasharray="5,2" d="M67.06,-95C58,-88.21 48.41,-79.33 42.5,-69 33.39,-53.08 32.12,-31.02 32.18,-19.05"/>
<polygon fill="#9a32cd" stroke="#9a32cd" points="65.25,-98 75.45,-100.85 69.25,-92.26 65.25,-98"/>
</a>
</g>
<text text-anchor="start" x="45.5" y="-50" font-family="Helvetica,sans-Serif" font-size="10.00" fill="grey">tree</text>
</g>
<!-- Node2&#45;&gt;Node2 -->
<g id="edge4_Node000002_Node000002" class="edge">
<title>Node2&#45;&gt;Node2</title>
<g id="a_edge4_Node000002_Node000002"><a xlink:title=" ">
<path fill="none" stroke="#9a32cd" stroke-dasharray="5,2" d="M138.11,-120.82C159.73,-121.86 178.5,-118.42 178.5,-110.5 178.5,-101.37 153.53,-98.19 128.03,-100.97"/>
<polygon fill="#9a32cd" stroke="#9a32cd" points="138.28,-117.32 128.03,-120.03 137.73,-124.3 138.28,-117.32"/>
</a>
</g>
<text text-anchor="start" x="181.5" y="-122.5" font-family="Helvetica,sans-Serif" font-size="10.00" fill="grey">left</text>
<text text-anchor="start" x="181.5" y="-107.5" font-family="Helvetica,sans-Serif" font-size="10.00" fill="grey">parent</text>
<text text-anchor="start" x="181.5" y="-92.5" font-family="Helvetica,sans-Serif" font-size="10.00" fill="grey">right</text>
</g>
<!-- Node3 -->
<g id="Node000003" class="node">
<title>Node3</title>
<g id="a_Node000003"><a xlink:href="structfiftyone_degrees_tree_root.html" target="_top" xlink:title="Tree root structure defining the beginning of the tree.">
<polygon fill="white" stroke="#666666" points="220,-19 83,-19 83,0 220,0 220,-19"/>
<text text-anchor="middle" x="151.5" y="-7" font-family="Helvetica,sans-Serif" font-size="10.00">fiftyoneDegreesTreeRoot</text>
</a>
</g>
</g>
<!-- Node2&#45;&gt;Node3 -->
<g id="edge3_Node000003_Node000002" class="edge">
<title>Node2&#45;&gt;Node3</title>
<g id="a_edge3_Node000003_Node000002"><a xlink:title=" ">
<path fill="none" stroke="#9a32cd" stroke-dasharray="5,2" d="M84.08,-90.94C79.88,-75.23 76.92,-52.83 87.5,-37 93.05,-28.7 101.72,-23 110.92,-19.08"/>
<polygon fill="#9a32cd" stroke="#9a32cd" points="80.75,-92.04 87.03,-100.57 87.45,-89.99 80.75,-92.04"/>
</a>
</g>
<text text-anchor="start" x="90.5" y="-58" font-family="Helvetica,sans-Serif" font-size="10.00" fill="grey">empty</text>
<text text-anchor="start" x="90.5" y="-43" font-family="Helvetica,sans-Serif" font-size="10.00" fill="grey">root</text>
</g>
<!-- Node3&#45;&gt;Node2 -->
<g id="edge2_Node000002_Node000003" class="edge">
<title>Node3&#45;&gt;Node2</title>
<g id="a_edge2_Node000002_Node000003"><a xlink:title=" ">
<path fill="none" stroke="#9a32cd" stroke-dasharray="5,2" d="M146.62,-29.12C142.99,-41.08 137.31,-56.64 129.5,-69 121.68,-81.38 109.64,-93.16 101,-100.79"/>
<polygon fill="#9a32cd" stroke="#9a32cd" points="150.03,-29.91 149.38,-19.34 143.3,-28.01 150.03,-29.91"/>
</a>
</g>
<text text-anchor="start" x="146.5" y="-50" font-family="Helvetica,sans-Serif" font-size="10.00" fill="grey">root</text>
</g>
</g>
</svg>
