<?xml version="1.0" encoding="UTF-8" standalone="no"?>
<!DOCTYPE svg PUBLIC "-//W3C//DTD SVG 1.1//EN"
 "http://www.w3.org/Graphics/SVG/1.1/DTD/svg11.dtd">
<!-- Generated by graphviz version 2.43.0 (0)
 -->
<!-- Title: fiftyoneDegreesResourceHandle Pages: 1 -->
<svg width="190pt" height="182pt"
 viewBox="0.00 0.00 190.00 182.00" xmlns="http://www.w3.org/2000/svg" xmlns:xlink="http://www.w3.org/1999/xlink">
<g id="graph0" class="graph" transform="scale(1 1) rotate(0) translate(4 178)">
<title>fiftyoneDegreesResourceHandle</title>
<!-- Node1 -->
<g id="Node000001" class="node">
<title>Node1</title>
<g id="a_Node000001"><a xlink:title="Handle for a shared resource.">
<polygon fill="#999999" stroke="#666666" points="177.5,-91 4.5,-91 4.5,-72 177.5,-72 177.5,-91"/>
<text text-anchor="middle" x="91" y="-79" font-family="Helvetica,sans-Serif" font-size="10.00">fiftyoneDegreesResourceHandle</text>
</a>
</g>
</g>
<!-- Node3 -->
<g id="Node000003" class="node">
<title>Node3</title>
<g id="a_Node000003"><a xlink:href="structfiftyone_degrees_resource_manager.html" target="_top" xlink:title="Manager structure used to provide access to a shared and changing resource.">
<polygon fill="white" stroke="#666666" points="182,-19 0,-19 0,0 182,0 182,-19"/>
<text text-anchor="middle" x="91" y="-7" font-family="Helvetica,sans-Serif" font-size="10.00">fiftyoneDegreesResourceManager</text>
</a>
</g>
</g>
<!-- Node1&#45;&gt;Node3 -->
<g id="edge3_Node000003_Node000001" class="edge">
<title>Node1&#45;&gt;Node3</title>
<g id="a_edge3_Node000003_Node000001"><a xlink:title=" ">
<path fill="none" stroke="#9a32cd" stroke-dasharray="5,2" d="M66.71,-65.41C63.18,-62.11 60.06,-58.29 58,-54 54.73,-47.19 54.73,-43.81 58,-37 61.56,-29.58 68.32,-23.58 74.8,-19.18"/>
<polygon fill="#9a32cd" stroke="#9a32cd" points="64.79,-68.35 74.8,-71.82 69.14,-62.87 64.79,-68.35"/>
</a>
</g>
<text text-anchor="start" x="61.5" y="-42.5" font-family="Helvetica,sans-Serif" font-size="10.00" fill="grey">active</text>
</g>
<!-- Node2 -->
<g id="Node000002" class="node">
<title>Node2</title>
<g id="a_Node000002"><a xlink:href="structfiftyone_degrees_interlock_double_width.html" target="_top" xlink:title="Double width (64 or 128 depending on the architecture) compare and exchange.">
<polygon fill="white" stroke="#666666" points="159.5,-174 22.5,-174 22.5,-144 159.5,-144 159.5,-174"/>
<text text-anchor="start" x="30.5" y="-162" font-family="Helvetica,sans-Serif" font-size="10.00">fiftyoneDegreesInterlock</text>
<text text-anchor="middle" x="91" y="-151" font-family="Helvetica,sans-Serif" font-size="10.00">DoubleWidth</text>
</a>
</g>
</g>
<!-- Node2&#45;&gt;Node1 -->
<g id="edge1_Node000001_Node000002" class="edge">
<title>Node2&#45;&gt;Node1</title>
<g id="a_edge1_Node000001_Node000002"><a xlink:title=" ">
<path fill="none" stroke="#9a32cd" stroke-dasharray="5,2" d="M91,-133.4C91,-118.81 91,-101.22 91,-91.01"/>
<polygon fill="#9a32cd" stroke="#9a32cd" points="87.5,-133.8 91,-143.8 94.5,-133.8 87.5,-133.8"/>
</a>
</g>
<text text-anchor="start" x="94.5" y="-114.5" font-family="Helvetica,sans-Serif" font-size="10.00" fill="grey">counter</text>
</g>
<!-- Node3&#45;&gt;Node1 -->
<g id="edge2_Node000001_Node000003" class="edge">
<title>Node3&#45;&gt;Node1</title>
<g id="a_edge2_Node000001_Node000003"><a xlink:title=" ">
<path fill="none" stroke="#9a32cd" stroke-dasharray="5,2" d="M97.3,-28.88C98,-31.57 98.61,-34.34 99,-37 100.1,-44.47 100.1,-46.53 99,-54 98.1,-60.09 96.1,-66.71 94.33,-71.81"/>
<polygon fill="#9a32cd" stroke="#9a32cd" points="100.61,-27.72 94.33,-19.19 93.91,-29.77 100.61,-27.72"/>
</a>
</g>
<text text-anchor="start" x="102" y="-42.5" font-family="Helvetica,sans-Serif" font-size="10.00" fill="grey">manager</text>
</g>
</g>
</svg>
