<?xml version="1.0" encoding="UTF-8" standalone="no"?>
<!DOCTYPE svg PUBLIC "-//W3C//DTD SVG 1.1//EN"
 "http://www.w3.org/Graphics/SVG/1.1/DTD/svg11.dtd">
<!-- Generated by graphviz version 2.43.0 (0)
 -->
<!-- Title: fiftyoneDegreesCollectionFile Pages: 1 -->
<svg width="706pt" height="256pt"
 viewBox="0.00 0.00 706.00 256.00" xmlns="http://www.w3.org/2000/svg" xmlns:xlink="http://www.w3.org/1999/xlink">
<g id="graph0" class="graph" transform="scale(1 1) rotate(0) translate(4 252)">
<title>fiftyoneDegreesCollectionFile</title>
<!-- Node1 -->
<g id="Node000001" class="node">
<title>Node1</title>
<g id="a_Node000001"><a xlink:title="Type of collection where the collection is streamed from file.">
<polygon fill="#999999" stroke="#666666" points="429.5,-19 269.5,-19 269.5,0 429.5,0 429.5,-19"/>
<text text-anchor="middle" x="349.5" y="-7" font-family="Helvetica,sans-Serif" font-size="10.00">fiftyoneDegreesCollectionFile</text>
</a>
</g>
</g>
<!-- Node1&#45;&gt;Node1 -->
<g id="edge12_Node000001_Node000001" class="edge">
<title>Node1&#45;&gt;Node1</title>
<g id="a_edge12_Node000001_Node000001"><a xlink:title=" ">
<path fill="none" stroke="#9a32cd" stroke-dasharray="5,2" d="M440.1,-13.9C444.75,-12.81 447.5,-11.35 447.5,-9.5 447.5,-6.55 440.47,-4.56 429.86,-3.55"/>
<polygon fill="#9a32cd" stroke="#9a32cd" points="439.22,-10.49 429.86,-15.45 440.27,-17.42 439.22,-10.49"/>
</a>
</g>
<text text-anchor="start" x="450.5" y="-6.5" font-family="Helvetica,sans-Serif" font-size="10.00" fill="grey">read</text>
</g>
<!-- Node2 -->
<g id="Node000002" class="node">
<title>Node2</title>
<g id="a_Node000002"><a xlink:href="structfiftyone_degrees_collection.html" target="_top" xlink:title="All the shared methods and fields required by file, memory and cached collections.">
<polygon fill="white" stroke="#666666" points="278,-97.5 135,-97.5 135,-78.5 278,-78.5 278,-97.5"/>
<text text-anchor="middle" x="206.5" y="-85.5" font-family="Helvetica,sans-Serif" font-size="10.00">fiftyoneDegreesCollection</text>
</a>
</g>
</g>
<!-- Node2&#45;&gt;Node1 -->
<g id="edge1_Node000001_Node000002" class="edge">
<title>Node2&#45;&gt;Node1</title>
<g id="a_edge1_Node000001_Node000002"><a xlink:title=" ">
<path fill="none" stroke="#9a32cd" stroke-dasharray="5,2" d="M231.8,-73.46C261.09,-57.8 308.44,-32.47 333.21,-19.21"/>
<polygon fill="#9a32cd" stroke="#9a32cd" points="229.79,-70.57 222.63,-78.37 233.09,-76.74 229.79,-70.57"/>
</a>
</g>
<text text-anchor="start" x="302.5" y="-42.5" font-family="Helvetica,sans-Serif" font-size="10.00" fill="grey">collection</text>
</g>
<!-- Node2&#45;&gt;Node2 -->
<g id="edge2_Node000002_Node000002" class="edge">
<title>Node2&#45;&gt;Node2</title>
<g id="a_edge2_Node000002_Node000002"><a xlink:title=" ">
<path fill="none" stroke="#9a32cd" stroke-dasharray="5,2" d="M288.11,-93.45C293.04,-92.16 296,-90.34 296,-88 296,-84.35 288.79,-81.97 278.13,-80.86"/>
<polygon fill="#9a32cd" stroke="#9a32cd" points="287.4,-90.02 278.13,-95.14 288.57,-96.92 287.4,-90.02"/>
</a>
</g>
<text text-anchor="start" x="299.5" y="-93" font-family="Helvetica,sans-Serif" font-size="10.00" fill="grey">freeCollection</text>
<text text-anchor="start" x="299.5" y="-78" font-family="Helvetica,sans-Serif" font-size="10.00" fill="grey">get</text>
</g>
<!-- Node3 -->
<g id="Node000003" class="node">
<title>Node3</title>
<g id="a_Node000003"><a xlink:href="structfiftyone_degrees_collection_item.html" target="_top" xlink:title="Used to store a handle to the underlying item that could be used to release the item when it&#39;s finish...">
<polygon fill="white" stroke="#666666" points="223,-19 58,-19 58,0 223,0 223,-19"/>
<text text-anchor="middle" x="140.5" y="-7" font-family="Helvetica,sans-Serif" font-size="10.00">fiftyoneDegreesCollectionItem</text>
</a>
</g>
</g>
<!-- Node2&#45;&gt;Node3 -->
<g id="edge5_Node000003_Node000002" class="edge">
<title>Node2&#45;&gt;Node3</title>
<g id="a_edge5_Node000003_Node000002"><a xlink:title=" ">
<path fill="none" stroke="#9a32cd" stroke-dasharray="5,2" d="M201.49,-68.75C197.99,-58.55 192.5,-46.09 184.5,-37 177.9,-29.5 168.66,-23.49 160.34,-19.1"/>
<polygon fill="#9a32cd" stroke="#9a32cd" points="198.15,-69.81 204.43,-78.34 204.84,-67.75 198.15,-69.81"/>
</a>
</g>
<text text-anchor="start" x="198.5" y="-42.5" font-family="Helvetica,sans-Serif" font-size="10.00" fill="grey">collection</text>
</g>
<!-- Node3&#45;&gt;Node2 -->
<g id="edge3_Node000002_Node000003" class="edge">
<title>Node3&#45;&gt;Node2</title>
<g id="a_edge3_Node000002_Node000003"><a xlink:title=" ">
<path fill="none" stroke="#9a32cd" stroke-dasharray="5,2" d="M136.83,-29.35C136.23,-37.5 136.96,-46.79 141.5,-54 148.85,-65.67 161.73,-73.39 174.09,-78.4"/>
<polygon fill="#9a32cd" stroke="#9a32cd" points="140.32,-29.64 138.24,-19.25 133.39,-28.67 140.32,-29.64"/>
</a>
</g>
<text text-anchor="start" x="145" y="-42.5" font-family="Helvetica,sans-Serif" font-size="10.00" fill="grey">release</text>
</g>
<!-- Node4 -->
<g id="Node000004" class="node">
<title>Node4</title>
<g id="a_Node000004"><a xlink:href="structfiftyone_degrees_data.html" target="_top" xlink:title="Data structure used for reusing memory which may have been allocated in a previous operation.">
<polygon fill="white" stroke="#666666" points="117,-97.5 0,-97.5 0,-78.5 117,-78.5 117,-97.5"/>
<text text-anchor="middle" x="58.5" y="-85.5" font-family="Helvetica,sans-Serif" font-size="10.00">fiftyoneDegreesData</text>
</a>
</g>
</g>
<!-- Node4&#45;&gt;Node3 -->
<g id="edge4_Node000003_Node000004" class="edge">
<title>Node4&#45;&gt;Node3</title>
<g id="a_edge4_Node000003_Node000004"><a xlink:title=" ">
<path fill="none" stroke="#9a32cd" stroke-dasharray="5,2" d="M72.5,-70.76C81.52,-60.64 93.73,-47.58 105.5,-37 112.64,-30.58 121.23,-24.06 128.12,-19.09"/>
<polygon fill="#9a32cd" stroke="#9a32cd" points="69.72,-68.62 65.75,-78.45 74.98,-73.24 69.72,-68.62"/>
</a>
</g>
<text text-anchor="start" x="108.5" y="-42.5" font-family="Helvetica,sans-Serif" font-size="10.00" fill="grey">data</text>
</g>
<!-- Node5 -->
<g id="Node000005" class="node">
<title>Node5</title>
<g id="a_Node000005"><a xlink:href="structfiftyone_degrees_file_pool.html" target="_top" xlink:title="Stack of handles used to read data from a single source file.">
<polygon fill="white" stroke="#666666" points="521.5,-97.5 389.5,-97.5 389.5,-78.5 521.5,-78.5 521.5,-97.5"/>
<text text-anchor="middle" x="455.5" y="-85.5" font-family="Helvetica,sans-Serif" font-size="10.00">fiftyoneDegreesFilePool</text>
</a>
</g>
</g>
<!-- Node5&#45;&gt;Node1 -->
<g id="edge6_Node000001_Node000005" class="edge">
<title>Node5&#45;&gt;Node1</title>
<g id="a_edge6_Node000001_Node000005"><a xlink:title=" ">
<path fill="none" stroke="#9a32cd" stroke-dasharray="5,2" d="M435.08,-72.26C413.26,-56.52 379.4,-32.08 361.52,-19.17"/>
<polygon fill="#9a32cd" stroke="#9a32cd" points="433.18,-75.21 443.34,-78.22 437.28,-69.53 433.18,-75.21"/>
</a>
</g>
<text text-anchor="start" x="412.5" y="-42.5" font-family="Helvetica,sans-Serif" font-size="10.00" fill="grey">reader</text>
</g>
<!-- Node6 -->
<g id="Node000006" class="node">
<title>Node6</title>
<g id="a_Node000006"><a xlink:href="structfiftyone_degrees_pool.html" target="_top" xlink:title="Pool of resources stored as items in a stack.">
<polygon fill="white" stroke="#666666" points="610,-176 495,-176 495,-157 610,-157 610,-176"/>
<text text-anchor="middle" x="552.5" y="-164" font-family="Helvetica,sans-Serif" font-size="10.00">fiftyoneDegreesPool</text>
</a>
</g>
</g>
<!-- Node6&#45;&gt;Node5 -->
<g id="edge7_Node000005_Node000006" class="edge">
<title>Node6&#45;&gt;Node5</title>
<g id="a_edge7_Node000005_Node000006"><a xlink:title=" ">
<path fill="none" stroke="#9a32cd" stroke-dasharray="5,2" d="M533.03,-150.93C527.95,-147.08 522.5,-142.91 517.5,-139 499.2,-124.7 478.21,-107.63 465.95,-97.59"/>
<polygon fill="#9a32cd" stroke="#9a32cd" points="530.99,-153.77 541.08,-156.99 535.2,-148.18 530.99,-153.77"/>
</a>
</g>
<text text-anchor="start" x="520.5" y="-127.5" font-family="Helvetica,sans-Serif" font-size="10.00" fill="grey">pool</text>
</g>
<!-- Node6&#45;&gt;Node6 -->
<g id="edge11_Node000006_Node000006" class="edge">
<title>Node6&#45;&gt;Node6</title>
<g id="a_edge11_Node000006_Node000006"><a xlink:title=" ">
<path fill="none" stroke="#9a32cd" stroke-dasharray="5,2" d="M620.03,-171.5C624.97,-170.37 628,-168.71 628,-166.5 628,-163.05 620.62,-160.93 610.11,-160.12"/>
<polygon fill="#9a32cd" stroke="#9a32cd" points="619.53,-168.03 610.11,-172.88 620.49,-174.97 619.53,-168.03"/>
</a>
</g>
<text text-anchor="start" x="631" y="-163.5" font-family="Helvetica,sans-Serif" font-size="10.00" fill="grey">resourceFree</text>
</g>
<!-- Node7 -->
<g id="Node000007" class="node">
<title>Node7</title>
<g id="a_Node000007"><a xlink:href="structfiftyone_degrees_pool_item.html" target="_top" xlink:title="Pool item node in the stack of items.">
<polygon fill="white" stroke="#666666" points="677,-97.5 540,-97.5 540,-78.5 677,-78.5 677,-97.5"/>
<text text-anchor="middle" x="608.5" y="-85.5" font-family="Helvetica,sans-Serif" font-size="10.00">fiftyoneDegreesPoolItem</text>
</a>
</g>
</g>
<!-- Node6&#45;&gt;Node7 -->
<g id="edge9_Node000007_Node000006" class="edge">
<title>Node6&#45;&gt;Node7</title>
<g id="a_edge9_Node000007_Node000006"><a xlink:title=" ">
<path fill="none" stroke="#9a32cd" stroke-dasharray="5,2" d="M574.83,-150.68C579.06,-147.2 583.19,-143.25 586.5,-139 596.41,-126.28 602.86,-108.4 606.07,-97.83"/>
<polygon fill="#9a32cd" stroke="#9a32cd" points="572.63,-147.96 566.76,-156.77 576.85,-153.55 572.63,-147.96"/>
</a>
</g>
<text text-anchor="start" x="600.5" y="-127.5" font-family="Helvetica,sans-Serif" font-size="10.00" fill="grey">pool</text>
</g>
<!-- Node7&#45;&gt;Node6 -->
<g id="edge8_Node000006_Node000007" class="edge">
<title>Node7&#45;&gt;Node6</title>
<g id="a_edge8_Node000006_Node000007"><a xlink:title=" ">
<path fill="none" stroke="#9a32cd" stroke-dasharray="5,2" d="M574.51,-102.27C566.22,-107.18 558.35,-113.66 553.5,-122 547.27,-132.71 548.61,-147.55 550.38,-156.83"/>
<polygon fill="#9a32cd" stroke="#9a32cd" points="576.31,-105.27 583.54,-97.53 573.06,-99.07 576.31,-105.27"/>
</a>
</g>
<text text-anchor="start" x="557" y="-127.5" font-family="Helvetica,sans-Serif" font-size="10.00" fill="grey">stack</text>
</g>
<!-- Node8 -->
<g id="Node000008" class="node">
<title>Node8</title>
<g id="a_Node000008"><a xlink:href="unionfiftyone_degrees_pool_head.html" target="_top" xlink:title="The head of the stack used for pop and push operations.">
<polygon fill="white" stroke="#666666" points="622.5,-248 482.5,-248 482.5,-229 622.5,-229 622.5,-248"/>
<text text-anchor="middle" x="552.5" y="-236" font-family="Helvetica,sans-Serif" font-size="10.00">fiftyoneDegreesPoolHead</text>
</a>
</g>
</g>
<!-- Node8&#45;&gt;Node6 -->
<g id="edge10_Node000006_Node000008" class="edge">
<title>Node8&#45;&gt;Node6</title>
<g id="a_edge10_Node000006_Node000008"><a xlink:title=" ">
<path fill="none" stroke="#9a32cd" stroke-dasharray="5,2" d="M552.5,-218.58C552.5,-204.76 552.5,-186.68 552.5,-176.15"/>
<polygon fill="#9a32cd" stroke="#9a32cd" points="549,-218.92 552.5,-228.92 556,-218.92 549,-218.92"/>
</a>
</g>
<text text-anchor="start" x="556" y="-199.5" font-family="Helvetica,sans-Serif" font-size="10.00" fill="grey">head</text>
</g>
</g>
</svg>
