<?xml version="1.0" encoding="UTF-8" standalone="no"?>
<!DOCTYPE svg PUBLIC "-//W3C//DTD SVG 1.1//EN"
 "http://www.w3.org/Graphics/SVG/1.1/DTD/svg11.dtd">
<!-- Generated by graphviz version 2.43.0 (0)
 -->
<!-- Title: fiftyoneDegreesWeightedValuesCollection Pages: 1 -->
<svg width="310pt" height="136pt"
 viewBox="0.00 0.00 310.00 136.00" xmlns="http://www.w3.org/2000/svg" xmlns:xlink="http://www.w3.org/1999/xlink">
<g id="graph0" class="graph" transform="scale(1 1) rotate(0) translate(4 132)">
<title>fiftyoneDegreesWeightedValuesCollection</title>
<!-- Node1 -->
<g id="Node000001" class="node">
<title>Node1</title>
<g id="a_Node000001"><a xlink:title="Collection of weighted values.">
<polygon fill="#999999" stroke="#666666" points="224.5,-30 52.5,-30 52.5,0 224.5,0 224.5,-30"/>
<text text-anchor="start" x="60.5" y="-18" font-family="Helvetica,sans-Serif" font-size="10.00">fiftyoneDegreesWeightedValues</text>
<text text-anchor="middle" x="138.5" y="-7" font-family="Helvetica,sans-Serif" font-size="10.00">Collection</text>
</a>
</g>
</g>
<!-- Node2 -->
<g id="Node000002" class="node">
<title>Node2</title>
<g id="a_Node000002"><a xlink:href="structfiftyone_degrees_data.html" target="_top" xlink:title="Data structure used for reusing memory which may have been allocated in a previous operation.">
<polygon fill="white" stroke="#666666" points="117,-122.5 0,-122.5 0,-103.5 117,-103.5 117,-122.5"/>
<text text-anchor="middle" x="58.5" y="-110.5" font-family="Helvetica,sans-Serif" font-size="10.00">fiftyoneDegreesData</text>
</a>
</g>
</g>
<!-- Node2&#45;&gt;Node1 -->
<g id="edge1_Node000001_Node000002" class="edge">
<title>Node2&#45;&gt;Node1</title>
<g id="a_edge1_Node000001_Node000002"><a xlink:title=" ">
<path fill="none" stroke="#9a32cd" stroke-dasharray="5,2" d="M72.31,-95.42C87.66,-77.01 112.19,-47.58 126.68,-30.18"/>
<polygon fill="#9a32cd" stroke="#9a32cd" points="69.31,-93.56 65.6,-103.48 74.69,-98.04 69.31,-93.56"/>
</a>
</g>
<text text-anchor="start" x="113.5" y="-69" font-family="Helvetica,sans-Serif" font-size="10.00" fill="grey">itemsData</text>
<text text-anchor="start" x="113.5" y="-54" font-family="Helvetica,sans-Serif" font-size="10.00" fill="grey">valuesData</text>
</g>
<!-- Node3 -->
<g id="Node000003" class="node">
<title>Node3</title>
<g id="a_Node000003"><a xlink:href="structfiftyone_degrees_weighted_value_header.html" target="_top" xlink:title="Header structure for all weighted value types.">
<polygon fill="white" stroke="#666666" points="302,-128 135,-128 135,-98 302,-98 302,-128"/>
<text text-anchor="start" x="143" y="-116" font-family="Helvetica,sans-Serif" font-size="10.00">fiftyoneDegreesWeightedValue</text>
<text text-anchor="middle" x="218.5" y="-105" font-family="Helvetica,sans-Serif" font-size="10.00">Header</text>
</a>
</g>
</g>
<!-- Node3&#45;&gt;Node1 -->
<g id="edge2_Node000001_Node000003" class="edge">
<title>Node3&#45;&gt;Node1</title>
<g id="a_edge2_Node000001_Node000003"><a xlink:title=" ">
<path fill="none" stroke="#9a32cd" stroke-dasharray="5,2" d="M205.81,-89.28C198.15,-76.51 187.72,-60.64 176.5,-48 170.89,-41.68 164.01,-35.51 157.65,-30.3"/>
<polygon fill="#9a32cd" stroke="#9a32cd" points="202.81,-91.08 210.88,-97.95 208.85,-87.55 202.81,-91.08"/>
</a>
</g>
<text text-anchor="start" x="202.5" y="-61" font-family="Helvetica,sans-Serif" font-size="10.00" fill="grey">items</text>
</g>
</g>
</svg>
