<?xml version="1.0" encoding="UTF-8" standalone="no"?>
<!DOCTYPE svg PUBLIC "-//W3C//DTD SVG 1.1//EN"
 "http://www.w3.org/Graphics/SVG/1.1/DTD/svg11.dtd">
<!-- Generated by graphviz version 2.43.0 (0)
 -->
<!-- Title: sharedState Pages: 1 -->
<svg width="440pt" height="254pt"
 viewBox="0.00 0.00 439.50 254.00" xmlns="http://www.w3.org/2000/svg" xmlns:xlink="http://www.w3.org/1999/xlink">
<g id="graph0" class="graph" transform="scale(1 1) rotate(0) translate(4 250)">
<title>sharedState</title>
<!-- Node1 -->
<g id="Node000001" class="node">
<title>Node1</title>
<g id="a_Node000001"><a xlink:title="State containing the states for all threads running in the example.">
<polygon fill="#999999" stroke="#666666" points="140.5,-19 65.5,-19 65.5,0 140.5,0 140.5,-19"/>
<text text-anchor="middle" x="103" y="-7" font-family="Helvetica,sans-Serif" font-size="10.00">sharedState</text>
</a>
</g>
</g>
<!-- Node2 -->
<g id="Node000002" class="node">
<title>Node2</title>
<g id="a_Node000002"><a xlink:href="class_resource_manager.html" target="_top" xlink:title=" ">
<polygon fill="white" stroke="#bfbfbf" points="155,-91 51,-91 51,-72 155,-72 155,-91"/>
<text text-anchor="middle" x="103" y="-79" font-family="Helvetica,sans-Serif" font-size="10.00">ResourceManager</text>
</a>
</g>
</g>
<!-- Node2&#45;&gt;Node1 -->
<g id="edge1_Node000001_Node000002" class="edge">
<title>Node2&#45;&gt;Node1</title>
<g id="a_edge1_Node000001_Node000002"><a xlink:title=" ">
<path fill="none" stroke="#9a32cd" stroke-dasharray="5,2" d="M103,-61.58C103,-47.76 103,-29.68 103,-19.15"/>
<polygon fill="#9a32cd" stroke="#9a32cd" points="99.5,-61.92 103,-71.92 106.5,-61.92 99.5,-61.92"/>
</a>
</g>
<text text-anchor="start" x="106" y="-42.5" font-family="Helvetica,sans-Serif" font-size="10.00" fill="grey">manager</text>
</g>
<!-- Node3 -->
<g id="Node000003" class="node">
<title>Node3</title>
<g id="a_Node000003"><a xlink:href="class_base.html" target="_top" xlink:title="Base test class used to carry out memory leak checks.">
<polygon fill="white" stroke="#666666" points="62.5,-163 21.5,-163 21.5,-144 62.5,-144 62.5,-163"/>
<text text-anchor="middle" x="42" y="-151" font-family="Helvetica,sans-Serif" font-size="10.00">Base</text>
</a>
</g>
</g>
<!-- Node3&#45;&gt;Node2 -->
<g id="edge2_Node000002_Node000003" class="edge">
<title>Node3&#45;&gt;Node2</title>
<g id="a_edge2_Node000002_Node000003"><a xlink:title=" ">
<path fill="none" stroke="#63b8ff" d="M56.37,-136.01C68.61,-121.96 85.73,-102.32 95.46,-91.15"/>
<polygon fill="#63b8ff" stroke="#63b8ff" points="53.41,-134.08 49.48,-143.92 58.69,-138.68 53.41,-134.08"/>
</a>
</g>
</g>
<!-- Node4 -->
<g id="Node000004" class="node">
<title>Node4</title>
<g id="a_Node000004"><a xlink:title=" ">
<polygon fill="white" stroke="#bfbfbf" points="76,-240.5 0,-240.5 0,-221.5 76,-221.5 76,-240.5"/>
<text text-anchor="middle" x="38" y="-228.5" font-family="Helvetica,sans-Serif" font-size="10.00">testing::Test</text>
</a>
</g>
</g>
<!-- Node4&#45;&gt;Node3 -->
<g id="edge3_Node000003_Node000004" class="edge">
<title>Node4&#45;&gt;Node3</title>
<g id="a_edge3_Node000003_Node000004"><a xlink:title=" ">
<path fill="none" stroke="#63b8ff" d="M38.99,-211.35C39.81,-195.92 40.93,-174.72 41.55,-163.06"/>
<polygon fill="#63b8ff" stroke="#63b8ff" points="35.49,-211.17 38.46,-221.34 42.48,-211.54 35.49,-211.17"/>
</a>
</g>
</g>
<!-- Node5 -->
<g id="Node000005" class="node">
<title>Node5</title>
<g id="a_Node000005"><a xlink:href="structfiftyone_degrees_resource_manager.html" target="_top" xlink:title="Manager structure used to provide access to a shared and changing resource.">
<polygon fill="white" stroke="#666666" points="276,-240.5 94,-240.5 94,-221.5 276,-221.5 276,-240.5"/>
<text text-anchor="middle" x="185" y="-228.5" font-family="Helvetica,sans-Serif" font-size="10.00">fiftyoneDegreesResourceManager</text>
</a>
</g>
</g>
<!-- Node5&#45;&gt;Node2 -->
<g id="edge4_Node000002_Node000005" class="edge">
<title>Node5&#45;&gt;Node2</title>
<g id="a_edge4_Node000002_Node000005"><a xlink:title=" ">
<path fill="none" stroke="#9a32cd" stroke-dasharray="5,2" d="M162.31,-215.83C145.4,-203.94 123.34,-185.34 112,-163 99.9,-139.18 100.81,-106.37 102.07,-91.04"/>
<polygon fill="#9a32cd" stroke="#9a32cd" points="160.36,-218.73 170.6,-221.42 164.27,-212.93 160.36,-218.73"/>
</a>
</g>
<text text-anchor="start" x="115" y="-150.5" font-family="Helvetica,sans-Serif" font-size="10.00" fill="grey">manager</text>
</g>
<!-- Node6 -->
<g id="Node000006" class="node">
<title>Node6</title>
<g id="a_Node000006"><a xlink:href="structfiftyone_degrees_resource_handle.html" target="_top" xlink:title="Handle for a shared resource.">
<polygon fill="white" stroke="#666666" points="344.5,-163 171.5,-163 171.5,-144 344.5,-144 344.5,-163"/>
<text text-anchor="middle" x="258" y="-151" font-family="Helvetica,sans-Serif" font-size="10.00">fiftyoneDegreesResourceHandle</text>
</a>
</g>
</g>
<!-- Node5&#45;&gt;Node6 -->
<g id="edge7_Node000006_Node000005" class="edge">
<title>Node5&#45;&gt;Node6</title>
<g id="a_edge7_Node000006_Node000005"><a xlink:title=" ">
<path fill="none" stroke="#9a32cd" stroke-dasharray="5,2" d="M178.67,-211.77C176.41,-201.82 175.77,-189.78 182,-181 187.91,-172.68 196.63,-166.96 206.07,-163.02"/>
<polygon fill="#9a32cd" stroke="#9a32cd" points="175.35,-212.87 181.5,-221.5 182.07,-210.92 175.35,-212.87"/>
</a>
</g>
<text text-anchor="start" x="185" y="-186.5" font-family="Helvetica,sans-Serif" font-size="10.00" fill="grey">manager</text>
</g>
<!-- Node6&#45;&gt;Node2 -->
<g id="edge8_Node000002_Node000006" class="edge">
<title>Node6&#45;&gt;Node2</title>
<g id="a_edge8_Node000002_Node000006"><a xlink:title=" ">
<path fill="none" stroke="#9a32cd" stroke-dasharray="5,2" d="M229.54,-139.65C198.33,-125.55 149.09,-103.32 122.16,-91.15"/>
<polygon fill="#9a32cd" stroke="#9a32cd" points="228.44,-142.99 238.99,-143.92 231.32,-136.61 228.44,-142.99"/>
</a>
</g>
<text text-anchor="start" x="202.5" y="-114.5" font-family="Helvetica,sans-Serif" font-size="10.00" fill="grey">resourceHandle</text>
</g>
<!-- Node6&#45;&gt;Node5 -->
<g id="edge5_Node000005_Node000006" class="edge">
<title>Node6&#45;&gt;Node5</title>
<g id="a_edge5_Node000005_Node000006"><a xlink:title=" ">
<path fill="none" stroke="#9a32cd" stroke-dasharray="5,2" d="M251.45,-172.66C247.8,-181.04 242.65,-190.71 236,-198 226.98,-207.89 214.23,-215.89 203.74,-221.41"/>
<polygon fill="#9a32cd" stroke="#9a32cd" points="254.71,-173.93 255.14,-163.34 248.2,-171.35 254.71,-173.93"/>
</a>
</g>
<text text-anchor="start" x="251.5" y="-186.5" font-family="Helvetica,sans-Serif" font-size="10.00" fill="grey">active</text>
</g>
<!-- Node7 -->
<g id="Node000007" class="node">
<title>Node7</title>
<g id="a_Node000007"><a xlink:href="structfiftyone_degrees_interlock_double_width.html" target="_top" xlink:title="Double width (64 or 128 depending on the architecture) compare and exchange.">
<polygon fill="white" stroke="#666666" points="431.5,-246 294.5,-246 294.5,-216 431.5,-216 431.5,-246"/>
<text text-anchor="start" x="302.5" y="-234" font-family="Helvetica,sans-Serif" font-size="10.00">fiftyoneDegreesInterlock</text>
<text text-anchor="middle" x="363" y="-223" font-family="Helvetica,sans-Serif" font-size="10.00">DoubleWidth</text>
</a>
</g>
</g>
<!-- Node7&#45;&gt;Node6 -->
<g id="edge6_Node000006_Node000007" class="edge">
<title>Node7&#45;&gt;Node6</title>
<g id="a_edge6_Node000006_Node000007"><a xlink:title=" ">
<path fill="none" stroke="#9a32cd" stroke-dasharray="5,2" d="M334.9,-209.8C313.64,-194.51 285.5,-174.28 269.83,-163.01"/>
<polygon fill="#9a32cd" stroke="#9a32cd" points="333.09,-212.8 343.25,-215.8 337.17,-207.12 333.09,-212.8"/>
</a>
</g>
<text text-anchor="start" x="320.5" y="-186.5" font-family="Helvetica,sans-Serif" font-size="10.00" fill="grey">counter</text>
</g>
</g>
</svg>
