<?xml version="1.0" encoding="UTF-8" standalone="no"?>
<!DOCTYPE svg PUBLIC "-//W3C//DTD SVG 1.1//EN"
 "http://www.w3.org/Graphics/SVG/1.1/DTD/svg11.dtd">
<!-- Generated by graphviz version 2.43.0 (0)
 -->
<!-- Title: fiftyoneDegreesOverridePropertyArray Pages: 1 -->
<svg width="453pt" height="350pt"
 viewBox="0.00 0.00 452.50 350.00" xmlns="http://www.w3.org/2000/svg" xmlns:xlink="http://www.w3.org/1999/xlink">
<g id="graph0" class="graph" transform="scale(1 1) rotate(0) translate(4 346)">
<title>fiftyoneDegreesOverridePropertyArray</title>
<!-- Node1 -->
<g id="Node000001" class="node">
<title>Node1</title>
<g id="a_Node000001"><a xlink:title="Array of items of type fiftyoneDegreesOverrideProperty used to easily access and track the size of th...">
<polygon fill="#999999" stroke="#666666" points="433,-30 256,-30 256,0 433,0 433,-30"/>
<text text-anchor="start" x="264" y="-18" font-family="Helvetica,sans-Serif" font-size="10.00">fiftyoneDegreesOverrideProperty</text>
<text text-anchor="middle" x="344.5" y="-7" font-family="Helvetica,sans-Serif" font-size="10.00">Array</text>
</a>
</g>
</g>
<!-- Node2 -->
<g id="Node000002" class="node">
<title>Node2</title>
<g id="a_Node000002"><a xlink:href="structfiftyone_degrees_override_property.html" target="_top" xlink:title="Index and pointer to a property which can be overridden.">
<polygon fill="white" stroke="#666666" points="433,-102 256,-102 256,-83 433,-83 433,-102"/>
<text text-anchor="middle" x="344.5" y="-90" font-family="Helvetica,sans-Serif" font-size="10.00">fiftyoneDegreesOverrideProperty</text>
</a>
</g>
</g>
<!-- Node2&#45;&gt;Node1 -->
<g id="edge1_Node000001_Node000002" class="edge">
<title>Node2&#45;&gt;Node1</title>
<g id="a_edge1_Node000001_Node000002"><a xlink:title=" ">
<path fill="none" stroke="#9a32cd" stroke-dasharray="5,2" d="M344.5,-72.57C344.5,-59.43 344.5,-42.18 344.5,-30.21"/>
<polygon fill="#9a32cd" stroke="#9a32cd" points="341,-72.84 344.5,-82.84 348,-72.84 341,-72.84"/>
</a>
</g>
<text text-anchor="start" x="347.5" y="-53.5" font-family="Helvetica,sans-Serif" font-size="10.00" fill="grey">items</text>
</g>
<!-- Node3 -->
<g id="Node000003" class="node">
<title>Node3</title>
<g id="a_Node000003"><a xlink:href="structfiftyone_degrees_property_available.html" target="_top" xlink:title="Used to access the property item quickly without the need to search.">
<polygon fill="white" stroke="#666666" points="434.5,-180.5 254.5,-180.5 254.5,-161.5 434.5,-161.5 434.5,-180.5"/>
<text text-anchor="middle" x="344.5" y="-168.5" font-family="Helvetica,sans-Serif" font-size="10.00">fiftyoneDegreesPropertyAvailable</text>
</a>
</g>
</g>
<!-- Node3&#45;&gt;Node2 -->
<g id="edge2_Node000002_Node000003" class="edge">
<title>Node3&#45;&gt;Node2</title>
<g id="a_edge2_Node000002_Node000003"><a xlink:title=" ">
<path fill="none" stroke="#9a32cd" stroke-dasharray="5,2" d="M344.5,-151.1C344.5,-135.47 344.5,-113.99 344.5,-102.17"/>
<polygon fill="#9a32cd" stroke="#9a32cd" points="341,-151.22 344.5,-161.22 348,-151.22 341,-151.22"/>
</a>
</g>
<text text-anchor="start" x="347.5" y="-125.5" font-family="Helvetica,sans-Serif" font-size="10.00" fill="grey">available</text>
</g>
<!-- Node4 -->
<g id="Node000004" class="node">
<title>Node4</title>
<g id="a_Node000004"><a xlink:href="structfiftyone_degrees_collection_item.html" target="_top" xlink:title="Used to store a handle to the underlying item that could be used to release the item when it&#39;s finish...">
<polygon fill="white" stroke="#666666" points="220,-264.5 55,-264.5 55,-245.5 220,-245.5 220,-264.5"/>
<text text-anchor="middle" x="137.5" y="-252.5" font-family="Helvetica,sans-Serif" font-size="10.00">fiftyoneDegreesCollectionItem</text>
</a>
</g>
</g>
<!-- Node4&#45;&gt;Node3 -->
<g id="edge3_Node000003_Node000004" class="edge">
<title>Node4&#45;&gt;Node3</title>
<g id="a_edge3_Node000003_Node000004"><a xlink:title=" ">
<path fill="none" stroke="#9a32cd" stroke-dasharray="5,2" d="M168.56,-241.69C211.07,-224.86 286.25,-195.07 323.03,-180.5"/>
<polygon fill="#9a32cd" stroke="#9a32cd" points="167.27,-238.44 159.26,-245.38 169.85,-244.95 167.27,-238.44"/>
</a>
</g>
<text text-anchor="start" x="263.5" y="-210.5" font-family="Helvetica,sans-Serif" font-size="10.00" fill="grey">name</text>
</g>
<!-- Node6 -->
<g id="Node000006" class="node">
<title>Node6</title>
<g id="a_Node000006"><a xlink:href="structfiftyone_degrees_collection.html" target="_top" xlink:title="All the shared methods and fields required by file, memory and cached collections.">
<polygon fill="white" stroke="#666666" points="143,-180.5 0,-180.5 0,-161.5 143,-161.5 143,-180.5"/>
<text text-anchor="middle" x="71.5" y="-168.5" font-family="Helvetica,sans-Serif" font-size="10.00">fiftyoneDegreesCollection</text>
</a>
</g>
</g>
<!-- Node4&#45;&gt;Node6 -->
<g id="edge7_Node000006_Node000004" class="edge">
<title>Node4&#45;&gt;Node6</title>
<g id="a_edge7_Node000006_Node000004"><a xlink:title=" ">
<path fill="none" stroke="#9a32cd" stroke-dasharray="5,2" d="M90.78,-241.14C81.95,-236.54 73.83,-230.34 68.5,-222 60.45,-209.39 64.57,-191.16 68.14,-180.55"/>
<polygon fill="#9a32cd" stroke="#9a32cd" points="89.59,-244.44 100.14,-245.37 92.47,-238.07 89.59,-244.44"/>
</a>
</g>
<text text-anchor="start" x="72" y="-210.5" font-family="Helvetica,sans-Serif" font-size="10.00" fill="grey">release</text>
</g>
<!-- Node5 -->
<g id="Node000005" class="node">
<title>Node5</title>
<g id="a_Node000005"><a xlink:href="structfiftyone_degrees_data.html" target="_top" xlink:title="Data structure used for reusing memory which may have been allocated in a previous operation.">
<polygon fill="white" stroke="#666666" points="196,-342 79,-342 79,-323 196,-323 196,-342"/>
<text text-anchor="middle" x="137.5" y="-330" font-family="Helvetica,sans-Serif" font-size="10.00">fiftyoneDegreesData</text>
</a>
</g>
</g>
<!-- Node5&#45;&gt;Node4 -->
<g id="edge4_Node000004_Node000005" class="edge">
<title>Node5&#45;&gt;Node4</title>
<g id="a_edge4_Node000004_Node000005"><a xlink:title=" ">
<path fill="none" stroke="#9a32cd" stroke-dasharray="5,2" d="M137.5,-312.4C137.5,-297.01 137.5,-276.11 137.5,-264.56"/>
<polygon fill="#9a32cd" stroke="#9a32cd" points="134,-312.84 137.5,-322.84 141,-312.84 134,-312.84"/>
</a>
</g>
<text text-anchor="start" x="140.5" y="-293.5" font-family="Helvetica,sans-Serif" font-size="10.00" fill="grey">data</text>
</g>
<!-- Node6&#45;&gt;Node4 -->
<g id="edge5_Node000004_Node000006" class="edge">
<title>Node6&#45;&gt;Node4</title>
<g id="a_edge5_Node000004_Node000006"><a xlink:title=" ">
<path fill="none" stroke="#9a32cd" stroke-dasharray="5,2" d="M95.27,-186.46C102.44,-191.65 109.88,-197.97 115.5,-205 125.4,-217.38 131.85,-234.93 135.07,-245.32"/>
<polygon fill="#9a32cd" stroke="#9a32cd" points="96.75,-183.24 86.51,-180.53 92.83,-189.04 96.75,-183.24"/>
</a>
</g>
<text text-anchor="start" x="129.5" y="-210.5" font-family="Helvetica,sans-Serif" font-size="10.00" fill="grey">collection</text>
</g>
<!-- Node6&#45;&gt;Node6 -->
<g id="edge6_Node000006_Node000006" class="edge">
<title>Node6&#45;&gt;Node6</title>
<g id="a_edge6_Node000006_Node000006"><a xlink:title=" ">
<path fill="none" stroke="#9a32cd" stroke-dasharray="5,2" d="M153.11,-176.45C158.04,-175.16 161,-173.34 161,-171 161,-167.35 153.79,-164.97 143.13,-163.86"/>
<polygon fill="#9a32cd" stroke="#9a32cd" points="152.4,-173.02 143.13,-178.14 153.57,-179.92 152.4,-173.02"/>
</a>
</g>
<text text-anchor="start" x="164.5" y="-176" font-family="Helvetica,sans-Serif" font-size="10.00" fill="grey">freeCollection</text>
<text text-anchor="start" x="164.5" y="-161" font-family="Helvetica,sans-Serif" font-size="10.00" fill="grey">get</text>
</g>
<!-- Node7 -->
<g id="Node000007" class="node">
<title>Node7</title>
<g id="a_Node000007"><a xlink:href="structfiftyone_degrees_evidence_property_index_array.html" target="_top" xlink:title="Array of items of type fiftyoneDegreesEvidencePropertyIndex used to easily access and track the size ...">
<polygon fill="white" stroke="#666666" points="434,-270 255,-270 255,-240 434,-240 434,-270"/>
<text text-anchor="start" x="263" y="-258" font-family="Helvetica,sans-Serif" font-size="10.00">fiftyoneDegreesEvidenceProperty</text>
<text text-anchor="middle" x="344.5" y="-247" font-family="Helvetica,sans-Serif" font-size="10.00">IndexArray</text>
</a>
</g>
</g>
<!-- Node7&#45;&gt;Node3 -->
<g id="edge8_Node000003_Node000007" class="edge">
<title>Node7&#45;&gt;Node3</title>
<g id="a_edge8_Node000003_Node000007"><a xlink:title=" ">
<path fill="none" stroke="#9a32cd" stroke-dasharray="5,2" d="M344.5,-229.6C344.5,-213.03 344.5,-192.11 344.5,-180.59"/>
<polygon fill="#9a32cd" stroke="#9a32cd" points="341,-229.72 344.5,-239.72 348,-229.72 341,-229.72"/>
</a>
</g>
<text text-anchor="start" x="347.5" y="-210.5" font-family="Helvetica,sans-Serif" font-size="10.00" fill="grey">evidenceProperties</text>
</g>
</g>
</svg>
