<?xml version="1.0" encoding="UTF-8" standalone="no"?>
<!DOCTYPE svg PUBLIC "-//W3C//DTD SVG 1.1//EN"
 "http://www.w3.org/Graphics/SVG/1.1/DTD/svg11.dtd">
<!-- Generated by graphviz version 2.43.0 (0)
 -->
<!-- Title: offlineProcessState Pages: 1 -->
<svg width="1288pt" height="239pt"
 viewBox="0.00 0.00 1288.00 239.00" xmlns="http://www.w3.org/2000/svg" xmlns:xlink="http://www.w3.org/1999/xlink">
<g id="graph0" class="graph" transform="scale(1 1) rotate(0) translate(4 235)">
<title>offlineProcessState</title>
<!-- Node1 -->
<g id="node1" class="node">
<title>Node1</title>
<g id="a_node1"><a xlink:title="State used for the offline processing operation.">
<polygon fill="#bfbfbf" stroke="black" points="1170,-135.5 1170,-154.5 1280,-154.5 1280,-135.5 1170,-135.5"/>
<text text-anchor="middle" x="1225" y="-142.5" font-family="Helvetica,sans-Serif" font-size="10.00">offlineProcessState</text>
</a>
</g>
</g>
<!-- Node2 -->
<g id="node2" class="node">
<title>Node2</title>
<g id="a_node2"><a xlink:href="structfiftyone_degrees_result_ipi_array.html" target="_top" xlink:title="Array of items of type fiftyoneDegreesResultIpi used to easily access and track the size of the array...">
<polygon fill="none" stroke="black" points="960,-130 960,-160 1097,-160 1097,-130 960,-130"/>
<text text-anchor="start" x="968" y="-148" font-family="Helvetica,sans-Serif" font-size="10.00">fiftyoneDegreesResultIpi</text>
<text text-anchor="middle" x="1028.5" y="-137" font-family="Helvetica,sans-Serif" font-size="10.00">Array</text>
</a>
</g>
</g>
<!-- Node2&#45;&gt;Node1 -->
<g id="edge1" class="edge">
<title>Node2&#45;&gt;Node1</title>
<path fill="none" stroke="#9a32cd" stroke-dasharray="5,2" d="M1107.43,-145C1128.39,-145 1150.6,-145 1169.95,-145"/>
<polygon fill="#9a32cd" stroke="#9a32cd" points="1107.25,-141.5 1097.25,-145 1107.25,-148.5 1107.25,-141.5"/>
<text text-anchor="middle" x="1133.5" y="-148" font-family="Helvetica,sans-Serif" font-size="10.00"> results</text>
</g>
<!-- Node3 -->
<g id="node3" class="node">
<title>Node3</title>
<g id="a_node3"><a xlink:href="structfiftyone_degrees_result_ipi.html" target="_top" xlink:title="Singular IP address result returned by a detection process method.">
<polygon fill="none" stroke="black" points="730,-192.5 730,-211.5 867,-211.5 867,-192.5 730,-192.5"/>
<text text-anchor="middle" x="798.5" y="-199.5" font-family="Helvetica,sans-Serif" font-size="10.00">fiftyoneDegreesResultIpi</text>
</a>
</g>
</g>
<!-- Node3&#45;&gt;Node2 -->
<g id="edge2" class="edge">
<title>Node3&#45;&gt;Node2</title>
<path fill="none" stroke="#9a32cd" stroke-dasharray="5,2" d="M856.04,-190.38C882.3,-184.7 913.87,-177.5 942,-170 953.51,-166.93 965.83,-163.45 977.43,-160.08"/>
<polygon fill="#9a32cd" stroke="#9a32cd" points="855.3,-186.96 846.26,-192.47 856.77,-193.8 855.3,-186.96"/>
<text text-anchor="middle" x="924" y="-181" font-family="Helvetica,sans-Serif" font-size="10.00"> items</text>
</g>
<!-- Node4 -->
<g id="node4" class="node">
<title>Node4</title>
<g id="a_node4"><a xlink:href="structfiftyone_degrees_ip_address.html" target="_top" xlink:title="The structure to hold a IP Address in byte array format.">
<polygon fill="none" stroke="black" points="440,-211.5 440,-230.5 582,-230.5 582,-211.5 440,-211.5"/>
<text text-anchor="middle" x="511" y="-218.5" font-family="Helvetica,sans-Serif" font-size="10.00">fiftyoneDegreesIpAddress</text>
</a>
</g>
</g>
<!-- Node4&#45;&gt;Node3 -->
<g id="edge3" class="edge">
<title>Node4&#45;&gt;Node3</title>
<path fill="none" stroke="#9a32cd" stroke-dasharray="5,2" d="M592.41,-215.65C635.64,-212.77 688.37,-209.26 729.53,-206.52"/>
<polygon fill="#9a32cd" stroke="#9a32cd" points="591.95,-212.17 582.21,-216.33 592.42,-219.16 591.95,-212.17"/>
<text text-anchor="middle" x="650.5" y="-217" font-family="Helvetica,sans-Serif" font-size="10.00"> targetIpAddress</text>
</g>
<!-- Node5 -->
<g id="node5" class="node">
<title>Node5</title>
<g id="a_node5"><a xlink:href="structfiftyone_degrees_ipi_cg_result.html" target="_top" xlink:title="The evaluation result from graph collection.">
<polygon fill="none" stroke="black" points="436.5,-173.5 436.5,-192.5 585.5,-192.5 585.5,-173.5 436.5,-173.5"/>
<text text-anchor="middle" x="511" y="-180.5" font-family="Helvetica,sans-Serif" font-size="10.00">fiftyoneDegreesIpiCgResult</text>
</a>
</g>
</g>
<!-- Node5&#45;&gt;Node3 -->
<g id="edge4" class="edge">
<title>Node5&#45;&gt;Node3</title>
<path fill="none" stroke="#9a32cd" stroke-dasharray="5,2" d="M595.64,-187.9C625.71,-189.73 659.88,-191.88 691,-194 703.58,-194.86 716.99,-195.83 729.9,-196.78"/>
<polygon fill="#9a32cd" stroke="#9a32cd" points="595.8,-184.41 585.61,-187.3 595.38,-191.39 595.8,-184.41"/>
<text text-anchor="middle" x="650.5" y="-197" font-family="Helvetica,sans-Serif" font-size="10.00"> graphResult</text>
</g>
<!-- Node6 -->
<g id="node6" class="node">
<title>Node6</title>
<g id="a_node6"><a xlink:href="structfiftyone_degrees_results_base.html" target="_top" xlink:title="Base results structure which any processing results should extend.">
<polygon fill="none" stroke="black" points="721.5,-154.5 721.5,-173.5 875.5,-173.5 875.5,-154.5 721.5,-154.5"/>
<text text-anchor="middle" x="798.5" y="-161.5" font-family="Helvetica,sans-Serif" font-size="10.00">fiftyoneDegreesResultsBase</text>
</a>
</g>
</g>
<!-- Node6&#45;&gt;Node2 -->
<g id="edge5" class="edge">
<title>Node6&#45;&gt;Node2</title>
<path fill="none" stroke="#9a32cd" stroke-dasharray="5,2" d="M885.74,-156.81C910.23,-154.77 936.54,-152.58 959.76,-150.64"/>
<polygon fill="#9a32cd" stroke="#9a32cd" points="885.41,-153.33 875.74,-157.65 885.99,-160.3 885.41,-153.33"/>
<text text-anchor="middle" x="924" y="-158" font-family="Helvetica,sans-Serif" font-size="10.00"> b</text>
</g>
<!-- Node7 -->
<g id="node7" class="node">
<title>Node7</title>
<g id="a_node7"><a xlink:href="structfiftyone_degrees_collection_item.html" target="_top" xlink:title="Used to store a handle to the underlying item that could be used to release the item when it&#39;s finish...">
<polygon fill="none" stroke="black" points="178,-53.5 178,-72.5 343,-72.5 343,-53.5 178,-53.5"/>
<text text-anchor="middle" x="260.5" y="-60.5" font-family="Helvetica,sans-Serif" font-size="10.00">fiftyoneDegreesCollectionItem</text>
</a>
</g>
</g>
<!-- Node7&#45;&gt;Node2 -->
<g id="edge6" class="edge">
<title>Node7&#45;&gt;Node2</title>
<path fill="none" stroke="#9a32cd" stroke-dasharray="5,2" d="M300.92,-75.59C334.78,-85.85 385.09,-99.78 430,-107 620.37,-137.62 848.57,-143.82 959.83,-144.91"/>
<polygon fill="#9a32cd" stroke="#9a32cd" points="301.55,-72.12 290.96,-72.54 299.49,-78.82 301.55,-72.12"/>
<text text-anchor="middle" x="650.5" y="-137" font-family="Helvetica,sans-Serif" font-size="10.00"> propertyItem</text>
</g>
<!-- Node8 -->
<g id="node8" class="node">
<title>Node8</title>
<g id="a_node8"><a xlink:href="structfiftyone_degrees_collection.html" target="_top" xlink:title="All the shared methods and fields required by file, memory and cached collections.">
<polygon fill="none" stroke="black" points="439.5,-38.5 439.5,-57.5 582.5,-57.5 582.5,-38.5 439.5,-38.5"/>
<text text-anchor="middle" x="511" y="-45.5" font-family="Helvetica,sans-Serif" font-size="10.00">fiftyoneDegreesCollection</text>
</a>
</g>
</g>
<!-- Node7&#45;&gt;Node8 -->
<g id="edge8" class="edge">
<title>Node7&#45;&gt;Node8</title>
<path fill="none" stroke="#9a32cd" stroke-dasharray="5,2" d="M353.23,-60.95C372.65,-60.24 393.01,-59.28 412,-58 420.87,-57.4 430.18,-56.63 439.39,-55.79"/>
<polygon fill="#9a32cd" stroke="#9a32cd" points="353.05,-57.46 343.17,-61.31 353.29,-64.45 353.05,-57.46"/>
<text text-anchor="middle" x="386.5" y="-64" font-family="Helvetica,sans-Serif" font-size="10.00"> release</text>
</g>
<!-- Node11 -->
<g id="node11" class="node">
<title>Node11</title>
<g id="a_node11"><a xlink:href="structfiftyone_degrees_weighted_item.html" target="_top" xlink:title="A weighted collection item.">
<polygon fill="none" stroke="black" points="430,-0.5 430,-19.5 592,-19.5 592,-0.5 430,-0.5"/>
<text text-anchor="middle" x="511" y="-7.5" font-family="Helvetica,sans-Serif" font-size="10.00">fiftyoneDegreesWeightedItem</text>
</a>
</g>
</g>
<!-- Node7&#45;&gt;Node11 -->
<g id="edge13" class="edge">
<title>Node7&#45;&gt;Node11</title>
<path fill="none" stroke="#9a32cd" stroke-dasharray="5,2" d="M295.5,-49.97C314.52,-43.13 338.8,-35.12 361,-30 383.13,-24.89 407.42,-20.95 429.86,-17.96"/>
<polygon fill="#9a32cd" stroke="#9a32cd" points="294.26,-46.7 286.08,-53.42 296.67,-53.27 294.26,-46.7"/>
<text text-anchor="middle" x="386.5" y="-33" font-family="Helvetica,sans-Serif" font-size="10.00"> item</text>
</g>
<!-- Node8&#45;&gt;Node7 -->
<g id="edge7" class="edge">
<title>Node8&#45;&gt;Node7</title>
<path fill="none" stroke="#9a32cd" stroke-dasharray="5,2" d="M429.37,-44.92C407.19,-44.76 383.14,-45.23 361,-47 344.61,-48.31 326.84,-50.81 310.91,-53.46"/>
<polygon fill="#9a32cd" stroke="#9a32cd" points="429.38,-48.42 439.42,-45.03 429.46,-41.42 429.38,-48.42"/>
<text text-anchor="middle" x="386.5" y="-50" font-family="Helvetica,sans-Serif" font-size="10.00"> collection</text>
</g>
<!-- Node8&#45;&gt;Node8 -->
<g id="edge9" class="edge">
<title>Node8&#45;&gt;Node8</title>
<path fill="none" stroke="#9a32cd" stroke-dasharray="5,2" d="M487.93,-67.03C489.19,-72.13 496.88,-76 511,-76 533.04,-76 539.41,-66.57 530.11,-57.76"/>
<polygon fill="#9a32cd" stroke="#9a32cd" points="491.19,-68.33 491.89,-57.76 484.75,-65.58 491.19,-68.33"/>
<text text-anchor="middle" x="511" y="-90" font-family="Helvetica,sans-Serif" font-size="10.00"> freeCollection</text>
<text text-anchor="middle" x="511" y="-79" font-family="Helvetica,sans-Serif" font-size="10.00">get</text>
</g>
<!-- Node9 -->
<g id="node9" class="node">
<title>Node9</title>
<g id="a_node9"><a xlink:href="structfiftyone_degrees_data.html" target="_top" xlink:title="Data structure used for reusing memory which may have been allocated in a previous operation.">
<polygon fill="none" stroke="black" points="0,-53.5 0,-72.5 117,-72.5 117,-53.5 0,-53.5"/>
<text text-anchor="middle" x="58.5" y="-60.5" font-family="Helvetica,sans-Serif" font-size="10.00">fiftyoneDegreesData</text>
</a>
</g>
</g>
<!-- Node9&#45;&gt;Node7 -->
<g id="edge10" class="edge">
<title>Node9&#45;&gt;Node7</title>
<path fill="none" stroke="#9a32cd" stroke-dasharray="5,2" d="M127.5,-63C143.67,-63 161.08,-63 177.78,-63"/>
<polygon fill="#9a32cd" stroke="#9a32cd" points="127.08,-59.5 117.08,-63 127.08,-66.5 127.08,-59.5"/>
<text text-anchor="middle" x="147.5" y="-66" font-family="Helvetica,sans-Serif" font-size="10.00"> data</text>
</g>
<!-- Node10 -->
<g id="node10" class="node">
<title>Node10</title>
<g id="a_node10"><a xlink:href="structfiftyone_degrees_weighted_item_list.html" target="_top" xlink:title="A resizable list of weighted items.">
<polygon fill="none" stroke="black" points="709,-59.5 709,-78.5 888,-78.5 888,-59.5 709,-59.5"/>
<text text-anchor="middle" x="798.5" y="-66.5" font-family="Helvetica,sans-Serif" font-size="10.00">fiftyoneDegreesWeightedItemList</text>
</a>
</g>
</g>
<!-- Node10&#45;&gt;Node2 -->
<g id="edge11" class="edge">
<title>Node10&#45;&gt;Node2</title>
<path fill="none" stroke="#9a32cd" stroke-dasharray="5,2" d="M867.38,-80.57C891.34,-85.61 918.22,-92.37 942,-101 963.19,-108.69 985.8,-120.5 1002.45,-129.96"/>
<polygon fill="#9a32cd" stroke="#9a32cd" points="867.81,-77.08 857.31,-78.51 866.41,-83.94 867.81,-77.08"/>
<text text-anchor="middle" x="924" y="-104" font-family="Helvetica,sans-Serif" font-size="10.00"> values</text>
</g>
<!-- Node11&#45;&gt;Node10 -->
<g id="edge12" class="edge">
<title>Node11&#45;&gt;Node10</title>
<path fill="none" stroke="#9a32cd" stroke-dasharray="5,2" d="M568.2,-21.61C621.77,-32.68 701.44,-49.15 751.38,-59.47"/>
<polygon fill="#9a32cd" stroke="#9a32cd" points="568.69,-18.14 558.19,-19.54 567.27,-25 568.69,-18.14"/>
<text text-anchor="middle" x="650.5" y="-50" font-family="Helvetica,sans-Serif" font-size="10.00"> items</text>
</g>
</g>
</svg>
