<?xml version="1.0" encoding="UTF-8" standalone="no"?>
<!DOCTYPE svg PUBLIC "-//W3C//DTD SVG 1.1//EN"
 "http://www.w3.org/Graphics/SVG/1.1/DTD/svg11.dtd">
<!-- Generated by graphviz version 2.43.0 (0)
 -->
<!-- Title: fiftyoneDegreesList Pages: 1 -->
<svg width="373pt" height="184pt"
 viewBox="0.00 0.00 373.00 184.00" xmlns="http://www.w3.org/2000/svg" xmlns:xlink="http://www.w3.org/1999/xlink">
<g id="graph0" class="graph" transform="scale(1 1) rotate(0) translate(4 180)">
<title>fiftyoneDegreesList</title>
<!-- Node1 -->
<g id="Node000001" class="node">
<title>Node1</title>
<g id="a_Node000001"><a xlink:title="List structure which contains a list of collection items.">
<polygon fill="#999999" stroke="#666666" points="111,-25.5 0,-25.5 0,-6.5 111,-6.5 111,-25.5"/>
<text text-anchor="middle" x="55.5" y="-13.5" font-family="Helvetica,sans-Serif" font-size="10.00">fiftyoneDegreesList</text>
</a>
</g>
</g>
<!-- Node2 -->
<g id="Node000002" class="node">
<title>Node2</title>
<g id="a_Node000002"><a xlink:href="structfiftyone_degrees_collection_item.html" target="_top" xlink:title="Used to store a handle to the underlying item that could be used to release the item when it&#39;s finish...">
<polygon fill="white" stroke="#666666" points="217,-104 52,-104 52,-85 217,-85 217,-104"/>
<text text-anchor="middle" x="134.5" y="-92" font-family="Helvetica,sans-Serif" font-size="10.00">fiftyoneDegreesCollectionItem</text>
</a>
</g>
</g>
<!-- Node2&#45;&gt;Node1 -->
<g id="edge1_Node000001_Node000002" class="edge">
<title>Node2&#45;&gt;Node1</title>
<g id="a_edge1_Node000001_Node000002"><a xlink:title=" ">
<path fill="none" stroke="#9a32cd" stroke-dasharray="5,2" d="M107.93,-79.95C101.85,-76.2 95.67,-71.82 90.5,-67 77.18,-54.56 65.96,-36.27 60.03,-25.6"/>
<polygon fill="#9a32cd" stroke="#9a32cd" points="106.22,-83 116.63,-84.96 109.72,-76.93 106.22,-83"/>
</a>
</g>
<text text-anchor="start" x="93.5" y="-55.5" font-family="Helvetica,sans-Serif" font-size="10.00" fill="grey">items</text>
</g>
<!-- Node4 -->
<g id="Node000004" class="node">
<title>Node4</title>
<g id="a_Node000004"><a xlink:href="structfiftyone_degrees_collection.html" target="_top" xlink:title="All the shared methods and fields required by file, memory and cached collections.">
<polygon fill="white" stroke="#666666" points="272,-25.5 129,-25.5 129,-6.5 272,-6.5 272,-25.5"/>
<text text-anchor="middle" x="200.5" y="-13.5" font-family="Helvetica,sans-Serif" font-size="10.00">fiftyoneDegreesCollection</text>
</a>
</g>
</g>
<!-- Node2&#45;&gt;Node4 -->
<g id="edge5_Node000004_Node000002" class="edge">
<title>Node2&#45;&gt;Node4</title>
<g id="a_edge5_Node000004_Node000002"><a xlink:title=" ">
<path fill="none" stroke="#9a32cd" stroke-dasharray="5,2" d="M128.51,-74.94C126.99,-66.73 126.9,-57.3 131.5,-50 138.93,-38.2 151.88,-30.53 164.56,-25.59"/>
<polygon fill="#9a32cd" stroke="#9a32cd" points="125.15,-75.95 131.05,-84.75 131.93,-74.2 125.15,-75.95"/>
</a>
</g>
<text text-anchor="start" x="135" y="-55.5" font-family="Helvetica,sans-Serif" font-size="10.00" fill="grey">release</text>
</g>
<!-- Node3 -->
<g id="Node000003" class="node">
<title>Node3</title>
<g id="a_Node000003"><a xlink:href="structfiftyone_degrees_data.html" target="_top" xlink:title="Data structure used for reusing memory which may have been allocated in a previous operation.">
<polygon fill="white" stroke="#666666" points="193,-176 76,-176 76,-157 193,-157 193,-176"/>
<text text-anchor="middle" x="134.5" y="-164" font-family="Helvetica,sans-Serif" font-size="10.00">fiftyoneDegreesData</text>
</a>
</g>
</g>
<!-- Node3&#45;&gt;Node2 -->
<g id="edge2_Node000002_Node000003" class="edge">
<title>Node3&#45;&gt;Node2</title>
<g id="a_edge2_Node000002_Node000003"><a xlink:title=" ">
<path fill="none" stroke="#9a32cd" stroke-dasharray="5,2" d="M134.5,-146.58C134.5,-132.76 134.5,-114.68 134.5,-104.15"/>
<polygon fill="#9a32cd" stroke="#9a32cd" points="131,-146.92 134.5,-156.92 138,-146.92 131,-146.92"/>
</a>
</g>
<text text-anchor="start" x="137.5" y="-127.5" font-family="Helvetica,sans-Serif" font-size="10.00" fill="grey">data</text>
</g>
<!-- Node4&#45;&gt;Node2 -->
<g id="edge3_Node000002_Node000004" class="edge">
<title>Node4&#45;&gt;Node2</title>
<g id="a_edge3_Node000002_Node000004"><a xlink:title=" ">
<path fill="none" stroke="#9a32cd" stroke-dasharray="5,2" d="M195.49,-35.25C191.99,-45.45 186.5,-57.91 178.5,-67 171.9,-74.5 162.66,-80.51 154.34,-84.9"/>
<polygon fill="#9a32cd" stroke="#9a32cd" points="198.84,-36.25 198.43,-25.66 192.15,-34.19 198.84,-36.25"/>
</a>
</g>
<text text-anchor="start" x="191.5" y="-55.5" font-family="Helvetica,sans-Serif" font-size="10.00" fill="grey">collection</text>
</g>
<!-- Node4&#45;&gt;Node4 -->
<g id="edge4_Node000004_Node000004" class="edge">
<title>Node4&#45;&gt;Node4</title>
<g id="a_edge4_Node000004_Node000004"><a xlink:title=" ">
<path fill="none" stroke="#9a32cd" stroke-dasharray="5,2" d="M282.11,-21.45C287.04,-20.16 290,-18.34 290,-16 290,-12.35 282.79,-9.97 272.13,-8.86"/>
<polygon fill="#9a32cd" stroke="#9a32cd" points="281.4,-18.02 272.13,-23.14 282.57,-24.92 281.4,-18.02"/>
</a>
</g>
<text text-anchor="start" x="293.5" y="-21" font-family="Helvetica,sans-Serif" font-size="10.00" fill="grey">freeCollection</text>
<text text-anchor="start" x="293.5" y="-6" font-family="Helvetica,sans-Serif" font-size="10.00" fill="grey">get</text>
</g>
</g>
</svg>
