<?xml version="1.0" encoding="UTF-8" standalone="no"?>
<!DOCTYPE svg PUBLIC "-//W3C//DTD SVG 1.1//EN"
 "http://www.w3.org/Graphics/SVG/1.1/DTD/svg11.dtd">
<!-- Generated by graphviz version 2.43.0 (0)
 -->
<!-- Title: offlineProcessState Pages: 1 -->
<svg width="318pt" height="254pt"
 viewBox="0.00 0.00 317.50 254.00" xmlns="http://www.w3.org/2000/svg" xmlns:xlink="http://www.w3.org/1999/xlink">
<g id="graph0" class="graph" transform="scale(1 1) rotate(0) translate(4 250)">
<title>offlineProcessState</title>
<!-- Node1 -->
<g id="Node000001" class="node">
<title>Node1</title>
<g id="a_Node000001"><a xlink:title="State used for the offline processing operation.">
<polygon fill="#999999" stroke="#666666" points="211.5,-19 101.5,-19 101.5,0 211.5,0 211.5,-19"/>
<text text-anchor="middle" x="156.5" y="-7" font-family="Helvetica,sans-Serif" font-size="10.00">offlineProcessState</text>
</a>
</g>
</g>
<!-- Node2 -->
<g id="Node000002" class="node">
<title>Node2</title>
<g id="a_Node000002"><a xlink:href="structfiftyone_degrees_result_ipi_array.html" target="_top" xlink:title="Array of items of type fiftyoneDegreesResultIpi used to easily access and track the size of the array...">
<polygon fill="white" stroke="#666666" points="225,-102 88,-102 88,-72 225,-72 225,-102"/>
<text text-anchor="start" x="96" y="-90" font-family="Helvetica,sans-Serif" font-size="10.00">fiftyoneDegreesResultIpi</text>
<text text-anchor="middle" x="156.5" y="-79" font-family="Helvetica,sans-Serif" font-size="10.00">Array</text>
</a>
</g>
</g>
<!-- Node2&#45;&gt;Node1 -->
<g id="edge1_Node000001_Node000002" class="edge">
<title>Node2&#45;&gt;Node1</title>
<g id="a_edge1_Node000001_Node000002"><a xlink:title=" ">
<path fill="none" stroke="#9a32cd" stroke-dasharray="5,2" d="M156.5,-61.4C156.5,-46.81 156.5,-29.22 156.5,-19.01"/>
<polygon fill="#9a32cd" stroke="#9a32cd" points="153,-61.8 156.5,-71.8 160,-61.8 153,-61.8"/>
</a>
</g>
<text text-anchor="start" x="159.5" y="-42.5" font-family="Helvetica,sans-Serif" font-size="10.00" fill="grey">results</text>
</g>
<!-- Node3 -->
<g id="Node000003" class="node">
<title>Node3</title>
<g id="a_Node000003"><a xlink:href="structfiftyone_degrees_result_ipi.html" target="_top" xlink:title="Singular IP address result returned by a detection process method.">
<polygon fill="white" stroke="#666666" points="225,-174 88,-174 88,-155 225,-155 225,-174"/>
<text text-anchor="middle" x="156.5" y="-162" font-family="Helvetica,sans-Serif" font-size="10.00">fiftyoneDegreesResultIpi</text>
</a>
</g>
</g>
<!-- Node3&#45;&gt;Node2 -->
<g id="edge2_Node000002_Node000003" class="edge">
<title>Node3&#45;&gt;Node2</title>
<g id="a_edge2_Node000002_Node000003"><a xlink:title=" ">
<path fill="none" stroke="#9a32cd" stroke-dasharray="5,2" d="M156.5,-144.57C156.5,-131.43 156.5,-114.18 156.5,-102.21"/>
<polygon fill="#9a32cd" stroke="#9a32cd" points="153,-144.84 156.5,-154.84 160,-144.84 153,-144.84"/>
</a>
</g>
<text text-anchor="start" x="159.5" y="-125.5" font-family="Helvetica,sans-Serif" font-size="10.00" fill="grey">items</text>
</g>
<!-- Node4 -->
<g id="Node000004" class="node">
<title>Node4</title>
<g id="a_Node000004"><a xlink:href="structfiftyone_degrees_ipi_cg_result.html" target="_top" xlink:title="The evaluation result from graph collection.">
<polygon fill="white" stroke="#666666" points="149,-246 0,-246 0,-227 149,-227 149,-246"/>
<text text-anchor="middle" x="74.5" y="-234" font-family="Helvetica,sans-Serif" font-size="10.00">fiftyoneDegreesIpiCgResult</text>
</a>
</g>
</g>
<!-- Node4&#45;&gt;Node3 -->
<g id="edge3_Node000003_Node000004" class="edge">
<title>Node4&#45;&gt;Node3</title>
<g id="a_edge3_Node000003_Node000004"><a xlink:title=" ">
<path fill="none" stroke="#9a32cd" stroke-dasharray="5,2" d="M92.43,-220.19C108.96,-206.08 132.92,-185.63 146.36,-174.15"/>
<polygon fill="#9a32cd" stroke="#9a32cd" points="89.89,-217.76 84.55,-226.92 94.43,-223.09 89.89,-217.76"/>
</a>
</g>
<text text-anchor="start" x="129" y="-197.5" font-family="Helvetica,sans-Serif" font-size="10.00" fill="grey">graphResult</text>
</g>
<!-- Node5 -->
<g id="Node000005" class="node">
<title>Node5</title>
<g id="a_Node000005"><a xlink:href="structfiftyone_degrees_ip_address.html" target="_top" xlink:title="The structure to hold a IP Address in byte array format.">
<polygon fill="white" stroke="#666666" points="309.5,-246 167.5,-246 167.5,-227 309.5,-227 309.5,-246"/>
<text text-anchor="middle" x="238.5" y="-234" font-family="Helvetica,sans-Serif" font-size="10.00">fiftyoneDegreesIpAddress</text>
</a>
</g>
</g>
<!-- Node5&#45;&gt;Node3 -->
<g id="edge4_Node000003_Node000005" class="edge">
<title>Node5&#45;&gt;Node3</title>
<g id="a_edge4_Node000003_Node000005"><a xlink:title=" ">
<path fill="none" stroke="#9a32cd" stroke-dasharray="5,2" d="M223.39,-219.27C215.17,-210.79 204.63,-200.44 194.5,-192 186.71,-185.52 177.38,-178.99 169.92,-174.04"/>
<polygon fill="#9a32cd" stroke="#9a32cd" points="221.04,-221.88 230.47,-226.72 226.11,-217.06 221.04,-221.88"/>
</a>
</g>
<text text-anchor="start" x="214.5" y="-197.5" font-family="Helvetica,sans-Serif" font-size="10.00" fill="grey">targetIpAddress</text>
</g>
</g>
</svg>
