<?xml version="1.0" encoding="UTF-8" standalone="no"?>
<!DOCTYPE svg PUBLIC "-//W3C//DTD SVG 1.1//EN"
 "http://www.w3.org/Graphics/SVG/1.1/DTD/svg11.dtd">
<!-- Generated by graphviz version 2.43.0 (0)
 -->
<!-- Title: fiftyoneDegreesPool Pages: 1 -->
<svg width="224pt" height="171pt"
 viewBox="0.00 0.00 223.50 171.00" xmlns="http://www.w3.org/2000/svg" xmlns:xlink="http://www.w3.org/1999/xlink">
<g id="graph0" class="graph" transform="scale(1 1) rotate(0) translate(4 167)">
<title>fiftyoneDegreesPool</title>
<!-- Node1 -->
<g id="Node000001" class="node">
<title>Node1</title>
<g id="a_Node000001"><a xlink:title="Pool of resources stored as items in a stack.">
<polygon fill="#999999" stroke="#666666" points="127.5,-91 12.5,-91 12.5,-72 127.5,-72 127.5,-91"/>
<text text-anchor="middle" x="70" y="-79" font-family="Helvetica,sans-Serif" font-size="10.00">fiftyoneDegreesPool</text>
</a>
</g>
</g>
<!-- Node1&#45;&gt;Node1 -->
<g id="edge4_Node000001_Node000001" class="edge">
<title>Node1&#45;&gt;Node1</title>
<g id="a_edge4_Node000001_Node000001"><a xlink:title=" ">
<path fill="none" stroke="#9a32cd" stroke-dasharray="5,2" d="M137.53,-86.5C142.47,-85.37 145.5,-83.71 145.5,-81.5 145.5,-78.05 138.12,-75.93 127.61,-75.12"/>
<polygon fill="#9a32cd" stroke="#9a32cd" points="137.03,-83.03 127.61,-87.88 137.99,-89.97 137.03,-83.03"/>
</a>
</g>
<text text-anchor="start" x="148.5" y="-78.5" font-family="Helvetica,sans-Serif" font-size="10.00" fill="grey">resourceFree</text>
</g>
<!-- Node2 -->
<g id="Node000002" class="node">
<title>Node2</title>
<g id="a_Node000002"><a xlink:href="structfiftyone_degrees_pool_item.html" target="_top" xlink:title="Pool item node in the stack of items.">
<polygon fill="white" stroke="#666666" points="138.5,-19 1.5,-19 1.5,0 138.5,0 138.5,-19"/>
<text text-anchor="middle" x="70" y="-7" font-family="Helvetica,sans-Serif" font-size="10.00">fiftyoneDegreesPoolItem</text>
</a>
</g>
</g>
<!-- Node1&#45;&gt;Node2 -->
<g id="edge2_Node000002_Node000001" class="edge">
<title>Node1&#45;&gt;Node2</title>
<g id="a_edge2_Node000002_Node000001"><a xlink:title=" ">
<path fill="none" stroke="#9a32cd" stroke-dasharray="5,2" d="M49.41,-64.97C46.39,-61.7 43.73,-58.01 42,-54 39.01,-47.06 39.01,-43.94 42,-37 45.07,-29.87 51.11,-23.76 56.79,-19.21"/>
<polygon fill="#9a32cd" stroke="#9a32cd" points="47.07,-67.58 56.79,-71.79 51.82,-62.43 47.07,-67.58"/>
</a>
</g>
<text text-anchor="start" x="45" y="-42.5" font-family="Helvetica,sans-Serif" font-size="10.00" fill="grey">pool</text>
</g>
<!-- Node2&#45;&gt;Node1 -->
<g id="edge1_Node000001_Node000002" class="edge">
<title>Node2&#45;&gt;Node1</title>
<g id="a_edge1_Node000001_Node000002"><a xlink:title=" ">
<path fill="none" stroke="#9a32cd" stroke-dasharray="5,2" d="M73.19,-29.28C73.53,-31.87 73.81,-34.49 74,-37 74.57,-44.53 74.57,-46.47 74,-54 73.55,-59.94 72.55,-66.56 71.67,-71.7"/>
<polygon fill="#9a32cd" stroke="#9a32cd" points="76.63,-28.65 71.67,-19.3 69.72,-29.71 76.63,-28.65"/>
</a>
</g>
<text text-anchor="start" x="77.5" y="-42.5" font-family="Helvetica,sans-Serif" font-size="10.00" fill="grey">stack</text>
</g>
<!-- Node3 -->
<g id="Node000003" class="node">
<title>Node3</title>
<g id="a_Node000003"><a xlink:href="unionfiftyone_degrees_pool_head.html" target="_top" xlink:title="The head of the stack used for pop and push operations.">
<polygon fill="white" stroke="#666666" points="140,-163 0,-163 0,-144 140,-144 140,-163"/>
<text text-anchor="middle" x="70" y="-151" font-family="Helvetica,sans-Serif" font-size="10.00">fiftyoneDegreesPoolHead</text>
</a>
</g>
</g>
<!-- Node3&#45;&gt;Node1 -->
<g id="edge3_Node000001_Node000003" class="edge">
<title>Node3&#45;&gt;Node1</title>
<g id="a_edge3_Node000001_Node000003"><a xlink:title=" ">
<path fill="none" stroke="#9a32cd" stroke-dasharray="5,2" d="M70,-133.58C70,-119.76 70,-101.68 70,-91.15"/>
<polygon fill="#9a32cd" stroke="#9a32cd" points="66.5,-133.92 70,-143.92 73.5,-133.92 66.5,-133.92"/>
</a>
</g>
<text text-anchor="start" x="73.5" y="-114.5" font-family="Helvetica,sans-Serif" font-size="10.00" fill="grey">head</text>
</g>
</g>
</svg>
