<?xml version="1.0" encoding="UTF-8" standalone="no"?>
<!DOCTYPE svg PUBLIC "-//W3C//DTD SVG 1.1//EN"
 "http://www.w3.org/Graphics/SVG/1.1/DTD/svg11.dtd">
<!-- Generated by graphviz version 2.43.0 (0)
 -->
<!-- Title: fiftyoneDegreesTreeRoot Pages: 1 -->
<svg width="204pt" height="142pt"
 viewBox="0.00 0.00 204.00 142.00" xmlns="http://www.w3.org/2000/svg" xmlns:xlink="http://www.w3.org/1999/xlink">
<g id="graph0" class="graph" transform="scale(1 1) rotate(0) translate(4 138)">
<title>fiftyoneDegreesTreeRoot</title>
<!-- Node1 -->
<g id="Node000001" class="node">
<title>Node1</title>
<g id="a_Node000001"><a xlink:title="Tree root structure defining the beginning of the tree.">
<polygon fill="#999999" stroke="#666666" points="138.5,-134 1.5,-134 1.5,-115 138.5,-115 138.5,-134"/>
<text text-anchor="middle" x="70" y="-122" font-family="Helvetica,sans-Serif" font-size="10.00">fiftyoneDegreesTreeRoot</text>
</a>
</g>
</g>
<!-- Node2 -->
<g id="Node000002" class="node">
<title>Node2</title>
<g id="a_Node000002"><a xlink:href="structfiftyone_degrees_tree_node.html" target="_top" xlink:title="Node structure defining a single node in the tree.">
<polygon fill="white" stroke="#666666" points="140,-33 0,-33 0,-14 140,-14 140,-33"/>
<text text-anchor="middle" x="70" y="-21" font-family="Helvetica,sans-Serif" font-size="10.00">fiftyoneDegreesTreeNode</text>
</a>
</g>
</g>
<!-- Node1&#45;&gt;Node2 -->
<g id="edge2_Node000002_Node000001" class="edge">
<title>Node1&#45;&gt;Node2</title>
<g id="a_edge2_Node000002_Node000001"><a xlink:title=" ">
<path fill="none" stroke="#9a32cd" stroke-dasharray="5,2" d="M50.28,-108.04C47.31,-104.74 44.69,-101.02 43,-97 37.5,-83.89 38.88,-78.61 43,-65 46.72,-52.71 55.54,-40.73 62.1,-33.03"/>
<polygon fill="#9a32cd" stroke="#9a32cd" points="47.88,-110.58 57.54,-114.93 52.7,-105.51 47.88,-110.58"/>
</a>
</g>
<text text-anchor="start" x="46" y="-78" font-family="Helvetica,sans-Serif" font-size="10.00" fill="grey">root</text>
</g>
<!-- Node2&#45;&gt;Node1 -->
<g id="edge1_Node000001_Node000002" class="edge">
<title>Node2&#45;&gt;Node1</title>
<g id="a_edge1_Node000001_Node000002"><a xlink:title=" ">
<path fill="none" stroke="#9a32cd" stroke-dasharray="5,2" d="M71.82,-43.71C72.95,-58.32 74.02,-78.94 73,-97 72.67,-102.92 71.92,-109.54 71.25,-114.69"/>
<polygon fill="#9a32cd" stroke="#9a32cd" points="75.28,-43.1 70.93,-33.43 68.3,-43.7 75.28,-43.1"/>
</a>
</g>
<text text-anchor="start" x="76" y="-86" font-family="Helvetica,sans-Serif" font-size="10.00" fill="grey">empty</text>
<text text-anchor="start" x="76" y="-71" font-family="Helvetica,sans-Serif" font-size="10.00" fill="grey">root</text>
</g>
<!-- Node2&#45;&gt;Node2 -->
<g id="edge3_Node000002_Node000002" class="edge">
<title>Node2&#45;&gt;Node2</title>
<g id="a_edge3_Node000002_Node000002"><a xlink:title=" ">
<path fill="none" stroke="#9a32cd" stroke-dasharray="5,2" d="M117.61,-33.82C139.23,-34.86 158,-31.42 158,-23.5 158,-14.37 133.03,-11.19 107.53,-13.97"/>
<polygon fill="#9a32cd" stroke="#9a32cd" points="117.78,-30.32 107.53,-33.03 117.23,-37.3 117.78,-30.32"/>
</a>
</g>
<text text-anchor="start" x="161" y="-35.5" font-family="Helvetica,sans-Serif" font-size="10.00" fill="grey">left</text>
<text text-anchor="start" x="161" y="-20.5" font-family="Helvetica,sans-Serif" font-size="10.00" fill="grey">parent</text>
<text text-anchor="start" x="161" y="-5.5" font-family="Helvetica,sans-Serif" font-size="10.00" fill="grey">right</text>
</g>
</g>
</svg>
