<?xml version="1.0" encoding="UTF-8" standalone="no"?>
<!DOCTYPE svg PUBLIC "-//W3C//DTD SVG 1.1//EN"
 "http://www.w3.org/Graphics/SVG/1.1/DTD/svg11.dtd">
<!-- Generated by graphviz version 2.43.0 (0)
 -->
<!-- Title: fiftyoneDegreesPropertyAvailableArray Pages: 1 -->
<svg width="453pt" height="278pt"
 viewBox="0.00 0.00 452.50 278.00" xmlns="http://www.w3.org/2000/svg" xmlns:xlink="http://www.w3.org/1999/xlink">
<g id="graph0" class="graph" transform="scale(1 1) rotate(0) translate(4 274)">
<title>fiftyoneDegreesPropertyAvailableArray</title>
<!-- Node1 -->
<g id="Node000001" class="node">
<title>Node1</title>
<g id="a_Node000001"><a xlink:title="Array of items of type fiftyoneDegreesPropertyAvailable used to easily access and track the size of t...">
<polygon fill="#999999" stroke="#666666" points="434.5,-30 254.5,-30 254.5,0 434.5,0 434.5,-30"/>
<text text-anchor="start" x="262.5" y="-18" font-family="Helvetica,sans-Serif" font-size="10.00">fiftyoneDegreesPropertyAvailable</text>
<text text-anchor="middle" x="344.5" y="-7" font-family="Helvetica,sans-Serif" font-size="10.00">Array</text>
</a>
</g>
</g>
<!-- Node2 -->
<g id="Node000002" class="node">
<title>Node2</title>
<g id="a_Node000002"><a xlink:href="structfiftyone_degrees_property_available.html" target="_top" xlink:title="Used to access the property item quickly without the need to search.">
<polygon fill="white" stroke="#666666" points="434.5,-108.5 254.5,-108.5 254.5,-89.5 434.5,-89.5 434.5,-108.5"/>
<text text-anchor="middle" x="344.5" y="-96.5" font-family="Helvetica,sans-Serif" font-size="10.00">fiftyoneDegreesPropertyAvailable</text>
</a>
</g>
</g>
<!-- Node2&#45;&gt;Node1 -->
<g id="edge1_Node000001_Node000002" class="edge">
<title>Node2&#45;&gt;Node1</title>
<g id="a_edge1_Node000001_Node000002"><a xlink:title=" ">
<path fill="none" stroke="#9a32cd" stroke-dasharray="5,2" d="M344.5,-79.11C344.5,-64.2 344.5,-43.72 344.5,-30.18"/>
<polygon fill="#9a32cd" stroke="#9a32cd" points="341,-79.22 344.5,-89.22 348,-79.22 341,-79.22"/>
</a>
</g>
<text text-anchor="start" x="347.5" y="-53.5" font-family="Helvetica,sans-Serif" font-size="10.00" fill="grey">items</text>
</g>
<!-- Node3 -->
<g id="Node000003" class="node">
<title>Node3</title>
<g id="a_Node000003"><a xlink:href="structfiftyone_degrees_collection_item.html" target="_top" xlink:title="Used to store a handle to the underlying item that could be used to release the item when it&#39;s finish...">
<polygon fill="white" stroke="#666666" points="220,-192.5 55,-192.5 55,-173.5 220,-173.5 220,-192.5"/>
<text text-anchor="middle" x="137.5" y="-180.5" font-family="Helvetica,sans-Serif" font-size="10.00">fiftyoneDegreesCollectionItem</text>
</a>
</g>
</g>
<!-- Node3&#45;&gt;Node2 -->
<g id="edge2_Node000002_Node000003" class="edge">
<title>Node3&#45;&gt;Node2</title>
<g id="a_edge2_Node000002_Node000003"><a xlink:title=" ">
<path fill="none" stroke="#9a32cd" stroke-dasharray="5,2" d="M168.56,-169.69C211.07,-152.86 286.25,-123.07 323.03,-108.5"/>
<polygon fill="#9a32cd" stroke="#9a32cd" points="167.27,-166.44 159.26,-173.38 169.85,-172.95 167.27,-166.44"/>
</a>
</g>
<text text-anchor="start" x="263.5" y="-138.5" font-family="Helvetica,sans-Serif" font-size="10.00" fill="grey">name</text>
</g>
<!-- Node5 -->
<g id="Node000005" class="node">
<title>Node5</title>
<g id="a_Node000005"><a xlink:href="structfiftyone_degrees_collection.html" target="_top" xlink:title="All the shared methods and fields required by file, memory and cached collections.">
<polygon fill="white" stroke="#666666" points="143,-108.5 0,-108.5 0,-89.5 143,-89.5 143,-108.5"/>
<text text-anchor="middle" x="71.5" y="-96.5" font-family="Helvetica,sans-Serif" font-size="10.00">fiftyoneDegreesCollection</text>
</a>
</g>
</g>
<!-- Node3&#45;&gt;Node5 -->
<g id="edge6_Node000005_Node000003" class="edge">
<title>Node3&#45;&gt;Node5</title>
<g id="a_edge6_Node000005_Node000003"><a xlink:title=" ">
<path fill="none" stroke="#9a32cd" stroke-dasharray="5,2" d="M90.78,-169.14C81.95,-164.54 73.83,-158.34 68.5,-150 60.45,-137.39 64.57,-119.16 68.14,-108.55"/>
<polygon fill="#9a32cd" stroke="#9a32cd" points="89.59,-172.44 100.14,-173.37 92.47,-166.07 89.59,-172.44"/>
</a>
</g>
<text text-anchor="start" x="72" y="-138.5" font-family="Helvetica,sans-Serif" font-size="10.00" fill="grey">release</text>
</g>
<!-- Node4 -->
<g id="Node000004" class="node">
<title>Node4</title>
<g id="a_Node000004"><a xlink:href="structfiftyone_degrees_data.html" target="_top" xlink:title="Data structure used for reusing memory which may have been allocated in a previous operation.">
<polygon fill="white" stroke="#666666" points="196,-270 79,-270 79,-251 196,-251 196,-270"/>
<text text-anchor="middle" x="137.5" y="-258" font-family="Helvetica,sans-Serif" font-size="10.00">fiftyoneDegreesData</text>
</a>
</g>
</g>
<!-- Node4&#45;&gt;Node3 -->
<g id="edge3_Node000003_Node000004" class="edge">
<title>Node4&#45;&gt;Node3</title>
<g id="a_edge3_Node000003_Node000004"><a xlink:title=" ">
<path fill="none" stroke="#9a32cd" stroke-dasharray="5,2" d="M137.5,-240.4C137.5,-225.01 137.5,-204.11 137.5,-192.56"/>
<polygon fill="#9a32cd" stroke="#9a32cd" points="134,-240.84 137.5,-250.84 141,-240.84 134,-240.84"/>
</a>
</g>
<text text-anchor="start" x="140.5" y="-221.5" font-family="Helvetica,sans-Serif" font-size="10.00" fill="grey">data</text>
</g>
<!-- Node5&#45;&gt;Node3 -->
<g id="edge4_Node000003_Node000005" class="edge">
<title>Node5&#45;&gt;Node3</title>
<g id="a_edge4_Node000003_Node000005"><a xlink:title=" ">
<path fill="none" stroke="#9a32cd" stroke-dasharray="5,2" d="M95.27,-114.46C102.44,-119.65 109.88,-125.97 115.5,-133 125.4,-145.38 131.85,-162.93 135.07,-173.32"/>
<polygon fill="#9a32cd" stroke="#9a32cd" points="96.75,-111.24 86.51,-108.53 92.83,-117.04 96.75,-111.24"/>
</a>
</g>
<text text-anchor="start" x="129.5" y="-138.5" font-family="Helvetica,sans-Serif" font-size="10.00" fill="grey">collection</text>
</g>
<!-- Node5&#45;&gt;Node5 -->
<g id="edge5_Node000005_Node000005" class="edge">
<title>Node5&#45;&gt;Node5</title>
<g id="a_edge5_Node000005_Node000005"><a xlink:title=" ">
<path fill="none" stroke="#9a32cd" stroke-dasharray="5,2" d="M153.11,-104.45C158.04,-103.16 161,-101.34 161,-99 161,-95.35 153.79,-92.97 143.13,-91.86"/>
<polygon fill="#9a32cd" stroke="#9a32cd" points="152.4,-101.02 143.13,-106.14 153.57,-107.92 152.4,-101.02"/>
</a>
</g>
<text text-anchor="start" x="164.5" y="-104" font-family="Helvetica,sans-Serif" font-size="10.00" fill="grey">freeCollection</text>
<text text-anchor="start" x="164.5" y="-89" font-family="Helvetica,sans-Serif" font-size="10.00" fill="grey">get</text>
</g>
<!-- Node6 -->
<g id="Node000006" class="node">
<title>Node6</title>
<g id="a_Node000006"><a xlink:href="structfiftyone_degrees_evidence_property_index_array.html" target="_top" xlink:title="Array of items of type fiftyoneDegreesEvidencePropertyIndex used to easily access and track the size ...">
<polygon fill="white" stroke="#666666" points="434,-198 255,-198 255,-168 434,-168 434,-198"/>
<text text-anchor="start" x="263" y="-186" font-family="Helvetica,sans-Serif" font-size="10.00">fiftyoneDegreesEvidenceProperty</text>
<text text-anchor="middle" x="344.5" y="-175" font-family="Helvetica,sans-Serif" font-size="10.00">IndexArray</text>
</a>
</g>
</g>
<!-- Node6&#45;&gt;Node2 -->
<g id="edge7_Node000002_Node000006" class="edge">
<title>Node6&#45;&gt;Node2</title>
<g id="a_edge7_Node000002_Node000006"><a xlink:title=" ">
<path fill="none" stroke="#9a32cd" stroke-dasharray="5,2" d="M344.5,-157.6C344.5,-141.03 344.5,-120.11 344.5,-108.59"/>
<polygon fill="#9a32cd" stroke="#9a32cd" points="341,-157.72 344.5,-167.72 348,-157.72 341,-157.72"/>
</a>
</g>
<text text-anchor="start" x="347.5" y="-138.5" font-family="Helvetica,sans-Serif" font-size="10.00" fill="grey">evidenceProperties</text>
</g>
</g>
</svg>
