<?xml version="1.0" encoding="UTF-8" standalone="no"?>
<!DOCTYPE svg PUBLIC "-//W3C//DTD SVG 1.1//EN"
 "http://www.w3.org/Graphics/SVG/1.1/DTD/svg11.dtd">
<!-- Generated by graphviz version 2.43.0 (0)
 -->
<!-- Title: fiftyoneDegreesProfilePercentage Pages: 1 -->
<svg width="438pt" height="164pt"
 viewBox="0.00 0.00 438.00 164.00" xmlns="http://www.w3.org/2000/svg" xmlns:xlink="http://www.w3.org/1999/xlink">
<g id="graph0" class="graph" transform="scale(1 1) rotate(0) translate(4 160)">
<title>fiftyoneDegreesProfilePercentage</title>
<!-- Node1 -->
<g id="node1" class="node">
<title>Node1</title>
<g id="a_node1"><a xlink:title="The structure to hold a pair of result item and its percentage When getting values for a property fro...">
<polygon fill="#bfbfbf" stroke="black" points="0,-1.5 0,-20.5 179,-20.5 179,-1.5 0,-1.5"/>
<text text-anchor="middle" x="89.5" y="-8.5" font-family="Helvetica,sans-Serif" font-size="10.00">fiftyoneDegreesProfilePercentage</text>
</a>
</g>
</g>
<!-- Node2 -->
<g id="node2" class="node">
<title>Node2</title>
<g id="a_node2"><a xlink:href="structfiftyone_degrees_collection_item.html" target="_top" xlink:title="Used to store a handle to the underlying item that could be used to release the item when it&#39;s finish...">
<polygon fill="none" stroke="black" points="123,-69.5 123,-88.5 288,-88.5 288,-69.5 123,-69.5"/>
<text text-anchor="middle" x="205.5" y="-76.5" font-family="Helvetica,sans-Serif" font-size="10.00">fiftyoneDegreesCollectionItem</text>
</a>
</g>
</g>
<!-- Node2&#45;&gt;Node1 -->
<g id="edge1" class="edge">
<title>Node2&#45;&gt;Node1</title>
<path fill="none" stroke="#9a32cd" stroke-dasharray="5,2" d="M181.49,-64.34C158.4,-51.2 124.21,-31.75 104.67,-20.63"/>
<polygon fill="#9a32cd" stroke="#9a32cd" points="179.91,-67.47 190.34,-69.37 183.37,-61.38 179.91,-67.47"/>
<text text-anchor="middle" x="171.5" y="-43" font-family="Helvetica,sans-Serif" font-size="10.00"> item</text>
</g>
<!-- Node3 -->
<g id="node3" class="node">
<title>Node3</title>
<g id="a_node3"><a xlink:href="structfiftyone_degrees_collection.html" target="_top" xlink:title="All the shared methods and fields required by file, memory and cached collections.">
<polygon fill="none" stroke="black" points="197,-1.5 197,-20.5 340,-20.5 340,-1.5 197,-1.5"/>
<text text-anchor="middle" x="268.5" y="-8.5" font-family="Helvetica,sans-Serif" font-size="10.00">fiftyoneDegreesCollection</text>
</a>
</g>
</g>
<!-- Node2&#45;&gt;Node3 -->
<g id="edge3" class="edge">
<title>Node2&#45;&gt;Node3</title>
<path fill="none" stroke="#9a32cd" stroke-dasharray="5,2" d="M199.48,-59.25C198.5,-52.69 198.8,-45.59 202.5,-40 208.55,-30.87 218.23,-24.7 228.35,-20.55"/>
<polygon fill="#9a32cd" stroke="#9a32cd" points="196.19,-60.52 201.98,-69.39 202.99,-58.84 196.19,-60.52"/>
<text text-anchor="middle" x="222.5" y="-43" font-family="Helvetica,sans-Serif" font-size="10.00"> release</text>
</g>
<!-- Node3&#45;&gt;Node2 -->
<g id="edge2" class="edge">
<title>Node3&#45;&gt;Node2</title>
<path fill="none" stroke="#9a32cd" stroke-dasharray="5,2" d="M260.64,-29.98C257,-37.04 252.2,-44.89 246.5,-51 239.64,-58.35 230.39,-64.66 222.41,-69.33"/>
<polygon fill="#9a32cd" stroke="#9a32cd" points="264.01,-31.04 265.12,-20.5 257.68,-28.05 264.01,-31.04"/>
<text text-anchor="middle" x="280" y="-43" font-family="Helvetica,sans-Serif" font-size="10.00"> collection</text>
</g>
<!-- Node3&#45;&gt;Node3 -->
<g id="edge4" class="edge">
<title>Node3&#45;&gt;Node3</title>
<path fill="none" stroke="#9a32cd" stroke-dasharray="5,2" d="M350.11,-15.41C355.04,-14.36 358,-12.89 358,-11 358,-8.04 350.79,-6.12 340.13,-5.22"/>
<polygon fill="#9a32cd" stroke="#9a32cd" points="349.56,-11.96 340.13,-16.78 350.51,-18.89 349.56,-11.96"/>
<text text-anchor="middle" x="394" y="-14" font-family="Helvetica,sans-Serif" font-size="10.00"> freeCollection</text>
<text text-anchor="middle" x="394" y="-3" font-family="Helvetica,sans-Serif" font-size="10.00">get</text>
</g>
<!-- Node4 -->
<g id="node4" class="node">
<title>Node4</title>
<g id="a_node4"><a xlink:href="structfiftyone_degrees_data.html" target="_top" xlink:title="Data structure used for reusing memory which may have been allocated in a previous operation.">
<polygon fill="none" stroke="black" points="147,-136.5 147,-155.5 264,-155.5 264,-136.5 147,-136.5"/>
<text text-anchor="middle" x="205.5" y="-143.5" font-family="Helvetica,sans-Serif" font-size="10.00">fiftyoneDegreesData</text>
</a>
</g>
</g>
<!-- Node4&#45;&gt;Node2 -->
<g id="edge5" class="edge">
<title>Node4&#45;&gt;Node2</title>
<path fill="none" stroke="#9a32cd" stroke-dasharray="5,2" d="M205.5,-126.04C205.5,-113.67 205.5,-98.12 205.5,-88.63"/>
<polygon fill="#9a32cd" stroke="#9a32cd" points="202,-126.23 205.5,-136.23 209,-126.23 202,-126.23"/>
<text text-anchor="middle" x="218" y="-110" font-family="Helvetica,sans-Serif" font-size="10.00"> data</text>
</g>
</g>
</svg>
