<?xml version="1.0" encoding="UTF-8" standalone="no"?>
<!DOCTYPE svg PUBLIC "-//W3C//DTD SVG 1.1//EN"
 "http://www.w3.org/Graphics/SVG/1.1/DTD/svg11.dtd">
<!-- Generated by graphviz version 2.43.0 (0)
 -->
<!-- Title: fiftyoneDegreesWeightedString Pages: 1 -->
<svg width="310pt" height="110pt"
 viewBox="0.00 0.00 310.00 110.00" xmlns="http://www.w3.org/2000/svg" xmlns:xlink="http://www.w3.org/1999/xlink">
<g id="graph0" class="graph" transform="scale(1 1) rotate(0) translate(4 106)">
<title>fiftyoneDegreesWeightedString</title>
<!-- Node1 -->
<g id="Node000001" class="node">
<title>Node1</title>
<g id="a_Node000001"><a xlink:title="Structure for weighted string values.">
<polygon fill="#999999" stroke="#666666" points="247.5,-19 79.5,-19 79.5,0 247.5,0 247.5,-19"/>
<text text-anchor="middle" x="163.5" y="-7" font-family="Helvetica,sans-Serif" font-size="10.00">fiftyoneDegreesWeightedString</text>
</a>
</g>
</g>
<!-- Node2 -->
<g id="Node000002" class="node">
<title>Node2</title>
<g id="a_Node000002"><a xlink:href="structfiftyone_degrees_weighted_value_header.html" target="_top" xlink:title="Header structure for all weighted value types.">
<polygon fill="white" stroke="#666666" points="167,-102 0,-102 0,-72 167,-72 167,-102"/>
<text text-anchor="start" x="8" y="-90" font-family="Helvetica,sans-Serif" font-size="10.00">fiftyoneDegreesWeightedValue</text>
<text text-anchor="middle" x="83.5" y="-79" font-family="Helvetica,sans-Serif" font-size="10.00">Header</text>
</a>
</g>
</g>
<!-- Node2&#45;&gt;Node1 -->
<g id="edge1_Node000001_Node000002" class="edge">
<title>Node2&#45;&gt;Node1</title>
<g id="a_edge1_Node000001_Node000002"><a xlink:title=" ">
<path fill="none" stroke="#9a32cd" stroke-dasharray="5,2" d="M106,-64.77C122.06,-49.61 142.81,-30.02 154.49,-19.01"/>
<polygon fill="#9a32cd" stroke="#9a32cd" points="103.42,-62.39 98.55,-71.8 108.22,-67.48 103.42,-62.39"/>
</a>
</g>
<text text-anchor="start" x="138.5" y="-42.5" font-family="Helvetica,sans-Serif" font-size="10.00" fill="grey">header</text>
</g>
<!-- Node3 -->
<g id="Node000003" class="node">
<title>Node3</title>
<g id="a_Node000003"><a xlink:href="structfiftyone_degrees_data.html" target="_top" xlink:title="Data structure used for reusing memory which may have been allocated in a previous operation.">
<polygon fill="white" stroke="#666666" points="302,-96.5 185,-96.5 185,-77.5 302,-77.5 302,-96.5"/>
<text text-anchor="middle" x="243.5" y="-84.5" font-family="Helvetica,sans-Serif" font-size="10.00">fiftyoneDegreesData</text>
</a>
</g>
</g>
<!-- Node3&#45;&gt;Node1 -->
<g id="edge2_Node000001_Node000003" class="edge">
<title>Node3&#45;&gt;Node1</title>
<g id="a_edge2_Node000001_Node000003"><a xlink:title=" ">
<path fill="none" stroke="#9a32cd" stroke-dasharray="5,2" d="M226.98,-70.41C210.49,-54.85 185.77,-31.52 172.57,-19.06"/>
<polygon fill="#9a32cd" stroke="#9a32cd" points="224.65,-73.02 234.32,-77.34 229.45,-67.93 224.65,-73.02"/>
</a>
</g>
<text text-anchor="start" x="210.5" y="-42.5" font-family="Helvetica,sans-Serif" font-size="10.00" fill="grey">stringData</text>
</g>
</g>
</svg>
