<?xml version="1.0" encoding="UTF-8" standalone="no"?>
<!DOCTYPE svg PUBLIC "-//W3C//DTD SVG 1.1//EN"
 "http://www.w3.org/Graphics/SVG/1.1/DTD/svg11.dtd">
<!-- Generated by graphviz version 2.43.0 (0)
 -->
<!-- Title: fiftyoneDegreesWeightedItemList Pages: 1 -->
<svg width="433pt" height="256pt"
 viewBox="0.00 0.00 433.00 256.00" xmlns="http://www.w3.org/2000/svg" xmlns:xlink="http://www.w3.org/1999/xlink">
<g id="graph0" class="graph" transform="scale(1 1) rotate(0) translate(4 252)">
<title>fiftyoneDegreesWeightedItemList</title>
<!-- Node1 -->
<g id="Node000001" class="node">
<title>Node1</title>
<g id="a_Node000001"><a xlink:title="A resizable list of weighted items.">
<polygon fill="#999999" stroke="#666666" points="179,-19 0,-19 0,0 179,0 179,-19"/>
<text text-anchor="middle" x="89.5" y="-7" font-family="Helvetica,sans-Serif" font-size="10.00">fiftyoneDegreesWeightedItemList</text>
</a>
</g>
</g>
<!-- Node2 -->
<g id="Node000002" class="node">
<title>Node2</title>
<g id="a_Node000002"><a xlink:href="structfiftyone_degrees_weighted_item.html" target="_top" xlink:title="A weighted collection item.">
<polygon fill="white" stroke="#666666" points="170.5,-97.5 8.5,-97.5 8.5,-78.5 170.5,-78.5 170.5,-97.5"/>
<text text-anchor="middle" x="89.5" y="-85.5" font-family="Helvetica,sans-Serif" font-size="10.00">fiftyoneDegreesWeightedItem</text>
</a>
</g>
</g>
<!-- Node2&#45;&gt;Node1 -->
<g id="edge1_Node000001_Node000002" class="edge">
<title>Node2&#45;&gt;Node1</title>
<g id="a_edge1_Node000001_Node000002"><a xlink:title=" ">
<path fill="none" stroke="#9a32cd" stroke-dasharray="5,2" d="M89.5,-68.1C89.5,-52.47 89.5,-30.99 89.5,-19.17"/>
<polygon fill="#9a32cd" stroke="#9a32cd" points="86,-68.22 89.5,-78.22 93,-68.22 86,-68.22"/>
</a>
</g>
<text text-anchor="start" x="92.5" y="-42.5" font-family="Helvetica,sans-Serif" font-size="10.00" fill="grey">items</text>
</g>
<!-- Node3 -->
<g id="Node000003" class="node">
<title>Node3</title>
<g id="a_Node000003"><a xlink:href="structfiftyone_degrees_collection_item.html" target="_top" xlink:title="Used to store a handle to the underlying item that could be used to release the item when it&#39;s finish...">
<polygon fill="white" stroke="#666666" points="277,-176 112,-176 112,-157 277,-157 277,-176"/>
<text text-anchor="middle" x="194.5" y="-164" font-family="Helvetica,sans-Serif" font-size="10.00">fiftyoneDegreesCollectionItem</text>
</a>
</g>
</g>
<!-- Node3&#45;&gt;Node2 -->
<g id="edge2_Node000002_Node000003" class="edge">
<title>Node3&#45;&gt;Node2</title>
<g id="a_edge2_Node000002_Node000003"><a xlink:title=" ">
<path fill="none" stroke="#9a32cd" stroke-dasharray="5,2" d="M172.91,-151.12C167.21,-147.24 161.09,-143.01 155.5,-139 135.88,-124.92 113.59,-107.78 100.58,-97.67"/>
<polygon fill="#9a32cd" stroke="#9a32cd" points="171.14,-154.14 181.38,-156.83 175.05,-148.34 171.14,-154.14"/>
</a>
</g>
<text text-anchor="start" x="159" y="-127.5" font-family="Helvetica,sans-Serif" font-size="10.00" fill="grey">item</text>
</g>
<!-- Node5 -->
<g id="Node000005" class="node">
<title>Node5</title>
<g id="a_Node000005"><a xlink:href="structfiftyone_degrees_collection.html" target="_top" xlink:title="All the shared methods and fields required by file, memory and cached collections.">
<polygon fill="white" stroke="#666666" points="332,-97.5 189,-97.5 189,-78.5 332,-78.5 332,-97.5"/>
<text text-anchor="middle" x="260.5" y="-85.5" font-family="Helvetica,sans-Serif" font-size="10.00">fiftyoneDegreesCollection</text>
</a>
</g>
</g>
<!-- Node3&#45;&gt;Node5 -->
<g id="edge6_Node000005_Node000003" class="edge">
<title>Node3&#45;&gt;Node5</title>
<g id="a_edge6_Node000005_Node000003"><a xlink:title=" ">
<path fill="none" stroke="#9a32cd" stroke-dasharray="5,2" d="M188.51,-146.94C186.99,-138.73 186.9,-129.3 191.5,-122 198.93,-110.2 211.88,-102.53 224.56,-97.59"/>
<polygon fill="#9a32cd" stroke="#9a32cd" points="185.15,-147.95 191.05,-156.75 191.93,-146.2 185.15,-147.95"/>
</a>
</g>
<text text-anchor="start" x="195" y="-127.5" font-family="Helvetica,sans-Serif" font-size="10.00" fill="grey">release</text>
</g>
<!-- Node4 -->
<g id="Node000004" class="node">
<title>Node4</title>
<g id="a_Node000004"><a xlink:href="structfiftyone_degrees_data.html" target="_top" xlink:title="Data structure used for reusing memory which may have been allocated in a previous operation.">
<polygon fill="white" stroke="#666666" points="253,-248 136,-248 136,-229 253,-229 253,-248"/>
<text text-anchor="middle" x="194.5" y="-236" font-family="Helvetica,sans-Serif" font-size="10.00">fiftyoneDegreesData</text>
</a>
</g>
</g>
<!-- Node4&#45;&gt;Node3 -->
<g id="edge3_Node000003_Node000004" class="edge">
<title>Node4&#45;&gt;Node3</title>
<g id="a_edge3_Node000003_Node000004"><a xlink:title=" ">
<path fill="none" stroke="#9a32cd" stroke-dasharray="5,2" d="M194.5,-218.58C194.5,-204.76 194.5,-186.68 194.5,-176.15"/>
<polygon fill="#9a32cd" stroke="#9a32cd" points="191,-218.92 194.5,-228.92 198,-218.92 191,-218.92"/>
</a>
</g>
<text text-anchor="start" x="197.5" y="-199.5" font-family="Helvetica,sans-Serif" font-size="10.00" fill="grey">data</text>
</g>
<!-- Node5&#45;&gt;Node3 -->
<g id="edge4_Node000003_Node000005" class="edge">
<title>Node5&#45;&gt;Node3</title>
<g id="a_edge4_Node000003_Node000005"><a xlink:title=" ">
<path fill="none" stroke="#9a32cd" stroke-dasharray="5,2" d="M255.49,-107.25C251.99,-117.45 246.5,-129.91 238.5,-139 231.9,-146.5 222.66,-152.51 214.34,-156.9"/>
<polygon fill="#9a32cd" stroke="#9a32cd" points="258.84,-108.25 258.43,-97.66 252.15,-106.19 258.84,-108.25"/>
</a>
</g>
<text text-anchor="start" x="252.5" y="-127.5" font-family="Helvetica,sans-Serif" font-size="10.00" fill="grey">collection</text>
</g>
<!-- Node5&#45;&gt;Node5 -->
<g id="edge5_Node000005_Node000005" class="edge">
<title>Node5&#45;&gt;Node5</title>
<g id="a_edge5_Node000005_Node000005"><a xlink:title=" ">
<path fill="none" stroke="#9a32cd" stroke-dasharray="5,2" d="M342.11,-93.45C347.04,-92.16 350,-90.34 350,-88 350,-84.35 342.79,-81.97 332.13,-80.86"/>
<polygon fill="#9a32cd" stroke="#9a32cd" points="341.4,-90.02 332.13,-95.14 342.57,-96.92 341.4,-90.02"/>
</a>
</g>
<text text-anchor="start" x="353.5" y="-93" font-family="Helvetica,sans-Serif" font-size="10.00" fill="grey">freeCollection</text>
<text text-anchor="start" x="353.5" y="-78" font-family="Helvetica,sans-Serif" font-size="10.00" fill="grey">get</text>
</g>
</g>
</svg>
