<?xml version="1.0" encoding="UTF-8" standalone="no"?>
<!DOCTYPE svg PUBLIC "-//W3C//DTD SVG 1.1//EN"
 "http://www.w3.org/Graphics/SVG/1.1/DTD/svg11.dtd">
<!-- Generated by graphviz version 2.43.0 (0)
 -->
<!-- Title: fiftyoneDegreesOverrideProperty Pages: 1 -->
<svg width="453pt" height="267pt"
 viewBox="0.00 0.00 452.50 267.00" xmlns="http://www.w3.org/2000/svg" xmlns:xlink="http://www.w3.org/1999/xlink">
<g id="graph0" class="graph" transform="scale(1 1) rotate(0) translate(4 263)">
<title>fiftyoneDegreesOverrideProperty</title>
<!-- Node1 -->
<g id="Node000001" class="node">
<title>Node1</title>
<g id="a_Node000001"><a xlink:title="Index and pointer to a property which can be overridden.">
<polygon fill="#999999" stroke="#666666" points="433,-19 256,-19 256,0 433,0 433,-19"/>
<text text-anchor="middle" x="344.5" y="-7" font-family="Helvetica,sans-Serif" font-size="10.00">fiftyoneDegreesOverrideProperty</text>
</a>
</g>
</g>
<!-- Node2 -->
<g id="Node000002" class="node">
<title>Node2</title>
<g id="a_Node000002"><a xlink:href="structfiftyone_degrees_property_available.html" target="_top" xlink:title="Used to access the property item quickly without the need to search.">
<polygon fill="white" stroke="#666666" points="434.5,-97.5 254.5,-97.5 254.5,-78.5 434.5,-78.5 434.5,-97.5"/>
<text text-anchor="middle" x="344.5" y="-85.5" font-family="Helvetica,sans-Serif" font-size="10.00">fiftyoneDegreesPropertyAvailable</text>
</a>
</g>
</g>
<!-- Node2&#45;&gt;Node1 -->
<g id="edge1_Node000001_Node000002" class="edge">
<title>Node2&#45;&gt;Node1</title>
<g id="a_edge1_Node000001_Node000002"><a xlink:title=" ">
<path fill="none" stroke="#9a32cd" stroke-dasharray="5,2" d="M344.5,-68.1C344.5,-52.47 344.5,-30.99 344.5,-19.17"/>
<polygon fill="#9a32cd" stroke="#9a32cd" points="341,-68.22 344.5,-78.22 348,-68.22 341,-68.22"/>
</a>
</g>
<text text-anchor="start" x="347.5" y="-42.5" font-family="Helvetica,sans-Serif" font-size="10.00" fill="grey">available</text>
</g>
<!-- Node3 -->
<g id="Node000003" class="node">
<title>Node3</title>
<g id="a_Node000003"><a xlink:href="structfiftyone_degrees_collection_item.html" target="_top" xlink:title="Used to store a handle to the underlying item that could be used to release the item when it&#39;s finish...">
<polygon fill="white" stroke="#666666" points="220,-181.5 55,-181.5 55,-162.5 220,-162.5 220,-181.5"/>
<text text-anchor="middle" x="137.5" y="-169.5" font-family="Helvetica,sans-Serif" font-size="10.00">fiftyoneDegreesCollectionItem</text>
</a>
</g>
</g>
<!-- Node3&#45;&gt;Node2 -->
<g id="edge2_Node000002_Node000003" class="edge">
<title>Node3&#45;&gt;Node2</title>
<g id="a_edge2_Node000002_Node000003"><a xlink:title=" ">
<path fill="none" stroke="#9a32cd" stroke-dasharray="5,2" d="M168.56,-158.69C211.07,-141.86 286.25,-112.07 323.03,-97.5"/>
<polygon fill="#9a32cd" stroke="#9a32cd" points="167.27,-155.44 159.26,-162.38 169.85,-161.95 167.27,-155.44"/>
</a>
</g>
<text text-anchor="start" x="263.5" y="-127.5" font-family="Helvetica,sans-Serif" font-size="10.00" fill="grey">name</text>
</g>
<!-- Node5 -->
<g id="Node000005" class="node">
<title>Node5</title>
<g id="a_Node000005"><a xlink:href="structfiftyone_degrees_collection.html" target="_top" xlink:title="All the shared methods and fields required by file, memory and cached collections.">
<polygon fill="white" stroke="#666666" points="143,-97.5 0,-97.5 0,-78.5 143,-78.5 143,-97.5"/>
<text text-anchor="middle" x="71.5" y="-85.5" font-family="Helvetica,sans-Serif" font-size="10.00">fiftyoneDegreesCollection</text>
</a>
</g>
</g>
<!-- Node3&#45;&gt;Node5 -->
<g id="edge6_Node000005_Node000003" class="edge">
<title>Node3&#45;&gt;Node5</title>
<g id="a_edge6_Node000005_Node000003"><a xlink:title=" ">
<path fill="none" stroke="#9a32cd" stroke-dasharray="5,2" d="M90.78,-158.14C81.95,-153.54 73.83,-147.34 68.5,-139 60.45,-126.39 64.57,-108.16 68.14,-97.55"/>
<polygon fill="#9a32cd" stroke="#9a32cd" points="89.59,-161.44 100.14,-162.37 92.47,-155.07 89.59,-161.44"/>
</a>
</g>
<text text-anchor="start" x="72" y="-127.5" font-family="Helvetica,sans-Serif" font-size="10.00" fill="grey">release</text>
</g>
<!-- Node4 -->
<g id="Node000004" class="node">
<title>Node4</title>
<g id="a_Node000004"><a xlink:href="structfiftyone_degrees_data.html" target="_top" xlink:title="Data structure used for reusing memory which may have been allocated in a previous operation.">
<polygon fill="white" stroke="#666666" points="196,-259 79,-259 79,-240 196,-240 196,-259"/>
<text text-anchor="middle" x="137.5" y="-247" font-family="Helvetica,sans-Serif" font-size="10.00">fiftyoneDegreesData</text>
</a>
</g>
</g>
<!-- Node4&#45;&gt;Node3 -->
<g id="edge3_Node000003_Node000004" class="edge">
<title>Node4&#45;&gt;Node3</title>
<g id="a_edge3_Node000003_Node000004"><a xlink:title=" ">
<path fill="none" stroke="#9a32cd" stroke-dasharray="5,2" d="M137.5,-229.4C137.5,-214.01 137.5,-193.11 137.5,-181.56"/>
<polygon fill="#9a32cd" stroke="#9a32cd" points="134,-229.84 137.5,-239.84 141,-229.84 134,-229.84"/>
</a>
</g>
<text text-anchor="start" x="140.5" y="-210.5" font-family="Helvetica,sans-Serif" font-size="10.00" fill="grey">data</text>
</g>
<!-- Node5&#45;&gt;Node3 -->
<g id="edge4_Node000003_Node000005" class="edge">
<title>Node5&#45;&gt;Node3</title>
<g id="a_edge4_Node000003_Node000005"><a xlink:title=" ">
<path fill="none" stroke="#9a32cd" stroke-dasharray="5,2" d="M95.27,-103.46C102.44,-108.65 109.88,-114.97 115.5,-122 125.4,-134.38 131.85,-151.93 135.07,-162.32"/>
<polygon fill="#9a32cd" stroke="#9a32cd" points="96.75,-100.24 86.51,-97.53 92.83,-106.04 96.75,-100.24"/>
</a>
</g>
<text text-anchor="start" x="129.5" y="-127.5" font-family="Helvetica,sans-Serif" font-size="10.00" fill="grey">collection</text>
</g>
<!-- Node5&#45;&gt;Node5 -->
<g id="edge5_Node000005_Node000005" class="edge">
<title>Node5&#45;&gt;Node5</title>
<g id="a_edge5_Node000005_Node000005"><a xlink:title=" ">
<path fill="none" stroke="#9a32cd" stroke-dasharray="5,2" d="M153.11,-93.45C158.04,-92.16 161,-90.34 161,-88 161,-84.35 153.79,-81.97 143.13,-80.86"/>
<polygon fill="#9a32cd" stroke="#9a32cd" points="152.4,-90.02 143.13,-95.14 153.57,-96.92 152.4,-90.02"/>
</a>
</g>
<text text-anchor="start" x="164.5" y="-93" font-family="Helvetica,sans-Serif" font-size="10.00" fill="grey">freeCollection</text>
<text text-anchor="start" x="164.5" y="-78" font-family="Helvetica,sans-Serif" font-size="10.00" fill="grey">get</text>
</g>
<!-- Node6 -->
<g id="Node000006" class="node">
<title>Node6</title>
<g id="a_Node000006"><a xlink:href="structfiftyone_degrees_evidence_property_index_array.html" target="_top" xlink:title="Array of items of type fiftyoneDegreesEvidencePropertyIndex used to easily access and track the size ...">
<polygon fill="white" stroke="#666666" points="434,-187 255,-187 255,-157 434,-157 434,-187"/>
<text text-anchor="start" x="263" y="-175" font-family="Helvetica,sans-Serif" font-size="10.00">fiftyoneDegreesEvidenceProperty</text>
<text text-anchor="middle" x="344.5" y="-164" font-family="Helvetica,sans-Serif" font-size="10.00">IndexArray</text>
</a>
</g>
</g>
<!-- Node6&#45;&gt;Node2 -->
<g id="edge7_Node000002_Node000006" class="edge">
<title>Node6&#45;&gt;Node2</title>
<g id="a_edge7_Node000002_Node000006"><a xlink:title=" ">
<path fill="none" stroke="#9a32cd" stroke-dasharray="5,2" d="M344.5,-146.6C344.5,-130.03 344.5,-109.11 344.5,-97.59"/>
<polygon fill="#9a32cd" stroke="#9a32cd" points="341,-146.72 344.5,-156.72 348,-146.72 341,-146.72"/>
</a>
</g>
<text text-anchor="start" x="347.5" y="-127.5" font-family="Helvetica,sans-Serif" font-size="10.00" fill="grey">evidenceProperties</text>
</g>
</g>
</svg>
