<?xml version="1.0" encoding="UTF-8" standalone="no"?>
<!DOCTYPE svg PUBLIC "-//W3C//DTD SVG 1.1//EN"
 "http://www.w3.org/Graphics/SVG/1.1/DTD/svg11.dtd">
<!-- Generated by graphviz version 2.43.0 (0)
 -->
<!-- Title: fiftyoneDegreesIpiCgArray Pages: 1 -->
<svg width="1134pt" height="277pt"
 viewBox="0.00 0.00 1134.00 276.50" xmlns="http://www.w3.org/2000/svg" xmlns:xlink="http://www.w3.org/1999/xlink">
<g id="graph0" class="graph" transform="scale(1 1) rotate(0) translate(4 272.5)">
<title>fiftyoneDegreesIpiCgArray</title>
<!-- Node1 -->
<g id="Node000001" class="node">
<title>Node1</title>
<g id="a_Node000001"><a xlink:title="An array of all the component graphs and collections available.">
<polygon fill="#999999" stroke="#666666" points="1126,-181 981,-181 981,-162 1126,-162 1126,-181"/>
<text text-anchor="middle" x="1053.5" y="-169" font-family="Helvetica,sans-Serif" font-size="10.00">fiftyoneDegreesIpiCgArray</text>
</a>
</g>
</g>
<!-- Node2 -->
<g id="Node000002" class="node">
<title>Node2</title>
<g id="a_Node000002"><a xlink:href="structfiftyone_degrees_ipi_cg.html" target="_top" xlink:title="The information and a working collection to retrieve entries from the component graph.">
<polygon fill="white" stroke="#666666" points="888,-181 769,-181 769,-162 888,-162 888,-181"/>
<text text-anchor="middle" x="828.5" y="-169" font-family="Helvetica,sans-Serif" font-size="10.00">fiftyoneDegreesIpiCg</text>
</a>
</g>
</g>
<!-- Node2&#45;&gt;Node1 -->
<g id="edge1_Node000001_Node000002" class="edge">
<title>Node2&#45;&gt;Node1</title>
<g id="a_edge1_Node000001_Node000002"><a xlink:title=" ">
<path fill="none" stroke="#9a32cd" stroke-dasharray="5,2" d="M898.3,-171.5C924.47,-171.5 954.34,-171.5 980.77,-171.5"/>
<polygon fill="#9a32cd" stroke="#9a32cd" points="898.09,-168 888.09,-171.5 898.09,-175 898.09,-168"/>
</a>
</g>
<text text-anchor="start" x="932" y="-177" font-family="Helvetica,sans-Serif" font-size="10.00" fill="grey">items</text>
</g>
<!-- Node3 -->
<g id="Node000003" class="node">
<title>Node3</title>
<g id="a_Node000003"><a xlink:href="structfiftyone_degrees_ipi_cg_info.html" target="_top" xlink:title="Fixed width record in the collection where the record relates to a component and IP version.">
<polygon fill="white" stroke="#666666" points="649,-224 512,-224 512,-205 649,-205 649,-224"/>
<text text-anchor="middle" x="580.5" y="-212" font-family="Helvetica,sans-Serif" font-size="10.00">fiftyoneDegreesIpiCgInfo</text>
</a>
</g>
</g>
<!-- Node3&#45;&gt;Node2 -->
<g id="edge2_Node000002_Node000003" class="edge">
<title>Node3&#45;&gt;Node2</title>
<g id="a_edge2_Node000002_Node000003"><a xlink:title=" ">
<path fill="none" stroke="#9a32cd" stroke-dasharray="5,2" d="M659.18,-203.71C681.44,-200.38 705.72,-196.52 728,-192.5 746.76,-189.11 767.4,-184.85 785,-181.05"/>
<polygon fill="#9a32cd" stroke="#9a32cd" points="658.48,-200.27 649.1,-205.2 659.51,-207.2 658.48,-200.27"/>
</a>
</g>
<text text-anchor="start" x="690" y="-207" font-family="Helvetica,sans-Serif" font-size="10.00" fill="grey">info</text>
</g>
<!-- Node4 -->
<g id="Node000004" class="node">
<title>Node4</title>
<g id="a_Node000004"><a xlink:href="structfiftyone_degrees_collection_header.html" target="_top" xlink:title="Collection header structure which defines the size and location of the collection data.">
<polygon fill="white" stroke="#666666" points="151,-232.5 8,-232.5 8,-202.5 151,-202.5 151,-232.5"/>
<text text-anchor="start" x="16" y="-220.5" font-family="Helvetica,sans-Serif" font-size="10.00">fiftyoneDegreesCollection</text>
<text text-anchor="middle" x="79.5" y="-209.5" font-family="Helvetica,sans-Serif" font-size="10.00">Header</text>
</a>
</g>
</g>
<!-- Node4&#45;&gt;Node3 -->
<g id="edge3_Node000003_Node000004" class="edge">
<title>Node4&#45;&gt;Node3</title>
<g id="a_edge3_Node000003_Node000004"><a xlink:title=" ">
<path fill="none" stroke="#9a32cd" stroke-dasharray="5,2" d="M161.34,-219.3C166.64,-219.38 171.89,-219.45 177,-219.5 316.55,-220.95 351.5,-223.44 491,-219.5 497.77,-219.31 504.82,-219.04 511.87,-218.71"/>
<polygon fill="#9a32cd" stroke="#9a32cd" points="161.18,-215.8 151.12,-219.13 161.06,-222.79 161.18,-215.8"/>
</a>
</g>
<text text-anchor="start" x="318.5" y="-257" font-family="Helvetica,sans-Serif" font-size="10.00" fill="grey">clusters</text>
<text text-anchor="start" x="318.5" y="-242" font-family="Helvetica,sans-Serif" font-size="10.00" fill="grey">spanBytes</text>
<text text-anchor="start" x="318.5" y="-227" font-family="Helvetica,sans-Serif" font-size="10.00" fill="grey">spans</text>
</g>
<!-- Node5 -->
<g id="Node000005" class="node">
<title>Node5</title>
<g id="a_Node000005"><a xlink:href="structfiftyone_degrees_ipi_cg_member_node.html" target="_top" xlink:title="Data structure used for the values collection.">
<polygon fill="white" stroke="#666666" points="437,-197 252,-197 252,-178 437,-178 437,-197"/>
<text text-anchor="middle" x="344.5" y="-185" font-family="Helvetica,sans-Serif" font-size="10.00">fiftyoneDegreesIpiCgMemberNode</text>
</a>
</g>
</g>
<!-- Node4&#45;&gt;Node5 -->
<g id="edge5_Node000005_Node000004" class="edge">
<title>Node4&#45;&gt;Node5</title>
<g id="a_edge5_Node000005_Node000004"><a xlink:title=" ">
<path fill="none" stroke="#9a32cd" stroke-dasharray="5,2" d="M161.29,-204.55C166.6,-203.82 171.87,-203.13 177,-202.5 201.2,-199.53 227.44,-196.9 251.79,-194.7"/>
<polygon fill="#9a32cd" stroke="#9a32cd" points="160.46,-201.13 151.05,-206 161.44,-208.06 160.46,-201.13"/>
</a>
</g>
<text text-anchor="start" x="181.5" y="-208" font-family="Helvetica,sans-Serif" font-size="10.00" fill="grey">collection</text>
</g>
<!-- Node5&#45;&gt;Node3 -->
<g id="edge4_Node000003_Node000005" class="edge">
<title>Node5&#45;&gt;Node3</title>
<g id="a_edge4_Node000003_Node000005"><a xlink:title=" ">
<path fill="none" stroke="#9a32cd" stroke-dasharray="5,2" d="M447.25,-197.57C461.94,-199.15 476.86,-200.81 491,-202.5 497.77,-203.31 504.83,-204.19 511.88,-205.1"/>
<polygon fill="#9a32cd" stroke="#9a32cd" points="447.45,-194.07 437.14,-196.5 446.71,-201.03 447.45,-194.07"/>
</a>
</g>
<text text-anchor="start" x="458" y="-208" font-family="Helvetica,sans-Serif" font-size="10.00" fill="grey">nodes</text>
</g>
<!-- Node6 -->
<g id="Node000006" class="node">
<title>Node6</title>
<g id="a_Node000006"><a xlink:href="structfiftyone_degrees_ipi_cg_member.html" target="_top" xlink:title="DATA STRUCTURES.">
<polygon fill="white" stroke="#666666" points="159,-141 0,-141 0,-122 159,-122 159,-141"/>
<text text-anchor="middle" x="79.5" y="-129" font-family="Helvetica,sans-Serif" font-size="10.00">fiftyoneDegreesIpiCgMember</text>
</a>
</g>
</g>
<!-- Node6&#45;&gt;Node5 -->
<g id="edge6_Node000005_Node000006" class="edge">
<title>Node6&#45;&gt;Node5</title>
<g id="a_edge6_Node000005_Node000006"><a xlink:title=" ">
<path fill="none" stroke="#9a32cd" stroke-dasharray="5,2" d="M169.3,-135.42C190.67,-137.51 213.3,-140.68 234,-145.5 266.32,-153.02 301.88,-167.99 323.44,-177.88"/>
<polygon fill="#9a32cd" stroke="#9a32cd" points="169.53,-131.93 159.25,-134.51 168.89,-138.9 169.53,-131.93"/>
</a>
</g>
<text text-anchor="start" x="180.5" y="-181" font-family="Helvetica,sans-Serif" font-size="10.00" fill="grey">lowFlag</text>
<text text-anchor="start" x="180.5" y="-166" font-family="Helvetica,sans-Serif" font-size="10.00" fill="grey">spanIndex</text>
<text text-anchor="start" x="180.5" y="-151" font-family="Helvetica,sans-Serif" font-size="10.00" fill="grey">value</text>
</g>
<!-- Node7 -->
<g id="Node000007" class="node">
<title>Node7</title>
<g id="a_Node000007"><a xlink:href="structfiftyone_degrees_collection.html" target="_top" xlink:title="All the shared methods and fields required by file, memory and cached collections.">
<polygon fill="white" stroke="#666666" points="652,-99 509,-99 509,-80 652,-80 652,-99"/>
<text text-anchor="middle" x="580.5" y="-87" font-family="Helvetica,sans-Serif" font-size="10.00">fiftyoneDegreesCollection</text>
</a>
</g>
</g>
<!-- Node7&#45;&gt;Node2 -->
<g id="edge7_Node000002_Node000007" class="edge">
<title>Node7&#45;&gt;Node2</title>
<g id="a_edge7_Node000002_Node000007"><a xlink:title=" ">
<path fill="none" stroke="#9a32cd" stroke-dasharray="5,2" d="M637.84,-101.26C665.36,-107.63 698.78,-116.29 728,-126.5 757,-136.63 789.14,-151.96 808.83,-161.85"/>
<polygon fill="#9a32cd" stroke="#9a32cd" points="638.51,-97.83 627.98,-99.02 636.95,-104.65 638.51,-97.83"/>
</a>
</g>
<text text-anchor="start" x="673" y="-177.5" font-family="Helvetica,sans-Serif" font-size="10.00" fill="grey">clusters</text>
<text text-anchor="start" x="673" y="-162.5" font-family="Helvetica,sans-Serif" font-size="10.00" fill="grey">nodes</text>
<text text-anchor="start" x="673" y="-147.5" font-family="Helvetica,sans-Serif" font-size="10.00" fill="grey">spanBytes</text>
<text text-anchor="start" x="673" y="-132.5" font-family="Helvetica,sans-Serif" font-size="10.00" fill="grey">spans</text>
</g>
<!-- Node7&#45;&gt;Node7 -->
<g id="edge8_Node000007_Node000007" class="edge">
<title>Node7&#45;&gt;Node7</title>
<g id="a_edge8_Node000007_Node000007"><a xlink:title=" ">
<path fill="none" stroke="#9a32cd" stroke-dasharray="5,2" d="M560.87,-108.55C562.18,-113.38 568.73,-117 580.5,-117 599.34,-117 604.79,-107.73 596.84,-99.08"/>
<polygon fill="#9a32cd" stroke="#9a32cd" points="564.19,-109.68 564.16,-99.08 557.57,-107.38 564.19,-109.68"/>
</a>
</g>
<text text-anchor="start" x="546.5" y="-138" font-family="Helvetica,sans-Serif" font-size="10.00" fill="grey">freeCollection</text>
<text text-anchor="start" x="546.5" y="-123" font-family="Helvetica,sans-Serif" font-size="10.00" fill="grey">get</text>
</g>
<!-- Node8 -->
<g id="Node000008" class="node">
<title>Node8</title>
<g id="a_Node000008"><a xlink:href="structfiftyone_degrees_collection_item.html" target="_top" xlink:title="Used to store a handle to the underlying item that could be used to release the item when it&#39;s finish...">
<polygon fill="white" stroke="#666666" points="911,-59 746,-59 746,-40 911,-40 911,-59"/>
<text text-anchor="middle" x="828.5" y="-47" font-family="Helvetica,sans-Serif" font-size="10.00">fiftyoneDegreesCollectionItem</text>
</a>
</g>
</g>
<!-- Node7&#45;&gt;Node8 -->
<g id="edge11_Node000008_Node000007" class="edge">
<title>Node7&#45;&gt;Node8</title>
<g id="a_edge11_Node000008_Node000007"><a xlink:title=" ">
<path fill="none" stroke="#9a32cd" stroke-dasharray="5,2" d="M658.12,-78.44C680.65,-75.06 705.34,-71.25 728,-67.5 743.76,-64.89 760.89,-61.86 776.42,-59.04"/>
<polygon fill="#9a32cd" stroke="#9a32cd" points="657.31,-75.02 647.93,-79.95 658.34,-81.94 657.31,-75.02"/>
</a>
</g>
<text text-anchor="start" x="675" y="-81" font-family="Helvetica,sans-Serif" font-size="10.00" fill="grey">collection</text>
</g>
<!-- Node8&#45;&gt;Node7 -->
<g id="edge9_Node000007_Node000008" class="edge">
<title>Node8&#45;&gt;Node7</title>
<g id="a_edge9_Node000007_Node000008"><a xlink:title=" ">
<path fill="none" stroke="#9a32cd" stroke-dasharray="5,2" d="M735.67,-43.8C713.95,-44.18 691.01,-46.01 670,-50.5 643.4,-56.19 615.03,-70.3 597.78,-79.89"/>
<polygon fill="#9a32cd" stroke="#9a32cd" points="735.91,-47.3 745.88,-43.72 735.86,-40.3 735.91,-47.3"/>
</a>
</g>
<text text-anchor="start" x="681" y="-56" font-family="Helvetica,sans-Serif" font-size="10.00" fill="grey">release</text>
</g>
<!-- Node9 -->
<g id="Node000009" class="node">
<title>Node9</title>
<g id="a_Node000009"><a xlink:href="structfiftyone_degrees_data.html" target="_top" xlink:title="Data structure used for reusing memory which may have been allocated in a previous operation.">
<polygon fill="white" stroke="#666666" points="639,-19 522,-19 522,0 639,0 639,-19"/>
<text text-anchor="middle" x="580.5" y="-7" font-family="Helvetica,sans-Serif" font-size="10.00">fiftyoneDegreesData</text>
</a>
</g>
</g>
<!-- Node9&#45;&gt;Node8 -->
<g id="edge10_Node000008_Node000009" class="edge">
<title>Node9&#45;&gt;Node8</title>
<g id="a_edge10_Node000008_Node000009"><a xlink:title=" ">
<path fill="none" stroke="#9a32cd" stroke-dasharray="5,2" d="M649.26,-13.7C674.14,-15.84 702.46,-18.97 728,-23.5 751.03,-27.58 776.55,-34.29 795.97,-39.88"/>
<polygon fill="#9a32cd" stroke="#9a32cd" points="649.44,-10.2 639.19,-12.87 648.87,-17.18 649.44,-10.2"/>
</a>
</g>
<text text-anchor="start" x="688" y="-29" font-family="Helvetica,sans-Serif" font-size="10.00" fill="grey">data</text>
</g>
</g>
</svg>
