<?xml version="1.0" encoding="UTF-8" standalone="no"?>
<!DOCTYPE svg PUBLIC "-//W3C//DTD SVG 1.1//EN"
 "http://www.w3.org/Graphics/SVG/1.1/DTD/svg11.dtd">
<!-- Generated by graphviz version 2.43.0 (0)
 -->
<!-- Title: fiftyoneDegreesResourceManager Pages: 1 -->
<svg width="346pt" height="110pt"
 viewBox="0.00 0.00 345.50 110.00" xmlns="http://www.w3.org/2000/svg" xmlns:xlink="http://www.w3.org/1999/xlink">
<g id="graph0" class="graph" transform="scale(1 1) rotate(0) translate(4 106)">
<title>fiftyoneDegreesResourceManager</title>
<!-- Node1 -->
<g id="Node000001" class="node">
<title>Node1</title>
<g id="a_Node000001"><a xlink:title="Manager structure used to provide access to a shared and changing resource.">
<polygon fill="#999999" stroke="#666666" points="182,-96.5 0,-96.5 0,-77.5 182,-77.5 182,-96.5"/>
<text text-anchor="middle" x="91" y="-84.5" font-family="Helvetica,sans-Serif" font-size="10.00">fiftyoneDegreesResourceManager</text>
</a>
</g>
</g>
<!-- Node2 -->
<g id="Node000002" class="node">
<title>Node2</title>
<g id="a_Node000002"><a xlink:href="structfiftyone_degrees_resource_handle.html" target="_top" xlink:title="Handle for a shared resource.">
<polygon fill="white" stroke="#666666" points="250.5,-19 77.5,-19 77.5,0 250.5,0 250.5,-19"/>
<text text-anchor="middle" x="164" y="-7" font-family="Helvetica,sans-Serif" font-size="10.00">fiftyoneDegreesResourceHandle</text>
</a>
</g>
</g>
<!-- Node1&#45;&gt;Node2 -->
<g id="edge3_Node000002_Node000001" class="edge">
<title>Node1&#45;&gt;Node2</title>
<g id="a_edge3_Node000002_Node000001"><a xlink:title=" ">
<path fill="none" stroke="#9a32cd" stroke-dasharray="5,2" d="M84.67,-67.77C82.41,-57.82 81.77,-45.78 88,-37 93.91,-28.68 102.63,-22.96 112.07,-19.02"/>
<polygon fill="#9a32cd" stroke="#9a32cd" points="81.35,-68.87 87.5,-77.5 88.07,-66.92 81.35,-68.87"/>
</a>
</g>
<text text-anchor="start" x="91" y="-42.5" font-family="Helvetica,sans-Serif" font-size="10.00" fill="grey">manager</text>
</g>
<!-- Node2&#45;&gt;Node1 -->
<g id="edge1_Node000001_Node000002" class="edge">
<title>Node2&#45;&gt;Node1</title>
<g id="a_edge1_Node000001_Node000002"><a xlink:title=" ">
<path fill="none" stroke="#9a32cd" stroke-dasharray="5,2" d="M157.45,-28.66C153.8,-37.04 148.65,-46.71 142,-54 132.98,-63.89 120.23,-71.89 109.74,-77.41"/>
<polygon fill="#9a32cd" stroke="#9a32cd" points="160.71,-29.93 161.14,-19.34 154.2,-27.35 160.71,-29.93"/>
</a>
</g>
<text text-anchor="start" x="156.5" y="-42.5" font-family="Helvetica,sans-Serif" font-size="10.00" fill="grey">active</text>
</g>
<!-- Node3 -->
<g id="Node000003" class="node">
<title>Node3</title>
<g id="a_Node000003"><a xlink:href="structfiftyone_degrees_interlock_double_width.html" target="_top" xlink:title="Double width (64 or 128 depending on the architecture) compare and exchange.">
<polygon fill="white" stroke="#666666" points="337.5,-102 200.5,-102 200.5,-72 337.5,-72 337.5,-102"/>
<text text-anchor="start" x="208.5" y="-90" font-family="Helvetica,sans-Serif" font-size="10.00">fiftyoneDegreesInterlock</text>
<text text-anchor="middle" x="269" y="-79" font-family="Helvetica,sans-Serif" font-size="10.00">DoubleWidth</text>
</a>
</g>
</g>
<!-- Node3&#45;&gt;Node2 -->
<g id="edge2_Node000002_Node000003" class="edge">
<title>Node3&#45;&gt;Node2</title>
<g id="a_edge2_Node000002_Node000003"><a xlink:title=" ">
<path fill="none" stroke="#9a32cd" stroke-dasharray="5,2" d="M240.9,-65.8C219.64,-50.51 191.5,-30.28 175.83,-19.01"/>
<polygon fill="#9a32cd" stroke="#9a32cd" points="239.09,-68.8 249.25,-71.8 243.17,-63.12 239.09,-68.8"/>
</a>
</g>
<text text-anchor="start" x="225.5" y="-42.5" font-family="Helvetica,sans-Serif" font-size="10.00" fill="grey">counter</text>
</g>
</g>
</svg>
