<?xml version="1.0" encoding="UTF-8" standalone="no"?>
<!DOCTYPE svg PUBLIC "-//W3C//DTD SVG 1.1//EN"
 "http://www.w3.org/Graphics/SVG/1.1/DTD/svg11.dtd">
<!-- Generated by graphviz version 2.43.0 (0)
 -->
<!-- Title: PropValuesChunkContext Pages: 1 -->
<svg width="657pt" height="256pt"
 viewBox="0.00 0.00 657.00 256.00" xmlns="http://www.w3.org/2000/svg" xmlns:xlink="http://www.w3.org/1999/xlink">
<g id="graph0" class="graph" transform="scale(1 1) rotate(0) translate(4 252)">
<title>PropValuesChunkContext</title>
<!-- Node1 -->
<g id="Node000001" class="node">
<title>Node1</title>
<g id="a_Node000001"><a xlink:title="Context structure for populating a property values chunk.">
<polygon fill="#999999" stroke="#666666" points="523,-19 383,-19 383,0 523,0 523,-19"/>
<text text-anchor="middle" x="453" y="-7" font-family="Helvetica,sans-Serif" font-size="10.00">PropValuesChunkContext</text>
</a>
</g>
</g>
<!-- Node2 -->
<g id="Node000002" class="node">
<title>Node2</title>
<g id="a_Node000002"><a xlink:href="struct_prop_values_chunk.html" target="_top" xlink:title="Structure for a chunk of property values of the same type.">
<polygon fill="white" stroke="#666666" points="482.5,-176 381.5,-176 381.5,-157 482.5,-157 482.5,-176"/>
<text text-anchor="middle" x="432" y="-164" font-family="Helvetica,sans-Serif" font-size="10.00">PropValuesChunk</text>
</a>
</g>
</g>
<!-- Node2&#45;&gt;Node1 -->
<g id="edge1_Node000001_Node000002" class="edge">
<title>Node2&#45;&gt;Node1</title>
<g id="a_edge1_Node000001_Node000002"><a xlink:title=" ">
<path fill="none" stroke="#9a32cd" stroke-dasharray="5,2" d="M434.53,-146.8C439.09,-113.14 448.52,-43.57 451.82,-19.18"/>
<polygon fill="#9a32cd" stroke="#9a32cd" points="431.06,-146.34 433.19,-156.72 438,-147.28 431.06,-146.34"/>
</a>
</g>
<text text-anchor="start" x="448" y="-85" font-family="Helvetica,sans-Serif" font-size="10.00" fill="grey">chunk</text>
</g>
<!-- Node3 -->
<g id="Node000003" class="node">
<title>Node3</title>
<g id="a_Node000003"><a xlink:href="structfiftyone_degrees_data.html" target="_top" xlink:title="Data structure used for reusing memory which may have been allocated in a previous operation.">
<polygon fill="white" stroke="#666666" points="350.5,-248 233.5,-248 233.5,-229 350.5,-229 350.5,-248"/>
<text text-anchor="middle" x="292" y="-236" font-family="Helvetica,sans-Serif" font-size="10.00">fiftyoneDegreesData</text>
</a>
</g>
</g>
<!-- Node3&#45;&gt;Node2 -->
<g id="edge2_Node000002_Node000003" class="edge">
<title>Node3&#45;&gt;Node2</title>
<g id="a_edge2_Node000002_Node000003"><a xlink:title=" ">
<path fill="none" stroke="#9a32cd" stroke-dasharray="5,2" d="M318.44,-224.28C346.67,-210.17 390.58,-188.21 414.69,-176.15"/>
<polygon fill="#9a32cd" stroke="#9a32cd" points="316.55,-221.31 309.17,-228.92 319.68,-227.57 316.55,-221.31"/>
</a>
</g>
<text text-anchor="start" x="382" y="-199.5" font-family="Helvetica,sans-Serif" font-size="10.00" fill="grey">data</text>
</g>
<!-- Node6 -->
<g id="Node000006" class="node">
<title>Node6</title>
<g id="a_Node000006"><a xlink:href="structfiftyone_degrees_collection_item.html" target="_top" xlink:title="Used to store a handle to the underlying item that could be used to release the item when it&#39;s finish...">
<polygon fill="white" stroke="#666666" points="322.5,-176 157.5,-176 157.5,-157 322.5,-157 322.5,-176"/>
<text text-anchor="middle" x="240" y="-164" font-family="Helvetica,sans-Serif" font-size="10.00">fiftyoneDegreesCollectionItem</text>
</a>
</g>
</g>
<!-- Node3&#45;&gt;Node6 -->
<g id="edge6_Node000006_Node000003" class="edge">
<title>Node3&#45;&gt;Node6</title>
<g id="a_edge6_Node000006_Node000003"><a xlink:title=" ">
<path fill="none" stroke="#9a32cd" stroke-dasharray="5,2" d="M279.46,-220.62C269.04,-206.59 254.64,-187.21 246.43,-176.15"/>
<polygon fill="#9a32cd" stroke="#9a32cd" points="276.85,-222.98 285.62,-228.92 282.47,-218.8 276.85,-222.98"/>
</a>
</g>
<text text-anchor="start" x="276" y="-199.5" font-family="Helvetica,sans-Serif" font-size="10.00" fill="grey">data</text>
</g>
<!-- Node4 -->
<g id="Node000004" class="node">
<title>Node4</title>
<g id="a_Node000004"><a xlink:href="struct_prop_values_converter.html" target="_top" xlink:title="Structure defining a converter for property values.">
<polygon fill="white" stroke="#666666" points="491.5,-248 372.5,-248 372.5,-229 491.5,-229 491.5,-248"/>
<text text-anchor="middle" x="432" y="-236" font-family="Helvetica,sans-Serif" font-size="10.00">PropValuesConverter</text>
</a>
</g>
</g>
<!-- Node4&#45;&gt;Node2 -->
<g id="edge3_Node000002_Node000004" class="edge">
<title>Node4&#45;&gt;Node2</title>
<g id="a_edge3_Node000002_Node000004"><a xlink:title=" ">
<path fill="none" stroke="#9a32cd" stroke-dasharray="5,2" d="M432,-218.58C432,-204.76 432,-186.68 432,-176.15"/>
<polygon fill="#9a32cd" stroke="#9a32cd" points="428.5,-218.92 432,-228.92 435.5,-218.92 428.5,-218.92"/>
</a>
</g>
<text text-anchor="start" x="435.5" y="-199.5" font-family="Helvetica,sans-Serif" font-size="10.00" fill="grey">converter</text>
</g>
<!-- Node5 -->
<g id="Node000005" class="node">
<title>Node5</title>
<g id="a_Node000005"><a xlink:href="structfiftyone_degrees_weighted_item.html" target="_top" xlink:title="A weighted collection item.">
<polygon fill="white" stroke="#666666" points="162,-97.5 0,-97.5 0,-78.5 162,-78.5 162,-97.5"/>
<text text-anchor="middle" x="81" y="-85.5" font-family="Helvetica,sans-Serif" font-size="10.00">fiftyoneDegreesWeightedItem</text>
</a>
</g>
</g>
<!-- Node5&#45;&gt;Node1 -->
<g id="edge4_Node000001_Node000005" class="edge">
<title>Node5&#45;&gt;Node1</title>
<g id="a_edge4_Node000001_Node000005"><a xlink:title=" ">
<path fill="none" stroke="#9a32cd" stroke-dasharray="5,2" d="M132.67,-76.37C207.1,-61.07 343.03,-33.12 411.39,-19.06"/>
<polygon fill="#9a32cd" stroke="#9a32cd" points="131.68,-73 122.59,-78.45 133.09,-79.86 131.68,-73"/>
</a>
</g>
<text text-anchor="start" x="326.5" y="-42.5" font-family="Helvetica,sans-Serif" font-size="10.00" fill="grey">valuesItems</text>
</g>
<!-- Node6&#45;&gt;Node5 -->
<g id="edge5_Node000005_Node000006" class="edge">
<title>Node6&#45;&gt;Node5</title>
<g id="a_edge5_Node000005_Node000006"><a xlink:title=" ">
<path fill="none" stroke="#9a32cd" stroke-dasharray="5,2" d="M204.28,-153.43C192.85,-149.23 180.25,-144.25 169,-139 141.78,-126.28 111.66,-108.25 94.66,-97.67"/>
<polygon fill="#9a32cd" stroke="#9a32cd" points="203.37,-156.82 213.96,-156.9 205.73,-150.23 203.37,-156.82"/>
</a>
</g>
<text text-anchor="start" x="172.5" y="-127.5" font-family="Helvetica,sans-Serif" font-size="10.00" fill="grey">item</text>
</g>
<!-- Node7 -->
<g id="Node000007" class="node">
<title>Node7</title>
<g id="a_Node000007"><a xlink:href="structfiftyone_degrees_collection.html" target="_top" xlink:title="All the shared methods and fields required by file, memory and cached collections.">
<polygon fill="white" stroke="#666666" points="323.5,-97.5 180.5,-97.5 180.5,-78.5 323.5,-78.5 323.5,-97.5"/>
<text text-anchor="middle" x="252" y="-85.5" font-family="Helvetica,sans-Serif" font-size="10.00">fiftyoneDegreesCollection</text>
</a>
</g>
</g>
<!-- Node6&#45;&gt;Node7 -->
<g id="edge9_Node000007_Node000006" class="edge">
<title>Node6&#45;&gt;Node7</title>
<g id="a_edge9_Node000007_Node000006"><a xlink:title=" ">
<path fill="none" stroke="#9a32cd" stroke-dasharray="5,2" d="M213.64,-150.82C209.75,-147.46 206.29,-143.52 204,-139 200.59,-132.26 200.48,-128.69 204,-122 209.74,-111.08 220.91,-103.07 231.03,-97.68"/>
<polygon fill="#9a32cd" stroke="#9a32cd" points="211.84,-153.85 221.99,-156.91 215.97,-148.19 211.84,-153.85"/>
</a>
</g>
<text text-anchor="start" x="207.5" y="-127.5" font-family="Helvetica,sans-Serif" font-size="10.00" fill="grey">release</text>
</g>
<!-- Node7&#45;&gt;Node6 -->
<g id="edge7_Node000006_Node000007" class="edge">
<title>Node7&#45;&gt;Node6</title>
<g id="a_edge7_Node000006_Node000007"><a xlink:title=" ">
<path fill="none" stroke="#9a32cd" stroke-dasharray="5,2" d="M253.27,-107.84C253.49,-117.29 253.13,-128.85 251,-139 249.69,-145.24 246.94,-151.87 244.52,-156.93"/>
<polygon fill="#9a32cd" stroke="#9a32cd" points="256.75,-107.43 252.79,-97.6 249.76,-107.75 256.75,-107.43"/>
</a>
</g>
<text text-anchor="start" x="257" y="-127.5" font-family="Helvetica,sans-Serif" font-size="10.00" fill="grey">collection</text>
</g>
<!-- Node7&#45;&gt;Node7 -->
<g id="edge8_Node000007_Node000007" class="edge">
<title>Node7&#45;&gt;Node7</title>
<g id="a_edge8_Node000007_Node000007"><a xlink:title=" ">
<path fill="none" stroke="#9a32cd" stroke-dasharray="5,2" d="M333.61,-93.45C338.54,-92.16 341.5,-90.34 341.5,-88 341.5,-84.35 334.29,-81.97 323.63,-80.86"/>
<polygon fill="#9a32cd" stroke="#9a32cd" points="332.9,-90.02 323.63,-95.14 334.07,-96.92 332.9,-90.02"/>
</a>
</g>
<text text-anchor="start" x="345" y="-93" font-family="Helvetica,sans-Serif" font-size="10.00" fill="grey">freeCollection</text>
<text text-anchor="start" x="345" y="-78" font-family="Helvetica,sans-Serif" font-size="10.00" fill="grey">get</text>
</g>
<!-- Node8 -->
<g id="Node000008" class="node">
<title>Node8</title>
<g id="a_Node000008"><a xlink:href="structfiftyone_degrees_exception.html" target="_top" xlink:title="Structure used to represent a 51Degrees exception and passed into methods that might generate excepti...">
<polygon fill="white" stroke="#666666" points="649,-97.5 507,-97.5 507,-78.5 649,-78.5 649,-97.5"/>
<text text-anchor="middle" x="578" y="-85.5" font-family="Helvetica,sans-Serif" font-size="10.00">fiftyoneDegreesException</text>
</a>
</g>
</g>
<!-- Node8&#45;&gt;Node1 -->
<g id="edge10_Node000001_Node000008" class="edge">
<title>Node8&#45;&gt;Node1</title>
<g id="a_edge10_Node000001_Node000008"><a xlink:title=" ">
<path fill="none" stroke="#9a32cd" stroke-dasharray="5,2" d="M554.94,-72.89C529.26,-57.17 488.55,-32.25 467.17,-19.17"/>
<polygon fill="#9a32cd" stroke="#9a32cd" points="553.3,-75.99 563.66,-78.22 556.96,-70.02 553.3,-75.99"/>
</a>
</g>
<text text-anchor="start" x="525.5" y="-42.5" font-family="Helvetica,sans-Serif" font-size="10.00" fill="grey">exception</text>
</g>
</g>
</svg>
