<?xml version="1.0" encoding="UTF-8" standalone="no"?>
<!DOCTYPE svg PUBLIC "-//W3C//DTD SVG 1.1//EN"
 "http://www.w3.org/Graphics/SVG/1.1/DTD/svg11.dtd">
<!-- Generated by graphviz version 2.43.0 (0)
 -->
<!-- Title: PropValuesChunk Pages: 1 -->
<svg width="262pt" height="99pt"
 viewBox="0.00 0.00 262.00 99.00" xmlns="http://www.w3.org/2000/svg" xmlns:xlink="http://www.w3.org/1999/xlink">
<g id="graph0" class="graph" transform="scale(1 1) rotate(0) translate(4 95)">
<title>PropValuesChunk</title>
<!-- Node1 -->
<g id="Node000001" class="node">
<title>Node1</title>
<g id="a_Node000001"><a xlink:title="Structure for a chunk of property values of the same type.">
<polygon fill="#999999" stroke="#666666" points="177,-19 76,-19 76,0 177,0 177,-19"/>
<text text-anchor="middle" x="126.5" y="-7" font-family="Helvetica,sans-Serif" font-size="10.00">PropValuesChunk</text>
</a>
</g>
</g>
<!-- Node2 -->
<g id="Node000002" class="node">
<title>Node2</title>
<g id="a_Node000002"><a xlink:href="structfiftyone_degrees_data.html" target="_top" xlink:title="Data structure used for reusing memory which may have been allocated in a previous operation.">
<polygon fill="white" stroke="#666666" points="117,-91 0,-91 0,-72 117,-72 117,-91"/>
<text text-anchor="middle" x="58.5" y="-79" font-family="Helvetica,sans-Serif" font-size="10.00">fiftyoneDegreesData</text>
</a>
</g>
</g>
<!-- Node2&#45;&gt;Node1 -->
<g id="edge1_Node000001_Node000002" class="edge">
<title>Node2&#45;&gt;Node1</title>
<g id="a_edge1_Node000001_Node000002"><a xlink:title=" ">
<path fill="none" stroke="#9a32cd" stroke-dasharray="5,2" d="M74.13,-64.41C87.81,-50.33 107.15,-30.42 118.09,-19.15"/>
<polygon fill="#9a32cd" stroke="#9a32cd" points="71.3,-62.31 66.84,-71.92 76.32,-67.18 71.3,-62.31"/>
</a>
</g>
<text text-anchor="start" x="104.5" y="-42.5" font-family="Helvetica,sans-Serif" font-size="10.00" fill="grey">data</text>
</g>
<!-- Node3 -->
<g id="Node000003" class="node">
<title>Node3</title>
<g id="a_Node000003"><a xlink:href="struct_prop_values_converter.html" target="_top" xlink:title="Structure defining a converter for property values.">
<polygon fill="white" stroke="#666666" points="254,-91 135,-91 135,-72 254,-72 254,-91"/>
<text text-anchor="middle" x="194.5" y="-79" font-family="Helvetica,sans-Serif" font-size="10.00">PropValuesConverter</text>
</a>
</g>
</g>
<!-- Node3&#45;&gt;Node1 -->
<g id="edge2_Node000001_Node000003" class="edge">
<title>Node3&#45;&gt;Node1</title>
<g id="a_edge2_Node000001_Node000003"><a xlink:title=" ">
<path fill="none" stroke="#9a32cd" stroke-dasharray="5,2" d="M178.87,-64.41C165.19,-50.33 145.85,-30.42 134.91,-19.15"/>
<polygon fill="#9a32cd" stroke="#9a32cd" points="176.68,-67.18 186.16,-71.92 181.7,-62.31 176.68,-67.18"/>
</a>
</g>
<text text-anchor="start" x="172" y="-42.5" font-family="Helvetica,sans-Serif" font-size="10.00" fill="grey">converter</text>
</g>
</g>
</svg>
