<?xml version="1.0" encoding="UTF-8" standalone="no"?>
<!DOCTYPE svg PUBLIC "-//W3C//DTD SVG 1.1//EN"
 "http://www.w3.org/Graphics/SVG/1.1/DTD/svg11.dtd">
<!-- Generated by graphviz version 2.43.0 (0)
 -->
<!-- Title: fiftyoneDegreesResultIpi Pages: 1 -->
<svg width="318pt" height="99pt"
 viewBox="0.00 0.00 317.50 99.00" xmlns="http://www.w3.org/2000/svg" xmlns:xlink="http://www.w3.org/1999/xlink">
<g id="graph0" class="graph" transform="scale(1 1) rotate(0) translate(4 95)">
<title>fiftyoneDegreesResultIpi</title>
<!-- Node1 -->
<g id="Node000001" class="node">
<title>Node1</title>
<g id="a_Node000001"><a xlink:title="Singular IP address result returned by a detection process method.">
<polygon fill="#999999" stroke="#666666" points="225,-19 88,-19 88,0 225,0 225,-19"/>
<text text-anchor="middle" x="156.5" y="-7" font-family="Helvetica,sans-Serif" font-size="10.00">fiftyoneDegreesResultIpi</text>
</a>
</g>
</g>
<!-- Node2 -->
<g id="Node000002" class="node">
<title>Node2</title>
<g id="a_Node000002"><a xlink:href="structfiftyone_degrees_ipi_cg_result.html" target="_top" xlink:title="The evaluation result from graph collection.">
<polygon fill="white" stroke="#666666" points="149,-91 0,-91 0,-72 149,-72 149,-91"/>
<text text-anchor="middle" x="74.5" y="-79" font-family="Helvetica,sans-Serif" font-size="10.00">fiftyoneDegreesIpiCgResult</text>
</a>
</g>
</g>
<!-- Node2&#45;&gt;Node1 -->
<g id="edge1_Node000001_Node000002" class="edge">
<title>Node2&#45;&gt;Node1</title>
<g id="a_edge1_Node000001_Node000002"><a xlink:title=" ">
<path fill="none" stroke="#9a32cd" stroke-dasharray="5,2" d="M92.43,-65.19C108.96,-51.08 132.92,-30.63 146.36,-19.15"/>
<polygon fill="#9a32cd" stroke="#9a32cd" points="89.89,-62.76 84.55,-71.92 94.43,-68.09 89.89,-62.76"/>
</a>
</g>
<text text-anchor="start" x="129" y="-42.5" font-family="Helvetica,sans-Serif" font-size="10.00" fill="grey">graphResult</text>
</g>
<!-- Node3 -->
<g id="Node000003" class="node">
<title>Node3</title>
<g id="a_Node000003"><a xlink:href="structfiftyone_degrees_ip_address.html" target="_top" xlink:title="The structure to hold a IP Address in byte array format.">
<polygon fill="white" stroke="#666666" points="309.5,-91 167.5,-91 167.5,-72 309.5,-72 309.5,-91"/>
<text text-anchor="middle" x="238.5" y="-79" font-family="Helvetica,sans-Serif" font-size="10.00">fiftyoneDegreesIpAddress</text>
</a>
</g>
</g>
<!-- Node3&#45;&gt;Node1 -->
<g id="edge2_Node000001_Node000003" class="edge">
<title>Node3&#45;&gt;Node1</title>
<g id="a_edge2_Node000001_Node000003"><a xlink:title=" ">
<path fill="none" stroke="#9a32cd" stroke-dasharray="5,2" d="M223.39,-64.27C215.17,-55.79 204.63,-45.44 194.5,-37 186.71,-30.52 177.38,-23.99 169.92,-19.04"/>
<polygon fill="#9a32cd" stroke="#9a32cd" points="221.04,-66.88 230.47,-71.72 226.11,-62.06 221.04,-66.88"/>
</a>
</g>
<text text-anchor="start" x="214.5" y="-42.5" font-family="Helvetica,sans-Serif" font-size="10.00" fill="grey">targetIpAddress</text>
</g>
</g>
</svg>
