<?xml version="1.0" encoding="UTF-8" standalone="no"?>
<!DOCTYPE svg PUBLIC "-//W3C//DTD SVG 1.1//EN"
 "http://www.w3.org/Graphics/SVG/1.1/DTD/svg11.dtd">
<!-- Generated by graphviz version 2.43.0 (0)
 -->
<!-- Title: fiftyoneDegreesWeightedItem Pages: 1 -->
<svg width="422pt" height="164pt"
 viewBox="0.00 0.00 421.50 164.00" xmlns="http://www.w3.org/2000/svg" xmlns:xlink="http://www.w3.org/1999/xlink">
<g id="graph0" class="graph" transform="scale(1 1) rotate(0) translate(4 160)">
<title>fiftyoneDegreesWeightedItem</title>
<!-- Node1 -->
<g id="node1" class="node">
<title>Node1</title>
<g id="a_node1"><a xlink:title="A weighted collection item.">
<polygon fill="#bfbfbf" stroke="black" points="0,-1.5 0,-20.5 162,-20.5 162,-1.5 0,-1.5"/>
<text text-anchor="middle" x="81" y="-8.5" font-family="Helvetica,sans-Serif" font-size="10.00">fiftyoneDegreesWeightedItem</text>
</a>
</g>
</g>
<!-- Node2 -->
<g id="node2" class="node">
<title>Node2</title>
<g id="a_node2"><a xlink:href="structfiftyone_degrees_collection_item.html" target="_top" xlink:title="Used to store a handle to the underlying item that could be used to release the item when it&#39;s finish...">
<polygon fill="none" stroke="black" points="106.5,-69.5 106.5,-88.5 271.5,-88.5 271.5,-69.5 106.5,-69.5"/>
<text text-anchor="middle" x="189" y="-76.5" font-family="Helvetica,sans-Serif" font-size="10.00">fiftyoneDegreesCollectionItem</text>
</a>
</g>
</g>
<!-- Node2&#45;&gt;Node1 -->
<g id="edge1" class="edge">
<title>Node2&#45;&gt;Node1</title>
<path fill="none" stroke="#9a32cd" stroke-dasharray="5,2" d="M166.07,-63.99C144.59,-50.86 113.15,-31.65 95.12,-20.63"/>
<polygon fill="#9a32cd" stroke="#9a32cd" points="164.52,-67.14 174.88,-69.37 168.17,-61.17 164.52,-67.14"/>
<text text-anchor="middle" x="158" y="-43" font-family="Helvetica,sans-Serif" font-size="10.00"> item</text>
</g>
<!-- Node3 -->
<g id="node3" class="node">
<title>Node3</title>
<g id="a_node3"><a xlink:href="structfiftyone_degrees_collection.html" target="_top" xlink:title="All the shared methods and fields required by file, memory and cached collections.">
<polygon fill="none" stroke="black" points="180.5,-1.5 180.5,-20.5 323.5,-20.5 323.5,-1.5 180.5,-1.5"/>
<text text-anchor="middle" x="252" y="-8.5" font-family="Helvetica,sans-Serif" font-size="10.00">fiftyoneDegreesCollection</text>
</a>
</g>
</g>
<!-- Node2&#45;&gt;Node3 -->
<g id="edge3" class="edge">
<title>Node2&#45;&gt;Node3</title>
<path fill="none" stroke="#9a32cd" stroke-dasharray="5,2" d="M182.98,-59.25C182,-52.69 182.3,-45.59 186,-40 192.05,-30.87 201.73,-24.7 211.85,-20.55"/>
<polygon fill="#9a32cd" stroke="#9a32cd" points="179.69,-60.52 185.48,-69.39 186.49,-58.84 179.69,-60.52"/>
<text text-anchor="middle" x="206" y="-43" font-family="Helvetica,sans-Serif" font-size="10.00"> release</text>
</g>
<!-- Node3&#45;&gt;Node2 -->
<g id="edge2" class="edge">
<title>Node3&#45;&gt;Node2</title>
<path fill="none" stroke="#9a32cd" stroke-dasharray="5,2" d="M244.14,-29.98C240.5,-37.04 235.7,-44.89 230,-51 223.14,-58.35 213.89,-64.66 205.91,-69.33"/>
<polygon fill="#9a32cd" stroke="#9a32cd" points="247.51,-31.04 248.62,-20.5 241.18,-28.05 247.51,-31.04"/>
<text text-anchor="middle" x="264.5" y="-43" font-family="Helvetica,sans-Serif" font-size="10.00"> collection</text>
</g>
<!-- Node3&#45;&gt;Node3 -->
<g id="edge4" class="edge">
<title>Node3&#45;&gt;Node3</title>
<path fill="none" stroke="#9a32cd" stroke-dasharray="5,2" d="M333.61,-15.41C338.54,-14.36 341.5,-12.89 341.5,-11 341.5,-8.04 334.29,-6.12 323.63,-5.22"/>
<polygon fill="#9a32cd" stroke="#9a32cd" points="333.06,-11.96 323.63,-16.78 334.01,-18.89 333.06,-11.96"/>
<text text-anchor="middle" x="377.5" y="-14" font-family="Helvetica,sans-Serif" font-size="10.00"> freeCollection</text>
<text text-anchor="middle" x="377.5" y="-3" font-family="Helvetica,sans-Serif" font-size="10.00">get</text>
</g>
<!-- Node4 -->
<g id="node4" class="node">
<title>Node4</title>
<g id="a_node4"><a xlink:href="structfiftyone_degrees_data.html" target="_top" xlink:title="Data structure used for reusing memory which may have been allocated in a previous operation.">
<polygon fill="none" stroke="black" points="130.5,-136.5 130.5,-155.5 247.5,-155.5 247.5,-136.5 130.5,-136.5"/>
<text text-anchor="middle" x="189" y="-143.5" font-family="Helvetica,sans-Serif" font-size="10.00">fiftyoneDegreesData</text>
</a>
</g>
</g>
<!-- Node4&#45;&gt;Node2 -->
<g id="edge5" class="edge">
<title>Node4&#45;&gt;Node2</title>
<path fill="none" stroke="#9a32cd" stroke-dasharray="5,2" d="M189,-126.04C189,-113.67 189,-98.12 189,-88.63"/>
<polygon fill="#9a32cd" stroke="#9a32cd" points="185.5,-126.23 189,-136.23 192.5,-126.23 185.5,-126.23"/>
<text text-anchor="middle" x="201.5" y="-110" font-family="Helvetica,sans-Serif" font-size="10.00"> data</text>
</g>
</g>
</svg>
