<?xml version="1.0" encoding="UTF-8" standalone="no"?>
<!DOCTYPE svg PUBLIC "-//W3C//DTD SVG 1.1//EN"
 "http://www.w3.org/Graphics/SVG/1.1/DTD/svg11.dtd">
<!-- Generated by graphviz version 2.43.0 (0)
 -->
<!-- Title: variableSizeCollectionState Pages: 1 -->
<svg width="424pt" height="112pt"
 viewBox="0.00 0.00 424.00 112.00" xmlns="http://www.w3.org/2000/svg" xmlns:xlink="http://www.w3.org/1999/xlink">
<g id="graph0" class="graph" transform="scale(1 1) rotate(0) translate(4 108)">
<title>variableSizeCollectionState</title>
<!-- Node1 -->
<g id="Node000001" class="node">
<title>Node1</title>
<g id="a_Node000001"><a xlink:title=" ">
<polygon fill="#999999" stroke="#666666" points="151,-19 0,-19 0,0 151,0 151,-19"/>
<text text-anchor="middle" x="75.5" y="-7" font-family="Helvetica,sans-Serif" font-size="10.00">variableSizeCollectionState</text>
</a>
</g>
</g>
<!-- Node2 -->
<g id="Node000002" class="node">
<title>Node2</title>
<g id="a_Node000002"><a xlink:href="structfiftyone_degrees_collection.html" target="_top" xlink:title="All the shared methods and fields required by file, memory and cached collections.">
<polygon fill="white" stroke="#666666" points="188,-97.5 45,-97.5 45,-78.5 188,-78.5 188,-97.5"/>
<text text-anchor="middle" x="116.5" y="-85.5" font-family="Helvetica,sans-Serif" font-size="10.00">fiftyoneDegreesCollection</text>
</a>
</g>
</g>
<!-- Node2&#45;&gt;Node1 -->
<g id="edge1_Node000001_Node000002" class="edge">
<title>Node2&#45;&gt;Node1</title>
<g id="a_edge1_Node000001_Node000002"><a xlink:title=" ">
<path fill="none" stroke="#9a32cd" stroke-dasharray="5,2" d="M95.79,-71.8C90.3,-66.75 84.94,-60.68 81.5,-54 75.77,-42.89 74.92,-28.16 75.05,-19.01"/>
<polygon fill="#9a32cd" stroke="#9a32cd" points="93.81,-74.71 103.72,-78.44 98.3,-69.34 93.81,-74.71"/>
</a>
</g>
<text text-anchor="start" x="84.5" y="-42.5" font-family="Helvetica,sans-Serif" font-size="10.00" fill="grey">collection</text>
</g>
<!-- Node2&#45;&gt;Node2 -->
<g id="edge2_Node000002_Node000002" class="edge">
<title>Node2&#45;&gt;Node2</title>
<g id="a_edge2_Node000002_Node000002"><a xlink:title=" ">
<path fill="none" stroke="#9a32cd" stroke-dasharray="5,2" d="M198.11,-93.45C203.04,-92.16 206,-90.34 206,-88 206,-84.35 198.79,-81.97 188.13,-80.86"/>
<polygon fill="#9a32cd" stroke="#9a32cd" points="197.4,-90.02 188.13,-95.14 198.57,-96.92 197.4,-90.02"/>
</a>
</g>
<text text-anchor="start" x="209.5" y="-93" font-family="Helvetica,sans-Serif" font-size="10.00" fill="grey">freeCollection</text>
<text text-anchor="start" x="209.5" y="-78" font-family="Helvetica,sans-Serif" font-size="10.00" fill="grey">get</text>
</g>
<!-- Node3 -->
<g id="Node000003" class="node">
<title>Node3</title>
<g id="a_Node000003"><a xlink:href="structfiftyone_degrees_collection_item.html" target="_top" xlink:title="Used to store a handle to the underlying item that could be used to release the item when it&#39;s finish...">
<polygon fill="white" stroke="#666666" points="334,-19 169,-19 169,0 334,0 334,-19"/>
<text text-anchor="middle" x="251.5" y="-7" font-family="Helvetica,sans-Serif" font-size="10.00">fiftyoneDegreesCollectionItem</text>
</a>
</g>
</g>
<!-- Node2&#45;&gt;Node3 -->
<g id="edge5_Node000003_Node000002" class="edge">
<title>Node2&#45;&gt;Node3</title>
<g id="a_edge5_Node000003_Node000002"><a xlink:title=" ">
<path fill="none" stroke="#9a32cd" stroke-dasharray="5,2" d="M126.89,-69.51C134.18,-58.66 144.86,-45.27 157.5,-37 170.13,-28.74 185.34,-23.02 199.81,-19.07"/>
<polygon fill="#9a32cd" stroke="#9a32cd" points="123.79,-67.87 121.39,-78.19 129.7,-71.61 123.79,-67.87"/>
</a>
</g>
<text text-anchor="start" x="160.5" y="-42.5" font-family="Helvetica,sans-Serif" font-size="10.00" fill="grey">collection</text>
</g>
<!-- Node3&#45;&gt;Node2 -->
<g id="edge3_Node000002_Node000003" class="edge">
<title>Node3&#45;&gt;Node2</title>
<g id="a_edge3_Node000002_Node000003"><a xlink:title=" ">
<path fill="none" stroke="#9a32cd" stroke-dasharray="5,2" d="M240.76,-27.64C234.39,-36.59 225.58,-47.09 215.5,-54 198.61,-65.57 177.34,-73.36 158.85,-78.44"/>
<polygon fill="#9a32cd" stroke="#9a32cd" points="243.83,-29.35 246.48,-19.09 238.01,-25.46 243.83,-29.35"/>
</a>
</g>
<text text-anchor="start" x="236" y="-42.5" font-family="Helvetica,sans-Serif" font-size="10.00" fill="grey">release</text>
</g>
<!-- Node4 -->
<g id="Node000004" class="node">
<title>Node4</title>
<g id="a_Node000004"><a xlink:href="structfiftyone_degrees_data.html" target="_top" xlink:title="Data structure used for reusing memory which may have been allocated in a previous operation.">
<polygon fill="white" stroke="#666666" points="416,-97.5 299,-97.5 299,-78.5 416,-78.5 416,-97.5"/>
<text text-anchor="middle" x="357.5" y="-85.5" font-family="Helvetica,sans-Serif" font-size="10.00">fiftyoneDegreesData</text>
</a>
</g>
</g>
<!-- Node4&#45;&gt;Node3 -->
<g id="edge4_Node000003_Node000004" class="edge">
<title>Node4&#45;&gt;Node3</title>
<g id="a_edge4_Node000003_Node000004"><a xlink:title=" ">
<path fill="none" stroke="#9a32cd" stroke-dasharray="5,2" d="M338.25,-71.91C325.21,-61.81 307.51,-48.35 291.5,-37 282.8,-30.83 272.8,-24.21 264.98,-19.12"/>
<polygon fill="#9a32cd" stroke="#9a32cd" points="336.41,-74.91 346.45,-78.29 340.71,-69.39 336.41,-74.91"/>
</a>
</g>
<text text-anchor="start" x="316.5" y="-42.5" font-family="Helvetica,sans-Serif" font-size="10.00" fill="grey">data</text>
</g>
</g>
</svg>
