<?xml version="1.0" encoding="UTF-8" standalone="no"?>
<!DOCTYPE svg PUBLIC "-//W3C//DTD SVG 1.1//EN"
 "http://www.w3.org/Graphics/SVG/1.1/DTD/svg11.dtd">
<!-- Generated by graphviz version 2.43.0 (0)
 -->
<!-- Title: addState Pages: 1 -->
<svg width="606pt" height="435pt"
 viewBox="0.00 0.00 606.00 435.00" xmlns="http://www.w3.org/2000/svg" xmlns:xlink="http://www.w3.org/1999/xlink">
<g id="graph0" class="graph" transform="scale(1 1) rotate(0) translate(4 431)">
<title>addState</title>
<!-- Node1 -->
<g id="Node000001" class="node">
<title>Node1</title>
<g id="a_Node000001"><a xlink:title=" ">
<polygon fill="#999999" stroke="#666666" points="461.5,-19 401.5,-19 401.5,0 461.5,0 461.5,-19"/>
<text text-anchor="middle" x="431.5" y="-7" font-family="Helvetica,sans-Serif" font-size="10.00">addState</text>
</a>
</g>
</g>
<!-- Node2 -->
<g id="Node000002" class="node">
<title>Node2</title>
<g id="a_Node000002"><a xlink:href="structfiftyone_degrees_override_property_array.html" target="_top" xlink:title="Array of items of type fiftyoneDegreesOverrideProperty used to easily access and track the size of th...">
<polygon fill="white" stroke="#666666" points="458,-102 281,-102 281,-72 458,-72 458,-102"/>
<text text-anchor="start" x="289" y="-90" font-family="Helvetica,sans-Serif" font-size="10.00">fiftyoneDegreesOverrideProperty</text>
<text text-anchor="middle" x="369.5" y="-79" font-family="Helvetica,sans-Serif" font-size="10.00">Array</text>
</a>
</g>
</g>
<!-- Node2&#45;&gt;Node1 -->
<g id="edge1_Node000001_Node000002" class="edge">
<title>Node2&#45;&gt;Node1</title>
<g id="a_edge1_Node000001_Node000002"><a xlink:title=" ">
<path fill="none" stroke="#9a32cd" stroke-dasharray="5,2" d="M387.62,-63.94C399.96,-48.9 415.63,-29.82 424.51,-19.01"/>
<polygon fill="#9a32cd" stroke="#9a32cd" points="384.8,-61.85 381.16,-71.8 390.21,-66.29 384.8,-61.85"/>
</a>
</g>
<text text-anchor="start" x="412.5" y="-42.5" font-family="Helvetica,sans-Serif" font-size="10.00" fill="grey">properties</text>
</g>
<!-- Node3 -->
<g id="Node000003" class="node">
<title>Node3</title>
<g id="a_Node000003"><a xlink:href="structfiftyone_degrees_override_property.html" target="_top" xlink:title="Index and pointer to a property which can be overridden.">
<polygon fill="white" stroke="#666666" points="441,-174 264,-174 264,-155 441,-155 441,-174"/>
<text text-anchor="middle" x="352.5" y="-162" font-family="Helvetica,sans-Serif" font-size="10.00">fiftyoneDegreesOverrideProperty</text>
</a>
</g>
</g>
<!-- Node3&#45;&gt;Node2 -->
<g id="edge2_Node000002_Node000003" class="edge">
<title>Node3&#45;&gt;Node2</title>
<g id="a_edge2_Node000002_Node000003"><a xlink:title=" ">
<path fill="none" stroke="#9a32cd" stroke-dasharray="5,2" d="M356.67,-144.97C359.64,-131.78 363.58,-114.31 366.3,-102.21"/>
<polygon fill="#9a32cd" stroke="#9a32cd" points="353.23,-144.31 354.45,-154.84 360.06,-145.85 353.23,-144.31"/>
</a>
</g>
<text text-anchor="start" x="364.5" y="-125.5" font-family="Helvetica,sans-Serif" font-size="10.00" fill="grey">items</text>
</g>
<!-- Node4 -->
<g id="Node000004" class="node">
<title>Node4</title>
<g id="a_Node000004"><a xlink:href="structfiftyone_degrees_property_available.html" target="_top" xlink:title="Used to access the property item quickly without the need to search.">
<polygon fill="white" stroke="#666666" points="434.5,-265.5 254.5,-265.5 254.5,-246.5 434.5,-246.5 434.5,-265.5"/>
<text text-anchor="middle" x="344.5" y="-253.5" font-family="Helvetica,sans-Serif" font-size="10.00">fiftyoneDegreesPropertyAvailable</text>
</a>
</g>
</g>
<!-- Node4&#45;&gt;Node3 -->
<g id="edge3_Node000003_Node000004" class="edge">
<title>Node4&#45;&gt;Node3</title>
<g id="a_edge3_Node000003_Node000004"><a xlink:title=" ">
<path fill="none" stroke="#9a32cd" stroke-dasharray="5,2" d="M346.18,-236.24C347.88,-217.17 350.45,-188.46 351.72,-174.19"/>
<polygon fill="#9a32cd" stroke="#9a32cd" points="342.67,-236.15 345.27,-246.42 349.64,-236.77 342.67,-236.15"/>
</a>
</g>
<text text-anchor="start" x="352.5" y="-204" font-family="Helvetica,sans-Serif" font-size="10.00" fill="grey">available</text>
</g>
<!-- Node5 -->
<g id="Node000005" class="node">
<title>Node5</title>
<g id="a_Node000005"><a xlink:href="structfiftyone_degrees_collection_item.html" target="_top" xlink:title="Used to store a handle to the underlying item that could be used to release the item when it&#39;s finish...">
<polygon fill="white" stroke="#666666" points="220,-349.5 55,-349.5 55,-330.5 220,-330.5 220,-349.5"/>
<text text-anchor="middle" x="137.5" y="-337.5" font-family="Helvetica,sans-Serif" font-size="10.00">fiftyoneDegreesCollectionItem</text>
</a>
</g>
</g>
<!-- Node5&#45;&gt;Node4 -->
<g id="edge4_Node000004_Node000005" class="edge">
<title>Node5&#45;&gt;Node4</title>
<g id="a_edge4_Node000004_Node000005"><a xlink:title=" ">
<path fill="none" stroke="#9a32cd" stroke-dasharray="5,2" d="M168.56,-326.69C211.07,-309.86 286.25,-280.07 323.03,-265.5"/>
<polygon fill="#9a32cd" stroke="#9a32cd" points="167.27,-323.44 159.26,-330.38 169.85,-329.95 167.27,-323.44"/>
</a>
</g>
<text text-anchor="start" x="263.5" y="-295.5" font-family="Helvetica,sans-Serif" font-size="10.00" fill="grey">name</text>
</g>
<!-- Node7 -->
<g id="Node000007" class="node">
<title>Node7</title>
<g id="a_Node000007"><a xlink:href="structfiftyone_degrees_collection.html" target="_top" xlink:title="All the shared methods and fields required by file, memory and cached collections.">
<polygon fill="white" stroke="#666666" points="143,-265.5 0,-265.5 0,-246.5 143,-246.5 143,-265.5"/>
<text text-anchor="middle" x="71.5" y="-253.5" font-family="Helvetica,sans-Serif" font-size="10.00">fiftyoneDegreesCollection</text>
</a>
</g>
</g>
<!-- Node5&#45;&gt;Node7 -->
<g id="edge8_Node000007_Node000005" class="edge">
<title>Node5&#45;&gt;Node7</title>
<g id="a_edge8_Node000007_Node000005"><a xlink:title=" ">
<path fill="none" stroke="#9a32cd" stroke-dasharray="5,2" d="M90.78,-326.14C81.95,-321.54 73.83,-315.34 68.5,-307 60.45,-294.39 64.57,-276.16 68.14,-265.55"/>
<polygon fill="#9a32cd" stroke="#9a32cd" points="89.59,-329.44 100.14,-330.37 92.47,-323.07 89.59,-329.44"/>
</a>
</g>
<text text-anchor="start" x="72" y="-295.5" font-family="Helvetica,sans-Serif" font-size="10.00" fill="grey">release</text>
</g>
<!-- Node6 -->
<g id="Node000006" class="node">
<title>Node6</title>
<g id="a_Node000006"><a xlink:href="structfiftyone_degrees_data.html" target="_top" xlink:title="Data structure used for reusing memory which may have been allocated in a previous operation.">
<polygon fill="white" stroke="#666666" points="385,-427 268,-427 268,-408 385,-408 385,-427"/>
<text text-anchor="middle" x="326.5" y="-415" font-family="Helvetica,sans-Serif" font-size="10.00">fiftyoneDegreesData</text>
</a>
</g>
</g>
<!-- Node6&#45;&gt;Node5 -->
<g id="edge5_Node000005_Node000006" class="edge">
<title>Node6&#45;&gt;Node5</title>
<g id="a_edge5_Node000005_Node000006"><a xlink:title=" ">
<path fill="none" stroke="#9a32cd" stroke-dasharray="5,2" d="M295.55,-404.13C257.09,-388.77 192.48,-362.96 159.03,-349.6"/>
<polygon fill="#9a32cd" stroke="#9a32cd" points="294.6,-407.53 305.19,-407.99 297.2,-401.03 294.6,-407.53"/>
</a>
</g>
<text text-anchor="start" x="263.5" y="-378.5" font-family="Helvetica,sans-Serif" font-size="10.00" fill="grey">data</text>
</g>
<!-- Node10 -->
<g id="Node000010" class="node">
<title>Node10</title>
<g id="a_Node000010"><a xlink:href="structfiftyone_degrees_override_value.html" target="_top" xlink:title="String value which should override the value for the property indicated by the required property inde...">
<polygon fill="white" stroke="#666666" points="598,-349.5 435,-349.5 435,-330.5 598,-330.5 598,-349.5"/>
<text text-anchor="middle" x="516.5" y="-337.5" font-family="Helvetica,sans-Serif" font-size="10.00">fiftyoneDegreesOverrideValue</text>
</a>
</g>
</g>
<!-- Node6&#45;&gt;Node10 -->
<g id="edge12_Node000010_Node000006" class="edge">
<title>Node6&#45;&gt;Node10</title>
<g id="a_edge12_Node000010_Node000006"><a xlink:title=" ">
<path fill="none" stroke="#9a32cd" stroke-dasharray="5,2" d="M357.62,-404.13C396.28,-388.77 461.23,-362.96 494.86,-349.6"/>
<polygon fill="#9a32cd" stroke="#9a32cd" points="355.93,-401.04 347.93,-407.99 358.51,-407.55 355.93,-401.04"/>
</a>
</g>
<text text-anchor="start" x="435.5" y="-378.5" font-family="Helvetica,sans-Serif" font-size="10.00" fill="grey">string</text>
</g>
<!-- Node7&#45;&gt;Node5 -->
<g id="edge6_Node000005_Node000007" class="edge">
<title>Node7&#45;&gt;Node5</title>
<g id="a_edge6_Node000005_Node000007"><a xlink:title=" ">
<path fill="none" stroke="#9a32cd" stroke-dasharray="5,2" d="M95.27,-271.46C102.44,-276.65 109.88,-282.97 115.5,-290 125.4,-302.38 131.85,-319.93 135.07,-330.32"/>
<polygon fill="#9a32cd" stroke="#9a32cd" points="96.75,-268.24 86.51,-265.53 92.83,-274.04 96.75,-268.24"/>
</a>
</g>
<text text-anchor="start" x="129.5" y="-295.5" font-family="Helvetica,sans-Serif" font-size="10.00" fill="grey">collection</text>
</g>
<!-- Node7&#45;&gt;Node7 -->
<g id="edge7_Node000007_Node000007" class="edge">
<title>Node7&#45;&gt;Node7</title>
<g id="a_edge7_Node000007_Node000007"><a xlink:title=" ">
<path fill="none" stroke="#9a32cd" stroke-dasharray="5,2" d="M153.11,-261.45C158.04,-260.16 161,-258.34 161,-256 161,-252.35 153.79,-249.97 143.13,-248.86"/>
<polygon fill="#9a32cd" stroke="#9a32cd" points="152.4,-258.02 143.13,-263.14 153.57,-264.92 152.4,-258.02"/>
</a>
</g>
<text text-anchor="start" x="164.5" y="-261" font-family="Helvetica,sans-Serif" font-size="10.00" fill="grey">freeCollection</text>
<text text-anchor="start" x="164.5" y="-246" font-family="Helvetica,sans-Serif" font-size="10.00" fill="grey">get</text>
</g>
<!-- Node8 -->
<g id="Node000008" class="node">
<title>Node8</title>
<g id="a_Node000008"><a xlink:href="structfiftyone_degrees_evidence_property_index_array.html" target="_top" xlink:title="Array of items of type fiftyoneDegreesEvidencePropertyIndex used to easily access and track the size ...">
<polygon fill="white" stroke="#666666" points="417,-355 238,-355 238,-325 417,-325 417,-355"/>
<text text-anchor="start" x="246" y="-343" font-family="Helvetica,sans-Serif" font-size="10.00">fiftyoneDegreesEvidenceProperty</text>
<text text-anchor="middle" x="327.5" y="-332" font-family="Helvetica,sans-Serif" font-size="10.00">IndexArray</text>
</a>
</g>
</g>
<!-- Node8&#45;&gt;Node4 -->
<g id="edge9_Node000004_Node000008" class="edge">
<title>Node8&#45;&gt;Node4</title>
<g id="a_edge9_Node000004_Node000008"><a xlink:title=" ">
<path fill="none" stroke="#9a32cd" stroke-dasharray="5,2" d="M332.56,-314.6C335.99,-298.03 340.33,-277.11 342.72,-265.59"/>
<polygon fill="#9a32cd" stroke="#9a32cd" points="329.06,-314.21 330.46,-324.72 335.92,-315.64 329.06,-314.21"/>
</a>
</g>
<text text-anchor="start" x="340.5" y="-295.5" font-family="Helvetica,sans-Serif" font-size="10.00" fill="grey">evidenceProperties</text>
</g>
<!-- Node9 -->
<g id="Node000009" class="node">
<title>Node9</title>
<g id="a_Node000009"><a xlink:href="structfiftyone_degrees_override_value_array.html" target="_top" xlink:title="An array of properties and values to use when getting override values.">
<polygon fill="white" stroke="#666666" points="586,-222 423,-222 423,-192 586,-192 586,-222"/>
<text text-anchor="start" x="431" y="-210" font-family="Helvetica,sans-Serif" font-size="10.00">fiftyoneDegreesOverrideValue</text>
<text text-anchor="middle" x="504.5" y="-199" font-family="Helvetica,sans-Serif" font-size="10.00">Array</text>
</a>
</g>
</g>
<!-- Node9&#45;&gt;Node1 -->
<g id="edge10_Node000001_Node000009" class="edge">
<title>Node9&#45;&gt;Node1</title>
<g id="a_edge10_Node000001_Node000009"><a xlink:title=" ">
<path fill="none" stroke="#9a32cd" stroke-dasharray="5,2" d="M504.92,-181.81C504.41,-146.97 499.12,-81.91 469.5,-37 464.54,-29.48 456.65,-23.47 449.34,-19.08"/>
<polygon fill="#9a32cd" stroke="#9a32cd" points="501.43,-182.01 504.95,-192 508.43,-181.99 501.43,-182.01"/>
</a>
</g>
<text text-anchor="start" x="505" y="-125.5" font-family="Helvetica,sans-Serif" font-size="10.00" fill="grey">values</text>
</g>
<!-- Node10&#45;&gt;Node9 -->
<g id="edge11_Node000009_Node000010" class="edge">
<title>Node10&#45;&gt;Node9</title>
<g id="a_edge11_Node000009_Node000010"><a xlink:title=" ">
<path fill="none" stroke="#9a32cd" stroke-dasharray="5,2" d="M514.78,-320.17C512.35,-293.66 507.97,-245.9 505.8,-222.17"/>
<polygon fill="#9a32cd" stroke="#9a32cd" points="511.31,-320.77 515.71,-330.4 518.29,-320.13 511.31,-320.77"/>
</a>
</g>
<text text-anchor="start" x="515.5" y="-295.5" font-family="Helvetica,sans-Serif" font-size="10.00" fill="grey">items</text>
</g>
</g>
</svg>
