<?xml version="1.0" encoding="UTF-8" standalone="no"?>
<!DOCTYPE svg PUBLIC "-//W3C//DTD SVG 1.1//EN"
 "http://www.w3.org/Graphics/SVG/1.1/DTD/svg11.dtd">
<!-- Generated by graphviz version 2.43.0 (0)
 -->
<!-- Title: stringCollectionState Pages: 1 -->
<svg width="406pt" height="112pt"
 viewBox="0.00 0.00 406.00 112.00" xmlns="http://www.w3.org/2000/svg" xmlns:xlink="http://www.w3.org/1999/xlink">
<g id="graph0" class="graph" transform="scale(1 1) rotate(0) translate(4 108)">
<title>stringCollectionState</title>
<!-- Node1 -->
<g id="Node000001" class="node">
<title>Node1</title>
<g id="a_Node000001"><a xlink:title=" ">
<polygon fill="#999999" stroke="#666666" points="119,-19 0,-19 0,0 119,0 119,-19"/>
<text text-anchor="middle" x="59.5" y="-7" font-family="Helvetica,sans-Serif" font-size="10.00">stringCollectionState</text>
</a>
</g>
</g>
<!-- Node2 -->
<g id="Node000002" class="node">
<title>Node2</title>
<g id="a_Node000002"><a xlink:href="structfiftyone_degrees_collection.html" target="_top" xlink:title="All the shared methods and fields required by file, memory and cached collections.">
<polygon fill="white" stroke="#666666" points="170,-97.5 27,-97.5 27,-78.5 170,-78.5 170,-97.5"/>
<text text-anchor="middle" x="98.5" y="-85.5" font-family="Helvetica,sans-Serif" font-size="10.00">fiftyoneDegreesCollection</text>
</a>
</g>
</g>
<!-- Node2&#45;&gt;Node1 -->
<g id="edge1_Node000001_Node000002" class="edge">
<title>Node2&#45;&gt;Node1</title>
<g id="a_edge1_Node000001_Node000002"><a xlink:title=" ">
<path fill="none" stroke="#9a32cd" stroke-dasharray="5,2" d="M76.35,-72.32C70.48,-67.25 64.86,-61.05 61.5,-54 56.24,-42.94 56.83,-28.46 57.98,-19.31"/>
<polygon fill="#9a32cd" stroke="#9a32cd" points="74.26,-75.13 84.3,-78.49 78.55,-69.6 74.26,-75.13"/>
</a>
</g>
<text text-anchor="start" x="64.5" y="-42.5" font-family="Helvetica,sans-Serif" font-size="10.00" fill="grey">collection</text>
</g>
<!-- Node2&#45;&gt;Node2 -->
<g id="edge2_Node000002_Node000002" class="edge">
<title>Node2&#45;&gt;Node2</title>
<g id="a_edge2_Node000002_Node000002"><a xlink:title=" ">
<path fill="none" stroke="#9a32cd" stroke-dasharray="5,2" d="M180.11,-93.45C185.04,-92.16 188,-90.34 188,-88 188,-84.35 180.79,-81.97 170.13,-80.86"/>
<polygon fill="#9a32cd" stroke="#9a32cd" points="179.4,-90.02 170.13,-95.14 180.57,-96.92 179.4,-90.02"/>
</a>
</g>
<text text-anchor="start" x="191.5" y="-93" font-family="Helvetica,sans-Serif" font-size="10.00" fill="grey">freeCollection</text>
<text text-anchor="start" x="191.5" y="-78" font-family="Helvetica,sans-Serif" font-size="10.00" fill="grey">get</text>
</g>
<!-- Node3 -->
<g id="Node000003" class="node">
<title>Node3</title>
<g id="a_Node000003"><a xlink:href="structfiftyone_degrees_collection_item.html" target="_top" xlink:title="Used to store a handle to the underlying item that could be used to release the item when it&#39;s finish...">
<polygon fill="white" stroke="#666666" points="302,-19 137,-19 137,0 302,0 302,-19"/>
<text text-anchor="middle" x="219.5" y="-7" font-family="Helvetica,sans-Serif" font-size="10.00">fiftyoneDegreesCollectionItem</text>
</a>
</g>
</g>
<!-- Node2&#45;&gt;Node3 -->
<g id="edge5_Node000003_Node000002" class="edge">
<title>Node2&#45;&gt;Node3</title>
<g id="a_edge5_Node000003_Node000002"><a xlink:title=" ">
<path fill="none" stroke="#9a32cd" stroke-dasharray="5,2" d="M108.31,-69.66C115.21,-58.87 125.36,-45.49 137.5,-37 149.15,-28.85 163.44,-23.1 176.81,-19.09"/>
<polygon fill="#9a32cd" stroke="#9a32cd" points="105.27,-67.91 103.11,-78.28 111.27,-71.52 105.27,-67.91"/>
</a>
</g>
<text text-anchor="start" x="140.5" y="-42.5" font-family="Helvetica,sans-Serif" font-size="10.00" fill="grey">collection</text>
</g>
<!-- Node3&#45;&gt;Node2 -->
<g id="edge3_Node000002_Node000003" class="edge">
<title>Node3&#45;&gt;Node2</title>
<g id="a_edge3_Node000002_Node000003"><a xlink:title=" ">
<path fill="none" stroke="#9a32cd" stroke-dasharray="5,2" d="M213.17,-28.5C209.28,-37.26 203.48,-47.31 195.5,-54 181.32,-65.88 162.65,-73.55 145.48,-78.48"/>
<polygon fill="#9a32cd" stroke="#9a32cd" points="216.46,-29.67 216.88,-19.09 209.95,-27.11 216.46,-29.67"/>
</a>
</g>
<text text-anchor="start" x="212" y="-42.5" font-family="Helvetica,sans-Serif" font-size="10.00" fill="grey">release</text>
</g>
<!-- Node4 -->
<g id="Node000004" class="node">
<title>Node4</title>
<g id="a_Node000004"><a xlink:href="structfiftyone_degrees_data.html" target="_top" xlink:title="Data structure used for reusing memory which may have been allocated in a previous operation.">
<polygon fill="white" stroke="#666666" points="398,-97.5 281,-97.5 281,-78.5 398,-78.5 398,-97.5"/>
<text text-anchor="middle" x="339.5" y="-85.5" font-family="Helvetica,sans-Serif" font-size="10.00">fiftyoneDegreesData</text>
</a>
</g>
</g>
<!-- Node4&#45;&gt;Node3 -->
<g id="edge4_Node000003_Node000004" class="edge">
<title>Node4&#45;&gt;Node3</title>
<g id="a_edge4_Node000003_Node000004"><a xlink:title=" ">
<path fill="none" stroke="#9a32cd" stroke-dasharray="5,2" d="M318.68,-72.66C303.74,-62.49 283.05,-48.64 264.5,-37 254.67,-30.83 243.42,-24.21 234.63,-19.13"/>
<polygon fill="#9a32cd" stroke="#9a32cd" points="316.93,-75.71 327.16,-78.47 320.89,-69.94 316.93,-75.71"/>
</a>
</g>
<text text-anchor="start" x="292.5" y="-42.5" font-family="Helvetica,sans-Serif" font-size="10.00" fill="grey">data</text>
</g>
</g>
</svg>
