<?xml version="1.0" encoding="UTF-8" standalone="no"?>
<!DOCTYPE svg PUBLIC "-//W3C//DTD SVG 1.1//EN"
 "http://www.w3.org/Graphics/SVG/1.1/DTD/svg11.dtd">
<!-- Generated by graphviz version 2.43.0 (0)
 -->
<!-- Title: performanceConfig Pages: 1 -->
<svg width="318pt" height="283pt"
 viewBox="0.00 0.00 318.00 283.00" xmlns="http://www.w3.org/2000/svg" xmlns:xlink="http://www.w3.org/1999/xlink">
<g id="graph0" class="graph" transform="scale(1 1) rotate(0) translate(4 279)">
<title>performanceConfig</title>
<!-- Node1 -->
<g id="node1" class="node">
<title>Node1</title>
<g id="a_node1"><a xlink:title="Configuration to use when building the dataset for benchmarking.">
<polygon fill="#bfbfbf" stroke="black" points="98.5,-0.5 98.5,-19.5 208.5,-19.5 208.5,-0.5 98.5,-0.5"/>
<text text-anchor="middle" x="153.5" y="-7.5" font-family="Helvetica,sans-Serif" font-size="10.00">performanceConfig</text>
</a>
</g>
</g>
<!-- Node2 -->
<g id="node2" class="node">
<title>Node2</title>
<g id="a_node2"><a xlink:href="structfiftyone_degrees_config_ipi.html" target="_top" xlink:title="IP Intelligence specific configuration structure.">
<polygon fill="none" stroke="black" points="85,-67.5 85,-86.5 222,-86.5 222,-67.5 85,-67.5"/>
<text text-anchor="middle" x="153.5" y="-74.5" font-family="Helvetica,sans-Serif" font-size="10.00">fiftyoneDegreesConfigIpi</text>
</a>
</g>
</g>
<!-- Node2&#45;&gt;Node1 -->
<g id="edge1" class="edge">
<title>Node2&#45;&gt;Node1</title>
<path fill="none" stroke="#9a32cd" stroke-dasharray="5,2" d="M153.5,-57.04C153.5,-44.67 153.5,-29.12 153.5,-19.63"/>
<polygon fill="#9a32cd" stroke="#9a32cd" points="150,-57.23 153.5,-67.23 157,-57.23 150,-57.23"/>
<text text-anchor="middle" x="170" y="-41" font-family="Helvetica,sans-Serif" font-size="10.00"> config</text>
</g>
<!-- Node3 -->
<g id="node3" class="node">
<title>Node3</title>
<g id="a_node3"><a xlink:href="structfiftyone_degrees_collection_config.html" target="_top" xlink:title="Collection configuration structure which defines how the collection should be created by the create m...">
<polygon fill="none" stroke="black" points="0,-244.5 0,-274.5 143,-274.5 143,-244.5 0,-244.5"/>
<text text-anchor="start" x="8" y="-262.5" font-family="Helvetica,sans-Serif" font-size="10.00">fiftyoneDegreesCollection</text>
<text text-anchor="middle" x="71.5" y="-251.5" font-family="Helvetica,sans-Serif" font-size="10.00">Config</text>
</a>
</g>
</g>
<!-- Node3&#45;&gt;Node2 -->
<g id="edge2" class="edge">
<title>Node3&#45;&gt;Node2</title>
<path fill="none" stroke="#9a32cd" stroke-dasharray="5,2" d="M82.07,-235.23C100.44,-194.8 137.43,-113.37 149.56,-86.68"/>
<polygon fill="#9a32cd" stroke="#9a32cd" points="78.88,-233.78 77.93,-244.34 85.26,-236.68 78.88,-233.78"/>
<text text-anchor="middle" x="175.5" y="-218" font-family="Helvetica,sans-Serif" font-size="10.00"> profileOffsets</text>
<text text-anchor="middle" x="175.5" y="-207" font-family="Helvetica,sans-Serif" font-size="10.00">values</text>
<text text-anchor="middle" x="175.5" y="-196" font-family="Helvetica,sans-Serif" font-size="10.00">graphs</text>
<text text-anchor="middle" x="175.5" y="-185" font-family="Helvetica,sans-Serif" font-size="10.00">profileGroups</text>
<text text-anchor="middle" x="175.5" y="-174" font-family="Helvetica,sans-Serif" font-size="10.00">strings</text>
<text text-anchor="middle" x="175.5" y="-163" font-family="Helvetica,sans-Serif" font-size="10.00">propertyTypes</text>
<text text-anchor="middle" x="175.5" y="-152" font-family="Helvetica,sans-Serif" font-size="10.00">maps</text>
<text text-anchor="middle" x="175.5" y="-141" font-family="Helvetica,sans-Serif" font-size="10.00">components</text>
<text text-anchor="middle" x="175.5" y="-130" font-family="Helvetica,sans-Serif" font-size="10.00">graph</text>
<text text-anchor="middle" x="175.5" y="-119" font-family="Helvetica,sans-Serif" font-size="10.00">properties</text>
<text text-anchor="middle" x="175.5" y="-108" font-family="Helvetica,sans-Serif" font-size="10.00">...</text>
</g>
<!-- Node4 -->
<g id="node4" class="node">
<title>Node4</title>
<g id="a_node4"><a xlink:href="structfiftyone_degrees_config_base.html" target="_top" xlink:title="Base configuration structure containing common configuration options, and options that apply to struc...">
<polygon fill="none" stroke="black" points="161,-250 161,-269 310,-269 310,-250 161,-250"/>
<text text-anchor="middle" x="235.5" y="-257" font-family="Helvetica,sans-Serif" font-size="10.00">fiftyoneDegreesConfigBase</text>
</a>
</g>
</g>
<!-- Node4&#45;&gt;Node2 -->
<g id="edge3" class="edge">
<title>Node4&#45;&gt;Node2</title>
<path fill="none" stroke="#9a32cd" stroke-dasharray="5,2" d="M238.16,-239.84C241.56,-208.61 243.78,-145.23 213.5,-105 207.11,-96.51 197.45,-90.63 187.73,-86.58"/>
<polygon fill="#9a32cd" stroke="#9a32cd" points="234.69,-239.43 236.92,-249.79 241.63,-240.3 234.69,-239.43"/>
<text text-anchor="middle" x="244.5" y="-163" font-family="Helvetica,sans-Serif" font-size="10.00"> b</text>
</g>
</g>
</svg>
