<?xml version="1.0" encoding="UTF-8" standalone="no"?>
<!DOCTYPE svg PUBLIC "-//W3C//DTD SVG 1.1//EN"
 "http://www.w3.org/Graphics/SVG/1.1/DTD/svg11.dtd">
<!-- Generated by graphviz version 2.43.0 (0)
 -->
<!-- Title: allocation Pages: 1 -->
<svg width="228pt" height="119pt"
 viewBox="0.00 0.00 228.00 119.00" xmlns="http://www.w3.org/2000/svg" xmlns:xlink="http://www.w3.org/1999/xlink">
<g id="graph0" class="graph" transform="scale(1 1) rotate(0) translate(4 115)">
<title>allocation</title>
<!-- Node1 -->
<g id="node1" class="node">
<title>Node1</title>
<g id="a_node1"><a xlink:title=" ">
<polygon fill="#bfbfbf" stroke="black" points="0,-0.5 0,-19.5 65,-19.5 65,-0.5 0,-0.5"/>
<text text-anchor="middle" x="32.5" y="-7.5" font-family="Helvetica,sans-Serif" font-size="10.00">allocation</text>
</a>
</g>
</g>
<!-- Node2 -->
<g id="node2" class="node">
<title>Node2</title>
<g id="a_node2"><a xlink:href="structfiftyone_degrees_tree_node.html" target="_top" xlink:title="Node structure defining a single node in the tree.">
<polygon fill="none" stroke="black" points="26.5,-85 26.5,-104 166.5,-104 166.5,-85 26.5,-85"/>
<text text-anchor="middle" x="96.5" y="-92" font-family="Helvetica,sans-Serif" font-size="10.00">fiftyoneDegreesTreeNode</text>
</a>
</g>
</g>
<!-- Node2&#45;&gt;Node1 -->
<g id="edge1" class="edge">
<title>Node2&#45;&gt;Node1</title>
<path fill="none" stroke="#9a32cd" stroke-dasharray="5,2" d="M77.9,-78.17C71.96,-72.77 65.6,-66.44 60.5,-60 50.28,-47.1 41.41,-30.03 36.53,-19.82"/>
<polygon fill="#9a32cd" stroke="#9a32cd" points="75.76,-80.94 85.6,-84.87 80.35,-75.66 75.76,-80.94"/>
<text text-anchor="middle" x="72" y="-46.5" font-family="Helvetica,sans-Serif" font-size="10.00"> tree</text>
</g>
<!-- Node2&#45;&gt;Node2 -->
<g id="edge2" class="edge">
<title>Node2&#45;&gt;Node2</title>
<path fill="none" stroke="#9a32cd" stroke-dasharray="5,2" d="M176.58,-100.26C181.52,-98.9 184.5,-96.98 184.5,-94.5 184.5,-90.63 177.25,-88.13 166.57,-86.98"/>
<polygon fill="#9a32cd" stroke="#9a32cd" points="175.81,-96.84 166.57,-102.02 177.03,-103.73 175.81,-96.84"/>
<text text-anchor="middle" x="200.5" y="-103" font-family="Helvetica,sans-Serif" font-size="10.00"> right</text>
<text text-anchor="middle" x="200.5" y="-92" font-family="Helvetica,sans-Serif" font-size="10.00">left</text>
<text text-anchor="middle" x="200.5" y="-81" font-family="Helvetica,sans-Serif" font-size="10.00">parent</text>
</g>
<!-- Node3 -->
<g id="node3" class="node">
<title>Node3</title>
<g id="a_node3"><a xlink:href="structfiftyone_degrees_tree_root.html" target="_top" xlink:title="Tree root structure defining the beginning of the tree.">
<polygon fill="none" stroke="black" points="83,-0.5 83,-19.5 220,-19.5 220,-0.5 83,-0.5"/>
<text text-anchor="middle" x="151.5" y="-7.5" font-family="Helvetica,sans-Serif" font-size="10.00">fiftyoneDegreesTreeRoot</text>
</a>
</g>
</g>
<!-- Node2&#45;&gt;Node3 -->
<g id="edge4" class="edge">
<title>Node2&#45;&gt;Node3</title>
<path fill="none" stroke="#9a32cd" stroke-dasharray="5,2" d="M90.33,-74.97C87.69,-63.46 86.58,-48.85 93.5,-38 98.93,-29.48 107.83,-23.6 117.05,-19.57"/>
<polygon fill="#9a32cd" stroke="#9a32cd" points="87.03,-76.16 93.13,-84.82 93.77,-74.25 87.03,-76.16"/>
<text text-anchor="middle" x="109.5" y="-52" font-family="Helvetica,sans-Serif" font-size="10.00"> root</text>
<text text-anchor="middle" x="109.5" y="-41" font-family="Helvetica,sans-Serif" font-size="10.00">empty</text>
</g>
<!-- Node3&#45;&gt;Node2 -->
<g id="edge3" class="edge">
<title>Node3&#45;&gt;Node2</title>
<path fill="none" stroke="#9a32cd" stroke-dasharray="5,2" d="M145.13,-29.18C141.34,-38.78 136,-50.5 129.5,-60 123.05,-69.43 113.78,-78.57 106.71,-84.91"/>
<polygon fill="#9a32cd" stroke="#9a32cd" points="148.42,-30.4 148.62,-19.81 141.86,-27.96 148.42,-30.4"/>
<text text-anchor="middle" x="152" y="-46.5" font-family="Helvetica,sans-Serif" font-size="10.00"> root</text>
</g>
</g>
</svg>
