<?xml version="1.0" encoding="UTF-8" standalone="no"?>
<!DOCTYPE svg PUBLIC "-//W3C//DTD SVG 1.1//EN"
 "http://www.w3.org/Graphics/SVG/1.1/DTD/svg11.dtd">
<!-- Generated by graphviz version 2.43.0 (0)
 -->
<!-- Title: performanceThreadState Pages: 1 -->
<svg width="1213pt" height="458pt"
 viewBox="0.00 0.00 1213.00 458.00" xmlns="http://www.w3.org/2000/svg" xmlns:xlink="http://www.w3.org/1999/xlink">
<g id="graph0" class="graph" transform="scale(1 1) rotate(0) translate(4 454)">
<title>performanceThreadState</title>
<!-- Node1 -->
<g id="Node000001" class="node">
<title>Node1</title>
<g id="a_Node000001"><a xlink:title="Individual thread performance state where all members are exclusively accessed by a single test threa...">
<polygon fill="#999999" stroke="#666666" points="1205,-348 1067,-348 1067,-329 1205,-329 1205,-348"/>
<text text-anchor="middle" x="1136" y="-336" font-family="Helvetica,sans-Serif" font-size="10.00">performanceThreadState</text>
</a>
</g>
</g>
<!-- Node2 -->
<g id="Node000002" class="node">
<title>Node2</title>
<g id="a_Node000002"><a xlink:href="structperformance_state.html" target="_top" xlink:title="Shared performance state.">
<polygon fill="white" stroke="#666666" points="942.5,-242 838.5,-242 838.5,-223 942.5,-223 942.5,-242"/>
<text text-anchor="middle" x="890.5" y="-230" font-family="Helvetica,sans-Serif" font-size="10.00">performanceState</text>
</a>
</g>
</g>
<!-- Node2&#45;&gt;Node1 -->
<g id="edge1_Node000001_Node000002" class="edge">
<title>Node2&#45;&gt;Node1</title>
<g id="a_edge1_Node000001_Node000002"><a xlink:title=" ">
<path fill="none" stroke="#9a32cd" stroke-dasharray="5,2" d="M952.51,-242.56C982.55,-248.95 1018.73,-258.84 1049,-273.5 1079.49,-288.26 1109.86,-314.64 1125.03,-328.83"/>
<polygon fill="#9a32cd" stroke="#9a32cd" points="953.07,-239.1 942.57,-240.53 951.67,-245.96 953.07,-239.1"/>
</a>
</g>
<text text-anchor="start" x="1001" y="-294.5" font-family="Helvetica,sans-Serif" font-size="10.00" fill="grey">main</text>
<text text-anchor="start" x="1001" y="-279.5" font-family="Helvetica,sans-Serif" font-size="10.00" fill="grey">state</text>
</g>
<!-- Node7 -->
<g id="Node000007" class="node">
<title>Node7</title>
<g id="a_Node000007"><a xlink:href="structthread_state.html" target="_top" xlink:title="State specific to a single thread.">
<polygon fill="white" stroke="#666666" points="1173,-222 1099,-222 1099,-203 1173,-203 1173,-222"/>
<text text-anchor="middle" x="1136" y="-210" font-family="Helvetica,sans-Serif" font-size="10.00">threadState</text>
</a>
</g>
</g>
<!-- Node2&#45;&gt;Node7 -->
<g id="edge9_Node000007_Node000002" class="edge">
<title>Node2&#45;&gt;Node7</title>
<g id="a_edge9_Node000007_Node000002"><a xlink:title=" ">
<path fill="none" stroke="#9a32cd" stroke-dasharray="5,2" d="M952.7,-227.47C998.69,-223.7 1060.15,-218.65 1098.65,-215.49"/>
<polygon fill="#9a32cd" stroke="#9a32cd" points="952.23,-224 942.55,-228.31 952.8,-230.98 952.23,-224"/>
</a>
</g>
<text text-anchor="start" x="988" y="-231" font-family="Helvetica,sans-Serif" font-size="10.00" fill="grey">mainState</text>
</g>
<!-- Node3 -->
<g id="Node000003" class="node">
<title>Node3</title>
<g id="a_Node000003"><a xlink:href="structfiftyone_degrees_resource_manager.html" target="_top" xlink:title="Manager structure used to provide access to a shared and changing resource.">
<polygon fill="white" stroke="#666666" points="404,-158 222,-158 222,-139 404,-139 404,-158"/>
<text text-anchor="middle" x="313" y="-146" font-family="Helvetica,sans-Serif" font-size="10.00">fiftyoneDegreesResourceManager</text>
</a>
</g>
</g>
<!-- Node3&#45;&gt;Node2 -->
<g id="edge2_Node000002_Node000003" class="edge">
<title>Node3&#45;&gt;Node2</title>
<g id="a_edge2_Node000002_Node000003"><a xlink:title=" ">
<path fill="none" stroke="#9a32cd" stroke-dasharray="5,2" d="M383.76,-159.63C396.48,-161.61 409.63,-163.64 422,-165.5 573.22,-188.24 752.22,-213.4 838.27,-225.39"/>
<polygon fill="#9a32cd" stroke="#9a32cd" points="384.1,-156.14 373.68,-158.04 383.01,-163.05 384.1,-156.14"/>
</a>
</g>
<text text-anchor="start" x="588.5" y="-211" font-family="Helvetica,sans-Serif" font-size="10.00" fill="grey">manager</text>
</g>
<!-- Node4 -->
<g id="Node000004" class="node">
<title>Node4</title>
<g id="a_Node000004"><a xlink:href="structfiftyone_degrees_resource_handle.html" target="_top" xlink:title="Handle for a shared resource.">
<polygon fill="white" stroke="#666666" points="697,-115 524,-115 524,-96 697,-96 697,-115"/>
<text text-anchor="middle" x="610.5" y="-103" font-family="Helvetica,sans-Serif" font-size="10.00">fiftyoneDegreesResourceHandle</text>
</a>
</g>
</g>
<!-- Node3&#45;&gt;Node4 -->
<g id="edge5_Node000004_Node000003" class="edge">
<title>Node3&#45;&gt;Node4</title>
<g id="a_edge5_Node000004_Node000003"><a xlink:title=" ">
<path fill="none" stroke="#9a32cd" stroke-dasharray="5,2" d="M338.72,-133.92C359.98,-122.28 391.89,-106.89 422,-100.5 460.54,-92.32 504.54,-92.99 540.22,-95.97"/>
<polygon fill="#9a32cd" stroke="#9a32cd" points="336.75,-131.01 329.75,-138.96 340.18,-137.11 336.75,-131.01"/>
</a>
</g>
<text text-anchor="start" x="442" y="-106" font-family="Helvetica,sans-Serif" font-size="10.00" fill="grey">manager</text>
</g>
<!-- Node12 -->
<g id="Node000012" class="node">
<title>Node12</title>
<g id="a_Node000012"><a xlink:href="class_resource_manager.html" target="_top" xlink:title=" ">
<polygon fill="white" stroke="#bfbfbf" points="942.5,-135 838.5,-135 838.5,-116 942.5,-116 942.5,-135"/>
<text text-anchor="middle" x="890.5" y="-123" font-family="Helvetica,sans-Serif" font-size="10.00">ResourceManager</text>
</a>
</g>
</g>
<!-- Node3&#45;&gt;Node12 -->
<g id="edge18_Node000012_Node000003" class="edge">
<title>Node3&#45;&gt;Node12</title>
<g id="a_edge18_Node000012_Node000003"><a xlink:title=" ">
<path fill="none" stroke="#9a32cd" stroke-dasharray="5,2" d="M414.28,-150.42C416.88,-150.45 419.46,-150.48 422,-150.5 591.83,-152.07 635.07,-158.06 804,-140.5 816.44,-139.21 829.8,-137.17 842.18,-135.02"/>
<polygon fill="#9a32cd" stroke="#9a32cd" points="414.2,-146.92 404.16,-150.29 414.12,-153.92 414.2,-146.92"/>
</a>
</g>
<text text-anchor="start" x="588.5" y="-159" font-family="Helvetica,sans-Serif" font-size="10.00" fill="grey">manager</text>
</g>
<!-- Node4&#45;&gt;Node3 -->
<g id="edge3_Node000003_Node000004" class="edge">
<title>Node4&#45;&gt;Node3</title>
<g id="a_edge3_Node000003_Node000004"><a xlink:title=" ">
<path fill="none" stroke="#9a32cd" stroke-dasharray="5,2" d="M534.13,-116.47C486.41,-123.41 425.3,-132.3 379.58,-138.96"/>
<polygon fill="#9a32cd" stroke="#9a32cd" points="534.71,-119.92 544.1,-115.02 533.7,-112.99 534.71,-119.92"/>
</a>
</g>
<text text-anchor="start" x="449" y="-138" font-family="Helvetica,sans-Serif" font-size="10.00" fill="grey">active</text>
</g>
<!-- Node4&#45;&gt;Node12 -->
<g id="edge19_Node000012_Node000004" class="edge">
<title>Node4&#45;&gt;Node12</title>
<g id="a_edge19_Node000012_Node000004"><a xlink:title=" ">
<path fill="none" stroke="#9a32cd" stroke-dasharray="5,2" d="M707.34,-112.4C751.39,-115.56 801.85,-119.19 838.48,-121.83"/>
<polygon fill="#9a32cd" stroke="#9a32cd" points="707.4,-108.89 697.18,-111.66 706.9,-115.87 707.4,-108.89"/>
</a>
</g>
<text text-anchor="start" x="721.5" y="-125" font-family="Helvetica,sans-Serif" font-size="10.00" fill="grey">resourceHandle</text>
</g>
<!-- Node5 -->
<g id="Node000005" class="node">
<title>Node5</title>
<g id="a_Node000005"><a xlink:href="structfiftyone_degrees_interlock_double_width.html" target="_top" xlink:title="Double width (64 or 128 depending on the architecture) compare and exchange.">
<polygon fill="white" stroke="#666666" points="381.5,-67.5 244.5,-67.5 244.5,-37.5 381.5,-37.5 381.5,-67.5"/>
<text text-anchor="start" x="252.5" y="-55.5" font-family="Helvetica,sans-Serif" font-size="10.00">fiftyoneDegreesInterlock</text>
<text text-anchor="middle" x="313" y="-44.5" font-family="Helvetica,sans-Serif" font-size="10.00">DoubleWidth</text>
</a>
</g>
</g>
<!-- Node5&#45;&gt;Node4 -->
<g id="edge4_Node000004_Node000005" class="edge">
<title>Node5&#45;&gt;Node4</title>
<g id="a_edge4_Node000004_Node000005"><a xlink:title=" ">
<path fill="none" stroke="#9a32cd" stroke-dasharray="5,2" d="M391.77,-57.61C426.91,-60.79 468.79,-65.79 506,-73.5 532.89,-79.07 562.77,-88.7 583.49,-95.94"/>
<polygon fill="#9a32cd" stroke="#9a32cd" points="391.84,-54.1 381.58,-56.72 391.24,-61.08 391.84,-54.1"/>
</a>
</g>
<text text-anchor="start" x="446" y="-79" font-family="Helvetica,sans-Serif" font-size="10.00" fill="grey">counter</text>
</g>
<!-- Node6 -->
<g id="Node000006" class="node">
<title>Node6</title>
<g id="a_Node000006"><a xlink:href="structshared_string_node.html" target="_top" xlink:title=" ">
<polygon fill="white" stroke="#bfbfbf" points="662.5,-272 558.5,-272 558.5,-253 662.5,-253 662.5,-272"/>
<text text-anchor="middle" x="610.5" y="-260" font-family="Helvetica,sans-Serif" font-size="10.00">sharedStringNode</text>
</a>
</g>
</g>
<!-- Node6&#45;&gt;Node2 -->
<g id="edge6_Node000002_Node000006" class="edge">
<title>Node6&#45;&gt;Node2</title>
<g id="a_edge6_Node000002_Node000006"><a xlink:title=" ">
<path fill="none" stroke="#9a32cd" stroke-dasharray="5,2" d="M672.8,-255.89C722.51,-250.52 791.76,-243.05 838.49,-238.01"/>
<polygon fill="#9a32cd" stroke="#9a32cd" points="672.38,-252.41 662.81,-256.96 673.13,-259.37 672.38,-252.41"/>
</a>
</g>
<text text-anchor="start" x="718.5" y="-272.5" font-family="Helvetica,sans-Serif" font-size="10.00" fill="grey">sharedStringFirst</text>
<text text-anchor="start" x="718.5" y="-257.5" font-family="Helvetica,sans-Serif" font-size="10.00" fill="grey">sharedStringLast</text>
</g>
<!-- Node6&#45;&gt;Node6 -->
<g id="edge7_Node000006_Node000006" class="edge">
<title>Node6&#45;&gt;Node6</title>
<g id="a_edge7_Node000006_Node000006"><a xlink:title=" ">
<path fill="none" stroke="#9a32cd" stroke-dasharray="5,2" d="M583.34,-281.19C584.82,-286.2 593.88,-290 610.5,-290 636.45,-290 643.95,-280.73 633,-272.08"/>
<polygon fill="#9a32cd" stroke="#9a32cd" points="586.56,-282.58 588,-272.08 580.33,-279.39 586.56,-282.58"/>
</a>
</g>
<text text-anchor="start" x="599.5" y="-295.5" font-family="Helvetica,sans-Serif" font-size="10.00" fill="grey">next</text>
</g>
<!-- Node7&#45;&gt;Node2 -->
<g id="edge8_Node000002_Node000007" class="edge">
<title>Node7&#45;&gt;Node2</title>
<g id="a_edge8_Node000002_Node000007"><a xlink:title=" ">
<path fill="none" stroke="#9a32cd" stroke-dasharray="5,2" d="M1094.8,-200.35C1062.66,-192.38 1016.59,-184.9 977,-193.5 951.17,-199.11 923.79,-213.24 907.17,-222.86"/>
<polygon fill="#9a32cd" stroke="#9a32cd" points="1094.16,-203.8 1104.72,-202.93 1095.93,-197.03 1094.16,-203.8"/>
</a>
</g>
<text text-anchor="start" x="982" y="-199" font-family="Helvetica,sans-Serif" font-size="10.00" fill="grey">threadStates</text>
</g>
<!-- Node8 -->
<g id="Node000008" class="node">
<title>Node8</title>
<g id="a_Node000008"><a xlink:href="structevidence_node.html" target="_top" xlink:title=" ">
<polygon fill="white" stroke="#bfbfbf" points="933.5,-337 847.5,-337 847.5,-318 933.5,-318 933.5,-337"/>
<text text-anchor="middle" x="890.5" y="-325" font-family="Helvetica,sans-Serif" font-size="10.00">evidenceNode</text>
</a>
</g>
</g>
<!-- Node8&#45;&gt;Node7 -->
<g id="edge10_Node000007_Node000008" class="edge">
<title>Node8&#45;&gt;Node7</title>
<g id="a_edge10_Node000007_Node000008"><a xlink:title=" ">
<path fill="none" stroke="#9a32cd" stroke-dasharray="5,2" d="M943.69,-328.9C975.72,-327.72 1016.65,-322.41 1049,-305.5 1087.2,-285.53 1117.32,-241.63 1129.34,-222.14"/>
<polygon fill="#9a32cd" stroke="#9a32cd" points="943.53,-325.41 933.62,-329.15 943.7,-332.4 943.53,-325.41"/>
</a>
</g>
<text text-anchor="start" x="980" y="-347.5" font-family="Helvetica,sans-Serif" font-size="10.00" fill="grey">evidenceFirst</text>
<text text-anchor="start" x="980" y="-332.5" font-family="Helvetica,sans-Serif" font-size="10.00" fill="grey">evidenceLast</text>
</g>
<!-- Node8&#45;&gt;Node8 -->
<g id="edge14_Node000008_Node000008" class="edge">
<title>Node8&#45;&gt;Node8</title>
<g id="a_edge14_Node000008_Node000008"><a xlink:title=" ">
<path fill="none" stroke="#9a32cd" stroke-dasharray="5,2" d="M867.91,-346.55C869.42,-351.38 876.95,-355 890.5,-355 912.18,-355 918.45,-345.73 909.3,-337.08"/>
<polygon fill="#9a32cd" stroke="#9a32cd" points="871.23,-347.67 871.7,-337.08 864.73,-345.07 871.23,-347.67"/>
</a>
</g>
<text text-anchor="start" x="879.5" y="-360.5" font-family="Helvetica,sans-Serif" font-size="10.00" fill="grey">next</text>
</g>
<!-- Node9 -->
<g id="Node000009" class="node">
<title>Node9</title>
<g id="a_Node000009"><a xlink:href="structfiftyone_degrees_evidence_key_value_pair_array.html" target="_top" xlink:title="Array of evidence key value pairs and a pointer to the next array if present or NULL of not present.">
<polygon fill="white" stroke="#666666" points="688.5,-355.5 532.5,-355.5 532.5,-325.5 688.5,-325.5 688.5,-355.5"/>
<text text-anchor="start" x="540.5" y="-343.5" font-family="Helvetica,sans-Serif" font-size="10.00">fiftyoneDegreesEvidenceKey</text>
<text text-anchor="middle" x="610.5" y="-332.5" font-family="Helvetica,sans-Serif" font-size="10.00">ValuePairArray</text>
</a>
</g>
</g>
<!-- Node9&#45;&gt;Node8 -->
<g id="edge11_Node000008_Node000009" class="edge">
<title>Node9&#45;&gt;Node8</title>
<g id="a_edge11_Node000008_Node000009"><a xlink:title=" ">
<path fill="none" stroke="#9a32cd" stroke-dasharray="5,2" d="M698.65,-336.42C748.16,-334.11 807.92,-331.31 847.22,-329.48"/>
<polygon fill="#9a32cd" stroke="#9a32cd" points="698.39,-332.93 688.57,-336.9 698.72,-339.93 698.39,-332.93"/>
</a>
</g>
<text text-anchor="start" x="746.5" y="-342" font-family="Helvetica,sans-Serif" font-size="10.00" fill="grey">array</text>
</g>
<!-- Node10 -->
<g id="Node000010" class="node">
<title>Node10</title>
<g id="a_Node000010"><a xlink:href="structfiftyone_degrees_evidence_key_value_pair.html" target="_top" xlink:title="Evidence key value pair structure which combines the prefix, key and value.">
<polygon fill="white" stroke="#666666" points="391,-355.5 235,-355.5 235,-325.5 391,-325.5 391,-355.5"/>
<text text-anchor="start" x="243" y="-343.5" font-family="Helvetica,sans-Serif" font-size="10.00">fiftyoneDegreesEvidenceKey</text>
<text text-anchor="middle" x="313" y="-332.5" font-family="Helvetica,sans-Serif" font-size="10.00">ValuePair</text>
</a>
</g>
</g>
<!-- Node10&#45;&gt;Node9 -->
<g id="edge12_Node000009_Node000010" class="edge">
<title>Node10&#45;&gt;Node9</title>
<g id="a_edge12_Node000009_Node000010"><a xlink:title=" ">
<path fill="none" stroke="#9a32cd" stroke-dasharray="5,2" d="M401.37,-340.5C442.97,-340.5 492.27,-340.5 532.44,-340.5"/>
<polygon fill="#9a32cd" stroke="#9a32cd" points="401.25,-337 391.25,-340.5 401.25,-344 401.25,-337"/>
</a>
</g>
<text text-anchor="start" x="450" y="-346" font-family="Helvetica,sans-Serif" font-size="10.00" fill="grey">items</text>
</g>
<!-- Node11 -->
<g id="Node000011" class="node">
<title>Node11</title>
<g id="a_Node000011"><a xlink:href="structfiftyone_degrees_key_value_pair.html" target="_top" xlink:title=" ">
<polygon fill="white" stroke="#bfbfbf" points="157,-350 0,-350 0,-331 157,-331 157,-350"/>
<text text-anchor="middle" x="78.5" y="-338" font-family="Helvetica,sans-Serif" font-size="10.00">fiftyoneDegreesKeyValuePair</text>
</a>
</g>
</g>
<!-- Node11&#45;&gt;Node10 -->
<g id="edge13_Node000010_Node000011" class="edge">
<title>Node11&#45;&gt;Node10</title>
<g id="a_edge13_Node000010_Node000011"><a xlink:title=" ">
<path fill="none" stroke="#9a32cd" stroke-dasharray="5,2" d="M167.31,-340.5C189.48,-340.5 213.12,-340.5 234.73,-340.5"/>
<polygon fill="#9a32cd" stroke="#9a32cd" points="167.24,-337 157.24,-340.5 167.24,-344 167.24,-337"/>
</a>
</g>
<text text-anchor="start" x="178.5" y="-346" font-family="Helvetica,sans-Serif" font-size="10.00" fill="grey">item</text>
</g>
<!-- Node12&#45;&gt;Node7 -->
<g id="edge15_Node000007_Node000012" class="edge">
<title>Node12&#45;&gt;Node7</title>
<g id="a_edge15_Node000007_Node000012"><a xlink:title=" ">
<path fill="none" stroke="#9a32cd" stroke-dasharray="5,2" d="M943.75,-137.43C974.8,-145.17 1014.7,-156.27 1049,-169.5 1073.92,-179.11 1101.28,-193.5 1118.3,-202.95"/>
<polygon fill="#9a32cd" stroke="#9a32cd" points="944.54,-134.02 933.99,-135.03 942.87,-140.81 944.54,-134.02"/>
</a>
</g>
<text text-anchor="start" x="991" y="-175" font-family="Helvetica,sans-Serif" font-size="10.00" fill="grey">manager</text>
</g>
<!-- Node13 -->
<g id="Node000013" class="node">
<title>Node13</title>
<g id="a_Node000013"><a xlink:href="class_base.html" target="_top" xlink:title="Base test class used to carry out memory leak checks.">
<polygon fill="white" stroke="#666666" points="631,-55 590,-55 590,-36 631,-36 631,-55"/>
<text text-anchor="middle" x="610.5" y="-43" font-family="Helvetica,sans-Serif" font-size="10.00">Base</text>
</a>
</g>
</g>
<!-- Node13&#45;&gt;Node12 -->
<g id="edge16_Node000012_Node000013" class="edge">
<title>Node13&#45;&gt;Node12</title>
<g id="a_edge16_Node000012_Node000013"><a xlink:title=" ">
<path fill="none" stroke="#63b8ff" d="M640.67,-53.9C692.73,-68.87 801.29,-100.12 856.19,-115.91"/>
<polygon fill="#63b8ff" stroke="#63b8ff" points="641.63,-50.53 631.05,-51.13 639.69,-57.25 641.63,-50.53"/>
</a>
</g>
</g>
<!-- Node14 -->
<g id="Node000014" class="node">
<title>Node14</title>
<g id="a_Node000014"><a xlink:title=" ">
<polygon fill="white" stroke="#bfbfbf" points="351,-19 275,-19 275,0 351,0 351,-19"/>
<text text-anchor="middle" x="313" y="-7" font-family="Helvetica,sans-Serif" font-size="10.00">testing::Test</text>
</a>
</g>
</g>
<!-- Node14&#45;&gt;Node13 -->
<g id="edge17_Node000013_Node000014" class="edge">
<title>Node14&#45;&gt;Node13</title>
<g id="a_edge17_Node000013_Node000014"><a xlink:title=" ">
<path fill="none" stroke="#63b8ff" d="M361.2,-14.2C400.1,-18.18 456.68,-24.23 506,-30.5 535.18,-34.21 568.87,-39.23 589.69,-42.42"/>
<polygon fill="#63b8ff" stroke="#63b8ff" points="361.51,-10.71 351.21,-13.18 360.81,-17.68 361.51,-10.71"/>
</a>
</g>
</g>
<!-- Node15 -->
<g id="Node000015" class="node">
<title>Node15</title>
<g id="a_Node000015"><a xlink:href="structfiftyone_degrees_result_ipi_array.html" target="_top" xlink:title="Array of items of type fiftyoneDegreesResultIpi used to easily access and track the size of the array...">
<polygon fill="white" stroke="#666666" points="959,-420.5 822,-420.5 822,-390.5 959,-390.5 959,-420.5"/>
<text text-anchor="start" x="830" y="-408.5" font-family="Helvetica,sans-Serif" font-size="10.00">fiftyoneDegreesResultIpi</text>
<text text-anchor="middle" x="890.5" y="-397.5" font-family="Helvetica,sans-Serif" font-size="10.00">Array</text>
</a>
</g>
</g>
<!-- Node15&#45;&gt;Node1 -->
<g id="edge20_Node000001_Node000015" class="edge">
<title>Node15&#45;&gt;Node1</title>
<g id="a_edge20_Node000001_Node000015"><a xlink:title=" ">
<path fill="none" stroke="#9a32cd" stroke-dasharray="5,2" d="M959.22,-387.8C987.07,-380.42 1019.62,-371.69 1049,-363.5 1066.82,-358.53 1086.66,-352.78 1102.79,-348.05"/>
<polygon fill="#9a32cd" stroke="#9a32cd" points="957.96,-384.51 949.18,-390.45 959.75,-391.28 957.96,-384.51"/>
</a>
</g>
<text text-anchor="start" x="996" y="-388" font-family="Helvetica,sans-Serif" font-size="10.00" fill="grey">results</text>
</g>
<!-- Node16 -->
<g id="Node000016" class="node">
<title>Node16</title>
<g id="a_Node000016"><a xlink:href="structfiftyone_degrees_result_ipi.html" target="_top" xlink:title="Singular IP address result returned by a detection process method.">
<polygon fill="white" stroke="#666666" points="679,-415 542,-415 542,-396 679,-396 679,-415"/>
<text text-anchor="middle" x="610.5" y="-403" font-family="Helvetica,sans-Serif" font-size="10.00">fiftyoneDegreesResultIpi</text>
</a>
</g>
</g>
<!-- Node16&#45;&gt;Node15 -->
<g id="edge21_Node000015_Node000016" class="edge">
<title>Node16&#45;&gt;Node15</title>
<g id="a_edge21_Node000015_Node000016"><a xlink:title=" ">
<path fill="none" stroke="#9a32cd" stroke-dasharray="5,2" d="M689.24,-405.5C730.82,-405.5 781.55,-405.5 821.55,-405.5"/>
<polygon fill="#9a32cd" stroke="#9a32cd" points="689.15,-402 679.15,-405.5 689.15,-409 689.15,-402"/>
</a>
</g>
<text text-anchor="start" x="745.5" y="-411" font-family="Helvetica,sans-Serif" font-size="10.00" fill="grey">items</text>
</g>
<!-- Node17 -->
<g id="Node000017" class="node">
<title>Node17</title>
<g id="a_Node000017"><a xlink:href="structfiftyone_degrees_ipi_cg_result.html" target="_top" xlink:title="The evaluation result from graph collection.">
<polygon fill="white" stroke="#666666" points="387.5,-450 238.5,-450 238.5,-431 387.5,-431 387.5,-450"/>
<text text-anchor="middle" x="313" y="-438" font-family="Helvetica,sans-Serif" font-size="10.00">fiftyoneDegreesIpiCgResult</text>
</a>
</g>
</g>
<!-- Node17&#45;&gt;Node16 -->
<g id="edge22_Node000016_Node000017" class="edge">
<title>Node17&#45;&gt;Node16</title>
<g id="a_edge22_Node000016_Node000017"><a xlink:title=" ">
<path fill="none" stroke="#9a32cd" stroke-dasharray="5,2" d="M398.11,-431.06C431.68,-427.24 470.68,-422.74 506,-418.5 517.6,-417.11 529.92,-415.59 541.87,-414.1"/>
<polygon fill="#9a32cd" stroke="#9a32cd" points="397.41,-427.62 387.87,-432.23 398.2,-434.57 397.41,-427.62"/>
</a>
</g>
<text text-anchor="start" x="435" y="-434" font-family="Helvetica,sans-Serif" font-size="10.00" fill="grey">graphResult</text>
</g>
<!-- Node18 -->
<g id="Node000018" class="node">
<title>Node18</title>
<g id="a_Node000018"><a xlink:href="structfiftyone_degrees_ip_address.html" target="_top" xlink:title="The structure to hold a IP Address in byte array format.">
<polygon fill="white" stroke="#666666" points="384,-410 242,-410 242,-391 384,-391 384,-410"/>
<text text-anchor="middle" x="313" y="-398" font-family="Helvetica,sans-Serif" font-size="10.00">fiftyoneDegreesIpAddress</text>
</a>
</g>
</g>
<!-- Node18&#45;&gt;Node16 -->
<g id="edge23_Node000016_Node000018" class="edge">
<title>Node18&#45;&gt;Node16</title>
<g id="a_edge23_Node000016_Node000018"><a xlink:title=" ">
<path fill="none" stroke="#9a32cd" stroke-dasharray="5,2" d="M394.67,-400.32C428.99,-400.4 469.46,-400.7 506,-401.5 517.6,-401.75 529.92,-402.13 541.87,-402.56"/>
<polygon fill="#9a32cd" stroke="#9a32cd" points="394.23,-396.82 384.23,-400.3 394.22,-403.82 394.23,-396.82"/>
</a>
</g>
<text text-anchor="start" x="425" y="-407" font-family="Helvetica,sans-Serif" font-size="10.00" fill="grey">targetIpAddress</text>
</g>
</g>
</svg>
