<?xml version="1.0" encoding="UTF-8" standalone="no"?>
<!DOCTYPE svg PUBLIC "-//W3C//DTD SVG 1.1//EN"
 "http://www.w3.org/Graphics/SVG/1.1/DTD/svg11.dtd">
<!-- Generated by graphviz version 2.43.0 (0)
 -->
<!-- Title: allocationTree Pages: 1 -->
<svg width="308pt" height="142pt"
 viewBox="0.00 0.00 307.50 142.00" xmlns="http://www.w3.org/2000/svg" xmlns:xlink="http://www.w3.org/1999/xlink">
<g id="graph0" class="graph" transform="scale(1 1) rotate(0) translate(4 138)">
<title>allocationTree</title>
<!-- Node1 -->
<g id="Node000001" class="node">
<title>Node1</title>
<g id="a_Node000001"><a xlink:title=" ">
<polygon fill="#999999" stroke="#666666" points="85,-33 0,-33 0,-14 85,-14 85,-33"/>
<text text-anchor="middle" x="42.5" y="-21" font-family="Helvetica,sans-Serif" font-size="10.00">allocationTree</text>
</a>
</g>
</g>
<!-- Node2 -->
<g id="Node000002" class="node">
<title>Node2</title>
<g id="a_Node000002"><a xlink:href="structfiftyone_degrees_tree_root.html" target="_top" xlink:title="Tree root structure defining the beginning of the tree.">
<polygon fill="white" stroke="#666666" points="193,-134 56,-134 56,-115 193,-115 193,-134"/>
<text text-anchor="middle" x="124.5" y="-122" font-family="Helvetica,sans-Serif" font-size="10.00">fiftyoneDegreesTreeRoot</text>
</a>
</g>
</g>
<!-- Node2&#45;&gt;Node1 -->
<g id="edge1_Node000001_Node000002" class="edge">
<title>Node2&#45;&gt;Node1</title>
<g id="a_edge1_Node000001_Node000002"><a xlink:title=" ">
<path fill="none" stroke="#9a32cd" stroke-dasharray="5,2" d="M98.1,-109.71C92.54,-106.05 87,-101.78 82.5,-97 64.16,-77.55 51.35,-48.09 45.72,-33.43"/>
<polygon fill="#9a32cd" stroke="#9a32cd" points="96.34,-112.74 106.71,-114.92 99.97,-106.75 96.34,-112.74"/>
</a>
</g>
<text text-anchor="start" x="86" y="-78" font-family="Helvetica,sans-Serif" font-size="10.00" fill="grey">roots</text>
</g>
<!-- Node3 -->
<g id="Node000003" class="node">
<title>Node3</title>
<g id="a_Node000003"><a xlink:href="structfiftyone_degrees_tree_node.html" target="_top" xlink:title="Node structure defining a single node in the tree.">
<polygon fill="white" stroke="#666666" points="243.5,-33 103.5,-33 103.5,-14 243.5,-14 243.5,-33"/>
<text text-anchor="middle" x="173.5" y="-21" font-family="Helvetica,sans-Serif" font-size="10.00">fiftyoneDegreesTreeNode</text>
</a>
</g>
</g>
<!-- Node2&#45;&gt;Node3 -->
<g id="edge3_Node000003_Node000002" class="edge">
<title>Node2&#45;&gt;Node3</title>
<g id="a_edge3_Node000003_Node000002"><a xlink:title=" ">
<path fill="none" stroke="#9a32cd" stroke-dasharray="5,2" d="M119.07,-104.85C116.63,-92.87 115.48,-77.31 121.5,-65 128.53,-50.61 143.43,-39.84 155.48,-33.04"/>
<polygon fill="#9a32cd" stroke="#9a32cd" points="115.7,-105.78 121.5,-114.64 122.49,-104.09 115.7,-105.78"/>
</a>
</g>
<text text-anchor="start" x="124.5" y="-78" font-family="Helvetica,sans-Serif" font-size="10.00" fill="grey">root</text>
</g>
<!-- Node3&#45;&gt;Node2 -->
<g id="edge2_Node000002_Node000003" class="edge">
<title>Node3&#45;&gt;Node2</title>
<g id="a_edge2_Node000002_Node000003"><a xlink:title=" ">
<path fill="none" stroke="#9a32cd" stroke-dasharray="5,2" d="M170.46,-43.37C167.38,-58.66 161.6,-80.33 151.5,-97 147.35,-103.85 141.02,-110.19 135.54,-114.95"/>
<polygon fill="#9a32cd" stroke="#9a32cd" points="173.98,-43.57 172.31,-33.1 167.09,-42.32 173.98,-43.57"/>
</a>
</g>
<text text-anchor="start" x="167.5" y="-86" font-family="Helvetica,sans-Serif" font-size="10.00" fill="grey">empty</text>
<text text-anchor="start" x="167.5" y="-71" font-family="Helvetica,sans-Serif" font-size="10.00" fill="grey">root</text>
</g>
<!-- Node3&#45;&gt;Node3 -->
<g id="edge4_Node000003_Node000003" class="edge">
<title>Node3&#45;&gt;Node3</title>
<g id="a_edge4_Node000003_Node000003"><a xlink:title=" ">
<path fill="none" stroke="#9a32cd" stroke-dasharray="5,2" d="M221.11,-33.82C242.73,-34.86 261.5,-31.42 261.5,-23.5 261.5,-14.37 236.53,-11.19 211.03,-13.97"/>
<polygon fill="#9a32cd" stroke="#9a32cd" points="221.28,-30.32 211.03,-33.03 220.73,-37.3 221.28,-30.32"/>
</a>
</g>
<text text-anchor="start" x="264.5" y="-35.5" font-family="Helvetica,sans-Serif" font-size="10.00" fill="grey">left</text>
<text text-anchor="start" x="264.5" y="-20.5" font-family="Helvetica,sans-Serif" font-size="10.00" fill="grey">parent</text>
<text text-anchor="start" x="264.5" y="-5.5" font-family="Helvetica,sans-Serif" font-size="10.00" fill="grey">right</text>
</g>
</g>
</svg>
