<?xml version="1.0" encoding="UTF-8" standalone="no"?>
<!DOCTYPE svg PUBLIC "-//W3C//DTD SVG 1.1//EN"
 "http://www.w3.org/Graphics/SVG/1.1/DTD/svg11.dtd">
<!-- Generated by graphviz version 2.43.0 (0)
 -->
<!-- Title: memoryThreadState Pages: 1 -->
<svg width="585pt" height="265pt"
 viewBox="0.00 0.00 585.00 265.00" xmlns="http://www.w3.org/2000/svg" xmlns:xlink="http://www.w3.org/1999/xlink">
<g id="graph0" class="graph" transform="scale(1 1) rotate(0) translate(4 261)">
<title>memoryThreadState</title>
<!-- Node1 -->
<g id="Node000001" class="node">
<title>Node1</title>
<g id="a_Node000001"><a xlink:title="Individual thread state where all members are exclusively accessed by a single test thread.">
<polygon fill="#999999" stroke="#666666" points="280.5,-19 163.5,-19 163.5,0 280.5,0 280.5,-19"/>
<text text-anchor="middle" x="222" y="-7" font-family="Helvetica,sans-Serif" font-size="10.00">memoryThreadState</text>
</a>
</g>
</g>
<!-- Node2 -->
<g id="Node000002" class="node">
<title>Node2</title>
<g id="a_Node000002"><a xlink:href="structmemory_state.html" target="_top" xlink:title="Shared test state.">
<polygon fill="white" stroke="#666666" points="104.5,-96.5 21.5,-96.5 21.5,-77.5 104.5,-77.5 104.5,-96.5"/>
<text text-anchor="middle" x="63" y="-84.5" font-family="Helvetica,sans-Serif" font-size="10.00">memoryState</text>
</a>
</g>
</g>
<!-- Node2&#45;&gt;Node1 -->
<g id="edge1_Node000001_Node000002" class="edge">
<title>Node2&#45;&gt;Node1</title>
<g id="a_edge1_Node000001_Node000002"><a xlink:title=" ">
<path fill="none" stroke="#9a32cd" stroke-dasharray="5,2" d="M90.29,-73.04C122.78,-57.62 176.11,-32.29 203.89,-19.1"/>
<polygon fill="#9a32cd" stroke="#9a32cd" points="88.46,-70.03 80.93,-77.49 91.46,-76.36 88.46,-70.03"/>
</a>
</g>
<text text-anchor="start" x="170.5" y="-42.5" font-family="Helvetica,sans-Serif" font-size="10.00" fill="grey">main</text>
</g>
<!-- Node3 -->
<g id="Node000003" class="node">
<title>Node3</title>
<g id="a_Node000003"><a xlink:href="structfiftyone_degrees_resource_manager.html" target="_top" xlink:title="Manager structure used to provide access to a shared and changing resource.">
<polygon fill="white" stroke="#666666" points="182,-179.5 0,-179.5 0,-160.5 182,-160.5 182,-179.5"/>
<text text-anchor="middle" x="91" y="-167.5" font-family="Helvetica,sans-Serif" font-size="10.00">fiftyoneDegreesResourceManager</text>
</a>
</g>
</g>
<!-- Node3&#45;&gt;Node2 -->
<g id="edge2_Node000002_Node000003" class="edge">
<title>Node3&#45;&gt;Node2</title>
<g id="a_edge2_Node000002_Node000003"><a xlink:title=" ">
<path fill="none" stroke="#9a32cd" stroke-dasharray="5,2" d="M73.7,-152.77C69.78,-148.09 66.15,-142.7 64,-137 58.96,-123.62 60.1,-106.7 61.49,-96.65"/>
<polygon fill="#9a32cd" stroke="#9a32cd" points="71.4,-155.43 80.79,-160.33 76.5,-150.65 71.4,-155.43"/>
</a>
</g>
<text text-anchor="start" x="67" y="-125.5" font-family="Helvetica,sans-Serif" font-size="10.00" fill="grey">manager</text>
</g>
<!-- Node4 -->
<g id="Node000004" class="node">
<title>Node4</title>
<g id="a_Node000004"><a xlink:href="structfiftyone_degrees_resource_handle.html" target="_top" xlink:title="Handle for a shared resource.">
<polygon fill="white" stroke="#666666" points="295.5,-96.5 122.5,-96.5 122.5,-77.5 295.5,-77.5 295.5,-96.5"/>
<text text-anchor="middle" x="209" y="-84.5" font-family="Helvetica,sans-Serif" font-size="10.00">fiftyoneDegreesResourceHandle</text>
</a>
</g>
</g>
<!-- Node3&#45;&gt;Node4 -->
<g id="edge5_Node000004_Node000003" class="edge">
<title>Node3&#45;&gt;Node4</title>
<g id="a_edge5_Node000004_Node000003"><a xlink:title=" ">
<path fill="none" stroke="#9a32cd" stroke-dasharray="5,2" d="M102.43,-152.03C110.09,-141.67 120.96,-128.79 133,-120 147.23,-109.62 165.33,-101.83 180.29,-96.53"/>
<polygon fill="#9a32cd" stroke="#9a32cd" points="99.49,-150.12 96.57,-160.3 105.2,-154.16 99.49,-150.12"/>
</a>
</g>
<text text-anchor="start" x="136" y="-125.5" font-family="Helvetica,sans-Serif" font-size="10.00" fill="grey">manager</text>
</g>
<!-- Node4&#45;&gt;Node3 -->
<g id="edge3_Node000003_Node000004" class="edge">
<title>Node4&#45;&gt;Node3</title>
<g id="a_edge3_Node000003_Node000004"><a xlink:title=" ">
<path fill="none" stroke="#9a32cd" stroke-dasharray="5,2" d="M204.73,-106.22C201.45,-116.52 195.93,-128.92 187,-137 174.49,-148.31 157.86,-155.64 141.97,-160.38"/>
<polygon fill="#9a32cd" stroke="#9a32cd" points="208.12,-107.08 207.38,-96.51 201.37,-105.24 208.12,-107.08"/>
</a>
</g>
<text text-anchor="start" x="202.5" y="-125.5" font-family="Helvetica,sans-Serif" font-size="10.00" fill="grey">active</text>
</g>
<!-- Node5 -->
<g id="Node000005" class="node">
<title>Node5</title>
<g id="a_Node000005"><a xlink:href="structfiftyone_degrees_interlock_double_width.html" target="_top" xlink:title="Double width (64 or 128 depending on the architecture) compare and exchange.">
<polygon fill="white" stroke="#666666" points="337.5,-185 200.5,-185 200.5,-155 337.5,-155 337.5,-185"/>
<text text-anchor="start" x="208.5" y="-173" font-family="Helvetica,sans-Serif" font-size="10.00">fiftyoneDegreesInterlock</text>
<text text-anchor="middle" x="269" y="-162" font-family="Helvetica,sans-Serif" font-size="10.00">DoubleWidth</text>
</a>
</g>
</g>
<!-- Node5&#45;&gt;Node4 -->
<g id="edge4_Node000004_Node000005" class="edge">
<title>Node5&#45;&gt;Node4</title>
<g id="a_edge4_Node000004_Node000005"><a xlink:title=" ">
<path fill="none" stroke="#9a32cd" stroke-dasharray="5,2" d="M260.92,-145.4C257.39,-136.92 252.73,-127.6 247,-120 240.04,-110.77 229.95,-102.44 221.92,-96.59"/>
<polygon fill="#9a32cd" stroke="#9a32cd" points="257.68,-146.72 264.54,-154.79 264.21,-144.2 257.68,-146.72"/>
</a>
</g>
<text text-anchor="start" x="260.5" y="-125.5" font-family="Helvetica,sans-Serif" font-size="10.00" fill="grey">counter</text>
</g>
<!-- Node6 -->
<g id="Node000006" class="node">
<title>Node6</title>
<g id="a_Node000006"><a xlink:href="structfiftyone_degrees_result_ipi_array.html" target="_top" xlink:title="Array of items of type fiftyoneDegreesResultIpi used to easily access and track the size of the array...">
<polygon fill="white" stroke="#666666" points="471.5,-102 334.5,-102 334.5,-72 471.5,-72 471.5,-102"/>
<text text-anchor="start" x="342.5" y="-90" font-family="Helvetica,sans-Serif" font-size="10.00">fiftyoneDegreesResultIpi</text>
<text text-anchor="middle" x="403" y="-79" font-family="Helvetica,sans-Serif" font-size="10.00">Array</text>
</a>
</g>
</g>
<!-- Node6&#45;&gt;Node1 -->
<g id="edge6_Node000001_Node000006" class="edge">
<title>Node6&#45;&gt;Node1</title>
<g id="a_edge6_Node000001_Node000006"><a xlink:title=" ">
<path fill="none" stroke="#9a32cd" stroke-dasharray="5,2" d="M359.81,-67.99C322.71,-52.51 270.84,-30.87 242.5,-19.05"/>
<polygon fill="#9a32cd" stroke="#9a32cd" points="358.8,-71.36 369.38,-71.98 361.5,-64.9 358.8,-71.36"/>
</a>
</g>
<text text-anchor="start" x="327" y="-42.5" font-family="Helvetica,sans-Serif" font-size="10.00" fill="grey">results</text>
</g>
<!-- Node7 -->
<g id="Node000007" class="node">
<title>Node7</title>
<g id="a_Node000007"><a xlink:href="structfiftyone_degrees_result_ipi.html" target="_top" xlink:title="Singular IP address result returned by a detection process method.">
<polygon fill="white" stroke="#666666" points="492.5,-179.5 355.5,-179.5 355.5,-160.5 492.5,-160.5 492.5,-179.5"/>
<text text-anchor="middle" x="424" y="-167.5" font-family="Helvetica,sans-Serif" font-size="10.00">fiftyoneDegreesResultIpi</text>
</a>
</g>
</g>
<!-- Node7&#45;&gt;Node6 -->
<g id="edge7_Node000006_Node000007" class="edge">
<title>Node7&#45;&gt;Node6</title>
<g id="a_edge7_Node000006_Node000007"><a xlink:title=" ">
<path fill="none" stroke="#9a32cd" stroke-dasharray="5,2" d="M419.16,-150.34C415.34,-135.61 410.1,-115.38 406.63,-102.01"/>
<polygon fill="#9a32cd" stroke="#9a32cd" points="415.85,-151.53 421.75,-160.33 422.63,-149.77 415.85,-151.53"/>
</a>
</g>
<text text-anchor="start" x="419" y="-125.5" font-family="Helvetica,sans-Serif" font-size="10.00" fill="grey">items</text>
</g>
<!-- Node8 -->
<g id="Node000008" class="node">
<title>Node8</title>
<g id="a_Node000008"><a xlink:href="structfiftyone_degrees_ipi_cg_result.html" target="_top" xlink:title="The evaluation result from graph collection.">
<polygon fill="white" stroke="#666666" points="416.5,-257 267.5,-257 267.5,-238 416.5,-238 416.5,-257"/>
<text text-anchor="middle" x="342" y="-245" font-family="Helvetica,sans-Serif" font-size="10.00">fiftyoneDegreesIpiCgResult</text>
</a>
</g>
</g>
<!-- Node8&#45;&gt;Node7 -->
<g id="edge8_Node000007_Node000008" class="edge">
<title>Node8&#45;&gt;Node7</title>
<g id="a_edge8_Node000007_Node000008"><a xlink:title=" ">
<path fill="none" stroke="#9a32cd" stroke-dasharray="5,2" d="M358.94,-230.91C375.83,-215.35 401.17,-192.02 414.7,-179.56"/>
<polygon fill="#9a32cd" stroke="#9a32cd" points="356.39,-228.49 351.41,-237.84 361.13,-233.64 356.39,-228.49"/>
</a>
</g>
<text text-anchor="start" x="391.5" y="-208.5" font-family="Helvetica,sans-Serif" font-size="10.00" fill="grey">graphResult</text>
</g>
<!-- Node9 -->
<g id="Node000009" class="node">
<title>Node9</title>
<g id="a_Node000009"><a xlink:href="structfiftyone_degrees_ip_address.html" target="_top" xlink:title="The structure to hold a IP Address in byte array format.">
<polygon fill="white" stroke="#666666" points="577,-257 435,-257 435,-238 577,-238 577,-257"/>
<text text-anchor="middle" x="506" y="-245" font-family="Helvetica,sans-Serif" font-size="10.00">fiftyoneDegreesIpAddress</text>
</a>
</g>
</g>
<!-- Node9&#45;&gt;Node7 -->
<g id="edge9_Node000007_Node000009" class="edge">
<title>Node9&#45;&gt;Node7</title>
<g id="a_edge9_Node000007_Node000009"><a xlink:title=" ">
<path fill="none" stroke="#9a32cd" stroke-dasharray="5,2" d="M489.06,-230.91C472.17,-215.35 446.83,-192.02 433.3,-179.56"/>
<polygon fill="#9a32cd" stroke="#9a32cd" points="486.87,-233.64 496.59,-237.84 491.61,-228.49 486.87,-233.64"/>
</a>
</g>
<text text-anchor="start" x="480" y="-208.5" font-family="Helvetica,sans-Serif" font-size="10.00" fill="grey">targetIpAddress</text>
</g>
</g>
</svg>
