<?xml version="1.0" encoding="UTF-8" standalone="no"?>
<!DOCTYPE svg PUBLIC "-//W3C//DTD SVG 1.1//EN"
 "http://www.w3.org/Graphics/SVG/1.1/DTD/svg11.dtd">
<!-- Generated by graphviz version 2.43.0 (0)
 -->
<!-- Title: fiftyoneDegreesIpiCgMemberNode Pages: 1 -->
<svg width="328pt" height="140pt"
 viewBox="0.00 0.00 328.00 140.00" xmlns="http://www.w3.org/2000/svg" xmlns:xlink="http://www.w3.org/1999/xlink">
<g id="graph0" class="graph" transform="scale(1 1) rotate(0) translate(4 136)">
<title>fiftyoneDegreesIpiCgMemberNode</title>
<!-- Node1 -->
<g id="Node000001" class="node">
<title>Node1</title>
<g id="a_Node000001"><a xlink:title="Data structure used for the values collection.">
<polygon fill="#999999" stroke="#666666" points="248,-19 63,-19 63,0 248,0 248,-19"/>
<text text-anchor="middle" x="155.5" y="-7" font-family="Helvetica,sans-Serif" font-size="10.00">fiftyoneDegreesIpiCgMemberNode</text>
</a>
</g>
</g>
<!-- Node2 -->
<g id="Node000002" class="node">
<title>Node2</title>
<g id="a_Node000002"><a xlink:href="structfiftyone_degrees_collection_header.html" target="_top" xlink:title="Collection header structure which defines the size and location of the collection data.">
<polygon fill="white" stroke="#666666" points="143,-132 0,-132 0,-102 143,-102 143,-132"/>
<text text-anchor="start" x="8" y="-120" font-family="Helvetica,sans-Serif" font-size="10.00">fiftyoneDegreesCollection</text>
<text text-anchor="middle" x="71.5" y="-109" font-family="Helvetica,sans-Serif" font-size="10.00">Header</text>
</a>
</g>
</g>
<!-- Node2&#45;&gt;Node1 -->
<g id="edge1_Node000001_Node000002" class="edge">
<title>Node2&#45;&gt;Node1</title>
<g id="a_edge1_Node000001_Node000002"><a xlink:title=" ">
<path fill="none" stroke="#9a32cd" stroke-dasharray="5,2" d="M89.18,-93.8C107.72,-70.51 135.91,-35.1 148.73,-19"/>
<polygon fill="#9a32cd" stroke="#9a32cd" points="86.32,-91.77 82.83,-101.77 91.8,-96.13 86.32,-91.77"/>
</a>
</g>
<text text-anchor="start" x="136.5" y="-57.5" font-family="Helvetica,sans-Serif" font-size="10.00" fill="grey">collection</text>
</g>
<!-- Node3 -->
<g id="Node000003" class="node">
<title>Node3</title>
<g id="a_Node000003"><a xlink:href="structfiftyone_degrees_ipi_cg_member.html" target="_top" xlink:title="DATA STRUCTURES.">
<polygon fill="white" stroke="#666666" points="320,-126.5 161,-126.5 161,-107.5 320,-107.5 320,-126.5"/>
<text text-anchor="middle" x="240.5" y="-114.5" font-family="Helvetica,sans-Serif" font-size="10.00">fiftyoneDegreesIpiCgMember</text>
</a>
</g>
</g>
<!-- Node3&#45;&gt;Node1 -->
<g id="edge2_Node000001_Node000003" class="edge">
<title>Node3&#45;&gt;Node1</title>
<g id="a_edge2_Node000001_Node000003"><a xlink:title=" ">
<path fill="none" stroke="#9a32cd" stroke-dasharray="5,2" d="M231.95,-98.16C223.29,-81.22 208.73,-55.65 191.5,-37 185.18,-30.16 176.88,-23.91 169.84,-19.2"/>
<polygon fill="#9a32cd" stroke="#9a32cd" points="228.98,-100.04 236.56,-107.45 235.25,-96.93 228.98,-100.04"/>
</a>
</g>
<text text-anchor="start" x="227" y="-72.5" font-family="Helvetica,sans-Serif" font-size="10.00" fill="grey">lowFlag</text>
<text text-anchor="start" x="227" y="-57.5" font-family="Helvetica,sans-Serif" font-size="10.00" fill="grey">spanIndex</text>
<text text-anchor="start" x="227" y="-42.5" font-family="Helvetica,sans-Serif" font-size="10.00" fill="grey">value</text>
</g>
</g>
</svg>
