<?xml version="1.0" encoding="UTF-8" standalone="no"?>
<!DOCTYPE svg PUBLIC "-//W3C//DTD SVG 1.1//EN"
 "http://www.w3.org/Graphics/SVG/1.1/DTD/svg11.dtd">
<!-- Generated by graphviz version 2.43.0 (0)
 -->
<!-- Title: performanceThreadState Pages: 1 -->
<svg width="1416pt" height="634pt"
 viewBox="0.00 0.00 1416.00 634.00" xmlns="http://www.w3.org/2000/svg" xmlns:xlink="http://www.w3.org/1999/xlink">
<g id="graph0" class="graph" transform="scale(1 1) rotate(0) translate(4 630)">
<title>performanceThreadState</title>
<!-- Node1 -->
<g id="node1" class="node">
<title>Node1</title>
<g id="a_node1"><a xlink:title="Individual thread performance state where all members are exclusively accessed by a single test threa...">
<polygon fill="#bfbfbf" stroke="black" points="1270,-192.5 1270,-211.5 1408,-211.5 1408,-192.5 1270,-192.5"/>
<text text-anchor="middle" x="1339" y="-199.5" font-family="Helvetica,sans-Serif" font-size="10.00">performanceThreadState</text>
</a>
</g>
</g>
<!-- Node2 -->
<g id="node2" class="node">
<title>Node2</title>
<g id="a_node2"><a xlink:href="structperformance_state.html" target="_top" xlink:title="Shared performance state.">
<polygon fill="none" stroke="black" points="1045.5,-254.5 1045.5,-273.5 1149.5,-273.5 1149.5,-254.5 1045.5,-254.5"/>
<text text-anchor="middle" x="1097.5" y="-261.5" font-family="Helvetica,sans-Serif" font-size="10.00">performanceState</text>
</a>
</g>
</g>
<!-- Node2&#45;&gt;Node1 -->
<g id="edge1" class="edge">
<title>Node2&#45;&gt;Node1</title>
<path fill="none" stroke="#9a32cd" stroke-dasharray="5,2" d="M1128.63,-250.31C1144.78,-243.42 1165.18,-235.4 1184,-230 1211.69,-222.06 1242.85,-215.9 1269.86,-211.4"/>
<polygon fill="#9a32cd" stroke="#9a32cd" points="1126.95,-247.23 1119.18,-254.43 1129.74,-253.65 1126.95,-247.23"/>
<text text-anchor="middle" x="1218" y="-244" font-family="Helvetica,sans-Serif" font-size="10.00"> main</text>
<text text-anchor="middle" x="1218" y="-233" font-family="Helvetica,sans-Serif" font-size="10.00">state</text>
</g>
<!-- Node7 -->
<g id="node7" class="node">
<title>Node7</title>
<g id="a_node7"><a xlink:href="structthread_state.html" target="_top" xlink:title="State specific to a single thread.">
<polygon fill="none" stroke="black" points="1302,-305.5 1302,-324.5 1376,-324.5 1376,-305.5 1302,-305.5"/>
<text text-anchor="middle" x="1339" y="-312.5" font-family="Helvetica,sans-Serif" font-size="10.00">threadState</text>
</a>
</g>
</g>
<!-- Node2&#45;&gt;Node7 -->
<g id="edge15" class="edge">
<title>Node2&#45;&gt;Node7</title>
<path fill="none" stroke="#9a32cd" stroke-dasharray="5,2" d="M1153.26,-275.66C1198.76,-285.35 1262.22,-298.86 1301.67,-307.26"/>
<polygon fill="#9a32cd" stroke="#9a32cd" points="1153.78,-272.19 1143.27,-273.53 1152.32,-279.04 1153.78,-272.19"/>
<text text-anchor="middle" x="1218" y="-298" font-family="Helvetica,sans-Serif" font-size="10.00"> mainState</text>
</g>
<!-- Node3 -->
<g id="node3" class="node">
<title>Node3</title>
<g id="a_node3"><a xlink:href="structfiftyone_degrees_resource_manager.html" target="_top" xlink:title="Manager structure used to provide access to a shared and changing resource.">
<polygon fill="none" stroke="black" points="430,-477.5 430,-496.5 612,-496.5 612,-477.5 430,-477.5"/>
<text text-anchor="middle" x="521" y="-484.5" font-family="Helvetica,sans-Serif" font-size="10.00">fiftyoneDegreesResourceManager</text>
</a>
</g>
</g>
<!-- Node3&#45;&gt;Node2 -->
<g id="edge2" class="edge">
<title>Node3&#45;&gt;Node2</title>
<path fill="none" stroke="#9a32cd" stroke-dasharray="5,2" d="M589.87,-475.65C709.38,-454.4 950.51,-405.41 1011,-347 1023.3,-335.12 1017.79,-325.91 1029,-313 1043.33,-296.49 1064.24,-282.41 1078.98,-273.63"/>
<polygon fill="#9a32cd" stroke="#9a32cd" points="588.97,-472.26 579.73,-477.44 590.19,-479.15 588.97,-472.26"/>
<text text-anchor="middle" x="818.5" y="-449" font-family="Helvetica,sans-Serif" font-size="10.00"> manager</text>
</g>
<!-- Node4 -->
<g id="node4" class="node">
<title>Node4</title>
<g id="a_node4"><a xlink:href="structfiftyone_degrees_resource_handle.html" target="_top" xlink:title="Handle for a shared resource.">
<polygon fill="none" stroke="black" points="732,-514.5 732,-533.5 905,-533.5 905,-514.5 732,-514.5"/>
<text text-anchor="middle" x="818.5" y="-521.5" font-family="Helvetica,sans-Serif" font-size="10.00">fiftyoneDegreesResourceHandle</text>
</a>
</g>
</g>
<!-- Node3&#45;&gt;Node4 -->
<g id="edge4" class="edge">
<title>Node3&#45;&gt;Node4</title>
<path fill="none" stroke="#9a32cd" stroke-dasharray="5,2" d="M560.54,-499.56C580.95,-505.64 606.58,-512.4 630,-516 663.01,-521.07 699.64,-523.37 731.71,-524.29"/>
<polygon fill="#9a32cd" stroke="#9a32cd" points="561.55,-496.21 550.97,-496.64 559.51,-502.9 561.55,-496.21"/>
<text text-anchor="middle" x="670.5" y="-526" font-family="Helvetica,sans-Serif" font-size="10.00"> manager</text>
</g>
<!-- Node12 -->
<g id="node12" class="node">
<title>Node12</title>
<g id="a_node12"><a xlink:href="class_resource_manager.html" target="_top" xlink:title=" ">
<polygon fill="none" stroke="black" points="1045.5,-482.5 1045.5,-501.5 1149.5,-501.5 1149.5,-482.5 1045.5,-482.5"/>
<text text-anchor="middle" x="1097.5" y="-489.5" font-family="Helvetica,sans-Serif" font-size="10.00">ResourceManager</text>
</a>
</g>
</g>
<!-- Node3&#45;&gt;Node12 -->
<g id="edge19" class="edge">
<title>Node3&#45;&gt;Node12</title>
<path fill="none" stroke="#9a32cd" stroke-dasharray="5,2" d="M622.3,-487.87C745.74,-488.95 950.63,-490.73 1045.45,-491.56"/>
<polygon fill="#9a32cd" stroke="#9a32cd" points="622.11,-484.37 612.08,-487.78 622.05,-491.37 622.11,-484.37"/>
<text text-anchor="middle" x="818.5" y="-493" font-family="Helvetica,sans-Serif" font-size="10.00"> manager</text>
</g>
<!-- Node4&#45;&gt;Node3 -->
<g id="edge3" class="edge">
<title>Node4&#45;&gt;Node3</title>
<path fill="none" stroke="#9a32cd" stroke-dasharray="5,2" d="M758.86,-512.65C743.34,-509.89 726.57,-507.13 711,-505 678.83,-500.61 643.44,-496.93 612.06,-494.07"/>
<polygon fill="#9a32cd" stroke="#9a32cd" points="758.39,-516.13 768.85,-514.46 759.64,-509.24 758.39,-516.13"/>
<text text-anchor="middle" x="670.5" y="-508" font-family="Helvetica,sans-Serif" font-size="10.00"> active</text>
</g>
<!-- Node4&#45;&gt;Node12 -->
<g id="edge20" class="edge">
<title>Node4&#45;&gt;Node12</title>
<path fill="none" stroke="#9a32cd" stroke-dasharray="5,2" d="M911.82,-513.33C956.33,-508.19 1008.01,-502.22 1045.37,-497.91"/>
<polygon fill="#9a32cd" stroke="#9a32cd" points="911.39,-509.86 901.86,-514.49 912.19,-516.81 911.39,-509.86"/>
<text text-anchor="middle" x="968.5" y="-513" font-family="Helvetica,sans-Serif" font-size="10.00"> resourceHandle</text>
</g>
<!-- Node5 -->
<g id="node5" class="node">
<title>Node5</title>
<g id="a_node5"><a xlink:href="structfiftyone_degrees_interlock_double_width.html" target="_top" xlink:title="Double width (64 or 128 depending on the architecture) compare and exchange.">
<polygon fill="none" stroke="black" points="452.5,-557 452.5,-587 589.5,-587 589.5,-557 452.5,-557"/>
<text text-anchor="start" x="460.5" y="-575" font-family="Helvetica,sans-Serif" font-size="10.00">fiftyoneDegreesInterlock</text>
<text text-anchor="middle" x="521" y="-564" font-family="Helvetica,sans-Serif" font-size="10.00">DoubleWidth</text>
</a>
</g>
</g>
<!-- Node5&#45;&gt;Node4 -->
<g id="edge5" class="edge">
<title>Node5&#45;&gt;Node4</title>
<path fill="none" stroke="#9a32cd" stroke-dasharray="5,2" d="M599.9,-559.35C649.77,-551.25 713.44,-540.9 759,-533.5"/>
<polygon fill="#9a32cd" stroke="#9a32cd" points="599.1,-555.93 589.79,-560.99 600.23,-562.84 599.1,-555.93"/>
<text text-anchor="middle" x="670.5" y="-556" font-family="Helvetica,sans-Serif" font-size="10.00"> counter</text>
</g>
<!-- Node6 -->
<g id="node6" class="node">
<title>Node6</title>
<g id="a_node6"><a xlink:href="structshared_string_node.html" target="_top" xlink:title=" ">
<polygon fill="none" stroke="black" points="766.5,-249.5 766.5,-268.5 870.5,-268.5 870.5,-249.5 766.5,-249.5"/>
<text text-anchor="middle" x="818.5" y="-256.5" font-family="Helvetica,sans-Serif" font-size="10.00">sharedStringNode</text>
</a>
</g>
</g>
<!-- Node6&#45;&gt;Node2 -->
<g id="edge6" class="edge">
<title>Node6&#45;&gt;Node2</title>
<path fill="none" stroke="#9a32cd" stroke-dasharray="5,2" d="M880.85,-260.11C930.2,-261 998.74,-262.24 1045.2,-263.07"/>
<polygon fill="#9a32cd" stroke="#9a32cd" points="880.69,-256.6 870.63,-259.92 880.56,-263.6 880.69,-256.6"/>
<text text-anchor="middle" x="968.5" y="-276" font-family="Helvetica,sans-Serif" font-size="10.00"> sharedStringLast</text>
<text text-anchor="middle" x="968.5" y="-265" font-family="Helvetica,sans-Serif" font-size="10.00">sharedStringFirst</text>
</g>
<!-- Node6&#45;&gt;Node6 -->
<g id="edge7" class="edge">
<title>Node6&#45;&gt;Node6</title>
<path fill="none" stroke="#9a32cd" stroke-dasharray="5,2" d="M790.87,-277.65C792.03,-282.94 801.24,-287 818.5,-287 844.8,-287 852.41,-277.57 841.31,-268.76"/>
<polygon fill="#9a32cd" stroke="#9a32cd" points="794.01,-279.22 795.69,-268.76 787.85,-275.89 794.01,-279.22"/>
<text text-anchor="middle" x="818.5" y="-290" font-family="Helvetica,sans-Serif" font-size="10.00"> next</text>
</g>
<!-- Node7&#45;&gt;Node2 -->
<g id="edge8" class="edge">
<title>Node7&#45;&gt;Node2</title>
<path fill="none" stroke="#9a32cd" stroke-dasharray="5,2" d="M1317.76,-299.12C1301.15,-287.14 1276.46,-271.68 1252,-265 1218.71,-255.91 1179.82,-255.76 1149.51,-257.83"/>
<polygon fill="#9a32cd" stroke="#9a32cd" points="1315.99,-302.17 1326.1,-305.33 1320.18,-296.55 1315.99,-302.17"/>
<text text-anchor="middle" x="1218" y="-268" font-family="Helvetica,sans-Serif" font-size="10.00"> threadStates</text>
</g>
<!-- Node8 -->
<g id="node8" class="node">
<title>Node8</title>
<g id="a_node8"><a xlink:href="structevidence_node.html" target="_top" xlink:title=" ">
<polygon fill="none" stroke="black" points="1054.5,-322.5 1054.5,-341.5 1140.5,-341.5 1140.5,-322.5 1054.5,-322.5"/>
<text text-anchor="middle" x="1097.5" y="-329.5" font-family="Helvetica,sans-Serif" font-size="10.00">evidenceNode</text>
</a>
</g>
</g>
<!-- Node8&#45;&gt;Node7 -->
<g id="edge9" class="edge">
<title>Node8&#45;&gt;Node7</title>
<path fill="none" stroke="#9a32cd" stroke-dasharray="5,2" d="M1150.77,-328.29C1196.41,-325.05 1261.46,-320.43 1301.64,-317.58"/>
<polygon fill="#9a32cd" stroke="#9a32cd" points="1150.49,-324.8 1140.77,-329 1150.99,-331.78 1150.49,-324.8"/>
<text text-anchor="middle" x="1218" y="-339" font-family="Helvetica,sans-Serif" font-size="10.00"> evidenceLast</text>
<text text-anchor="middle" x="1218" y="-328" font-family="Helvetica,sans-Serif" font-size="10.00">evidenceFirst</text>
</g>
<!-- Node8&#45;&gt;Node8 -->
<g id="edge10" class="edge">
<title>Node8&#45;&gt;Node8</title>
<path fill="none" stroke="#9a32cd" stroke-dasharray="5,2" d="M1075.18,-351.03C1076.4,-356.13 1083.84,-360 1097.5,-360 1118.83,-360 1124.99,-350.57 1116,-341.76"/>
<polygon fill="#9a32cd" stroke="#9a32cd" points="1078.43,-352.34 1079,-341.76 1071.95,-349.67 1078.43,-352.34"/>
<text text-anchor="middle" x="1097.5" y="-363" font-family="Helvetica,sans-Serif" font-size="10.00"> next</text>
</g>
<!-- Node9 -->
<g id="node9" class="node">
<title>Node9</title>
<g id="a_node9"><a xlink:href="structfiftyone_degrees_evidence_key_value_pair_array.html" target="_top" xlink:title="Array of evidence key value pairs and a pointer to the next array if present or NULL of not present.">
<polygon fill="none" stroke="black" points="740.5,-317 740.5,-347 896.5,-347 896.5,-317 740.5,-317"/>
<text text-anchor="start" x="748.5" y="-335" font-family="Helvetica,sans-Serif" font-size="10.00">fiftyoneDegreesEvidenceKey</text>
<text text-anchor="middle" x="818.5" y="-324" font-family="Helvetica,sans-Serif" font-size="10.00">ValuePairArray</text>
</a>
</g>
</g>
<!-- Node9&#45;&gt;Node8 -->
<g id="edge11" class="edge">
<title>Node9&#45;&gt;Node8</title>
<path fill="none" stroke="#9a32cd" stroke-dasharray="5,2" d="M906.7,-332C956.01,-332 1015.43,-332 1054.49,-332"/>
<polygon fill="#9a32cd" stroke="#9a32cd" points="906.66,-328.5 896.66,-332 906.66,-335.5 906.66,-328.5"/>
<text text-anchor="middle" x="968.5" y="-335" font-family="Helvetica,sans-Serif" font-size="10.00"> array</text>
</g>
<!-- Node9&#45;&gt;Node9 -->
<g id="edge14" class="edge">
<title>Node9&#45;&gt;Node9</title>
<path fill="none" stroke="#9a32cd" stroke-dasharray="5,2" d="M792.2,-357.46C795.47,-362.18 804.23,-365.5 818.5,-365.5 841.91,-365.5 850.51,-356.56 844.29,-347.16"/>
<polygon fill="#9a32cd" stroke="#9a32cd" points="795.71,-357.32 792.71,-347.16 788.72,-356.98 795.71,-357.32"/>
<text text-anchor="middle" x="818.5" y="-379.5" font-family="Helvetica,sans-Serif" font-size="10.00"> prev</text>
<text text-anchor="middle" x="818.5" y="-368.5" font-family="Helvetica,sans-Serif" font-size="10.00">next</text>
</g>
<!-- Node10 -->
<g id="node10" class="node">
<title>Node10</title>
<g id="a_node10"><a xlink:href="structfiftyone_degrees_evidence_key_value_pair.html" target="_top" xlink:title="Evidence key value pair structure which combines the prefix, key and value.">
<polygon fill="none" stroke="black" points="443,-317 443,-347 599,-347 599,-317 443,-317"/>
<text text-anchor="start" x="451" y="-335" font-family="Helvetica,sans-Serif" font-size="10.00">fiftyoneDegreesEvidenceKey</text>
<text text-anchor="middle" x="521" y="-324" font-family="Helvetica,sans-Serif" font-size="10.00">ValuePair</text>
</a>
</g>
</g>
<!-- Node10&#45;&gt;Node9 -->
<g id="edge12" class="edge">
<title>Node10&#45;&gt;Node9</title>
<path fill="none" stroke="#9a32cd" stroke-dasharray="5,2" d="M609.37,-332C650.97,-332 700.27,-332 740.44,-332"/>
<polygon fill="#9a32cd" stroke="#9a32cd" points="609.25,-328.5 599.25,-332 609.25,-335.5 609.25,-328.5"/>
<text text-anchor="middle" x="670.5" y="-335" font-family="Helvetica,sans-Serif" font-size="10.00"> items</text>
</g>
<!-- Node11 -->
<g id="node11" class="node">
<title>Node11</title>
<g id="a_node11"><a xlink:href="structfiftyone_degrees_key_value_pair.html" target="_top" xlink:title=" ">
<polygon fill="none" stroke="black" points="182,-322.5 182,-341.5 339,-341.5 339,-322.5 182,-322.5"/>
<text text-anchor="middle" x="260.5" y="-329.5" font-family="Helvetica,sans-Serif" font-size="10.00">fiftyoneDegreesKeyValuePair</text>
</a>
</g>
</g>
<!-- Node11&#45;&gt;Node10 -->
<g id="edge13" class="edge">
<title>Node11&#45;&gt;Node10</title>
<path fill="none" stroke="#9a32cd" stroke-dasharray="5,2" d="M349.23,-332C379.63,-332 413.46,-332 442.94,-332"/>
<polygon fill="#9a32cd" stroke="#9a32cd" points="349.06,-328.5 339.06,-332 349.06,-335.5 349.06,-328.5"/>
<text text-anchor="middle" x="386.5" y="-335" font-family="Helvetica,sans-Serif" font-size="10.00"> item</text>
</g>
<!-- Node12&#45;&gt;Node7 -->
<g id="edge16" class="edge">
<title>Node12&#45;&gt;Node7</title>
<path fill="none" stroke="#9a32cd" stroke-dasharray="5,2" d="M1119.57,-476.43C1167.94,-440.68 1285.83,-353.56 1325.06,-324.56"/>
<polygon fill="#9a32cd" stroke="#9a32cd" points="1117.34,-473.73 1111.38,-482.48 1121.5,-479.35 1117.34,-473.73"/>
<text text-anchor="middle" x="1218" y="-427" font-family="Helvetica,sans-Serif" font-size="10.00"> manager</text>
</g>
<!-- Node13 -->
<g id="node13" class="node">
<title>Node13</title>
<g id="a_node13"><a xlink:href="class_base.html" target="_top" xlink:title="Base test class used to carry out memory leak checks.">
<polygon fill="none" stroke="black" points="798,-579.5 798,-598.5 839,-598.5 839,-579.5 798,-579.5"/>
<text text-anchor="middle" x="818.5" y="-586.5" font-family="Helvetica,sans-Serif" font-size="10.00">Base</text>
</a>
</g>
</g>
<!-- Node13&#45;&gt;Node12 -->
<g id="edge17" class="edge">
<title>Node13&#45;&gt;Node12</title>
<path fill="none" stroke="midnightblue" d="M849,-579.6C886.73,-567.48 954.02,-545.51 1011,-525 1031.96,-517.46 1055.57,-508.3 1072.65,-501.54"/>
<polygon fill="midnightblue" stroke="midnightblue" points="847.63,-576.37 839.18,-582.75 849.77,-583.03 847.63,-576.37"/>
</g>
<!-- Node14 -->
<g id="node14" class="node">
<title>Node14</title>
<g id="a_node14"><a xlink:title=" ">
<polygon fill="none" stroke="#bfbfbf" points="483,-606.5 483,-625.5 559,-625.5 559,-606.5 483,-606.5"/>
<text text-anchor="middle" x="521" y="-613.5" font-family="Helvetica,sans-Serif" font-size="10.00">testing::Test</text>
</a>
</g>
</g>
<!-- Node14&#45;&gt;Node13 -->
<g id="edge18" class="edge">
<title>Node14&#45;&gt;Node13</title>
<path fill="none" stroke="midnightblue" d="M569.23,-611.68C635.02,-605.67 751.37,-595.04 797.68,-590.81"/>
<polygon fill="midnightblue" stroke="midnightblue" points="568.77,-608.21 559.13,-612.61 569.4,-615.18 568.77,-608.21"/>
</g>
<!-- Node15 -->
<g id="node15" class="node">
<title>Node15</title>
<g id="a_node15"><a xlink:href="structfiftyone_degrees_result_ipi_array.html" target="_top" xlink:title="Array of items of type fiftyoneDegreesResultIpi used to easily access and track the size of the array...">
<polygon fill="none" stroke="black" points="1029,-168 1029,-198 1166,-198 1166,-168 1029,-168"/>
<text text-anchor="start" x="1037" y="-186" font-family="Helvetica,sans-Serif" font-size="10.00">fiftyoneDegreesResultIpi</text>
<text text-anchor="middle" x="1097.5" y="-175" font-family="Helvetica,sans-Serif" font-size="10.00">Array</text>
</a>
</g>
</g>
<!-- Node15&#45;&gt;Node1 -->
<g id="edge21" class="edge">
<title>Node15&#45;&gt;Node1</title>
<path fill="none" stroke="#9a32cd" stroke-dasharray="5,2" d="M1176.49,-182.05C1200.74,-182.41 1227.52,-183.5 1252,-186 1265.9,-187.42 1280.92,-189.88 1294.45,-192.46"/>
<polygon fill="#9a32cd" stroke="#9a32cd" points="1176.31,-178.54 1166.27,-181.93 1176.23,-185.54 1176.31,-178.54"/>
<text text-anchor="middle" x="1218" y="-189" font-family="Helvetica,sans-Serif" font-size="10.00"> results</text>
</g>
<!-- Node16 -->
<g id="node16" class="node">
<title>Node16</title>
<g id="a_node16"><a xlink:href="structfiftyone_degrees_result_ipi.html" target="_top" xlink:title="Singular IP address result returned by a detection process method.">
<polygon fill="none" stroke="black" points="750,-97.5 750,-116.5 887,-116.5 887,-97.5 750,-97.5"/>
<text text-anchor="middle" x="818.5" y="-104.5" font-family="Helvetica,sans-Serif" font-size="10.00">fiftyoneDegreesResultIpi</text>
</a>
</g>
</g>
<!-- Node16&#45;&gt;Node15 -->
<g id="edge22" class="edge">
<title>Node16&#45;&gt;Node15</title>
<path fill="none" stroke="#9a32cd" stroke-dasharray="5,2" d="M897.34,-115.76C932.61,-121.01 974.49,-129.06 1011,-141 1031.91,-147.84 1054.17,-158.91 1070.73,-167.97"/>
<polygon fill="#9a32cd" stroke="#9a32cd" points="897.5,-112.25 887.1,-114.29 896.5,-119.18 897.5,-112.25"/>
<text text-anchor="middle" x="968.5" y="-144" font-family="Helvetica,sans-Serif" font-size="10.00"> items</text>
</g>
<!-- Node17 -->
<g id="node17" class="node">
<title>Node17</title>
<g id="a_node17"><a xlink:href="structfiftyone_degrees_ip_address.html" target="_top" xlink:title="The structure to hold a IP Address in byte array format.">
<polygon fill="none" stroke="black" points="450,-116.5 450,-135.5 592,-135.5 592,-116.5 450,-116.5"/>
<text text-anchor="middle" x="521" y="-123.5" font-family="Helvetica,sans-Serif" font-size="10.00">fiftyoneDegreesIpAddress</text>
</a>
</g>
</g>
<!-- Node17&#45;&gt;Node16 -->
<g id="edge23" class="edge">
<title>Node17&#45;&gt;Node16</title>
<path fill="none" stroke="#9a32cd" stroke-dasharray="5,2" d="M602.01,-120.86C648.25,-117.88 705.77,-114.18 749.75,-111.36"/>
<polygon fill="#9a32cd" stroke="#9a32cd" points="601.78,-117.36 592.03,-121.5 602.23,-124.35 601.78,-117.36"/>
<text text-anchor="middle" x="670.5" y="-122" font-family="Helvetica,sans-Serif" font-size="10.00"> targetIpAddress</text>
</g>
<!-- Node18 -->
<g id="node18" class="node">
<title>Node18</title>
<g id="a_node18"><a xlink:href="structfiftyone_degrees_ipi_cg_result.html" target="_top" xlink:title="The evaluation result from graph collection.">
<polygon fill="none" stroke="black" points="446.5,-78.5 446.5,-97.5 595.5,-97.5 595.5,-78.5 446.5,-78.5"/>
<text text-anchor="middle" x="521" y="-85.5" font-family="Helvetica,sans-Serif" font-size="10.00">fiftyoneDegreesIpiCgResult</text>
</a>
</g>
</g>
<!-- Node18&#45;&gt;Node16 -->
<g id="edge24" class="edge">
<title>Node18&#45;&gt;Node16</title>
<path fill="none" stroke="#9a32cd" stroke-dasharray="5,2" d="M605.62,-93.27C638.47,-95.35 676.51,-97.77 711,-100 723.57,-100.81 736.98,-101.69 749.89,-102.53"/>
<polygon fill="#9a32cd" stroke="#9a32cd" points="605.8,-89.77 595.6,-92.63 605.36,-96.76 605.8,-89.77"/>
<text text-anchor="middle" x="670.5" y="-103" font-family="Helvetica,sans-Serif" font-size="10.00"> graphResult</text>
</g>
<!-- Node19 -->
<g id="node19" class="node">
<title>Node19</title>
<g id="a_node19"><a xlink:href="structfiftyone_degrees_results_base.html" target="_top" xlink:title="Base results structure which any processing results should extend.">
<polygon fill="none" stroke="black" points="741.5,-173.5 741.5,-192.5 895.5,-192.5 895.5,-173.5 741.5,-173.5"/>
<text text-anchor="middle" x="818.5" y="-180.5" font-family="Helvetica,sans-Serif" font-size="10.00">fiftyoneDegreesResultsBase</text>
</a>
</g>
</g>
<!-- Node19&#45;&gt;Node15 -->
<g id="edge25" class="edge">
<title>Node19&#45;&gt;Node15</title>
<path fill="none" stroke="#9a32cd" stroke-dasharray="5,2" d="M905.73,-183C945.32,-183 991.59,-183 1028.65,-183"/>
<polygon fill="#9a32cd" stroke="#9a32cd" points="905.56,-179.5 895.56,-183 905.56,-186.5 905.56,-179.5"/>
<text text-anchor="middle" x="968.5" y="-186" font-family="Helvetica,sans-Serif" font-size="10.00"> b</text>
</g>
<!-- Node20 -->
<g id="node20" class="node">
<title>Node20</title>
<g id="a_node20"><a xlink:href="structfiftyone_degrees_collection_item.html" target="_top" xlink:title="Used to store a handle to the underlying item that could be used to release the item when it&#39;s finish...">
<polygon fill="none" stroke="black" points="178,-94.5 178,-113.5 343,-113.5 343,-94.5 178,-94.5"/>
<text text-anchor="middle" x="260.5" y="-101.5" font-family="Helvetica,sans-Serif" font-size="10.00">fiftyoneDegreesCollectionItem</text>
</a>
</g>
</g>
<!-- Node20&#45;&gt;Node15 -->
<g id="edge26" class="edge">
<title>Node20&#45;&gt;Node15</title>
<path fill="none" stroke="#9a32cd" stroke-dasharray="5,2" d="M285.01,-119.02C316.54,-138.21 374.96,-170.43 430,-183 637.28,-230.33 695.43,-206.13 908,-202 953.8,-201.11 965.45,-202.86 1011,-198 1016.84,-197.38 1022.89,-196.6 1028.95,-195.72"/>
<polygon fill="#9a32cd" stroke="#9a32cd" points="286.83,-116.04 276.49,-113.75 283.15,-121.99 286.83,-116.04"/>
<text text-anchor="middle" x="670.5" y="-214" font-family="Helvetica,sans-Serif" font-size="10.00"> propertyItem</text>
</g>
<!-- Node21 -->
<g id="node21" class="node">
<title>Node21</title>
<g id="a_node21"><a xlink:href="structfiftyone_degrees_collection.html" target="_top" xlink:title="All the shared methods and fields required by file, memory and cached collections.">
<polygon fill="none" stroke="black" points="449.5,-0.5 449.5,-19.5 592.5,-19.5 592.5,-0.5 449.5,-0.5"/>
<text text-anchor="middle" x="521" y="-7.5" font-family="Helvetica,sans-Serif" font-size="10.00">fiftyoneDegreesCollection</text>
</a>
</g>
</g>
<!-- Node20&#45;&gt;Node21 -->
<g id="edge28" class="edge">
<title>Node20&#45;&gt;Node21</title>
<path fill="none" stroke="#9a32cd" stroke-dasharray="5,2" d="M302.09,-91.32C332.52,-81.62 375.11,-67.63 412,-54 442.01,-42.92 476.11,-28.75 497.83,-19.53"/>
<polygon fill="#9a32cd" stroke="#9a32cd" points="300.73,-88.08 292.26,-94.44 302.85,-94.75 300.73,-88.08"/>
<text text-anchor="middle" x="386.5" y="-75" font-family="Helvetica,sans-Serif" font-size="10.00"> release</text>
</g>
<!-- Node24 -->
<g id="node24" class="node">
<title>Node24</title>
<g id="a_node24"><a xlink:href="structfiftyone_degrees_weighted_item.html" target="_top" xlink:title="A weighted collection item.">
<polygon fill="none" stroke="black" points="440,-154.5 440,-173.5 602,-173.5 602,-154.5 440,-154.5"/>
<text text-anchor="middle" x="521" y="-161.5" font-family="Helvetica,sans-Serif" font-size="10.00">fiftyoneDegreesWeightedItem</text>
</a>
</g>
</g>
<!-- Node20&#45;&gt;Node24 -->
<g id="edge33" class="edge">
<title>Node20&#45;&gt;Node24</title>
<path fill="none" stroke="#9a32cd" stroke-dasharray="5,2" d="M309.26,-116.04C342.95,-124.42 389.16,-135.72 430,-145 444.02,-148.18 459.3,-151.48 473.23,-154.41"/>
<polygon fill="#9a32cd" stroke="#9a32cd" points="309.78,-112.56 299.23,-113.53 308.09,-119.35 309.78,-112.56"/>
<text text-anchor="middle" x="386.5" y="-143" font-family="Helvetica,sans-Serif" font-size="10.00"> item</text>
</g>
<!-- Node21&#45;&gt;Node20 -->
<g id="edge27" class="edge">
<title>Node21&#45;&gt;Node20</title>
<path fill="none" stroke="#9a32cd" stroke-dasharray="5,2" d="M439.18,-21.19C413.63,-26.19 385.64,-33.23 361,-43 327.28,-56.36 292.07,-80.86 273.94,-94.39"/>
<polygon fill="#9a32cd" stroke="#9a32cd" points="440.04,-24.59 449.22,-19.3 438.74,-17.71 440.04,-24.59"/>
<text text-anchor="middle" x="386.5" y="-46" font-family="Helvetica,sans-Serif" font-size="10.00"> collection</text>
</g>
<!-- Node21&#45;&gt;Node21 -->
<g id="edge29" class="edge">
<title>Node21&#45;&gt;Node21</title>
<path fill="none" stroke="#9a32cd" stroke-dasharray="5,2" d="M496.07,-29.03C497.43,-34.13 505.74,-38 521,-38 544.82,-38 551.7,-28.57 541.65,-19.76"/>
<polygon fill="#9a32cd" stroke="#9a32cd" points="499.34,-30.3 500.35,-19.76 492.98,-27.37 499.34,-30.3"/>
<text text-anchor="middle" x="521" y="-52" font-family="Helvetica,sans-Serif" font-size="10.00"> freeCollection</text>
<text text-anchor="middle" x="521" y="-41" font-family="Helvetica,sans-Serif" font-size="10.00">get</text>
</g>
<!-- Node22 -->
<g id="node22" class="node">
<title>Node22</title>
<g id="a_node22"><a xlink:href="structfiftyone_degrees_data.html" target="_top" xlink:title="Data structure used for reusing memory which may have been allocated in a previous operation.">
<polygon fill="none" stroke="black" points="0,-94.5 0,-113.5 117,-113.5 117,-94.5 0,-94.5"/>
<text text-anchor="middle" x="58.5" y="-101.5" font-family="Helvetica,sans-Serif" font-size="10.00">fiftyoneDegreesData</text>
</a>
</g>
</g>
<!-- Node22&#45;&gt;Node20 -->
<g id="edge30" class="edge">
<title>Node22&#45;&gt;Node20</title>
<path fill="none" stroke="#9a32cd" stroke-dasharray="5,2" d="M127.5,-104C143.67,-104 161.08,-104 177.78,-104"/>
<polygon fill="#9a32cd" stroke="#9a32cd" points="127.08,-100.5 117.08,-104 127.08,-107.5 127.08,-100.5"/>
<text text-anchor="middle" x="147.5" y="-107" font-family="Helvetica,sans-Serif" font-size="10.00"> data</text>
</g>
<!-- Node23 -->
<g id="node23" class="node">
<title>Node23</title>
<g id="a_node23"><a xlink:href="structfiftyone_degrees_weighted_item_list.html" target="_top" xlink:title="A resizable list of weighted items.">
<polygon fill="none" stroke="black" points="729,-135.5 729,-154.5 908,-154.5 908,-135.5 729,-135.5"/>
<text text-anchor="middle" x="818.5" y="-142.5" font-family="Helvetica,sans-Serif" font-size="10.00">fiftyoneDegreesWeightedItemList</text>
</a>
</g>
</g>
<!-- Node23&#45;&gt;Node15 -->
<g id="edge31" class="edge">
<title>Node23&#45;&gt;Node15</title>
<path fill="none" stroke="#9a32cd" stroke-dasharray="5,2" d="M917.41,-155.73C947.48,-159.3 980.64,-163.52 1011,-168 1016.81,-168.86 1022.84,-169.8 1028.88,-170.79"/>
<polygon fill="#9a32cd" stroke="#9a32cd" points="917.68,-152.23 907.34,-154.54 916.86,-159.18 917.68,-152.23"/>
<text text-anchor="middle" x="968.5" y="-171" font-family="Helvetica,sans-Serif" font-size="10.00"> values</text>
</g>
<!-- Node24&#45;&gt;Node23 -->
<g id="edge32" class="edge">
<title>Node24&#45;&gt;Node23</title>
<path fill="none" stroke="#9a32cd" stroke-dasharray="5,2" d="M612.61,-158.17C649.55,-155.8 692.11,-153.06 728.84,-150.7"/>
<polygon fill="#9a32cd" stroke="#9a32cd" points="612.11,-154.7 602.36,-158.83 612.56,-161.68 612.11,-154.7"/>
<text text-anchor="middle" x="670.5" y="-159" font-family="Helvetica,sans-Serif" font-size="10.00"> items</text>
</g>
</g>
</svg>
