<?xml version="1.0" encoding="UTF-8" standalone="no"?>
<!DOCTYPE svg PUBLIC "-//W3C//DTD SVG 1.1//EN"
 "http://www.w3.org/Graphics/SVG/1.1/DTD/svg11.dtd">
<!-- Generated by graphviz version 2.43.0 (0)
 -->
<!-- Title: fiftyoneDegreesIpiCgMemberNode Pages: 1 -->
<svg width="328pt" height="128pt"
 viewBox="0.00 0.00 328.00 128.00" xmlns="http://www.w3.org/2000/svg" xmlns:xlink="http://www.w3.org/1999/xlink">
<g id="graph0" class="graph" transform="scale(1 1) rotate(0) translate(4 124)">
<title>fiftyoneDegreesIpiCgMemberNode</title>
<!-- Node1 -->
<g id="node1" class="node">
<title>Node1</title>
<g id="a_node1"><a xlink:title="Data structure used for the values collection.">
<polygon fill="#bfbfbf" stroke="black" points="71,-0.5 71,-19.5 256,-19.5 256,-0.5 71,-0.5"/>
<text text-anchor="middle" x="163.5" y="-7.5" font-family="Helvetica,sans-Serif" font-size="10.00">fiftyoneDegreesIpiCgMemberNode</text>
</a>
</g>
</g>
<!-- Node2 -->
<g id="node2" class="node">
<title>Node2</title>
<g id="a_node2"><a xlink:href="structfiftyone_degrees_ipi_cg_member.html" target="_top" xlink:title="DATA STRUCTURES.">
<polygon fill="none" stroke="black" points="0,-95 0,-114 159,-114 159,-95 0,-95"/>
<text text-anchor="middle" x="79.5" y="-102" font-family="Helvetica,sans-Serif" font-size="10.00">fiftyoneDegreesIpiCgMember</text>
</a>
</g>
</g>
<!-- Node2&#45;&gt;Node1 -->
<g id="edge1" class="edge">
<title>Node2&#45;&gt;Node1</title>
<path fill="none" stroke="#9a32cd" stroke-dasharray="5,2" d="M94.13,-87.38C112.06,-67.64 141.78,-34.92 155.77,-19.52"/>
<polygon fill="#9a32cd" stroke="#9a32cd" points="91.38,-85.21 87.25,-94.96 96.57,-89.91 91.38,-85.21"/>
<text text-anchor="middle" x="166.5" y="-63" font-family="Helvetica,sans-Serif" font-size="10.00"> spanIndex</text>
<text text-anchor="middle" x="166.5" y="-52" font-family="Helvetica,sans-Serif" font-size="10.00">lowFlag</text>
<text text-anchor="middle" x="166.5" y="-41" font-family="Helvetica,sans-Serif" font-size="10.00">value</text>
</g>
<!-- Node3 -->
<g id="node3" class="node">
<title>Node3</title>
<g id="a_node3"><a xlink:href="structfiftyone_degrees_collection_header.html" target="_top" xlink:title="Collection header structure which defines the size and location of the collection data.">
<polygon fill="none" stroke="black" points="177,-89.5 177,-119.5 320,-119.5 320,-89.5 177,-89.5"/>
<text text-anchor="start" x="185" y="-107.5" font-family="Helvetica,sans-Serif" font-size="10.00">fiftyoneDegreesCollection</text>
<text text-anchor="middle" x="248.5" y="-96.5" font-family="Helvetica,sans-Serif" font-size="10.00">Header</text>
</a>
</g>
</g>
<!-- Node3&#45;&gt;Node1 -->
<g id="edge2" class="edge">
<title>Node3&#45;&gt;Node1</title>
<path fill="none" stroke="#9a32cd" stroke-dasharray="5,2" d="M233,-80.94C223.47,-67.79 210.6,-51.23 197.5,-38 190.82,-31.25 182.48,-24.61 175.73,-19.6"/>
<polygon fill="#9a32cd" stroke="#9a32cd" points="230.38,-83.3 239.03,-89.43 236.09,-79.25 230.38,-83.3"/>
<text text-anchor="middle" x="250" y="-52" font-family="Helvetica,sans-Serif" font-size="10.00"> collection</text>
</g>
</g>
</svg>
