<?xml version="1.0" encoding="UTF-8" standalone="no"?>
<!DOCTYPE svg PUBLIC "-//W3C//DTD SVG 1.1//EN"
 "http://www.w3.org/Graphics/SVG/1.1/DTD/svg11.dtd">
<!-- Generated by graphviz version 2.43.0 (0)
 -->
<!-- Title: variableSizeCollectionState Pages: 1 -->
<svg width="420pt" height="97pt"
 viewBox="0.00 0.00 420.00 97.00" xmlns="http://www.w3.org/2000/svg" xmlns:xlink="http://www.w3.org/1999/xlink">
<g id="graph0" class="graph" transform="scale(1 1) rotate(0) translate(4 93)">
<title>variableSizeCollectionState</title>
<!-- Node1 -->
<g id="node1" class="node">
<title>Node1</title>
<g id="a_node1"><a xlink:title=" ">
<polygon fill="#bfbfbf" stroke="black" points="0,-0.5 0,-19.5 151,-19.5 151,-0.5 0,-0.5"/>
<text text-anchor="middle" x="75.5" y="-7.5" font-family="Helvetica,sans-Serif" font-size="10.00">variableSizeCollectionState</text>
</a>
</g>
</g>
<!-- Node2 -->
<g id="node2" class="node">
<title>Node2</title>
<g id="a_node2"><a xlink:href="structfiftyone_degrees_collection.html" target="_top" xlink:title="All the shared methods and fields required by file, memory and cached collections.">
<polygon fill="none" stroke="black" points="44,-68.5 44,-87.5 187,-87.5 187,-68.5 44,-68.5"/>
<text text-anchor="middle" x="115.5" y="-75.5" font-family="Helvetica,sans-Serif" font-size="10.00">fiftyoneDegreesCollection</text>
</a>
</g>
</g>
<!-- Node2&#45;&gt;Node1 -->
<g id="edge1" class="edge">
<title>Node2&#45;&gt;Node1</title>
<path fill="none" stroke="#9a32cd" stroke-dasharray="5,2" d="M94.22,-61.87C90.13,-58.08 86.27,-53.74 83.5,-49 78.19,-39.92 76.38,-27.8 75.78,-19.71"/>
<polygon fill="#9a32cd" stroke="#9a32cd" points="92.18,-64.72 102.12,-68.4 96.64,-59.33 92.18,-64.72"/>
<text text-anchor="middle" x="109" y="-41" font-family="Helvetica,sans-Serif" font-size="10.00"> collection</text>
</g>
<!-- Node2&#45;&gt;Node2 -->
<g id="edge5" class="edge">
<title>Node2&#45;&gt;Node2</title>
<path fill="none" stroke="#9a32cd" stroke-dasharray="5,2" d="M197.11,-82.41C202.04,-81.36 205,-79.89 205,-78 205,-75.04 197.79,-73.12 187.13,-72.22"/>
<polygon fill="#9a32cd" stroke="#9a32cd" points="196.56,-78.96 187.13,-83.78 197.51,-85.89 196.56,-78.96"/>
<text text-anchor="middle" x="241" y="-81" font-family="Helvetica,sans-Serif" font-size="10.00"> freeCollection</text>
<text text-anchor="middle" x="241" y="-70" font-family="Helvetica,sans-Serif" font-size="10.00">get</text>
</g>
<!-- Node3 -->
<g id="node3" class="node">
<title>Node3</title>
<g id="a_node3"><a xlink:href="structfiftyone_degrees_collection_item.html" target="_top" xlink:title="Used to store a handle to the underlying item that could be used to release the item when it&#39;s finish...">
<polygon fill="none" stroke="black" points="169,-0.5 169,-19.5 334,-19.5 334,-0.5 169,-0.5"/>
<text text-anchor="middle" x="251.5" y="-7.5" font-family="Helvetica,sans-Serif" font-size="10.00">fiftyoneDegreesCollectionItem</text>
</a>
</g>
</g>
<!-- Node2&#45;&gt;Node3 -->
<g id="edge3" class="edge">
<title>Node2&#45;&gt;Node3</title>
<path fill="none" stroke="#9a32cd" stroke-dasharray="5,2" d="M129.44,-60.42C136.78,-52.63 146.35,-43.79 156.5,-38 171.24,-29.59 188.79,-23.64 204.77,-19.51"/>
<polygon fill="#9a32cd" stroke="#9a32cd" points="126.48,-58.48 122.43,-68.28 131.7,-63.14 126.48,-58.48"/>
<text text-anchor="middle" x="182" y="-41" font-family="Helvetica,sans-Serif" font-size="10.00"> collection</text>
</g>
<!-- Node3&#45;&gt;Node2 -->
<g id="edge2" class="edge">
<title>Node3&#45;&gt;Node2</title>
<path fill="none" stroke="#9a32cd" stroke-dasharray="5,2" d="M237.61,-27.41C230.48,-34.92 221.26,-43.39 211.5,-49 196.15,-57.83 177.79,-64.06 161.26,-68.38"/>
<polygon fill="#9a32cd" stroke="#9a32cd" points="240.37,-29.58 244.45,-19.8 235.16,-24.9 240.37,-29.58"/>
<text text-anchor="middle" x="245.5" y="-41" font-family="Helvetica,sans-Serif" font-size="10.00"> release</text>
</g>
<!-- Node4 -->
<g id="node4" class="node">
<title>Node4</title>
<g id="a_node4"><a xlink:href="structfiftyone_degrees_data.html" target="_top" xlink:title="Data structure used for reusing memory which may have been allocated in a previous operation.">
<polygon fill="none" stroke="black" points="295,-68.5 295,-87.5 412,-87.5 412,-68.5 295,-68.5"/>
<text text-anchor="middle" x="353.5" y="-75.5" font-family="Helvetica,sans-Serif" font-size="10.00">fiftyoneDegreesData</text>
</a>
</g>
</g>
<!-- Node4&#45;&gt;Node3 -->
<g id="edge4" class="edge">
<title>Node4&#45;&gt;Node3</title>
<path fill="none" stroke="#9a32cd" stroke-dasharray="5,2" d="M331.57,-62.81C311.29,-49.69 281.79,-30.6 264.84,-19.63"/>
<polygon fill="#9a32cd" stroke="#9a32cd" points="329.87,-65.88 340.17,-68.37 333.67,-60 329.87,-65.88"/>
<text text-anchor="middle" x="321" y="-41" font-family="Helvetica,sans-Serif" font-size="10.00"> data</text>
</g>
</g>
</svg>
