<?xml version="1.0" encoding="UTF-8" standalone="no"?>
<!DOCTYPE svg PUBLIC "-//W3C//DTD SVG 1.1//EN"
 "http://www.w3.org/Graphics/SVG/1.1/DTD/svg11.dtd">
<!-- Generated by graphviz version 2.43.0 (0)
 -->
<!-- Title: allocationTree Pages: 1 -->
<svg width="302pt" height="119pt"
 viewBox="0.00 0.00 301.50 119.00" xmlns="http://www.w3.org/2000/svg" xmlns:xlink="http://www.w3.org/1999/xlink">
<g id="graph0" class="graph" transform="scale(1 1) rotate(0) translate(4 115)">
<title>allocationTree</title>
<!-- Node1 -->
<g id="node1" class="node">
<title>Node1</title>
<g id="a_node1"><a xlink:title=" ">
<polygon fill="#bfbfbf" stroke="black" points="0,-7 0,-26 85,-26 85,-7 0,-7"/>
<text text-anchor="middle" x="42.5" y="-14" font-family="Helvetica,sans-Serif" font-size="10.00">allocationTree</text>
</a>
</g>
</g>
<!-- Node2 -->
<g id="node2" class="node">
<title>Node2</title>
<g id="a_node2"><a xlink:href="structfiftyone_degrees_tree_root.html" target="_top" xlink:title="Tree root structure defining the beginning of the tree.">
<polygon fill="none" stroke="black" points="59,-91.5 59,-110.5 196,-110.5 196,-91.5 59,-91.5"/>
<text text-anchor="middle" x="127.5" y="-98.5" font-family="Helvetica,sans-Serif" font-size="10.00">fiftyoneDegreesTreeRoot</text>
</a>
</g>
</g>
<!-- Node2&#45;&gt;Node1 -->
<g id="edge1" class="edge">
<title>Node2&#45;&gt;Node1</title>
<path fill="none" stroke="#9a32cd" stroke-dasharray="5,2" d="M104.96,-85.39C99.69,-81.6 94.23,-77.35 89.5,-73 73.32,-58.14 57.42,-37.84 48.9,-26.36"/>
<polygon fill="#9a32cd" stroke="#9a32cd" points="103.29,-88.49 113.5,-91.28 107.26,-82.72 103.29,-88.49"/>
<text text-anchor="middle" x="103.5" y="-59.5" font-family="Helvetica,sans-Serif" font-size="10.00"> roots</text>
</g>
<!-- Node3 -->
<g id="node3" class="node">
<title>Node3</title>
<g id="a_node3"><a xlink:href="structfiftyone_degrees_tree_node.html" target="_top" xlink:title="Node structure defining a single node in the tree.">
<polygon fill="none" stroke="black" points="103.5,-7 103.5,-26 243.5,-26 243.5,-7 103.5,-7"/>
<text text-anchor="middle" x="173.5" y="-14" font-family="Helvetica,sans-Serif" font-size="10.00">fiftyoneDegreesTreeNode</text>
</a>
</g>
</g>
<!-- Node2&#45;&gt;Node3 -->
<g id="edge4" class="edge">
<title>Node2&#45;&gt;Node3</title>
<path fill="none" stroke="#9a32cd" stroke-dasharray="5,2" d="M121.97,-81.69C120.11,-72.04 119.59,-60.31 124.5,-51 130.46,-39.7 142.15,-31.49 152.61,-26.02"/>
<polygon fill="#9a32cd" stroke="#9a32cd" points="118.6,-82.62 124.42,-91.46 125.39,-80.91 118.6,-82.62"/>
<text text-anchor="middle" x="136" y="-59.5" font-family="Helvetica,sans-Serif" font-size="10.00"> root</text>
</g>
<!-- Node3&#45;&gt;Node2 -->
<g id="edge2" class="edge">
<title>Node3&#45;&gt;Node2</title>
<path fill="none" stroke="#9a32cd" stroke-dasharray="5,2" d="M168.05,-35.79C164.29,-46.99 158.67,-61.36 151.5,-73 147.42,-79.62 141.66,-86.16 136.81,-91.15"/>
<polygon fill="#9a32cd" stroke="#9a32cd" points="171.4,-36.8 171.09,-26.21 164.73,-34.69 171.4,-36.8"/>
<text text-anchor="middle" x="177.5" y="-65" font-family="Helvetica,sans-Serif" font-size="10.00"> root</text>
<text text-anchor="middle" x="177.5" y="-54" font-family="Helvetica,sans-Serif" font-size="10.00">empty</text>
</g>
<!-- Node3&#45;&gt;Node3 -->
<g id="edge3" class="edge">
<title>Node3&#45;&gt;Node3</title>
<path fill="none" stroke="#9a32cd" stroke-dasharray="5,2" d="M253.58,-22.26C258.52,-20.9 261.5,-18.98 261.5,-16.5 261.5,-12.63 254.25,-10.13 243.57,-8.98"/>
<polygon fill="#9a32cd" stroke="#9a32cd" points="252.81,-18.84 243.57,-24.02 254.03,-25.73 252.81,-18.84"/>
<text text-anchor="middle" x="277.5" y="-25" font-family="Helvetica,sans-Serif" font-size="10.00"> right</text>
<text text-anchor="middle" x="277.5" y="-14" font-family="Helvetica,sans-Serif" font-size="10.00">left</text>
<text text-anchor="middle" x="277.5" y="-3" font-family="Helvetica,sans-Serif" font-size="10.00">parent</text>
</g>
</g>
</svg>
