<?xml version="1.0" encoding="UTF-8" standalone="no"?>
<!DOCTYPE svg PUBLIC "-//W3C//DTD SVG 1.1//EN"
 "http://www.w3.org/Graphics/SVG/1.1/DTD/svg11.dtd">
<!-- Generated by graphviz version 2.43.0 (0)
 -->
<!-- Title: IndirectProfileSearch Pages: 1 -->
<svg width="383pt" height="184pt"
 viewBox="0.00 0.00 383.00 184.00" xmlns="http://www.w3.org/2000/svg" xmlns:xlink="http://www.w3.org/1999/xlink">
<g id="graph0" class="graph" transform="scale(1 1) rotate(0) translate(4 180)">
<title>IndirectProfileSearch</title>
<!-- Node1 -->
<g id="Node000001" class="node">
<title>Node1</title>
<g id="a_Node000001"><a xlink:title=" ">
<polygon fill="#999999" stroke="#666666" points="117,-19 0,-19 0,0 117,0 117,-19"/>
<text text-anchor="middle" x="58.5" y="-7" font-family="Helvetica,sans-Serif" font-size="10.00">IndirectProfileSearch</text>
</a>
</g>
</g>
<!-- Node2 -->
<g id="Node000002" class="node">
<title>Node2</title>
<g id="a_Node000002"><a xlink:href="structfiftyone_degrees_collection.html" target="_top" xlink:title="All the shared methods and fields required by file, memory and cached collections.">
<polygon fill="white" stroke="#666666" points="147,-169.5 4,-169.5 4,-150.5 147,-150.5 147,-169.5"/>
<text text-anchor="middle" x="75.5" y="-157.5" font-family="Helvetica,sans-Serif" font-size="10.00">fiftyoneDegreesCollection</text>
</a>
</g>
</g>
<!-- Node2&#45;&gt;Node1 -->
<g id="edge1_Node000001_Node000002" class="edge">
<title>Node2&#45;&gt;Node1</title>
<g id="a_edge1_Node000001_Node000002"><a xlink:title=" ">
<path fill="none" stroke="#9a32cd" stroke-dasharray="5,2" d="M67.25,-140.99C61.56,-127.54 54.5,-108.53 51.5,-91 47.05,-65.01 52.91,-33.78 56.34,-19.02"/>
<polygon fill="#9a32cd" stroke="#9a32cd" points="64.18,-142.71 71.42,-150.45 70.59,-139.89 64.18,-142.71"/>
</a>
</g>
<text text-anchor="start" x="55" y="-78.5" font-family="Helvetica,sans-Serif" font-size="10.00" fill="grey">profiles</text>
</g>
<!-- Node2&#45;&gt;Node2 -->
<g id="edge2_Node000002_Node000002" class="edge">
<title>Node2&#45;&gt;Node2</title>
<g id="a_edge2_Node000002_Node000002"><a xlink:title=" ">
<path fill="none" stroke="#9a32cd" stroke-dasharray="5,2" d="M157.11,-165.45C162.04,-164.16 165,-162.34 165,-160 165,-156.35 157.79,-153.97 147.13,-152.86"/>
<polygon fill="#9a32cd" stroke="#9a32cd" points="156.4,-162.02 147.13,-167.14 157.57,-168.92 156.4,-162.02"/>
</a>
</g>
<text text-anchor="start" x="168.5" y="-165" font-family="Helvetica,sans-Serif" font-size="10.00" fill="grey">freeCollection</text>
<text text-anchor="start" x="168.5" y="-150" font-family="Helvetica,sans-Serif" font-size="10.00" fill="grey">get</text>
</g>
<!-- Node3 -->
<g id="Node000003" class="node">
<title>Node3</title>
<g id="a_Node000003"><a xlink:href="structfiftyone_degrees_collection_item.html" target="_top" xlink:title="Used to store a handle to the underlying item that could be used to release the item when it&#39;s finish...">
<polygon fill="white" stroke="#666666" points="269,-91 104,-91 104,-72 269,-72 269,-91"/>
<text text-anchor="middle" x="186.5" y="-79" font-family="Helvetica,sans-Serif" font-size="10.00">fiftyoneDegreesCollectionItem</text>
</a>
</g>
</g>
<!-- Node2&#45;&gt;Node3 -->
<g id="edge5_Node000003_Node000002" class="edge">
<title>Node2&#45;&gt;Node3</title>
<g id="a_edge5_Node000003_Node000002"><a xlink:title=" ">
<path fill="none" stroke="#9a32cd" stroke-dasharray="5,2" d="M74.25,-140.16C74.58,-129.74 76.84,-117.27 84.5,-109 92.02,-100.88 101.69,-95.12 112.06,-91.05"/>
<polygon fill="#9a32cd" stroke="#9a32cd" points="70.75,-140.44 74.47,-150.36 77.75,-140.29 70.75,-140.44"/>
</a>
</g>
<text text-anchor="start" x="87.5" y="-114.5" font-family="Helvetica,sans-Serif" font-size="10.00" fill="grey">collection</text>
</g>
<!-- Node3&#45;&gt;Node1 -->
<g id="edge6_Node000001_Node000003" class="edge">
<title>Node3&#45;&gt;Node1</title>
<g id="a_edge6_Node000001_Node000003"><a xlink:title=" ">
<path fill="none" stroke="#9a32cd" stroke-dasharray="5,2" d="M161.99,-67.1C136.17,-52.98 96.27,-31.16 74.32,-19.15"/>
<polygon fill="#9a32cd" stroke="#9a32cd" points="160.35,-70.19 170.8,-71.92 163.71,-64.05 160.35,-70.19"/>
</a>
</g>
<text text-anchor="start" x="141.5" y="-42.5" font-family="Helvetica,sans-Serif" font-size="10.00" fill="grey">outProfileItem</text>
</g>
<!-- Node3&#45;&gt;Node2 -->
<g id="edge3_Node000002_Node000003" class="edge">
<title>Node3&#45;&gt;Node2</title>
<g id="a_edge3_Node000002_Node000003"><a xlink:title=" ">
<path fill="none" stroke="#9a32cd" stroke-dasharray="5,2" d="M172.47,-98.73C164.32,-107.52 153.51,-118.16 142.5,-126 128.45,-136 110.92,-144.52 97.31,-150.39"/>
<polygon fill="#9a32cd" stroke="#9a32cd" points="175.32,-100.8 179.4,-91.01 170.11,-96.12 175.32,-100.8"/>
</a>
</g>
<text text-anchor="start" x="166" y="-114.5" font-family="Helvetica,sans-Serif" font-size="10.00" fill="grey">release</text>
</g>
<!-- Node4 -->
<g id="Node000004" class="node">
<title>Node4</title>
<g id="a_Node000004"><a xlink:href="structfiftyone_degrees_data.html" target="_top" xlink:title="Data structure used for reusing memory which may have been allocated in a previous operation.">
<polygon fill="white" stroke="#666666" points="375,-169.5 258,-169.5 258,-150.5 375,-150.5 375,-169.5"/>
<text text-anchor="middle" x="316.5" y="-157.5" font-family="Helvetica,sans-Serif" font-size="10.00">fiftyoneDegreesData</text>
</a>
</g>
</g>
<!-- Node4&#45;&gt;Node3 -->
<g id="edge4_Node000003_Node000004" class="edge">
<title>Node4&#45;&gt;Node3</title>
<g id="a_edge4_Node000003_Node000004"><a xlink:title=" ">
<path fill="none" stroke="#9a32cd" stroke-dasharray="5,2" d="M293.15,-145.26C266.5,-129.58 223.73,-104.41 201.31,-91.21"/>
<polygon fill="#9a32cd" stroke="#9a32cd" points="291.45,-148.32 301.84,-150.37 295,-142.29 291.45,-148.32"/>
</a>
</g>
<text text-anchor="start" x="262.5" y="-114.5" font-family="Helvetica,sans-Serif" font-size="10.00" fill="grey">data</text>
</g>
</g>
</svg>
