<?xml version="1.0" encoding="UTF-8" standalone="no"?>
<!DOCTYPE svg PUBLIC "-//W3C//DTD SVG 1.1//EN"
 "http://www.w3.org/Graphics/SVG/1.1/DTD/svg11.dtd">
<!-- Generated by graphviz version 2.43.0 (0)
 -->
<!-- Title: fiftyoneDegreesWeightedItem Pages: 1 -->
<svg width="425pt" height="184pt"
 viewBox="0.00 0.00 424.50 184.00" xmlns="http://www.w3.org/2000/svg" xmlns:xlink="http://www.w3.org/1999/xlink">
<g id="graph0" class="graph" transform="scale(1 1) rotate(0) translate(4 180)">
<title>fiftyoneDegreesWeightedItem</title>
<!-- Node1 -->
<g id="Node000001" class="node">
<title>Node1</title>
<g id="a_Node000001"><a xlink:title="A weighted collection item.">
<polygon fill="#999999" stroke="#666666" points="162,-25.5 0,-25.5 0,-6.5 162,-6.5 162,-25.5"/>
<text text-anchor="middle" x="81" y="-13.5" font-family="Helvetica,sans-Serif" font-size="10.00">fiftyoneDegreesWeightedItem</text>
</a>
</g>
</g>
<!-- Node2 -->
<g id="Node000002" class="node">
<title>Node2</title>
<g id="a_Node000002"><a xlink:href="structfiftyone_degrees_collection_item.html" target="_top" xlink:title="Used to store a handle to the underlying item that could be used to release the item when it&#39;s finish...">
<polygon fill="white" stroke="#666666" points="268.5,-104 103.5,-104 103.5,-85 268.5,-85 268.5,-104"/>
<text text-anchor="middle" x="186" y="-92" font-family="Helvetica,sans-Serif" font-size="10.00">fiftyoneDegreesCollectionItem</text>
</a>
</g>
</g>
<!-- Node2&#45;&gt;Node1 -->
<g id="edge1_Node000001_Node000002" class="edge">
<title>Node2&#45;&gt;Node1</title>
<g id="a_edge1_Node000001_Node000002"><a xlink:title=" ">
<path fill="none" stroke="#9a32cd" stroke-dasharray="5,2" d="M164.41,-79.12C158.71,-75.24 152.59,-71.01 147,-67 127.38,-52.92 105.09,-35.78 92.08,-25.67"/>
<polygon fill="#9a32cd" stroke="#9a32cd" points="162.64,-82.14 172.88,-84.83 166.55,-76.34 162.64,-82.14"/>
</a>
</g>
<text text-anchor="start" x="150.5" y="-55.5" font-family="Helvetica,sans-Serif" font-size="10.00" fill="grey">item</text>
</g>
<!-- Node4 -->
<g id="Node000004" class="node">
<title>Node4</title>
<g id="a_Node000004"><a xlink:href="structfiftyone_degrees_collection.html" target="_top" xlink:title="All the shared methods and fields required by file, memory and cached collections.">
<polygon fill="white" stroke="#666666" points="323.5,-25.5 180.5,-25.5 180.5,-6.5 323.5,-6.5 323.5,-25.5"/>
<text text-anchor="middle" x="252" y="-13.5" font-family="Helvetica,sans-Serif" font-size="10.00">fiftyoneDegreesCollection</text>
</a>
</g>
</g>
<!-- Node2&#45;&gt;Node4 -->
<g id="edge5_Node000004_Node000002" class="edge">
<title>Node2&#45;&gt;Node4</title>
<g id="a_edge5_Node000004_Node000002"><a xlink:title=" ">
<path fill="none" stroke="#9a32cd" stroke-dasharray="5,2" d="M180.01,-74.94C178.49,-66.73 178.4,-57.3 183,-50 190.43,-38.2 203.38,-30.53 216.06,-25.59"/>
<polygon fill="#9a32cd" stroke="#9a32cd" points="176.65,-75.95 182.55,-84.75 183.43,-74.2 176.65,-75.95"/>
</a>
</g>
<text text-anchor="start" x="186.5" y="-55.5" font-family="Helvetica,sans-Serif" font-size="10.00" fill="grey">release</text>
</g>
<!-- Node3 -->
<g id="Node000003" class="node">
<title>Node3</title>
<g id="a_Node000003"><a xlink:href="structfiftyone_degrees_data.html" target="_top" xlink:title="Data structure used for reusing memory which may have been allocated in a previous operation.">
<polygon fill="white" stroke="#666666" points="244.5,-176 127.5,-176 127.5,-157 244.5,-157 244.5,-176"/>
<text text-anchor="middle" x="186" y="-164" font-family="Helvetica,sans-Serif" font-size="10.00">fiftyoneDegreesData</text>
</a>
</g>
</g>
<!-- Node3&#45;&gt;Node2 -->
<g id="edge2_Node000002_Node000003" class="edge">
<title>Node3&#45;&gt;Node2</title>
<g id="a_edge2_Node000002_Node000003"><a xlink:title=" ">
<path fill="none" stroke="#9a32cd" stroke-dasharray="5,2" d="M186,-146.58C186,-132.76 186,-114.68 186,-104.15"/>
<polygon fill="#9a32cd" stroke="#9a32cd" points="182.5,-146.92 186,-156.92 189.5,-146.92 182.5,-146.92"/>
</a>
</g>
<text text-anchor="start" x="189" y="-127.5" font-family="Helvetica,sans-Serif" font-size="10.00" fill="grey">data</text>
</g>
<!-- Node4&#45;&gt;Node2 -->
<g id="edge3_Node000002_Node000004" class="edge">
<title>Node4&#45;&gt;Node2</title>
<g id="a_edge3_Node000002_Node000004"><a xlink:title=" ">
<path fill="none" stroke="#9a32cd" stroke-dasharray="5,2" d="M246.99,-35.25C243.49,-45.45 238,-57.91 230,-67 223.4,-74.5 214.16,-80.51 205.84,-84.9"/>
<polygon fill="#9a32cd" stroke="#9a32cd" points="250.34,-36.25 249.93,-25.66 243.65,-34.19 250.34,-36.25"/>
</a>
</g>
<text text-anchor="start" x="244" y="-55.5" font-family="Helvetica,sans-Serif" font-size="10.00" fill="grey">collection</text>
</g>
<!-- Node4&#45;&gt;Node4 -->
<g id="edge4_Node000004_Node000004" class="edge">
<title>Node4&#45;&gt;Node4</title>
<g id="a_edge4_Node000004_Node000004"><a xlink:title=" ">
<path fill="none" stroke="#9a32cd" stroke-dasharray="5,2" d="M333.61,-21.45C338.54,-20.16 341.5,-18.34 341.5,-16 341.5,-12.35 334.29,-9.97 323.63,-8.86"/>
<polygon fill="#9a32cd" stroke="#9a32cd" points="332.9,-18.02 323.63,-23.14 334.07,-24.92 332.9,-18.02"/>
</a>
</g>
<text text-anchor="start" x="345" y="-21" font-family="Helvetica,sans-Serif" font-size="10.00" fill="grey">freeCollection</text>
<text text-anchor="start" x="345" y="-6" font-family="Helvetica,sans-Serif" font-size="10.00" fill="grey">get</text>
</g>
</g>
</svg>
