<?xml version="1.0" encoding="UTF-8" standalone="no"?>
<!DOCTYPE svg PUBLIC "-//W3C//DTD SVG 1.1//EN"
 "http://www.w3.org/Graphics/SVG/1.1/DTD/svg11.dtd">
<!-- Generated by graphviz version 2.43.0 (0)
 -->
<!-- Title: addState Pages: 1 -->
<svg width="562pt" height="407pt"
 viewBox="0.00 0.00 561.50 407.00" xmlns="http://www.w3.org/2000/svg" xmlns:xlink="http://www.w3.org/1999/xlink">
<g id="graph0" class="graph" transform="scale(1 1) rotate(0) translate(4 403)">
<title>addState</title>
<!-- Node1 -->
<g id="node1" class="node">
<title>Node1</title>
<g id="a_node1"><a xlink:title=" ">
<polygon fill="#bfbfbf" stroke="black" points="260.5,-0.5 260.5,-19.5 320.5,-19.5 320.5,-0.5 260.5,-0.5"/>
<text text-anchor="middle" x="290.5" y="-7.5" font-family="Helvetica,sans-Serif" font-size="10.00">addState</text>
</a>
</g>
</g>
<!-- Node2 -->
<g id="node2" class="node">
<title>Node2</title>
<g id="a_node2"><a xlink:href="structfiftyone_degrees_override_value_array.html" target="_top" xlink:title="An array of properties and values to use when getting override values.">
<polygon fill="none" stroke="black" points="66,-183.5 66,-213.5 229,-213.5 229,-183.5 66,-183.5"/>
<text text-anchor="start" x="74" y="-201.5" font-family="Helvetica,sans-Serif" font-size="10.00">fiftyoneDegreesOverrideValue</text>
<text text-anchor="middle" x="147.5" y="-190.5" font-family="Helvetica,sans-Serif" font-size="10.00">Array</text>
</a>
</g>
</g>
<!-- Node2&#45;&gt;Node1 -->
<g id="edge1" class="edge">
<title>Node2&#45;&gt;Node1</title>
<path fill="none" stroke="#9a32cd" stroke-dasharray="5,2" d="M164.43,-175.42C196.02,-134.22 262.68,-47.29 283.88,-19.64"/>
<polygon fill="#9a32cd" stroke="#9a32cd" points="161.56,-173.42 158.25,-183.48 167.11,-177.68 161.56,-173.42"/>
<text text-anchor="middle" x="227.5" y="-119" font-family="Helvetica,sans-Serif" font-size="10.00"> values</text>
</g>
<!-- Node3 -->
<g id="node3" class="node">
<title>Node3</title>
<g id="a_node3"><a xlink:href="structfiftyone_degrees_override_value.html" target="_top" xlink:title="String value which should override the value for the property indicated by the required property inde...">
<polygon fill="none" stroke="black" points="0,-307 0,-326 163,-326 163,-307 0,-307"/>
<text text-anchor="middle" x="81.5" y="-314" font-family="Helvetica,sans-Serif" font-size="10.00">fiftyoneDegreesOverrideValue</text>
</a>
</g>
</g>
<!-- Node3&#45;&gt;Node2 -->
<g id="edge2" class="edge">
<title>Node3&#45;&gt;Node2</title>
<path fill="none" stroke="#9a32cd" stroke-dasharray="5,2" d="M83.46,-296.91C86.1,-278.99 92.1,-251.75 105.5,-232 110.26,-224.98 117.03,-218.81 123.74,-213.78"/>
<polygon fill="#9a32cd" stroke="#9a32cd" points="79.98,-296.59 82.2,-306.95 86.92,-297.46 79.98,-296.59"/>
<text text-anchor="middle" x="104" y="-275" font-family="Helvetica,sans-Serif" font-size="10.00"> items</text>
</g>
<!-- Node4 -->
<g id="node4" class="node">
<title>Node4</title>
<g id="a_node4"><a xlink:href="structfiftyone_degrees_data.html" target="_top" xlink:title="Data structure used for reusing memory which may have been allocated in a previous operation.">
<polygon fill="none" stroke="black" points="114,-379.5 114,-398.5 231,-398.5 231,-379.5 114,-379.5"/>
<text text-anchor="middle" x="172.5" y="-386.5" font-family="Helvetica,sans-Serif" font-size="10.00">fiftyoneDegreesData</text>
</a>
</g>
</g>
<!-- Node4&#45;&gt;Node3 -->
<g id="edge3" class="edge">
<title>Node4&#45;&gt;Node3</title>
<path fill="none" stroke="#9a32cd" stroke-dasharray="5,2" d="M153.11,-372.97C134.74,-358.75 107.81,-337.88 92.75,-326.22"/>
<polygon fill="#9a32cd" stroke="#9a32cd" points="151.29,-376 161.34,-379.36 155.58,-370.46 151.29,-376"/>
<text text-anchor="middle" x="151" y="-353" font-family="Helvetica,sans-Serif" font-size="10.00"> string</text>
</g>
<!-- Node9 -->
<g id="node9" class="node">
<title>Node9</title>
<g id="a_node9"><a xlink:href="structfiftyone_degrees_collection_item.html" target="_top" xlink:title="Used to store a handle to the underlying item that could be used to release the item when it&#39;s finish...">
<polygon fill="none" stroke="black" points="181,-307 181,-326 346,-326 346,-307 181,-307"/>
<text text-anchor="middle" x="263.5" y="-314" font-family="Helvetica,sans-Serif" font-size="10.00">fiftyoneDegreesCollectionItem</text>
</a>
</g>
</g>
<!-- Node4&#45;&gt;Node9 -->
<g id="edge12" class="edge">
<title>Node4&#45;&gt;Node9</title>
<path fill="none" stroke="#9a32cd" stroke-dasharray="5,2" d="M191.89,-372.97C210.26,-358.75 237.19,-337.88 252.25,-326.22"/>
<polygon fill="#9a32cd" stroke="#9a32cd" points="189.42,-370.46 183.66,-379.36 193.71,-376 189.42,-370.46"/>
<text text-anchor="middle" x="234" y="-353" font-family="Helvetica,sans-Serif" font-size="10.00"> data</text>
</g>
<!-- Node5 -->
<g id="node5" class="node">
<title>Node5</title>
<g id="a_node5"><a xlink:href="structfiftyone_degrees_override_property_array.html" target="_top" xlink:title="Array of items of type fiftyoneDegreesOverrideProperty used to easily access and track the size of th...">
<polygon fill="none" stroke="black" points="318,-67.5 318,-97.5 495,-97.5 495,-67.5 318,-67.5"/>
<text text-anchor="start" x="326" y="-85.5" font-family="Helvetica,sans-Serif" font-size="10.00">fiftyoneDegreesOverrideProperty</text>
<text text-anchor="middle" x="406.5" y="-74.5" font-family="Helvetica,sans-Serif" font-size="10.00">Array</text>
</a>
</g>
</g>
<!-- Node5&#45;&gt;Node1 -->
<g id="edge4" class="edge">
<title>Node5&#45;&gt;Node1</title>
<path fill="none" stroke="#9a32cd" stroke-dasharray="5,2" d="M374.58,-62.1C351.63,-48.15 321.8,-30.02 304.54,-19.53"/>
<polygon fill="#9a32cd" stroke="#9a32cd" points="372.94,-65.2 383.3,-67.4 376.58,-59.22 372.94,-65.2"/>
<text text-anchor="middle" x="378" y="-41" font-family="Helvetica,sans-Serif" font-size="10.00"> properties</text>
</g>
<!-- Node6 -->
<g id="node6" class="node">
<title>Node6</title>
<g id="a_node6"><a xlink:href="structfiftyone_degrees_override_property.html" target="_top" xlink:title="Index and pointer to a property which can be overridden.">
<polygon fill="none" stroke="black" points="355,-145.5 355,-164.5 532,-164.5 532,-145.5 355,-145.5"/>
<text text-anchor="middle" x="443.5" y="-152.5" font-family="Helvetica,sans-Serif" font-size="10.00">fiftyoneDegreesOverrideProperty</text>
</a>
</g>
</g>
<!-- Node6&#45;&gt;Node5 -->
<g id="edge5" class="edge">
<title>Node6&#45;&gt;Node5</title>
<path fill="none" stroke="#9a32cd" stroke-dasharray="5,2" d="M434.22,-136.32C427.93,-124.34 419.73,-108.72 413.89,-97.58"/>
<polygon fill="#9a32cd" stroke="#9a32cd" points="431.22,-138.13 438.96,-145.36 437.42,-134.87 431.22,-138.13"/>
<text text-anchor="middle" x="443" y="-119" font-family="Helvetica,sans-Serif" font-size="10.00"> items</text>
</g>
<!-- Node7 -->
<g id="node7" class="node">
<title>Node7</title>
<g id="a_node7"><a xlink:href="structfiftyone_degrees_property_available.html" target="_top" xlink:title="Used to access the property item quickly without the need to search.">
<polygon fill="none" stroke="black" points="366.5,-233.5 366.5,-252.5 546.5,-252.5 546.5,-233.5 366.5,-233.5"/>
<text text-anchor="middle" x="456.5" y="-240.5" font-family="Helvetica,sans-Serif" font-size="10.00">fiftyoneDegreesPropertyAvailable</text>
</a>
</g>
</g>
<!-- Node7&#45;&gt;Node6 -->
<g id="edge6" class="edge">
<title>Node7&#45;&gt;Node6</title>
<path fill="none" stroke="#9a32cd" stroke-dasharray="5,2" d="M453.69,-223.41C450.93,-205.17 446.85,-178.15 444.79,-164.53"/>
<polygon fill="#9a32cd" stroke="#9a32cd" points="450.25,-224.08 455.21,-233.44 457.17,-223.03 450.25,-224.08"/>
<text text-anchor="middle" x="476" y="-196" font-family="Helvetica,sans-Serif" font-size="10.00"> available</text>
</g>
<!-- Node8 -->
<g id="node8" class="node">
<title>Node8</title>
<g id="a_node8"><a xlink:href="structfiftyone_degrees_evidence_property_index_array.html" target="_top" xlink:title="Array of items of type fiftyoneDegreesEvidencePropertyIndex used to easily access and track the size ...">
<polygon fill="none" stroke="black" points="367,-301.5 367,-331.5 546,-331.5 546,-301.5 367,-301.5"/>
<text text-anchor="start" x="375" y="-319.5" font-family="Helvetica,sans-Serif" font-size="10.00">fiftyoneDegreesEvidenceProperty</text>
<text text-anchor="middle" x="456.5" y="-308.5" font-family="Helvetica,sans-Serif" font-size="10.00">IndexArray</text>
</a>
</g>
</g>
<!-- Node8&#45;&gt;Node7 -->
<g id="edge7" class="edge">
<title>Node8&#45;&gt;Node7</title>
<path fill="none" stroke="#9a32cd" stroke-dasharray="5,2" d="M456.5,-291.36C456.5,-278.01 456.5,-262.25 456.5,-252.7"/>
<polygon fill="#9a32cd" stroke="#9a32cd" points="453,-291.37 456.5,-301.37 460,-291.37 453,-291.37"/>
<text text-anchor="middle" x="505" y="-275" font-family="Helvetica,sans-Serif" font-size="10.00"> evidenceProperties</text>
</g>
<!-- Node9&#45;&gt;Node7 -->
<g id="edge8" class="edge">
<title>Node9&#45;&gt;Node7</title>
<path fill="none" stroke="#9a32cd" stroke-dasharray="5,2" d="M296.61,-303.24C335.62,-288.78 399.42,-265.15 433.44,-252.54"/>
<polygon fill="#9a32cd" stroke="#9a32cd" points="294.94,-300.12 286.78,-306.88 297.37,-306.68 294.94,-300.12"/>
<text text-anchor="middle" x="392" y="-275" font-family="Helvetica,sans-Serif" font-size="10.00"> name</text>
</g>
<!-- Node10 -->
<g id="node10" class="node">
<title>Node10</title>
<g id="a_node10"><a xlink:href="structfiftyone_degrees_collection.html" target="_top" xlink:title="All the shared methods and fields required by file, memory and cached collections.">
<polygon fill="none" stroke="black" points="115,-233.5 115,-252.5 258,-252.5 258,-233.5 115,-233.5"/>
<text text-anchor="middle" x="186.5" y="-240.5" font-family="Helvetica,sans-Serif" font-size="10.00">fiftyoneDegreesCollection</text>
</a>
</g>
</g>
<!-- Node9&#45;&gt;Node10 -->
<g id="edge10" class="edge">
<title>Node9&#45;&gt;Node10</title>
<path fill="none" stroke="#9a32cd" stroke-dasharray="5,2" d="M256.9,-297.4C253.1,-288.9 247.66,-279.1 240.5,-272 232.03,-263.6 220.51,-257.16 210.29,-252.58"/>
<polygon fill="#9a32cd" stroke="#9a32cd" points="253.72,-298.89 260.7,-306.85 260.21,-296.27 253.72,-298.89"/>
<text text-anchor="middle" x="268.5" y="-275" font-family="Helvetica,sans-Serif" font-size="10.00"> release</text>
</g>
<!-- Node10&#45;&gt;Node9 -->
<g id="edge9" class="edge">
<title>Node10&#45;&gt;Node9</title>
<path fill="none" stroke="#9a32cd" stroke-dasharray="5,2" d="M184.09,-262.63C184.13,-269.58 185.38,-277.18 189.5,-283 197.7,-294.56 210.95,-302.06 223.98,-306.9"/>
<polygon fill="#9a32cd" stroke="#9a32cd" points="187.59,-262.82 184.8,-252.6 180.61,-262.33 187.59,-262.82"/>
<text text-anchor="middle" x="215" y="-275" font-family="Helvetica,sans-Serif" font-size="10.00"> collection</text>
</g>
<!-- Node10&#45;&gt;Node10 -->
<g id="edge11" class="edge">
<title>Node10&#45;&gt;Node10</title>
<path fill="none" stroke="#9a32cd" stroke-dasharray="5,2" d="M268.11,-247.41C273.04,-246.36 276,-244.89 276,-243 276,-240.04 268.79,-238.12 258.13,-237.22"/>
<polygon fill="#9a32cd" stroke="#9a32cd" points="267.56,-243.96 258.13,-248.78 268.51,-250.89 267.56,-243.96"/>
<text text-anchor="middle" x="312" y="-246" font-family="Helvetica,sans-Serif" font-size="10.00"> freeCollection</text>
<text text-anchor="middle" x="312" y="-235" font-family="Helvetica,sans-Serif" font-size="10.00">get</text>
</g>
</g>
</svg>
