<?xml version="1.0" encoding="UTF-8" standalone="no"?>
<!DOCTYPE svg PUBLIC "-//W3C//DTD SVG 1.1//EN"
 "http://www.w3.org/Graphics/SVG/1.1/DTD/svg11.dtd">
<!-- Generated by graphviz version 2.43.0 (0)
 -->
<!-- Title: fiftyoneDegreesStoredBinaryValue Pages: 1 -->
<svg width="304pt" height="110pt"
 viewBox="0.00 0.00 304.00 110.00" xmlns="http://www.w3.org/2000/svg" xmlns:xlink="http://www.w3.org/1999/xlink">
<g id="graph0" class="graph" transform="scale(1 1) rotate(0) translate(4 106)">
<title>fiftyoneDegreesStoredBinaryValue</title>
<!-- Node1 -->
<g id="Node000001" class="node">
<title>Node1</title>
<g id="a_Node000001"><a xlink:title="&quot;Packed&quot; value that can be present inside &quot;strings&quot; of dataset.">
<polygon fill="#999999" stroke="#666666" points="217.5,-30 60.5,-30 60.5,0 217.5,0 217.5,-30"/>
<text text-anchor="start" x="68.5" y="-18" font-family="Helvetica,sans-Serif" font-size="10.00">fiftyoneDegreesStoredBinary</text>
<text text-anchor="middle" x="139" y="-7" font-family="Helvetica,sans-Serif" font-size="10.00">Value</text>
</a>
</g>
</g>
<!-- Node2 -->
<g id="Node000002" class="node">
<title>Node2</title>
<g id="a_Node000002"><a xlink:href="structfiftyone_degrees_string.html" target="_top" xlink:title=" ">
<polygon fill="white" stroke="#bfbfbf" points="122,-102 0,-102 0,-83 122,-83 122,-102"/>
<text text-anchor="middle" x="61" y="-90" font-family="Helvetica,sans-Serif" font-size="10.00">fiftyoneDegreesString</text>
</a>
</g>
</g>
<!-- Node2&#45;&gt;Node1 -->
<g id="edge1_Node000001_Node000002" class="edge">
<title>Node2&#45;&gt;Node1</title>
<g id="a_edge1_Node000001_Node000002"><a xlink:title=" ">
<path fill="none" stroke="#9a32cd" stroke-dasharray="5,2" d="M77.35,-75.68C91.22,-62.25 110.95,-43.15 124.32,-30.21"/>
<polygon fill="#9a32cd" stroke="#9a32cd" points="74.7,-73.37 69.95,-82.84 79.57,-78.4 74.7,-73.37"/>
</a>
</g>
<text text-anchor="start" x="108.5" y="-53.5" font-family="Helvetica,sans-Serif" font-size="10.00" fill="grey">stringValue</text>
</g>
<!-- Node3 -->
<g id="Node000003" class="node">
<title>Node3</title>
<g id="a_Node000003"><a xlink:href="structfiftyone_degrees_float_internal.html" target="_top" xlink:title="Struture that represents 51Degrees implementation, which encapsulate an array of 4 bytes.">
<polygon fill="white" stroke="#666666" points="296,-102 140,-102 140,-83 296,-83 296,-102"/>
<text text-anchor="middle" x="218" y="-90" font-family="Helvetica,sans-Serif" font-size="10.00">fiftyoneDegreesFloatInternal</text>
</a>
</g>
</g>
<!-- Node3&#45;&gt;Node1 -->
<g id="edge2_Node000001_Node000003" class="edge">
<title>Node3&#45;&gt;Node1</title>
<g id="a_edge2_Node000001_Node000003"><a xlink:title=" ">
<path fill="none" stroke="#9a32cd" stroke-dasharray="5,2" d="M201.44,-75.68C187.39,-62.25 167.41,-43.15 153.87,-30.21"/>
<polygon fill="#9a32cd" stroke="#9a32cd" points="199.29,-78.46 208.94,-82.84 204.13,-73.4 199.29,-78.46"/>
</a>
</g>
<text text-anchor="start" x="193.5" y="-53.5" font-family="Helvetica,sans-Serif" font-size="10.00" fill="grey">floatValue</text>
</g>
</g>
</svg>
