<?xml version="1.0" encoding="UTF-8" standalone="no"?>
<!DOCTYPE svg PUBLIC "-//W3C//DTD SVG 1.1//EN"
 "http://www.w3.org/Graphics/SVG/1.1/DTD/svg11.dtd">
<!-- Generated by graphviz version 2.43.0 (0)
 -->
<!-- Title: doubleWidth Pages: 1 -->
<svg width="262pt" height="110pt"
 viewBox="0.00 0.00 261.50 110.00" xmlns="http://www.w3.org/2000/svg" xmlns:xlink="http://www.w3.org/1999/xlink">
<g id="graph0" class="graph" transform="scale(1 1) rotate(0) translate(4 106)">
<title>doubleWidth</title>
<!-- Node1 -->
<g id="Node000001" class="node">
<title>Node1</title>
<g id="a_Node000001"><a xlink:title=" ">
<polygon fill="#999999" stroke="#666666" points="175.5,-19 97.5,-19 97.5,0 175.5,0 175.5,-19"/>
<text text-anchor="middle" x="136.5" y="-7" font-family="Helvetica,sans-Serif" font-size="10.00">doubleWidth</text>
</a>
</g>
</g>
<!-- Node2 -->
<g id="Node000002" class="node">
<title>Node2</title>
<g id="a_Node000002"><a xlink:href="structfiftyone_degrees_interlock_double_width.html" target="_top" xlink:title="Double width (64 or 128 depending on the architecture) compare and exchange.">
<polygon fill="white" stroke="#666666" points="137,-102 0,-102 0,-72 137,-72 137,-102"/>
<text text-anchor="start" x="8" y="-90" font-family="Helvetica,sans-Serif" font-size="10.00">fiftyoneDegreesInterlock</text>
<text text-anchor="middle" x="68.5" y="-79" font-family="Helvetica,sans-Serif" font-size="10.00">DoubleWidth</text>
</a>
</g>
</g>
<!-- Node2&#45;&gt;Node1 -->
<g id="edge1_Node000001_Node000002" class="edge">
<title>Node2&#45;&gt;Node1</title>
<g id="a_edge1_Node000001_Node000002"><a xlink:title=" ">
<path fill="none" stroke="#9a32cd" stroke-dasharray="5,2" d="M87.99,-64.36C101.59,-49.26 119.01,-29.92 128.84,-19.01"/>
<polygon fill="#9a32cd" stroke="#9a32cd" points="85.38,-62.03 81.29,-71.8 90.58,-66.71 85.38,-62.03"/>
</a>
</g>
<text text-anchor="start" x="116.5" y="-42.5" font-family="Helvetica,sans-Serif" font-size="10.00" fill="grey">fodDW</text>
</g>
<!-- Node3 -->
<g id="Node000003" class="node">
<title>Node3</title>
<g id="a_Node000003"><a xlink:href="structtest_double_width.html" target="_top" xlink:title=" ">
<polygon fill="white" stroke="#bfbfbf" points="253.5,-96.5 155.5,-96.5 155.5,-77.5 253.5,-77.5 253.5,-96.5"/>
<text text-anchor="middle" x="204.5" y="-84.5" font-family="Helvetica,sans-Serif" font-size="10.00">testDoubleWidth</text>
</a>
</g>
</g>
<!-- Node3&#45;&gt;Node1 -->
<g id="edge2_Node000001_Node000003" class="edge">
<title>Node3&#45;&gt;Node1</title>
<g id="a_edge2_Node000001_Node000003"><a xlink:title=" ">
<path fill="none" stroke="#9a32cd" stroke-dasharray="5,2" d="M189.69,-69.55C175.68,-54 155.23,-31.29 144.21,-19.06"/>
<polygon fill="#9a32cd" stroke="#9a32cd" points="187.41,-72.25 196.7,-77.34 192.61,-67.57 187.41,-72.25"/>
</a>
</g>
<text text-anchor="start" x="178" y="-42.5" font-family="Helvetica,sans-Serif" font-size="10.00" fill="grey">testDW</text>
</g>
</g>
</svg>
