<?xml version="1.0" encoding="UTF-8" standalone="no"?>
<!DOCTYPE svg PUBLIC "-//W3C//DTD SVG 1.1//EN"
 "http://www.w3.org/Graphics/SVG/1.1/DTD/svg11.dtd">
<!-- Generated by graphviz version 2.43.0 (0)
 -->
<!-- Title: fiftyoneDegreesFileHandle Pages: 1 -->
<svg width="376pt" height="99pt"
 viewBox="0.00 0.00 375.50 99.00" xmlns="http://www.w3.org/2000/svg" xmlns:xlink="http://www.w3.org/1999/xlink">
<g id="graph0" class="graph" transform="scale(1 1) rotate(0) translate(4 95)">
<title>fiftyoneDegreesFileHandle</title>
<!-- Node1 -->
<g id="Node000001" class="node">
<title>Node1</title>
<g id="a_Node000001"><a xlink:title="File handle node in the stack of handles.">
<polygon fill="#999999" stroke="#666666" points="146,-19 0,-19 0,0 146,0 146,-19"/>
<text text-anchor="middle" x="73" y="-7" font-family="Helvetica,sans-Serif" font-size="10.00">fiftyoneDegreesFileHandle</text>
</a>
</g>
</g>
<!-- Node2 -->
<g id="Node000002" class="node">
<title>Node2</title>
<g id="a_Node000002"><a xlink:href="structfiftyone_degrees_pool_item.html" target="_top" xlink:title="Pool item node in the stack of items.">
<polygon fill="white" stroke="#666666" points="193.5,-91 56.5,-91 56.5,-72 193.5,-72 193.5,-91"/>
<text text-anchor="middle" x="125" y="-79" font-family="Helvetica,sans-Serif" font-size="10.00">fiftyoneDegreesPoolItem</text>
</a>
</g>
</g>
<!-- Node2&#45;&gt;Node1 -->
<g id="edge1_Node000001_Node000002" class="edge">
<title>Node2&#45;&gt;Node1</title>
<g id="a_edge1_Node000001_Node000002"><a xlink:title=" ">
<path fill="none" stroke="#9a32cd" stroke-dasharray="5,2" d="M104.87,-65.43C100.97,-61.95 97.13,-58.06 94,-54 85.6,-43.11 79.35,-28.32 75.93,-19.1"/>
<polygon fill="#9a32cd" stroke="#9a32cd" points="102.81,-68.27 112.75,-71.94 107.27,-62.87 102.81,-68.27"/>
</a>
</g>
<text text-anchor="start" x="97.5" y="-42.5" font-family="Helvetica,sans-Serif" font-size="10.00" fill="grey">item</text>
</g>
<!-- Node3 -->
<g id="Node000003" class="node">
<title>Node3</title>
<g id="a_Node000003"><a xlink:href="structfiftyone_degrees_pool.html" target="_top" xlink:title="Pool of resources stored as items in a stack.">
<polygon fill="white" stroke="#666666" points="279.5,-19 164.5,-19 164.5,0 279.5,0 279.5,-19"/>
<text text-anchor="middle" x="222" y="-7" font-family="Helvetica,sans-Serif" font-size="10.00">fiftyoneDegreesPool</text>
</a>
</g>
</g>
<!-- Node2&#45;&gt;Node3 -->
<g id="edge3_Node000003_Node000002" class="edge">
<title>Node2&#45;&gt;Node3</title>
<g id="a_edge3_Node000003_Node000002"><a xlink:title=" ">
<path fill="none" stroke="#9a32cd" stroke-dasharray="5,2" d="M129.72,-62.26C132.79,-53.58 137.64,-43.66 145,-37 154.12,-28.75 165.93,-23.04 177.56,-19.11"/>
<polygon fill="#9a32cd" stroke="#9a32cd" points="126.34,-61.35 126.8,-71.94 133.04,-63.37 126.34,-61.35"/>
</a>
</g>
<text text-anchor="start" x="148.5" y="-42.5" font-family="Helvetica,sans-Serif" font-size="10.00" fill="grey">stack</text>
</g>
<!-- Node3&#45;&gt;Node2 -->
<g id="edge2_Node000002_Node000003" class="edge">
<title>Node3&#45;&gt;Node2</title>
<g id="a_edge2_Node000002_Node000003"><a xlink:title=" ">
<path fill="none" stroke="#9a32cd" stroke-dasharray="5,2" d="M209.34,-27.17C202.05,-35.97 192.31,-46.46 182,-54 171.87,-61.41 159.34,-67.51 148.61,-71.98"/>
<polygon fill="#9a32cd" stroke="#9a32cd" points="212.26,-29.13 215.74,-19.12 206.78,-24.77 212.26,-29.13"/>
</a>
</g>
<text text-anchor="start" x="203" y="-42.5" font-family="Helvetica,sans-Serif" font-size="10.00" fill="grey">pool</text>
</g>
<!-- Node3&#45;&gt;Node3 -->
<g id="edge5_Node000003_Node000003" class="edge">
<title>Node3&#45;&gt;Node3</title>
<g id="a_edge5_Node000003_Node000003"><a xlink:title=" ">
<path fill="none" stroke="#9a32cd" stroke-dasharray="5,2" d="M289.53,-14.5C294.47,-13.37 297.5,-11.71 297.5,-9.5 297.5,-6.05 290.12,-3.93 279.61,-3.12"/>
<polygon fill="#9a32cd" stroke="#9a32cd" points="289.03,-11.03 279.61,-15.88 289.99,-17.97 289.03,-11.03"/>
</a>
</g>
<text text-anchor="start" x="300.5" y="-6.5" font-family="Helvetica,sans-Serif" font-size="10.00" fill="grey">resourceFree</text>
</g>
<!-- Node4 -->
<g id="Node000004" class="node">
<title>Node4</title>
<g id="a_Node000004"><a xlink:href="unionfiftyone_degrees_pool_head.html" target="_top" xlink:title="The head of the stack used for pop and push operations.">
<polygon fill="white" stroke="#666666" points="352,-91 212,-91 212,-72 352,-72 352,-91"/>
<text text-anchor="middle" x="282" y="-79" font-family="Helvetica,sans-Serif" font-size="10.00">fiftyoneDegreesPoolHead</text>
</a>
</g>
</g>
<!-- Node4&#45;&gt;Node3 -->
<g id="edge4_Node000003_Node000004" class="edge">
<title>Node4&#45;&gt;Node3</title>
<g id="a_edge4_Node000003_Node000004"><a xlink:title=" ">
<path fill="none" stroke="#9a32cd" stroke-dasharray="5,2" d="M267.87,-64.01C255.82,-49.96 238.98,-30.32 229.42,-19.15"/>
<polygon fill="#9a32cd" stroke="#9a32cd" points="265.48,-66.6 274.64,-71.92 270.79,-62.05 265.48,-66.6"/>
</a>
</g>
<text text-anchor="start" x="263.5" y="-42.5" font-family="Helvetica,sans-Serif" font-size="10.00" fill="grey">head</text>
</g>
</g>
</svg>
