<?xml version="1.0" encoding="UTF-8" standalone="no"?>
<!DOCTYPE svg PUBLIC "-//W3C//DTD SVG 1.1//EN"
 "http://www.w3.org/Graphics/SVG/1.1/DTD/svg11.dtd">
<!-- Generated by graphviz version 2.43.0 (0)
 -->
<!-- Title: StoredBinaryValues Pages: 1 -->
<svg width="384pt" height="184pt"
 viewBox="0.00 0.00 383.50 184.00" xmlns="http://www.w3.org/2000/svg" xmlns:xlink="http://www.w3.org/1999/xlink">
<g id="graph0" class="graph" transform="scale(1 1) rotate(0) translate(4 180)">
<title>StoredBinaryValues</title>
<!-- Node3 -->
<g id="node1" class="node">
<title>Node3</title>
<g id="a_node1"><a xlink:title=" ">
<polygon fill="#bfbfbf" stroke="black" points="102,-0.5 102,-19.5 214,-19.5 214,-0.5 102,-0.5"/>
<text text-anchor="middle" x="158" y="-7.5" font-family="Helvetica,sans-Serif" font-size="10.00">StoredBinaryValues</text>
</a>
</g>
</g>
<!-- Node4 -->
<g id="node2" class="node">
<title>Node4</title>
<g id="a_node2"><a xlink:href="class_base.html" target="_top" xlink:title="Base test class used to carry out memory leak checks.">
<polygon fill="none" stroke="black" points="26.5,-73 26.5,-92 67.5,-92 67.5,-73 26.5,-73"/>
<text text-anchor="middle" x="47" y="-80" font-family="Helvetica,sans-Serif" font-size="10.00">Base</text>
</a>
</g>
</g>
<!-- Node4&#45;&gt;Node3 -->
<g id="edge1" class="edge">
<title>Node4&#45;&gt;Node3</title>
<path fill="none" stroke="midnightblue" d="M69.15,-67.43C91.55,-53.2 125.49,-31.65 144.28,-19.72"/>
<polygon fill="midnightblue" stroke="midnightblue" points="67.18,-64.54 60.61,-72.86 70.93,-70.45 67.18,-64.54"/>
</g>
<!-- Node5 -->
<g id="node3" class="node">
<title>Node5</title>
<g id="a_node3"><a xlink:title=" ">
<polygon fill="none" stroke="#bfbfbf" points="0,-151 0,-170 76,-170 76,-151 0,-151"/>
<text text-anchor="middle" x="38" y="-158" font-family="Helvetica,sans-Serif" font-size="10.00">testing::Test</text>
</a>
</g>
</g>
<!-- Node5&#45;&gt;Node4 -->
<g id="edge2" class="edge">
<title>Node5&#45;&gt;Node4</title>
<path fill="none" stroke="midnightblue" d="M40.22,-140.72C42.06,-125.2 44.59,-103.86 45.98,-92.12"/>
<polygon fill="midnightblue" stroke="midnightblue" points="36.73,-140.44 39.03,-150.78 43.68,-141.26 36.73,-140.44"/>
</g>
<!-- Node6 -->
<g id="node4" class="node">
<title>Node6</title>
<g id="a_node4"><a xlink:href="struct_stored_binary_values_1_1_file_props.html" target="_top" xlink:title=" ">
<polygon fill="none" stroke="black" points="102,-67.5 102,-97.5 214,-97.5 214,-67.5 102,-67.5"/>
<text text-anchor="start" x="110" y="-85.5" font-family="Helvetica,sans-Serif" font-size="10.00">StoredBinaryValues</text>
<text text-anchor="middle" x="158" y="-74.5" font-family="Helvetica,sans-Serif" font-size="10.00">::FileProps</text>
</a>
</g>
</g>
<!-- Node6&#45;&gt;Node3 -->
<g id="edge3" class="edge">
<title>Node6&#45;&gt;Node3</title>
<path fill="none" stroke="#9a32cd" stroke-dasharray="5,2" d="M158,-57.09C158,-44.21 158,-29.2 158,-19.89"/>
<polygon fill="#9a32cd" stroke="#9a32cd" points="154.5,-57.23 158,-67.23 161.5,-57.23 154.5,-57.23"/>
<text text-anchor="middle" x="167.5" y="-41" font-family="Helvetica,sans-Serif" font-size="10.00"> file</text>
</g>
<!-- Node7 -->
<g id="node5" class="node">
<title>Node7</title>
<g id="a_node5"><a xlink:href="structfiftyone_degrees_collection_config.html" target="_top" xlink:title="Collection configuration structure which defines how the collection should be created by the create m...">
<polygon fill="none" stroke="black" points="94.5,-145.5 94.5,-175.5 237.5,-175.5 237.5,-145.5 94.5,-145.5"/>
<text text-anchor="start" x="102.5" y="-163.5" font-family="Helvetica,sans-Serif" font-size="10.00">fiftyoneDegreesCollection</text>
<text text-anchor="middle" x="166" y="-152.5" font-family="Helvetica,sans-Serif" font-size="10.00">Config</text>
</a>
</g>
</g>
<!-- Node7&#45;&gt;Node6 -->
<g id="edge4" class="edge">
<title>Node7&#45;&gt;Node6</title>
<path fill="none" stroke="#9a32cd" stroke-dasharray="5,2" d="M163.43,-135.09C162.13,-122.76 160.6,-108.22 159.5,-97.73"/>
<polygon fill="#9a32cd" stroke="#9a32cd" points="159.97,-135.63 164.5,-145.2 166.93,-134.89 159.97,-135.63"/>
<text text-anchor="middle" x="179.5" y="-119" font-family="Helvetica,sans-Serif" font-size="10.00"> config</text>
</g>
<!-- Node8 -->
<g id="node6" class="node">
<title>Node8</title>
<g id="a_node6"><a xlink:href="structfiftyone_degrees_collection_header.html" target="_top" xlink:title="Collection header structure which defines the size and location of the collection data.">
<polygon fill="none" stroke="black" points="232.5,-67.5 232.5,-97.5 375.5,-97.5 375.5,-67.5 232.5,-67.5"/>
<text text-anchor="start" x="240.5" y="-85.5" font-family="Helvetica,sans-Serif" font-size="10.00">fiftyoneDegreesCollection</text>
<text text-anchor="middle" x="304" y="-74.5" font-family="Helvetica,sans-Serif" font-size="10.00">Header</text>
</a>
</g>
</g>
<!-- Node8&#45;&gt;Node3 -->
<g id="edge5" class="edge">
<title>Node8&#45;&gt;Node3</title>
<path fill="none" stroke="#9a32cd" stroke-dasharray="5,2" d="M265.72,-63.02C236.61,-48.96 197.88,-30.26 175.67,-19.53"/>
<polygon fill="#9a32cd" stroke="#9a32cd" points="264.28,-66.21 274.81,-67.4 267.32,-59.9 264.28,-66.21"/>
<text text-anchor="middle" x="253.5" y="-41" font-family="Helvetica,sans-Serif" font-size="10.00"> header</text>
</g>
</g>
</svg>
