<?xml version="1.0" encoding="UTF-8" standalone="no"?>
<!DOCTYPE svg PUBLIC "-//W3C//DTD SVG 1.1//EN"
 "http://www.w3.org/Graphics/SVG/1.1/DTD/svg11.dtd">
<!-- Generated by graphviz version 2.43.0 (0)
 -->
<!-- Title: FiftyoneDegrees::IpIntelligence::EvidenceIpi Pages: 1 -->
<svg width="180pt" height="231pt"
 viewBox="0.00 0.00 180.00 231.00" xmlns="http://www.w3.org/2000/svg" xmlns:xlink="http://www.w3.org/1999/xlink">
<g id="graph0" class="graph" transform="scale(1 1) rotate(0) translate(4 227)">
<title>FiftyoneDegrees::IpIntelligence::EvidenceIpi</title>
<!-- Node4 -->
<g id="node1" class="node">
<title>Node4</title>
<g id="a_node1"><a xlink:title="IP Intelligence specific evidence class containing evidence to be processed by an IP intelligence eng...">
<polygon fill="#bfbfbf" stroke="black" points="0,-0.5 0,-30.5 168,-30.5 168,-0.5 0,-0.5"/>
<text text-anchor="start" x="8" y="-18.5" font-family="Helvetica,sans-Serif" font-size="10.00">FiftyoneDegrees::IpIntelligence</text>
<text text-anchor="middle" x="84" y="-7.5" font-family="Helvetica,sans-Serif" font-size="10.00">::EvidenceIpi</text>
</a>
</g>
</g>
<!-- Node5 -->
<g id="node2" class="node">
<title>Node5</title>
<g id="a_node2"><a xlink:href="class_fiftyone_degrees_1_1_common_1_1_evidence_base.html" target="_top" xlink:title="Base evidence class containing evidence to be processed by an engine.">
<polygon fill="none" stroke="black" points="11,-68.5 11,-98.5 157,-98.5 157,-68.5 11,-68.5"/>
<text text-anchor="start" x="19" y="-86.5" font-family="Helvetica,sans-Serif" font-size="10.00">FiftyoneDegrees::Common</text>
<text text-anchor="middle" x="84" y="-75.5" font-family="Helvetica,sans-Serif" font-size="10.00">::EvidenceBase</text>
</a>
</g>
</g>
<!-- Node5&#45;&gt;Node4 -->
<g id="edge1" class="edge">
<title>Node5&#45;&gt;Node4</title>
<path fill="none" stroke="midnightblue" d="M84,-58.03C84,-48.86 84,-38.74 84,-30.79"/>
<polygon fill="midnightblue" stroke="midnightblue" points="80.5,-58.18 84,-68.18 87.5,-58.18 80.5,-58.18"/>
</g>
<!-- Node6 -->
<g id="node3" class="node">
<title>Node6</title>
<g id="a_node3"><a xlink:href="structmap.html" target="_top" xlink:title=" ">
<polygon fill="none" stroke="black" points="23,-136.5 23,-155.5 145,-155.5 145,-136.5 23,-136.5"/>
<text text-anchor="middle" x="84" y="-143.5" font-family="Helvetica,sans-Serif" font-size="10.00">map&lt; string, string &gt;</text>
</a>
</g>
</g>
<!-- Node6&#45;&gt;Node5 -->
<g id="edge2" class="edge">
<title>Node6&#45;&gt;Node5</title>
<path fill="none" stroke="midnightblue" d="M84,-126.22C84,-117.36 84,-106.96 84,-98.76"/>
<polygon fill="midnightblue" stroke="midnightblue" points="80.5,-126.33 84,-136.33 87.5,-126.33 80.5,-126.33"/>
</g>
<!-- Node7 -->
<g id="node4" class="node">
<title>Node7</title>
<g id="a_node4"><a xlink:href="structmap.html" target="_top" xlink:title=" ">
<polygon fill="none" stroke="black" points="65,-203.5 65,-222.5 103,-222.5 103,-203.5 65,-203.5"/>
<text text-anchor="middle" x="84" y="-210.5" font-family="Helvetica,sans-Serif" font-size="10.00">map</text>
</a>
</g>
</g>
<!-- Node7&#45;&gt;Node6 -->
<g id="edge3" class="edge">
<title>Node7&#45;&gt;Node6</title>
<path fill="none" stroke="orange" stroke-dasharray="5,2" d="M84,-193.04C84,-180.67 84,-165.12 84,-155.63"/>
<polygon fill="orange" stroke="orange" points="80.5,-193.23 84,-203.23 87.5,-193.23 80.5,-193.23"/>
<text text-anchor="middle" x="128" y="-177" font-family="Helvetica,sans-Serif" font-size="10.00"> &lt; string, string &gt;</text>
</g>
</g>
</svg>
