<?xml version="1.0" encoding="UTF-8" standalone="no"?>
<!DOCTYPE svg PUBLIC "-//W3C//DTD SVG 1.1//EN"
 "http://www.w3.org/Graphics/SVG/1.1/DTD/svg11.dtd">
<!-- Generated by graphviz version 2.43.0 (0)
 -->
<!-- Title: Evidence Pages: 1 -->
<svg width="437pt" height="137pt"
 viewBox="0.00 0.00 437.00 137.00" xmlns="http://www.w3.org/2000/svg" xmlns:xlink="http://www.w3.org/1999/xlink">
<g id="graph0" class="graph" transform="scale(1 1) rotate(0) translate(4 133)">
<title>Evidence</title>
<!-- Node0 -->
<g id="node1" class="node">
<title>Node0</title>
<g id="a_node1"><a xlink:title="Evidence test class used to test the functionality in evidence.c.">
<polygon fill="#bfbfbf" stroke="black" points="189,-55 189,-74 250,-74 250,-55 189,-55"/>
<text text-anchor="middle" x="219.5" y="-62" font-family="Helvetica,sans-Serif" font-size="10.00">Evidence</text>
</a>
</g>
</g>
<!-- Node3 -->
<g id="node4" class="node">
<title>Node3</title>
<g id="a_node4"><a xlink:href="class_evidence_with_headers_test___multiple_headers.html" target="_top" xlink:title=" ">
<polygon fill="none" stroke="black" points="286,-98.5 286,-128.5 429,-128.5 429,-98.5 286,-98.5"/>
<text text-anchor="start" x="294" y="-116.5" font-family="Helvetica,sans-Serif" font-size="10.00">EvidenceWithHeadersTest</text>
<text text-anchor="middle" x="357.5" y="-105.5" font-family="Helvetica,sans-Serif" font-size="10.00">_MultipleHeaders</text>
</a>
</g>
</g>
<!-- Node0&#45;&gt;Node3 -->
<g id="edge3" class="edge">
<title>Node0&#45;&gt;Node3</title>
<path fill="none" stroke="midnightblue" d="M254.35,-77.69C264.5,-81.57 275.68,-85.77 286,-89.5 294.15,-92.44 302.86,-95.49 311.28,-98.38"/>
<polygon fill="midnightblue" stroke="midnightblue" points="255.58,-74.41 244.99,-74.09 253.07,-80.95 255.58,-74.41"/>
</g>
<!-- Node4 -->
<g id="node5" class="node">
<title>Node4</title>
<g id="a_node5"><a xlink:href="class_evidence_with_headers_test___no_header.html" target="_top" xlink:title=" ">
<polygon fill="none" stroke="black" points="286,-49.5 286,-79.5 429,-79.5 429,-49.5 286,-49.5"/>
<text text-anchor="start" x="294" y="-67.5" font-family="Helvetica,sans-Serif" font-size="10.00">EvidenceWithHeadersTest</text>
<text text-anchor="middle" x="357.5" y="-56.5" font-family="Helvetica,sans-Serif" font-size="10.00">_NoHeader</text>
</a>
</g>
</g>
<!-- Node0&#45;&gt;Node4 -->
<g id="edge4" class="edge">
<title>Node0&#45;&gt;Node4</title>
<path fill="none" stroke="midnightblue" d="M260.19,-64.5C268.26,-64.5 276.97,-64.5 285.75,-64.5"/>
<polygon fill="midnightblue" stroke="midnightblue" points="260.01,-61 250.01,-64.5 260.01,-68 260.01,-61"/>
</g>
<!-- Node5 -->
<g id="node6" class="node">
<title>Node5</title>
<g id="a_node6"><a xlink:href="class_evidence_with_headers_test___single_header.html" target="_top" xlink:title=" ">
<polygon fill="none" stroke="black" points="286,-0.5 286,-30.5 429,-30.5 429,-0.5 286,-0.5"/>
<text text-anchor="start" x="294" y="-18.5" font-family="Helvetica,sans-Serif" font-size="10.00">EvidenceWithHeadersTest</text>
<text text-anchor="middle" x="357.5" y="-7.5" font-family="Helvetica,sans-Serif" font-size="10.00">_SingleHeader</text>
</a>
</g>
</g>
<!-- Node0&#45;&gt;Node5 -->
<g id="edge5" class="edge">
<title>Node0&#45;&gt;Node5</title>
<path fill="none" stroke="midnightblue" d="M254.35,-51.31C264.5,-47.43 275.68,-43.23 286,-39.5 294.15,-36.56 302.86,-33.51 311.28,-30.62"/>
<polygon fill="midnightblue" stroke="midnightblue" points="253.07,-48.05 244.99,-54.91 255.58,-54.59 253.07,-48.05"/>
</g>
<!-- Node1 -->
<g id="node2" class="node">
<title>Node1</title>
<g id="a_node2"><a xlink:href="class_base.html" target="_top" xlink:title="Base test class used to carry out memory leak checks.">
<polygon fill="none" stroke="black" points="112,-55 112,-74 153,-74 153,-55 112,-55"/>
<text text-anchor="middle" x="132.5" y="-62" font-family="Helvetica,sans-Serif" font-size="10.00">Base</text>
</a>
</g>
</g>
<!-- Node1&#45;&gt;Node0 -->
<g id="edge1" class="edge">
<title>Node1&#45;&gt;Node0</title>
<path fill="none" stroke="midnightblue" d="M163.25,-64.5C171.56,-64.5 180.59,-64.5 188.89,-64.5"/>
<polygon fill="midnightblue" stroke="midnightblue" points="163.21,-61 153.21,-64.5 163.21,-68 163.21,-61"/>
</g>
<!-- Node2 -->
<g id="node3" class="node">
<title>Node2</title>
<g id="a_node3"><a xlink:title=" ">
<polygon fill="none" stroke="#bfbfbf" points="0,-55 0,-74 76,-74 76,-55 0,-55"/>
<text text-anchor="middle" x="38" y="-62" font-family="Helvetica,sans-Serif" font-size="10.00">testing::Test</text>
</a>
</g>
</g>
<!-- Node2&#45;&gt;Node1 -->
<g id="edge2" class="edge">
<title>Node2&#45;&gt;Node1</title>
<path fill="none" stroke="midnightblue" d="M86.28,-64.5C95.35,-64.5 104.36,-64.5 111.93,-64.5"/>
<polygon fill="midnightblue" stroke="midnightblue" points="86.09,-61 76.09,-64.5 86.09,-68 86.09,-61"/>
</g>
</g>
</svg>
