<?xml version="1.0" encoding="UTF-8" standalone="no"?>
<!DOCTYPE svg PUBLIC "-//W3C//DTD SVG 1.1//EN"
 "http://www.w3.org/Graphics/SVG/1.1/DTD/svg11.dtd">
<!-- Generated by graphviz version 2.43.0 (0)
 -->
<!-- Title: FiftyoneDegrees::IpIntelligence::ValueMetaDataCollectionIpi Pages: 1 -->
<svg width="2707pt" height="824pt"
 viewBox="0.00 0.00 2707.00 824.00" xmlns="http://www.w3.org/2000/svg" xmlns:xlink="http://www.w3.org/1999/xlink">
<g id="graph0" class="graph" transform="scale(1 1) rotate(0) translate(4 820)">
<title>FiftyoneDegrees::IpIntelligence::ValueMetaDataCollectionIpi</title>
<!-- Node3 -->
<g id="node1" class="node">
<title>Node3</title>
<g id="a_node1"><a xlink:title="A collection of all value meta data contained in a IP Intelligence engine.">
<polygon fill="#bfbfbf" stroke="black" points="2531,-391 2531,-421 2699,-421 2699,-391 2531,-391"/>
<text text-anchor="start" x="2539" y="-409" font-family="Helvetica,sans-Serif" font-size="10.00">FiftyoneDegrees::IpIntelligence</text>
<text text-anchor="middle" x="2615" y="-398" font-family="Helvetica,sans-Serif" font-size="10.00">::ValueMetaDataCollectionIpi</text>
</a>
</g>
</g>
<!-- Node4 -->
<g id="node2" class="node">
<title>Node4</title>
<g id="a_node2"><a xlink:href="class_fiftyone_degrees_1_1_ip_intelligence_1_1_value_meta_data_collection_base_ipi.html" target="_top" xlink:title="A collection of all value meta data contained in an IP Intelligence engine.">
<polygon fill="none" stroke="black" points="2312,-391 2312,-421 2494,-421 2494,-391 2312,-391"/>
<text text-anchor="start" x="2320" y="-409" font-family="Helvetica,sans-Serif" font-size="10.00">FiftyoneDegrees::IpIntelligence</text>
<text text-anchor="middle" x="2403" y="-398" font-family="Helvetica,sans-Serif" font-size="10.00">::ValueMetaDataCollectionBaseIpi</text>
</a>
</g>
</g>
<!-- Node4&#45;&gt;Node3 -->
<g id="edge1" class="edge">
<title>Node4&#45;&gt;Node3</title>
<path fill="none" stroke="midnightblue" d="M2504.55,-406C2513.33,-406 2522.15,-406 2530.77,-406"/>
<polygon fill="midnightblue" stroke="midnightblue" points="2504.28,-402.5 2494.28,-406 2504.28,-409.5 2504.28,-402.5"/>
</g>
<!-- Node5 -->
<g id="node3" class="node">
<title>Node5</title>
<g id="a_node3"><a xlink:href="class_fiftyone_degrees_1_1_common_1_1_collection.html" target="_top" xlink:title="A group of items accessible by index or key.">
<polygon fill="none" stroke="black" points="2056,-409.5 2056,-450.5 2235,-450.5 2235,-409.5 2056,-409.5"/>
<text text-anchor="start" x="2064" y="-438.5" font-family="Helvetica,sans-Serif" font-size="10.00">FiftyoneDegrees::Common</text>
<text text-anchor="start" x="2064" y="-427.5" font-family="Helvetica,sans-Serif" font-size="10.00">::Collection&lt; ValueMetaDataKey,</text>
<text text-anchor="middle" x="2145.5" y="-416.5" font-family="Helvetica,sans-Serif" font-size="10.00"> ValueMetaData &gt;</text>
</a>
</g>
</g>
<!-- Node5&#45;&gt;Node4 -->
<g id="edge2" class="edge">
<title>Node5&#45;&gt;Node4</title>
<path fill="none" stroke="midnightblue" d="M2245.13,-420.74C2267.06,-418.68 2290.2,-416.5 2311.78,-414.47"/>
<polygon fill="midnightblue" stroke="midnightblue" points="2244.77,-417.25 2235.14,-421.67 2245.43,-424.22 2244.77,-417.25"/>
</g>
<!-- Node6 -->
<g id="node4" class="node">
<title>Node6</title>
<g id="a_node4"><a xlink:href="structfiftyone_degrees_data_set_ipi.html" target="_top" xlink:title="Data set structure containing all the components used for IP intelligence.">
<polygon fill="none" stroke="black" points="2073,-371.5 2073,-390.5 2218,-390.5 2218,-371.5 2073,-371.5"/>
<text text-anchor="middle" x="2145.5" y="-378.5" font-family="Helvetica,sans-Serif" font-size="10.00">fiftyoneDegreesDataSetIpi</text>
</a>
</g>
</g>
<!-- Node6&#45;&gt;Node4 -->
<g id="edge3" class="edge">
<title>Node6&#45;&gt;Node4</title>
<path fill="none" stroke="#9a32cd" stroke-dasharray="5,2" d="M2228.07,-388.98C2254.74,-391.59 2284.52,-394.5 2311.79,-397.17"/>
<polygon fill="#9a32cd" stroke="#9a32cd" points="2228.3,-385.49 2218.01,-388 2227.62,-392.45 2228.3,-385.49"/>
<text text-anchor="middle" x="2273.5" y="-397" font-family="Helvetica,sans-Serif" font-size="10.00"> dataSet</text>
</g>
<!-- Node7 -->
<g id="node5" class="node">
<title>Node7</title>
<g id="a_node5"><a xlink:href="structfiftyone_degrees_list.html" target="_top" xlink:title="List structure which contains a list of collection items.">
<polygon fill="none" stroke="black" points="688,-371.5 688,-390.5 799,-390.5 799,-371.5 688,-371.5"/>
<text text-anchor="middle" x="743.5" y="-378.5" font-family="Helvetica,sans-Serif" font-size="10.00">fiftyoneDegreesList</text>
</a>
</g>
</g>
<!-- Node7&#45;&gt;Node6 -->
<g id="edge4" class="edge">
<title>Node7&#45;&gt;Node6</title>
<path fill="none" stroke="#9a32cd" stroke-dasharray="5,2" d="M809.35,-381C880.8,-381 999.09,-381 1101,-381 1101,-381 1101,-381 1899.5,-381 1957.88,-381 2024.08,-381 2072.94,-381"/>
<polygon fill="#9a32cd" stroke="#9a32cd" points="809.16,-377.5 799.16,-381 809.16,-384.5 809.16,-377.5"/>
<text text-anchor="middle" x="1456.5" y="-384" font-family="Helvetica,sans-Serif" font-size="10.00"> componentsList</text>
</g>
<!-- Node8 -->
<g id="node6" class="node">
<title>Node8</title>
<g id="a_node6"><a xlink:href="structfiftyone_degrees_collection_item.html" target="_top" xlink:title="Used to store a handle to the underlying item that could be used to release the item when it&#39;s finish...">
<polygon fill="none" stroke="black" points="185,-424.5 185,-443.5 350,-443.5 350,-424.5 185,-424.5"/>
<text text-anchor="middle" x="267.5" y="-431.5" font-family="Helvetica,sans-Serif" font-size="10.00">fiftyoneDegreesCollectionItem</text>
</a>
</g>
</g>
<!-- Node8&#45;&gt;Node7 -->
<g id="edge5" class="edge">
<title>Node8&#45;&gt;Node7</title>
<path fill="none" stroke="#9a32cd" stroke-dasharray="5,2" d="M302.17,-420.79C322.84,-413.31 350.06,-404.55 375,-400 484.68,-380 615.59,-378.44 687.82,-379.47"/>
<polygon fill="#9a32cd" stroke="#9a32cd" points="300.74,-417.59 292.58,-424.35 303.17,-424.15 300.74,-417.59"/>
<text text-anchor="middle" x="423.5" y="-403" font-family="Helvetica,sans-Serif" font-size="10.00"> items</text>
</g>
<!-- Node9 -->
<g id="node7" class="node">
<title>Node9</title>
<g id="a_node7"><a xlink:href="structfiftyone_degrees_collection.html" target="_top" xlink:title="All the shared methods and fields required by file, memory and cached collections.">
<polygon fill="none" stroke="black" points="508.5,-409.5 508.5,-428.5 651.5,-428.5 651.5,-409.5 508.5,-409.5"/>
<text text-anchor="middle" x="580" y="-416.5" font-family="Helvetica,sans-Serif" font-size="10.00">fiftyoneDegreesCollection</text>
</a>
</g>
</g>
<!-- Node8&#45;&gt;Node9 -->
<g id="edge7" class="edge">
<title>Node8&#45;&gt;Node9</title>
<path fill="none" stroke="#9a32cd" stroke-dasharray="5,2" d="M360.43,-433.08C395.39,-432.38 435.56,-431.15 472,-429 483.73,-428.31 496.17,-427.35 508.26,-426.3"/>
<polygon fill="#9a32cd" stroke="#9a32cd" points="360.18,-429.58 350.24,-433.27 360.31,-436.58 360.18,-429.58"/>
<text text-anchor="middle" x="423.5" y="-435" font-family="Helvetica,sans-Serif" font-size="10.00"> release</text>
</g>
<!-- Node29 -->
<g id="node27" class="node">
<title>Node29</title>
<g id="a_node27"><a xlink:href="structfiftyone_degrees_property_available.html" target="_top" xlink:title="Used to access the property item quickly without the need to search.">
<polygon fill="none" stroke="black" points="490,-527.5 490,-546.5 670,-546.5 670,-527.5 490,-527.5"/>
<text text-anchor="middle" x="580" y="-534.5" font-family="Helvetica,sans-Serif" font-size="10.00">fiftyoneDegreesPropertyAvailable</text>
</a>
</g>
</g>
<!-- Node8&#45;&gt;Node29 -->
<g id="edge34" class="edge">
<title>Node8&#45;&gt;Node29</title>
<path fill="none" stroke="#9a32cd" stroke-dasharray="5,2" d="M306.71,-446.67C369.62,-467.54 493.65,-508.69 549.96,-527.37"/>
<polygon fill="#9a32cd" stroke="#9a32cd" points="307.75,-443.33 297.15,-443.51 305.54,-449.98 307.75,-443.33"/>
<text text-anchor="middle" x="423.5" y="-503" font-family="Helvetica,sans-Serif" font-size="10.00"> name</text>
</g>
<!-- Node9&#45;&gt;Node6 -->
<g id="edge16" class="edge">
<title>Node9&#45;&gt;Node6</title>
<path fill="none" stroke="#9a32cd" stroke-dasharray="5,2" d="M661.93,-419C727.36,-419 821.87,-419 904.5,-419 904.5,-419 904.5,-419 1899.5,-419 1936.57,-419 2034.67,-401.8 2094.9,-390.54"/>
<polygon fill="#9a32cd" stroke="#9a32cd" points="661.68,-415.5 651.68,-419 661.68,-422.5 661.68,-415.5"/>
<text text-anchor="middle" x="1456.5" y="-532" font-family="Helvetica,sans-Serif" font-size="10.00"> profileOffsets</text>
<text text-anchor="middle" x="1456.5" y="-521" font-family="Helvetica,sans-Serif" font-size="10.00">values</text>
<text text-anchor="middle" x="1456.5" y="-510" font-family="Helvetica,sans-Serif" font-size="10.00">graphs</text>
<text text-anchor="middle" x="1456.5" y="-499" font-family="Helvetica,sans-Serif" font-size="10.00">profileGroups</text>
<text text-anchor="middle" x="1456.5" y="-488" font-family="Helvetica,sans-Serif" font-size="10.00">strings</text>
<text text-anchor="middle" x="1456.5" y="-477" font-family="Helvetica,sans-Serif" font-size="10.00">propertyTypes</text>
<text text-anchor="middle" x="1456.5" y="-466" font-family="Helvetica,sans-Serif" font-size="10.00">maps</text>
<text text-anchor="middle" x="1456.5" y="-455" font-family="Helvetica,sans-Serif" font-size="10.00">components</text>
<text text-anchor="middle" x="1456.5" y="-444" font-family="Helvetica,sans-Serif" font-size="10.00">properties</text>
<text text-anchor="middle" x="1456.5" y="-433" font-family="Helvetica,sans-Serif" font-size="10.00">profiles</text>
<text text-anchor="middle" x="1456.5" y="-422" font-family="Helvetica,sans-Serif" font-size="10.00">...</text>
</g>
<!-- Node9&#45;&gt;Node8 -->
<g id="edge6" class="edge">
<title>Node9&#45;&gt;Node8</title>
<path fill="none" stroke="#9a32cd" stroke-dasharray="5,2" d="M497.75,-415.65C460.32,-414.86 415.35,-414.99 375,-418 357.47,-419.31 338.46,-421.81 321.41,-424.46"/>
<polygon fill="#9a32cd" stroke="#9a32cd" points="498.02,-419.15 508.1,-415.89 498.18,-412.16 498.02,-419.15"/>
<text text-anchor="middle" x="423.5" y="-421" font-family="Helvetica,sans-Serif" font-size="10.00"> collection</text>
</g>
<!-- Node9&#45;&gt;Node9 -->
<g id="edge8" class="edge">
<title>Node9&#45;&gt;Node9</title>
<path fill="none" stroke="#9a32cd" stroke-dasharray="5,2" d="M550.88,-437.65C552.1,-442.94 561.8,-447 580,-447 607.73,-447 615.74,-437.57 604.04,-428.76"/>
<polygon fill="#9a32cd" stroke="#9a32cd" points="554.04,-439.18 555.96,-428.76 547.96,-435.71 554.04,-439.18"/>
<text text-anchor="middle" x="580" y="-472" font-family="Helvetica,sans-Serif" font-size="10.00"> next</text>
<text text-anchor="middle" x="580" y="-461" font-family="Helvetica,sans-Serif" font-size="10.00">freeCollection</text>
<text text-anchor="middle" x="580" y="-450" font-family="Helvetica,sans-Serif" font-size="10.00">get</text>
</g>
<!-- Node10 -->
<g id="node8" class="node">
<title>Node10</title>
<g id="a_node8"><a xlink:href="structfiftyone_degrees_data.html" target="_top" xlink:title="Data structure used for reusing memory which may have been allocated in a previous operation.">
<polygon fill="none" stroke="black" points="0,-424.5 0,-443.5 117,-443.5 117,-424.5 0,-424.5"/>
<text text-anchor="middle" x="58.5" y="-431.5" font-family="Helvetica,sans-Serif" font-size="10.00">fiftyoneDegreesData</text>
</a>
</g>
</g>
<!-- Node10&#45;&gt;Node8 -->
<g id="edge9" class="edge">
<title>Node10&#45;&gt;Node8</title>
<path fill="none" stroke="#9a32cd" stroke-dasharray="5,2" d="M127.19,-434C145.58,-434 165.7,-434 184.78,-434"/>
<polygon fill="#9a32cd" stroke="#9a32cd" points="127.16,-430.5 117.16,-434 127.16,-437.5 127.16,-430.5"/>
<text text-anchor="middle" x="147.5" y="-437" font-family="Helvetica,sans-Serif" font-size="10.00"> data</text>
</g>
<!-- Node11 -->
<g id="node9" class="node">
<title>Node11</title>
<g id="a_node9"><a xlink:href="structfiftyone_degrees_config_ipi.html" target="_top" xlink:title="IP Intelligence specific configuration structure.">
<polygon fill="none" stroke="black" points="1830,-333.5 1830,-352.5 1967,-352.5 1967,-333.5 1830,-333.5"/>
<text text-anchor="middle" x="1898.5" y="-340.5" font-family="Helvetica,sans-Serif" font-size="10.00">fiftyoneDegreesConfigIpi</text>
</a>
</g>
</g>
<!-- Node11&#45;&gt;Node6 -->
<g id="edge10" class="edge">
<title>Node11&#45;&gt;Node6</title>
<path fill="none" stroke="#9a32cd" stroke-dasharray="5,2" d="M1976.99,-348.39C1996.94,-350.29 2018.32,-352.78 2038,-356 2061.99,-359.92 2088.62,-366.17 2109.24,-371.44"/>
<polygon fill="#9a32cd" stroke="#9a32cd" points="1977.29,-344.9 1967.01,-347.47 1976.65,-351.87 1977.29,-344.9"/>
<text text-anchor="middle" x="2019.5" y="-359" font-family="Helvetica,sans-Serif" font-size="10.00"> config</text>
</g>
<!-- Node12 -->
<g id="node10" class="node">
<title>Node12</title>
<g id="a_node10"><a xlink:href="structfiftyone_degrees_collection_config.html" target="_top" xlink:title="Collection configuration structure which defines how the collection should be created by the create m...">
<polygon fill="none" stroke="black" points="1545.5,-184 1545.5,-214 1688.5,-214 1688.5,-184 1545.5,-184"/>
<text text-anchor="start" x="1553.5" y="-202" font-family="Helvetica,sans-Serif" font-size="10.00">fiftyoneDegreesCollection</text>
<text text-anchor="middle" x="1617" y="-191" font-family="Helvetica,sans-Serif" font-size="10.00">Config</text>
</a>
</g>
</g>
<!-- Node12&#45;&gt;Node11 -->
<g id="edge11" class="edge">
<title>Node12&#45;&gt;Node11</title>
<path fill="none" stroke="#9a32cd" stroke-dasharray="5,2" d="M1699.07,-194.69C1730.94,-196.21 1766.8,-202.14 1796,-218 1846.36,-245.35 1881.15,-309.05 1893.02,-333.35"/>
<polygon fill="#9a32cd" stroke="#9a32cd" points="1698.99,-191.19 1688.88,-194.34 1698.76,-198.18 1698.99,-191.19"/>
<text text-anchor="middle" x="1761" y="-331" font-family="Helvetica,sans-Serif" font-size="10.00"> profileOffsets</text>
<text text-anchor="middle" x="1761" y="-320" font-family="Helvetica,sans-Serif" font-size="10.00">values</text>
<text text-anchor="middle" x="1761" y="-309" font-family="Helvetica,sans-Serif" font-size="10.00">graphs</text>
<text text-anchor="middle" x="1761" y="-298" font-family="Helvetica,sans-Serif" font-size="10.00">profileGroups</text>
<text text-anchor="middle" x="1761" y="-287" font-family="Helvetica,sans-Serif" font-size="10.00">strings</text>
<text text-anchor="middle" x="1761" y="-276" font-family="Helvetica,sans-Serif" font-size="10.00">propertyTypes</text>
<text text-anchor="middle" x="1761" y="-265" font-family="Helvetica,sans-Serif" font-size="10.00">maps</text>
<text text-anchor="middle" x="1761" y="-254" font-family="Helvetica,sans-Serif" font-size="10.00">components</text>
<text text-anchor="middle" x="1761" y="-243" font-family="Helvetica,sans-Serif" font-size="10.00">graph</text>
<text text-anchor="middle" x="1761" y="-232" font-family="Helvetica,sans-Serif" font-size="10.00">properties</text>
<text text-anchor="middle" x="1761" y="-221" font-family="Helvetica,sans-Serif" font-size="10.00">...</text>
</g>
<!-- Node13 -->
<g id="node11" class="node">
<title>Node13</title>
<g id="a_node11"><a xlink:href="structfiftyone_degrees_config_base.html" target="_top" xlink:title="Base configuration structure containing common configuration options, and options that apply to struc...">
<polygon fill="none" stroke="black" points="1542.5,-333.5 1542.5,-352.5 1691.5,-352.5 1691.5,-333.5 1542.5,-333.5"/>
<text text-anchor="middle" x="1617" y="-340.5" font-family="Helvetica,sans-Serif" font-size="10.00">fiftyoneDegreesConfigBase</text>
</a>
</g>
</g>
<!-- Node13&#45;&gt;Node11 -->
<g id="edge12" class="edge">
<title>Node13&#45;&gt;Node11</title>
<path fill="none" stroke="#9a32cd" stroke-dasharray="5,2" d="M1702.03,-343C1742.96,-343 1791.52,-343 1830,-343"/>
<polygon fill="#9a32cd" stroke="#9a32cd" points="1701.8,-339.5 1691.8,-343 1701.8,-346.5 1701.8,-339.5"/>
<text text-anchor="middle" x="1761" y="-346" font-family="Helvetica,sans-Serif" font-size="10.00"> b</text>
</g>
<!-- Node14 -->
<g id="node12" class="node">
<title>Node14</title>
<g id="a_node12"><a xlink:href="structfiftyone_degrees_data_set_ipi_header.html" target="_top" xlink:title="DATA STRUCTURES.">
<polygon fill="none" stroke="black" points="1826,-40 1826,-70 1971,-70 1971,-40 1826,-40"/>
<text text-anchor="start" x="1834" y="-58" font-family="Helvetica,sans-Serif" font-size="10.00">fiftyoneDegreesDataSetIpi</text>
<text text-anchor="middle" x="1898.5" y="-47" font-family="Helvetica,sans-Serif" font-size="10.00">Header</text>
</a>
</g>
</g>
<!-- Node14&#45;&gt;Node6 -->
<g id="edge13" class="edge">
<title>Node14&#45;&gt;Node6</title>
<path fill="none" stroke="#9a32cd" stroke-dasharray="5,2" d="M1917.06,-78.36C1966.22,-143.78 2103.84,-326.89 2137.16,-371.24"/>
<polygon fill="#9a32cd" stroke="#9a32cd" points="1919.79,-76.18 1910.99,-70.29 1914.2,-80.38 1919.79,-76.18"/>
<text text-anchor="middle" x="2019.5" y="-240" font-family="Helvetica,sans-Serif" font-size="10.00"> header</text>
</g>
<!-- Node15 -->
<g id="node13" class="node">
<title>Node15</title>
<g id="a_node13"><a xlink:href="structfiftyone_degrees_date.html" target="_top" xlink:title="Used to store the date when the dataset was produced and next date 51Degrees expect to provide a new ...">
<polygon fill="none" stroke="black" points="1558.5,-0.5 1558.5,-19.5 1675.5,-19.5 1675.5,-0.5 1558.5,-0.5"/>
<text text-anchor="middle" x="1617" y="-7.5" font-family="Helvetica,sans-Serif" font-size="10.00">fiftyoneDegreesDate</text>
</a>
</g>
</g>
<!-- Node15&#45;&gt;Node14 -->
<g id="edge14" class="edge">
<title>Node15&#45;&gt;Node14</title>
<path fill="none" stroke="#9a32cd" stroke-dasharray="5,2" d="M1685.72,-14.91C1719.09,-17.92 1759.83,-22.47 1796,-29 1812.02,-31.89 1829.25,-35.94 1844.88,-39.98"/>
<polygon fill="#9a32cd" stroke="#9a32cd" points="1685.88,-11.41 1675.62,-14.03 1685.27,-18.39 1685.88,-11.41"/>
<text text-anchor="middle" x="1761" y="-43" font-family="Helvetica,sans-Serif" font-size="10.00"> nextUpdate</text>
<text text-anchor="middle" x="1761" y="-32" font-family="Helvetica,sans-Serif" font-size="10.00">published</text>
</g>
<!-- Node16 -->
<g id="node14" class="node">
<title>Node16</title>
<g id="a_node14"><a xlink:href="structfiftyone_degrees_collection_header.html" target="_top" xlink:title="Collection header structure which defines the size and location of the collection data.">
<polygon fill="none" stroke="black" points="1545.5,-40 1545.5,-70 1688.5,-70 1688.5,-40 1545.5,-40"/>
<text text-anchor="start" x="1553.5" y="-58" font-family="Helvetica,sans-Serif" font-size="10.00">fiftyoneDegreesCollection</text>
<text text-anchor="middle" x="1617" y="-47" font-family="Helvetica,sans-Serif" font-size="10.00">Header</text>
</a>
</g>
</g>
<!-- Node16&#45;&gt;Node14 -->
<g id="edge15" class="edge">
<title>Node16&#45;&gt;Node14</title>
<path fill="none" stroke="#9a32cd" stroke-dasharray="5,2" d="M1698.54,-55C1738.63,-55 1786.69,-55 1825.53,-55"/>
<polygon fill="#9a32cd" stroke="#9a32cd" points="1698.53,-51.5 1688.53,-55 1698.53,-58.5 1698.53,-51.5"/>
<text text-anchor="middle" x="1761" y="-168" font-family="Helvetica,sans-Serif" font-size="10.00"> profileOffsets</text>
<text text-anchor="middle" x="1761" y="-157" font-family="Helvetica,sans-Serif" font-size="10.00">values</text>
<text text-anchor="middle" x="1761" y="-146" font-family="Helvetica,sans-Serif" font-size="10.00">graphs</text>
<text text-anchor="middle" x="1761" y="-135" font-family="Helvetica,sans-Serif" font-size="10.00">profileGroups</text>
<text text-anchor="middle" x="1761" y="-124" font-family="Helvetica,sans-Serif" font-size="10.00">strings</text>
<text text-anchor="middle" x="1761" y="-113" font-family="Helvetica,sans-Serif" font-size="10.00">propertyTypes</text>
<text text-anchor="middle" x="1761" y="-102" font-family="Helvetica,sans-Serif" font-size="10.00">maps</text>
<text text-anchor="middle" x="1761" y="-91" font-family="Helvetica,sans-Serif" font-size="10.00">components</text>
<text text-anchor="middle" x="1761" y="-80" font-family="Helvetica,sans-Serif" font-size="10.00">properties</text>
<text text-anchor="middle" x="1761" y="-69" font-family="Helvetica,sans-Serif" font-size="10.00">profiles</text>
<text text-anchor="middle" x="1761" y="-58" font-family="Helvetica,sans-Serif" font-size="10.00">...</text>
</g>
<!-- Node17 -->
<g id="node15" class="node">
<title>Node17</title>
<g id="a_node15"><a xlink:href="structfiftyone_degrees_data_set_ipi_base.html" target="_top" xlink:title="Data set structure which contains the base dataset structure.">
<polygon fill="none" stroke="black" points="1814,-532.5 1814,-551.5 1983,-551.5 1983,-532.5 1814,-532.5"/>
<text text-anchor="middle" x="1898.5" y="-539.5" font-family="Helvetica,sans-Serif" font-size="10.00">fiftyoneDegreesDataSetIpiBase</text>
</a>
</g>
</g>
<!-- Node17&#45;&gt;Node6 -->
<g id="edge17" class="edge">
<title>Node17&#45;&gt;Node6</title>
<path fill="none" stroke="#9a32cd" stroke-dasharray="5,2" d="M1923.75,-526.98C1953.42,-507.73 2003.88,-472.02 2038,-432 2048.59,-419.58 2042.86,-409.68 2056,-400 2061.19,-396.18 2066.98,-393.09 2073.06,-390.61"/>
<polygon fill="#9a32cd" stroke="#9a32cd" points="1921.8,-524.08 1915.26,-532.42 1925.57,-529.98 1921.8,-524.08"/>
<text text-anchor="middle" x="2019.5" y="-469" font-family="Helvetica,sans-Serif" font-size="10.00"> b</text>
</g>
<!-- Node18 -->
<g id="node16" class="node">
<title>Node18</title>
<g id="a_node16"><a xlink:href="structfiftyone_degrees_data_set_base.html" target="_top" xlink:title="Base data set structure which contains the &#39;must have&#39;s for all data sets.">
<polygon fill="none" stroke="black" points="1538.5,-618.5 1538.5,-637.5 1695.5,-637.5 1695.5,-618.5 1538.5,-618.5"/>
<text text-anchor="middle" x="1617" y="-625.5" font-family="Helvetica,sans-Serif" font-size="10.00">fiftyoneDegreesDataSetBase</text>
</a>
</g>
</g>
<!-- Node18&#45;&gt;Node17 -->
<g id="edge18" class="edge">
<title>Node18&#45;&gt;Node17</title>
<path fill="none" stroke="#9a32cd" stroke-dasharray="5,2" d="M1658.63,-615.5C1714.97,-598.16 1815.61,-567.2 1866.38,-551.57"/>
<polygon fill="#9a32cd" stroke="#9a32cd" points="1657.51,-612.18 1648.98,-618.47 1659.57,-618.87 1657.51,-612.18"/>
<text text-anchor="middle" x="1761" y="-595" font-family="Helvetica,sans-Serif" font-size="10.00"> b</text>
</g>
<!-- Node19 -->
<g id="node17" class="node">
<title>Node19</title>
<g id="a_node17"><a xlink:href="structfiftyone_degrees_header_array.html" target="_top" xlink:title="Array of Headers which should always be ordered in ascending order of fullHeaderId.">
<polygon fill="none" stroke="black" points="1221,-618.5 1221,-637.5 1376,-637.5 1376,-618.5 1221,-618.5"/>
<text text-anchor="middle" x="1298.5" y="-625.5" font-family="Helvetica,sans-Serif" font-size="10.00">fiftyoneDegreesHeaderArray</text>
</a>
</g>
</g>
<!-- Node19&#45;&gt;Node18 -->
<g id="edge19" class="edge">
<title>Node19&#45;&gt;Node18</title>
<path fill="none" stroke="#9a32cd" stroke-dasharray="5,2" d="M1386.4,-628C1433.97,-628 1492.42,-628 1538.44,-628"/>
<polygon fill="#9a32cd" stroke="#9a32cd" points="1386.12,-624.5 1376.12,-628 1386.12,-631.5 1386.12,-624.5"/>
<text text-anchor="middle" x="1456.5" y="-631" font-family="Helvetica,sans-Serif" font-size="10.00"> uniqueHeaders</text>
</g>
<!-- Node20 -->
<g id="node18" class="node">
<title>Node20</title>
<g id="a_node18"><a xlink:href="structfiftyone_degrees_resource_handle.html" target="_top" xlink:title="Handle for a shared resource.">
<polygon fill="none" stroke="black" points="1212,-782.5 1212,-801.5 1385,-801.5 1385,-782.5 1212,-782.5"/>
<text text-anchor="middle" x="1298.5" y="-789.5" font-family="Helvetica,sans-Serif" font-size="10.00">fiftyoneDegreesResourceHandle</text>
</a>
</g>
</g>
<!-- Node20&#45;&gt;Node18 -->
<g id="edge20" class="edge">
<title>Node20&#45;&gt;Node18</title>
<path fill="none" stroke="#9a32cd" stroke-dasharray="5,2" d="M1358.29,-780.25C1367.93,-778.03 1377.78,-775.59 1387,-773 1441.8,-757.6 1459.41,-760.65 1508,-731 1551.57,-704.41 1592.04,-657.75 1608.38,-637.65"/>
<polygon fill="#9a32cd" stroke="#9a32cd" points="1357.35,-776.88 1348.35,-782.48 1358.88,-783.71 1357.35,-776.88"/>
<text text-anchor="middle" x="1456.5" y="-771" font-family="Helvetica,sans-Serif" font-size="10.00"> handle</text>
</g>
<!-- Node21 -->
<g id="node19" class="node">
<title>Node21</title>
<g id="a_node19"><a xlink:href="structfiftyone_degrees_resource_manager.html" target="_top" xlink:title="Manager structure used to provide access to a shared and changing resource.">
<polygon fill="none" stroke="black" points="1526,-796.5 1526,-815.5 1708,-815.5 1708,-796.5 1526,-796.5"/>
<text text-anchor="middle" x="1617" y="-803.5" font-family="Helvetica,sans-Serif" font-size="10.00">fiftyoneDegreesResourceManager</text>
</a>
</g>
</g>
<!-- Node20&#45;&gt;Node21 -->
<g id="edge22" class="edge">
<title>Node20&#45;&gt;Node21</title>
<path fill="none" stroke="#9a32cd" stroke-dasharray="5,2" d="M1395.53,-800.44C1398.73,-800.64 1401.89,-800.83 1405,-801 1444.61,-803.16 1488.45,-804.38 1525.86,-805.08"/>
<polygon fill="#9a32cd" stroke="#9a32cd" points="1395.47,-796.93 1385.26,-799.76 1395.01,-803.92 1395.47,-796.93"/>
<text text-anchor="middle" x="1456.5" y="-807" font-family="Helvetica,sans-Serif" font-size="10.00"> active</text>
</g>
<!-- Node21&#45;&gt;Node20 -->
<g id="edge21" class="edge">
<title>Node21&#45;&gt;Node20</title>
<path fill="none" stroke="#9a32cd" stroke-dasharray="5,2" d="M1552.43,-794.99C1537.87,-792.92 1522.44,-791.06 1508,-790 1467.66,-787.03 1422.8,-787.03 1385.07,-787.98"/>
<polygon fill="#9a32cd" stroke="#9a32cd" points="1551.93,-798.46 1562.34,-796.46 1552.96,-791.53 1551.93,-798.46"/>
<text text-anchor="middle" x="1456.5" y="-793" font-family="Helvetica,sans-Serif" font-size="10.00"> manager</text>
</g>
<!-- Node22 -->
<g id="node20" class="node">
<title>Node22</title>
<g id="a_node20"><a xlink:href="structfiftyone_degrees_interlock_double_width.html" target="_top" xlink:title="Double width (64 or 128 depending on the architecture) compare and exchange.">
<polygon fill="none" stroke="black" points="837,-777 837,-807 974,-807 974,-777 837,-777"/>
<text text-anchor="start" x="845" y="-795" font-family="Helvetica,sans-Serif" font-size="10.00">fiftyoneDegreesInterlock</text>
<text text-anchor="middle" x="905.5" y="-784" font-family="Helvetica,sans-Serif" font-size="10.00">DoubleWidth</text>
</a>
</g>
</g>
<!-- Node22&#45;&gt;Node20 -->
<g id="edge23" class="edge">
<title>Node22&#45;&gt;Node20</title>
<path fill="none" stroke="#9a32cd" stroke-dasharray="5,2" d="M984.46,-792C1050.18,-792 1144.1,-792 1211.89,-792"/>
<polygon fill="#9a32cd" stroke="#9a32cd" points="984.16,-788.5 974.16,-792 984.16,-795.5 984.16,-788.5"/>
<text text-anchor="middle" x="1102" y="-795" font-family="Helvetica,sans-Serif" font-size="10.00"> counter</text>
</g>
<!-- Node23 -->
<g id="node21" class="node">
<title>Node23</title>
<g id="a_node21"><a xlink:href="structfiftyone_degrees_file_pool.html" target="_top" xlink:title="Stack of handles used to read data from a single source file.">
<polygon fill="none" stroke="black" points="1232.5,-744.5 1232.5,-763.5 1364.5,-763.5 1364.5,-744.5 1232.5,-744.5"/>
<text text-anchor="middle" x="1298.5" y="-751.5" font-family="Helvetica,sans-Serif" font-size="10.00">fiftyoneDegreesFilePool</text>
</a>
</g>
</g>
<!-- Node23&#45;&gt;Node18 -->
<g id="edge24" class="edge">
<title>Node23&#45;&gt;Node18</title>
<path fill="none" stroke="#9a32cd" stroke-dasharray="5,2" d="M1371.33,-741.4C1376.74,-739.55 1382.02,-737.43 1387,-735 1396.36,-730.43 1396.14,-725.47 1405,-720 1438.24,-699.48 1543.77,-656.65 1591.79,-637.55"/>
<polygon fill="#9a32cd" stroke="#9a32cd" points="1370,-738.15 1361.48,-744.45 1372.07,-744.84 1370,-738.15"/>
<text text-anchor="middle" x="1456.5" y="-723" font-family="Helvetica,sans-Serif" font-size="10.00"> filePool</text>
</g>
<!-- Node24 -->
<g id="node22" class="node">
<title>Node24</title>
<g id="a_node22"><a xlink:href="structfiftyone_degrees_pool.html" target="_top" xlink:title="Pool of resources stored as items in a stack.">
<polygon fill="none" stroke="black" points="848,-709.5 848,-728.5 963,-728.5 963,-709.5 848,-709.5"/>
<text text-anchor="middle" x="905.5" y="-716.5" font-family="Helvetica,sans-Serif" font-size="10.00">fiftyoneDegreesPool</text>
</a>
</g>
</g>
<!-- Node24&#45;&gt;Node23 -->
<g id="edge25" class="edge">
<title>Node24&#45;&gt;Node23</title>
<path fill="none" stroke="#9a32cd" stroke-dasharray="5,2" d="M973.28,-727.7C986.12,-729.24 999.47,-730.75 1012,-732 1087.44,-739.55 1174.31,-745.91 1232.23,-749.82"/>
<polygon fill="#9a32cd" stroke="#9a32cd" points="973.46,-724.19 963.12,-726.46 972.62,-731.14 973.46,-724.19"/>
<text text-anchor="middle" x="1102" y="-749" font-family="Helvetica,sans-Serif" font-size="10.00"> pool</text>
</g>
<!-- Node24&#45;&gt;Node24 -->
<g id="edge26" class="edge">
<title>Node24&#45;&gt;Node24</title>
<path fill="none" stroke="#9a32cd" stroke-dasharray="5,2" d="M875.19,-737.27C876.05,-742.74 886.15,-747 905.5,-747 934.29,-747 942.62,-737.57 930.47,-728.76"/>
<polygon fill="#9a32cd" stroke="#9a32cd" points="878.18,-739.09 880.53,-728.76 872.25,-735.37 878.18,-739.09"/>
<text text-anchor="middle" x="905.5" y="-750" font-family="Helvetica,sans-Serif" font-size="10.00"> resourceFree</text>
</g>
<!-- Node26 -->
<g id="node24" class="node">
<title>Node26</title>
<g id="a_node24"><a xlink:href="structfiftyone_degrees_pool_item.html" target="_top" xlink:title="Pool item node in the stack of items.">
<polygon fill="none" stroke="black" points="1230,-706.5 1230,-725.5 1367,-725.5 1367,-706.5 1230,-706.5"/>
<text text-anchor="middle" x="1298.5" y="-713.5" font-family="Helvetica,sans-Serif" font-size="10.00">fiftyoneDegreesPoolItem</text>
</a>
</g>
</g>
<!-- Node24&#45;&gt;Node26 -->
<g id="edge29" class="edge">
<title>Node24&#45;&gt;Node26</title>
<path fill="none" stroke="#9a32cd" stroke-dasharray="5,2" d="M962.47,-707.64C978.4,-704.9 995.83,-702.37 1012,-701 1091.71,-694.25 1112.2,-695.36 1192,-701 1207.96,-702.13 1225.18,-704.21 1240.99,-706.47"/>
<polygon fill="#9a32cd" stroke="#9a32cd" points="961.47,-704.26 952.24,-709.46 962.7,-711.16 961.47,-704.26"/>
<text text-anchor="middle" x="1102" y="-704" font-family="Helvetica,sans-Serif" font-size="10.00"> pool</text>
</g>
<!-- Node25 -->
<g id="node23" class="node">
<title>Node25</title>
<g id="a_node23"><a xlink:href="unionfiftyone_degrees_pool_head.html" target="_top" xlink:title="The head of the stack used for pop and push operations.">
<polygon fill="none" stroke="black" points="510,-709.5 510,-728.5 650,-728.5 650,-709.5 510,-709.5"/>
<text text-anchor="middle" x="580" y="-716.5" font-family="Helvetica,sans-Serif" font-size="10.00">fiftyoneDegreesPoolHead</text>
</a>
</g>
</g>
<!-- Node25&#45;&gt;Node24 -->
<g id="edge27" class="edge">
<title>Node25&#45;&gt;Node24</title>
<path fill="none" stroke="#9a32cd" stroke-dasharray="5,2" d="M660.26,-719C718.42,-719 796.02,-719 847.99,-719"/>
<polygon fill="#9a32cd" stroke="#9a32cd" points="660,-715.5 650,-719 660,-722.5 660,-715.5"/>
<text text-anchor="middle" x="743.5" y="-722" font-family="Helvetica,sans-Serif" font-size="10.00"> head</text>
</g>
<!-- Node26&#45;&gt;Node24 -->
<g id="edge28" class="edge">
<title>Node26&#45;&gt;Node24</title>
<path fill="none" stroke="#9a32cd" stroke-dasharray="5,2" d="M1219.31,-716.6C1143.66,-717.18 1030.82,-718.05 963.35,-718.56"/>
<polygon fill="#9a32cd" stroke="#9a32cd" points="1219.76,-720.1 1229.73,-716.52 1219.71,-713.1 1219.76,-720.1"/>
<text text-anchor="middle" x="1102" y="-721" font-family="Helvetica,sans-Serif" font-size="10.00"> stack</text>
</g>
<!-- Node27 -->
<g id="node25" class="node">
<title>Node27</title>
<g id="a_node25"><a xlink:href="structfiftyone_degrees_override_property_array.html" target="_top" xlink:title="Array of items of type fiftyoneDegreesOverrideProperty used to easily access and track the size of th...">
<polygon fill="none" stroke="black" points="1210,-522 1210,-552 1387,-552 1387,-522 1210,-522"/>
<text text-anchor="start" x="1218" y="-540" font-family="Helvetica,sans-Serif" font-size="10.00">fiftyoneDegreesOverrideProperty</text>
<text text-anchor="middle" x="1298.5" y="-529" font-family="Helvetica,sans-Serif" font-size="10.00">Array</text>
</a>
</g>
</g>
<!-- Node27&#45;&gt;Node18 -->
<g id="edge30" class="edge">
<title>Node27&#45;&gt;Node18</title>
<path fill="none" stroke="#9a32cd" stroke-dasharray="5,2" d="M1397.41,-541.45C1432.96,-545.19 1472.98,-551.93 1508,-564 1545.5,-576.92 1584.27,-603.82 1603.55,-618.29"/>
<polygon fill="#9a32cd" stroke="#9a32cd" points="1397.31,-537.92 1387.02,-540.42 1396.63,-544.89 1397.31,-537.92"/>
<text text-anchor="middle" x="1456.5" y="-567" font-family="Helvetica,sans-Serif" font-size="10.00"> overridable</text>
</g>
<!-- Node28 -->
<g id="node26" class="node">
<title>Node28</title>
<g id="a_node26"><a xlink:href="structfiftyone_degrees_override_property.html" target="_top" xlink:title="Index and pointer to a property which can be overridden.">
<polygon fill="none" stroke="black" points="817,-527.5 817,-546.5 994,-546.5 994,-527.5 817,-527.5"/>
<text text-anchor="middle" x="905.5" y="-534.5" font-family="Helvetica,sans-Serif" font-size="10.00">fiftyoneDegreesOverrideProperty</text>
</a>
</g>
</g>
<!-- Node28&#45;&gt;Node27 -->
<g id="edge31" class="edge">
<title>Node28&#45;&gt;Node27</title>
<path fill="none" stroke="#9a32cd" stroke-dasharray="5,2" d="M1004.6,-537C1067.63,-537 1148.81,-537 1209.71,-537"/>
<polygon fill="#9a32cd" stroke="#9a32cd" points="1004.25,-533.5 994.25,-537 1004.25,-540.5 1004.25,-533.5"/>
<text text-anchor="middle" x="1102" y="-540" font-family="Helvetica,sans-Serif" font-size="10.00"> items</text>
</g>
<!-- Node29&#45;&gt;Node28 -->
<g id="edge32" class="edge">
<title>Node29&#45;&gt;Node28</title>
<path fill="none" stroke="#9a32cd" stroke-dasharray="5,2" d="M680.31,-537C723.95,-537 774.74,-537 816.94,-537"/>
<polygon fill="#9a32cd" stroke="#9a32cd" points="680.25,-533.5 670.25,-537 680.25,-540.5 680.25,-533.5"/>
<text text-anchor="middle" x="743.5" y="-540" font-family="Helvetica,sans-Serif" font-size="10.00"> available</text>
</g>
<!-- Node32 -->
<g id="node30" class="node">
<title>Node32</title>
<g id="a_node30"><a xlink:href="structfiftyone_degrees_property_available_array.html" target="_top" xlink:title="Array of items of type fiftyoneDegreesPropertyAvailable used to easily access and track the size of t...">
<polygon fill="none" stroke="black" points="1012,-567 1012,-597 1192,-597 1192,-567 1012,-567"/>
<text text-anchor="start" x="1020" y="-585" font-family="Helvetica,sans-Serif" font-size="10.00">fiftyoneDegreesPropertyAvailable</text>
<text text-anchor="middle" x="1102" y="-574" font-family="Helvetica,sans-Serif" font-size="10.00">Array</text>
</a>
</g>
</g>
<!-- Node29&#45;&gt;Node32 -->
<g id="edge37" class="edge">
<title>Node29&#45;&gt;Node32</title>
<path fill="none" stroke="#9a32cd" stroke-dasharray="5,2" d="M653.7,-547.86C665.16,-549.38 676.89,-550.82 688,-552 799.34,-563.83 928.07,-572.37 1011.82,-577.25"/>
<polygon fill="#9a32cd" stroke="#9a32cd" points="654.1,-544.38 643.72,-546.51 653.16,-551.32 654.1,-544.38"/>
<text text-anchor="middle" x="743.5" y="-564" font-family="Helvetica,sans-Serif" font-size="10.00"> items</text>
</g>
<!-- Node30 -->
<g id="node28" class="node">
<title>Node30</title>
<g id="a_node28"><a xlink:href="structfiftyone_degrees_evidence_property_index_array.html" target="_top" xlink:title="Array of items of type fiftyoneDegreesEvidencePropertyIndex used to easily access and track the size ...">
<polygon fill="none" stroke="black" points="178,-522 178,-552 357,-552 357,-522 178,-522"/>
<text text-anchor="start" x="186" y="-540" font-family="Helvetica,sans-Serif" font-size="10.00">fiftyoneDegreesEvidenceProperty</text>
<text text-anchor="middle" x="267.5" y="-529" font-family="Helvetica,sans-Serif" font-size="10.00">IndexArray</text>
</a>
</g>
</g>
<!-- Node30&#45;&gt;Node29 -->
<g id="edge33" class="edge">
<title>Node30&#45;&gt;Node29</title>
<path fill="none" stroke="#9a32cd" stroke-dasharray="5,2" d="M367.2,-537C406.52,-537 451.45,-537 489.78,-537"/>
<polygon fill="#9a32cd" stroke="#9a32cd" points="367.06,-533.5 357.06,-537 367.06,-540.5 367.06,-533.5"/>
<text text-anchor="middle" x="423.5" y="-540" font-family="Helvetica,sans-Serif" font-size="10.00"> evidenceProperties</text>
</g>
<!-- Node31 -->
<g id="node29" class="node">
<title>Node31</title>
<g id="a_node29"><a xlink:href="structfiftyone_degrees_indices_property_profile.html" target="_top" xlink:title="Maps the profile index and the property index to the first value index of the profile for the propert...">
<polygon fill="none" stroke="black" points="1213.5,-657 1213.5,-687 1383.5,-687 1383.5,-657 1213.5,-657"/>
<text text-anchor="start" x="1221.5" y="-675" font-family="Helvetica,sans-Serif" font-size="10.00">fiftyoneDegreesIndicesProperty</text>
<text text-anchor="middle" x="1298.5" y="-664" font-family="Helvetica,sans-Serif" font-size="10.00">Profile</text>
</a>
</g>
</g>
<!-- Node31&#45;&gt;Node18 -->
<g id="edge35" class="edge">
<title>Node31&#45;&gt;Node18</title>
<path fill="none" stroke="#9a32cd" stroke-dasharray="5,2" d="M1393.95,-658.87C1443.33,-652.01 1502.65,-643.76 1547.55,-637.52"/>
<polygon fill="#9a32cd" stroke="#9a32cd" points="1393.32,-655.42 1383.9,-660.27 1394.29,-662.36 1393.32,-655.42"/>
<text text-anchor="middle" x="1456.5" y="-659" font-family="Helvetica,sans-Serif" font-size="10.00"> indexPropertyProfile</text>
</g>
<!-- Node32&#45;&gt;Node18 -->
<g id="edge36" class="edge">
<title>Node32&#45;&gt;Node18</title>
<path fill="none" stroke="#9a32cd" stroke-dasharray="5,2" d="M1202.06,-585.78C1256.68,-588.32 1325.67,-592.26 1387,-598 1443.29,-603.27 1507.04,-611.83 1552.96,-618.47"/>
<polygon fill="#9a32cd" stroke="#9a32cd" points="1202.18,-582.28 1192.03,-585.32 1201.86,-589.28 1202.18,-582.28"/>
<text text-anchor="middle" x="1298.5" y="-601" font-family="Helvetica,sans-Serif" font-size="10.00"> available</text>
</g>
</g>
</svg>
