<?xml version="1.0" encoding="UTF-8" standalone="no"?>
<!DOCTYPE svg PUBLIC "-//W3C//DTD SVG 1.1//EN"
 "http://www.w3.org/Graphics/SVG/1.1/DTD/svg11.dtd">
<!-- Generated by graphviz version 2.43.0 (0)
 -->
<!-- Title: FiftyoneDegrees::IpIntelligence::PropertyMetaDataCollectionForPropertyIpi Pages: 1 -->
<svg width="272pt" height="196pt"
 viewBox="0.00 0.00 271.50 196.00" xmlns="http://www.w3.org/2000/svg" xmlns:xlink="http://www.w3.org/1999/xlink">
<g id="graph0" class="graph" transform="scale(1 1) rotate(0) translate(4 192)">
<title>FiftyoneDegrees::IpIntelligence::PropertyMetaDataCollectionForPropertyIpi</title>
<!-- Node0 -->
<g id="node1" class="node">
<title>Node0</title>
<g id="a_node1"><a xlink:title=" ">
<polygon fill="#bfbfbf" stroke="black" points="0,-0.5 0,-30.5 229,-30.5 229,-0.5 0,-0.5"/>
<text text-anchor="start" x="8" y="-18.5" font-family="Helvetica,sans-Serif" font-size="10.00">FiftyoneDegrees::IpIntelligence</text>
<text text-anchor="middle" x="114.5" y="-7.5" font-family="Helvetica,sans-Serif" font-size="10.00">::PropertyMetaDataCollectionForPropertyIpi</text>
</a>
</g>
</g>
<!-- Node1 -->
<g id="node2" class="node">
<title>Node1</title>
<g id="a_node2"><a xlink:href="class_fiftyone_degrees_1_1_common_1_1_collection.html" target="_top" xlink:title=" ">
<polygon fill="none" stroke="black" points="41.5,-68.5 41.5,-109.5 187.5,-109.5 187.5,-68.5 41.5,-68.5"/>
<text text-anchor="start" x="49.5" y="-97.5" font-family="Helvetica,sans-Serif" font-size="10.00">FiftyoneDegrees::Common</text>
<text text-anchor="start" x="49.5" y="-86.5" font-family="Helvetica,sans-Serif" font-size="10.00">::Collection&lt; string,</text>
<text text-anchor="middle" x="114.5" y="-75.5" font-family="Helvetica,sans-Serif" font-size="10.00"> PropertyMetaData &gt;</text>
</a>
</g>
</g>
<!-- Node1&#45;&gt;Node0 -->
<g id="edge1" class="edge">
<title>Node1&#45;&gt;Node0</title>
<path fill="none" stroke="midnightblue" d="M114.5,-58.16C114.5,-48.69 114.5,-38.65 114.5,-30.8"/>
<polygon fill="midnightblue" stroke="midnightblue" points="111,-58.46 114.5,-68.46 118,-58.46 111,-58.46"/>
</g>
<!-- Node2 -->
<g id="node3" class="node">
<title>Node2</title>
<g id="a_node3"><a xlink:href="class_fiftyone_degrees_1_1_common_1_1_collection.html" target="_top" xlink:title="A group of items accessible by index or key.">
<polygon fill="none" stroke="black" points="41.5,-157.5 41.5,-187.5 187.5,-187.5 187.5,-157.5 41.5,-157.5"/>
<text text-anchor="start" x="49.5" y="-175.5" font-family="Helvetica,sans-Serif" font-size="10.00">FiftyoneDegrees::Common</text>
<text text-anchor="middle" x="114.5" y="-164.5" font-family="Helvetica,sans-Serif" font-size="10.00">::Collection&lt; K, V &gt;</text>
</a>
</g>
</g>
<!-- Node2&#45;&gt;Node1 -->
<g id="edge2" class="edge">
<title>Node2&#45;&gt;Node1</title>
<path fill="none" stroke="orange" stroke-dasharray="5,2" d="M114.5,-147.07C114.5,-135.06 114.5,-120.79 114.5,-109.53"/>
<polygon fill="orange" stroke="orange" points="111,-147.3 114.5,-157.3 118,-147.3 111,-147.3"/>
<text text-anchor="middle" x="189" y="-131" font-family="Helvetica,sans-Serif" font-size="10.00"> &lt; string, PropertyMetaData &gt;</text>
</g>
</g>
</svg>
