<?xml version="1.0" encoding="UTF-8" standalone="no"?>
<!DOCTYPE svg PUBLIC "-//W3C//DTD SVG 1.1//EN"
 "http://www.w3.org/Graphics/SVG/1.1/DTD/svg11.dtd">
<!-- Generated by graphviz version 2.43.0 (0)
 -->
<!-- Title: FiftyoneDegrees::IpIntelligence::ValueMetaDataCollectionBaseIpi Pages: 1 -->
<svg width="951pt" height="137pt"
 viewBox="0.00 0.00 951.00 137.00" xmlns="http://www.w3.org/2000/svg" xmlns:xlink="http://www.w3.org/1999/xlink">
<g id="graph0" class="graph" transform="scale(1 1) rotate(0) translate(4 133)">
<title>FiftyoneDegrees::IpIntelligence::ValueMetaDataCollectionBaseIpi</title>
<!-- Node0 -->
<g id="node1" class="node">
<title>Node0</title>
<g id="a_node1"><a xlink:title="A collection of all value meta data contained in an IP Intelligence engine.">
<polygon fill="#bfbfbf" stroke="black" points="509,-49.5 509,-79.5 691,-79.5 691,-49.5 509,-49.5"/>
<text text-anchor="start" x="517" y="-67.5" font-family="Helvetica,sans-Serif" font-size="10.00">FiftyoneDegrees::IpIntelligence</text>
<text text-anchor="middle" x="600" y="-56.5" font-family="Helvetica,sans-Serif" font-size="10.00">::ValueMetaDataCollectionBaseIpi</text>
</a>
</g>
</g>
<!-- Node3 -->
<g id="node4" class="node">
<title>Node3</title>
<g id="a_node4"><a xlink:href="class_fiftyone_degrees_1_1_ip_intelligence_1_1_value_meta_data_collection_for_profile_ipi.html" target="_top" xlink:title="A collection of value meta data relating to a profile contained in an IP Intelligence engine.">
<polygon fill="none" stroke="black" points="733.5,-98.5 733.5,-128.5 937.5,-128.5 937.5,-98.5 733.5,-98.5"/>
<text text-anchor="start" x="741.5" y="-116.5" font-family="Helvetica,sans-Serif" font-size="10.00">FiftyoneDegrees::IpIntelligence</text>
<text text-anchor="middle" x="835.5" y="-105.5" font-family="Helvetica,sans-Serif" font-size="10.00">::ValueMetaDataCollectionForProfileIpi</text>
</a>
</g>
</g>
<!-- Node0&#45;&gt;Node3 -->
<g id="edge3" class="edge">
<title>Node0&#45;&gt;Node3</title>
<path fill="none" stroke="midnightblue" d="M682.55,-81.61C708.75,-87.11 737.56,-93.16 762.99,-98.49"/>
<polygon fill="midnightblue" stroke="midnightblue" points="683.15,-78.16 672.64,-79.53 681.71,-85.01 683.15,-78.16"/>
</g>
<!-- Node4 -->
<g id="node5" class="node">
<title>Node4</title>
<g id="a_node5"><a xlink:href="class_fiftyone_degrees_1_1_ip_intelligence_1_1_value_meta_data_collection_for_property_ipi.html" target="_top" xlink:title="A collection of value meta data relating to a property contained in an IP Intelligence engine.">
<polygon fill="none" stroke="black" points="728,-49.5 728,-79.5 943,-79.5 943,-49.5 728,-49.5"/>
<text text-anchor="start" x="736" y="-67.5" font-family="Helvetica,sans-Serif" font-size="10.00">FiftyoneDegrees::IpIntelligence</text>
<text text-anchor="middle" x="835.5" y="-56.5" font-family="Helvetica,sans-Serif" font-size="10.00">::ValueMetaDataCollectionForPropertyIpi</text>
</a>
</g>
</g>
<!-- Node0&#45;&gt;Node4 -->
<g id="edge4" class="edge">
<title>Node0&#45;&gt;Node4</title>
<path fill="none" stroke="midnightblue" d="M701.43,-64.5C710.13,-64.5 718.96,-64.5 727.72,-64.5"/>
<polygon fill="midnightblue" stroke="midnightblue" points="701.28,-61 691.28,-64.5 701.28,-68 701.28,-61"/>
</g>
<!-- Node5 -->
<g id="node6" class="node">
<title>Node5</title>
<g id="a_node6"><a xlink:href="class_fiftyone_degrees_1_1_ip_intelligence_1_1_value_meta_data_collection_ipi.html" target="_top" xlink:title="A collection of all value meta data contained in a IP Intelligence engine.">
<polygon fill="none" stroke="black" points="751.5,-0.5 751.5,-30.5 919.5,-30.5 919.5,-0.5 751.5,-0.5"/>
<text text-anchor="start" x="759.5" y="-18.5" font-family="Helvetica,sans-Serif" font-size="10.00">FiftyoneDegrees::IpIntelligence</text>
<text text-anchor="middle" x="835.5" y="-7.5" font-family="Helvetica,sans-Serif" font-size="10.00">::ValueMetaDataCollectionIpi</text>
</a>
</g>
</g>
<!-- Node0&#45;&gt;Node5 -->
<g id="edge5" class="edge">
<title>Node0&#45;&gt;Node5</title>
<path fill="none" stroke="midnightblue" d="M682.55,-47.39C708.75,-41.89 737.56,-35.84 762.99,-30.51"/>
<polygon fill="midnightblue" stroke="midnightblue" points="681.71,-43.99 672.64,-49.47 683.15,-50.84 681.71,-43.99"/>
</g>
<!-- Node1 -->
<g id="node2" class="node">
<title>Node1</title>
<g id="a_node2"><a xlink:href="class_fiftyone_degrees_1_1_common_1_1_collection.html" target="_top" xlink:title=" ">
<polygon fill="none" stroke="black" points="293,-44 293,-85 472,-85 472,-44 293,-44"/>
<text text-anchor="start" x="301" y="-73" font-family="Helvetica,sans-Serif" font-size="10.00">FiftyoneDegrees::Common</text>
<text text-anchor="start" x="301" y="-62" font-family="Helvetica,sans-Serif" font-size="10.00">::Collection&lt; ValueMetaDataKey,</text>
<text text-anchor="middle" x="382.5" y="-51" font-family="Helvetica,sans-Serif" font-size="10.00"> ValueMetaData &gt;</text>
</a>
</g>
</g>
<!-- Node1&#45;&gt;Node0 -->
<g id="edge1" class="edge">
<title>Node1&#45;&gt;Node0</title>
<path fill="none" stroke="midnightblue" d="M482.34,-64.5C491.11,-64.5 499.97,-64.5 508.67,-64.5"/>
<polygon fill="midnightblue" stroke="midnightblue" points="482.09,-61 472.09,-64.5 482.08,-68 482.09,-61"/>
</g>
<!-- Node2 -->
<g id="node3" class="node">
<title>Node2</title>
<g id="a_node3"><a xlink:href="class_fiftyone_degrees_1_1_common_1_1_collection.html" target="_top" xlink:title="A group of items accessible by index or key.">
<polygon fill="none" stroke="black" points="0,-49.5 0,-79.5 146,-79.5 146,-49.5 0,-49.5"/>
<text text-anchor="start" x="8" y="-67.5" font-family="Helvetica,sans-Serif" font-size="10.00">FiftyoneDegrees::Common</text>
<text text-anchor="middle" x="73" y="-56.5" font-family="Helvetica,sans-Serif" font-size="10.00">::Collection&lt; K, V &gt;</text>
</a>
</g>
</g>
<!-- Node2&#45;&gt;Node1 -->
<g id="edge2" class="edge">
<title>Node2&#45;&gt;Node1</title>
<path fill="none" stroke="orange" stroke-dasharray="5,2" d="M156.32,-64.5C198.47,-64.5 249.82,-64.5 292.83,-64.5"/>
<polygon fill="orange" stroke="orange" points="156.1,-61 146.1,-64.5 156.1,-68 156.1,-61"/>
<text text-anchor="start" x="164" y="-78.5" font-family="Helvetica,sans-Serif" font-size="10.00"> &lt; ValueMetaDataKey,</text>
<text text-anchor="middle" x="219.5" y="-67.5" font-family="Helvetica,sans-Serif" font-size="10.00"> ValueMetaData &gt;</text>
</g>
</g>
</svg>
