<?xml version="1.0" encoding="UTF-8" standalone="no"?>
<!DOCTYPE svg PUBLIC "-//W3C//DTD SVG 1.1//EN"
 "http://www.w3.org/Graphics/SVG/1.1/DTD/svg11.dtd">
<!-- Generated by graphviz version 2.43.0 (0)
 -->
<!-- Title: FiftyoneDegrees::IpIntelligence::ValueMetaDataCollectionIpi Pages: 1 -->
<svg width="2810pt" height="638pt"
 viewBox="0.00 0.00 2810.00 637.50" xmlns="http://www.w3.org/2000/svg" xmlns:xlink="http://www.w3.org/1999/xlink">
<g id="graph0" class="graph" transform="scale(1 1) rotate(0) translate(4 633.5)">
<title>FiftyoneDegrees::IpIntelligence::ValueMetaDataCollectionIpi</title>
<!-- Node4 -->
<g id="node1" class="node">
<title>Node4</title>
<g id="a_node1"><a xlink:title="A collection of all value meta data contained in a IP Intelligence engine.">
<polygon fill="#bfbfbf" stroke="black" points="2634,-263.5 2634,-293.5 2802,-293.5 2802,-263.5 2634,-263.5"/>
<text text-anchor="start" x="2642" y="-281.5" font-family="Helvetica,sans-Serif" font-size="10.00">FiftyoneDegrees::IpIntelligence</text>
<text text-anchor="middle" x="2718" y="-270.5" font-family="Helvetica,sans-Serif" font-size="10.00">::ValueMetaDataCollectionIpi</text>
</a>
</g>
</g>
<!-- Node5 -->
<g id="node2" class="node">
<title>Node5</title>
<g id="a_node2"><a xlink:href="class_fiftyone_degrees_1_1_ip_intelligence_1_1_value_meta_data_collection_base_ipi.html" target="_top" xlink:title="A collection of all value meta data contained in an IP Intelligence engine.">
<polygon fill="none" stroke="black" points="2415,-263.5 2415,-293.5 2597,-293.5 2597,-263.5 2415,-263.5"/>
<text text-anchor="start" x="2423" y="-281.5" font-family="Helvetica,sans-Serif" font-size="10.00">FiftyoneDegrees::IpIntelligence</text>
<text text-anchor="middle" x="2506" y="-270.5" font-family="Helvetica,sans-Serif" font-size="10.00">::ValueMetaDataCollectionBaseIpi</text>
</a>
</g>
</g>
<!-- Node5&#45;&gt;Node4 -->
<g id="edge1" class="edge">
<title>Node5&#45;&gt;Node4</title>
<path fill="none" stroke="midnightblue" d="M2607.55,-278.5C2616.33,-278.5 2625.15,-278.5 2633.77,-278.5"/>
<polygon fill="midnightblue" stroke="midnightblue" points="2607.28,-275 2597.28,-278.5 2607.28,-282 2607.28,-275"/>
</g>
<!-- Node6 -->
<g id="node3" class="node">
<title>Node6</title>
<g id="a_node3"><a xlink:href="class_fiftyone_degrees_1_1_common_1_1_collection.html" target="_top" xlink:title=" ">
<polygon fill="none" stroke="black" points="2159,-354 2159,-395 2338,-395 2338,-354 2159,-354"/>
<text text-anchor="start" x="2167" y="-383" font-family="Helvetica,sans-Serif" font-size="10.00">FiftyoneDegrees::Common</text>
<text text-anchor="start" x="2167" y="-372" font-family="Helvetica,sans-Serif" font-size="10.00">::Collection&lt; ValueMetaDataKey,</text>
<text text-anchor="middle" x="2248.5" y="-361" font-family="Helvetica,sans-Serif" font-size="10.00"> ValueMetaData &gt;</text>
</a>
</g>
</g>
<!-- Node6&#45;&gt;Node5 -->
<g id="edge2" class="edge">
<title>Node6&#45;&gt;Node5</title>
<path fill="none" stroke="midnightblue" d="M2313.89,-350.31C2361.35,-332.47 2424.45,-308.77 2464.9,-293.57"/>
<polygon fill="midnightblue" stroke="midnightblue" points="2312.44,-347.11 2304.31,-353.91 2314.9,-353.66 2312.44,-347.11"/>
</g>
<!-- Node7 -->
<g id="node4" class="node">
<title>Node7</title>
<g id="a_node4"><a xlink:href="class_fiftyone_degrees_1_1_common_1_1_collection.html" target="_top" xlink:title="A group of items accessible by index or key.">
<polygon fill="none" stroke="black" points="1854.5,-430.5 1854.5,-460.5 2000.5,-460.5 2000.5,-430.5 1854.5,-430.5"/>
<text text-anchor="start" x="1862.5" y="-448.5" font-family="Helvetica,sans-Serif" font-size="10.00">FiftyoneDegrees::Common</text>
<text text-anchor="middle" x="1927.5" y="-437.5" font-family="Helvetica,sans-Serif" font-size="10.00">::Collection&lt; K, V &gt;</text>
</a>
</g>
</g>
<!-- Node7&#45;&gt;Node6 -->
<g id="edge3" class="edge">
<title>Node7&#45;&gt;Node6</title>
<path fill="none" stroke="orange" stroke-dasharray="5,2" d="M2006.09,-428.23C2052.18,-417.97 2110.8,-404.93 2158.73,-394.26"/>
<polygon fill="orange" stroke="orange" points="2005.15,-424.85 1996.15,-430.44 2006.67,-431.69 2005.15,-424.85"/>
<text text-anchor="start" x="2030" y="-436.5" font-family="Helvetica,sans-Serif" font-size="10.00"> &lt; ValueMetaDataKey,</text>
<text text-anchor="middle" x="2085.5" y="-425.5" font-family="Helvetica,sans-Serif" font-size="10.00"> ValueMetaData &gt;</text>
</g>
<!-- Node8 -->
<g id="node5" class="node">
<title>Node8</title>
<g id="a_node5"><a xlink:href="structfiftyone_degrees_data_set_ipi.html" target="_top" xlink:title="Data set structure containing all the components used for IP intelligence.">
<polygon fill="none" stroke="black" points="2176,-245 2176,-264 2321,-264 2321,-245 2176,-245"/>
<text text-anchor="middle" x="2248.5" y="-252" font-family="Helvetica,sans-Serif" font-size="10.00">fiftyoneDegreesDataSetIpi</text>
</a>
</g>
</g>
<!-- Node8&#45;&gt;Node5 -->
<g id="edge4" class="edge">
<title>Node8&#45;&gt;Node5</title>
<path fill="none" stroke="#9a32cd" stroke-dasharray="5,2" d="M2331.07,-262.16C2357.74,-264.67 2387.52,-267.46 2414.79,-270.03"/>
<polygon fill="#9a32cd" stroke="#9a32cd" points="2331.29,-258.67 2321.01,-261.22 2330.64,-265.64 2331.29,-258.67"/>
<text text-anchor="middle" x="2376.5" y="-271.5" font-family="Helvetica,sans-Serif" font-size="10.00"> dataSet</text>
</g>
<!-- Node9 -->
<g id="node6" class="node">
<title>Node9</title>
<g id="a_node6"><a xlink:href="structfiftyone_degrees_list.html" target="_top" xlink:title="List structure which contains a list of collection items.">
<polygon fill="none" stroke="black" points="688,-188 688,-207 799,-207 799,-188 688,-188"/>
<text text-anchor="middle" x="743.5" y="-195" font-family="Helvetica,sans-Serif" font-size="10.00">fiftyoneDegreesList</text>
</a>
</g>
</g>
<!-- Node9&#45;&gt;Node8 -->
<g id="edge5" class="edge">
<title>Node9&#45;&gt;Node8</title>
<path fill="none" stroke="#9a32cd" stroke-dasharray="5,2" d="M809.35,-197.5C880.8,-197.5 999.09,-197.5 1101,-197.5 1101,-197.5 1101,-197.5 1928.5,-197.5 2023.54,-197.5 2047.97,-202.02 2141,-221.5 2169.04,-227.37 2200.25,-237.48 2221.6,-244.97"/>
<polygon fill="#9a32cd" stroke="#9a32cd" points="809.16,-194 799.16,-197.5 809.16,-201 809.16,-194"/>
<text text-anchor="middle" x="1456.5" y="-200.5" font-family="Helvetica,sans-Serif" font-size="10.00"> componentsList</text>
</g>
<!-- Node10 -->
<g id="node7" class="node">
<title>Node10</title>
<g id="a_node7"><a xlink:href="structfiftyone_degrees_collection_item.html" target="_top" xlink:title="Used to store a handle to the underlying item that could be used to release the item when it&#39;s finish...">
<polygon fill="none" stroke="black" points="185,-241 185,-260 350,-260 350,-241 185,-241"/>
<text text-anchor="middle" x="267.5" y="-248" font-family="Helvetica,sans-Serif" font-size="10.00">fiftyoneDegreesCollectionItem</text>
</a>
</g>
</g>
<!-- Node10&#45;&gt;Node9 -->
<g id="edge6" class="edge">
<title>Node10&#45;&gt;Node9</title>
<path fill="none" stroke="#9a32cd" stroke-dasharray="5,2" d="M303.02,-237.43C323.61,-230.24 350.44,-221.9 375,-217.5 484.75,-197.82 615.63,-195.68 687.84,-196.31"/>
<polygon fill="#9a32cd" stroke="#9a32cd" points="301.7,-234.19 293.46,-240.85 304.05,-240.78 301.7,-234.19"/>
<text text-anchor="middle" x="423.5" y="-220.5" font-family="Helvetica,sans-Serif" font-size="10.00"> items</text>
</g>
<!-- Node11 -->
<g id="node8" class="node">
<title>Node11</title>
<g id="a_node8"><a xlink:href="structfiftyone_degrees_collection.html" target="_top" xlink:title="All the shared methods and fields required by file, memory and cached collections.">
<polygon fill="none" stroke="black" points="508.5,-226 508.5,-245 651.5,-245 651.5,-226 508.5,-226"/>
<text text-anchor="middle" x="580" y="-233" font-family="Helvetica,sans-Serif" font-size="10.00">fiftyoneDegreesCollection</text>
</a>
</g>
</g>
<!-- Node10&#45;&gt;Node11 -->
<g id="edge8" class="edge">
<title>Node10&#45;&gt;Node11</title>
<path fill="none" stroke="#9a32cd" stroke-dasharray="5,2" d="M360.43,-249.58C395.39,-248.88 435.56,-247.65 472,-245.5 483.73,-244.81 496.17,-243.85 508.26,-242.8"/>
<polygon fill="#9a32cd" stroke="#9a32cd" points="360.18,-246.08 350.24,-249.77 360.31,-253.08 360.18,-246.08"/>
<text text-anchor="middle" x="423.5" y="-252.5" font-family="Helvetica,sans-Serif" font-size="10.00"> release</text>
</g>
<!-- Node31 -->
<g id="node28" class="node">
<title>Node31</title>
<g id="a_node28"><a xlink:href="structfiftyone_degrees_property_available.html" target="_top" xlink:title="Used to access the property item quickly without the need to search.">
<polygon fill="none" stroke="black" points="490,-341 490,-360 670,-360 670,-341 490,-341"/>
<text text-anchor="middle" x="580" y="-348" font-family="Helvetica,sans-Serif" font-size="10.00">fiftyoneDegreesPropertyAvailable</text>
</a>
</g>
</g>
<!-- Node10&#45;&gt;Node31 -->
<g id="edge35" class="edge">
<title>Node10&#45;&gt;Node31</title>
<path fill="none" stroke="#9a32cd" stroke-dasharray="5,2" d="M307.86,-263.18C370.88,-283.47 493.05,-322.82 549.32,-340.94"/>
<polygon fill="#9a32cd" stroke="#9a32cd" points="308.86,-259.82 298.27,-260.09 306.72,-266.49 308.86,-259.82"/>
<text text-anchor="middle" x="423.5" y="-318.5" font-family="Helvetica,sans-Serif" font-size="10.00"> name</text>
</g>
<!-- Node11&#45;&gt;Node8 -->
<g id="edge17" class="edge">
<title>Node11&#45;&gt;Node8</title>
<path fill="none" stroke="#9a32cd" stroke-dasharray="5,2" d="M661.93,-235.5C727.36,-235.5 821.87,-235.5 904.5,-235.5 904.5,-235.5 904.5,-235.5 1928.5,-235.5 2013.66,-235.5 2111.39,-242.33 2175.99,-247.8"/>
<polygon fill="#9a32cd" stroke="#9a32cd" points="661.68,-232 651.68,-235.5 661.68,-239 661.68,-232"/>
<text text-anchor="middle" x="1456.5" y="-348.5" font-family="Helvetica,sans-Serif" font-size="10.00"> profileOffsets</text>
<text text-anchor="middle" x="1456.5" y="-337.5" font-family="Helvetica,sans-Serif" font-size="10.00">values</text>
<text text-anchor="middle" x="1456.5" y="-326.5" font-family="Helvetica,sans-Serif" font-size="10.00">strings</text>
<text text-anchor="middle" x="1456.5" y="-315.5" font-family="Helvetica,sans-Serif" font-size="10.00">maps</text>
<text text-anchor="middle" x="1456.5" y="-304.5" font-family="Helvetica,sans-Serif" font-size="10.00">components</text>
<text text-anchor="middle" x="1456.5" y="-293.5" font-family="Helvetica,sans-Serif" font-size="10.00">properties</text>
<text text-anchor="middle" x="1456.5" y="-282.5" font-family="Helvetica,sans-Serif" font-size="10.00">profileCombinations</text>
<text text-anchor="middle" x="1456.5" y="-271.5" font-family="Helvetica,sans-Serif" font-size="10.00">ipv6Graph</text>
<text text-anchor="middle" x="1456.5" y="-260.5" font-family="Helvetica,sans-Serif" font-size="10.00">profiles</text>
<text text-anchor="middle" x="1456.5" y="-249.5" font-family="Helvetica,sans-Serif" font-size="10.00">ipv4Graph</text>
<text text-anchor="middle" x="1456.5" y="-238.5" font-family="Helvetica,sans-Serif" font-size="10.00">...</text>
</g>
<!-- Node11&#45;&gt;Node10 -->
<g id="edge7" class="edge">
<title>Node11&#45;&gt;Node10</title>
<path fill="none" stroke="#9a32cd" stroke-dasharray="5,2" d="M497.75,-232.15C460.32,-231.36 415.35,-231.49 375,-234.5 357.47,-235.81 338.46,-238.31 321.41,-240.96"/>
<polygon fill="#9a32cd" stroke="#9a32cd" points="498.02,-235.65 508.1,-232.39 498.18,-228.66 498.02,-235.65"/>
<text text-anchor="middle" x="423.5" y="-237.5" font-family="Helvetica,sans-Serif" font-size="10.00"> collection</text>
</g>
<!-- Node11&#45;&gt;Node11 -->
<g id="edge9" class="edge">
<title>Node11&#45;&gt;Node11</title>
<path fill="none" stroke="#9a32cd" stroke-dasharray="5,2" d="M550.88,-254.15C552.1,-259.44 561.8,-263.5 580,-263.5 607.73,-263.5 615.74,-254.07 604.04,-245.26"/>
<polygon fill="#9a32cd" stroke="#9a32cd" points="554.04,-255.68 555.96,-245.26 547.96,-252.21 554.04,-255.68"/>
<text text-anchor="middle" x="580" y="-288.5" font-family="Helvetica,sans-Serif" font-size="10.00"> next</text>
<text text-anchor="middle" x="580" y="-277.5" font-family="Helvetica,sans-Serif" font-size="10.00">freeCollection</text>
<text text-anchor="middle" x="580" y="-266.5" font-family="Helvetica,sans-Serif" font-size="10.00">get</text>
</g>
<!-- Node12 -->
<g id="node9" class="node">
<title>Node12</title>
<g id="a_node9"><a xlink:href="structfiftyone_degrees_data.html" target="_top" xlink:title="Data structure used for reusing memory which may have been allocated in a previous operation.">
<polygon fill="none" stroke="black" points="0,-241 0,-260 117,-260 117,-241 0,-241"/>
<text text-anchor="middle" x="58.5" y="-248" font-family="Helvetica,sans-Serif" font-size="10.00">fiftyoneDegreesData</text>
</a>
</g>
</g>
<!-- Node12&#45;&gt;Node10 -->
<g id="edge10" class="edge">
<title>Node12&#45;&gt;Node10</title>
<path fill="none" stroke="#9a32cd" stroke-dasharray="5,2" d="M127.19,-250.5C145.58,-250.5 165.7,-250.5 184.78,-250.5"/>
<polygon fill="#9a32cd" stroke="#9a32cd" points="127.16,-247 117.16,-250.5 127.16,-254 127.16,-247"/>
<text text-anchor="middle" x="147.5" y="-253.5" font-family="Helvetica,sans-Serif" font-size="10.00"> data</text>
</g>
<!-- Node13 -->
<g id="node10" class="node">
<title>Node13</title>
<g id="a_node10"><a xlink:href="structfiftyone_degrees_config_ipi.html" target="_top" xlink:title="IP Intelligence specific configuration structure.">
<polygon fill="none" stroke="black" points="1859,-150 1859,-169 1996,-169 1996,-150 1859,-150"/>
<text text-anchor="middle" x="1927.5" y="-157" font-family="Helvetica,sans-Serif" font-size="10.00">fiftyoneDegreesConfigIpi</text>
</a>
</g>
</g>
<!-- Node13&#45;&gt;Node8 -->
<g id="edge11" class="edge">
<title>Node13&#45;&gt;Node8</title>
<path fill="none" stroke="#9a32cd" stroke-dasharray="5,2" d="M2006.17,-153.46C2047.44,-152.9 2098.32,-156.5 2141,-172.5 2183.17,-188.31 2222.29,-226.89 2238.99,-244.92"/>
<polygon fill="#9a32cd" stroke="#9a32cd" points="2006.09,-149.97 1996.17,-153.68 2006.24,-156.96 2006.09,-149.97"/>
<text text-anchor="middle" x="2085.5" y="-175.5" font-family="Helvetica,sans-Serif" font-size="10.00"> config</text>
</g>
<!-- Node14 -->
<g id="node11" class="node">
<title>Node14</title>
<g id="a_node11"><a xlink:href="structfiftyone_degrees_collection_config.html" target="_top" xlink:title="Collection configuration structure which defines how the collection should be created by the create m...">
<polygon fill="none" stroke="black" points="1545.5,-0.5 1545.5,-30.5 1688.5,-30.5 1688.5,-0.5 1545.5,-0.5"/>
<text text-anchor="start" x="1553.5" y="-18.5" font-family="Helvetica,sans-Serif" font-size="10.00">fiftyoneDegreesCollection</text>
<text text-anchor="middle" x="1617" y="-7.5" font-family="Helvetica,sans-Serif" font-size="10.00">Config</text>
</a>
</g>
</g>
<!-- Node14&#45;&gt;Node13 -->
<g id="edge12" class="edge">
<title>Node14&#45;&gt;Node13</title>
<path fill="none" stroke="#9a32cd" stroke-dasharray="5,2" d="M1698.54,-8.63C1738.68,-8.64 1786.7,-14.06 1825,-34.5 1875.56,-61.48 1910.23,-125.41 1922.04,-149.81"/>
<polygon fill="#9a32cd" stroke="#9a32cd" points="1698.47,-5.13 1688.51,-8.74 1698.55,-12.13 1698.47,-5.13"/>
<text text-anchor="middle" x="1775.5" y="-147.5" font-family="Helvetica,sans-Serif" font-size="10.00"> profileOffsets</text>
<text text-anchor="middle" x="1775.5" y="-136.5" font-family="Helvetica,sans-Serif" font-size="10.00">values</text>
<text text-anchor="middle" x="1775.5" y="-125.5" font-family="Helvetica,sans-Serif" font-size="10.00">strings</text>
<text text-anchor="middle" x="1775.5" y="-114.5" font-family="Helvetica,sans-Serif" font-size="10.00">maps</text>
<text text-anchor="middle" x="1775.5" y="-103.5" font-family="Helvetica,sans-Serif" font-size="10.00">components</text>
<text text-anchor="middle" x="1775.5" y="-92.5" font-family="Helvetica,sans-Serif" font-size="10.00">properties</text>
<text text-anchor="middle" x="1775.5" y="-81.5" font-family="Helvetica,sans-Serif" font-size="10.00">profileCombinations</text>
<text text-anchor="middle" x="1775.5" y="-70.5" font-family="Helvetica,sans-Serif" font-size="10.00">ipv6Graph</text>
<text text-anchor="middle" x="1775.5" y="-59.5" font-family="Helvetica,sans-Serif" font-size="10.00">profiles</text>
<text text-anchor="middle" x="1775.5" y="-48.5" font-family="Helvetica,sans-Serif" font-size="10.00">ipv4Graph</text>
<text text-anchor="middle" x="1775.5" y="-37.5" font-family="Helvetica,sans-Serif" font-size="10.00">...</text>
</g>
<!-- Node15 -->
<g id="node12" class="node">
<title>Node15</title>
<g id="a_node12"><a xlink:href="structfiftyone_degrees_config_base.html" target="_top" xlink:title="Base configuration structure containing common configuration options, and options that apply to struc...">
<polygon fill="none" stroke="black" points="1542.5,-150 1542.5,-169 1691.5,-169 1691.5,-150 1542.5,-150"/>
<text text-anchor="middle" x="1617" y="-157" font-family="Helvetica,sans-Serif" font-size="10.00">fiftyoneDegreesConfigBase</text>
</a>
</g>
</g>
<!-- Node15&#45;&gt;Node13 -->
<g id="edge13" class="edge">
<title>Node15&#45;&gt;Node13</title>
<path fill="none" stroke="#9a32cd" stroke-dasharray="5,2" d="M1701.52,-159.5C1750.87,-159.5 1812.54,-159.5 1858.83,-159.5"/>
<polygon fill="#9a32cd" stroke="#9a32cd" points="1701.5,-156 1691.5,-159.5 1701.5,-163 1701.5,-156"/>
<text text-anchor="middle" x="1775.5" y="-162.5" font-family="Helvetica,sans-Serif" font-size="10.00"> b</text>
</g>
<!-- Node16 -->
<g id="node13" class="node">
<title>Node16</title>
<g id="a_node13"><a xlink:href="structfiftyone_degrees_data_set_ipi_header.html" target="_top" xlink:title="DATA STRUCTURES.">
<polygon fill="none" stroke="black" points="1855,-381.5 1855,-411.5 2000,-411.5 2000,-381.5 1855,-381.5"/>
<text text-anchor="start" x="1863" y="-399.5" font-family="Helvetica,sans-Serif" font-size="10.00">fiftyoneDegreesDataSetIpi</text>
<text text-anchor="middle" x="1927.5" y="-388.5" font-family="Helvetica,sans-Serif" font-size="10.00">Header</text>
</a>
</g>
</g>
<!-- Node16&#45;&gt;Node8 -->
<g id="edge14" class="edge">
<title>Node16&#45;&gt;Node8</title>
<path fill="none" stroke="#9a32cd" stroke-dasharray="5,2" d="M1974.57,-377.43C2017.78,-359.39 2084.08,-331.3 2141,-305.5 2171.62,-291.62 2206.72,-274.59 2227.99,-264.15"/>
<polygon fill="#9a32cd" stroke="#9a32cd" points="1973.06,-374.27 1965.18,-381.34 1975.75,-380.73 1973.06,-374.27"/>
<text text-anchor="middle" x="2085.5" y="-357.5" font-family="Helvetica,sans-Serif" font-size="10.00"> header</text>
</g>
<!-- Node17 -->
<g id="node14" class="node">
<title>Node17</title>
<g id="a_node14"><a xlink:href="structfiftyone_degrees_date.html" target="_top" xlink:title="Used to store the date when the dataset was produced and next date 51Degrees expect to provide a new ...">
<polygon fill="none" stroke="black" points="1558.5,-434 1558.5,-453 1675.5,-453 1675.5,-434 1558.5,-434"/>
<text text-anchor="middle" x="1617" y="-441" font-family="Helvetica,sans-Serif" font-size="10.00">fiftyoneDegreesDate</text>
</a>
</g>
</g>
<!-- Node17&#45;&gt;Node16 -->
<g id="edge15" class="edge">
<title>Node17&#45;&gt;Node16</title>
<path fill="none" stroke="#9a32cd" stroke-dasharray="5,2" d="M1685.74,-433.18C1735.78,-425.56 1803.76,-415.2 1854.73,-407.43"/>
<polygon fill="#9a32cd" stroke="#9a32cd" points="1685.02,-429.75 1675.66,-434.71 1686.08,-436.67 1685.02,-429.75"/>
<text text-anchor="middle" x="1775.5" y="-440.5" font-family="Helvetica,sans-Serif" font-size="10.00"> nextUpdate</text>
<text text-anchor="middle" x="1775.5" y="-429.5" font-family="Helvetica,sans-Serif" font-size="10.00">published</text>
</g>
<!-- Node18 -->
<g id="node15" class="node">
<title>Node18</title>
<g id="a_node15"><a xlink:href="structfiftyone_degrees_collection_header.html" target="_top" xlink:title="Collection header structure which defines the size and location of the collection data.">
<polygon fill="none" stroke="black" points="1545.5,-473.5 1545.5,-503.5 1688.5,-503.5 1688.5,-473.5 1545.5,-473.5"/>
<text text-anchor="start" x="1553.5" y="-491.5" font-family="Helvetica,sans-Serif" font-size="10.00">fiftyoneDegreesCollection</text>
<text text-anchor="middle" x="1617" y="-480.5" font-family="Helvetica,sans-Serif" font-size="10.00">Header</text>
</a>
</g>
</g>
<!-- Node18&#45;&gt;Node16 -->
<g id="edge16" class="edge">
<title>Node18&#45;&gt;Node16</title>
<path fill="none" stroke="#9a32cd" stroke-dasharray="5,2" d="M1699.07,-490.12C1740.01,-487.26 1788.58,-477.87 1825,-452.5 1838.07,-443.39 1830.49,-431.37 1843,-421.5 1847.87,-417.66 1853.32,-414.41 1859.05,-411.65"/>
<polygon fill="#9a32cd" stroke="#9a32cd" points="1698.62,-486.64 1688.84,-490.72 1699.03,-493.63 1698.62,-486.64"/>
<text text-anchor="middle" x="1775.5" y="-599.5" font-family="Helvetica,sans-Serif" font-size="10.00"> profileOffsets</text>
<text text-anchor="middle" x="1775.5" y="-588.5" font-family="Helvetica,sans-Serif" font-size="10.00">values</text>
<text text-anchor="middle" x="1775.5" y="-577.5" font-family="Helvetica,sans-Serif" font-size="10.00">strings</text>
<text text-anchor="middle" x="1775.5" y="-566.5" font-family="Helvetica,sans-Serif" font-size="10.00">maps</text>
<text text-anchor="middle" x="1775.5" y="-555.5" font-family="Helvetica,sans-Serif" font-size="10.00">components</text>
<text text-anchor="middle" x="1775.5" y="-544.5" font-family="Helvetica,sans-Serif" font-size="10.00">properties</text>
<text text-anchor="middle" x="1775.5" y="-533.5" font-family="Helvetica,sans-Serif" font-size="10.00">profileCombinations</text>
<text text-anchor="middle" x="1775.5" y="-522.5" font-family="Helvetica,sans-Serif" font-size="10.00">ipv6Graph</text>
<text text-anchor="middle" x="1775.5" y="-511.5" font-family="Helvetica,sans-Serif" font-size="10.00">profiles</text>
<text text-anchor="middle" x="1775.5" y="-500.5" font-family="Helvetica,sans-Serif" font-size="10.00">ipv4Graph</text>
<text text-anchor="middle" x="1775.5" y="-489.5" font-family="Helvetica,sans-Serif" font-size="10.00">...</text>
</g>
<!-- Node19 -->
<g id="node16" class="node">
<title>Node19</title>
<g id="a_node16"><a xlink:href="structfiftyone_degrees_data_set_ipi_base.html" target="_top" xlink:title="Data set structure which contains the base dataset structure.">
<polygon fill="none" stroke="black" points="1843,-297 1843,-316 2012,-316 2012,-297 1843,-297"/>
<text text-anchor="middle" x="1927.5" y="-304" font-family="Helvetica,sans-Serif" font-size="10.00">fiftyoneDegreesDataSetIpiBase</text>
</a>
</g>
</g>
<!-- Node19&#45;&gt;Node8 -->
<g id="edge18" class="edge">
<title>Node19&#45;&gt;Node8</title>
<path fill="none" stroke="#9a32cd" stroke-dasharray="5,2" d="M1997.05,-295.33C2054.26,-286 2134.91,-272.85 2189.09,-264.02"/>
<polygon fill="#9a32cd" stroke="#9a32cd" points="1996.32,-291.9 1987.01,-296.96 1997.44,-298.81 1996.32,-291.9"/>
<text text-anchor="middle" x="2085.5" y="-293.5" font-family="Helvetica,sans-Serif" font-size="10.00"> b</text>
</g>
<!-- Node20 -->
<g id="node17" class="node">
<title>Node20</title>
<g id="a_node17"><a xlink:href="structfiftyone_degrees_data_set_base.html" target="_top" xlink:title="Base data set structure which contains the &#39;must have&#39;s for all data sets.">
<polygon fill="none" stroke="black" points="1538.5,-396 1538.5,-415 1695.5,-415 1695.5,-396 1538.5,-396"/>
<text text-anchor="middle" x="1617" y="-403" font-family="Helvetica,sans-Serif" font-size="10.00">fiftyoneDegreesDataSetBase</text>
</a>
</g>
</g>
<!-- Node20&#45;&gt;Node19 -->
<g id="edge19" class="edge">
<title>Node20&#45;&gt;Node19</title>
<path fill="none" stroke="#9a32cd" stroke-dasharray="5,2" d="M1657.77,-392.74C1720.43,-372.63 1840.75,-334.02 1896.62,-316.09"/>
<polygon fill="#9a32cd" stroke="#9a32cd" points="1656.31,-389.53 1647.86,-395.92 1658.45,-396.19 1656.31,-389.53"/>
<text text-anchor="middle" x="1775.5" y="-374.5" font-family="Helvetica,sans-Serif" font-size="10.00"> b</text>
</g>
<!-- Node21 -->
<g id="node18" class="node">
<title>Node21</title>
<g id="a_node18"><a xlink:href="structfiftyone_degrees_header_array.html" target="_top" xlink:title="Array of Headers which should always be ordered in ascending order of fullHeaderId.">
<polygon fill="none" stroke="black" points="1221,-432 1221,-451 1376,-451 1376,-432 1221,-432"/>
<text text-anchor="middle" x="1298.5" y="-439" font-family="Helvetica,sans-Serif" font-size="10.00">fiftyoneDegreesHeaderArray</text>
</a>
</g>
</g>
<!-- Node21&#45;&gt;Node20 -->
<g id="edge20" class="edge">
<title>Node21&#45;&gt;Node20</title>
<path fill="none" stroke="#9a32cd" stroke-dasharray="5,2" d="M1386.65,-432.77C1424.03,-428.91 1468.18,-424.18 1508,-419.5 1519.83,-418.11 1532.38,-416.56 1544.57,-415"/>
<polygon fill="#9a32cd" stroke="#9a32cd" points="1385.88,-429.33 1376.29,-433.84 1386.6,-436.3 1385.88,-429.33"/>
<text text-anchor="middle" x="1456.5" y="-433.5" font-family="Helvetica,sans-Serif" font-size="10.00"> uniqueHeaders</text>
</g>
<!-- Node22 -->
<g id="node19" class="node">
<title>Node22</title>
<g id="a_node19"><a xlink:href="structfiftyone_degrees_resource_handle.html" target="_top" xlink:title="Handle for a shared resource.">
<polygon fill="none" stroke="black" points="1212,-596 1212,-615 1385,-615 1385,-596 1212,-596"/>
<text text-anchor="middle" x="1298.5" y="-603" font-family="Helvetica,sans-Serif" font-size="10.00">fiftyoneDegreesResourceHandle</text>
</a>
</g>
</g>
<!-- Node22&#45;&gt;Node20 -->
<g id="edge21" class="edge">
<title>Node22&#45;&gt;Node20</title>
<path fill="none" stroke="#9a32cd" stroke-dasharray="5,2" d="M1358.29,-593.75C1367.93,-591.53 1377.78,-589.09 1387,-586.5 1441.8,-571.1 1471.64,-588.3 1508,-544.5 1542.44,-503 1489.01,-463.75 1526,-424.5 1529.61,-420.67 1533.79,-417.5 1538.33,-414.9"/>
<polygon fill="#9a32cd" stroke="#9a32cd" points="1357.35,-590.38 1348.35,-595.98 1358.88,-597.21 1357.35,-590.38"/>
<text text-anchor="middle" x="1456.5" y="-584.5" font-family="Helvetica,sans-Serif" font-size="10.00"> handle</text>
</g>
<!-- Node23 -->
<g id="node20" class="node">
<title>Node23</title>
<g id="a_node20"><a xlink:href="structfiftyone_degrees_resource_manager.html" target="_top" xlink:title="Manager structure used to provide access to a shared and changing resource.">
<polygon fill="none" stroke="black" points="1526,-610 1526,-629 1708,-629 1708,-610 1526,-610"/>
<text text-anchor="middle" x="1617" y="-617" font-family="Helvetica,sans-Serif" font-size="10.00">fiftyoneDegreesResourceManager</text>
</a>
</g>
</g>
<!-- Node22&#45;&gt;Node23 -->
<g id="edge23" class="edge">
<title>Node22&#45;&gt;Node23</title>
<path fill="none" stroke="#9a32cd" stroke-dasharray="5,2" d="M1395.53,-613.94C1398.73,-614.14 1401.89,-614.33 1405,-614.5 1444.61,-616.66 1488.45,-617.88 1525.86,-618.58"/>
<polygon fill="#9a32cd" stroke="#9a32cd" points="1395.47,-610.43 1385.26,-613.26 1395.01,-617.42 1395.47,-610.43"/>
<text text-anchor="middle" x="1456.5" y="-620.5" font-family="Helvetica,sans-Serif" font-size="10.00"> active</text>
</g>
<!-- Node23&#45;&gt;Node22 -->
<g id="edge22" class="edge">
<title>Node23&#45;&gt;Node22</title>
<path fill="none" stroke="#9a32cd" stroke-dasharray="5,2" d="M1552.43,-608.49C1537.87,-606.42 1522.44,-604.56 1508,-603.5 1467.66,-600.53 1422.8,-600.53 1385.07,-601.48"/>
<polygon fill="#9a32cd" stroke="#9a32cd" points="1551.93,-611.96 1562.34,-609.96 1552.96,-605.03 1551.93,-611.96"/>
<text text-anchor="middle" x="1456.5" y="-606.5" font-family="Helvetica,sans-Serif" font-size="10.00"> manager</text>
</g>
<!-- Node24 -->
<g id="node21" class="node">
<title>Node24</title>
<g id="a_node21"><a xlink:href="structfiftyone_degrees_interlock_double_width.html" target="_top" xlink:title="Double width (64 or 128 depending on the architecture) compare and exchange.">
<polygon fill="none" stroke="black" points="837,-590.5 837,-620.5 974,-620.5 974,-590.5 837,-590.5"/>
<text text-anchor="start" x="845" y="-608.5" font-family="Helvetica,sans-Serif" font-size="10.00">fiftyoneDegreesInterlock</text>
<text text-anchor="middle" x="905.5" y="-597.5" font-family="Helvetica,sans-Serif" font-size="10.00">DoubleWidth</text>
</a>
</g>
</g>
<!-- Node24&#45;&gt;Node22 -->
<g id="edge24" class="edge">
<title>Node24&#45;&gt;Node22</title>
<path fill="none" stroke="#9a32cd" stroke-dasharray="5,2" d="M984.46,-605.5C1050.18,-605.5 1144.1,-605.5 1211.89,-605.5"/>
<polygon fill="#9a32cd" stroke="#9a32cd" points="984.16,-602 974.16,-605.5 984.16,-609 984.16,-602"/>
<text text-anchor="middle" x="1102" y="-608.5" font-family="Helvetica,sans-Serif" font-size="10.00"> counter</text>
</g>
<!-- Node25 -->
<g id="node22" class="node">
<title>Node25</title>
<g id="a_node22"><a xlink:href="structfiftyone_degrees_file_pool.html" target="_top" xlink:title="Stack of handles used to read data from a single source file.">
<polygon fill="none" stroke="black" points="1232.5,-558 1232.5,-577 1364.5,-577 1364.5,-558 1232.5,-558"/>
<text text-anchor="middle" x="1298.5" y="-565" font-family="Helvetica,sans-Serif" font-size="10.00">fiftyoneDegreesFilePool</text>
</a>
</g>
</g>
<!-- Node25&#45;&gt;Node20 -->
<g id="edge25" class="edge">
<title>Node25&#45;&gt;Node20</title>
<path fill="none" stroke="#9a32cd" stroke-dasharray="5,2" d="M1371.33,-554.9C1376.74,-553.05 1382.02,-550.93 1387,-548.5 1396.36,-543.93 1396.05,-538.83 1405,-533.5 1447.34,-508.3 1475.31,-529.37 1508,-492.5 1528.74,-469.11 1503.34,-446.04 1526,-424.5 1529.94,-420.76 1534.41,-417.68 1539.22,-415.14"/>
<polygon fill="#9a32cd" stroke="#9a32cd" points="1370,-551.65 1361.48,-557.95 1372.07,-558.34 1370,-551.65"/>
<text text-anchor="middle" x="1456.5" y="-536.5" font-family="Helvetica,sans-Serif" font-size="10.00"> filePool</text>
</g>
<!-- Node26 -->
<g id="node23" class="node">
<title>Node26</title>
<g id="a_node23"><a xlink:href="structfiftyone_degrees_pool.html" target="_top" xlink:title="Pool of resources stored as items in a stack.">
<polygon fill="none" stroke="black" points="848,-523 848,-542 963,-542 963,-523 848,-523"/>
<text text-anchor="middle" x="905.5" y="-530" font-family="Helvetica,sans-Serif" font-size="10.00">fiftyoneDegreesPool</text>
</a>
</g>
</g>
<!-- Node26&#45;&gt;Node25 -->
<g id="edge26" class="edge">
<title>Node26&#45;&gt;Node25</title>
<path fill="none" stroke="#9a32cd" stroke-dasharray="5,2" d="M973.28,-541.2C986.12,-542.74 999.47,-544.25 1012,-545.5 1087.44,-553.05 1174.31,-559.41 1232.23,-563.32"/>
<polygon fill="#9a32cd" stroke="#9a32cd" points="973.46,-537.69 963.12,-539.96 972.62,-544.64 973.46,-537.69"/>
<text text-anchor="middle" x="1102" y="-562.5" font-family="Helvetica,sans-Serif" font-size="10.00"> pool</text>
</g>
<!-- Node26&#45;&gt;Node26 -->
<g id="edge27" class="edge">
<title>Node26&#45;&gt;Node26</title>
<path fill="none" stroke="#9a32cd" stroke-dasharray="5,2" d="M875.19,-550.77C876.05,-556.24 886.15,-560.5 905.5,-560.5 934.29,-560.5 942.62,-551.07 930.47,-542.26"/>
<polygon fill="#9a32cd" stroke="#9a32cd" points="878.18,-552.59 880.53,-542.26 872.25,-548.87 878.18,-552.59"/>
<text text-anchor="middle" x="905.5" y="-563.5" font-family="Helvetica,sans-Serif" font-size="10.00"> resourceFree</text>
</g>
<!-- Node28 -->
<g id="node25" class="node">
<title>Node28</title>
<g id="a_node25"><a xlink:href="structfiftyone_degrees_pool_item.html" target="_top" xlink:title="Pool item node in the stack of items.">
<polygon fill="none" stroke="black" points="1230,-520 1230,-539 1367,-539 1367,-520 1230,-520"/>
<text text-anchor="middle" x="1298.5" y="-527" font-family="Helvetica,sans-Serif" font-size="10.00">fiftyoneDegreesPoolItem</text>
</a>
</g>
</g>
<!-- Node26&#45;&gt;Node28 -->
<g id="edge30" class="edge">
<title>Node26&#45;&gt;Node28</title>
<path fill="none" stroke="#9a32cd" stroke-dasharray="5,2" d="M962.47,-521.14C978.4,-518.4 995.83,-515.87 1012,-514.5 1091.71,-507.75 1112.2,-508.86 1192,-514.5 1207.96,-515.63 1225.18,-517.71 1240.99,-519.97"/>
<polygon fill="#9a32cd" stroke="#9a32cd" points="961.47,-517.76 952.24,-522.96 962.7,-524.66 961.47,-517.76"/>
<text text-anchor="middle" x="1102" y="-517.5" font-family="Helvetica,sans-Serif" font-size="10.00"> pool</text>
</g>
<!-- Node27 -->
<g id="node24" class="node">
<title>Node27</title>
<g id="a_node24"><a xlink:href="unionfiftyone_degrees_pool_head.html" target="_top" xlink:title="The head of the stack used for pop and push operations.">
<polygon fill="none" stroke="black" points="510,-523 510,-542 650,-542 650,-523 510,-523"/>
<text text-anchor="middle" x="580" y="-530" font-family="Helvetica,sans-Serif" font-size="10.00">fiftyoneDegreesPoolHead</text>
</a>
</g>
</g>
<!-- Node27&#45;&gt;Node26 -->
<g id="edge28" class="edge">
<title>Node27&#45;&gt;Node26</title>
<path fill="none" stroke="#9a32cd" stroke-dasharray="5,2" d="M660.26,-532.5C718.42,-532.5 796.02,-532.5 847.99,-532.5"/>
<polygon fill="#9a32cd" stroke="#9a32cd" points="660,-529 650,-532.5 660,-536 660,-529"/>
<text text-anchor="middle" x="743.5" y="-535.5" font-family="Helvetica,sans-Serif" font-size="10.00"> head</text>
</g>
<!-- Node28&#45;&gt;Node26 -->
<g id="edge29" class="edge">
<title>Node28&#45;&gt;Node26</title>
<path fill="none" stroke="#9a32cd" stroke-dasharray="5,2" d="M1219.31,-530.1C1143.66,-530.68 1030.82,-531.55 963.35,-532.06"/>
<polygon fill="#9a32cd" stroke="#9a32cd" points="1219.76,-533.6 1229.73,-530.02 1219.71,-526.6 1219.76,-533.6"/>
<text text-anchor="middle" x="1102" y="-534.5" font-family="Helvetica,sans-Serif" font-size="10.00"> stack</text>
</g>
<!-- Node29 -->
<g id="node26" class="node">
<title>Node29</title>
<g id="a_node26"><a xlink:href="structfiftyone_degrees_override_property_array.html" target="_top" xlink:title="Array of items of type fiftyoneDegreesOverrideProperty used to easily access and track the size of th...">
<polygon fill="none" stroke="black" points="1210,-335.5 1210,-365.5 1387,-365.5 1387,-335.5 1210,-335.5"/>
<text text-anchor="start" x="1218" y="-353.5" font-family="Helvetica,sans-Serif" font-size="10.00">fiftyoneDegreesOverrideProperty</text>
<text text-anchor="middle" x="1298.5" y="-342.5" font-family="Helvetica,sans-Serif" font-size="10.00">Array</text>
</a>
</g>
</g>
<!-- Node29&#45;&gt;Node20 -->
<g id="edge31" class="edge">
<title>Node29&#45;&gt;Node20</title>
<path fill="none" stroke="#9a32cd" stroke-dasharray="5,2" d="M1397.24,-362.82C1432.28,-367.7 1472.01,-373.76 1508,-380.5 1531.46,-384.89 1557.53,-390.9 1578.18,-395.92"/>
<polygon fill="#9a32cd" stroke="#9a32cd" points="1397.4,-359.31 1387.01,-361.42 1396.44,-366.25 1397.4,-359.31"/>
<text text-anchor="middle" x="1456.5" y="-383.5" font-family="Helvetica,sans-Serif" font-size="10.00"> overridable</text>
</g>
<!-- Node30 -->
<g id="node27" class="node">
<title>Node30</title>
<g id="a_node27"><a xlink:href="structfiftyone_degrees_override_property.html" target="_top" xlink:title="Index and pointer to a property which can be overridden.">
<polygon fill="none" stroke="black" points="817,-341 817,-360 994,-360 994,-341 817,-341"/>
<text text-anchor="middle" x="905.5" y="-348" font-family="Helvetica,sans-Serif" font-size="10.00">fiftyoneDegreesOverrideProperty</text>
</a>
</g>
</g>
<!-- Node30&#45;&gt;Node29 -->
<g id="edge32" class="edge">
<title>Node30&#45;&gt;Node29</title>
<path fill="none" stroke="#9a32cd" stroke-dasharray="5,2" d="M1004.6,-350.5C1067.63,-350.5 1148.81,-350.5 1209.71,-350.5"/>
<polygon fill="#9a32cd" stroke="#9a32cd" points="1004.25,-347 994.25,-350.5 1004.25,-354 1004.25,-347"/>
<text text-anchor="middle" x="1102" y="-353.5" font-family="Helvetica,sans-Serif" font-size="10.00"> items</text>
</g>
<!-- Node31&#45;&gt;Node30 -->
<g id="edge33" class="edge">
<title>Node31&#45;&gt;Node30</title>
<path fill="none" stroke="#9a32cd" stroke-dasharray="5,2" d="M680.31,-350.5C723.95,-350.5 774.74,-350.5 816.94,-350.5"/>
<polygon fill="#9a32cd" stroke="#9a32cd" points="680.25,-347 670.25,-350.5 680.25,-354 680.25,-347"/>
<text text-anchor="middle" x="743.5" y="-353.5" font-family="Helvetica,sans-Serif" font-size="10.00"> available</text>
</g>
<!-- Node34 -->
<g id="node31" class="node">
<title>Node34</title>
<g id="a_node31"><a xlink:href="structfiftyone_degrees_property_available_array.html" target="_top" xlink:title="Array of items of type fiftyoneDegreesPropertyAvailable used to easily access and track the size of t...">
<polygon fill="none" stroke="black" points="1012,-380.5 1012,-410.5 1192,-410.5 1192,-380.5 1012,-380.5"/>
<text text-anchor="start" x="1020" y="-398.5" font-family="Helvetica,sans-Serif" font-size="10.00">fiftyoneDegreesPropertyAvailable</text>
<text text-anchor="middle" x="1102" y="-387.5" font-family="Helvetica,sans-Serif" font-size="10.00">Array</text>
</a>
</g>
</g>
<!-- Node31&#45;&gt;Node34 -->
<g id="edge38" class="edge">
<title>Node31&#45;&gt;Node34</title>
<path fill="none" stroke="#9a32cd" stroke-dasharray="5,2" d="M653.7,-361.36C665.16,-362.88 676.89,-364.32 688,-365.5 799.34,-377.33 928.07,-385.87 1011.82,-390.75"/>
<polygon fill="#9a32cd" stroke="#9a32cd" points="654.1,-357.88 643.72,-360.01 653.16,-364.82 654.1,-357.88"/>
<text text-anchor="middle" x="743.5" y="-378.5" font-family="Helvetica,sans-Serif" font-size="10.00"> items</text>
</g>
<!-- Node32 -->
<g id="node29" class="node">
<title>Node32</title>
<g id="a_node29"><a xlink:href="structfiftyone_degrees_evidence_property_index_array.html" target="_top" xlink:title="Array of items of type fiftyoneDegreesEvidencePropertyIndex used to easily access and track the size ...">
<polygon fill="none" stroke="black" points="178,-335.5 178,-365.5 357,-365.5 357,-335.5 178,-335.5"/>
<text text-anchor="start" x="186" y="-353.5" font-family="Helvetica,sans-Serif" font-size="10.00">fiftyoneDegreesEvidenceProperty</text>
<text text-anchor="middle" x="267.5" y="-342.5" font-family="Helvetica,sans-Serif" font-size="10.00">IndexArray</text>
</a>
</g>
</g>
<!-- Node32&#45;&gt;Node31 -->
<g id="edge34" class="edge">
<title>Node32&#45;&gt;Node31</title>
<path fill="none" stroke="#9a32cd" stroke-dasharray="5,2" d="M367.2,-350.5C406.52,-350.5 451.45,-350.5 489.78,-350.5"/>
<polygon fill="#9a32cd" stroke="#9a32cd" points="367.06,-347 357.06,-350.5 367.06,-354 367.06,-347"/>
<text text-anchor="middle" x="423.5" y="-353.5" font-family="Helvetica,sans-Serif" font-size="10.00"> evidenceProperties</text>
</g>
<!-- Node33 -->
<g id="node30" class="node">
<title>Node33</title>
<g id="a_node30"><a xlink:href="structfiftyone_degrees_indices_property_profile.html" target="_top" xlink:title="Maps the profile index and the property index to the first value index of the profile for the propert...">
<polygon fill="none" stroke="black" points="1213.5,-470.5 1213.5,-500.5 1383.5,-500.5 1383.5,-470.5 1213.5,-470.5"/>
<text text-anchor="start" x="1221.5" y="-488.5" font-family="Helvetica,sans-Serif" font-size="10.00">fiftyoneDegreesIndicesProperty</text>
<text text-anchor="middle" x="1298.5" y="-477.5" font-family="Helvetica,sans-Serif" font-size="10.00">Profile</text>
</a>
</g>
</g>
<!-- Node33&#45;&gt;Node20 -->
<g id="edge36" class="edge">
<title>Node33&#45;&gt;Node20</title>
<path fill="none" stroke="#9a32cd" stroke-dasharray="5,2" d="M1393.61,-480.87C1431.19,-475.7 1473.62,-465.46 1508,-445.5 1518.63,-439.33 1515.43,-430.77 1526,-424.5 1532.59,-420.59 1539.88,-417.48 1547.36,-415.01"/>
<polygon fill="#9a32cd" stroke="#9a32cd" points="1393.14,-477.4 1383.66,-482.13 1394.02,-484.34 1393.14,-477.4"/>
<text text-anchor="middle" x="1456.5" y="-480.5" font-family="Helvetica,sans-Serif" font-size="10.00"> indexPropertyProfile</text>
</g>
<!-- Node34&#45;&gt;Node20 -->
<g id="edge37" class="edge">
<title>Node34&#45;&gt;Node20</title>
<path fill="none" stroke="#9a32cd" stroke-dasharray="5,2" d="M1202.29,-397.44C1300.47,-399.35 1448.65,-402.24 1538.46,-403.99"/>
<polygon fill="#9a32cd" stroke="#9a32cd" points="1202.13,-393.93 1192.06,-397.24 1201.99,-400.93 1202.13,-393.93"/>
<text text-anchor="middle" x="1298.5" y="-404.5" font-family="Helvetica,sans-Serif" font-size="10.00"> available</text>
</g>
</g>
</svg>
