<?xml version="1.0" encoding="UTF-8" standalone="no"?>
<!DOCTYPE svg PUBLIC "-//W3C//DTD SVG 1.1//EN"
 "http://www.w3.org/Graphics/SVG/1.1/DTD/svg11.dtd">
<!-- Generated by graphviz version 2.43.0 (0)
 -->
<!-- Title: FiftyoneDegrees::IpIntelligence::EvidenceIpi Pages: 1 -->
<svg width="176pt" height="162pt"
 viewBox="0.00 0.00 176.00 162.00" xmlns="http://www.w3.org/2000/svg" xmlns:xlink="http://www.w3.org/1999/xlink">
<g id="graph0" class="graph" transform="scale(1 1) rotate(0) translate(4 158)">
<title>FiftyoneDegrees::IpIntelligence::EvidenceIpi</title>
<!-- Node0 -->
<g id="node1" class="node">
<title>Node0</title>
<g id="a_node1"><a xlink:title="IP Intelligence specific evidence class containing evidence to be processed by an IP intelligence eng...">
<polygon fill="#bfbfbf" stroke="black" points="0,-0.5 0,-30.5 168,-30.5 168,-0.5 0,-0.5"/>
<text text-anchor="start" x="8" y="-18.5" font-family="Helvetica,sans-Serif" font-size="10.00">FiftyoneDegrees::IpIntelligence</text>
<text text-anchor="middle" x="84" y="-7.5" font-family="Helvetica,sans-Serif" font-size="10.00">::EvidenceIpi</text>
</a>
</g>
</g>
<!-- Node1 -->
<g id="node2" class="node">
<title>Node1</title>
<g id="a_node2"><a xlink:href="class_fiftyone_degrees_1_1_common_1_1_evidence_base.html" target="_top" xlink:title="Base evidence class containing evidence to be processed by an engine.">
<polygon fill="none" stroke="black" points="11,-67.5 11,-97.5 157,-97.5 157,-67.5 11,-67.5"/>
<text text-anchor="start" x="19" y="-85.5" font-family="Helvetica,sans-Serif" font-size="10.00">FiftyoneDegrees::Common</text>
<text text-anchor="middle" x="84" y="-74.5" font-family="Helvetica,sans-Serif" font-size="10.00">::EvidenceBase</text>
</a>
</g>
</g>
<!-- Node1&#45;&gt;Node0 -->
<g id="edge1" class="edge">
<title>Node1&#45;&gt;Node0</title>
<path fill="none" stroke="midnightblue" d="M84,-57.11C84,-48.15 84,-38.32 84,-30.58"/>
<polygon fill="midnightblue" stroke="midnightblue" points="80.5,-57.4 84,-67.4 87.5,-57.4 80.5,-57.4"/>
</g>
<!-- Node2 -->
<g id="node3" class="node">
<title>Node2</title>
<g id="a_node3"><a xlink:title=" ">
<polygon fill="none" stroke="#bfbfbf" points="12.5,-134.5 12.5,-153.5 155.5,-153.5 155.5,-134.5 12.5,-134.5"/>
<text text-anchor="middle" x="84" y="-141.5" font-family="Helvetica,sans-Serif" font-size="10.00">std::map&lt; string, string &gt;</text>
</a>
</g>
</g>
<!-- Node2&#45;&gt;Node1 -->
<g id="edge2" class="edge">
<title>Node2&#45;&gt;Node1</title>
<path fill="none" stroke="midnightblue" d="M84,-124.23C84,-115.59 84,-105.5 84,-97.52"/>
<polygon fill="midnightblue" stroke="midnightblue" points="80.5,-124.48 84,-134.48 87.5,-124.48 80.5,-124.48"/>
</g>
</g>
</svg>
