<?xml version="1.0" encoding="UTF-8" standalone="no"?>
<!DOCTYPE svg PUBLIC "-//W3C//DTD SVG 1.1//EN"
 "http://www.w3.org/Graphics/SVG/1.1/DTD/svg11.dtd">
<!-- Generated by graphviz version 2.43.0 (0)
 -->
<!-- Title: File Pages: 1 -->
<svg width="399pt" height="229pt"
 viewBox="0.00 0.00 398.50 229.00" xmlns="http://www.w3.org/2000/svg" xmlns:xlink="http://www.w3.org/1999/xlink">
<g id="graph0" class="graph" transform="scale(1 1) rotate(0) translate(4 225)">
<title>File</title>
<!-- Node3 -->
<g id="node1" class="node">
<title>Node3</title>
<g id="a_node1"><a xlink:title="File test class used to test the functionality of file.c.">
<polygon fill="#bfbfbf" stroke="black" points="73,-0.5 73,-19.5 107,-19.5 107,-0.5 73,-0.5"/>
<text text-anchor="middle" x="90" y="-7.5" font-family="Helvetica,sans-Serif" font-size="10.00">File</text>
</a>
</g>
</g>
<!-- Node4 -->
<g id="node2" class="node">
<title>Node4</title>
<g id="a_node2"><a xlink:href="class_base.html" target="_top" xlink:title="Base test class used to carry out memory leak checks.">
<polygon fill="none" stroke="black" points="17.5,-67.5 17.5,-86.5 58.5,-86.5 58.5,-67.5 17.5,-67.5"/>
<text text-anchor="middle" x="38" y="-74.5" font-family="Helvetica,sans-Serif" font-size="10.00">Base</text>
</a>
</g>
</g>
<!-- Node4&#45;&gt;Node3 -->
<g id="edge1" class="edge">
<title>Node4&#45;&gt;Node3</title>
<path fill="none" stroke="midnightblue" d="M51.38,-59.27C61.52,-46.6 75.04,-29.7 83.1,-19.63"/>
<polygon fill="midnightblue" stroke="midnightblue" points="48.53,-57.24 45.01,-67.23 53.99,-61.61 48.53,-57.24"/>
</g>
<!-- Node5 -->
<g id="node3" class="node">
<title>Node5</title>
<g id="a_node3"><a xlink:title=" ">
<polygon fill="none" stroke="#bfbfbf" points="0,-134.5 0,-153.5 76,-153.5 76,-134.5 0,-134.5"/>
<text text-anchor="middle" x="38" y="-141.5" font-family="Helvetica,sans-Serif" font-size="10.00">testing::Test</text>
</a>
</g>
</g>
<!-- Node5&#45;&gt;Node4 -->
<g id="edge2" class="edge">
<title>Node5&#45;&gt;Node4</title>
<path fill="none" stroke="midnightblue" d="M38,-124.04C38,-111.67 38,-96.12 38,-86.63"/>
<polygon fill="midnightblue" stroke="midnightblue" points="34.5,-124.23 38,-134.23 41.5,-124.23 34.5,-124.23"/>
</g>
<!-- Node6 -->
<g id="node4" class="node">
<title>Node6</title>
<g id="a_node4"><a xlink:href="structfiftyone_degrees_file_pool.html" target="_top" xlink:title="Stack of handles used to read data from a single source file.">
<polygon fill="none" stroke="black" points="77,-67.5 77,-86.5 209,-86.5 209,-67.5 77,-67.5"/>
<text text-anchor="middle" x="143" y="-74.5" font-family="Helvetica,sans-Serif" font-size="10.00">fiftyoneDegreesFilePool</text>
</a>
</g>
</g>
<!-- Node6&#45;&gt;Node3 -->
<g id="edge3" class="edge">
<title>Node6&#45;&gt;Node3</title>
<path fill="none" stroke="#9a32cd" stroke-dasharray="5,2" d="M129.36,-59.27C119.03,-46.6 105.25,-29.7 97.03,-19.63"/>
<polygon fill="#9a32cd" stroke="#9a32cd" points="126.82,-61.7 135.85,-67.23 132.25,-57.27 126.82,-61.7"/>
<text text-anchor="middle" x="132.5" y="-41" font-family="Helvetica,sans-Serif" font-size="10.00"> pool</text>
</g>
<!-- Node7 -->
<g id="node5" class="node">
<title>Node7</title>
<g id="a_node5"><a xlink:href="structfiftyone_degrees_pool.html" target="_top" xlink:title="Pool of resources stored as items in a stack.">
<polygon fill="none" stroke="black" points="190.5,-134.5 190.5,-153.5 305.5,-153.5 305.5,-134.5 190.5,-134.5"/>
<text text-anchor="middle" x="248" y="-141.5" font-family="Helvetica,sans-Serif" font-size="10.00">fiftyoneDegreesPool</text>
</a>
</g>
</g>
<!-- Node7&#45;&gt;Node6 -->
<g id="edge4" class="edge">
<title>Node7&#45;&gt;Node6</title>
<path fill="none" stroke="#9a32cd" stroke-dasharray="5,2" d="M225.29,-128.94C204.5,-116.07 174.38,-97.43 156.94,-86.63"/>
<polygon fill="#9a32cd" stroke="#9a32cd" points="223.49,-131.95 233.84,-134.23 227.18,-125.99 223.49,-131.95"/>
<text text-anchor="middle" x="214.5" y="-108" font-family="Helvetica,sans-Serif" font-size="10.00"> pool</text>
</g>
<!-- Node7&#45;&gt;Node7 -->
<g id="edge5" class="edge">
<title>Node7&#45;&gt;Node7</title>
<path fill="none" stroke="#9a32cd" stroke-dasharray="5,2" d="M315.53,-148.44C320.47,-147.44 323.5,-145.96 323.5,-144 323.5,-140.94 316.12,-139.05 305.61,-138.33"/>
<polygon fill="#9a32cd" stroke="#9a32cd" points="315.1,-144.97 305.61,-149.67 315.96,-151.92 315.1,-144.97"/>
<text text-anchor="middle" x="357" y="-141.5" font-family="Helvetica,sans-Serif" font-size="10.00"> resourceFree</text>
</g>
<!-- Node9 -->
<g id="node7" class="node">
<title>Node9</title>
<g id="a_node7"><a xlink:href="structfiftyone_degrees_pool_item.html" target="_top" xlink:title="Pool item node in the stack of items.">
<polygon fill="none" stroke="black" points="227.5,-67.5 227.5,-86.5 364.5,-86.5 364.5,-67.5 227.5,-67.5"/>
<text text-anchor="middle" x="296" y="-74.5" font-family="Helvetica,sans-Serif" font-size="10.00">fiftyoneDegreesPoolItem</text>
</a>
</g>
</g>
<!-- Node7&#45;&gt;Node9 -->
<g id="edge8" class="edge">
<title>Node7&#45;&gt;Node9</title>
<path fill="none" stroke="#9a32cd" stroke-dasharray="5,2" d="M242.25,-124.42C241.29,-117.88 241.54,-110.74 245,-105 250.06,-96.59 258.72,-90.66 267.49,-86.55"/>
<polygon fill="#9a32cd" stroke="#9a32cd" points="238.93,-125.58 244.65,-134.5 245.74,-123.96 238.93,-125.58"/>
<text text-anchor="middle" x="257.5" y="-108" font-family="Helvetica,sans-Serif" font-size="10.00"> pool</text>
</g>
<!-- Node8 -->
<g id="node6" class="node">
<title>Node8</title>
<g id="a_node6"><a xlink:href="unionfiftyone_degrees_pool_head.html" target="_top" xlink:title="The head of the stack used for pop and push operations.">
<polygon fill="none" stroke="black" points="178,-201.5 178,-220.5 318,-220.5 318,-201.5 178,-201.5"/>
<text text-anchor="middle" x="248" y="-208.5" font-family="Helvetica,sans-Serif" font-size="10.00">fiftyoneDegreesPoolHead</text>
</a>
</g>
</g>
<!-- Node8&#45;&gt;Node7 -->
<g id="edge6" class="edge">
<title>Node8&#45;&gt;Node7</title>
<path fill="none" stroke="#9a32cd" stroke-dasharray="5,2" d="M248,-191.04C248,-178.67 248,-163.12 248,-153.63"/>
<polygon fill="#9a32cd" stroke="#9a32cd" points="244.5,-191.23 248,-201.23 251.5,-191.23 244.5,-191.23"/>
<text text-anchor="middle" x="262" y="-175" font-family="Helvetica,sans-Serif" font-size="10.00"> head</text>
</g>
<!-- Node9&#45;&gt;Node7 -->
<g id="edge7" class="edge">
<title>Node9&#45;&gt;Node7</title>
<path fill="none" stroke="#9a32cd" stroke-dasharray="5,2" d="M287.07,-95.43C283.37,-102.09 278.81,-109.62 274,-116 268.99,-122.65 262.49,-129.4 257.24,-134.49"/>
<polygon fill="#9a32cd" stroke="#9a32cd" points="290.21,-96.99 291.83,-86.52 284.03,-93.69 290.21,-96.99"/>
<text text-anchor="middle" x="296" y="-108" font-family="Helvetica,sans-Serif" font-size="10.00"> stack</text>
</g>
</g>
</svg>
