<?xml version="1.0" encoding="UTF-8" standalone="no"?>
<!DOCTYPE svg PUBLIC "-//W3C//DTD SVG 1.1//EN"
 "http://www.w3.org/Graphics/SVG/1.1/DTD/svg11.dtd">
<!-- Generated by graphviz version 2.43.0 (0)
 -->
<!-- Title: FiftyoneDegrees::IpIntelligence::ValueMetaDataCollectionBaseIpi Pages: 1 -->
<svg width="656pt" height="137pt"
 viewBox="0.00 0.00 656.00 137.00" xmlns="http://www.w3.org/2000/svg" xmlns:xlink="http://www.w3.org/1999/xlink">
<g id="graph0" class="graph" transform="scale(1 1) rotate(0) translate(4 133)">
<title>FiftyoneDegrees::IpIntelligence::ValueMetaDataCollectionBaseIpi</title>
<!-- Node0 -->
<g id="node1" class="node">
<title>Node0</title>
<g id="a_node1"><a xlink:title="A collection of all value meta data contained in an IP Intelligence engine.">
<polygon fill="#bfbfbf" stroke="black" points="215,-49.5 215,-79.5 397,-79.5 397,-49.5 215,-49.5"/>
<text text-anchor="start" x="223" y="-67.5" font-family="Helvetica,sans-Serif" font-size="10.00">FiftyoneDegrees::IpIntelligence</text>
<text text-anchor="middle" x="306" y="-56.5" font-family="Helvetica,sans-Serif" font-size="10.00">::ValueMetaDataCollectionBaseIpi</text>
</a>
</g>
</g>
<!-- Node2 -->
<g id="node3" class="node">
<title>Node2</title>
<g id="a_node3"><a xlink:href="class_fiftyone_degrees_1_1_ip_intelligence_1_1_value_meta_data_collection_for_profile_ipi.html" target="_top" xlink:title="A collection of value meta data relating to a profile contained in an IP Intelligence engine.">
<polygon fill="none" stroke="black" points="438.5,-98.5 438.5,-128.5 642.5,-128.5 642.5,-98.5 438.5,-98.5"/>
<text text-anchor="start" x="446.5" y="-116.5" font-family="Helvetica,sans-Serif" font-size="10.00">FiftyoneDegrees::IpIntelligence</text>
<text text-anchor="middle" x="540.5" y="-105.5" font-family="Helvetica,sans-Serif" font-size="10.00">::ValueMetaDataCollectionForProfileIpi</text>
</a>
</g>
</g>
<!-- Node0&#45;&gt;Node2 -->
<g id="edge2" class="edge">
<title>Node0&#45;&gt;Node2</title>
<path fill="none" stroke="midnightblue" d="M388.2,-81.61C414.29,-87.11 442.98,-93.16 468.3,-98.49"/>
<polygon fill="midnightblue" stroke="midnightblue" points="388.84,-78.17 378.34,-79.53 387.4,-85.02 388.84,-78.17"/>
</g>
<!-- Node3 -->
<g id="node4" class="node">
<title>Node3</title>
<g id="a_node4"><a xlink:href="class_fiftyone_degrees_1_1_ip_intelligence_1_1_value_meta_data_collection_for_property_ipi.html" target="_top" xlink:title="A collection of value meta data relating to a property contained in an IP Intelligence engine.">
<polygon fill="none" stroke="black" points="433,-49.5 433,-79.5 648,-79.5 648,-49.5 433,-49.5"/>
<text text-anchor="start" x="441" y="-67.5" font-family="Helvetica,sans-Serif" font-size="10.00">FiftyoneDegrees::IpIntelligence</text>
<text text-anchor="middle" x="540.5" y="-56.5" font-family="Helvetica,sans-Serif" font-size="10.00">::ValueMetaDataCollectionForPropertyIpi</text>
</a>
</g>
</g>
<!-- Node0&#45;&gt;Node3 -->
<g id="edge3" class="edge">
<title>Node0&#45;&gt;Node3</title>
<path fill="none" stroke="midnightblue" d="M407.38,-64.5C415.75,-64.5 424.25,-64.5 432.67,-64.5"/>
<polygon fill="midnightblue" stroke="midnightblue" points="407.22,-61 397.22,-64.5 407.22,-68 407.22,-61"/>
</g>
<!-- Node4 -->
<g id="node5" class="node">
<title>Node4</title>
<g id="a_node5"><a xlink:href="class_fiftyone_degrees_1_1_ip_intelligence_1_1_value_meta_data_collection_ipi.html" target="_top" xlink:title="A collection of all value meta data contained in a IP Intelligence engine.">
<polygon fill="none" stroke="black" points="456.5,-0.5 456.5,-30.5 624.5,-30.5 624.5,-0.5 456.5,-0.5"/>
<text text-anchor="start" x="464.5" y="-18.5" font-family="Helvetica,sans-Serif" font-size="10.00">FiftyoneDegrees::IpIntelligence</text>
<text text-anchor="middle" x="540.5" y="-7.5" font-family="Helvetica,sans-Serif" font-size="10.00">::ValueMetaDataCollectionIpi</text>
</a>
</g>
</g>
<!-- Node0&#45;&gt;Node4 -->
<g id="edge4" class="edge">
<title>Node0&#45;&gt;Node4</title>
<path fill="none" stroke="midnightblue" d="M388.2,-47.39C414.29,-41.89 442.98,-35.84 468.3,-30.51"/>
<polygon fill="midnightblue" stroke="midnightblue" points="387.4,-43.98 378.34,-49.47 388.84,-50.83 387.4,-43.98"/>
</g>
<!-- Node1 -->
<g id="node2" class="node">
<title>Node1</title>
<g id="a_node2"><a xlink:href="class_fiftyone_degrees_1_1_common_1_1_collection.html" target="_top" xlink:title="A group of items accessible by index or key.">
<polygon fill="none" stroke="black" points="0,-44 0,-85 179,-85 179,-44 0,-44"/>
<text text-anchor="start" x="8" y="-73" font-family="Helvetica,sans-Serif" font-size="10.00">FiftyoneDegrees::Common</text>
<text text-anchor="start" x="8" y="-62" font-family="Helvetica,sans-Serif" font-size="10.00">::Collection&lt; ValueMetaDataKey,</text>
<text text-anchor="middle" x="89.5" y="-51" font-family="Helvetica,sans-Serif" font-size="10.00"> ValueMetaData &gt;</text>
</a>
</g>
</g>
<!-- Node1&#45;&gt;Node0 -->
<g id="edge1" class="edge">
<title>Node1&#45;&gt;Node0</title>
<path fill="none" stroke="midnightblue" d="M189.55,-64.5C198,-64.5 206.52,-64.5 214.89,-64.5"/>
<polygon fill="midnightblue" stroke="midnightblue" points="189.29,-61 179.29,-64.5 189.29,-68 189.29,-61"/>
</g>
</g>
</svg>
