<?xml version="1.0" encoding="UTF-8" standalone="no"?>
<!DOCTYPE svg PUBLIC "-//W3C//DTD SVG 1.1//EN"
 "http://www.w3.org/Graphics/SVG/1.1/DTD/svg11.dtd">
<!-- Generated by graphviz version 2.43.0 (0)
 -->
<!-- Title: FiftyoneDegrees::Examples::IpIntelligence::ExampleBase Pages: 1 -->
<svg width="399pt" height="235pt"
 viewBox="0.00 0.00 399.00 235.00" xmlns="http://www.w3.org/2000/svg" xmlns:xlink="http://www.w3.org/1999/xlink">
<g id="graph0" class="graph" transform="scale(1 1) rotate(0) translate(4 231)">
<title>FiftyoneDegrees::Examples::IpIntelligence::ExampleBase</title>
<!-- Node0 -->
<g id="node1" class="node">
<title>Node0</title>
<g id="a_node1"><a xlink:title="Base class extended by all IP Intelligence examples.">
<polygon fill="#bfbfbf" stroke="black" points="0,-98.5 0,-128.5 161,-128.5 161,-98.5 0,-98.5"/>
<text text-anchor="start" x="8" y="-116.5" font-family="Helvetica,sans-Serif" font-size="10.00">FiftyoneDegrees::Examples</text>
<text text-anchor="middle" x="80.5" y="-105.5" font-family="Helvetica,sans-Serif" font-size="10.00">::IpIntelligence::ExampleBase</text>
</a>
</g>
</g>
<!-- Node1 -->
<g id="node2" class="node">
<title>Node1</title>
<g id="a_node2"><a xlink:href="class_fiftyone_degrees_1_1_examples_1_1_ip_intelligence_1_1_getting_started.html" target="_top" xlink:title="IP Intelligence Getting Started Example.">
<polygon fill="none" stroke="black" points="211,-196.5 211,-226.5 377,-226.5 377,-196.5 211,-196.5"/>
<text text-anchor="start" x="219" y="-214.5" font-family="Helvetica,sans-Serif" font-size="10.00">FiftyoneDegrees::Examples</text>
<text text-anchor="middle" x="294" y="-203.5" font-family="Helvetica,sans-Serif" font-size="10.00">::IpIntelligence::GettingStarted</text>
</a>
</g>
</g>
<!-- Node0&#45;&gt;Node1 -->
<g id="edge1" class="edge">
<title>Node0&#45;&gt;Node1</title>
<path fill="none" stroke="midnightblue" d="M108.91,-134.71C131.46,-151.23 164.81,-173.61 197,-187.5 204.81,-190.87 213.19,-193.83 221.62,-196.42"/>
<polygon fill="midnightblue" stroke="midnightblue" points="110.94,-131.86 100.83,-128.7 106.77,-137.48 110.94,-131.86"/>
</g>
<!-- Node2 -->
<g id="node3" class="node">
<title>Node2</title>
<g id="a_node3"><a xlink:href="class_fiftyone_degrees_1_1_examples_1_1_ip_intelligence_1_1_meta_data_example.html" target="_top" xlink:title="IP Intelligence Meta Data Example.">
<polygon fill="none" stroke="black" points="201.5,-147.5 201.5,-177.5 386.5,-177.5 386.5,-147.5 201.5,-147.5"/>
<text text-anchor="start" x="209.5" y="-165.5" font-family="Helvetica,sans-Serif" font-size="10.00">FiftyoneDegrees::Examples</text>
<text text-anchor="middle" x="294" y="-154.5" font-family="Helvetica,sans-Serif" font-size="10.00">::IpIntelligence::MetaDataExample</text>
</a>
</g>
</g>
<!-- Node0&#45;&gt;Node2 -->
<g id="edge2" class="edge">
<title>Node0&#45;&gt;Node2</title>
<path fill="none" stroke="midnightblue" d="M156.31,-130.83C179.79,-136.27 205.5,-142.23 228.23,-147.49"/>
<polygon fill="midnightblue" stroke="midnightblue" points="156.93,-127.38 146.39,-128.53 155.35,-134.2 156.93,-127.38"/>
</g>
<!-- Node3 -->
<g id="node4" class="node">
<title>Node3</title>
<g id="a_node4"><a xlink:href="class_fiftyone_degrees_1_1_examples_1_1_ip_intelligence_1_1_reload_from_file.html" target="_top" xlink:title="IP Intelligence Reload From File Example.">
<polygon fill="none" stroke="black" points="209,-98.5 209,-128.5 379,-128.5 379,-98.5 209,-98.5"/>
<text text-anchor="start" x="217" y="-116.5" font-family="Helvetica,sans-Serif" font-size="10.00">FiftyoneDegrees::Examples</text>
<text text-anchor="middle" x="294" y="-105.5" font-family="Helvetica,sans-Serif" font-size="10.00">::IpIntelligence::ReloadFromFile</text>
</a>
</g>
</g>
<!-- Node0&#45;&gt;Node3 -->
<g id="edge3" class="edge">
<title>Node0&#45;&gt;Node3</title>
<path fill="none" stroke="midnightblue" d="M171.48,-113.5C183.87,-113.5 196.55,-113.5 208.83,-113.5"/>
<polygon fill="midnightblue" stroke="midnightblue" points="171.16,-110 161.16,-113.5 171.16,-117 171.16,-110"/>
</g>
<!-- Node4 -->
<g id="node5" class="node">
<title>Node4</title>
<g id="a_node5"><a xlink:href="class_fiftyone_degrees_1_1_examples_1_1_ip_intelligence_1_1_reload_from_memory.html" target="_top" xlink:title="IP Intelligence Reload From Memory Example.">
<polygon fill="none" stroke="black" points="197,-49.5 197,-79.5 391,-79.5 391,-49.5 197,-49.5"/>
<text text-anchor="start" x="205" y="-67.5" font-family="Helvetica,sans-Serif" font-size="10.00">FiftyoneDegrees::Examples</text>
<text text-anchor="middle" x="294" y="-56.5" font-family="Helvetica,sans-Serif" font-size="10.00">::IpIntelligence::ReloadFromMemory</text>
</a>
</g>
</g>
<!-- Node0&#45;&gt;Node4 -->
<g id="edge4" class="edge">
<title>Node0&#45;&gt;Node4</title>
<path fill="none" stroke="midnightblue" d="M156.31,-96.17C179.79,-90.73 205.5,-84.77 228.23,-79.51"/>
<polygon fill="midnightblue" stroke="midnightblue" points="155.35,-92.8 146.39,-98.47 156.93,-99.62 155.35,-92.8"/>
</g>
<!-- Node5 -->
<g id="node6" class="node">
<title>Node5</title>
<g id="a_node6"><a xlink:href="class_fiftyone_degrees_1_1_examples_1_1_ip_intelligence_1_1_strongly_typed.html" target="_top" xlink:title="IP Intelligence Strongly Typed Example.">
<polygon fill="none" stroke="black" points="212,-0.5 212,-30.5 376,-30.5 376,-0.5 212,-0.5"/>
<text text-anchor="start" x="220" y="-18.5" font-family="Helvetica,sans-Serif" font-size="10.00">FiftyoneDegrees::Examples</text>
<text text-anchor="middle" x="294" y="-7.5" font-family="Helvetica,sans-Serif" font-size="10.00">::IpIntelligence::StronglyTyped</text>
</a>
</g>
</g>
<!-- Node0&#45;&gt;Node5 -->
<g id="edge5" class="edge">
<title>Node0&#45;&gt;Node5</title>
<path fill="none" stroke="midnightblue" d="M109.41,-92.38C131.99,-76.18 165.16,-54.31 197,-40.5 205.69,-36.73 215.08,-33.43 224.46,-30.56"/>
<polygon fill="midnightblue" stroke="midnightblue" points="107.32,-89.57 101.3,-98.29 111.44,-95.23 107.32,-89.57"/>
</g>
</g>
</svg>
