<?xml version="1.0" encoding="UTF-8" standalone="no"?>
<!DOCTYPE svg PUBLIC "-//W3C//DTD SVG 1.1//EN"
 "http://www.w3.org/Graphics/SVG/1.1/DTD/svg11.dtd">
<!-- Generated by graphviz version 2.43.0 (0)
 -->
<!-- Title: StoredBinaryValues Pages: 1 -->
<svg width="578pt" height="169pt"
 viewBox="0.00 0.00 578.00 168.50" xmlns="http://www.w3.org/2000/svg" xmlns:xlink="http://www.w3.org/1999/xlink">
<g id="graph0" class="graph" transform="scale(1 1) rotate(0) translate(4 164.5)">
<title>StoredBinaryValues</title>
<!-- Node3 -->
<g id="node1" class="node">
<title>Node3</title>
<g id="a_node1"><a xlink:title=" ">
<polygon fill="#bfbfbf" stroke="black" points="458,-88 458,-107 570,-107 570,-88 458,-88"/>
<text text-anchor="middle" x="514" y="-95" font-family="Helvetica,sans-Serif" font-size="10.00">StoredBinaryValues</text>
</a>
</g>
</g>
<!-- Node4 -->
<g id="node2" class="node">
<title>Node4</title>
<g id="a_node2"><a xlink:href="class_base.html" target="_top" xlink:title="Base test class used to carry out memory leak checks.">
<polygon fill="none" stroke="black" points="251.5,-141 251.5,-160 292.5,-160 292.5,-141 251.5,-141"/>
<text text-anchor="middle" x="272" y="-148" font-family="Helvetica,sans-Serif" font-size="10.00">Base</text>
</a>
</g>
</g>
<!-- Node4&#45;&gt;Node3 -->
<g id="edge1" class="edge">
<title>Node4&#45;&gt;Node3</title>
<path fill="none" stroke="midnightblue" d="M302.67,-148.03C336.36,-144.76 392.8,-137.93 440,-125.5 457.85,-120.8 477.34,-113.19 491.69,-107.09"/>
<polygon fill="midnightblue" stroke="midnightblue" points="302.2,-144.55 292.56,-148.96 302.84,-151.52 302.2,-144.55"/>
</g>
<!-- Node5 -->
<g id="node3" class="node">
<title>Node5</title>
<g id="a_node3"><a xlink:title=" ">
<polygon fill="none" stroke="#bfbfbf" points="33.5,-141 33.5,-160 109.5,-160 109.5,-141 33.5,-141"/>
<text text-anchor="middle" x="71.5" y="-148" font-family="Helvetica,sans-Serif" font-size="10.00">testing::Test</text>
</a>
</g>
</g>
<!-- Node5&#45;&gt;Node4 -->
<g id="edge2" class="edge">
<title>Node5&#45;&gt;Node4</title>
<path fill="none" stroke="midnightblue" d="M119.84,-150.5C161.79,-150.5 220.98,-150.5 251.34,-150.5"/>
<polygon fill="midnightblue" stroke="midnightblue" points="119.84,-147 109.84,-150.5 119.84,-154 119.84,-147"/>
</g>
<!-- Node6 -->
<g id="node4" class="node">
<title>Node6</title>
<g id="a_node4"><a xlink:href="struct_stored_binary_values_1_1_file_props.html" target="_top" xlink:title=" ">
<polygon fill="none" stroke="black" points="216,-44.5 216,-74.5 328,-74.5 328,-44.5 216,-44.5"/>
<text text-anchor="start" x="224" y="-62.5" font-family="Helvetica,sans-Serif" font-size="10.00">StoredBinaryValues</text>
<text text-anchor="middle" x="272" y="-51.5" font-family="Helvetica,sans-Serif" font-size="10.00">::FileProps</text>
</a>
</g>
</g>
<!-- Node6&#45;&gt;Node3 -->
<g id="edge3" class="edge">
<title>Node6&#45;&gt;Node3</title>
<path fill="none" stroke="#9a32cd" stroke-dasharray="5,2" d="M338.36,-69.85C375.77,-75.77 422.2,-83.12 457.78,-88.76"/>
<polygon fill="#9a32cd" stroke="#9a32cd" points="338.49,-66.32 328.06,-68.22 337.39,-73.24 338.49,-66.32"/>
<text text-anchor="middle" x="393" y="-88.5" font-family="Helvetica,sans-Serif" font-size="10.00"> file</text>
</g>
<!-- Node7 -->
<g id="node5" class="node">
<title>Node7</title>
<g id="a_node5"><a xlink:href="structfiftyone_degrees_collection_header.html" target="_top" xlink:title="Collection header structure which defines the size and location of the collection data.">
<polygon fill="none" stroke="black" points="0,-70.5 0,-100.5 143,-100.5 143,-70.5 0,-70.5"/>
<text text-anchor="start" x="8" y="-88.5" font-family="Helvetica,sans-Serif" font-size="10.00">fiftyoneDegreesCollection</text>
<text text-anchor="middle" x="71.5" y="-77.5" font-family="Helvetica,sans-Serif" font-size="10.00">Header</text>
</a>
</g>
</g>
<!-- Node7&#45;&gt;Node3 -->
<g id="edge5" class="edge">
<title>Node7&#45;&gt;Node3</title>
<path fill="none" stroke="#9a32cd" stroke-dasharray="5,2" d="M153.3,-89.98C207.74,-92.76 281.16,-96.08 346,-97.5 383.25,-98.32 425.18,-98.31 457.71,-98.11"/>
<polygon fill="#9a32cd" stroke="#9a32cd" points="153.19,-86.47 143.02,-89.44 152.83,-93.46 153.19,-86.47"/>
<text text-anchor="middle" x="272" y="-100.5" font-family="Helvetica,sans-Serif" font-size="10.00"> header</text>
</g>
<!-- Node7&#45;&gt;Node6 -->
<g id="edge4" class="edge">
<title>Node7&#45;&gt;Node6</title>
<path fill="none" stroke="#9a32cd" stroke-dasharray="5,2" d="M152.99,-74.96C174.15,-72.19 196.49,-69.26 215.97,-66.71"/>
<polygon fill="#9a32cd" stroke="#9a32cd" points="152.5,-71.49 143.04,-76.26 153.41,-78.43 152.5,-71.49"/>
<text text-anchor="middle" x="179.5" y="-76.5" font-family="Helvetica,sans-Serif" font-size="10.00"> header</text>
</g>
<!-- Node8 -->
<g id="node6" class="node">
<title>Node8</title>
<g id="a_node6"><a xlink:href="struct_file_collection_box.html" target="_top" xlink:title=" ">
<polygon fill="none" stroke="black" points="221.5,-6 221.5,-25 322.5,-25 322.5,-6 221.5,-6"/>
<text text-anchor="middle" x="272" y="-13" font-family="Helvetica,sans-Serif" font-size="10.00">FileCollectionBox</text>
</a>
</g>
</g>
<!-- Node8&#45;&gt;Node3 -->
<g id="edge6" class="edge">
<title>Node8&#45;&gt;Node3</title>
<path fill="none" stroke="#9a32cd" stroke-dasharray="5,2" d="M333.06,-8.56C365.99,-7.2 406.74,-9.66 440,-24.5 470.94,-38.3 495.98,-71.51 506.97,-87.95"/>
<polygon fill="#9a32cd" stroke="#9a32cd" points="332.46,-5.08 322.67,-9.12 332.84,-12.07 332.46,-5.08"/>
<text text-anchor="middle" x="393" y="-60.5" font-family="Helvetica,sans-Serif" font-size="10.00"> fileLoadedCache</text>
<text text-anchor="middle" x="393" y="-49.5" font-family="Helvetica,sans-Serif" font-size="10.00">fileLoadedNoCache</text>
<text text-anchor="middle" x="393" y="-38.5" font-family="Helvetica,sans-Serif" font-size="10.00">fileNoCache</text>
<text text-anchor="middle" x="393" y="-27.5" font-family="Helvetica,sans-Serif" font-size="10.00">fileCache</text>
</g>
<!-- Node9 -->
<g id="node7" class="node">
<title>Node9</title>
<g id="a_node7"><a xlink:href="structfiftyone_degrees_collection_config.html" target="_top" xlink:title="Collection configuration structure which defines how the collection should be created by the create m...">
<polygon fill="none" stroke="black" points="0,-0.5 0,-30.5 143,-30.5 143,-0.5 0,-0.5"/>
<text text-anchor="start" x="8" y="-18.5" font-family="Helvetica,sans-Serif" font-size="10.00">fiftyoneDegreesCollection</text>
<text text-anchor="middle" x="71.5" y="-7.5" font-family="Helvetica,sans-Serif" font-size="10.00">Config</text>
</a>
</g>
</g>
<!-- Node9&#45;&gt;Node8 -->
<g id="edge7" class="edge">
<title>Node9&#45;&gt;Node8</title>
<path fill="none" stroke="#9a32cd" stroke-dasharray="5,2" d="M153.17,-15.5C176.21,-15.5 200.64,-15.5 221.25,-15.5"/>
<polygon fill="#9a32cd" stroke="#9a32cd" points="153.04,-12 143.04,-15.5 153.04,-19 153.04,-12"/>
<text text-anchor="middle" x="179.5" y="-18.5" font-family="Helvetica,sans-Serif" font-size="10.00"> config</text>
</g>
</g>
</svg>
