<?xml version="1.0" encoding="UTF-8" standalone="no"?>
<!DOCTYPE svg PUBLIC "-//W3C//DTD SVG 1.1//EN"
 "http://www.w3.org/Graphics/SVG/1.1/DTD/svg11.dtd">
<!-- Generated by graphviz version 2.43.0 (0)
 -->
<!-- Title: Base Pages: 1 -->
<svg width="719pt" height="745pt"
 viewBox="0.00 0.00 719.00 745.00" xmlns="http://www.w3.org/2000/svg" xmlns:xlink="http://www.w3.org/1999/xlink">
<g id="graph0" class="graph" transform="scale(1 1) rotate(0) translate(4 741)">
<title>Base</title>
<!-- Node0 -->
<g id="node1" class="node">
<title>Node0</title>
<g id="a_node1"><a xlink:title="Base test class used to carry out memory leak checks.">
<polygon fill="#bfbfbf" stroke="black" points="112,-342.5 112,-361.5 153,-361.5 153,-342.5 112,-342.5"/>
<text text-anchor="middle" x="132.5" y="-349.5" font-family="Helvetica,sans-Serif" font-size="10.00">Base</text>
</a>
</g>
</g>
<!-- Node2 -->
<g id="node3" class="node">
<title>Node2</title>
<g id="a_node3"><a xlink:href="class_cache_test.html" target="_top" xlink:title="Unit tests for the cache implementation.">
<polygon fill="none" stroke="black" points="227,-696.5 227,-715.5 293,-715.5 293,-696.5 227,-696.5"/>
<text text-anchor="middle" x="260" y="-703.5" font-family="Helvetica,sans-Serif" font-size="10.00">CacheTest</text>
</a>
</g>
</g>
<!-- Node0&#45;&gt;Node2 -->
<g id="edge2" class="edge">
<title>Node0&#45;&gt;Node2</title>
<path fill="none" stroke="midnightblue" d="M134.06,-371.76C136.28,-436.39 146.58,-640.07 189,-687 198.54,-697.56 213.3,-702.5 226.81,-704.72"/>
<polygon fill="midnightblue" stroke="midnightblue" points="137.55,-371.57 133.74,-361.68 130.56,-371.79 137.55,-371.57"/>
</g>
<!-- Node3 -->
<g id="node4" class="node">
<title>Node3</title>
<g id="a_node4"><a xlink:href="class_collection_test.html" target="_top" xlink:title=" ">
<polygon fill="none" stroke="black" points="217.5,-658.5 217.5,-677.5 302.5,-677.5 302.5,-658.5 217.5,-658.5"/>
<text text-anchor="middle" x="260" y="-665.5" font-family="Helvetica,sans-Serif" font-size="10.00">CollectionTest</text>
</a>
</g>
</g>
<!-- Node0&#45;&gt;Node3 -->
<g id="edge3" class="edge">
<title>Node0&#45;&gt;Node3</title>
<path fill="none" stroke="midnightblue" d="M134.58,-372.1C138.18,-431.91 151.78,-607.15 189,-648 196.41,-656.13 206.86,-661.04 217.44,-663.99"/>
<polygon fill="midnightblue" stroke="midnightblue" points="138.05,-371.53 133.98,-361.75 131.06,-371.93 138.05,-371.53"/>
</g>
<!-- Node10 -->
<g id="node11" class="node">
<title>Node10</title>
<g id="a_node11"><a xlink:href="class_collection_test_file_variable_limits.html" target="_top" xlink:title=" ">
<polygon fill="none" stroke="black" points="189,-609 189,-639 331,-639 331,-609 189,-609"/>
<text text-anchor="start" x="197" y="-627" font-family="Helvetica,sans-Serif" font-size="10.00">CollectionTestFileVariable</text>
<text text-anchor="middle" x="260" y="-616" font-family="Helvetica,sans-Serif" font-size="10.00">Limits</text>
</a>
</g>
</g>
<!-- Node0&#45;&gt;Node10 -->
<g id="edge10" class="edge">
<title>Node0&#45;&gt;Node10</title>
<path fill="none" stroke="midnightblue" d="M135.48,-371.72C141.12,-424.07 158.81,-564.89 189,-599 192.42,-602.87 196.48,-606.13 200.9,-608.9"/>
<polygon fill="midnightblue" stroke="midnightblue" points="138.96,-371.28 134.44,-361.7 132,-372.01 138.96,-371.28"/>
</g>
<!-- Node11 -->
<g id="node12" class="node">
<title>Node11</title>
<g id="a_node12"><a xlink:href="class_engine_tests.html" target="_top" xlink:title=" ">
<polygon fill="none" stroke="black" points="223,-570.5 223,-589.5 297,-589.5 297,-570.5 223,-570.5"/>
<text text-anchor="middle" x="260" y="-577.5" font-family="Helvetica,sans-Serif" font-size="10.00">EngineTests</text>
</a>
</g>
</g>
<!-- Node0&#45;&gt;Node11 -->
<g id="edge11" class="edge">
<title>Node0&#45;&gt;Node11</title>
<path fill="none" stroke="midnightblue" d="M132.68,-371.56C132.07,-412.64 136.73,-508.44 189,-561 197.97,-570.02 210.76,-574.88 222.95,-577.46"/>
<polygon fill="midnightblue" stroke="midnightblue" points="136.18,-371.59 132.95,-361.5 129.18,-371.4 136.18,-371.59"/>
</g>
<!-- Node12 -->
<g id="node13" class="node">
<title>Node12</title>
<g id="a_node13"><a xlink:href="class_evidence.html" target="_top" xlink:title="Evidence test class used to test the functionality in evidence.c.">
<polygon fill="none" stroke="black" points="229.5,-532.5 229.5,-551.5 290.5,-551.5 290.5,-532.5 229.5,-532.5"/>
<text text-anchor="middle" x="260" y="-539.5" font-family="Helvetica,sans-Serif" font-size="10.00">Evidence</text>
</a>
</g>
</g>
<!-- Node0&#45;&gt;Node12 -->
<g id="edge12" class="edge">
<title>Node0&#45;&gt;Node12</title>
<path fill="none" stroke="midnightblue" d="M134.09,-371.86C136.24,-407.41 145.97,-482.02 189,-523 199.76,-533.25 215.47,-538.08 229.29,-540.32"/>
<polygon fill="midnightblue" stroke="midnightblue" points="137.58,-371.61 133.62,-361.78 130.59,-371.93 137.58,-371.61"/>
</g>
<!-- Node16 -->
<g id="node17" class="node">
<title>Node16</title>
<g id="a_node17"><a xlink:href="class_example_tests.html" target="_top" xlink:title=" ">
<polygon fill="none" stroke="black" points="218,-494.5 218,-513.5 302,-513.5 302,-494.5 218,-494.5"/>
<text text-anchor="middle" x="260" y="-501.5" font-family="Helvetica,sans-Serif" font-size="10.00">ExampleTests</text>
</a>
</g>
</g>
<!-- Node0&#45;&gt;Node16 -->
<g id="edge16" class="edge">
<title>Node0&#45;&gt;Node16</title>
<path fill="none" stroke="midnightblue" d="M136.24,-371.88C141.31,-401.03 154.97,-455.13 189,-485 197.05,-492.06 207.47,-496.53 217.8,-499.34"/>
<polygon fill="midnightblue" stroke="midnightblue" points="139.65,-371.04 134.64,-361.7 132.73,-372.13 139.65,-371.04"/>
</g>
<!-- Node17 -->
<g id="node18" class="node">
<title>Node17</title>
<g id="a_node18"><a xlink:href="class_file.html" target="_top" xlink:title="File test class used to test the functionality of file.c.">
<polygon fill="none" stroke="black" points="243,-456.5 243,-475.5 277,-475.5 277,-456.5 243,-456.5"/>
<text text-anchor="middle" x="260" y="-463.5" font-family="Helvetica,sans-Serif" font-size="10.00">File</text>
</a>
</g>
</g>
<!-- Node0&#45;&gt;Node17 -->
<g id="edge17" class="edge">
<title>Node0&#45;&gt;Node17</title>
<path fill="none" stroke="midnightblue" d="M139.69,-371.21C147.66,-392.85 163.59,-427.54 189,-447 204.7,-459.02 227.47,-463.44 242.73,-465.07"/>
<polygon fill="midnightblue" stroke="midnightblue" points="143,-370.05 136.41,-361.75 136.39,-372.35 143,-370.05"/>
</g>
<!-- Node18 -->
<g id="node19" class="node">
<title>Node18</title>
<g id="a_node19"><a xlink:href="class_headers_tests.html" target="_top" xlink:title="Header test class used to test the functionality of header.c using a string collection built from the...">
<polygon fill="none" stroke="black" points="219,-418.5 219,-437.5 301,-437.5 301,-418.5 219,-418.5"/>
<text text-anchor="middle" x="260" y="-425.5" font-family="Helvetica,sans-Serif" font-size="10.00">HeadersTests</text>
</a>
</g>
</g>
<!-- Node0&#45;&gt;Node18 -->
<g id="edge18" class="edge">
<title>Node0&#45;&gt;Node18</title>
<path fill="none" stroke="midnightblue" d="M146.44,-369.66C156.65,-382.37 171.98,-398.98 189,-409 198.01,-414.3 208.53,-418.16 218.64,-420.96"/>
<polygon fill="midnightblue" stroke="midnightblue" points="149.11,-367.39 140.23,-361.61 143.57,-371.66 149.11,-367.39"/>
</g>
<!-- Node19 -->
<g id="node20" class="node">
<title>Node19</title>
<g id="a_node20"><a xlink:href="class_json_tests.html" target="_top" xlink:title=" ">
<polygon fill="none" stroke="black" points="229,-380.5 229,-399.5 291,-399.5 291,-380.5 229,-380.5"/>
<text text-anchor="middle" x="260" y="-387.5" font-family="Helvetica,sans-Serif" font-size="10.00">JsonTests</text>
</a>
</g>
</g>
<!-- Node0&#45;&gt;Node19 -->
<g id="edge19" class="edge">
<title>Node0&#45;&gt;Node19</title>
<path fill="none" stroke="midnightblue" d="M162.65,-362.37C171.11,-365.28 180.39,-368.36 189,-371 202,-374.99 216.49,-378.99 228.9,-382.29"/>
<polygon fill="midnightblue" stroke="midnightblue" points="163.77,-359.06 153.18,-359.08 161.47,-365.67 163.77,-359.06"/>
</g>
<!-- Node20 -->
<g id="node21" class="node">
<title>Node20</title>
<g id="a_node21"><a xlink:href="class_memory_leak.html" target="_top" xlink:title="Memory Leak test class used to verify that the Base.cpp memory leak check functionality works as expe...">
<polygon fill="none" stroke="black" points="220,-342.5 220,-361.5 300,-361.5 300,-342.5 220,-342.5"/>
<text text-anchor="middle" x="260" y="-349.5" font-family="Helvetica,sans-Serif" font-size="10.00">MemoryLeak</text>
</a>
</g>
</g>
<!-- Node0&#45;&gt;Node20 -->
<g id="edge20" class="edge">
<title>Node0&#45;&gt;Node20</title>
<path fill="none" stroke="midnightblue" d="M163.49,-352C180.36,-352 201.63,-352 219.81,-352"/>
<polygon fill="midnightblue" stroke="midnightblue" points="163.11,-348.5 153.11,-352 163.11,-355.5 163.11,-348.5"/>
</g>
<!-- Node21 -->
<g id="node22" class="node">
<title>Node21</title>
<g id="a_node22"><a xlink:href="class_pool.html" target="_top" xlink:title="File test class used to test the functionality of file.c.">
<polygon fill="none" stroke="black" points="241,-304.5 241,-323.5 279,-323.5 279,-304.5 241,-304.5"/>
<text text-anchor="middle" x="260" y="-311.5" font-family="Helvetica,sans-Serif" font-size="10.00">Pool</text>
</a>
</g>
</g>
<!-- Node0&#45;&gt;Node21 -->
<g id="edge21" class="edge">
<title>Node0&#45;&gt;Node21</title>
<path fill="none" stroke="midnightblue" d="M162.65,-341.63C171.11,-338.72 180.39,-335.64 189,-333 206.46,-327.65 226.6,-322.26 240.78,-318.6"/>
<polygon fill="midnightblue" stroke="midnightblue" points="161.47,-338.33 153.18,-344.92 163.77,-344.94 161.47,-338.33"/>
</g>
<!-- Node22 -->
<g id="node23" class="node">
<title>Node22</title>
<g id="a_node23"><a xlink:href="class_profile_tests.html" target="_top" xlink:title=" ">
<polygon fill="none" stroke="black" points="224,-266.5 224,-285.5 296,-285.5 296,-266.5 224,-266.5"/>
<text text-anchor="middle" x="260" y="-273.5" font-family="Helvetica,sans-Serif" font-size="10.00">ProfileTests</text>
</a>
</g>
</g>
<!-- Node0&#45;&gt;Node22 -->
<g id="edge22" class="edge">
<title>Node0&#45;&gt;Node22</title>
<path fill="none" stroke="midnightblue" d="M146.44,-334.34C156.65,-321.63 171.98,-305.02 189,-295 199.53,-288.81 212.13,-284.58 223.72,-281.71"/>
<polygon fill="midnightblue" stroke="midnightblue" points="143.57,-332.34 140.23,-342.39 149.11,-336.61 143.57,-332.34"/>
</g>
<!-- Node23 -->
<g id="node24" class="node">
<title>Node23</title>
<g id="a_node24"><a xlink:href="class_properties.html" target="_top" xlink:title="Properties test class used to test the functionality of properties.c.">
<polygon fill="none" stroke="black" points="227,-228.5 227,-247.5 293,-247.5 293,-228.5 227,-228.5"/>
<text text-anchor="middle" x="260" y="-235.5" font-family="Helvetica,sans-Serif" font-size="10.00">Properties</text>
</a>
</g>
</g>
<!-- Node0&#45;&gt;Node23 -->
<g id="edge23" class="edge">
<title>Node0&#45;&gt;Node23</title>
<path fill="none" stroke="midnightblue" d="M139.69,-332.79C147.66,-311.15 163.59,-276.46 189,-257 199.8,-248.73 213.94,-244.06 226.69,-241.42"/>
<polygon fill="midnightblue" stroke="midnightblue" points="136.39,-331.65 136.41,-342.25 143,-333.95 136.39,-331.65"/>
</g>
<!-- Node24 -->
<g id="node25" class="node">
<title>Node24</title>
<g id="a_node25"><a xlink:href="class_property_tests.html" target="_top" xlink:title=" ">
<polygon fill="none" stroke="black" points="218.5,-190.5 218.5,-209.5 301.5,-209.5 301.5,-190.5 218.5,-190.5"/>
<text text-anchor="middle" x="260" y="-197.5" font-family="Helvetica,sans-Serif" font-size="10.00">PropertyTests</text>
</a>
</g>
</g>
<!-- Node0&#45;&gt;Node24 -->
<g id="edge24" class="edge">
<title>Node0&#45;&gt;Node24</title>
<path fill="none" stroke="midnightblue" d="M136.24,-332.12C141.31,-302.97 154.97,-248.87 189,-219 197.14,-211.86 207.71,-207.37 218.16,-204.56"/>
<polygon fill="midnightblue" stroke="midnightblue" points="132.73,-331.87 134.64,-342.3 139.65,-332.96 132.73,-331.87"/>
</g>
<!-- Node25 -->
<g id="node26" class="node">
<title>Node25</title>
<g id="a_node26"><a xlink:href="class_resource_manager.html" target="_top" xlink:title=" ">
<polygon fill="none" stroke="black" points="208,-152.5 208,-171.5 312,-171.5 312,-152.5 208,-152.5"/>
<text text-anchor="middle" x="260" y="-159.5" font-family="Helvetica,sans-Serif" font-size="10.00">ResourceManager</text>
</a>
</g>
</g>
<!-- Node0&#45;&gt;Node25 -->
<g id="edge25" class="edge">
<title>Node0&#45;&gt;Node25</title>
<path fill="none" stroke="midnightblue" d="M134.09,-332.14C136.24,-296.59 145.97,-221.98 189,-181 194.38,-175.88 201,-172.1 208,-169.33"/>
<polygon fill="midnightblue" stroke="midnightblue" points="130.59,-332.07 133.62,-342.22 137.58,-332.39 130.59,-332.07"/>
</g>
<!-- Node26 -->
<g id="node27" class="node">
<title>Node26</title>
<g id="a_node27"><a xlink:href="class_stored_binary_values.html" target="_top" xlink:title=" ">
<polygon fill="none" stroke="black" points="204,-114.5 204,-133.5 316,-133.5 316,-114.5 204,-114.5"/>
<text text-anchor="middle" x="260" y="-121.5" font-family="Helvetica,sans-Serif" font-size="10.00">StoredBinaryValues</text>
</a>
</g>
</g>
<!-- Node0&#45;&gt;Node26 -->
<g id="edge26" class="edge">
<title>Node0&#45;&gt;Node26</title>
<path fill="none" stroke="midnightblue" d="M132.68,-332.44C132.07,-291.36 136.73,-195.56 189,-143 193.26,-138.71 198.39,-135.37 203.9,-132.76"/>
<polygon fill="midnightblue" stroke="midnightblue" points="129.18,-332.6 132.95,-342.5 136.18,-332.41 129.18,-332.6"/>
</g>
<!-- Node27 -->
<g id="node28" class="node">
<title>Node27</title>
<g id="a_node28"><a xlink:href="class_strings.html" target="_top" xlink:title=" ">
<polygon fill="none" stroke="black" points="235,-76.5 235,-95.5 285,-95.5 285,-76.5 235,-76.5"/>
<text text-anchor="middle" x="260" y="-83.5" font-family="Helvetica,sans-Serif" font-size="10.00">Strings</text>
</a>
</g>
</g>
<!-- Node0&#45;&gt;Node27 -->
<g id="edge27" class="edge">
<title>Node0&#45;&gt;Node27</title>
<path fill="none" stroke="midnightblue" d="M135.34,-332.15C140.63,-279.47 157.51,-137.91 189,-105 200.75,-92.72 219.58,-88.11 234.75,-86.49"/>
<polygon fill="midnightblue" stroke="midnightblue" points="131.85,-331.94 134.37,-342.23 138.81,-332.62 131.85,-331.94"/>
</g>
<!-- Node28 -->
<g id="node29" class="node">
<title>Node28</title>
<g id="a_node29"><a xlink:href="class_threading.html" target="_top" xlink:title=" ">
<polygon fill="none" stroke="black" points="227.5,-38.5 227.5,-57.5 292.5,-57.5 292.5,-38.5 227.5,-38.5"/>
<text text-anchor="middle" x="260" y="-45.5" font-family="Helvetica,sans-Serif" font-size="10.00">Threading</text>
</a>
</g>
</g>
<!-- Node0&#45;&gt;Node28 -->
<g id="edge28" class="edge">
<title>Node0&#45;&gt;Node28</title>
<path fill="none" stroke="midnightblue" d="M134.69,-332.24C138.57,-274.2 152.8,-105.94 189,-67 198.78,-56.49 213.73,-51.57 227.3,-49.35"/>
<polygon fill="midnightblue" stroke="midnightblue" points="131.19,-332.1 134.05,-342.3 138.18,-332.55 131.19,-332.1"/>
</g>
<!-- Node29 -->
<g id="node30" class="node">
<title>Node29</title>
<g id="a_node30"><a xlink:href="class_value_tests.html" target="_top" xlink:title="Value test class used to test the functionality of Value.cpp.">
<polygon fill="none" stroke="black" points="226,-0.5 226,-19.5 294,-19.5 294,-0.5 226,-0.5"/>
<text text-anchor="middle" x="260" y="-7.5" font-family="Helvetica,sans-Serif" font-size="10.00">ValueTests</text>
</a>
</g>
</g>
<!-- Node0&#45;&gt;Node29 -->
<g id="edge29" class="edge">
<title>Node0&#45;&gt;Node29</title>
<path fill="none" stroke="midnightblue" d="M134.19,-332.14C136.81,-268.94 148.1,-73.98 189,-29 198.32,-18.75 212.55,-13.8 225.76,-11.49"/>
<polygon fill="midnightblue" stroke="midnightblue" points="130.69,-332.22 133.8,-342.34 137.68,-332.49 130.69,-332.22"/>
</g>
<!-- Node1 -->
<g id="node2" class="node">
<title>Node1</title>
<g id="a_node2"><a xlink:title=" ">
<polygon fill="none" stroke="#bfbfbf" points="0,-342.5 0,-361.5 76,-361.5 76,-342.5 0,-342.5"/>
<text text-anchor="middle" x="38" y="-349.5" font-family="Helvetica,sans-Serif" font-size="10.00">testing::Test</text>
</a>
</g>
</g>
<!-- Node1&#45;&gt;Node0 -->
<g id="edge1" class="edge">
<title>Node1&#45;&gt;Node0</title>
<path fill="none" stroke="midnightblue" d="M86.28,-352C95.35,-352 104.36,-352 111.93,-352"/>
<polygon fill="midnightblue" stroke="midnightblue" points="86.09,-348.5 76.09,-352 86.09,-355.5 86.09,-348.5"/>
</g>
<!-- Node4 -->
<g id="node5" class="node">
<title>Node4</title>
<g id="a_node5"><a xlink:href="class_collection_test_file.html" target="_top" xlink:title=" ">
<polygon fill="none" stroke="black" points="387.5,-679.5 387.5,-698.5 489.5,-698.5 489.5,-679.5 387.5,-679.5"/>
<text text-anchor="middle" x="438.5" y="-686.5" font-family="Helvetica,sans-Serif" font-size="10.00">CollectionTestFile</text>
</a>
</g>
</g>
<!-- Node3&#45;&gt;Node4 -->
<g id="edge4" class="edge">
<title>Node3&#45;&gt;Node4</title>
<path fill="none" stroke="midnightblue" d="M312.97,-674.18C336.51,-676.98 364.2,-680.28 387.5,-683.05"/>
<polygon fill="midnightblue" stroke="midnightblue" points="313.17,-670.68 302.83,-672.98 312.34,-677.63 313.17,-670.68"/>
</g>
<!-- Node7 -->
<g id="node8" class="node">
<title>Node7</title>
<g id="a_node8"><a xlink:href="class_collection_test_memory.html" target="_top" xlink:title=" ">
<polygon fill="none" stroke="black" points="376,-641.5 376,-660.5 501,-660.5 501,-641.5 376,-641.5"/>
<text text-anchor="middle" x="438.5" y="-648.5" font-family="Helvetica,sans-Serif" font-size="10.00">CollectionTestMemory</text>
</a>
</g>
</g>
<!-- Node3&#45;&gt;Node7 -->
<g id="edge7" class="edge">
<title>Node3&#45;&gt;Node7</title>
<path fill="none" stroke="midnightblue" d="M312.87,-663C332.63,-661.1 355.34,-658.91 375.91,-656.93"/>
<polygon fill="midnightblue" stroke="midnightblue" points="312.45,-659.53 302.83,-663.97 313.12,-666.5 312.45,-659.53"/>
</g>
<!-- Node5 -->
<g id="node6" class="node">
<title>Node5</title>
<g id="a_node6"><a xlink:href="class_collection_test_file_fixed.html" target="_top" xlink:title=" ">
<polygon fill="none" stroke="black" points="564.5,-717.5 564.5,-736.5 692.5,-736.5 692.5,-717.5 564.5,-717.5"/>
<text text-anchor="middle" x="628.5" y="-724.5" font-family="Helvetica,sans-Serif" font-size="10.00">CollectionTestFileFixed</text>
</a>
</g>
</g>
<!-- Node4&#45;&gt;Node5 -->
<g id="edge5" class="edge">
<title>Node4&#45;&gt;Node5</title>
<path fill="none" stroke="midnightblue" d="M496.94,-700.61C523.67,-706.01 555.09,-712.36 580.4,-717.48"/>
<polygon fill="midnightblue" stroke="midnightblue" points="497.44,-697.14 486.94,-698.59 496.05,-704 497.44,-697.14"/>
</g>
<!-- Node6 -->
<g id="node7" class="node">
<title>Node6</title>
<g id="a_node7"><a xlink:href="class_collection_test_file_variable.html" target="_top" xlink:title=" ">
<polygon fill="none" stroke="black" points="557.5,-679.5 557.5,-698.5 699.5,-698.5 699.5,-679.5 557.5,-679.5"/>
<text text-anchor="middle" x="628.5" y="-686.5" font-family="Helvetica,sans-Serif" font-size="10.00">CollectionTestFileVariable</text>
</a>
</g>
</g>
<!-- Node4&#45;&gt;Node6 -->
<g id="edge6" class="edge">
<title>Node4&#45;&gt;Node6</title>
<path fill="none" stroke="midnightblue" d="M500.07,-689C518.27,-689 538.41,-689 557.19,-689"/>
<polygon fill="midnightblue" stroke="midnightblue" points="499.88,-685.5 489.88,-689 499.88,-692.5 499.88,-685.5"/>
</g>
<!-- Node8 -->
<g id="node9" class="node">
<title>Node8</title>
<g id="a_node9"><a xlink:href="class_collection_test_memory_fixed.html" target="_top" xlink:title=" ">
<polygon fill="none" stroke="black" points="553,-641.5 553,-660.5 704,-660.5 704,-641.5 553,-641.5"/>
<text text-anchor="middle" x="628.5" y="-648.5" font-family="Helvetica,sans-Serif" font-size="10.00">CollectionTestMemoryFixed</text>
</a>
</g>
</g>
<!-- Node7&#45;&gt;Node8 -->
<g id="edge8" class="edge">
<title>Node7&#45;&gt;Node8</title>
<path fill="none" stroke="midnightblue" d="M511.28,-651C524.83,-651 539.04,-651 552.68,-651"/>
<polygon fill="midnightblue" stroke="midnightblue" points="511.06,-647.5 501.06,-651 511.06,-654.5 511.06,-647.5"/>
</g>
<!-- Node9 -->
<g id="node10" class="node">
<title>Node9</title>
<g id="a_node10"><a xlink:href="class_collection_test_memory_variable.html" target="_top" xlink:title=" ">
<polygon fill="none" stroke="black" points="546,-603.5 546,-622.5 711,-622.5 711,-603.5 546,-603.5"/>
<text text-anchor="middle" x="628.5" y="-610.5" font-family="Helvetica,sans-Serif" font-size="10.00">CollectionTestMemoryVariable</text>
</a>
</g>
</g>
<!-- Node7&#45;&gt;Node9 -->
<g id="edge9" class="edge">
<title>Node7&#45;&gt;Node9</title>
<path fill="none" stroke="midnightblue" d="M496.94,-639.39C523.67,-633.99 555.09,-627.64 580.4,-622.52"/>
<polygon fill="midnightblue" stroke="midnightblue" points="496.05,-636 486.94,-641.41 497.44,-642.86 496.05,-636"/>
</g>
<!-- Node13 -->
<g id="node14" class="node">
<title>Node13</title>
<g id="a_node14"><a xlink:href="class_evidence_with_headers_test___multiple_headers.html" target="_top" xlink:title=" ">
<polygon fill="none" stroke="black" points="367,-576 367,-606 510,-606 510,-576 367,-576"/>
<text text-anchor="start" x="375" y="-594" font-family="Helvetica,sans-Serif" font-size="10.00">EvidenceWithHeadersTest</text>
<text text-anchor="middle" x="438.5" y="-583" font-family="Helvetica,sans-Serif" font-size="10.00">_MultipleHeaders</text>
</a>
</g>
</g>
<!-- Node12&#45;&gt;Node13 -->
<g id="edge13" class="edge">
<title>Node12&#45;&gt;Node13</title>
<path fill="none" stroke="midnightblue" d="M300.35,-552.61C310.35,-555.33 321.08,-558.26 331,-561 348.4,-565.81 367.39,-571.14 384.44,-575.95"/>
<polygon fill="midnightblue" stroke="midnightblue" points="301.22,-549.22 290.65,-549.98 299.39,-555.98 301.22,-549.22"/>
</g>
<!-- Node14 -->
<g id="node15" class="node">
<title>Node14</title>
<g id="a_node15"><a xlink:href="class_evidence_with_headers_test___no_header.html" target="_top" xlink:title=" ">
<polygon fill="none" stroke="black" points="367,-527 367,-557 510,-557 510,-527 367,-527"/>
<text text-anchor="start" x="375" y="-545" font-family="Helvetica,sans-Serif" font-size="10.00">EvidenceWithHeadersTest</text>
<text text-anchor="middle" x="438.5" y="-534" font-family="Helvetica,sans-Serif" font-size="10.00">_NoHeader</text>
</a>
</g>
</g>
<!-- Node12&#45;&gt;Node14 -->
<g id="edge14" class="edge">
<title>Node12&#45;&gt;Node14</title>
<path fill="none" stroke="midnightblue" d="M300.57,-542C320.06,-542 344.17,-542 366.69,-542"/>
<polygon fill="midnightblue" stroke="midnightblue" points="300.54,-538.5 290.54,-542 300.54,-545.5 300.54,-538.5"/>
</g>
<!-- Node15 -->
<g id="node16" class="node">
<title>Node15</title>
<g id="a_node16"><a xlink:href="class_evidence_with_headers_test___single_header.html" target="_top" xlink:title=" ">
<polygon fill="none" stroke="black" points="367,-478 367,-508 510,-508 510,-478 367,-478"/>
<text text-anchor="start" x="375" y="-496" font-family="Helvetica,sans-Serif" font-size="10.00">EvidenceWithHeadersTest</text>
<text text-anchor="middle" x="438.5" y="-485" font-family="Helvetica,sans-Serif" font-size="10.00">_SingleHeader</text>
</a>
</g>
</g>
<!-- Node12&#45;&gt;Node15 -->
<g id="edge15" class="edge">
<title>Node12&#45;&gt;Node15</title>
<path fill="none" stroke="midnightblue" d="M300.35,-531.39C310.35,-528.67 321.08,-525.74 331,-523 348.4,-518.19 367.39,-512.86 384.44,-508.05"/>
<polygon fill="midnightblue" stroke="midnightblue" points="299.39,-528.02 290.65,-534.02 301.22,-534.78 299.39,-528.02"/>
</g>
</g>
</svg>
