<?xml version="1.0" encoding="UTF-8" standalone="no"?>
<!DOCTYPE svg PUBLIC "-//W3C//DTD SVG 1.1//EN"
 "http://www.w3.org/Graphics/SVG/1.1/DTD/svg11.dtd">
<!-- Generated by graphviz version 2.43.0 (0)
 -->
<!-- Title: FiftyoneDegrees::Common::Collection&lt; K, V &gt; Pages: 1 -->
<svg width="1060pt" height="306pt"
 viewBox="0.00 0.00 1060.00 305.50" xmlns="http://www.w3.org/2000/svg" xmlns:xlink="http://www.w3.org/1999/xlink">
<g id="graph0" class="graph" transform="scale(1 1) rotate(0) translate(4 301.5)">
<title>FiftyoneDegrees::Common::Collection&lt; K, V &gt;</title>
<!-- Node0 -->
<g id="node1" class="node">
<title>Node0</title>
<g id="a_node1"><a xlink:title="A group of items accessible by index or key.">
<polygon fill="#bfbfbf" stroke="black" points="0,-95 0,-125 146,-125 146,-95 0,-95"/>
<text text-anchor="start" x="8" y="-113" font-family="Helvetica,sans-Serif" font-size="10.00">FiftyoneDegrees::Common</text>
<text text-anchor="middle" x="73" y="-102" font-family="Helvetica,sans-Serif" font-size="10.00">::Collection&lt; K, V &gt;</text>
</a>
</g>
</g>
<!-- Node1 -->
<g id="node2" class="node">
<title>Node1</title>
<g id="a_node2"><a xlink:href="class_fiftyone_degrees_1_1_common_1_1_collection.html" target="_top" xlink:title=" ">
<polygon fill="none" stroke="black" points="356.5,-199.5 356.5,-240.5 502.5,-240.5 502.5,-199.5 356.5,-199.5"/>
<text text-anchor="start" x="364.5" y="-228.5" font-family="Helvetica,sans-Serif" font-size="10.00">FiftyoneDegrees::Common</text>
<text text-anchor="start" x="364.5" y="-217.5" font-family="Helvetica,sans-Serif" font-size="10.00">::Collection&lt; string,</text>
<text text-anchor="middle" x="429.5" y="-206.5" font-family="Helvetica,sans-Serif" font-size="10.00"> PropertyMetaData &gt;</text>
</a>
</g>
</g>
<!-- Node0&#45;&gt;Node1 -->
<g id="edge1" class="edge">
<title>Node0&#45;&gt;Node1</title>
<path fill="none" stroke="orange" stroke-dasharray="5,2" d="M119.94,-128.83C133.98,-134.32 149.54,-140.15 164,-145 228.37,-166.59 302.87,-187.34 356.37,-201.52"/>
<polygon fill="orange" stroke="orange" points="121.08,-125.52 110.5,-125.1 118.51,-132.03 121.08,-125.52"/>
<text text-anchor="middle" x="243" y="-194" font-family="Helvetica,sans-Serif" font-size="10.00"> &lt; string, PropertyMetaData &gt;</text>
</g>
<!-- Node5 -->
<g id="node6" class="node">
<title>Node5</title>
<g id="a_node6"><a xlink:href="class_fiftyone_degrees_1_1_common_1_1_collection.html" target="_top" xlink:title=" ">
<polygon fill="none" stroke="black" points="346,-120.5 346,-161.5 513,-161.5 513,-120.5 346,-120.5"/>
<text text-anchor="start" x="354" y="-149.5" font-family="Helvetica,sans-Serif" font-size="10.00">FiftyoneDegrees::Common</text>
<text text-anchor="start" x="354" y="-138.5" font-family="Helvetica,sans-Serif" font-size="10.00">::Collection&lt; byte, Component</text>
<text text-anchor="middle" x="429.5" y="-127.5" font-family="Helvetica,sans-Serif" font-size="10.00">MetaData &gt;</text>
</a>
</g>
</g>
<!-- Node0&#45;&gt;Node5 -->
<g id="edge5" class="edge">
<title>Node0&#45;&gt;Node5</title>
<path fill="none" stroke="orange" stroke-dasharray="5,2" d="M156.22,-117.19C213.21,-122.17 288.8,-128.78 345.88,-133.77"/>
<polygon fill="orange" stroke="orange" points="156.43,-113.7 146.17,-116.31 155.82,-120.67 156.43,-113.7"/>
<text text-anchor="middle" x="243" y="-133" font-family="Helvetica,sans-Serif" font-size="10.00"> &lt; byte, ComponentMetaData &gt;</text>
</g>
<!-- Node7 -->
<g id="node8" class="node">
<title>Node7</title>
<g id="a_node8"><a xlink:href="class_fiftyone_degrees_1_1_common_1_1_collection.html" target="_top" xlink:title=" ">
<polygon fill="none" stroke="black" points="340,-60.5 340,-101.5 519,-101.5 519,-60.5 340,-60.5"/>
<text text-anchor="start" x="348" y="-89.5" font-family="Helvetica,sans-Serif" font-size="10.00">FiftyoneDegrees::Common</text>
<text text-anchor="start" x="348" y="-78.5" font-family="Helvetica,sans-Serif" font-size="10.00">::Collection&lt; ValueMetaDataKey,</text>
<text text-anchor="middle" x="429.5" y="-67.5" font-family="Helvetica,sans-Serif" font-size="10.00"> ValueMetaData &gt;</text>
</a>
</g>
</g>
<!-- Node0&#45;&gt;Node7 -->
<g id="edge7" class="edge">
<title>Node0&#45;&gt;Node7</title>
<path fill="none" stroke="orange" stroke-dasharray="5,2" d="M156.24,-93.98C158.85,-93.63 161.44,-93.3 164,-93 222.33,-86.2 288.31,-83.2 339.78,-81.9"/>
<polygon fill="orange" stroke="orange" points="155.47,-90.55 146.07,-95.46 156.47,-97.48 155.47,-90.55"/>
<text text-anchor="start" x="187.5" y="-107" font-family="Helvetica,sans-Serif" font-size="10.00"> &lt; ValueMetaDataKey,</text>
<text text-anchor="middle" x="243" y="-96" font-family="Helvetica,sans-Serif" font-size="10.00"> ValueMetaData &gt;</text>
</g>
<!-- Node12 -->
<g id="node13" class="node">
<title>Node12</title>
<g id="a_node13"><a xlink:href="class_fiftyone_degrees_1_1_common_1_1_collection.html" target="_top" xlink:title=" ">
<polygon fill="none" stroke="black" points="356.5,-0.5 356.5,-41.5 502.5,-41.5 502.5,-0.5 356.5,-0.5"/>
<text text-anchor="start" x="364.5" y="-29.5" font-family="Helvetica,sans-Serif" font-size="10.00">FiftyoneDegrees::Common</text>
<text text-anchor="start" x="364.5" y="-18.5" font-family="Helvetica,sans-Serif" font-size="10.00">::Collection&lt; uint32_t,</text>
<text text-anchor="middle" x="429.5" y="-7.5" font-family="Helvetica,sans-Serif" font-size="10.00"> ProfileMetaData &gt;</text>
</a>
</g>
</g>
<!-- Node0&#45;&gt;Node12 -->
<g id="edge12" class="edge">
<title>Node0&#45;&gt;Node12</title>
<path fill="none" stroke="orange" stroke-dasharray="5,2" d="M109.85,-90.09C125.98,-81.87 145.52,-72.9 164,-67 227.38,-46.77 302.32,-34.8 356.22,-28.16"/>
<polygon fill="orange" stroke="orange" points="108.03,-87.09 100.78,-94.82 111.26,-93.3 108.03,-87.09"/>
<text text-anchor="middle" x="243" y="-70" font-family="Helvetica,sans-Serif" font-size="10.00"> &lt; uint32_t, ProfileMetaData &gt;</text>
</g>
<!-- Node2 -->
<g id="node3" class="node">
<title>Node2</title>
<g id="a_node3"><a xlink:href="class_fiftyone_degrees_1_1_ip_intelligence_1_1_property_meta_data_collection_for_component_ipi.html" target="_top" xlink:title="A collection of property meta data relating to a component contained in an IP Intelligence engine.">
<polygon fill="none" stroke="black" points="556,-267 556,-297 800,-297 800,-267 556,-267"/>
<text text-anchor="start" x="564" y="-285" font-family="Helvetica,sans-Serif" font-size="10.00">FiftyoneDegrees::IpIntelligence</text>
<text text-anchor="middle" x="678" y="-274" font-family="Helvetica,sans-Serif" font-size="10.00">::PropertyMetaDataCollectionForComponentIpi</text>
</a>
</g>
</g>
<!-- Node1&#45;&gt;Node2 -->
<g id="edge2" class="edge">
<title>Node1&#45;&gt;Node2</title>
<path fill="none" stroke="midnightblue" d="M503.89,-243.54C520.91,-248.63 539.01,-253.75 556,-258 568.67,-261.17 582.18,-264.19 595.4,-266.95"/>
<polygon fill="midnightblue" stroke="midnightblue" points="504.59,-240.1 494.01,-240.55 502.57,-246.8 504.59,-240.1"/>
</g>
<!-- Node3 -->
<g id="node4" class="node">
<title>Node3</title>
<g id="a_node4"><a xlink:href="class_fiftyone_degrees_1_1_ip_intelligence_1_1_property_meta_data_collection_for_property_ipi.html" target="_top" xlink:title=" ">
<polygon fill="none" stroke="black" points="563.5,-218 563.5,-248 792.5,-248 792.5,-218 563.5,-218"/>
<text text-anchor="start" x="571.5" y="-236" font-family="Helvetica,sans-Serif" font-size="10.00">FiftyoneDegrees::IpIntelligence</text>
<text text-anchor="middle" x="678" y="-225" font-family="Helvetica,sans-Serif" font-size="10.00">::PropertyMetaDataCollectionForPropertyIpi</text>
</a>
</g>
</g>
<!-- Node1&#45;&gt;Node3 -->
<g id="edge3" class="edge">
<title>Node1&#45;&gt;Node3</title>
<path fill="none" stroke="midnightblue" d="M513.23,-224.36C529.37,-225.21 546.54,-226.12 563.47,-227.01"/>
<polygon fill="midnightblue" stroke="midnightblue" points="512.96,-220.84 502.79,-223.81 512.59,-227.83 512.96,-220.84"/>
</g>
<!-- Node4 -->
<g id="node5" class="node">
<title>Node4</title>
<g id="a_node5"><a xlink:href="class_fiftyone_degrees_1_1_ip_intelligence_1_1_property_meta_data_collection_ipi.html" target="_top" xlink:title="A collection of all property meta data contained in an IP Intelligence engine.">
<polygon fill="none" stroke="black" points="591.5,-169 591.5,-199 764.5,-199 764.5,-169 591.5,-169"/>
<text text-anchor="start" x="599.5" y="-187" font-family="Helvetica,sans-Serif" font-size="10.00">FiftyoneDegrees::IpIntelligence</text>
<text text-anchor="middle" x="678" y="-176" font-family="Helvetica,sans-Serif" font-size="10.00">::PropertyMetaDataCollectionIpi</text>
</a>
</g>
</g>
<!-- Node1&#45;&gt;Node4 -->
<g id="edge4" class="edge">
<title>Node1&#45;&gt;Node4</title>
<path fill="none" stroke="midnightblue" d="M512.69,-208C537.92,-204.31 565.75,-200.25 591.21,-196.53"/>
<polygon fill="midnightblue" stroke="midnightblue" points="512.18,-204.53 502.79,-209.44 513.19,-211.46 512.18,-204.53"/>
</g>
<!-- Node6 -->
<g id="node7" class="node">
<title>Node6</title>
<g id="a_node7"><a xlink:href="class_fiftyone_degrees_1_1_ip_intelligence_1_1_component_meta_data_collection_ipi.html" target="_top" xlink:title="A collection of component meta data contained in a IP Intelligence engine.">
<polygon fill="none" stroke="black" points="584,-120 584,-150 772,-150 772,-120 584,-120"/>
<text text-anchor="start" x="592" y="-138" font-family="Helvetica,sans-Serif" font-size="10.00">FiftyoneDegrees::IpIntelligence</text>
<text text-anchor="middle" x="678" y="-127" font-family="Helvetica,sans-Serif" font-size="10.00">::ComponentMetaDataCollectionIpi</text>
</a>
</g>
</g>
<!-- Node5&#45;&gt;Node6 -->
<g id="edge6" class="edge">
<title>Node5&#45;&gt;Node6</title>
<path fill="none" stroke="midnightblue" d="M523.48,-138.74C543.23,-138.26 564.08,-137.75 583.83,-137.27"/>
<polygon fill="midnightblue" stroke="midnightblue" points="523.18,-135.24 513.27,-138.99 523.35,-142.24 523.18,-135.24"/>
</g>
<!-- Node8 -->
<g id="node9" class="node">
<title>Node8</title>
<g id="a_node9"><a xlink:href="class_fiftyone_degrees_1_1_ip_intelligence_1_1_value_meta_data_collection_base_ipi.html" target="_top" xlink:title="A collection of all value meta data contained in an IP Intelligence engine.">
<polygon fill="none" stroke="black" points="587,-66 587,-96 769,-96 769,-66 587,-66"/>
<text text-anchor="start" x="595" y="-84" font-family="Helvetica,sans-Serif" font-size="10.00">FiftyoneDegrees::IpIntelligence</text>
<text text-anchor="middle" x="678" y="-73" font-family="Helvetica,sans-Serif" font-size="10.00">::ValueMetaDataCollectionBaseIpi</text>
</a>
</g>
</g>
<!-- Node7&#45;&gt;Node8 -->
<g id="edge8" class="edge">
<title>Node7&#45;&gt;Node8</title>
<path fill="none" stroke="midnightblue" d="M529.27,-81C548.23,-81 567.98,-81 586.66,-81"/>
<polygon fill="midnightblue" stroke="midnightblue" points="529.14,-77.5 519.14,-81 529.14,-84.5 529.14,-77.5"/>
</g>
<!-- Node9 -->
<g id="node10" class="node">
<title>Node9</title>
<g id="a_node10"><a xlink:href="class_fiftyone_degrees_1_1_ip_intelligence_1_1_value_meta_data_collection_for_profile_ipi.html" target="_top" xlink:title="A collection of value meta data relating to a profile contained in an IP Intelligence engine.">
<polygon fill="none" stroke="black" points="842.5,-115 842.5,-145 1046.5,-145 1046.5,-115 842.5,-115"/>
<text text-anchor="start" x="850.5" y="-133" font-family="Helvetica,sans-Serif" font-size="10.00">FiftyoneDegrees::IpIntelligence</text>
<text text-anchor="middle" x="944.5" y="-122" font-family="Helvetica,sans-Serif" font-size="10.00">::ValueMetaDataCollectionForProfileIpi</text>
</a>
</g>
</g>
<!-- Node8&#45;&gt;Node9 -->
<g id="edge9" class="edge">
<title>Node8&#45;&gt;Node9</title>
<path fill="none" stroke="midnightblue" d="M770.2,-97.89C800.19,-103.45 833.31,-109.59 862.5,-114.99"/>
<polygon fill="midnightblue" stroke="midnightblue" points="770.63,-94.41 760.16,-96.03 769.35,-101.3 770.63,-94.41"/>
</g>
<!-- Node10 -->
<g id="node11" class="node">
<title>Node10</title>
<g id="a_node11"><a xlink:href="class_fiftyone_degrees_1_1_ip_intelligence_1_1_value_meta_data_collection_for_property_ipi.html" target="_top" xlink:title="A collection of value meta data relating to a property contained in an IP Intelligence engine.">
<polygon fill="none" stroke="black" points="837,-66 837,-96 1052,-96 1052,-66 837,-66"/>
<text text-anchor="start" x="845" y="-84" font-family="Helvetica,sans-Serif" font-size="10.00">FiftyoneDegrees::IpIntelligence</text>
<text text-anchor="middle" x="944.5" y="-73" font-family="Helvetica,sans-Serif" font-size="10.00">::ValueMetaDataCollectionForPropertyIpi</text>
</a>
</g>
</g>
<!-- Node8&#45;&gt;Node10 -->
<g id="edge10" class="edge">
<title>Node8&#45;&gt;Node10</title>
<path fill="none" stroke="midnightblue" d="M779.31,-81C798.09,-81 817.78,-81 836.74,-81"/>
<polygon fill="midnightblue" stroke="midnightblue" points="779.29,-77.5 769.29,-81 779.29,-84.5 779.29,-77.5"/>
</g>
<!-- Node11 -->
<g id="node12" class="node">
<title>Node11</title>
<g id="a_node12"><a xlink:href="class_fiftyone_degrees_1_1_ip_intelligence_1_1_value_meta_data_collection_ipi.html" target="_top" xlink:title="A collection of all value meta data contained in a IP Intelligence engine.">
<polygon fill="none" stroke="black" points="860.5,-17 860.5,-47 1028.5,-47 1028.5,-17 860.5,-17"/>
<text text-anchor="start" x="868.5" y="-35" font-family="Helvetica,sans-Serif" font-size="10.00">FiftyoneDegrees::IpIntelligence</text>
<text text-anchor="middle" x="944.5" y="-24" font-family="Helvetica,sans-Serif" font-size="10.00">::ValueMetaDataCollectionIpi</text>
</a>
</g>
</g>
<!-- Node8&#45;&gt;Node11 -->
<g id="edge11" class="edge">
<title>Node8&#45;&gt;Node11</title>
<path fill="none" stroke="midnightblue" d="M770.2,-64.11C800.19,-58.55 833.31,-52.41 862.5,-47.01"/>
<polygon fill="midnightblue" stroke="midnightblue" points="769.35,-60.7 760.16,-65.97 770.63,-67.59 769.35,-60.7"/>
</g>
<!-- Node13 -->
<g id="node14" class="node">
<title>Node13</title>
<g id="a_node14"><a xlink:href="class_fiftyone_degrees_1_1_ip_intelligence_1_1_profile_meta_data_collection_ipi.html" target="_top" xlink:title="A collection of all profile meta data contained in an IP Intelligence engine.">
<polygon fill="none" stroke="black" points="594,-6 594,-36 762,-36 762,-6 594,-6"/>
<text text-anchor="start" x="602" y="-24" font-family="Helvetica,sans-Serif" font-size="10.00">FiftyoneDegrees::IpIntelligence</text>
<text text-anchor="middle" x="678" y="-13" font-family="Helvetica,sans-Serif" font-size="10.00">::ProfileMetaDataCollectionIpi</text>
</a>
</g>
</g>
<!-- Node12&#45;&gt;Node13 -->
<g id="edge13" class="edge">
<title>Node12&#45;&gt;Node13</title>
<path fill="none" stroke="midnightblue" d="M513,-21C539.03,-21 567.79,-21 593.86,-21"/>
<polygon fill="midnightblue" stroke="midnightblue" points="512.79,-17.5 502.79,-21 512.79,-24.5 512.79,-17.5"/>
</g>
</g>
</svg>
