<?xml version="1.0" encoding="UTF-8" standalone="no"?>
<!DOCTYPE svg PUBLIC "-//W3C//DTD SVG 1.1//EN"
 "http://www.w3.org/Graphics/SVG/1.1/DTD/svg11.dtd">
<!-- Generated by graphviz version 2.43.0 (0)
 -->
<!-- Title: FiftyoneDegrees::IpIntelligence::ValueMetaDataCollectionIpi Pages: 1 -->
<svg width="2773pt" height="910pt"
 viewBox="0.00 0.00 2773.00 909.50" xmlns="http://www.w3.org/2000/svg" xmlns:xlink="http://www.w3.org/1999/xlink">
<g id="graph0" class="graph" transform="scale(1 1) rotate(0) translate(4 905.5)">
<title>FiftyoneDegrees::IpIntelligence::ValueMetaDataCollectionIpi</title>
<!-- Node3 -->
<g id="node1" class="node">
<title>Node3</title>
<g id="a_node1"><a xlink:title="A collection of all value meta data contained in a IP Intelligence engine.">
<polygon fill="#bfbfbf" stroke="black" points="2597,-493.5 2597,-523.5 2765,-523.5 2765,-493.5 2597,-493.5"/>
<text text-anchor="start" x="2605" y="-511.5" font-family="Helvetica,sans-Serif" font-size="10.00">FiftyoneDegrees::IpIntelligence</text>
<text text-anchor="middle" x="2681" y="-500.5" font-family="Helvetica,sans-Serif" font-size="10.00">::ValueMetaDataCollectionIpi</text>
</a>
</g>
</g>
<!-- Node4 -->
<g id="node2" class="node">
<title>Node4</title>
<g id="a_node2"><a xlink:href="class_fiftyone_degrees_1_1_ip_intelligence_1_1_value_meta_data_collection_base_ipi.html" target="_top" xlink:title="A collection of all value meta data contained in an IP Intelligence engine.">
<polygon fill="none" stroke="black" points="2378,-493.5 2378,-523.5 2560,-523.5 2560,-493.5 2378,-493.5"/>
<text text-anchor="start" x="2386" y="-511.5" font-family="Helvetica,sans-Serif" font-size="10.00">FiftyoneDegrees::IpIntelligence</text>
<text text-anchor="middle" x="2469" y="-500.5" font-family="Helvetica,sans-Serif" font-size="10.00">::ValueMetaDataCollectionBaseIpi</text>
</a>
</g>
</g>
<!-- Node4&#45;&gt;Node3 -->
<g id="edge1" class="edge">
<title>Node4&#45;&gt;Node3</title>
<path fill="none" stroke="midnightblue" d="M2570.55,-508.5C2579.33,-508.5 2588.15,-508.5 2596.77,-508.5"/>
<polygon fill="midnightblue" stroke="midnightblue" points="2570.28,-505 2560.28,-508.5 2570.28,-512 2570.28,-505"/>
</g>
<!-- Node5 -->
<g id="node3" class="node">
<title>Node5</title>
<g id="a_node3"><a xlink:href="class_fiftyone_degrees_1_1_common_1_1_collection.html" target="_top" xlink:title="A group of items accessible by index or key.">
<polygon fill="none" stroke="black" points="2122,-512 2122,-553 2301,-553 2301,-512 2122,-512"/>
<text text-anchor="start" x="2130" y="-541" font-family="Helvetica,sans-Serif" font-size="10.00">FiftyoneDegrees::Common</text>
<text text-anchor="start" x="2130" y="-530" font-family="Helvetica,sans-Serif" font-size="10.00">::Collection&lt; ValueMetaDataKey,</text>
<text text-anchor="middle" x="2211.5" y="-519" font-family="Helvetica,sans-Serif" font-size="10.00"> ValueMetaData &gt;</text>
</a>
</g>
</g>
<!-- Node5&#45;&gt;Node4 -->
<g id="edge2" class="edge">
<title>Node5&#45;&gt;Node4</title>
<path fill="none" stroke="midnightblue" d="M2311.13,-523.24C2333.06,-521.18 2356.2,-519 2377.78,-516.97"/>
<polygon fill="midnightblue" stroke="midnightblue" points="2310.77,-519.75 2301.14,-524.17 2311.43,-526.72 2310.77,-519.75"/>
</g>
<!-- Node6 -->
<g id="node4" class="node">
<title>Node6</title>
<g id="a_node4"><a xlink:href="structfiftyone_degrees_data_set_ipi.html" target="_top" xlink:title="Data set structure containing all the components used for IP intelligence.">
<polygon fill="none" stroke="black" points="2139,-474 2139,-493 2284,-493 2284,-474 2139,-474"/>
<text text-anchor="middle" x="2211.5" y="-481" font-family="Helvetica,sans-Serif" font-size="10.00">fiftyoneDegreesDataSetIpi</text>
</a>
</g>
</g>
<!-- Node6&#45;&gt;Node4 -->
<g id="edge3" class="edge">
<title>Node6&#45;&gt;Node4</title>
<path fill="none" stroke="#9a32cd" stroke-dasharray="5,2" d="M2294.07,-491.48C2320.74,-494.09 2350.52,-497 2377.79,-499.67"/>
<polygon fill="#9a32cd" stroke="#9a32cd" points="2294.3,-487.99 2284.01,-490.5 2293.62,-494.95 2294.3,-487.99"/>
<text text-anchor="middle" x="2339.5" y="-499.5" font-family="Helvetica,sans-Serif" font-size="10.00"> dataSet</text>
</g>
<!-- Node7 -->
<g id="node5" class="node">
<title>Node7</title>
<g id="a_node5"><a xlink:href="structfiftyone_degrees_list.html" target="_top" xlink:title="List structure which contains a list of collection items.">
<polygon fill="none" stroke="black" points="704,-256 704,-275 815,-275 815,-256 704,-256"/>
<text text-anchor="middle" x="759.5" y="-263" font-family="Helvetica,sans-Serif" font-size="10.00">fiftyoneDegreesList</text>
</a>
</g>
</g>
<!-- Node7&#45;&gt;Node6 -->
<g id="edge4" class="edge">
<title>Node7&#45;&gt;Node6</title>
<path fill="none" stroke="#9a32cd" stroke-dasharray="5,2" d="M801.92,-253.13C871.36,-233.53 1015.96,-197.5 1141,-197.5 1141,-197.5 1141,-197.5 1939.5,-197.5 2095.46,-197.5 2188.58,-424.36 2207.08,-473.98"/>
<polygon fill="#9a32cd" stroke="#9a32cd" points="800.88,-249.79 792.23,-255.9 802.8,-256.52 800.88,-249.79"/>
<text text-anchor="middle" x="1496.5" y="-200.5" font-family="Helvetica,sans-Serif" font-size="10.00"> componentsList</text>
</g>
<!-- Node8 -->
<g id="node6" class="node">
<title>Node8</title>
<g id="a_node6"><a xlink:href="structfiftyone_degrees_collection_item.html" target="_top" xlink:title="Used to store a handle to the underlying item that could be used to release the item when it&#39;s finish...">
<polygon fill="none" stroke="black" points="185,-422 185,-441 350,-441 350,-422 185,-422"/>
<text text-anchor="middle" x="267.5" y="-429" font-family="Helvetica,sans-Serif" font-size="10.00">fiftyoneDegreesCollectionItem</text>
</a>
</g>
</g>
<!-- Node8&#45;&gt;Node7 -->
<g id="edge5" class="edge">
<title>Node8&#45;&gt;Node7</title>
<path fill="none" stroke="#9a32cd" stroke-dasharray="5,2" d="M290.68,-416.26C329.32,-390.46 412.32,-338.37 490,-311.5 561.62,-286.72 648.79,-274.94 703.97,-269.59"/>
<polygon fill="#9a32cd" stroke="#9a32cd" points="288.6,-413.44 282.26,-421.93 292.51,-419.24 288.6,-413.44"/>
<text text-anchor="middle" x="423.5" y="-365.5" font-family="Helvetica,sans-Serif" font-size="10.00"> items</text>
</g>
<!-- Node9 -->
<g id="node7" class="node">
<title>Node9</title>
<g id="a_node7"><a xlink:href="structfiftyone_degrees_collection.html" target="_top" xlink:title="All the shared methods and fields required by file, memory and cached collections.">
<polygon fill="none" stroke="black" points="688,-479 688,-498 831,-498 831,-479 688,-479"/>
<text text-anchor="middle" x="759.5" y="-486" font-family="Helvetica,sans-Serif" font-size="10.00">fiftyoneDegreesCollection</text>
</a>
</g>
</g>
<!-- Node8&#45;&gt;Node9 -->
<g id="edge7" class="edge">
<title>Node8&#45;&gt;Node9</title>
<path fill="none" stroke="#9a32cd" stroke-dasharray="5,2" d="M360.46,-438.8C395.42,-441.8 435.58,-445.5 472,-449.5 560.22,-459.19 582.09,-463.27 670,-475.5 677.84,-476.59 686.08,-477.76 694.23,-478.94"/>
<polygon fill="#9a32cd" stroke="#9a32cd" points="360.53,-435.3 350.27,-437.94 359.94,-442.27 360.53,-435.3"/>
<text text-anchor="middle" x="423.5" y="-452.5" font-family="Helvetica,sans-Serif" font-size="10.00"> release</text>
</g>
<!-- Node34 -->
<g id="node32" class="node">
<title>Node34</title>
<g id="a_node32"><a xlink:href="structfiftyone_degrees_property_available.html" target="_top" xlink:title="Used to access the property item quickly without the need to search.">
<polygon fill="none" stroke="black" points="490,-401 490,-420 670,-420 670,-401 490,-401"/>
<text text-anchor="middle" x="580" y="-408" font-family="Helvetica,sans-Serif" font-size="10.00">fiftyoneDegreesPropertyAvailable</text>
</a>
</g>
</g>
<!-- Node8&#45;&gt;Node34 -->
<g id="edge42" class="edge">
<title>Node8&#45;&gt;Node34</title>
<path fill="none" stroke="#9a32cd" stroke-dasharray="5,2" d="M338.01,-420.58C350.3,-418.97 363.01,-417.52 375,-416.5 412.51,-413.32 454.03,-411.74 489.76,-410.99"/>
<polygon fill="#9a32cd" stroke="#9a32cd" points="337.24,-417.16 327.8,-421.96 338.18,-424.09 337.24,-417.16"/>
<text text-anchor="middle" x="423.5" y="-419.5" font-family="Helvetica,sans-Serif" font-size="10.00"> name</text>
</g>
<!-- Node9&#45;&gt;Node6 -->
<g id="edge24" class="edge">
<title>Node9&#45;&gt;Node6</title>
<path fill="none" stroke="#9a32cd" stroke-dasharray="5,2" d="M841.44,-488.22C1098.71,-487.33 1895.1,-484.59 2138.86,-483.75"/>
<polygon fill="#9a32cd" stroke="#9a32cd" points="841.41,-484.72 831.42,-488.26 841.43,-491.72 841.41,-484.72"/>
<text text-anchor="middle" x="1496.5" y="-598.5" font-family="Helvetica,sans-Serif" font-size="10.00"> profileOffsets</text>
<text text-anchor="middle" x="1496.5" y="-587.5" font-family="Helvetica,sans-Serif" font-size="10.00">values</text>
<text text-anchor="middle" x="1496.5" y="-576.5" font-family="Helvetica,sans-Serif" font-size="10.00">graphs</text>
<text text-anchor="middle" x="1496.5" y="-565.5" font-family="Helvetica,sans-Serif" font-size="10.00">profileGroups</text>
<text text-anchor="middle" x="1496.5" y="-554.5" font-family="Helvetica,sans-Serif" font-size="10.00">strings</text>
<text text-anchor="middle" x="1496.5" y="-543.5" font-family="Helvetica,sans-Serif" font-size="10.00">propertyTypes</text>
<text text-anchor="middle" x="1496.5" y="-532.5" font-family="Helvetica,sans-Serif" font-size="10.00">maps</text>
<text text-anchor="middle" x="1496.5" y="-521.5" font-family="Helvetica,sans-Serif" font-size="10.00">components</text>
<text text-anchor="middle" x="1496.5" y="-510.5" font-family="Helvetica,sans-Serif" font-size="10.00">properties</text>
<text text-anchor="middle" x="1496.5" y="-499.5" font-family="Helvetica,sans-Serif" font-size="10.00">profiles</text>
<text text-anchor="middle" x="1496.5" y="-488.5" font-family="Helvetica,sans-Serif" font-size="10.00">...</text>
</g>
<!-- Node9&#45;&gt;Node8 -->
<g id="edge6" class="edge">
<title>Node9&#45;&gt;Node8</title>
<path fill="none" stroke="#9a32cd" stroke-dasharray="5,2" d="M677.66,-489C599.58,-488.17 478.3,-483.46 375,-464.5 346.44,-459.26 314.79,-448.83 293.47,-441.09"/>
<polygon fill="#9a32cd" stroke="#9a32cd" points="677.88,-492.5 687.91,-489.08 677.94,-485.5 677.88,-492.5"/>
<text text-anchor="middle" x="423.5" y="-480.5" font-family="Helvetica,sans-Serif" font-size="10.00"> collection</text>
</g>
<!-- Node9&#45;&gt;Node9 -->
<g id="edge8" class="edge">
<title>Node9&#45;&gt;Node9</title>
<path fill="none" stroke="#9a32cd" stroke-dasharray="5,2" d="M726.14,-506.39C726.63,-512.04 737.75,-516.5 759.5,-516.5 791.14,-516.5 800.28,-507.07 786.93,-498.26"/>
<polygon fill="#9a32cd" stroke="#9a32cd" points="729.01,-508.4 732.07,-498.26 723.35,-504.28 729.01,-508.4"/>
<text text-anchor="middle" x="759.5" y="-530.5" font-family="Helvetica,sans-Serif" font-size="10.00"> freeCollection</text>
<text text-anchor="middle" x="759.5" y="-519.5" font-family="Helvetica,sans-Serif" font-size="10.00">get</text>
</g>
<!-- Node18 -->
<g id="node16" class="node">
<title>Node18</title>
<g id="a_node16"><a xlink:href="structfiftyone_degrees_ipi_cg.html" target="_top" xlink:title="The information and a working collection to retrieve entries from the component graph.">
<polygon fill="none" stroke="black" points="1597.5,-616 1597.5,-635 1716.5,-635 1716.5,-616 1597.5,-616"/>
<text text-anchor="middle" x="1657" y="-623" font-family="Helvetica,sans-Serif" font-size="10.00">fiftyoneDegreesIpiCg</text>
</a>
</g>
</g>
<!-- Node9&#45;&gt;Node18 -->
<g id="edge23" class="edge">
<title>Node9&#45;&gt;Node18</title>
<path fill="none" stroke="#9a32cd" stroke-dasharray="5,2" d="M808.12,-500.38C821.32,-503.52 835.68,-506.78 849,-509.5 1112.32,-563.22 1178.12,-579.9 1445,-611.5 1496.22,-617.57 1554.78,-621.19 1597.19,-623.23"/>
<polygon fill="#9a32cd" stroke="#9a32cd" points="808.82,-496.95 798.28,-498.02 807.19,-503.76 808.82,-496.95"/>
<text text-anchor="middle" x="1142" y="-618.5" font-family="Helvetica,sans-Serif" font-size="10.00"> clusters</text>
<text text-anchor="middle" x="1142" y="-607.5" font-family="Helvetica,sans-Serif" font-size="10.00">spanBytes</text>
<text text-anchor="middle" x="1142" y="-596.5" font-family="Helvetica,sans-Serif" font-size="10.00">spans</text>
<text text-anchor="middle" x="1142" y="-585.5" font-family="Helvetica,sans-Serif" font-size="10.00">nodes</text>
</g>
<!-- Node10 -->
<g id="node8" class="node">
<title>Node10</title>
<g id="a_node8"><a xlink:href="structfiftyone_degrees_data.html" target="_top" xlink:title="Data structure used for reusing memory which may have been allocated in a previous operation.">
<polygon fill="none" stroke="black" points="0,-422 0,-441 117,-441 117,-422 0,-422"/>
<text text-anchor="middle" x="58.5" y="-429" font-family="Helvetica,sans-Serif" font-size="10.00">fiftyoneDegreesData</text>
</a>
</g>
</g>
<!-- Node10&#45;&gt;Node8 -->
<g id="edge9" class="edge">
<title>Node10&#45;&gt;Node8</title>
<path fill="none" stroke="#9a32cd" stroke-dasharray="5,2" d="M127.19,-431.5C145.58,-431.5 165.7,-431.5 184.78,-431.5"/>
<polygon fill="#9a32cd" stroke="#9a32cd" points="127.16,-428 117.16,-431.5 127.16,-435 127.16,-428"/>
<text text-anchor="middle" x="147.5" y="-434.5" font-family="Helvetica,sans-Serif" font-size="10.00"> data</text>
</g>
<!-- Node11 -->
<g id="node9" class="node">
<title>Node11</title>
<g id="a_node9"><a xlink:href="structfiftyone_degrees_config_ipi.html" target="_top" xlink:title="IP Intelligence specific configuration structure.">
<polygon fill="none" stroke="black" points="1870,-150 1870,-169 2007,-169 2007,-150 1870,-150"/>
<text text-anchor="middle" x="1938.5" y="-157" font-family="Helvetica,sans-Serif" font-size="10.00">fiftyoneDegreesConfigIpi</text>
</a>
</g>
</g>
<!-- Node11&#45;&gt;Node6 -->
<g id="edge10" class="edge">
<title>Node11&#45;&gt;Node6</title>
<path fill="none" stroke="#9a32cd" stroke-dasharray="5,2" d="M2000.56,-149.1C2034.33,-146.81 2075.18,-150.14 2104,-172.5 2205,-250.87 2210.79,-430.2 2210.66,-473.81"/>
<polygon fill="#9a32cd" stroke="#9a32cd" points="1999.98,-145.64 1990.32,-149.98 2000.58,-152.61 1999.98,-145.64"/>
<text text-anchor="middle" x="2072.5" y="-175.5" font-family="Helvetica,sans-Serif" font-size="10.00"> config</text>
</g>
<!-- Node12 -->
<g id="node10" class="node">
<title>Node12</title>
<g id="a_node10"><a xlink:href="structfiftyone_degrees_collection_config.html" target="_top" xlink:title="Collection configuration structure which defines how the collection should be created by the create m...">
<polygon fill="none" stroke="black" points="1585.5,-0.5 1585.5,-30.5 1728.5,-30.5 1728.5,-0.5 1585.5,-0.5"/>
<text text-anchor="start" x="1593.5" y="-18.5" font-family="Helvetica,sans-Serif" font-size="10.00">fiftyoneDegreesCollection</text>
<text text-anchor="middle" x="1657" y="-7.5" font-family="Helvetica,sans-Serif" font-size="10.00">Config</text>
</a>
</g>
</g>
<!-- Node12&#45;&gt;Node11 -->
<g id="edge11" class="edge">
<title>Node12&#45;&gt;Node11</title>
<path fill="none" stroke="#9a32cd" stroke-dasharray="5,2" d="M1739.07,-11.19C1770.94,-12.71 1806.8,-18.64 1836,-34.5 1886.36,-61.85 1921.15,-125.55 1933.02,-149.85"/>
<polygon fill="#9a32cd" stroke="#9a32cd" points="1738.99,-7.69 1728.88,-10.84 1738.76,-14.68 1738.99,-7.69"/>
<text text-anchor="middle" x="1801" y="-147.5" font-family="Helvetica,sans-Serif" font-size="10.00"> profileOffsets</text>
<text text-anchor="middle" x="1801" y="-136.5" font-family="Helvetica,sans-Serif" font-size="10.00">values</text>
<text text-anchor="middle" x="1801" y="-125.5" font-family="Helvetica,sans-Serif" font-size="10.00">graphs</text>
<text text-anchor="middle" x="1801" y="-114.5" font-family="Helvetica,sans-Serif" font-size="10.00">profileGroups</text>
<text text-anchor="middle" x="1801" y="-103.5" font-family="Helvetica,sans-Serif" font-size="10.00">strings</text>
<text text-anchor="middle" x="1801" y="-92.5" font-family="Helvetica,sans-Serif" font-size="10.00">propertyTypes</text>
<text text-anchor="middle" x="1801" y="-81.5" font-family="Helvetica,sans-Serif" font-size="10.00">maps</text>
<text text-anchor="middle" x="1801" y="-70.5" font-family="Helvetica,sans-Serif" font-size="10.00">components</text>
<text text-anchor="middle" x="1801" y="-59.5" font-family="Helvetica,sans-Serif" font-size="10.00">graph</text>
<text text-anchor="middle" x="1801" y="-48.5" font-family="Helvetica,sans-Serif" font-size="10.00">properties</text>
<text text-anchor="middle" x="1801" y="-37.5" font-family="Helvetica,sans-Serif" font-size="10.00">...</text>
</g>
<!-- Node13 -->
<g id="node11" class="node">
<title>Node13</title>
<g id="a_node11"><a xlink:href="structfiftyone_degrees_config_base.html" target="_top" xlink:title="Base configuration structure containing common configuration options, and options that apply to struc...">
<polygon fill="none" stroke="black" points="1582.5,-150 1582.5,-169 1731.5,-169 1731.5,-150 1582.5,-150"/>
<text text-anchor="middle" x="1657" y="-157" font-family="Helvetica,sans-Serif" font-size="10.00">fiftyoneDegreesConfigBase</text>
</a>
</g>
</g>
<!-- Node13&#45;&gt;Node11 -->
<g id="edge12" class="edge">
<title>Node13&#45;&gt;Node11</title>
<path fill="none" stroke="#9a32cd" stroke-dasharray="5,2" d="M1742.03,-159.5C1782.96,-159.5 1831.52,-159.5 1870,-159.5"/>
<polygon fill="#9a32cd" stroke="#9a32cd" points="1741.8,-156 1731.8,-159.5 1741.8,-163 1741.8,-156"/>
<text text-anchor="middle" x="1801" y="-162.5" font-family="Helvetica,sans-Serif" font-size="10.00"> b</text>
</g>
<!-- Node14 -->
<g id="node12" class="node">
<title>Node14</title>
<g id="a_node12"><a xlink:href="structfiftyone_degrees_data_set_ipi_header.html" target="_top" xlink:title="DATA STRUCTURES.">
<polygon fill="none" stroke="black" points="869,-807.5 869,-837.5 1014,-837.5 1014,-807.5 869,-807.5"/>
<text text-anchor="start" x="877" y="-825.5" font-family="Helvetica,sans-Serif" font-size="10.00">fiftyoneDegreesDataSetIpi</text>
<text text-anchor="middle" x="941.5" y="-814.5" font-family="Helvetica,sans-Serif" font-size="10.00">Header</text>
</a>
</g>
</g>
<!-- Node14&#45;&gt;Node6 -->
<g id="edge13" class="edge">
<title>Node14&#45;&gt;Node6</title>
<path fill="none" stroke="#9a32cd" stroke-dasharray="5,2" d="M1024.19,-818.24C1104.05,-814.45 1229.1,-809.5 1337.5,-809.5 1337.5,-809.5 1337.5,-809.5 1939.5,-809.5 2076.99,-809.5 2041.66,-670.05 2104,-547.5 2113.77,-528.3 2105.54,-516.39 2122,-502.5 2127.04,-498.24 2132.82,-494.87 2138.94,-492.21"/>
<polygon fill="#9a32cd" stroke="#9a32cd" points="1024.02,-814.75 1014.19,-818.72 1024.35,-821.74 1024.02,-814.75"/>
<text text-anchor="middle" x="1657" y="-812.5" font-family="Helvetica,sans-Serif" font-size="10.00"> header</text>
</g>
<!-- Node15 -->
<g id="node13" class="node">
<title>Node15</title>
<g id="a_node13"><a xlink:href="structfiftyone_degrees_date.html" target="_top" xlink:title="Used to store the date when the dataset was produced and next date 51Degrees expect to provide a new ...">
<polygon fill="none" stroke="black" points="521.5,-874 521.5,-893 638.5,-893 638.5,-874 521.5,-874"/>
<text text-anchor="middle" x="580" y="-881" font-family="Helvetica,sans-Serif" font-size="10.00">fiftyoneDegreesDate</text>
</a>
</g>
</g>
<!-- Node15&#45;&gt;Node14 -->
<g id="edge14" class="edge">
<title>Node15&#45;&gt;Node14</title>
<path fill="none" stroke="#9a32cd" stroke-dasharray="5,2" d="M648.9,-882.18C699.58,-880.07 770.27,-874.76 831,-861.5 856.43,-855.95 884.04,-846.09 905.17,-837.67"/>
<polygon fill="#9a32cd" stroke="#9a32cd" points="648.58,-878.69 638.72,-882.57 648.84,-885.68 648.58,-878.69"/>
<text text-anchor="middle" x="759.5" y="-893.5" font-family="Helvetica,sans-Serif" font-size="10.00"> nextUpdate</text>
<text text-anchor="middle" x="759.5" y="-882.5" font-family="Helvetica,sans-Serif" font-size="10.00">published</text>
</g>
<!-- Node16 -->
<g id="node14" class="node">
<title>Node16</title>
<g id="a_node14"><a xlink:href="structfiftyone_degrees_collection_header.html" target="_top" xlink:title="Collection header structure which defines the size and location of the collection data.">
<polygon fill="none" stroke="black" points="508.5,-691.5 508.5,-721.5 651.5,-721.5 651.5,-691.5 508.5,-691.5"/>
<text text-anchor="start" x="516.5" y="-709.5" font-family="Helvetica,sans-Serif" font-size="10.00">fiftyoneDegreesCollection</text>
<text text-anchor="middle" x="580" y="-698.5" font-family="Helvetica,sans-Serif" font-size="10.00">Header</text>
</a>
</g>
</g>
<!-- Node16&#45;&gt;Node14 -->
<g id="edge15" class="edge">
<title>Node16&#45;&gt;Node14</title>
<path fill="none" stroke="#9a32cd" stroke-dasharray="5,2" d="M661.65,-715.12C733.46,-722.96 827.71,-733.71 831,-736.5 852.87,-755.07 828.45,-778.48 849,-798.5 854.65,-804 861.39,-808.28 868.63,-811.61"/>
<polygon fill="#9a32cd" stroke="#9a32cd" points="662,-711.64 651.68,-714.04 661.24,-718.6 662,-711.64"/>
<text text-anchor="middle" x="759.5" y="-849.5" font-family="Helvetica,sans-Serif" font-size="10.00"> profileOffsets</text>
<text text-anchor="middle" x="759.5" y="-838.5" font-family="Helvetica,sans-Serif" font-size="10.00">values</text>
<text text-anchor="middle" x="759.5" y="-827.5" font-family="Helvetica,sans-Serif" font-size="10.00">graphs</text>
<text text-anchor="middle" x="759.5" y="-816.5" font-family="Helvetica,sans-Serif" font-size="10.00">profileGroups</text>
<text text-anchor="middle" x="759.5" y="-805.5" font-family="Helvetica,sans-Serif" font-size="10.00">strings</text>
<text text-anchor="middle" x="759.5" y="-794.5" font-family="Helvetica,sans-Serif" font-size="10.00">propertyTypes</text>
<text text-anchor="middle" x="759.5" y="-783.5" font-family="Helvetica,sans-Serif" font-size="10.00">maps</text>
<text text-anchor="middle" x="759.5" y="-772.5" font-family="Helvetica,sans-Serif" font-size="10.00">components</text>
<text text-anchor="middle" x="759.5" y="-761.5" font-family="Helvetica,sans-Serif" font-size="10.00">properties</text>
<text text-anchor="middle" x="759.5" y="-750.5" font-family="Helvetica,sans-Serif" font-size="10.00">profiles</text>
<text text-anchor="middle" x="759.5" y="-739.5" font-family="Helvetica,sans-Serif" font-size="10.00">...</text>
</g>
<!-- Node19 -->
<g id="node17" class="node">
<title>Node19</title>
<g id="a_node17"><a xlink:href="structfiftyone_degrees_ipi_cg_info.html" target="_top" xlink:title="Fixed width record in the collection where the record relates to a component and IP version.">
<polygon fill="none" stroke="black" points="1270,-671 1270,-690 1407,-690 1407,-671 1270,-671"/>
<text text-anchor="middle" x="1338.5" y="-678" font-family="Helvetica,sans-Serif" font-size="10.00">fiftyoneDegreesIpiCgInfo</text>
</a>
</g>
</g>
<!-- Node16&#45;&gt;Node19 -->
<g id="edge22" class="edge">
<title>Node16&#45;&gt;Node19</title>
<path fill="none" stroke="#9a32cd" stroke-dasharray="5,2" d="M661.96,-705.92C785.14,-704.69 1026.95,-700.91 1232,-689.5 1244.21,-688.82 1257.19,-687.89 1269.72,-686.88"/>
<polygon fill="#9a32cd" stroke="#9a32cd" points="661.83,-702.42 651.86,-706.02 661.89,-709.42 661.83,-702.42"/>
<text text-anchor="middle" x="941.5" y="-727.5" font-family="Helvetica,sans-Serif" font-size="10.00"> clusters</text>
<text text-anchor="middle" x="941.5" y="-716.5" font-family="Helvetica,sans-Serif" font-size="10.00">spanBytes</text>
<text text-anchor="middle" x="941.5" y="-705.5" font-family="Helvetica,sans-Serif" font-size="10.00">spans</text>
</g>
<!-- Node20 -->
<g id="node18" class="node">
<title>Node20</title>
<g id="a_node18"><a xlink:href="structfiftyone_degrees_ipi_cg_member_node.html" target="_top" xlink:title="Data structure used for the values collection.">
<polygon fill="none" stroke="black" points="849,-651 849,-670 1034,-670 1034,-651 849,-651"/>
<text text-anchor="middle" x="941.5" y="-658" font-family="Helvetica,sans-Serif" font-size="10.00">fiftyoneDegreesIpiCgMemberNode</text>
</a>
</g>
</g>
<!-- Node16&#45;&gt;Node20 -->
<g id="edge21" class="edge">
<title>Node16&#45;&gt;Node20</title>
<path fill="none" stroke="#9a32cd" stroke-dasharray="5,2" d="M648.33,-689.19C661.42,-686.27 675.09,-683.53 688,-681.5 741.01,-673.15 800.84,-667.99 848.95,-664.87"/>
<polygon fill="#9a32cd" stroke="#9a32cd" points="647.42,-685.81 638.45,-691.45 648.98,-692.63 647.42,-685.81"/>
<text text-anchor="middle" x="759.5" y="-684.5" font-family="Helvetica,sans-Serif" font-size="10.00"> collection</text>
</g>
<!-- Node17 -->
<g id="node15" class="node">
<title>Node17</title>
<g id="a_node15"><a xlink:href="structfiftyone_degrees_ipi_cg_array.html" target="_top" xlink:title="An array of all the component graphs and collections available.">
<polygon fill="none" stroke="black" points="1866,-577 1866,-596 2011,-596 2011,-577 1866,-577"/>
<text text-anchor="middle" x="1938.5" y="-584" font-family="Helvetica,sans-Serif" font-size="10.00">fiftyoneDegreesIpiCgArray</text>
</a>
</g>
</g>
<!-- Node17&#45;&gt;Node6 -->
<g id="edge16" class="edge">
<title>Node17&#45;&gt;Node6</title>
<path fill="none" stroke="#9a32cd" stroke-dasharray="5,2" d="M1965.88,-572.11C2000.71,-553.64 2064.38,-521.69 2122,-502.5 2133.03,-498.83 2145.08,-495.69 2156.64,-493.08"/>
<polygon fill="#9a32cd" stroke="#9a32cd" points="1964.01,-569.14 1956.85,-576.94 1967.32,-575.31 1964.01,-569.14"/>
<text text-anchor="middle" x="2072.5" y="-535.5" font-family="Helvetica,sans-Serif" font-size="10.00"> graphsArray</text>
</g>
<!-- Node18&#45;&gt;Node17 -->
<g id="edge17" class="edge">
<title>Node18&#45;&gt;Node17</title>
<path fill="none" stroke="#9a32cd" stroke-dasharray="5,2" d="M1726.51,-615.94C1769.98,-609.88 1826,-602.06 1869.39,-596"/>
<polygon fill="#9a32cd" stroke="#9a32cd" points="1726.01,-612.48 1716.59,-617.32 1726.98,-619.41 1726.01,-612.48"/>
<text text-anchor="middle" x="1801" y="-611.5" font-family="Helvetica,sans-Serif" font-size="10.00"> items</text>
</g>
<!-- Node19&#45;&gt;Node18 -->
<g id="edge18" class="edge">
<title>Node19&#45;&gt;Node18</title>
<path fill="none" stroke="#9a32cd" stroke-dasharray="5,2" d="M1404.42,-669.22C1462.4,-659.14 1546.4,-644.55 1601.11,-635.04"/>
<polygon fill="#9a32cd" stroke="#9a32cd" points="1403.52,-665.82 1394.27,-670.98 1404.72,-672.72 1403.52,-665.82"/>
<text text-anchor="middle" x="1496.5" y="-663.5" font-family="Helvetica,sans-Serif" font-size="10.00"> info</text>
</g>
<!-- Node20&#45;&gt;Node19 -->
<g id="edge19" class="edge">
<title>Node20&#45;&gt;Node19</title>
<path fill="none" stroke="#9a32cd" stroke-dasharray="5,2" d="M1044.41,-665.66C1115.31,-669.25 1207.87,-673.94 1269.82,-677.07"/>
<polygon fill="#9a32cd" stroke="#9a32cd" points="1044.28,-662.15 1034.11,-665.14 1043.92,-669.14 1044.28,-662.15"/>
<text text-anchor="middle" x="1142" y="-677.5" font-family="Helvetica,sans-Serif" font-size="10.00"> nodes</text>
</g>
<!-- Node21 -->
<g id="node19" class="node">
<title>Node21</title>
<g id="a_node19"><a xlink:href="structfiftyone_degrees_ipi_cg_member.html" target="_top" xlink:title="DATA STRUCTURES.">
<polygon fill="none" stroke="black" points="500.5,-615 500.5,-634 659.5,-634 659.5,-615 500.5,-615"/>
<text text-anchor="middle" x="580" y="-622" font-family="Helvetica,sans-Serif" font-size="10.00">fiftyoneDegreesIpiCgMember</text>
</a>
</g>
</g>
<!-- Node21&#45;&gt;Node20 -->
<g id="edge20" class="edge">
<title>Node21&#45;&gt;Node20</title>
<path fill="none" stroke="#9a32cd" stroke-dasharray="5,2" d="M669.8,-618.31C717.81,-616.61 777.97,-617.12 831,-625.5 861.75,-630.36 895.69,-642.29 917.51,-650.87"/>
<polygon fill="#9a32cd" stroke="#9a32cd" points="669.6,-614.82 659.75,-618.71 669.88,-621.81 669.6,-614.82"/>
<text text-anchor="middle" x="759.5" y="-650.5" font-family="Helvetica,sans-Serif" font-size="10.00"> spanIndex</text>
<text text-anchor="middle" x="759.5" y="-639.5" font-family="Helvetica,sans-Serif" font-size="10.00">lowFlag</text>
<text text-anchor="middle" x="759.5" y="-628.5" font-family="Helvetica,sans-Serif" font-size="10.00">value</text>
</g>
<!-- Node22 -->
<g id="node20" class="node">
<title>Node22</title>
<g id="a_node20"><a xlink:href="structfiftyone_degrees_data_set_ipi_base.html" target="_top" xlink:title="Data set structure which contains the base dataset structure.">
<polygon fill="none" stroke="black" points="1854,-427 1854,-446 2023,-446 2023,-427 1854,-427"/>
<text text-anchor="middle" x="1938.5" y="-434" font-family="Helvetica,sans-Serif" font-size="10.00">fiftyoneDegreesDataSetIpiBase</text>
</a>
</g>
</g>
<!-- Node22&#45;&gt;Node6 -->
<g id="edge25" class="edge">
<title>Node22&#45;&gt;Node6</title>
<path fill="none" stroke="#9a32cd" stroke-dasharray="5,2" d="M2006.15,-447.72C2036.08,-452.79 2071.82,-458.89 2104,-464.5 2121.48,-467.55 2140.57,-470.93 2157.7,-473.99"/>
<polygon fill="#9a32cd" stroke="#9a32cd" points="2006.68,-444.26 1996.24,-446.04 2005.51,-451.16 2006.68,-444.26"/>
<text text-anchor="middle" x="2072.5" y="-467.5" font-family="Helvetica,sans-Serif" font-size="10.00"> b</text>
</g>
<!-- Node23 -->
<g id="node21" class="node">
<title>Node23</title>
<g id="a_node21"><a xlink:href="structfiftyone_degrees_data_set_base.html" target="_top" xlink:title="Base data set structure which contains the &#39;must have&#39;s for all data sets.">
<polygon fill="none" stroke="black" points="1578.5,-395 1578.5,-414 1735.5,-414 1735.5,-395 1578.5,-395"/>
<text text-anchor="middle" x="1657" y="-402" font-family="Helvetica,sans-Serif" font-size="10.00">fiftyoneDegreesDataSetBase</text>
</a>
</g>
</g>
<!-- Node23&#45;&gt;Node22 -->
<g id="edge26" class="edge">
<title>Node23&#45;&gt;Node22</title>
<path fill="none" stroke="#9a32cd" stroke-dasharray="5,2" d="M1745.95,-414.57C1780.54,-418.53 1820.07,-423.06 1854.2,-426.96"/>
<polygon fill="#9a32cd" stroke="#9a32cd" points="1746.19,-411.07 1735.86,-413.41 1745.39,-418.03 1746.19,-411.07"/>
<text text-anchor="middle" x="1801" y="-426.5" font-family="Helvetica,sans-Serif" font-size="10.00"> b</text>
</g>
<!-- Node24 -->
<g id="node22" class="node">
<title>Node24</title>
<g id="a_node22"><a xlink:href="structfiftyone_degrees_header_array.html" target="_top" xlink:title="Array of Headers which should always be ordered in ascending order of fullHeaderId.">
<polygon fill="none" stroke="black" points="1261,-302 1261,-321 1416,-321 1416,-302 1261,-302"/>
<text text-anchor="middle" x="1338.5" y="-309" font-family="Helvetica,sans-Serif" font-size="10.00">fiftyoneDegreesHeaderArray</text>
</a>
</g>
</g>
<!-- Node24&#45;&gt;Node23 -->
<g id="edge27" class="edge">
<title>Node24&#45;&gt;Node23</title>
<path fill="none" stroke="#9a32cd" stroke-dasharray="5,2" d="M1406.88,-322.94C1448.15,-330.78 1501.75,-342.49 1548,-357.5 1580.09,-367.91 1615.68,-384.43 1636.93,-394.85"/>
<polygon fill="#9a32cd" stroke="#9a32cd" points="1407.4,-319.48 1396.93,-321.08 1406.11,-326.36 1407.4,-319.48"/>
<text text-anchor="middle" x="1496.5" y="-360.5" font-family="Helvetica,sans-Serif" font-size="10.00"> uniqueHeaders</text>
</g>
<!-- Node25 -->
<g id="node23" class="node">
<title>Node25</title>
<g id="a_node23"><a xlink:href="structfiftyone_degrees_resource_handle.html" target="_top" xlink:title="Handle for a shared resource.">
<polygon fill="none" stroke="black" points="1252,-750 1252,-769 1425,-769 1425,-750 1252,-750"/>
<text text-anchor="middle" x="1338.5" y="-757" font-family="Helvetica,sans-Serif" font-size="10.00">fiftyoneDegreesResourceHandle</text>
</a>
</g>
</g>
<!-- Node25&#45;&gt;Node23 -->
<g id="edge28" class="edge">
<title>Node25&#45;&gt;Node23</title>
<path fill="none" stroke="#9a32cd" stroke-dasharray="5,2" d="M1382.92,-747.06C1437.15,-730.69 1525.55,-701.02 1548,-675.5 1568.93,-651.7 1555.52,-636.41 1566,-606.5 1592.67,-530.41 1636.15,-443.23 1650.91,-414.35"/>
<polygon fill="#9a32cd" stroke="#9a32cd" points="1381.8,-743.74 1373.22,-749.95 1383.8,-750.45 1381.8,-743.74"/>
<text text-anchor="middle" x="1496.5" y="-728.5" font-family="Helvetica,sans-Serif" font-size="10.00"> handle</text>
</g>
<!-- Node26 -->
<g id="node24" class="node">
<title>Node26</title>
<g id="a_node24"><a xlink:href="structfiftyone_degrees_resource_manager.html" target="_top" xlink:title="Manager structure used to provide access to a shared and changing resource.">
<polygon fill="none" stroke="black" points="1566,-747 1566,-766 1748,-766 1748,-747 1566,-747"/>
<text text-anchor="middle" x="1657" y="-754" font-family="Helvetica,sans-Serif" font-size="10.00">fiftyoneDegreesResourceManager</text>
</a>
</g>
</g>
<!-- Node25&#45;&gt;Node26 -->
<g id="edge30" class="edge">
<title>Node25&#45;&gt;Node26</title>
<path fill="none" stroke="#9a32cd" stroke-dasharray="5,2" d="M1416.85,-748.87C1426.32,-747.89 1435.87,-747.06 1445,-746.5 1490.69,-743.7 1502.27,-744.39 1548,-746.5 1553.83,-746.77 1559.83,-747.12 1565.88,-747.53"/>
<polygon fill="#9a32cd" stroke="#9a32cd" points="1416.2,-745.42 1406.64,-749.98 1416.96,-752.38 1416.2,-745.42"/>
<text text-anchor="middle" x="1496.5" y="-749.5" font-family="Helvetica,sans-Serif" font-size="10.00"> active</text>
</g>
<!-- Node26&#45;&gt;Node25 -->
<g id="edge29" class="edge">
<title>Node26&#45;&gt;Node25</title>
<path fill="none" stroke="#9a32cd" stroke-dasharray="5,2" d="M1555.72,-759.38C1553.12,-759.42 1550.54,-759.46 1548,-759.5 1507.64,-760.06 1462.89,-760.13 1425.22,-760.04"/>
<polygon fill="#9a32cd" stroke="#9a32cd" points="1555.91,-762.88 1565.84,-759.19 1555.78,-755.88 1555.91,-762.88"/>
<text text-anchor="middle" x="1496.5" y="-762.5" font-family="Helvetica,sans-Serif" font-size="10.00"> manager</text>
</g>
<!-- Node27 -->
<g id="node25" class="node">
<title>Node27</title>
<g id="a_node25"><a xlink:href="structfiftyone_degrees_interlock_double_width.html" target="_top" xlink:title="Double width (64 or 128 depending on the architecture) compare and exchange.">
<polygon fill="none" stroke="black" points="873,-758.5 873,-788.5 1010,-788.5 1010,-758.5 873,-758.5"/>
<text text-anchor="start" x="881" y="-776.5" font-family="Helvetica,sans-Serif" font-size="10.00">fiftyoneDegreesInterlock</text>
<text text-anchor="middle" x="941.5" y="-765.5" font-family="Helvetica,sans-Serif" font-size="10.00">DoubleWidth</text>
</a>
</g>
</g>
<!-- Node27&#45;&gt;Node25 -->
<g id="edge31" class="edge">
<title>Node27&#45;&gt;Node25</title>
<path fill="none" stroke="#9a32cd" stroke-dasharray="5,2" d="M1020.44,-770.74C1087.16,-768.37 1183.06,-764.97 1251.9,-762.53"/>
<polygon fill="#9a32cd" stroke="#9a32cd" points="1020.27,-767.24 1010.4,-771.09 1020.52,-774.24 1020.27,-767.24"/>
<text text-anchor="middle" x="1142" y="-771.5" font-family="Helvetica,sans-Serif" font-size="10.00"> counter</text>
</g>
<!-- Node28 -->
<g id="node26" class="node">
<title>Node28</title>
<g id="a_node26"><a xlink:href="structfiftyone_degrees_file_pool.html" target="_top" xlink:title="Stack of handles used to read data from a single source file.">
<polygon fill="none" stroke="black" points="1272.5,-226 1272.5,-245 1404.5,-245 1404.5,-226 1272.5,-226"/>
<text text-anchor="middle" x="1338.5" y="-233" font-family="Helvetica,sans-Serif" font-size="10.00">fiftyoneDegreesFilePool</text>
</a>
</g>
</g>
<!-- Node28&#45;&gt;Node23 -->
<g id="edge32" class="edge">
<title>Node28&#45;&gt;Node23</title>
<path fill="none" stroke="#9a32cd" stroke-dasharray="5,2" d="M1403.5,-247.42C1411.5,-249.49 1419.5,-251.84 1427,-254.5 1483.77,-274.61 1497.56,-282.59 1548,-315.5 1586.66,-340.72 1627.43,-377.53 1645.88,-394.83"/>
<polygon fill="#9a32cd" stroke="#9a32cd" points="1404.32,-244.02 1393.78,-245.05 1402.66,-250.82 1404.32,-244.02"/>
<text text-anchor="middle" x="1496.5" y="-318.5" font-family="Helvetica,sans-Serif" font-size="10.00"> filePool</text>
</g>
<!-- Node29 -->
<g id="node27" class="node">
<title>Node29</title>
<g id="a_node27"><a xlink:href="structfiftyone_degrees_pool.html" target="_top" xlink:title="Pool of resources stored as items in a stack.">
<polygon fill="none" stroke="black" points="884,-280 884,-299 999,-299 999,-280 884,-280"/>
<text text-anchor="middle" x="941.5" y="-287" font-family="Helvetica,sans-Serif" font-size="10.00">fiftyoneDegreesPool</text>
</a>
</g>
</g>
<!-- Node29&#45;&gt;Node28 -->
<g id="edge33" class="edge">
<title>Node29&#45;&gt;Node28</title>
<path fill="none" stroke="#9a32cd" stroke-dasharray="5,2" d="M975.55,-276.19C996.98,-268.17 1025.71,-258.56 1052,-253.5 1126.61,-239.13 1214.02,-235.5 1272.28,-234.92"/>
<polygon fill="#9a32cd" stroke="#9a32cd" points="974.05,-273.01 965.96,-279.85 976.55,-279.55 974.05,-273.01"/>
<text text-anchor="middle" x="1142" y="-256.5" font-family="Helvetica,sans-Serif" font-size="10.00"> pool</text>
</g>
<!-- Node29&#45;&gt;Node29 -->
<g id="edge34" class="edge">
<title>Node29&#45;&gt;Node29</title>
<path fill="none" stroke="#9a32cd" stroke-dasharray="5,2" d="M907.39,-307.39C907.89,-313.04 919.26,-317.5 941.5,-317.5 973.85,-317.5 983.2,-308.07 969.55,-299.26"/>
<polygon fill="#9a32cd" stroke="#9a32cd" points="910.28,-309.37 913.45,-299.26 904.67,-305.19 910.28,-309.37"/>
<text text-anchor="middle" x="941.5" y="-320.5" font-family="Helvetica,sans-Serif" font-size="10.00"> resourceFree</text>
</g>
<!-- Node31 -->
<g id="node29" class="node">
<title>Node31</title>
<g id="a_node29"><a xlink:href="structfiftyone_degrees_pool_item.html" target="_top" xlink:title="Pool item node in the stack of items.">
<polygon fill="none" stroke="black" points="1270,-264 1270,-283 1407,-283 1407,-264 1270,-264"/>
<text text-anchor="middle" x="1338.5" y="-271" font-family="Helvetica,sans-Serif" font-size="10.00">fiftyoneDegreesPoolItem</text>
</a>
</g>
</g>
<!-- Node29&#45;&gt;Node31 -->
<g id="edge37" class="edge">
<title>Node29&#45;&gt;Node31</title>
<path fill="none" stroke="#9a32cd" stroke-dasharray="5,2" d="M1009.39,-289.99C1068.11,-290.02 1155.79,-289.12 1232,-284.5 1244.22,-283.76 1257.22,-282.66 1269.75,-281.44"/>
<polygon fill="#9a32cd" stroke="#9a32cd" points="1009.14,-286.49 999.14,-289.97 1009.13,-293.49 1009.14,-286.49"/>
<text text-anchor="middle" x="1142" y="-292.5" font-family="Helvetica,sans-Serif" font-size="10.00"> pool</text>
</g>
<!-- Node30 -->
<g id="node28" class="node">
<title>Node30</title>
<g id="a_node28"><a xlink:href="unionfiftyone_degrees_pool_head.html" target="_top" xlink:title="The head of the stack used for pop and push operations.">
<polygon fill="none" stroke="black" points="510,-321 510,-340 650,-340 650,-321 510,-321"/>
<text text-anchor="middle" x="580" y="-328" font-family="Helvetica,sans-Serif" font-size="10.00">fiftyoneDegreesPoolHead</text>
</a>
</g>
</g>
<!-- Node30&#45;&gt;Node29 -->
<g id="edge35" class="edge">
<title>Node30&#45;&gt;Node29</title>
<path fill="none" stroke="#9a32cd" stroke-dasharray="5,2" d="M660.51,-321.43C728.16,-313.72 823.66,-302.83 883.81,-295.97"/>
<polygon fill="#9a32cd" stroke="#9a32cd" points="659.85,-317.98 650.32,-322.59 660.65,-324.94 659.85,-317.98"/>
<text text-anchor="middle" x="759.5" y="-319.5" font-family="Helvetica,sans-Serif" font-size="10.00"> head</text>
</g>
<!-- Node31&#45;&gt;Node29 -->
<g id="edge36" class="edge">
<title>Node31&#45;&gt;Node29</title>
<path fill="none" stroke="#9a32cd" stroke-dasharray="5,2" d="M1259.81,-270.46C1202.34,-268.96 1122.19,-268.4 1052,-273.5 1033.99,-274.81 1014.44,-277.31 996.91,-279.96"/>
<polygon fill="#9a32cd" stroke="#9a32cd" points="1259.82,-273.97 1269.91,-270.75 1260.01,-266.97 1259.82,-273.97"/>
<text text-anchor="middle" x="1142" y="-276.5" font-family="Helvetica,sans-Serif" font-size="10.00"> stack</text>
</g>
<!-- Node32 -->
<g id="node30" class="node">
<title>Node32</title>
<g id="a_node30"><a xlink:href="structfiftyone_degrees_override_property_array.html" target="_top" xlink:title="Array of items of type fiftyoneDegreesOverrideProperty used to easily access and track the size of th...">
<polygon fill="none" stroke="black" points="1250,-389.5 1250,-419.5 1427,-419.5 1427,-389.5 1250,-389.5"/>
<text text-anchor="start" x="1258" y="-407.5" font-family="Helvetica,sans-Serif" font-size="10.00">fiftyoneDegreesOverrideProperty</text>
<text text-anchor="middle" x="1338.5" y="-396.5" font-family="Helvetica,sans-Serif" font-size="10.00">Array</text>
</a>
</g>
</g>
<!-- Node32&#45;&gt;Node23 -->
<g id="edge38" class="edge">
<title>Node32&#45;&gt;Node23</title>
<path fill="none" stroke="#9a32cd" stroke-dasharray="5,2" d="M1437.39,-404.5C1482.72,-404.5 1535.82,-404.5 1578.34,-404.5"/>
<polygon fill="#9a32cd" stroke="#9a32cd" points="1437.24,-401 1427.24,-404.5 1437.24,-408 1437.24,-401"/>
<text text-anchor="middle" x="1496.5" y="-407.5" font-family="Helvetica,sans-Serif" font-size="10.00"> overridable</text>
</g>
<!-- Node33 -->
<g id="node31" class="node">
<title>Node33</title>
<g id="a_node31"><a xlink:href="structfiftyone_degrees_override_property.html" target="_top" xlink:title="Index and pointer to a property which can be overridden.">
<polygon fill="none" stroke="black" points="853,-395 853,-414 1030,-414 1030,-395 853,-395"/>
<text text-anchor="middle" x="941.5" y="-402" font-family="Helvetica,sans-Serif" font-size="10.00">fiftyoneDegreesOverrideProperty</text>
</a>
</g>
</g>
<!-- Node33&#45;&gt;Node32 -->
<g id="edge39" class="edge">
<title>Node33&#45;&gt;Node32</title>
<path fill="none" stroke="#9a32cd" stroke-dasharray="5,2" d="M1040.29,-404.5C1104.47,-404.5 1187.69,-404.5 1249.74,-404.5"/>
<polygon fill="#9a32cd" stroke="#9a32cd" points="1040.16,-401 1030.16,-404.5 1040.16,-408 1040.16,-401"/>
<text text-anchor="middle" x="1142" y="-407.5" font-family="Helvetica,sans-Serif" font-size="10.00"> items</text>
</g>
<!-- Node34&#45;&gt;Node33 -->
<g id="edge40" class="edge">
<title>Node34&#45;&gt;Node33</title>
<path fill="none" stroke="#9a32cd" stroke-dasharray="5,2" d="M680.62,-408.84C734.65,-407.94 800.82,-406.83 852.88,-405.96"/>
<polygon fill="#9a32cd" stroke="#9a32cd" points="680.27,-405.34 670.33,-409.01 680.38,-412.34 680.27,-405.34"/>
<text text-anchor="middle" x="759.5" y="-411.5" font-family="Helvetica,sans-Serif" font-size="10.00"> available</text>
</g>
<!-- Node37 -->
<g id="node35" class="node">
<title>Node37</title>
<g id="a_node35"><a xlink:href="structfiftyone_degrees_property_available_array.html" target="_top" xlink:title="Array of items of type fiftyoneDegreesPropertyAvailable used to easily access and track the size of t...">
<polygon fill="none" stroke="black" points="1052,-434.5 1052,-464.5 1232,-464.5 1232,-434.5 1052,-434.5"/>
<text text-anchor="start" x="1060" y="-452.5" font-family="Helvetica,sans-Serif" font-size="10.00">fiftyoneDegreesPropertyAvailable</text>
<text text-anchor="middle" x="1142" y="-441.5" font-family="Helvetica,sans-Serif" font-size="10.00">Array</text>
</a>
</g>
</g>
<!-- Node34&#45;&gt;Node37 -->
<g id="edge45" class="edge">
<title>Node34&#45;&gt;Node37</title>
<path fill="none" stroke="#9a32cd" stroke-dasharray="5,2" d="M664.19,-421.13C672.23,-422 680.27,-422.81 688,-423.5 814.13,-434.77 960.47,-442.14 1051.91,-446.06"/>
<polygon fill="#9a32cd" stroke="#9a32cd" points="664.36,-417.63 654.03,-420 663.59,-424.59 664.36,-417.63"/>
<text text-anchor="middle" x="759.5" y="-436.5" font-family="Helvetica,sans-Serif" font-size="10.00"> items</text>
</g>
<!-- Node35 -->
<g id="node33" class="node">
<title>Node35</title>
<g id="a_node33"><a xlink:href="structfiftyone_degrees_evidence_property_index_array.html" target="_top" xlink:title="Array of items of type fiftyoneDegreesEvidencePropertyIndex used to easily access and track the size ...">
<polygon fill="none" stroke="black" points="178,-243.5 178,-273.5 357,-273.5 357,-243.5 178,-243.5"/>
<text text-anchor="start" x="186" y="-261.5" font-family="Helvetica,sans-Serif" font-size="10.00">fiftyoneDegreesEvidenceProperty</text>
<text text-anchor="middle" x="267.5" y="-250.5" font-family="Helvetica,sans-Serif" font-size="10.00">IndexArray</text>
</a>
</g>
</g>
<!-- Node35&#45;&gt;Node34 -->
<g id="edge41" class="edge">
<title>Node35&#45;&gt;Node34</title>
<path fill="none" stroke="#9a32cd" stroke-dasharray="5,2" d="M325.21,-241.09C370.08,-231.1 431.69,-226.29 472,-259.5 503.48,-285.44 467.52,-315.46 490,-349.5 506,-373.73 535.25,-390.98 555.84,-400.82"/>
<polygon fill="#9a32cd" stroke="#9a32cd" points="324.26,-237.72 315.34,-243.44 325.87,-244.53 324.26,-237.72"/>
<text text-anchor="middle" x="423.5" y="-262.5" font-family="Helvetica,sans-Serif" font-size="10.00"> evidenceProperties</text>
</g>
<!-- Node36 -->
<g id="node34" class="node">
<title>Node36</title>
<g id="a_node34"><a xlink:href="structfiftyone_degrees_indices_property_profile.html" target="_top" xlink:title="Maps the profile index and the property index to the first value index of the profile for the propert...">
<polygon fill="none" stroke="black" points="1253.5,-340.5 1253.5,-370.5 1423.5,-370.5 1423.5,-340.5 1253.5,-340.5"/>
<text text-anchor="start" x="1261.5" y="-358.5" font-family="Helvetica,sans-Serif" font-size="10.00">fiftyoneDegreesIndicesProperty</text>
<text text-anchor="middle" x="1338.5" y="-347.5" font-family="Helvetica,sans-Serif" font-size="10.00">Profile</text>
</a>
</g>
</g>
<!-- Node36&#45;&gt;Node23 -->
<g id="edge43" class="edge">
<title>Node36&#45;&gt;Node23</title>
<path fill="none" stroke="#9a32cd" stroke-dasharray="5,2" d="M1433.8,-370.1C1485.75,-378.14 1548.75,-387.9 1594.38,-394.96"/>
<polygon fill="#9a32cd" stroke="#9a32cd" points="1434.32,-366.64 1423.9,-368.57 1433.25,-373.56 1434.32,-366.64"/>
<text text-anchor="middle" x="1496.5" y="-389.5" font-family="Helvetica,sans-Serif" font-size="10.00"> indexPropertyProfile</text>
</g>
<!-- Node37&#45;&gt;Node23 -->
<g id="edge44" class="edge">
<title>Node37&#45;&gt;Node23</title>
<path fill="none" stroke="#9a32cd" stroke-dasharray="5,2" d="M1242.13,-444.17C1324.24,-439.27 1443.9,-431.02 1548,-419.5 1562.21,-417.93 1577.43,-415.98 1591.83,-414.01"/>
<polygon fill="#9a32cd" stroke="#9a32cd" points="1241.83,-440.68 1232.05,-444.77 1242.24,-447.67 1241.83,-440.68"/>
<text text-anchor="middle" x="1338.5" y="-446.5" font-family="Helvetica,sans-Serif" font-size="10.00"> available</text>
</g>
</g>
</svg>
