<?xml version="1.0" encoding="UTF-8" standalone="no"?>
<!DOCTYPE svg PUBLIC "-//W3C//DTD SVG 1.1//EN"
 "http://www.w3.org/Graphics/SVG/1.1/DTD/svg11.dtd">
<!-- Generated by graphviz version 2.43.0 (0)
 -->
<!-- Title: Properties Pages: 1 -->
<svg width="659pt" height="320pt"
 viewBox="0.00 0.00 658.50 320.00" xmlns="http://www.w3.org/2000/svg" xmlns:xlink="http://www.w3.org/1999/xlink">
<g id="graph0" class="graph" transform="scale(1 1) rotate(0) translate(4 316)">
<title>Properties</title>
<!-- Node3 -->
<g id="node1" class="node">
<title>Node3</title>
<g id="a_node1"><a xlink:title="Properties test class used to test the functionality of properties.c.">
<polygon fill="#bfbfbf" stroke="black" points="91,-0.5 91,-19.5 157,-19.5 157,-0.5 91,-0.5"/>
<text text-anchor="middle" x="124" y="-7.5" font-family="Helvetica,sans-Serif" font-size="10.00">Properties</text>
</a>
</g>
</g>
<!-- Node4 -->
<g id="node2" class="node">
<title>Node4</title>
<g id="a_node2"><a xlink:href="class_base.html" target="_top" xlink:title="Base test class used to carry out memory leak checks.">
<polygon fill="none" stroke="black" points="17.5,-73 17.5,-92 58.5,-92 58.5,-73 17.5,-73"/>
<text text-anchor="middle" x="38" y="-80" font-family="Helvetica,sans-Serif" font-size="10.00">Base</text>
</a>
</g>
</g>
<!-- Node4&#45;&gt;Node3 -->
<g id="edge1" class="edge">
<title>Node4&#45;&gt;Node3</title>
<path fill="none" stroke="midnightblue" d="M56.33,-66.47C73.68,-52.25 99.14,-31.38 113.37,-19.72"/>
<polygon fill="midnightblue" stroke="midnightblue" points="54.06,-63.81 48.55,-72.86 58.5,-69.22 54.06,-63.81"/>
</g>
<!-- Node5 -->
<g id="node3" class="node">
<title>Node5</title>
<g id="a_node3"><a xlink:title=" ">
<polygon fill="none" stroke="#bfbfbf" points="0,-146.5 0,-165.5 76,-165.5 76,-146.5 0,-146.5"/>
<text text-anchor="middle" x="38" y="-153.5" font-family="Helvetica,sans-Serif" font-size="10.00">testing::Test</text>
</a>
</g>
</g>
<!-- Node5&#45;&gt;Node4 -->
<g id="edge2" class="edge">
<title>Node5&#45;&gt;Node4</title>
<path fill="none" stroke="midnightblue" d="M38,-136.09C38,-121.93 38,-103.2 38,-92.34"/>
<polygon fill="midnightblue" stroke="midnightblue" points="34.5,-136.23 38,-146.23 41.5,-136.23 34.5,-136.23"/>
</g>
<!-- Node6 -->
<g id="node4" class="node">
<title>Node6</title>
<g id="a_node4"><a xlink:href="class_string_collection.html" target="_top" xlink:title="String collection helper class, used by test classes to fetch.">
<polygon fill="none" stroke="black" points="77,-73 77,-92 171,-92 171,-73 77,-73"/>
<text text-anchor="middle" x="124" y="-80" font-family="Helvetica,sans-Serif" font-size="10.00">StringCollection</text>
</a>
</g>
</g>
<!-- Node6&#45;&gt;Node3 -->
<g id="edge3" class="edge">
<title>Node6&#45;&gt;Node3</title>
<path fill="none" stroke="#9a32cd" stroke-dasharray="5,2" d="M124,-62.44C124,-48.53 124,-30.32 124,-19.72"/>
<polygon fill="#9a32cd" stroke="#9a32cd" points="120.5,-62.86 124,-72.86 127.5,-62.86 120.5,-62.86"/>
<text text-anchor="middle" x="142.5" y="-41" font-family="Helvetica,sans-Serif" font-size="10.00"> strings</text>
</g>
<!-- Node7 -->
<g id="node5" class="node">
<title>Node7</title>
<g id="a_node5"><a xlink:href="structfiftyone_degrees_property_available_array.html" target="_top" xlink:title="Array of items of type fiftyoneDegreesPropertyAvailable used to easily access and track the size of t...">
<polygon fill="none" stroke="black" points="189,-67.5 189,-97.5 369,-97.5 369,-67.5 189,-67.5"/>
<text text-anchor="start" x="197" y="-85.5" font-family="Helvetica,sans-Serif" font-size="10.00">fiftyoneDegreesPropertyAvailable</text>
<text text-anchor="middle" x="279" y="-74.5" font-family="Helvetica,sans-Serif" font-size="10.00">Array</text>
</a>
</g>
</g>
<!-- Node7&#45;&gt;Node3 -->
<g id="edge4" class="edge">
<title>Node7&#45;&gt;Node3</title>
<path fill="none" stroke="#9a32cd" stroke-dasharray="5,2" d="M238.76,-63.2C207.81,-49.12 166.44,-30.3 142.76,-19.53"/>
<polygon fill="#9a32cd" stroke="#9a32cd" points="237.45,-66.45 248.01,-67.4 240.35,-60.08 237.45,-66.45"/>
<text text-anchor="middle" x="233.5" y="-41" font-family="Helvetica,sans-Serif" font-size="10.00"> properties</text>
</g>
<!-- Node8 -->
<g id="node6" class="node">
<title>Node8</title>
<g id="a_node6"><a xlink:href="structfiftyone_degrees_property_available.html" target="_top" xlink:title="Used to access the property item quickly without the need to search.">
<polygon fill="none" stroke="black" points="189,-146.5 189,-165.5 369,-165.5 369,-146.5 189,-146.5"/>
<text text-anchor="middle" x="279" y="-153.5" font-family="Helvetica,sans-Serif" font-size="10.00">fiftyoneDegreesPropertyAvailable</text>
</a>
</g>
</g>
<!-- Node8&#45;&gt;Node7 -->
<g id="edge5" class="edge">
<title>Node8&#45;&gt;Node7</title>
<path fill="none" stroke="#9a32cd" stroke-dasharray="5,2" d="M279,-135.9C279,-123.82 279,-108.47 279,-97.51"/>
<polygon fill="#9a32cd" stroke="#9a32cd" points="275.5,-136.23 279,-146.23 282.5,-136.23 275.5,-136.23"/>
<text text-anchor="middle" x="294.5" y="-119" font-family="Helvetica,sans-Serif" font-size="10.00"> items</text>
</g>
<!-- Node9 -->
<g id="node7" class="node">
<title>Node9</title>
<g id="a_node7"><a xlink:href="structfiftyone_degrees_evidence_property_index_array.html" target="_top" xlink:title="Array of items of type fiftyoneDegreesEvidencePropertyIndex used to easily access and track the size ...">
<polygon fill="none" stroke="black" points="174.5,-214.5 174.5,-244.5 353.5,-244.5 353.5,-214.5 174.5,-214.5"/>
<text text-anchor="start" x="182.5" y="-232.5" font-family="Helvetica,sans-Serif" font-size="10.00">fiftyoneDegreesEvidenceProperty</text>
<text text-anchor="middle" x="264" y="-221.5" font-family="Helvetica,sans-Serif" font-size="10.00">IndexArray</text>
</a>
</g>
</g>
<!-- Node9&#45;&gt;Node8 -->
<g id="edge6" class="edge">
<title>Node9&#45;&gt;Node8</title>
<path fill="none" stroke="#9a32cd" stroke-dasharray="5,2" d="M265.01,-204.21C265.61,-197.9 266.54,-191.15 268,-185 269.59,-178.29 272.47,-171.06 274.88,-165.62"/>
<polygon fill="#9a32cd" stroke="#9a32cd" points="261.52,-204.01 264.3,-214.23 268.5,-204.51 261.52,-204.01"/>
<text text-anchor="middle" x="316.5" y="-188" font-family="Helvetica,sans-Serif" font-size="10.00"> evidenceProperties</text>
</g>
<!-- Node10 -->
<g id="node8" class="node">
<title>Node10</title>
<g id="a_node8"><a xlink:href="structfiftyone_degrees_collection_item.html" target="_top" xlink:title="Used to store a handle to the underlying item that could be used to release the item when it&#39;s finish...">
<polygon fill="none" stroke="black" points="371.5,-220 371.5,-239 536.5,-239 536.5,-220 371.5,-220"/>
<text text-anchor="middle" x="454" y="-227" font-family="Helvetica,sans-Serif" font-size="10.00">fiftyoneDegreesCollectionItem</text>
</a>
</g>
</g>
<!-- Node10&#45;&gt;Node8 -->
<g id="edge7" class="edge">
<title>Node10&#45;&gt;Node8</title>
<path fill="none" stroke="#9a32cd" stroke-dasharray="5,2" d="M429.19,-215.21C411.57,-206.06 387.19,-193.99 365,-185 346.66,-177.58 325.54,-170.68 308.82,-165.58"/>
<polygon fill="#9a32cd" stroke="#9a32cd" points="427.75,-218.41 438.23,-219.95 431,-212.21 427.75,-218.41"/>
<text text-anchor="middle" x="405.5" y="-188" font-family="Helvetica,sans-Serif" font-size="10.00"> name</text>
</g>
<!-- Node11 -->
<g id="node9" class="node">
<title>Node11</title>
<g id="a_node9"><a xlink:href="structfiftyone_degrees_collection.html" target="_top" xlink:title="All the shared methods and fields required by file, memory and cached collections.">
<polygon fill="none" stroke="black" points="417.5,-146.5 417.5,-165.5 560.5,-165.5 560.5,-146.5 417.5,-146.5"/>
<text text-anchor="middle" x="489" y="-153.5" font-family="Helvetica,sans-Serif" font-size="10.00">fiftyoneDegreesCollection</text>
</a>
</g>
</g>
<!-- Node10&#45;&gt;Node11 -->
<g id="edge9" class="edge">
<title>Node10&#45;&gt;Node11</title>
<path fill="none" stroke="#9a32cd" stroke-dasharray="5,2" d="M441.43,-211.23C437.03,-202.96 434.25,-193.11 439,-185 444.18,-176.16 453.29,-169.9 462.32,-165.58"/>
<polygon fill="#9a32cd" stroke="#9a32cd" points="438.49,-213.12 446.77,-219.73 444.41,-209.4 438.49,-213.12"/>
<text text-anchor="middle" x="459" y="-188" font-family="Helvetica,sans-Serif" font-size="10.00"> release</text>
</g>
<!-- Node11&#45;&gt;Node10 -->
<g id="edge8" class="edge">
<title>Node11&#45;&gt;Node10</title>
<path fill="none" stroke="#9a32cd" stroke-dasharray="5,2" d="M488.28,-175.91C487.47,-182.51 485.92,-189.81 483,-196 478.61,-205.3 470.7,-213.89 464.25,-219.9"/>
<polygon fill="#9a32cd" stroke="#9a32cd" points="491.79,-176.02 489.06,-165.78 484.81,-175.48 491.79,-176.02"/>
<text text-anchor="middle" x="511.5" y="-188" font-family="Helvetica,sans-Serif" font-size="10.00"> collection</text>
</g>
<!-- Node11&#45;&gt;Node11 -->
<g id="edge10" class="edge">
<title>Node11&#45;&gt;Node11</title>
<path fill="none" stroke="#9a32cd" stroke-dasharray="5,2" d="M570.61,-160.41C575.54,-159.36 578.5,-157.89 578.5,-156 578.5,-153.04 571.29,-151.12 560.63,-150.22"/>
<polygon fill="#9a32cd" stroke="#9a32cd" points="570.06,-156.96 560.63,-161.78 571.01,-163.89 570.06,-156.96"/>
<text text-anchor="middle" x="614.5" y="-159" font-family="Helvetica,sans-Serif" font-size="10.00"> freeCollection</text>
<text text-anchor="middle" x="614.5" y="-148" font-family="Helvetica,sans-Serif" font-size="10.00">get</text>
</g>
<!-- Node12 -->
<g id="node10" class="node">
<title>Node12</title>
<g id="a_node10"><a xlink:href="structfiftyone_degrees_data.html" target="_top" xlink:title="Data structure used for reusing memory which may have been allocated in a previous operation.">
<polygon fill="none" stroke="black" points="395.5,-292.5 395.5,-311.5 512.5,-311.5 512.5,-292.5 395.5,-292.5"/>
<text text-anchor="middle" x="454" y="-299.5" font-family="Helvetica,sans-Serif" font-size="10.00">fiftyoneDegreesData</text>
</a>
</g>
</g>
<!-- Node12&#45;&gt;Node10 -->
<g id="edge11" class="edge">
<title>Node12&#45;&gt;Node10</title>
<path fill="none" stroke="#9a32cd" stroke-dasharray="5,2" d="M454,-281.94C454,-268.03 454,-249.82 454,-239.22"/>
<polygon fill="#9a32cd" stroke="#9a32cd" points="450.5,-282.36 454,-292.36 457.5,-282.36 450.5,-282.36"/>
<text text-anchor="middle" x="466.5" y="-266" font-family="Helvetica,sans-Serif" font-size="10.00"> data</text>
</g>
</g>
</svg>
