<?xml version="1.0" encoding="UTF-8" standalone="no"?>
<!DOCTYPE svg PUBLIC "-//W3C//DTD SVG 1.1//EN"
 "http://www.w3.org/Graphics/SVG/1.1/DTD/svg11.dtd">
<!-- Generated by graphviz version 2.43.0 (0)
 -->
<!-- Title: Properties Pages: 1 -->
<svg width="656pt" height="331pt"
 viewBox="0.00 0.00 655.50 331.00" xmlns="http://www.w3.org/2000/svg" xmlns:xlink="http://www.w3.org/1999/xlink">
<g id="graph0" class="graph" transform="scale(1 1) rotate(0) translate(4 327)">
<title>Properties</title>
<!-- Node3 -->
<g id="node1" class="node">
<title>Node3</title>
<g id="a_node1"><a xlink:title="Properties test class used to test the functionality of properties.c.">
<polygon fill="#bfbfbf" stroke="black" points="91,-0.5 91,-19.5 157,-19.5 157,-0.5 91,-0.5"/>
<text text-anchor="middle" x="124" y="-7.5" font-family="Helvetica,sans-Serif" font-size="10.00">Properties</text>
</a>
</g>
</g>
<!-- Node4 -->
<g id="node2" class="node">
<title>Node4</title>
<g id="a_node2"><a xlink:href="class_base.html" target="_top" xlink:title="Base test class used to carry out memory leak checks.">
<polygon fill="none" stroke="black" points="17.5,-73 17.5,-92 58.5,-92 58.5,-73 17.5,-73"/>
<text text-anchor="middle" x="38" y="-80" font-family="Helvetica,sans-Serif" font-size="10.00">Base</text>
</a>
</g>
</g>
<!-- Node4&#45;&gt;Node3 -->
<g id="edge1" class="edge">
<title>Node4&#45;&gt;Node3</title>
<path fill="none" stroke="midnightblue" d="M56.33,-66.47C73.68,-52.25 99.14,-31.38 113.37,-19.72"/>
<polygon fill="midnightblue" stroke="midnightblue" points="54.06,-63.81 48.55,-72.86 58.5,-69.22 54.06,-63.81"/>
</g>
<!-- Node5 -->
<g id="node3" class="node">
<title>Node5</title>
<g id="a_node3"><a xlink:title=" ">
<polygon fill="none" stroke="#bfbfbf" points="0,-152 0,-171 76,-171 76,-152 0,-152"/>
<text text-anchor="middle" x="38" y="-159" font-family="Helvetica,sans-Serif" font-size="10.00">testing::Test</text>
</a>
</g>
</g>
<!-- Node5&#45;&gt;Node4 -->
<g id="edge2" class="edge">
<title>Node5&#45;&gt;Node4</title>
<path fill="none" stroke="midnightblue" d="M38,-141.81C38,-126.09 38,-104.31 38,-92.31"/>
<polygon fill="midnightblue" stroke="midnightblue" points="34.5,-141.97 38,-151.97 41.5,-141.97 34.5,-141.97"/>
</g>
<!-- Node6 -->
<g id="node4" class="node">
<title>Node6</title>
<g id="a_node4"><a xlink:href="class_string_collection.html" target="_top" xlink:title="String collection helper class, used by test classes to fetch.">
<polygon fill="none" stroke="black" points="77,-73 77,-92 171,-92 171,-73 77,-73"/>
<text text-anchor="middle" x="124" y="-80" font-family="Helvetica,sans-Serif" font-size="10.00">StringCollection</text>
</a>
</g>
</g>
<!-- Node6&#45;&gt;Node3 -->
<g id="edge3" class="edge">
<title>Node6&#45;&gt;Node3</title>
<path fill="none" stroke="#9a32cd" stroke-dasharray="5,2" d="M124,-62.44C124,-48.53 124,-30.32 124,-19.72"/>
<polygon fill="#9a32cd" stroke="#9a32cd" points="120.5,-62.86 124,-72.86 127.5,-62.86 120.5,-62.86"/>
<text text-anchor="middle" x="142.5" y="-41" font-family="Helvetica,sans-Serif" font-size="10.00"> strings</text>
</g>
<!-- Node7 -->
<g id="node5" class="node">
<title>Node7</title>
<g id="a_node5"><a xlink:href="structfiftyone_degrees_property_available_array.html" target="_top" xlink:title="Array of items of type fiftyoneDegreesPropertyAvailable used to easily access and track the size of t...">
<polygon fill="none" stroke="black" points="189,-67.5 189,-97.5 369,-97.5 369,-67.5 189,-67.5"/>
<text text-anchor="start" x="197" y="-85.5" font-family="Helvetica,sans-Serif" font-size="10.00">fiftyoneDegreesPropertyAvailable</text>
<text text-anchor="middle" x="279" y="-74.5" font-family="Helvetica,sans-Serif" font-size="10.00">Array</text>
</a>
</g>
</g>
<!-- Node7&#45;&gt;Node3 -->
<g id="edge4" class="edge">
<title>Node7&#45;&gt;Node3</title>
<path fill="none" stroke="#9a32cd" stroke-dasharray="5,2" d="M238.76,-63.2C207.81,-49.12 166.44,-30.3 142.76,-19.53"/>
<polygon fill="#9a32cd" stroke="#9a32cd" points="237.45,-66.45 248.01,-67.4 240.35,-60.08 237.45,-66.45"/>
<text text-anchor="middle" x="233.5" y="-41" font-family="Helvetica,sans-Serif" font-size="10.00"> properties</text>
</g>
<!-- Node8 -->
<g id="node6" class="node">
<title>Node8</title>
<g id="a_node6"><a xlink:href="structfiftyone_degrees_property_available.html" target="_top" xlink:title="Used to access the property item quickly without the need to search.">
<polygon fill="none" stroke="black" points="189,-152 189,-171 369,-171 369,-152 189,-152"/>
<text text-anchor="middle" x="279" y="-159" font-family="Helvetica,sans-Serif" font-size="10.00">fiftyoneDegreesPropertyAvailable</text>
</a>
</g>
</g>
<!-- Node8&#45;&gt;Node7 -->
<g id="edge5" class="edge">
<title>Node8&#45;&gt;Node7</title>
<path fill="none" stroke="#9a32cd" stroke-dasharray="5,2" d="M279,-141.8C279,-128.16 279,-109.96 279,-97.54"/>
<polygon fill="#9a32cd" stroke="#9a32cd" points="275.5,-141.97 279,-151.97 282.5,-141.97 275.5,-141.97"/>
<text text-anchor="middle" x="294.5" y="-119" font-family="Helvetica,sans-Serif" font-size="10.00"> items</text>
</g>
<!-- Node9 -->
<g id="node7" class="node">
<title>Node9</title>
<g id="a_node7"><a xlink:href="structfiftyone_degrees_evidence_property_index_array.html" target="_top" xlink:title="Array of items of type fiftyoneDegreesEvidencePropertyIndex used to easily access and track the size ...">
<polygon fill="none" stroke="black" points="174.5,-225.5 174.5,-255.5 353.5,-255.5 353.5,-225.5 174.5,-225.5"/>
<text text-anchor="start" x="182.5" y="-243.5" font-family="Helvetica,sans-Serif" font-size="10.00">fiftyoneDegreesEvidenceProperty</text>
<text text-anchor="middle" x="264" y="-232.5" font-family="Helvetica,sans-Serif" font-size="10.00">IndexArray</text>
</a>
</g>
</g>
<!-- Node9&#45;&gt;Node8 -->
<g id="edge6" class="edge">
<title>Node9&#45;&gt;Node8</title>
<path fill="none" stroke="#9a32cd" stroke-dasharray="5,2" d="M265.25,-215.26C265.85,-208.95 266.72,-202.18 268,-196 269.79,-187.37 273.05,-177.85 275.55,-171.17"/>
<polygon fill="#9a32cd" stroke="#9a32cd" points="261.76,-215.04 264.5,-225.28 268.74,-215.57 261.76,-215.04"/>
<text text-anchor="middle" x="316.5" y="-199" font-family="Helvetica,sans-Serif" font-size="10.00"> evidenceProperties</text>
</g>
<!-- Node10 -->
<g id="node8" class="node">
<title>Node10</title>
<g id="a_node8"><a xlink:href="structfiftyone_degrees_collection_item.html" target="_top" xlink:title="Used to store a handle to the underlying item that could be used to release the item when it&#39;s finish...">
<polygon fill="none" stroke="black" points="371.5,-231 371.5,-250 536.5,-250 536.5,-231 371.5,-231"/>
<text text-anchor="middle" x="454" y="-238" font-family="Helvetica,sans-Serif" font-size="10.00">fiftyoneDegreesCollectionItem</text>
</a>
</g>
</g>
<!-- Node10&#45;&gt;Node8 -->
<g id="edge7" class="edge">
<title>Node10&#45;&gt;Node8</title>
<path fill="none" stroke="#9a32cd" stroke-dasharray="5,2" d="M428.38,-226.27C410.74,-217.34 386.66,-205.49 365,-196 344.16,-186.87 319.98,-177.56 302.58,-171.08"/>
<polygon fill="#9a32cd" stroke="#9a32cd" points="426.96,-229.48 437.46,-230.9 430.14,-223.24 426.96,-229.48"/>
<text text-anchor="middle" x="403.5" y="-199" font-family="Helvetica,sans-Serif" font-size="10.00"> name</text>
</g>
<!-- Node11 -->
<g id="node9" class="node">
<title>Node11</title>
<g id="a_node9"><a xlink:href="structfiftyone_degrees_collection.html" target="_top" xlink:title="All the shared methods and fields required by file, memory and cached collections.">
<polygon fill="none" stroke="black" points="417.5,-152 417.5,-171 560.5,-171 560.5,-152 417.5,-152"/>
<text text-anchor="middle" x="489" y="-159" font-family="Helvetica,sans-Serif" font-size="10.00">fiftyoneDegreesCollection</text>
</a>
</g>
</g>
<!-- Node10&#45;&gt;Node11 -->
<g id="edge9" class="edge">
<title>Node10&#45;&gt;Node11</title>
<path fill="none" stroke="#9a32cd" stroke-dasharray="5,2" d="M441.58,-222.13C437.33,-213.95 434.62,-204.21 439,-196 445.05,-184.66 456.83,-176.49 467.44,-171.05"/>
<polygon fill="#9a32cd" stroke="#9a32cd" points="438.72,-224.16 446.95,-230.83 444.68,-220.48 438.72,-224.16"/>
<text text-anchor="middle" x="459" y="-199" font-family="Helvetica,sans-Serif" font-size="10.00"> release</text>
</g>
<!-- Node11&#45;&gt;Node10 -->
<g id="edge8" class="edge">
<title>Node11&#45;&gt;Node10</title>
<path fill="none" stroke="#9a32cd" stroke-dasharray="5,2" d="M488.92,-181.21C488.28,-189.43 486.67,-199.02 483,-207 478.7,-216.34 470.78,-224.93 464.31,-230.93"/>
<polygon fill="#9a32cd" stroke="#9a32cd" points="492.42,-181.24 489.3,-171.11 485.42,-180.97 492.42,-181.24"/>
<text text-anchor="middle" x="511.5" y="-199" font-family="Helvetica,sans-Serif" font-size="10.00"> collection</text>
</g>
<!-- Node11&#45;&gt;Node11 -->
<g id="edge10" class="edge">
<title>Node11&#45;&gt;Node11</title>
<path fill="none" stroke="#9a32cd" stroke-dasharray="5,2" d="M570.61,-166.69C575.54,-165.46 578.5,-163.73 578.5,-161.5 578.5,-158.02 571.29,-155.76 560.63,-154.7"/>
<polygon fill="#9a32cd" stroke="#9a32cd" points="569.94,-163.26 560.63,-168.3 571.06,-170.17 569.94,-163.26"/>
<text text-anchor="middle" x="613" y="-170" font-family="Helvetica,sans-Serif" font-size="10.00"> next</text>
<text text-anchor="middle" x="613" y="-159" font-family="Helvetica,sans-Serif" font-size="10.00">freeCollection</text>
<text text-anchor="middle" x="613" y="-148" font-family="Helvetica,sans-Serif" font-size="10.00">get</text>
</g>
<!-- Node12 -->
<g id="node10" class="node">
<title>Node12</title>
<g id="a_node10"><a xlink:href="structfiftyone_degrees_data.html" target="_top" xlink:title="Data structure used for reusing memory which may have been allocated in a previous operation.">
<polygon fill="none" stroke="black" points="395.5,-303.5 395.5,-322.5 512.5,-322.5 512.5,-303.5 395.5,-303.5"/>
<text text-anchor="middle" x="454" y="-310.5" font-family="Helvetica,sans-Serif" font-size="10.00">fiftyoneDegreesData</text>
</a>
</g>
</g>
<!-- Node12&#45;&gt;Node10 -->
<g id="edge11" class="edge">
<title>Node12&#45;&gt;Node10</title>
<path fill="none" stroke="#9a32cd" stroke-dasharray="5,2" d="M454,-292.94C454,-279.03 454,-260.82 454,-250.22"/>
<polygon fill="#9a32cd" stroke="#9a32cd" points="450.5,-293.36 454,-303.36 457.5,-293.36 450.5,-293.36"/>
<text text-anchor="middle" x="466.5" y="-277" font-family="Helvetica,sans-Serif" font-size="10.00"> data</text>
</g>
</g>
</svg>
