<?xml version="1.0" encoding="UTF-8" standalone="no"?>
<!DOCTYPE svg PUBLIC "-//W3C//DTD SVG 1.1//EN"
 "http://www.w3.org/Graphics/SVG/1.1/DTD/svg11.dtd">
<!-- Generated by graphviz version 2.43.0 (0)
 -->
<!-- Title: FiftyoneDegrees::Common::EvidenceBase Pages: 1 -->
<svg width="169pt" height="163pt"
 viewBox="0.00 0.00 169.00 163.00" xmlns="http://www.w3.org/2000/svg" xmlns:xlink="http://www.w3.org/1999/xlink">
<g id="graph0" class="graph" transform="scale(1 1) rotate(0) translate(4 159)">
<title>FiftyoneDegrees::Common::EvidenceBase</title>
<!-- Node4 -->
<g id="node1" class="node">
<title>Node4</title>
<g id="a_node1"><a xlink:title="Base evidence class containing evidence to be processed by an engine.">
<polygon fill="#bfbfbf" stroke="black" points="0,-0.5 0,-30.5 146,-30.5 146,-0.5 0,-0.5"/>
<text text-anchor="start" x="8" y="-18.5" font-family="Helvetica,sans-Serif" font-size="10.00">FiftyoneDegrees::Common</text>
<text text-anchor="middle" x="73" y="-7.5" font-family="Helvetica,sans-Serif" font-size="10.00">::EvidenceBase</text>
</a>
</g>
</g>
<!-- Node5 -->
<g id="node2" class="node">
<title>Node5</title>
<g id="a_node2"><a xlink:href="structmap.html" target="_top" xlink:title=" ">
<polygon fill="none" stroke="black" points="12,-68.5 12,-87.5 134,-87.5 134,-68.5 12,-68.5"/>
<text text-anchor="middle" x="73" y="-75.5" font-family="Helvetica,sans-Serif" font-size="10.00">map&lt; string, string &gt;</text>
</a>
</g>
</g>
<!-- Node5&#45;&gt;Node4 -->
<g id="edge1" class="edge">
<title>Node5&#45;&gt;Node4</title>
<path fill="none" stroke="midnightblue" d="M73,-58.22C73,-49.36 73,-38.96 73,-30.76"/>
<polygon fill="midnightblue" stroke="midnightblue" points="69.5,-58.33 73,-68.33 76.5,-58.33 69.5,-58.33"/>
</g>
<!-- Node6 -->
<g id="node3" class="node">
<title>Node6</title>
<g id="a_node3"><a xlink:href="structmap.html" target="_top" xlink:title=" ">
<polygon fill="none" stroke="black" points="54,-135.5 54,-154.5 92,-154.5 92,-135.5 54,-135.5"/>
<text text-anchor="middle" x="73" y="-142.5" font-family="Helvetica,sans-Serif" font-size="10.00">map</text>
</a>
</g>
</g>
<!-- Node6&#45;&gt;Node5 -->
<g id="edge2" class="edge">
<title>Node6&#45;&gt;Node5</title>
<path fill="none" stroke="orange" stroke-dasharray="5,2" d="M73,-125.04C73,-112.67 73,-97.12 73,-87.63"/>
<polygon fill="orange" stroke="orange" points="69.5,-125.23 73,-135.23 76.5,-125.23 69.5,-125.23"/>
<text text-anchor="middle" x="117" y="-109" font-family="Helvetica,sans-Serif" font-size="10.00"> &lt; string, string &gt;</text>
</g>
</g>
</svg>
