<?xml version="1.0" encoding="UTF-8" standalone="no"?>
<!DOCTYPE svg PUBLIC "-//W3C//DTD SVG 1.1//EN"
 "http://www.w3.org/Graphics/SVG/1.1/DTD/svg11.dtd">
<!-- Generated by graphviz version 2.43.0 (0)
 -->
<!-- Title: Common Pages: 1 -->
<svg width="212pt" height="1174pt"
 viewBox="0.00 0.00 212.00 1174.00" xmlns="http://www.w3.org/2000/svg" xmlns:xlink="http://www.w3.org/1999/xlink">
<g id="graph0" class="graph" transform="scale(1 1) rotate(0) translate(4 1170)">
<title>Common</title>
<!-- Node0 -->
<g id="node1" class="node">
<title>Node0</title>
<g id="a_node1"><a xlink:title="Common 51Degrees methods, types and macros.">
<polygon fill="#bfbfbf" stroke="black" points="61,-592 0,-592 0,-573 61,-573 61,-592"/>
<text text-anchor="middle" x="30.5" y="-580" font-family="Helvetica,sans-Serif" font-size="10.00">Common</text>
</a>
</g>
</g>
<!-- Node3 -->
<g id="node2" class="node">
<title>Node3</title>
<g id="a_node2"><a xlink:href="group___fifty_one_degrees_collection.html" target="_top" xlink:title="Group of related items such as strings.">
<polygon fill="none" stroke="black" points="183,-1166 118,-1166 118,-1147 183,-1147 183,-1166"/>
<text text-anchor="middle" x="150.5" y="-1154" font-family="Helvetica,sans-Serif" font-size="10.00">Collection</text>
</a>
</g>
</g>
<!-- Node0&#45;&gt;Node3 -->
<g id="edge3" class="edge">
<title>Node0&#45;&gt;Node3</title>
<path fill="none" stroke="black" d="M31.11,-602.21C29.76,-691.07 28.59,-1053.71 97,-1138.5 102.26,-1145.02 110.01,-1149.19 117.95,-1151.85"/>
<polygon fill="black" stroke="black" points="34.61,-602.21 31.29,-592.15 27.61,-602.09 34.61,-602.21"/>
</g>
<!-- Node18 -->
<g id="node3" class="node">
<title>Node18</title>
<g id="a_node3"><a xlink:href="group___fifty_one_degrees_list.html" target="_top" xlink:title="A more manageable way to store arrays.">
<polygon fill="none" stroke="black" points="167.5,-1129 133.5,-1129 133.5,-1110 167.5,-1110 167.5,-1129"/>
<text text-anchor="middle" x="150.5" y="-1117" font-family="Helvetica,sans-Serif" font-size="10.00">List</text>
</a>
</g>
</g>
<!-- Node0&#45;&gt;Node18 -->
<g id="edge18" class="edge">
<title>Node0&#45;&gt;Node18</title>
<path fill="none" stroke="black" d="M31.3,-602.51C30.83,-688.15 33.16,-1023.04 97,-1101.5 105.76,-1112.26 121.27,-1116.61 133.17,-1118.36"/>
<polygon fill="black" stroke="black" points="34.8,-602.35 31.37,-592.33 27.8,-602.3 34.8,-602.35"/>
</g>
<!-- Node26 -->
<g id="node4" class="node">
<title>Node26</title>
<g id="a_node4"><a xlink:href="group___fifty_one_degrees_results.html" target="_top" xlink:title="Structure returned by an engine&#39;s process method(s), containing values.">
<polygon fill="none" stroke="black" points="177,-1092 124,-1092 124,-1073 177,-1073 177,-1092"/>
<text text-anchor="middle" x="150.5" y="-1080" font-family="Helvetica,sans-Serif" font-size="10.00">Results</text>
</a>
</g>
</g>
<!-- Node0&#45;&gt;Node26 -->
<g id="edge26" class="edge">
<title>Node0&#45;&gt;Node26</title>
<path fill="none" stroke="black" d="M31.51,-602.35C31.96,-683.9 37.6,-992.2 97,-1064.5 103.61,-1072.54 113.98,-1077 123.77,-1079.47"/>
<polygon fill="black" stroke="black" points="35.01,-602.01 31.48,-592.02 28.01,-602.03 35.01,-602.01"/>
</g>
<!-- Node29 -->
<g id="node5" class="node">
<title>Node29</title>
<g id="a_node5"><a xlink:href="group___fifty_one_degrees_text_file.html" target="_top" xlink:title="Contains helper methods for accessing and using text files.">
<polygon fill="none" stroke="black" points="177.5,-1055 123.5,-1055 123.5,-1036 177.5,-1036 177.5,-1055"/>
<text text-anchor="middle" x="150.5" y="-1043" font-family="Helvetica,sans-Serif" font-size="10.00">TextFile</text>
</a>
</g>
</g>
<!-- Node0&#45;&gt;Node29 -->
<g id="edge29" class="edge">
<title>Node0&#45;&gt;Node29</title>
<path fill="none" stroke="black" d="M31.76,-602.3C33.17,-679.77 42.05,-961.37 97,-1027.5 103.53,-1035.36 113.65,-1039.79 123.27,-1042.29"/>
<polygon fill="black" stroke="black" points="35.26,-601.98 31.6,-592.04 28.26,-602.09 35.26,-601.98"/>
</g>
<!-- Node23 -->
<g id="node6" class="node">
<title>Node23</title>
<g id="a_node6"><a xlink:href="group___fifty_one_degrees_properties.html" target="_top" xlink:title="Structures for properties which are available, or required.">
<polygon fill="none" stroke="black" points="183.5,-1018 117.5,-1018 117.5,-999 183.5,-999 183.5,-1018"/>
<text text-anchor="middle" x="150.5" y="-1006" font-family="Helvetica,sans-Serif" font-size="10.00">Properties</text>
</a>
</g>
</g>
<!-- Node0&#45;&gt;Node23 -->
<g id="edge23" class="edge">
<title>Node0&#45;&gt;Node23</title>
<path fill="none" stroke="black" d="M32.06,-602.52C34.51,-676.13 46.56,-930.6 97,-990.5 102.21,-996.69 109.66,-1000.76 117.31,-1003.43"/>
<polygon fill="black" stroke="black" points="35.55,-602.2 31.75,-592.32 28.56,-602.42 35.55,-602.2"/>
</g>
<!-- Node30 -->
<g id="node7" class="node">
<title>Node30</title>
<g id="a_node7"><a xlink:href="group___fifty_one_degrees_threading.html" target="_top" xlink:title="Defines multi threading macros if the FIFTYONE_DEGREES_NO_THREADING compiler directive is not explici...">
<polygon fill="none" stroke="black" points="183,-981 118,-981 118,-962 183,-962 183,-981"/>
<text text-anchor="middle" x="150.5" y="-969" font-family="Helvetica,sans-Serif" font-size="10.00">Threading</text>
</a>
</g>
</g>
<!-- Node0&#45;&gt;Node30 -->
<g id="edge30" class="edge">
<title>Node0&#45;&gt;Node30</title>
<path fill="none" stroke="black" d="M32.41,-602.45C35.95,-671.6 50.98,-899.7 97,-953.5 102.39,-959.8 110.08,-963.89 117.92,-966.56"/>
<polygon fill="black" stroke="black" points="35.89,-601.93 31.91,-592.11 28.9,-602.27 35.89,-601.93"/>
</g>
<!-- Node4 -->
<g id="node8" class="node">
<title>Node4</title>
<g id="a_node8"><a xlink:href="group___fifty_one_degrees_component.html" target="_top" xlink:title="Component of a data set.">
<polygon fill="none" stroke="black" points="187,-944 114,-944 114,-925 187,-925 187,-944"/>
<text text-anchor="middle" x="150.5" y="-932" font-family="Helvetica,sans-Serif" font-size="10.00">Component</text>
</a>
</g>
</g>
<!-- Node0&#45;&gt;Node4 -->
<g id="edge4" class="edge">
<title>Node0&#45;&gt;Node4</title>
<path fill="none" stroke="black" d="M32.81,-602.12C37.49,-666.31 55.33,-868.71 97,-916.5 101.5,-921.66 107.54,-925.34 113.92,-927.96"/>
<polygon fill="black" stroke="black" points="36.3,-601.84 32.11,-592.11 29.32,-602.33 36.3,-601.84"/>
</g>
<!-- Node10 -->
<g id="node9" class="node">
<title>Node10</title>
<g id="a_node9"><a xlink:href="group___fifty_one_degrees_exceptions.html" target="_top" xlink:title="Allow the bubbling up or errors in C.">
<polygon fill="none" stroke="black" points="185.5,-907 115.5,-907 115.5,-888 185.5,-888 185.5,-907"/>
<text text-anchor="middle" x="150.5" y="-895" font-family="Helvetica,sans-Serif" font-size="10.00">Exceptions</text>
</a>
</g>
</g>
<!-- Node0&#45;&gt;Node10 -->
<g id="edge10" class="edge">
<title>Node0&#45;&gt;Node10</title>
<path fill="none" stroke="black" d="M33.35,-602.23C39.3,-661.72 59.75,-837.78 97,-879.5 101.88,-884.96 108.49,-888.77 115.37,-891.42"/>
<polygon fill="black" stroke="black" points="36.83,-601.87 32.38,-592.25 29.86,-602.54 36.83,-601.87"/>
</g>
<!-- Node13 -->
<g id="node10" class="node">
<title>Node13</title>
<g id="a_node10"><a xlink:href="group__fiftyone_degrees_float.html" target="_top" xlink:title="IEEE Single Precision Floating Point standard implementation and methods to convert to native float t...">
<polygon fill="none" stroke="black" points="171,-870 130,-870 130,-851 171,-851 171,-870"/>
<text text-anchor="middle" x="150.5" y="-858" font-family="Helvetica,sans-Serif" font-size="10.00">Float</text>
</a>
</g>
</g>
<!-- Node0&#45;&gt;Node13 -->
<g id="edge13" class="edge">
<title>Node0&#45;&gt;Node13</title>
<path fill="none" stroke="black" d="M34.02,-602.22C41.33,-656.55 64.12,-806.76 97,-842.5 105.41,-851.65 118.68,-856.15 129.77,-858.36"/>
<polygon fill="black" stroke="black" points="37.47,-601.61 32.7,-592.16 30.53,-602.53 37.47,-601.61"/>
</g>
<!-- Node32 -->
<g id="node11" class="node">
<title>Node32</title>
<g id="a_node11"><a xlink:href="group___fifty_one_degrees_value.html" target="_top" xlink:title="Value of a data set relating to a property.">
<polygon fill="none" stroke="black" points="175,-833 126,-833 126,-814 175,-814 175,-833"/>
<text text-anchor="middle" x="150.5" y="-821" font-family="Helvetica,sans-Serif" font-size="10.00">Values</text>
</a>
</g>
</g>
<!-- Node0&#45;&gt;Node32 -->
<g id="edge32" class="edge">
<title>Node0&#45;&gt;Node32</title>
<path fill="none" stroke="black" d="M31.55,-602.26C32.73,-645.14 41.56,-747.53 97,-805.5 104.59,-813.44 115.83,-817.88 125.97,-820.36"/>
<polygon fill="black" stroke="black" points="35.04,-601.99 31.38,-592.04 28.04,-602.1 35.04,-601.99"/>
</g>
<!-- Node11 -->
<g id="node12" class="node">
<title>Node11</title>
<g id="a_node12"><a xlink:href="group___fifty_one_degrees_synonyms.html" target="_top" xlink:title="Quick shortenings of common methods and types.">
<polygon fill="none" stroke="black" points="184.5,-796 116.5,-796 116.5,-777 184.5,-777 184.5,-796"/>
<text text-anchor="middle" x="150.5" y="-784" font-family="Helvetica,sans-Serif" font-size="10.00">Synonyms</text>
</a>
</g>
</g>
<!-- Node0&#45;&gt;Node11 -->
<g id="edge11" class="edge">
<title>Node0&#45;&gt;Node11</title>
<path fill="none" stroke="black" d="M32.92,-602.28C36.68,-639.86 50.08,-721.96 97,-768.5 102.34,-773.79 109.29,-777.53 116.39,-780.17"/>
<polygon fill="black" stroke="black" points="36.39,-601.79 32.04,-592.13 29.42,-602.4 36.39,-601.79"/>
</g>
<!-- Node21 -->
<g id="node13" class="node">
<title>Node21</title>
<g id="a_node13"><a xlink:href="group___fifty_one_degrees_pool.html" target="_top" xlink:title="Pool of handles to allow safe access to multiple threads.">
<polygon fill="none" stroke="black" points="169.5,-759 131.5,-759 131.5,-740 169.5,-740 169.5,-759"/>
<text text-anchor="middle" x="150.5" y="-747" font-family="Helvetica,sans-Serif" font-size="10.00">Pool</text>
</a>
</g>
</g>
<!-- Node0&#45;&gt;Node21 -->
<g id="edge21" class="edge">
<title>Node0&#45;&gt;Node21</title>
<path fill="none" stroke="black" d="M34.91,-602.23C41.4,-633.89 58.47,-696.07 97,-731.5 106.43,-740.17 120.24,-744.69 131.32,-747.03"/>
<polygon fill="black" stroke="black" points="38.29,-601.23 32.98,-592.05 31.41,-602.53 38.29,-601.23"/>
</g>
<!-- Node20 -->
<g id="node14" class="node">
<title>Node20</title>
<g id="a_node14"><a xlink:href="group___fifty_one_degrees_overrides.html" target="_top" xlink:title="Used to override properties values or an entire profile.">
<polygon fill="none" stroke="black" points="182.5,-722 118.5,-722 118.5,-703 182.5,-703 182.5,-722"/>
<text text-anchor="middle" x="150.5" y="-710" font-family="Helvetica,sans-Serif" font-size="10.00">Overrides</text>
</a>
</g>
</g>
<!-- Node0&#45;&gt;Node20 -->
<g id="edge20" class="edge">
<title>Node0&#45;&gt;Node20</title>
<path fill="none" stroke="black" d="M37.99,-601.88C47.26,-626.75 66.63,-669.64 97,-694.5 103.19,-699.57 110.88,-703.24 118.46,-705.89"/>
<polygon fill="black" stroke="black" points="41.17,-600.39 34.53,-592.14 34.57,-602.73 41.17,-600.39"/>
</g>
<!-- Node16 -->
<g id="node15" class="node">
<title>Node16</title>
<g id="a_node15"><a xlink:href="group__fiftyone_degrees_ip.html" target="_top" xlink:title="Types and methods to parse IP address strings.">
<polygon fill="none" stroke="black" points="165,-685 136,-685 136,-666 165,-666 165,-685"/>
<text text-anchor="middle" x="150.5" y="-673" font-family="Helvetica,sans-Serif" font-size="10.00">IP</text>
</a>
</g>
</g>
<!-- Node0&#45;&gt;Node16 -->
<g id="edge16" class="edge">
<title>Node0&#45;&gt;Node16</title>
<path fill="none" stroke="black" d="M43.22,-600.7C54.96,-617.6 74.48,-642.37 97,-657.5 108.84,-665.45 124.53,-670.23 135.67,-672.84"/>
<polygon fill="black" stroke="black" points="46.01,-598.58 37.53,-592.23 40.2,-602.49 46.01,-598.58"/>
</g>
<!-- Node27 -->
<g id="node16" class="node">
<title>Node27</title>
<g id="a_node16"><a xlink:href="group___fifty_one_degrees_status.html" target="_top" xlink:title="Status codes and messages indicating the result of an operation.">
<polygon fill="none" stroke="black" points="174,-648 127,-648 127,-629 174,-629 174,-648"/>
<text text-anchor="middle" x="150.5" y="-636" font-family="Helvetica,sans-Serif" font-size="10.00">Status</text>
</a>
</g>
</g>
<!-- Node0&#45;&gt;Node27 -->
<g id="edge27" class="edge">
<title>Node0&#45;&gt;Node27</title>
<path fill="none" stroke="black" d="M54.82,-597.53C67.07,-605.03 82.51,-613.89 97,-620.5 106.56,-624.86 117.49,-628.77 126.9,-631.82"/>
<polygon fill="black" stroke="black" points="56.48,-594.44 46.15,-592.11 52.78,-600.38 56.48,-594.44"/>
</g>
<!-- Node1 -->
<g id="node17" class="node">
<title>Node1</title>
<g id="a_node17"><a xlink:href="group___fifty_one_degrees_array.html" target="_top" xlink:title="Macros used to quickly define array structures.">
<polygon fill="none" stroke="black" points="174.5,-611 126.5,-611 126.5,-592 174.5,-592 174.5,-611"/>
<text text-anchor="middle" x="150.5" y="-599" font-family="Helvetica,sans-Serif" font-size="10.00">Arrays</text>
</a>
</g>
</g>
<!-- Node0&#45;&gt;Node1 -->
<g id="edge1" class="edge">
<title>Node0&#45;&gt;Node1</title>
<path fill="none" stroke="black" d="M71.4,-588.92C89.72,-591.87 110.8,-595.27 126.43,-597.79"/>
<polygon fill="black" stroke="black" points="71.71,-585.43 61.28,-587.29 70.59,-592.34 71.71,-585.43"/>
</g>
<!-- Node7 -->
<g id="node18" class="node">
<title>Node7</title>
<g id="a_node18"><a xlink:href="group___fifty_one_degrees_data.html" target="_top" xlink:title="Structure containing memory allocated to store a variable.">
<polygon fill="none" stroke="black" points="170.5,-574 130.5,-574 130.5,-555 170.5,-555 170.5,-574"/>
<text text-anchor="middle" x="150.5" y="-562" font-family="Helvetica,sans-Serif" font-size="10.00">Data</text>
</a>
</g>
</g>
<!-- Node0&#45;&gt;Node7 -->
<g id="edge7" class="edge">
<title>Node0&#45;&gt;Node7</title>
<path fill="none" stroke="black" d="M71.36,-576.42C91.31,-573.38 114.54,-569.83 130.45,-567.41"/>
<polygon fill="black" stroke="black" points="70.63,-572.99 61.28,-577.96 71.69,-579.91 70.63,-572.99"/>
</g>
<!-- Node9 -->
<g id="node19" class="node">
<title>Node9</title>
<g id="a_node19"><a xlink:href="group___fifty_one_degrees_date.html" target="_top" xlink:title="Represents a date in a data set.">
<polygon fill="none" stroke="black" points="170.5,-537 130.5,-537 130.5,-518 170.5,-518 170.5,-537"/>
<text text-anchor="middle" x="150.5" y="-525" font-family="Helvetica,sans-Serif" font-size="10.00">Date</text>
</a>
</g>
</g>
<!-- Node0&#45;&gt;Node9 -->
<g id="edge9" class="edge">
<title>Node0&#45;&gt;Node9</title>
<path fill="none" stroke="black" d="M56.3,-567.68C68.35,-560.79 83.19,-552.75 97,-546.5 107.77,-541.63 120.2,-537.08 130.26,-533.66"/>
<polygon fill="black" stroke="black" points="54.18,-564.86 47.29,-572.91 57.7,-570.91 54.18,-564.86"/>
</g>
<!-- Node19 -->
<g id="node20" class="node">
<title>Node19</title>
<g id="a_node20"><a xlink:href="group___fifty_one_degrees_memory.html" target="_top" xlink:title="Utility methods used to handle common memory operations such as allocating memory and freeing it,...">
<polygon fill="none" stroke="black" points="179,-500 122,-500 122,-481 179,-481 179,-500"/>
<text text-anchor="middle" x="150.5" y="-488" font-family="Helvetica,sans-Serif" font-size="10.00">Memory</text>
</a>
</g>
</g>
<!-- Node0&#45;&gt;Node19 -->
<g id="edge19" class="edge">
<title>Node0&#45;&gt;Node19</title>
<path fill="none" stroke="black" d="M43.77,-564.35C55.66,-547.98 75.08,-524.28 97,-509.5 104.47,-504.46 113.45,-500.57 121.84,-497.67"/>
<polygon fill="black" stroke="black" points="40.86,-562.39 37.97,-572.58 46.59,-566.42 40.86,-562.39"/>
</g>
<!-- Node15 -->
<g id="node21" class="node">
<title>Node15</title>
<g id="a_node21"><a xlink:href="group___fifty_one_degrees_indices.html" target="_top" xlink:title="A look up structure for profile and property index to the first value associated with the property an...">
<polygon fill="none" stroke="black" points="176,-463 125,-463 125,-444 176,-444 176,-463"/>
<text text-anchor="middle" x="150.5" y="-451" font-family="Helvetica,sans-Serif" font-size="10.00">Indices</text>
</a>
</g>
</g>
<!-- Node0&#45;&gt;Node15 -->
<g id="edge15" class="edge">
<title>Node0&#45;&gt;Node15</title>
<path fill="none" stroke="black" d="M38.29,-563.18C47.79,-538.78 67.3,-497.04 97,-472.5 105,-465.89 115.48,-461.49 124.97,-458.6"/>
<polygon fill="black" stroke="black" points="34.93,-562.17 34.72,-572.76 41.49,-564.6 34.93,-562.17"/>
</g>
<!-- Node25 -->
<g id="node22" class="node">
<title>Node25</title>
<g id="a_node22"><a xlink:href="group___fifty_one_degrees_resource.html" target="_top" xlink:title="Resources to be managed by a resource manager.">
<polygon fill="none" stroke="black" points="204,-426 97,-426 97,-407 204,-407 204,-426"/>
<text text-anchor="middle" x="150.5" y="-414" font-family="Helvetica,sans-Serif" font-size="10.00">Resource Manager</text>
</a>
</g>
</g>
<!-- Node0&#45;&gt;Node25 -->
<g id="edge25" class="edge">
<title>Node0&#45;&gt;Node25</title>
<path fill="none" stroke="black" d="M35.16,-562.65C41.92,-531.38 59.29,-470.59 97,-435.5 101.19,-431.6 106.23,-428.49 111.52,-426.02"/>
<polygon fill="black" stroke="black" points="31.67,-562.24 33.13,-572.74 38.53,-563.62 31.67,-562.24"/>
</g>
<!-- Node24 -->
<g id="node23" class="node">
<title>Node24</title>
<g id="a_node23"><a xlink:href="group___fifty_one_degrees_property.html" target="_top" xlink:title="Property in a data set relating to a single component.">
<polygon fill="none" stroke="black" points="179.5,-389 121.5,-389 121.5,-370 179.5,-370 179.5,-389"/>
<text text-anchor="middle" x="150.5" y="-377" font-family="Helvetica,sans-Serif" font-size="10.00">Property</text>
</a>
</g>
</g>
<!-- Node0&#45;&gt;Node24 -->
<g id="edge24" class="edge">
<title>Node0&#45;&gt;Node24</title>
<path fill="none" stroke="black" d="M33.12,-562.48C37.18,-525.18 51.06,-444.69 97,-398.5 103.56,-391.9 112.59,-387.58 121.3,-384.76"/>
<polygon fill="black" stroke="black" points="29.62,-562.29 32.15,-572.58 36.59,-562.96 29.62,-562.29"/>
</g>
<!-- Node2 -->
<g id="node24" class="node">
<title>Node2</title>
<g id="a_node24"><a xlink:href="group___fifty_one_degrees_cache.html" target="_top" xlink:title="Fixed size, thread safe, loading, tree based cache.">
<polygon fill="none" stroke="black" points="174,-352 127,-352 127,-333 174,-333 174,-352"/>
<text text-anchor="middle" x="150.5" y="-340" font-family="Helvetica,sans-Serif" font-size="10.00">Cache</text>
</a>
</g>
</g>
<!-- Node0&#45;&gt;Node2 -->
<g id="edge2" class="edge">
<title>Node0&#45;&gt;Node2</title>
<path fill="none" stroke="black" d="M31.7,-562.4C33.2,-519.69 42.69,-419.12 97,-361.5 104.78,-353.25 116.41,-348.57 126.75,-345.92"/>
<polygon fill="black" stroke="black" points="28.19,-562.53 31.46,-572.61 35.19,-562.69 28.19,-562.53"/>
</g>
<!-- Node5 -->
<g id="node25" class="node">
<title>Node5</title>
<g id="a_node25"><a xlink:href="group___fifty_one_degrees_config.html" target="_top" xlink:title="Configuration for building data sets.">
<polygon fill="none" stroke="black" points="174,-315 127,-315 127,-296 174,-296 174,-315"/>
<text text-anchor="middle" x="150.5" y="-303" font-family="Helvetica,sans-Serif" font-size="10.00">Config</text>
</a>
</g>
</g>
<!-- Node0&#45;&gt;Node5 -->
<g id="edge5" class="edge">
<title>Node0&#45;&gt;Node5</title>
<path fill="none" stroke="black" d="M30.66,-562.69C29.74,-515.25 34.08,-393.95 97,-324.5 104.68,-316.02 116.43,-311.32 126.87,-308.72"/>
<polygon fill="black" stroke="black" points="27.16,-562.95 30.96,-572.85 34.16,-562.75 27.16,-562.95"/>
</g>
<!-- Node8 -->
<g id="node26" class="node">
<title>Node8</title>
<g id="a_node26"><a xlink:href="group___fifty_one_degrees_data_set.html" target="_top" xlink:title="A data file initialised in a structure.">
<polygon fill="none" stroke="black" points="180,-278 121,-278 121,-259 180,-259 180,-278"/>
<text text-anchor="middle" x="150.5" y="-266" font-family="Helvetica,sans-Serif" font-size="10.00">Data Set</text>
</a>
</g>
</g>
<!-- Node0&#45;&gt;Node8 -->
<g id="edge8" class="edge">
<title>Node0&#45;&gt;Node8</title>
<path fill="none" stroke="black" d="M33.44,-562.56C39.58,-503.19 60.39,-329.15 97,-287.5 103.14,-280.51 112.06,-276.09 120.81,-273.3"/>
<polygon fill="black" stroke="black" points="29.92,-562.53 32.4,-572.83 36.89,-563.23 29.92,-562.53"/>
</g>
<!-- Node17 -->
<g id="node27" class="node">
<title>Node17</title>
<g id="a_node27"><a xlink:href="group___fifty_one_degrees_json.html" target="_top" xlink:title="JSON methods.">
<polygon fill="none" stroke="black" points="171,-241 130,-241 130,-222 171,-222 171,-241"/>
<text text-anchor="middle" x="150.5" y="-229" font-family="Helvetica,sans-Serif" font-size="10.00">JSON</text>
</a>
</g>
</g>
<!-- Node0&#45;&gt;Node17 -->
<g id="edge17" class="edge">
<title>Node0&#45;&gt;Node17</title>
<path fill="none" stroke="black" d="M32.89,-562.63C37.77,-498.47 56.03,-298.24 97,-250.5 105.21,-240.94 118.62,-236.19 129.83,-233.83"/>
<polygon fill="black" stroke="black" points="29.38,-562.73 32.14,-572.96 36.36,-563.24 29.38,-562.73"/>
</g>
<!-- Node12 -->
<g id="node28" class="node">
<title>Node12</title>
<g id="a_node28"><a xlink:href="group___fifty_one_degrees_file.html" target="_top" xlink:title="File handle pool and simple file operations e.g.">
<polygon fill="none" stroke="black" points="167.5,-204 133.5,-204 133.5,-185 167.5,-185 167.5,-204"/>
<text text-anchor="middle" x="150.5" y="-192" font-family="Helvetica,sans-Serif" font-size="10.00">File</text>
</a>
</g>
</g>
<!-- Node0&#45;&gt;Node12 -->
<g id="edge12" class="edge">
<title>Node0&#45;&gt;Node12</title>
<path fill="none" stroke="black" d="M32.46,-562.68C36.16,-493.99 51.65,-267.38 97,-213.5 105.99,-202.82 121.48,-198.14 133.31,-196.1"/>
<polygon fill="black" stroke="black" points="28.95,-562.79 31.93,-572.95 35.94,-563.15 28.95,-562.79"/>
</g>
<!-- Node28 -->
<g id="node29" class="node">
<title>Node28</title>
<g id="a_node29"><a xlink:href="group___fifty_one_degrees_string.html" target="_top" xlink:title="String structures containing the string and length.">
<polygon fill="none" stroke="black" points="173,-167 128,-167 128,-148 173,-148 173,-167"/>
<text text-anchor="middle" x="150.5" y="-155" font-family="Helvetica,sans-Serif" font-size="10.00">String</text>
</a>
</g>
</g>
<!-- Node0&#45;&gt;Node28 -->
<g id="edge28" class="edge">
<title>Node0&#45;&gt;Node28</title>
<path fill="none" stroke="black" d="M32.11,-562.6C34.73,-489.45 47.28,-236.52 97,-176.5 104.61,-167.32 117.02,-162.57 127.87,-160.12"/>
<polygon fill="black" stroke="black" points="28.61,-562.63 31.77,-572.74 35.6,-562.87 28.61,-562.63"/>
</g>
<!-- Node22 -->
<g id="node30" class="node">
<title>Node22</title>
<g id="a_node30"><a xlink:href="group___fifty_one_degrees_profile.html" target="_top" xlink:title="Profile containing a unique set of values for the properties of a single component.">
<polygon fill="none" stroke="black" points="174,-130 127,-130 127,-111 174,-111 174,-130"/>
<text text-anchor="middle" x="150.5" y="-118" font-family="Helvetica,sans-Serif" font-size="10.00">Profile</text>
</a>
</g>
</g>
<!-- Node0&#45;&gt;Node22 -->
<g id="edge22" class="edge">
<title>Node0&#45;&gt;Node22</title>
<path fill="none" stroke="black" d="M31.82,-562.32C33.43,-484.58 42.95,-205.64 97,-139.5 104.3,-130.57 116.16,-125.83 126.76,-123.33"/>
<polygon fill="black" stroke="black" points="28.31,-562.58 31.63,-572.64 35.31,-562.71 28.31,-562.58"/>
</g>
<!-- Node31 -->
<g id="node31" class="node">
<title>Node31</title>
<g id="a_node31"><a xlink:href="group___fifty_one_degrees_tree.html" target="_top" xlink:title="Implementation of the classic red black binary tree.">
<polygon fill="none" stroke="black" points="169,-93 132,-93 132,-74 169,-74 169,-93"/>
<text text-anchor="middle" x="150.5" y="-81" font-family="Helvetica,sans-Serif" font-size="10.00">Tree</text>
</a>
</g>
</g>
<!-- Node0&#45;&gt;Node31 -->
<g id="edge31" class="edge">
<title>Node0&#45;&gt;Node31</title>
<path fill="none" stroke="black" d="M31.56,-562.23C32.21,-480.33 38.56,-174.83 97,-102.5 105.47,-92.02 120.22,-87.32 131.93,-85.21"/>
<polygon fill="black" stroke="black" points="28.06,-562.62 31.5,-572.64 35.06,-562.66 28.06,-562.62"/>
</g>
<!-- Node6 -->
<g id="node32" class="node">
<title>Node6</title>
<g id="a_node32"><a xlink:href="group___fifty_one_degrees_coordinate.html" target="_top" xlink:title="A coordinate representation of a location.">
<polygon fill="none" stroke="black" points="183.5,-56 117.5,-56 117.5,-37 183.5,-37 183.5,-56"/>
<text text-anchor="middle" x="150.5" y="-44" font-family="Helvetica,sans-Serif" font-size="10.00">Coodinate</text>
</a>
</g>
</g>
<!-- Node0&#45;&gt;Node6 -->
<g id="edge6" class="edge">
<title>Node0&#45;&gt;Node6</title>
<path fill="none" stroke="black" d="M31.34,-562.6C31.06,-477.39 34.05,-144.19 97,-65.5 102.15,-59.07 109.66,-54.81 117.41,-52"/>
<polygon fill="black" stroke="black" points="27.84,-562.74 31.4,-572.72 34.84,-562.7 27.84,-562.74"/>
</g>
<!-- Node14 -->
<g id="node33" class="node">
<title>Node14</title>
<g id="a_node33"><a xlink:href="group___fifty_one_degrees_headers.html" target="_top" xlink:title="Common form of evidence in 51Degrees engines.">
<polygon fill="none" stroke="black" points="179,-19 122,-19 122,0 179,0 179,-19"/>
<text text-anchor="middle" x="150.5" y="-7" font-family="Helvetica,sans-Serif" font-size="10.00">Headers</text>
</a>
</g>
</g>
<!-- Node0&#45;&gt;Node14 -->
<g id="edge14" class="edge">
<title>Node0&#45;&gt;Node14</title>
<path fill="none" stroke="black" d="M31.16,-562.88C30,-474.46 29.54,-113.55 97,-28.5 103.08,-20.83 112.54,-16.25 121.76,-13.53"/>
<polygon fill="black" stroke="black" points="27.66,-562.95 31.31,-572.9 34.66,-562.84 27.66,-562.95"/>
</g>
</g>
</svg>
