<?xml version="1.0" encoding="UTF-8" standalone="no"?>
<!DOCTYPE svg PUBLIC "-//W3C//DTD SVG 1.1//EN"
 "http://www.w3.org/Graphics/SVG/1.1/DTD/svg11.dtd">
<!-- Generated by graphviz version 2.43.0 (0)
 -->
<!-- Title: /home/runner/work/ip&#45;intelligence&#45;cxx/ip&#45;intelligence&#45;cxx/common/ip&#45;intelligence&#45;cxx/src/ipi_weighted_results.h Pages: 1 -->
<svg width="332pt" height="272pt"
 viewBox="0.00 0.00 331.50 272.00" xmlns="http://www.w3.org/2000/svg" xmlns:xlink="http://www.w3.org/1999/xlink">
<g id="graph0" class="graph" transform="scale(1 1) rotate(0) translate(4 268)">
<title>/home/runner/work/ip&#45;intelligence&#45;cxx/ip&#45;intelligence&#45;cxx/common/ip&#45;intelligence&#45;cxx/src/ipi_weighted_results.h</title>
<!-- Node56 -->
<g id="node1" class="node">
<title>Node56</title>
<g id="a_node1"><a xlink:title="Defines structures and functions for handling weighted values in IP Intelligence results.">
<polygon fill="#bfbfbf" stroke="black" points="50,-200.5 50,-263.5 194,-263.5 194,-200.5 50,-200.5"/>
<text text-anchor="start" x="58" y="-251.5" font-family="Helvetica,sans-Serif" font-size="10.00">/home/runner/work/ip</text>
<text text-anchor="start" x="58" y="-240.5" font-family="Helvetica,sans-Serif" font-size="10.00">&#45;intelligence&#45;cxx/ip</text>
<text text-anchor="start" x="58" y="-229.5" font-family="Helvetica,sans-Serif" font-size="10.00">&#45;intelligence&#45;cxx/common</text>
<text text-anchor="start" x="58" y="-218.5" font-family="Helvetica,sans-Serif" font-size="10.00">/ip&#45;intelligence&#45;cxx/src</text>
<text text-anchor="middle" x="122" y="-207.5" font-family="Helvetica,sans-Serif" font-size="10.00">/ipi_weighted_results.h</text>
</a>
</g>
</g>
<!-- Node57 -->
<g id="node2" class="node">
<title>Node57</title>
<g id="a_node2"><a xlink:href="fiftyone_8h_source.html" target="_top" xlink:title=" ">
<polygon fill="none" stroke="black" points="100,-100.5 100,-163.5 244,-163.5 244,-100.5 100,-100.5"/>
<text text-anchor="start" x="108" y="-151.5" font-family="Helvetica,sans-Serif" font-size="10.00">/home/runner/work/ip</text>
<text text-anchor="start" x="108" y="-140.5" font-family="Helvetica,sans-Serif" font-size="10.00">&#45;intelligence&#45;cxx/ip</text>
<text text-anchor="start" x="108" y="-129.5" font-family="Helvetica,sans-Serif" font-size="10.00">&#45;intelligence&#45;cxx/common</text>
<text text-anchor="start" x="108" y="-118.5" font-family="Helvetica,sans-Serif" font-size="10.00">/ip&#45;intelligence&#45;cxx/src</text>
<text text-anchor="middle" x="172" y="-107.5" font-family="Helvetica,sans-Serif" font-size="10.00">/fiftyone.h</text>
</a>
</g>
</g>
<!-- Node56&#45;&gt;Node57 -->
<g id="edge1" class="edge">
<title>Node56&#45;&gt;Node57</title>
<path fill="none" stroke="midnightblue" d="M142.28,-191.25C146.98,-182.04 151.91,-172.38 156.37,-163.63"/>
<polygon fill="midnightblue" stroke="midnightblue" points="139.11,-189.76 137.68,-200.26 145.35,-192.94 139.11,-189.76"/>
</g>
<!-- Node58 -->
<g id="node3" class="node">
<title>Node58</title>
<g id="a_node3"><a xlink:href="ipi__weighted__results_8c.html" target="_top" xlink:title="Implementation of weighted values handling for IP Intelligence results.">
<polygon fill="none" stroke="black" points="0,-0.5 0,-63.5 144,-63.5 144,-0.5 0,-0.5"/>
<text text-anchor="start" x="8" y="-51.5" font-family="Helvetica,sans-Serif" font-size="10.00">/home/runner/work/ip</text>
<text text-anchor="start" x="8" y="-40.5" font-family="Helvetica,sans-Serif" font-size="10.00">&#45;intelligence&#45;cxx/ip</text>
<text text-anchor="start" x="8" y="-29.5" font-family="Helvetica,sans-Serif" font-size="10.00">&#45;intelligence&#45;cxx/common</text>
<text text-anchor="start" x="8" y="-18.5" font-family="Helvetica,sans-Serif" font-size="10.00">/ip&#45;intelligence&#45;cxx/src</text>
<text text-anchor="middle" x="72" y="-7.5" font-family="Helvetica,sans-Serif" font-size="10.00">/ipi_weighted_results.c</text>
</a>
</g>
</g>
<!-- Node56&#45;&gt;Node58 -->
<g id="edge4" class="edge">
<title>Node56&#45;&gt;Node58</title>
<path fill="none" stroke="midnightblue" d="M101.28,-191.14C97.37,-182.38 93.68,-173.02 91,-164 81.06,-130.51 76.22,-90.61 73.94,-63.71"/>
<polygon fill="midnightblue" stroke="midnightblue" points="98.18,-192.77 105.56,-200.37 104.53,-189.83 98.18,-192.77"/>
</g>
<!-- Node57&#45;&gt;Node58 -->
<g id="edge2" class="edge">
<title>Node57&#45;&gt;Node58</title>
<path fill="none" stroke="midnightblue" d="M133.49,-93.26C123.49,-83.46 112.83,-73.02 103.25,-63.63"/>
<polygon fill="midnightblue" stroke="midnightblue" points="131.04,-95.76 140.63,-100.26 135.94,-90.76 131.04,-95.76"/>
</g>
<!-- Node59 -->
<g id="node4" class="node">
<title>Node59</title>
<g id="a_node4"><a xlink:href="_example_base_8h_source.html" target="_top" xlink:title=" ">
<polygon fill="none" stroke="black" points="162.5,-0.5 162.5,-63.5 323.5,-63.5 323.5,-0.5 162.5,-0.5"/>
<text text-anchor="start" x="170.5" y="-51.5" font-family="Helvetica,sans-Serif" font-size="10.00">/home/runner/work/ip</text>
<text text-anchor="start" x="170.5" y="-40.5" font-family="Helvetica,sans-Serif" font-size="10.00">&#45;intelligence&#45;cxx/ip</text>
<text text-anchor="start" x="170.5" y="-29.5" font-family="Helvetica,sans-Serif" font-size="10.00">&#45;intelligence&#45;cxx/common</text>
<text text-anchor="start" x="170.5" y="-18.5" font-family="Helvetica,sans-Serif" font-size="10.00">/ip&#45;intelligence&#45;cxx/examples</text>
<text text-anchor="middle" x="243" y="-7.5" font-family="Helvetica,sans-Serif" font-size="10.00">/Base/ExampleBase.h</text>
</a>
</g>
</g>
<!-- Node57&#45;&gt;Node59 -->
<g id="edge3" class="edge">
<title>Node57&#45;&gt;Node59</title>
<path fill="none" stroke="midnightblue" d="M200.17,-92.11C207.03,-82.65 214.27,-72.65 220.81,-63.63"/>
<polygon fill="midnightblue" stroke="midnightblue" points="197.3,-90.11 194.27,-100.26 202.97,-94.22 197.3,-90.11"/>
</g>
</g>
</svg>
