<?xml version="1.0" encoding="UTF-8" standalone="no"?>
<!DOCTYPE svg PUBLIC "-//W3C//DTD SVG 1.1//EN"
 "http://www.w3.org/Graphics/SVG/1.1/DTD/svg11.dtd">
<!-- Generated by graphviz version 2.43.0 (0)
 -->
<!-- Title: fiftyoneDegreesIpiList Pages: 1 -->
<svg width="435pt" height="242pt"
 viewBox="0.00 0.00 435.00 242.00" xmlns="http://www.w3.org/2000/svg" xmlns:xlink="http://www.w3.org/1999/xlink">
<g id="graph0" class="graph" transform="scale(1 1) rotate(0) translate(4 238)">
<title>fiftyoneDegreesIpiList</title>
<!-- Node1 -->
<g id="node1" class="node">
<title>Node1</title>
<g id="a_node1"><a xlink:title="The structure which represents the list of values returned for the required property from the results...">
<polygon fill="#bfbfbf" stroke="black" points="28,-0.5 28,-19.5 151,-19.5 151,-0.5 28,-0.5"/>
<text text-anchor="middle" x="89.5" y="-7.5" font-family="Helvetica,sans-Serif" font-size="10.00">fiftyoneDegreesIpiList</text>
</a>
</g>
</g>
<!-- Node2 -->
<g id="node2" class="node">
<title>Node2</title>
<g id="a_node2"><a xlink:href="structfiftyone_degrees_profile_percentage.html" target="_top" xlink:title="The structure to hold a pair of result item and its percentage When getting values for a property fro...">
<polygon fill="none" stroke="black" points="0,-74 0,-93 179,-93 179,-74 0,-74"/>
<text text-anchor="middle" x="89.5" y="-81" font-family="Helvetica,sans-Serif" font-size="10.00">fiftyoneDegreesProfilePercentage</text>
</a>
</g>
</g>
<!-- Node2&#45;&gt;Node1 -->
<g id="edge1" class="edge">
<title>Node2&#45;&gt;Node1</title>
<path fill="none" stroke="#9a32cd" stroke-dasharray="5,2" d="M89.5,-63.59C89.5,-49.43 89.5,-30.7 89.5,-19.84"/>
<polygon fill="#9a32cd" stroke="#9a32cd" points="86,-63.73 89.5,-73.73 93,-63.73 86,-63.73"/>
<text text-anchor="middle" x="105" y="-41" font-family="Helvetica,sans-Serif" font-size="10.00"> items</text>
</g>
<!-- Node3 -->
<g id="node3" class="node">
<title>Node3</title>
<g id="a_node3"><a xlink:href="structfiftyone_degrees_collection_item.html" target="_top" xlink:title="Used to store a handle to the underlying item that could be used to release the item when it&#39;s finish...">
<polygon fill="none" stroke="black" points="123,-147.5 123,-166.5 288,-166.5 288,-147.5 123,-147.5"/>
<text text-anchor="middle" x="205.5" y="-154.5" font-family="Helvetica,sans-Serif" font-size="10.00">fiftyoneDegreesCollectionItem</text>
</a>
</g>
</g>
<!-- Node3&#45;&gt;Node2 -->
<g id="edge2" class="edge">
<title>Node3&#45;&gt;Node2</title>
<path fill="none" stroke="#9a32cd" stroke-dasharray="5,2" d="M182.62,-141.9C159.06,-127.37 123.1,-105.21 103.48,-93.12"/>
<polygon fill="#9a32cd" stroke="#9a32cd" points="180.93,-144.97 191.28,-147.23 184.6,-139.01 180.93,-144.97"/>
<text text-anchor="middle" x="174.5" y="-121" font-family="Helvetica,sans-Serif" font-size="10.00"> item</text>
</g>
<!-- Node4 -->
<g id="node4" class="node">
<title>Node4</title>
<g id="a_node4"><a xlink:href="structfiftyone_degrees_collection.html" target="_top" xlink:title="All the shared methods and fields required by file, memory and cached collections.">
<polygon fill="none" stroke="black" points="197,-74 197,-93 340,-93 340,-74 197,-74"/>
<text text-anchor="middle" x="268.5" y="-81" font-family="Helvetica,sans-Serif" font-size="10.00">fiftyoneDegreesCollection</text>
</a>
</g>
</g>
<!-- Node3&#45;&gt;Node4 -->
<g id="edge4" class="edge">
<title>Node3&#45;&gt;Node4</title>
<path fill="none" stroke="#9a32cd" stroke-dasharray="5,2" d="M199.69,-137.38C198.73,-130.84 199,-123.71 202.5,-118 209.89,-105.95 223.12,-98.07 235.8,-93.01"/>
<polygon fill="#9a32cd" stroke="#9a32cd" points="196.38,-138.57 202.11,-147.47 203.18,-136.93 196.38,-138.57"/>
<text text-anchor="middle" x="222.5" y="-121" font-family="Helvetica,sans-Serif" font-size="10.00"> release</text>
</g>
<!-- Node4&#45;&gt;Node3 -->
<g id="edge3" class="edge">
<title>Node4&#45;&gt;Node3</title>
<path fill="none" stroke="#9a32cd" stroke-dasharray="5,2" d="M262.09,-102.71C258.44,-111.33 253.24,-121.38 246.5,-129 239.84,-136.54 230.61,-142.86 222.59,-147.49"/>
<polygon fill="#9a32cd" stroke="#9a32cd" points="265.44,-103.75 265.77,-93.16 258.9,-101.23 265.44,-103.75"/>
<text text-anchor="middle" x="279" y="-121" font-family="Helvetica,sans-Serif" font-size="10.00"> collection</text>
</g>
<!-- Node4&#45;&gt;Node4 -->
<g id="edge5" class="edge">
<title>Node4&#45;&gt;Node4</title>
<path fill="none" stroke="#9a32cd" stroke-dasharray="5,2" d="M350.11,-88.69C355.04,-87.46 358,-85.73 358,-83.5 358,-80.02 350.79,-77.76 340.13,-76.7"/>
<polygon fill="#9a32cd" stroke="#9a32cd" points="349.44,-85.26 340.13,-90.3 350.56,-92.17 349.44,-85.26"/>
<text text-anchor="middle" x="392.5" y="-92" font-family="Helvetica,sans-Serif" font-size="10.00"> next</text>
<text text-anchor="middle" x="392.5" y="-81" font-family="Helvetica,sans-Serif" font-size="10.00">freeCollection</text>
<text text-anchor="middle" x="392.5" y="-70" font-family="Helvetica,sans-Serif" font-size="10.00">get</text>
</g>
<!-- Node5 -->
<g id="node5" class="node">
<title>Node5</title>
<g id="a_node5"><a xlink:href="structfiftyone_degrees_data.html" target="_top" xlink:title="Data structure used for reusing memory which may have been allocated in a previous operation.">
<polygon fill="none" stroke="black" points="147,-214.5 147,-233.5 264,-233.5 264,-214.5 147,-214.5"/>
<text text-anchor="middle" x="205.5" y="-221.5" font-family="Helvetica,sans-Serif" font-size="10.00">fiftyoneDegreesData</text>
</a>
</g>
</g>
<!-- Node5&#45;&gt;Node3 -->
<g id="edge6" class="edge">
<title>Node5&#45;&gt;Node3</title>
<path fill="none" stroke="#9a32cd" stroke-dasharray="5,2" d="M205.5,-204.04C205.5,-191.67 205.5,-176.12 205.5,-166.63"/>
<polygon fill="#9a32cd" stroke="#9a32cd" points="202,-204.23 205.5,-214.23 209,-204.23 202,-204.23"/>
<text text-anchor="middle" x="218" y="-188" font-family="Helvetica,sans-Serif" font-size="10.00"> data</text>
</g>
</g>
</svg>
