<?xml version="1.0" encoding="UTF-8" standalone="no"?>
<!DOCTYPE svg PUBLIC "-//W3C//DTD SVG 1.1//EN"
 "http://www.w3.org/Graphics/SVG/1.1/DTD/svg11.dtd">
<!-- Generated by graphviz version 2.43.0 (0)
 -->
<!-- Title: performanceThreadState Pages: 1 -->
<svg width="1410pt" height="577pt"
 viewBox="0.00 0.00 1410.00 577.00" xmlns="http://www.w3.org/2000/svg" xmlns:xlink="http://www.w3.org/1999/xlink">
<g id="graph0" class="graph" transform="scale(1 1) rotate(0) translate(4 573)">
<title>performanceThreadState</title>
<!-- Node1 -->
<g id="node1" class="node">
<title>Node1</title>
<g id="a_node1"><a xlink:title="Individual thread performance state where all members are exclusively accessed by a single test threa...">
<polygon fill="#bfbfbf" stroke="black" points="1264,-135.5 1264,-154.5 1402,-154.5 1402,-135.5 1264,-135.5"/>
<text text-anchor="middle" x="1333" y="-142.5" font-family="Helvetica,sans-Serif" font-size="10.00">performanceThreadState</text>
</a>
</g>
</g>
<!-- Node2 -->
<g id="node2" class="node">
<title>Node2</title>
<g id="a_node2"><a xlink:href="structperformance_state.html" target="_top" xlink:title="Shared performance state.">
<polygon fill="none" stroke="black" points="1039.5,-197.5 1039.5,-216.5 1143.5,-216.5 1143.5,-197.5 1039.5,-197.5"/>
<text text-anchor="middle" x="1091.5" y="-204.5" font-family="Helvetica,sans-Serif" font-size="10.00">performanceState</text>
</a>
</g>
</g>
<!-- Node2&#45;&gt;Node1 -->
<g id="edge1" class="edge">
<title>Node2&#45;&gt;Node1</title>
<path fill="none" stroke="#9a32cd" stroke-dasharray="5,2" d="M1122.63,-193.31C1138.78,-186.42 1159.18,-178.4 1178,-173 1205.69,-165.06 1236.85,-158.9 1263.86,-154.4"/>
<polygon fill="#9a32cd" stroke="#9a32cd" points="1120.95,-190.23 1113.18,-197.43 1123.74,-196.65 1120.95,-190.23"/>
<text text-anchor="middle" x="1212" y="-187" font-family="Helvetica,sans-Serif" font-size="10.00"> main</text>
<text text-anchor="middle" x="1212" y="-176" font-family="Helvetica,sans-Serif" font-size="10.00">state</text>
</g>
<!-- Node7 -->
<g id="node7" class="node">
<title>Node7</title>
<g id="a_node7"><a xlink:href="structthread_state.html" target="_top" xlink:title="State specific to a single thread.">
<polygon fill="none" stroke="black" points="1296,-248.5 1296,-267.5 1370,-267.5 1370,-248.5 1296,-248.5"/>
<text text-anchor="middle" x="1333" y="-255.5" font-family="Helvetica,sans-Serif" font-size="10.00">threadState</text>
</a>
</g>
</g>
<!-- Node2&#45;&gt;Node7 -->
<g id="edge15" class="edge">
<title>Node2&#45;&gt;Node7</title>
<path fill="none" stroke="#9a32cd" stroke-dasharray="5,2" d="M1147.26,-218.66C1192.76,-228.35 1256.22,-241.86 1295.67,-250.26"/>
<polygon fill="#9a32cd" stroke="#9a32cd" points="1147.78,-215.19 1137.27,-216.53 1146.32,-222.04 1147.78,-215.19"/>
<text text-anchor="middle" x="1212" y="-241" font-family="Helvetica,sans-Serif" font-size="10.00"> mainState</text>
</g>
<!-- Node3 -->
<g id="node3" class="node">
<title>Node3</title>
<g id="a_node3"><a xlink:href="structfiftyone_degrees_resource_manager.html" target="_top" xlink:title="Manager structure used to provide access to a shared and changing resource.">
<polygon fill="none" stroke="black" points="430,-421.5 430,-440.5 612,-440.5 612,-421.5 430,-421.5"/>
<text text-anchor="middle" x="521" y="-428.5" font-family="Helvetica,sans-Serif" font-size="10.00">fiftyoneDegreesResourceManager</text>
</a>
</g>
</g>
<!-- Node3&#45;&gt;Node2 -->
<g id="edge2" class="edge">
<title>Node3&#45;&gt;Node2</title>
<path fill="none" stroke="#9a32cd" stroke-dasharray="5,2" d="M587.67,-419.61C705.21,-398.01 944.93,-348 1005,-290 1017.3,-278.12 1011.79,-268.91 1023,-256 1037.33,-239.49 1058.24,-225.41 1072.98,-216.63"/>
<polygon fill="#9a32cd" stroke="#9a32cd" points="586.92,-416.19 577.71,-421.43 588.17,-423.08 586.92,-416.19"/>
<text text-anchor="middle" x="815.5" y="-392" font-family="Helvetica,sans-Serif" font-size="10.00"> manager</text>
</g>
<!-- Node4 -->
<g id="node4" class="node">
<title>Node4</title>
<g id="a_node4"><a xlink:href="structfiftyone_degrees_resource_handle.html" target="_top" xlink:title="Handle for a shared resource.">
<polygon fill="none" stroke="black" points="729,-457.5 729,-476.5 902,-476.5 902,-457.5 729,-457.5"/>
<text text-anchor="middle" x="815.5" y="-464.5" font-family="Helvetica,sans-Serif" font-size="10.00">fiftyoneDegreesResourceHandle</text>
</a>
</g>
</g>
<!-- Node3&#45;&gt;Node4 -->
<g id="edge4" class="edge">
<title>Node3&#45;&gt;Node4</title>
<path fill="none" stroke="#9a32cd" stroke-dasharray="5,2" d="M561.71,-443.43C581.94,-449.22 607.06,-455.57 630,-459 662.03,-463.79 697.5,-466.05 728.72,-467.02"/>
<polygon fill="#9a32cd" stroke="#9a32cd" points="562.49,-440.01 551.91,-440.57 560.52,-446.73 562.49,-440.01"/>
<text text-anchor="middle" x="670.5" y="-469" font-family="Helvetica,sans-Serif" font-size="10.00"> manager</text>
</g>
<!-- Node12 -->
<g id="node12" class="node">
<title>Node12</title>
<g id="a_node12"><a xlink:href="class_resource_manager.html" target="_top" xlink:title=" ">
<polygon fill="none" stroke="black" points="1039.5,-425.5 1039.5,-444.5 1143.5,-444.5 1143.5,-425.5 1039.5,-425.5"/>
<text text-anchor="middle" x="1091.5" y="-432.5" font-family="Helvetica,sans-Serif" font-size="10.00">ResourceManager</text>
</a>
</g>
</g>
<!-- Node3&#45;&gt;Node12 -->
<g id="edge19" class="edge">
<title>Node3&#45;&gt;Node12</title>
<path fill="none" stroke="#9a32cd" stroke-dasharray="5,2" d="M622.18,-431.7C744.18,-432.56 945.58,-433.98 1039.42,-434.64"/>
<polygon fill="#9a32cd" stroke="#9a32cd" points="622.1,-428.2 612.08,-431.63 622.06,-435.2 622.1,-428.2"/>
<text text-anchor="middle" x="815.5" y="-436" font-family="Helvetica,sans-Serif" font-size="10.00"> manager</text>
</g>
<!-- Node4&#45;&gt;Node3 -->
<g id="edge3" class="edge">
<title>Node4&#45;&gt;Node3</title>
<path fill="none" stroke="#9a32cd" stroke-dasharray="5,2" d="M757.54,-455.57C742.45,-452.81 726.15,-450.07 711,-448 678.85,-443.61 643.46,-440.08 612.08,-437.4"/>
<polygon fill="#9a32cd" stroke="#9a32cd" points="757.29,-459.09 767.76,-457.48 758.57,-452.21 757.29,-459.09"/>
<text text-anchor="middle" x="670.5" y="-451" font-family="Helvetica,sans-Serif" font-size="10.00"> active</text>
</g>
<!-- Node4&#45;&gt;Node12 -->
<g id="edge20" class="edge">
<title>Node4&#45;&gt;Node12</title>
<path fill="none" stroke="#9a32cd" stroke-dasharray="5,2" d="M908.03,-456.31C951.68,-451.21 1002.27,-445.3 1039.1,-441"/>
<polygon fill="#9a32cd" stroke="#9a32cd" points="907.49,-452.85 897.97,-457.49 908.31,-459.8 907.49,-452.85"/>
<text text-anchor="middle" x="962.5" y="-457" font-family="Helvetica,sans-Serif" font-size="10.00"> resourceHandle</text>
</g>
<!-- Node5 -->
<g id="node5" class="node">
<title>Node5</title>
<g id="a_node5"><a xlink:href="structfiftyone_degrees_interlock_double_width.html" target="_top" xlink:title="Double width (64 or 128 depending on the architecture) compare and exchange.">
<polygon fill="none" stroke="black" points="452.5,-500 452.5,-530 589.5,-530 589.5,-500 452.5,-500"/>
<text text-anchor="start" x="460.5" y="-518" font-family="Helvetica,sans-Serif" font-size="10.00">fiftyoneDegreesInterlock</text>
<text text-anchor="middle" x="521" y="-507" font-family="Helvetica,sans-Serif" font-size="10.00">DoubleWidth</text>
</a>
</g>
</g>
<!-- Node5&#45;&gt;Node4 -->
<g id="edge5" class="edge">
<title>Node5&#45;&gt;Node4</title>
<path fill="none" stroke="#9a32cd" stroke-dasharray="5,2" d="M599.81,-502.23C649,-494.16 711.53,-483.9 756.41,-476.53"/>
<polygon fill="#9a32cd" stroke="#9a32cd" points="599.14,-498.79 589.84,-503.87 600.28,-505.7 599.14,-498.79"/>
<text text-anchor="middle" x="670.5" y="-499" font-family="Helvetica,sans-Serif" font-size="10.00"> counter</text>
</g>
<!-- Node6 -->
<g id="node6" class="node">
<title>Node6</title>
<g id="a_node6"><a xlink:href="structshared_string_node.html" target="_top" xlink:title=" ">
<polygon fill="none" stroke="black" points="763.5,-192.5 763.5,-211.5 867.5,-211.5 867.5,-192.5 763.5,-192.5"/>
<text text-anchor="middle" x="815.5" y="-199.5" font-family="Helvetica,sans-Serif" font-size="10.00">sharedStringNode</text>
</a>
</g>
</g>
<!-- Node6&#45;&gt;Node2 -->
<g id="edge6" class="edge">
<title>Node6&#45;&gt;Node2</title>
<path fill="none" stroke="#9a32cd" stroke-dasharray="5,2" d="M877.78,-203.12C926.3,-204 993.31,-205.23 1039.07,-206.06"/>
<polygon fill="#9a32cd" stroke="#9a32cd" points="877.78,-199.62 867.72,-202.93 877.65,-206.62 877.78,-199.62"/>
<text text-anchor="middle" x="962.5" y="-219" font-family="Helvetica,sans-Serif" font-size="10.00"> sharedStringLast</text>
<text text-anchor="middle" x="962.5" y="-208" font-family="Helvetica,sans-Serif" font-size="10.00">sharedStringFirst</text>
</g>
<!-- Node6&#45;&gt;Node6 -->
<g id="edge7" class="edge">
<title>Node6&#45;&gt;Node6</title>
<path fill="none" stroke="#9a32cd" stroke-dasharray="5,2" d="M788.62,-220.65C789.74,-225.94 798.7,-230 815.5,-230 841.09,-230 848.49,-220.57 837.69,-211.76"/>
<polygon fill="#9a32cd" stroke="#9a32cd" points="791.74,-222.24 793.31,-211.76 785.55,-218.97 791.74,-222.24"/>
<text text-anchor="middle" x="815.5" y="-233" font-family="Helvetica,sans-Serif" font-size="10.00"> next</text>
</g>
<!-- Node7&#45;&gt;Node2 -->
<g id="edge8" class="edge">
<title>Node7&#45;&gt;Node2</title>
<path fill="none" stroke="#9a32cd" stroke-dasharray="5,2" d="M1311.76,-242.12C1295.15,-230.14 1270.46,-214.68 1246,-208 1212.71,-198.91 1173.82,-198.76 1143.51,-200.83"/>
<polygon fill="#9a32cd" stroke="#9a32cd" points="1309.99,-245.17 1320.1,-248.33 1314.18,-239.55 1309.99,-245.17"/>
<text text-anchor="middle" x="1212" y="-211" font-family="Helvetica,sans-Serif" font-size="10.00"> threadStates</text>
</g>
<!-- Node8 -->
<g id="node8" class="node">
<title>Node8</title>
<g id="a_node8"><a xlink:href="structevidence_node.html" target="_top" xlink:title=" ">
<polygon fill="none" stroke="black" points="1048.5,-265.5 1048.5,-284.5 1134.5,-284.5 1134.5,-265.5 1048.5,-265.5"/>
<text text-anchor="middle" x="1091.5" y="-272.5" font-family="Helvetica,sans-Serif" font-size="10.00">evidenceNode</text>
</a>
</g>
</g>
<!-- Node8&#45;&gt;Node7 -->
<g id="edge9" class="edge">
<title>Node8&#45;&gt;Node7</title>
<path fill="none" stroke="#9a32cd" stroke-dasharray="5,2" d="M1144.77,-271.29C1190.41,-268.05 1255.46,-263.43 1295.64,-260.58"/>
<polygon fill="#9a32cd" stroke="#9a32cd" points="1144.49,-267.8 1134.77,-272 1144.99,-274.78 1144.49,-267.8"/>
<text text-anchor="middle" x="1212" y="-282" font-family="Helvetica,sans-Serif" font-size="10.00"> evidenceLast</text>
<text text-anchor="middle" x="1212" y="-271" font-family="Helvetica,sans-Serif" font-size="10.00">evidenceFirst</text>
</g>
<!-- Node8&#45;&gt;Node8 -->
<g id="edge10" class="edge">
<title>Node8&#45;&gt;Node8</title>
<path fill="none" stroke="#9a32cd" stroke-dasharray="5,2" d="M1069.18,-294.03C1070.4,-299.13 1077.84,-303 1091.5,-303 1112.83,-303 1118.99,-293.57 1110,-284.76"/>
<polygon fill="#9a32cd" stroke="#9a32cd" points="1072.43,-295.34 1073,-284.76 1065.95,-292.67 1072.43,-295.34"/>
<text text-anchor="middle" x="1091.5" y="-306" font-family="Helvetica,sans-Serif" font-size="10.00"> next</text>
</g>
<!-- Node9 -->
<g id="node9" class="node">
<title>Node9</title>
<g id="a_node9"><a xlink:href="structfiftyone_degrees_evidence_key_value_pair_array.html" target="_top" xlink:title="Array of evidence key value pairs and a pointer to the next array if present or NULL of not present.">
<polygon fill="none" stroke="black" points="737.5,-260 737.5,-290 893.5,-290 893.5,-260 737.5,-260"/>
<text text-anchor="start" x="745.5" y="-278" font-family="Helvetica,sans-Serif" font-size="10.00">fiftyoneDegreesEvidenceKey</text>
<text text-anchor="middle" x="815.5" y="-267" font-family="Helvetica,sans-Serif" font-size="10.00">ValuePairArray</text>
</a>
</g>
</g>
<!-- Node9&#45;&gt;Node8 -->
<g id="edge11" class="edge">
<title>Node9&#45;&gt;Node8</title>
<path fill="none" stroke="#9a32cd" stroke-dasharray="5,2" d="M903.72,-275C952.07,-275 1010,-275 1048.39,-275"/>
<polygon fill="#9a32cd" stroke="#9a32cd" points="903.55,-271.5 893.55,-275 903.55,-278.5 903.55,-271.5"/>
<text text-anchor="middle" x="962.5" y="-278" font-family="Helvetica,sans-Serif" font-size="10.00"> array</text>
</g>
<!-- Node9&#45;&gt;Node9 -->
<g id="edge14" class="edge">
<title>Node9&#45;&gt;Node9</title>
<path fill="none" stroke="#9a32cd" stroke-dasharray="5,2" d="M789.91,-300.46C793.09,-305.18 801.62,-308.5 815.5,-308.5 838.28,-308.5 846.65,-299.56 840.59,-290.16"/>
<polygon fill="#9a32cd" stroke="#9a32cd" points="793.42,-300.31 790.41,-290.16 786.43,-299.98 793.42,-300.31"/>
<text text-anchor="middle" x="815.5" y="-322.5" font-family="Helvetica,sans-Serif" font-size="10.00"> prev</text>
<text text-anchor="middle" x="815.5" y="-311.5" font-family="Helvetica,sans-Serif" font-size="10.00">next</text>
</g>
<!-- Node10 -->
<g id="node10" class="node">
<title>Node10</title>
<g id="a_node10"><a xlink:href="structfiftyone_degrees_evidence_key_value_pair.html" target="_top" xlink:title="Evidence key value pair structure which combines the prefix, key and value.">
<polygon fill="none" stroke="black" points="443,-260 443,-290 599,-290 599,-260 443,-260"/>
<text text-anchor="start" x="451" y="-278" font-family="Helvetica,sans-Serif" font-size="10.00">fiftyoneDegreesEvidenceKey</text>
<text text-anchor="middle" x="521" y="-267" font-family="Helvetica,sans-Serif" font-size="10.00">ValuePair</text>
</a>
</g>
</g>
<!-- Node10&#45;&gt;Node9 -->
<g id="edge12" class="edge">
<title>Node10&#45;&gt;Node9</title>
<path fill="none" stroke="#9a32cd" stroke-dasharray="5,2" d="M609.41,-275C650.08,-275 698.03,-275 737.34,-275"/>
<polygon fill="#9a32cd" stroke="#9a32cd" points="609.23,-271.5 599.23,-275 609.23,-278.5 609.23,-271.5"/>
<text text-anchor="middle" x="670.5" y="-278" font-family="Helvetica,sans-Serif" font-size="10.00"> items</text>
</g>
<!-- Node11 -->
<g id="node11" class="node">
<title>Node11</title>
<g id="a_node11"><a xlink:href="structfiftyone_degrees_key_value_pair.html" target="_top" xlink:title=" ">
<polygon fill="none" stroke="black" points="182,-265.5 182,-284.5 339,-284.5 339,-265.5 182,-265.5"/>
<text text-anchor="middle" x="260.5" y="-272.5" font-family="Helvetica,sans-Serif" font-size="10.00">fiftyoneDegreesKeyValuePair</text>
</a>
</g>
</g>
<!-- Node11&#45;&gt;Node10 -->
<g id="edge13" class="edge">
<title>Node11&#45;&gt;Node10</title>
<path fill="none" stroke="#9a32cd" stroke-dasharray="5,2" d="M349.23,-275C379.63,-275 413.46,-275 442.94,-275"/>
<polygon fill="#9a32cd" stroke="#9a32cd" points="349.06,-271.5 339.06,-275 349.06,-278.5 349.06,-271.5"/>
<text text-anchor="middle" x="386.5" y="-278" font-family="Helvetica,sans-Serif" font-size="10.00"> item</text>
</g>
<!-- Node12&#45;&gt;Node7 -->
<g id="edge16" class="edge">
<title>Node12&#45;&gt;Node7</title>
<path fill="none" stroke="#9a32cd" stroke-dasharray="5,2" d="M1113.57,-419.43C1161.94,-383.68 1279.83,-296.56 1319.06,-267.56"/>
<polygon fill="#9a32cd" stroke="#9a32cd" points="1111.34,-416.73 1105.38,-425.48 1115.5,-422.35 1111.34,-416.73"/>
<text text-anchor="middle" x="1212" y="-370" font-family="Helvetica,sans-Serif" font-size="10.00"> manager</text>
</g>
<!-- Node13 -->
<g id="node13" class="node">
<title>Node13</title>
<g id="a_node13"><a xlink:href="class_base.html" target="_top" xlink:title="Base test class used to carry out memory leak checks.">
<polygon fill="none" stroke="black" points="795,-522.5 795,-541.5 836,-541.5 836,-522.5 795,-522.5"/>
<text text-anchor="middle" x="815.5" y="-529.5" font-family="Helvetica,sans-Serif" font-size="10.00">Base</text>
</a>
</g>
</g>
<!-- Node13&#45;&gt;Node12 -->
<g id="edge17" class="edge">
<title>Node13&#45;&gt;Node12</title>
<path fill="none" stroke="midnightblue" d="M845.87,-522.75C883.1,-510.89 949.16,-489.42 1005,-469 1026.3,-461.21 1050.28,-451.6 1067.41,-444.59"/>
<polygon fill="midnightblue" stroke="midnightblue" points="844.64,-519.47 836.16,-525.83 846.75,-526.14 844.64,-519.47"/>
</g>
<!-- Node14 -->
<g id="node14" class="node">
<title>Node14</title>
<g id="a_node14"><a xlink:title=" ">
<polygon fill="none" stroke="#bfbfbf" points="483,-549.5 483,-568.5 559,-568.5 559,-549.5 483,-549.5"/>
<text text-anchor="middle" x="521" y="-556.5" font-family="Helvetica,sans-Serif" font-size="10.00">testing::Test</text>
</a>
</g>
</g>
<!-- Node14&#45;&gt;Node13 -->
<g id="edge18" class="edge">
<title>Node14&#45;&gt;Node13</title>
<path fill="none" stroke="midnightblue" d="M569.06,-554.66C634.26,-548.64 749.19,-538.03 794.93,-533.81"/>
<polygon fill="midnightblue" stroke="midnightblue" points="568.68,-551.18 559.05,-555.58 569.32,-558.15 568.68,-551.18"/>
</g>
<!-- Node15 -->
<g id="node15" class="node">
<title>Node15</title>
<g id="a_node15"><a xlink:href="structfiftyone_degrees_result_ipi_array.html" target="_top" xlink:title="Array of items of type fiftyoneDegreesResultIpi used to easily access and track the size of the array...">
<polygon fill="none" stroke="black" points="1023,-111 1023,-141 1160,-141 1160,-111 1023,-111"/>
<text text-anchor="start" x="1031" y="-129" font-family="Helvetica,sans-Serif" font-size="10.00">fiftyoneDegreesResultIpi</text>
<text text-anchor="middle" x="1091.5" y="-118" font-family="Helvetica,sans-Serif" font-size="10.00">Array</text>
</a>
</g>
</g>
<!-- Node15&#45;&gt;Node1 -->
<g id="edge21" class="edge">
<title>Node15&#45;&gt;Node1</title>
<path fill="none" stroke="#9a32cd" stroke-dasharray="5,2" d="M1170.49,-125.05C1194.74,-125.41 1221.52,-126.5 1246,-129 1259.9,-130.42 1274.92,-132.88 1288.45,-135.46"/>
<polygon fill="#9a32cd" stroke="#9a32cd" points="1170.31,-121.54 1160.27,-124.93 1170.23,-128.54 1170.31,-121.54"/>
<text text-anchor="middle" x="1212" y="-132" font-family="Helvetica,sans-Serif" font-size="10.00"> results</text>
</g>
<!-- Node16 -->
<g id="node16" class="node">
<title>Node16</title>
<g id="a_node16"><a xlink:href="structfiftyone_degrees_result_ipi.html" target="_top" xlink:title="Singular IP address result returned by a detection process method.">
<polygon fill="none" stroke="black" points="747,-154.5 747,-173.5 884,-173.5 884,-154.5 747,-154.5"/>
<text text-anchor="middle" x="815.5" y="-161.5" font-family="Helvetica,sans-Serif" font-size="10.00">fiftyoneDegreesResultIpi</text>
</a>
</g>
</g>
<!-- Node16&#45;&gt;Node15 -->
<g id="edge22" class="edge">
<title>Node16&#45;&gt;Node15</title>
<path fill="none" stroke="#9a32cd" stroke-dasharray="5,2" d="M894.53,-154.7C928.5,-150.49 968.76,-145.27 1005,-140 1010.81,-139.16 1016.83,-138.24 1022.86,-137.3"/>
<polygon fill="#9a32cd" stroke="#9a32cd" points="893.69,-151.28 884.19,-155.97 894.55,-158.22 893.69,-151.28"/>
<text text-anchor="middle" x="962.5" y="-154" font-family="Helvetica,sans-Serif" font-size="10.00"> items</text>
</g>
<!-- Node17 -->
<g id="node17" class="node">
<title>Node17</title>
<g id="a_node17"><a xlink:href="structfiftyone_degrees_ip_address.html" target="_top" xlink:title="The structure to hold a IP Address in byte array format.">
<polygon fill="none" stroke="black" points="450,-192.5 450,-211.5 592,-211.5 592,-192.5 450,-192.5"/>
<text text-anchor="middle" x="521" y="-199.5" font-family="Helvetica,sans-Serif" font-size="10.00">fiftyoneDegreesIpAddress</text>
</a>
</g>
</g>
<!-- Node17&#45;&gt;Node16 -->
<g id="edge23" class="edge">
<title>Node17&#45;&gt;Node16</title>
<path fill="none" stroke="#9a32cd" stroke-dasharray="5,2" d="M602.29,-192.64C635.9,-188.61 675.37,-183.75 711,-179 723.78,-177.3 737.43,-175.38 750.49,-173.51"/>
<polygon fill="#9a32cd" stroke="#9a32cd" points="601.57,-189.2 592.06,-193.86 602.4,-196.15 601.57,-189.2"/>
<text text-anchor="middle" x="670.5" y="-191" font-family="Helvetica,sans-Serif" font-size="10.00"> targetIpAddress</text>
</g>
<!-- Node18 -->
<g id="node18" class="node">
<title>Node18</title>
<g id="a_node18"><a xlink:href="structfiftyone_degrees_ipi_cg_result.html" target="_top" xlink:title="The evaluation result from graph collection.">
<polygon fill="none" stroke="black" points="446.5,-154.5 446.5,-173.5 595.5,-173.5 595.5,-154.5 446.5,-154.5"/>
<text text-anchor="middle" x="521" y="-161.5" font-family="Helvetica,sans-Serif" font-size="10.00">fiftyoneDegreesIpiCgResult</text>
</a>
</g>
</g>
<!-- Node18&#45;&gt;Node16 -->
<g id="edge24" class="edge">
<title>Node18&#45;&gt;Node16</title>
<path fill="none" stroke="#9a32cd" stroke-dasharray="5,2" d="M606.06,-164C650.69,-164 704.82,-164 746.73,-164"/>
<polygon fill="#9a32cd" stroke="#9a32cd" points="605.81,-160.5 595.81,-164 605.81,-167.5 605.81,-160.5"/>
<text text-anchor="middle" x="670.5" y="-167" font-family="Helvetica,sans-Serif" font-size="10.00"> graphResult</text>
</g>
<!-- Node19 -->
<g id="node19" class="node">
<title>Node19</title>
<g id="a_node19"><a xlink:href="structfiftyone_degrees_ipi_list.html" target="_top" xlink:title="The structure which represents the list of values returned for the required property from the results...">
<polygon fill="none" stroke="black" points="754,-78.5 754,-97.5 877,-97.5 877,-78.5 754,-78.5"/>
<text text-anchor="middle" x="815.5" y="-85.5" font-family="Helvetica,sans-Serif" font-size="10.00">fiftyoneDegreesIpiList</text>
</a>
</g>
</g>
<!-- Node19&#45;&gt;Node15 -->
<g id="edge25" class="edge">
<title>Node19&#45;&gt;Node15</title>
<path fill="none" stroke="#9a32cd" stroke-dasharray="5,2" d="M887.45,-89.28C922.97,-90.84 966.5,-94.13 1005,-101 1018.4,-103.39 1032.69,-107.09 1045.67,-110.92"/>
<polygon fill="#9a32cd" stroke="#9a32cd" points="887.31,-85.77 877.18,-88.87 887.03,-92.77 887.31,-85.77"/>
<text text-anchor="middle" x="962.5" y="-104" font-family="Helvetica,sans-Serif" font-size="10.00"> values</text>
</g>
<!-- Node20 -->
<g id="node20" class="node">
<title>Node20</title>
<g id="a_node20"><a xlink:href="structfiftyone_degrees_profile_percentage.html" target="_top" xlink:title="The structure to hold a pair of result item and its percentage When getting values for a property fro...">
<polygon fill="none" stroke="black" points="431.5,-78.5 431.5,-97.5 610.5,-97.5 610.5,-78.5 431.5,-78.5"/>
<text text-anchor="middle" x="521" y="-85.5" font-family="Helvetica,sans-Serif" font-size="10.00">fiftyoneDegreesProfilePercentage</text>
</a>
</g>
</g>
<!-- Node20&#45;&gt;Node19 -->
<g id="edge26" class="edge">
<title>Node20&#45;&gt;Node19</title>
<path fill="none" stroke="#9a32cd" stroke-dasharray="5,2" d="M620.71,-88C664.73,-88 715.19,-88 753.58,-88"/>
<polygon fill="#9a32cd" stroke="#9a32cd" points="620.55,-84.5 610.55,-88 620.55,-91.5 620.55,-84.5"/>
<text text-anchor="middle" x="670.5" y="-91" font-family="Helvetica,sans-Serif" font-size="10.00"> items</text>
</g>
<!-- Node21 -->
<g id="node21" class="node">
<title>Node21</title>
<g id="a_node21"><a xlink:href="structfiftyone_degrees_collection_item.html" target="_top" xlink:title="Used to store a handle to the underlying item that could be used to release the item when it&#39;s finish...">
<polygon fill="none" stroke="black" points="178,-56.5 178,-75.5 343,-75.5 343,-56.5 178,-56.5"/>
<text text-anchor="middle" x="260.5" y="-63.5" font-family="Helvetica,sans-Serif" font-size="10.00">fiftyoneDegreesCollectionItem</text>
</a>
</g>
</g>
<!-- Node21&#45;&gt;Node15 -->
<g id="edge33" class="edge">
<title>Node21&#45;&gt;Node15</title>
<path fill="none" stroke="#9a32cd" stroke-dasharray="5,2" d="M300.87,-78.53C334.7,-88.58 385,-101.83 430,-107 645.4,-131.76 902.76,-130.32 1022.72,-127.87"/>
<polygon fill="#9a32cd" stroke="#9a32cd" points="301.51,-75.06 290.92,-75.52 299.49,-81.76 301.51,-75.06"/>
<text text-anchor="middle" x="670.5" y="-129" font-family="Helvetica,sans-Serif" font-size="10.00"> propertyItem</text>
</g>
<!-- Node21&#45;&gt;Node20 -->
<g id="edge27" class="edge">
<title>Node21&#45;&gt;Node20</title>
<path fill="none" stroke="#9a32cd" stroke-dasharray="5,2" d="M353.59,-73.84C378.81,-75.98 406.09,-78.31 431.13,-80.44"/>
<polygon fill="#9a32cd" stroke="#9a32cd" points="353.55,-70.32 343.29,-72.96 352.96,-77.3 353.55,-70.32"/>
<text text-anchor="middle" x="386.5" y="-81" font-family="Helvetica,sans-Serif" font-size="10.00"> item</text>
</g>
<!-- Node22 -->
<g id="node22" class="node">
<title>Node22</title>
<g id="a_node22"><a xlink:href="structfiftyone_degrees_collection.html" target="_top" xlink:title="All the shared methods and fields required by file, memory and cached collections.">
<polygon fill="none" stroke="black" points="449.5,-0.5 449.5,-19.5 592.5,-19.5 592.5,-0.5 449.5,-0.5"/>
<text text-anchor="middle" x="521" y="-7.5" font-family="Helvetica,sans-Serif" font-size="10.00">fiftyoneDegreesCollection</text>
</a>
</g>
</g>
<!-- Node21&#45;&gt;Node22 -->
<g id="edge29" class="edge">
<title>Node21&#45;&gt;Node22</title>
<path fill="none" stroke="#9a32cd" stroke-dasharray="5,2" d="M315.47,-54.31C363.11,-43.99 431.68,-29.13 476.04,-19.52"/>
<polygon fill="#9a32cd" stroke="#9a32cd" points="314.68,-50.9 305.64,-56.44 316.16,-57.74 314.68,-50.9"/>
<text text-anchor="middle" x="386.5" y="-46" font-family="Helvetica,sans-Serif" font-size="10.00"> release</text>
</g>
<!-- Node22&#45;&gt;Node21 -->
<g id="edge28" class="edge">
<title>Node22&#45;&gt;Node21</title>
<path fill="none" stroke="#9a32cd" stroke-dasharray="5,2" d="M439.09,-5.69C413.75,-6.16 385.91,-8.57 361,-15 328.11,-23.49 293.69,-44.2 275.2,-56.46"/>
<polygon fill="#9a32cd" stroke="#9a32cd" points="439.43,-9.19 449.4,-5.6 439.37,-2.19 439.43,-9.19"/>
<text text-anchor="middle" x="386.5" y="-18" font-family="Helvetica,sans-Serif" font-size="10.00"> collection</text>
</g>
<!-- Node22&#45;&gt;Node22 -->
<g id="edge30" class="edge">
<title>Node22&#45;&gt;Node22</title>
<path fill="none" stroke="#9a32cd" stroke-dasharray="5,2" d="M496.07,-29.03C497.43,-34.13 505.74,-38 521,-38 544.82,-38 551.7,-28.57 541.65,-19.76"/>
<polygon fill="#9a32cd" stroke="#9a32cd" points="499.34,-30.3 500.35,-19.76 492.98,-27.37 499.34,-30.3"/>
<text text-anchor="middle" x="521" y="-52" font-family="Helvetica,sans-Serif" font-size="10.00"> freeCollection</text>
<text text-anchor="middle" x="521" y="-41" font-family="Helvetica,sans-Serif" font-size="10.00">get</text>
</g>
<!-- Node23 -->
<g id="node23" class="node">
<title>Node23</title>
<g id="a_node23"><a xlink:href="structfiftyone_degrees_data.html" target="_top" xlink:title="Data structure used for reusing memory which may have been allocated in a previous operation.">
<polygon fill="none" stroke="black" points="0,-56.5 0,-75.5 117,-75.5 117,-56.5 0,-56.5"/>
<text text-anchor="middle" x="58.5" y="-63.5" font-family="Helvetica,sans-Serif" font-size="10.00">fiftyoneDegreesData</text>
</a>
</g>
</g>
<!-- Node23&#45;&gt;Node21 -->
<g id="edge31" class="edge">
<title>Node23&#45;&gt;Node21</title>
<path fill="none" stroke="#9a32cd" stroke-dasharray="5,2" d="M127.5,-66C143.67,-66 161.08,-66 177.78,-66"/>
<polygon fill="#9a32cd" stroke="#9a32cd" points="127.08,-62.5 117.08,-66 127.08,-69.5 127.08,-62.5"/>
<text text-anchor="middle" x="147.5" y="-69" font-family="Helvetica,sans-Serif" font-size="10.00"> data</text>
</g>
<!-- Node24 -->
<g id="node24" class="node">
<title>Node24</title>
<g id="a_node24"><a xlink:href="structfiftyone_degrees_results_base.html" target="_top" xlink:title="Base results structure which any processing results should extend.">
<polygon fill="none" stroke="black" points="738.5,-40.5 738.5,-59.5 892.5,-59.5 892.5,-40.5 738.5,-40.5"/>
<text text-anchor="middle" x="815.5" y="-47.5" font-family="Helvetica,sans-Serif" font-size="10.00">fiftyoneDegreesResultsBase</text>
</a>
</g>
</g>
<!-- Node24&#45;&gt;Node15 -->
<g id="edge32" class="edge">
<title>Node24&#45;&gt;Node15</title>
<path fill="none" stroke="#9a32cd" stroke-dasharray="5,2" d="M902.83,-54.76C935.5,-58.4 972.6,-64.79 1005,-76 1028.73,-84.21 1053.2,-99.32 1069.85,-110.79"/>
<polygon fill="#9a32cd" stroke="#9a32cd" points="903.15,-51.27 892.84,-53.71 902.42,-58.23 903.15,-51.27"/>
<text text-anchor="middle" x="962.5" y="-79" font-family="Helvetica,sans-Serif" font-size="10.00"> b</text>
</g>
</g>
</svg>
