<?xml version="1.0" encoding="UTF-8" standalone="no"?>
<!DOCTYPE svg PUBLIC "-//W3C//DTD SVG 1.1//EN"
 "http://www.w3.org/Graphics/SVG/1.1/DTD/svg11.dtd">
<!-- Generated by graphviz version 2.43.0 (0)
 -->
<!-- Title: fiftyoneDegreesDataSetIpiHeader Pages: 1 -->
<svg width="287pt" height="227pt"
 viewBox="0.00 0.00 286.50 227.00" xmlns="http://www.w3.org/2000/svg" xmlns:xlink="http://www.w3.org/1999/xlink">
<g id="graph0" class="graph" transform="scale(1 1) rotate(0) translate(4 223)">
<title>fiftyoneDegreesDataSetIpiHeader</title>
<!-- Node1 -->
<g id="node1" class="node">
<title>Node1</title>
<g id="a_node1"><a xlink:title="DATA STRUCTURES.">
<polygon fill="#bfbfbf" stroke="black" points="60,-0.5 60,-30.5 205,-30.5 205,-0.5 60,-0.5"/>
<text text-anchor="start" x="68" y="-18.5" font-family="Helvetica,sans-Serif" font-size="10.00">fiftyoneDegreesDataSetIpi</text>
<text text-anchor="middle" x="132.5" y="-7.5" font-family="Helvetica,sans-Serif" font-size="10.00">Header</text>
</a>
</g>
</g>
<!-- Node2 -->
<g id="node2" class="node">
<title>Node2</title>
<g id="a_node2"><a xlink:href="structfiftyone_degrees_date.html" target="_top" xlink:title="Used to store the date when the dataset was produced and next date 51Degrees expect to provide a new ...">
<polygon fill="none" stroke="black" points="0,-194 0,-213 117,-213 117,-194 0,-194"/>
<text text-anchor="middle" x="58.5" y="-201" font-family="Helvetica,sans-Serif" font-size="10.00">fiftyoneDegreesDate</text>
</a>
</g>
</g>
<!-- Node2&#45;&gt;Node1 -->
<g id="edge1" class="edge">
<title>Node2&#45;&gt;Node1</title>
<path fill="none" stroke="#9a32cd" stroke-dasharray="5,2" d="M65.88,-183.95C80.66,-146.79 113.63,-63.94 126.85,-30.7"/>
<polygon fill="#9a32cd" stroke="#9a32cd" points="62.51,-182.94 62.07,-193.53 69.02,-185.53 62.51,-182.94"/>
<text text-anchor="middle" x="149" y="-112.5" font-family="Helvetica,sans-Serif" font-size="10.00"> nextUpdate</text>
<text text-anchor="middle" x="149" y="-101.5" font-family="Helvetica,sans-Serif" font-size="10.00">published</text>
</g>
<!-- Node3 -->
<g id="node3" class="node">
<title>Node3</title>
<g id="a_node3"><a xlink:href="structfiftyone_degrees_collection_header.html" target="_top" xlink:title="Collection header structure which defines the size and location of the collection data.">
<polygon fill="none" stroke="black" points="135,-188.5 135,-218.5 278,-218.5 278,-188.5 135,-188.5"/>
<text text-anchor="start" x="143" y="-206.5" font-family="Helvetica,sans-Serif" font-size="10.00">fiftyoneDegreesCollection</text>
<text text-anchor="middle" x="206.5" y="-195.5" font-family="Helvetica,sans-Serif" font-size="10.00">Header</text>
</a>
</g>
</g>
<!-- Node3&#45;&gt;Node1 -->
<g id="edge2" class="edge">
<title>Node3&#45;&gt;Node1</title>
<path fill="none" stroke="#9a32cd" stroke-dasharray="5,2" d="M208.75,-178.18C210.51,-145.97 209.24,-88.62 183.5,-49 178.64,-41.52 171.38,-35.42 163.86,-30.61"/>
<polygon fill="#9a32cd" stroke="#9a32cd" points="205.24,-178.24 208.04,-188.46 212.23,-178.72 205.24,-178.24"/>
<text text-anchor="middle" x="243.5" y="-162" font-family="Helvetica,sans-Serif" font-size="10.00"> profileOffsets</text>
<text text-anchor="middle" x="243.5" y="-151" font-family="Helvetica,sans-Serif" font-size="10.00">values</text>
<text text-anchor="middle" x="243.5" y="-140" font-family="Helvetica,sans-Serif" font-size="10.00">graphs</text>
<text text-anchor="middle" x="243.5" y="-129" font-family="Helvetica,sans-Serif" font-size="10.00">profileGroups</text>
<text text-anchor="middle" x="243.5" y="-118" font-family="Helvetica,sans-Serif" font-size="10.00">strings</text>
<text text-anchor="middle" x="243.5" y="-107" font-family="Helvetica,sans-Serif" font-size="10.00">propertyTypes</text>
<text text-anchor="middle" x="243.5" y="-96" font-family="Helvetica,sans-Serif" font-size="10.00">maps</text>
<text text-anchor="middle" x="243.5" y="-85" font-family="Helvetica,sans-Serif" font-size="10.00">components</text>
<text text-anchor="middle" x="243.5" y="-74" font-family="Helvetica,sans-Serif" font-size="10.00">properties</text>
<text text-anchor="middle" x="243.5" y="-63" font-family="Helvetica,sans-Serif" font-size="10.00">profiles</text>
<text text-anchor="middle" x="243.5" y="-52" font-family="Helvetica,sans-Serif" font-size="10.00">...</text>
</g>
</g>
</svg>
