<?xml version="1.0" encoding="UTF-8" standalone="no"?>
<!DOCTYPE svg PUBLIC "-//W3C//DTD SVG 1.1//EN"
 "http://www.w3.org/Graphics/SVG/1.1/DTD/svg11.dtd">
<!-- Generated by graphviz version 2.43.0 (0)
 -->
<!-- Title: ProcessingContext Pages: 1 -->
<svg width="593pt" height="173pt"
 viewBox="0.00 0.00 592.50 173.00" xmlns="http://www.w3.org/2000/svg" xmlns:xlink="http://www.w3.org/1999/xlink">
<g id="graph0" class="graph" transform="scale(1 1) rotate(0) translate(4 169)">
<title>ProcessingContext</title>
<!-- Node1 -->
<g id="node1" class="node">
<title>Node1</title>
<g id="a_node1"><a xlink:title=" ">
<polygon fill="#bfbfbf" stroke="black" points="244,-0.5 244,-19.5 351,-19.5 351,-0.5 244,-0.5"/>
<text text-anchor="middle" x="297.5" y="-7.5" font-family="Helvetica,sans-Serif" font-size="10.00">ProcessingContext</text>
</a>
</g>
</g>
<!-- Node2 -->
<g id="node2" class="node">
<title>Node2</title>
<g id="a_node2"><a xlink:href="struct_output_state.html" target="_top" xlink:title=" ">
<polygon fill="none" stroke="black" points="45,-67.5 45,-86.5 120,-86.5 120,-67.5 45,-67.5"/>
<text text-anchor="middle" x="82.5" y="-74.5" font-family="Helvetica,sans-Serif" font-size="10.00">OutputState</text>
</a>
</g>
</g>
<!-- Node2&#45;&gt;Node1 -->
<g id="edge1" class="edge">
<title>Node2&#45;&gt;Node1</title>
<path fill="none" stroke="#9a32cd" stroke-dasharray="5,2" d="M91.23,-58.58C95.91,-51.05 102.39,-42.85 110.5,-38 132.38,-24.9 196.68,-17.75 243.78,-14.16"/>
<polygon fill="#9a32cd" stroke="#9a32cd" points="88.08,-57.04 86.28,-67.48 94.2,-60.44 88.08,-57.04"/>
<text text-anchor="middle" x="128" y="-41" font-family="Helvetica,sans-Serif" font-size="10.00"> output</text>
</g>
<!-- Node3 -->
<g id="node3" class="node">
<title>Node3</title>
<g id="a_node3"><a xlink:href="structfiftyone_degrees_string_builder.html" target="_top" xlink:title="String buffer for building strings with memory checks.">
<polygon fill="none" stroke="black" points="0,-145.5 0,-164.5 157,-164.5 157,-145.5 0,-145.5"/>
<text text-anchor="middle" x="78.5" y="-152.5" font-family="Helvetica,sans-Serif" font-size="10.00">fiftyoneDegreesStringBuilder</text>
</a>
</g>
</g>
<!-- Node3&#45;&gt;Node2 -->
<g id="edge2" class="edge">
<title>Node3&#45;&gt;Node2</title>
<path fill="none" stroke="#9a32cd" stroke-dasharray="5,2" d="M78.49,-135.07C78.58,-125.97 78.85,-114.91 79.5,-105 79.9,-98.98 80.65,-92.23 81.3,-86.98"/>
<polygon fill="#9a32cd" stroke="#9a32cd" points="74.99,-135.3 78.44,-145.32 81.99,-135.33 74.99,-135.3"/>
<text text-anchor="middle" x="112.5" y="-113.5" font-family="Helvetica,sans-Serif" font-size="10.00"> stringBuilder</text>
</g>
<!-- Node4 -->
<g id="node4" class="node">
<title>Node4</title>
<g id="a_node4"><a xlink:href="struct_num_reader.html" target="_top" xlink:title=" ">
<polygon fill="none" stroke="black" points="260.5,-67.5 260.5,-86.5 334.5,-86.5 334.5,-67.5 260.5,-67.5"/>
<text text-anchor="middle" x="297.5" y="-74.5" font-family="Helvetica,sans-Serif" font-size="10.00">NumReader</text>
</a>
</g>
</g>
<!-- Node4&#45;&gt;Node1 -->
<g id="edge3" class="edge">
<title>Node4&#45;&gt;Node1</title>
<path fill="none" stroke="#9a32cd" stroke-dasharray="5,2" d="M297.5,-57.04C297.5,-44.67 297.5,-29.12 297.5,-19.63"/>
<polygon fill="#9a32cd" stroke="#9a32cd" points="294,-57.23 297.5,-67.23 301,-57.23 294,-57.23"/>
<text text-anchor="middle" x="327.5" y="-41" font-family="Helvetica,sans-Serif" font-size="10.00"> numReader</text>
</g>
<!-- Node5 -->
<g id="node5" class="node">
<title>Node5</title>
<g id="a_node5"><a xlink:href="struct_raw_value_reader.html" target="_top" xlink:title=" ">
<polygon fill="none" stroke="black" points="211,-145.5 211,-164.5 310,-164.5 310,-145.5 211,-145.5"/>
<text text-anchor="middle" x="260.5" y="-152.5" font-family="Helvetica,sans-Serif" font-size="10.00">RawValueReader</text>
</a>
</g>
</g>
<!-- Node5&#45;&gt;Node1 -->
<g id="edge5" class="edge">
<title>Node5&#45;&gt;Node1</title>
<path fill="none" stroke="#9a32cd" stroke-dasharray="5,2" d="M228.85,-141.48C194.8,-126.06 148.11,-98.08 168.5,-67 185.51,-41.07 217.39,-27.09 245.2,-19.58"/>
<polygon fill="#9a32cd" stroke="#9a32cd" points="227.48,-144.7 238.05,-145.48 230.28,-138.28 227.48,-144.7"/>
<text text-anchor="middle" x="210" y="-74.5" font-family="Helvetica,sans-Serif" font-size="10.00"> rawValueReader</text>
</g>
<!-- Node5&#45;&gt;Node4 -->
<g id="edge4" class="edge">
<title>Node5&#45;&gt;Node4</title>
<path fill="none" stroke="#9a32cd" stroke-dasharray="5,2" d="M269.2,-136.12C276.79,-120.53 287.48,-98.59 293.31,-86.62"/>
<polygon fill="#9a32cd" stroke="#9a32cd" points="265.97,-134.76 264.74,-145.28 272.27,-137.82 265.97,-134.76"/>
<text text-anchor="middle" x="312" y="-119" font-family="Helvetica,sans-Serif" font-size="10.00"> readInt</text>
<text text-anchor="middle" x="312" y="-108" font-family="Helvetica,sans-Serif" font-size="10.00">readDouble</text>
</g>
<!-- Node6 -->
<g id="node6" class="node">
<title>Node6</title>
<g id="a_node6"><a xlink:href="structfiftyone_degrees_exception.html" target="_top" xlink:title="Structure used to represent a 51Degrees exception and passed into methods that might generate excepti...">
<polygon fill="none" stroke="black" points="352.5,-67.5 352.5,-86.5 494.5,-86.5 494.5,-67.5 352.5,-67.5"/>
<text text-anchor="middle" x="423.5" y="-74.5" font-family="Helvetica,sans-Serif" font-size="10.00">fiftyoneDegreesException</text>
</a>
</g>
</g>
<!-- Node6&#45;&gt;Node1 -->
<g id="edge6" class="edge">
<title>Node6&#45;&gt;Node1</title>
<path fill="none" stroke="#9a32cd" stroke-dasharray="5,2" d="M401.9,-61.65C390.19,-54.16 375.32,-45.1 361.5,-38 348.09,-31.11 332.52,-24.51 320.09,-19.56"/>
<polygon fill="#9a32cd" stroke="#9a32cd" points="400.24,-64.74 410.53,-67.25 404.05,-58.87 400.24,-64.74"/>
<text text-anchor="middle" x="406.5" y="-41" font-family="Helvetica,sans-Serif" font-size="10.00"> exception</text>
</g>
<!-- Node7 -->
<g id="node7" class="node">
<title>Node7</title>
<g id="a_node7"><a xlink:href="struct_coord_mode.html" target="_top" xlink:title=" ">
<polygon fill="none" stroke="black" points="512.5,-67.5 512.5,-86.5 584.5,-86.5 584.5,-67.5 512.5,-67.5"/>
<text text-anchor="middle" x="548.5" y="-74.5" font-family="Helvetica,sans-Serif" font-size="10.00">CoordMode</text>
</a>
</g>
</g>
<!-- Node7&#45;&gt;Node1 -->
<g id="edge7" class="edge">
<title>Node7&#45;&gt;Node1</title>
<path fill="none" stroke="#9a32cd" stroke-dasharray="5,2" d="M516.45,-63.84C494.24,-55.73 463.86,-45.26 436.5,-38 408.34,-30.53 376.47,-24.19 350.36,-19.53"/>
<polygon fill="#9a32cd" stroke="#9a32cd" points="515.44,-67.2 526.04,-67.38 517.87,-60.63 515.44,-67.2"/>
<text text-anchor="middle" x="499.5" y="-41" font-family="Helvetica,sans-Serif" font-size="10.00"> coordMode</text>
</g>
</g>
</svg>
