<?xml version="1.0" encoding="UTF-8" standalone="no"?>
<!DOCTYPE svg PUBLIC "-//W3C//DTD SVG 1.1//EN"
 "http://www.w3.org/Graphics/SVG/1.1/DTD/svg11.dtd">
<!-- Generated by graphviz version 2.43.0 (0)
 -->
<!-- Title: fiftyoneDegreesIpiList Pages: 1 -->
<svg width="435pt" height="242pt"
 viewBox="0.00 0.00 435.00 242.00" xmlns="http://www.w3.org/2000/svg" xmlns:xlink="http://www.w3.org/1999/xlink">
<g id="graph0" class="graph" transform="scale(1 1) rotate(0) translate(4 238)">
<title>fiftyoneDegreesIpiList</title>
<!-- Node1 -->
<g id="node1" class="node">
<title>Node1</title>
<g id="a_node1"><a xlink:title="The structure which represents the list of values returned for the required property from the results...">
<polygon fill="#bfbfbf" stroke="black" points="276,-0.5 276,-19.5 399,-19.5 399,-0.5 276,-0.5"/>
<text text-anchor="middle" x="337.5" y="-7.5" font-family="Helvetica,sans-Serif" font-size="10.00">fiftyoneDegreesIpiList</text>
</a>
</g>
</g>
<!-- Node2 -->
<g id="node2" class="node">
<title>Node2</title>
<g id="a_node2"><a xlink:href="structfiftyone_degrees_profile_percentage.html" target="_top" xlink:title="The structure to hold a pair of result item and its percentage When getting values for a property fro...">
<polygon fill="none" stroke="black" points="248,-74 248,-93 427,-93 427,-74 248,-74"/>
<text text-anchor="middle" x="337.5" y="-81" font-family="Helvetica,sans-Serif" font-size="10.00">fiftyoneDegreesProfilePercentage</text>
</a>
</g>
</g>
<!-- Node2&#45;&gt;Node1 -->
<g id="edge1" class="edge">
<title>Node2&#45;&gt;Node1</title>
<path fill="none" stroke="#9a32cd" stroke-dasharray="5,2" d="M337.5,-63.59C337.5,-49.43 337.5,-30.7 337.5,-19.84"/>
<polygon fill="#9a32cd" stroke="#9a32cd" points="334,-63.73 337.5,-73.73 341,-63.73 334,-63.73"/>
<text text-anchor="middle" x="353" y="-41" font-family="Helvetica,sans-Serif" font-size="10.00"> items</text>
</g>
<!-- Node3 -->
<g id="node3" class="node">
<title>Node3</title>
<g id="a_node3"><a xlink:href="structfiftyone_degrees_collection_item.html" target="_top" xlink:title="Used to store a handle to the underlying item that could be used to release the item when it&#39;s finish...">
<polygon fill="none" stroke="black" points="52,-147.5 52,-166.5 217,-166.5 217,-147.5 52,-147.5"/>
<text text-anchor="middle" x="134.5" y="-154.5" font-family="Helvetica,sans-Serif" font-size="10.00">fiftyoneDegreesCollectionItem</text>
</a>
</g>
</g>
<!-- Node3&#45;&gt;Node2 -->
<g id="edge2" class="edge">
<title>Node3&#45;&gt;Node2</title>
<path fill="none" stroke="#9a32cd" stroke-dasharray="5,2" d="M168.54,-144.01C209.5,-129.59 277.23,-105.73 313.24,-93.04"/>
<polygon fill="#9a32cd" stroke="#9a32cd" points="167.26,-140.75 158.99,-147.38 169.58,-147.35 167.26,-140.75"/>
<text text-anchor="middle" x="255.5" y="-121" font-family="Helvetica,sans-Serif" font-size="10.00"> item</text>
</g>
<!-- Node4 -->
<g id="node4" class="node">
<title>Node4</title>
<g id="a_node4"><a xlink:href="structfiftyone_degrees_collection.html" target="_top" xlink:title="All the shared methods and fields required by file, memory and cached collections.">
<polygon fill="none" stroke="black" points="0,-74 0,-93 143,-93 143,-74 0,-74"/>
<text text-anchor="middle" x="71.5" y="-81" font-family="Helvetica,sans-Serif" font-size="10.00">fiftyoneDegreesCollection</text>
</a>
</g>
</g>
<!-- Node3&#45;&gt;Node4 -->
<g id="edge4" class="edge">
<title>Node3&#45;&gt;Node4</title>
<path fill="none" stroke="#9a32cd" stroke-dasharray="5,2" d="M83.59,-142.81C77.65,-139.25 72.35,-134.73 68.5,-129 61.34,-118.33 64.72,-102.79 67.99,-93.18"/>
<polygon fill="#9a32cd" stroke="#9a32cd" points="82.15,-146 92.66,-147.36 85.3,-139.74 82.15,-146"/>
<text text-anchor="middle" x="88.5" y="-121" font-family="Helvetica,sans-Serif" font-size="10.00"> release</text>
</g>
<!-- Node4&#45;&gt;Node3 -->
<g id="edge3" class="edge">
<title>Node4&#45;&gt;Node3</title>
<path fill="none" stroke="#9a32cd" stroke-dasharray="5,2" d="M92.61,-99.35C99.43,-104.75 106.72,-111.21 112.5,-118 120.21,-127.06 126.69,-139.19 130.58,-147.28"/>
<polygon fill="#9a32cd" stroke="#9a32cd" points="94.45,-96.36 84.36,-93.13 90.24,-101.95 94.45,-96.36"/>
<text text-anchor="middle" x="146" y="-121" font-family="Helvetica,sans-Serif" font-size="10.00"> collection</text>
</g>
<!-- Node4&#45;&gt;Node4 -->
<g id="edge5" class="edge">
<title>Node4&#45;&gt;Node4</title>
<path fill="none" stroke="#9a32cd" stroke-dasharray="5,2" d="M153.11,-88.69C158.04,-87.46 161,-85.73 161,-83.5 161,-80.02 153.79,-77.76 143.13,-76.7"/>
<polygon fill="#9a32cd" stroke="#9a32cd" points="152.44,-85.26 143.13,-90.3 153.56,-92.17 152.44,-85.26"/>
<text text-anchor="middle" x="195.5" y="-92" font-family="Helvetica,sans-Serif" font-size="10.00"> next</text>
<text text-anchor="middle" x="195.5" y="-81" font-family="Helvetica,sans-Serif" font-size="10.00">freeCollection</text>
<text text-anchor="middle" x="195.5" y="-70" font-family="Helvetica,sans-Serif" font-size="10.00">get</text>
</g>
<!-- Node5 -->
<g id="node5" class="node">
<title>Node5</title>
<g id="a_node5"><a xlink:href="structfiftyone_degrees_data.html" target="_top" xlink:title="Data structure used for reusing memory which may have been allocated in a previous operation.">
<polygon fill="none" stroke="black" points="76,-214.5 76,-233.5 193,-233.5 193,-214.5 76,-214.5"/>
<text text-anchor="middle" x="134.5" y="-221.5" font-family="Helvetica,sans-Serif" font-size="10.00">fiftyoneDegreesData</text>
</a>
</g>
</g>
<!-- Node5&#45;&gt;Node3 -->
<g id="edge6" class="edge">
<title>Node5&#45;&gt;Node3</title>
<path fill="none" stroke="#9a32cd" stroke-dasharray="5,2" d="M134.5,-204.04C134.5,-191.67 134.5,-176.12 134.5,-166.63"/>
<polygon fill="#9a32cd" stroke="#9a32cd" points="131,-204.23 134.5,-214.23 138,-204.23 131,-204.23"/>
<text text-anchor="middle" x="147" y="-188" font-family="Helvetica,sans-Serif" font-size="10.00"> data</text>
</g>
<!-- Node6 -->
<g id="node6" class="node">
<title>Node6</title>
<g id="a_node6"><a xlink:href="structfiftyone_degrees_float_internal.html" target="_top" xlink:title="Struture that represents 51Degrees implementation, which encapsulate an array of 4 bytes.">
<polygon fill="none" stroke="black" points="259.5,-147.5 259.5,-166.5 415.5,-166.5 415.5,-147.5 259.5,-147.5"/>
<text text-anchor="middle" x="337.5" y="-154.5" font-family="Helvetica,sans-Serif" font-size="10.00">fiftyoneDegreesFloatInternal</text>
</a>
</g>
</g>
<!-- Node6&#45;&gt;Node2 -->
<g id="edge7" class="edge">
<title>Node6&#45;&gt;Node2</title>
<path fill="none" stroke="#9a32cd" stroke-dasharray="5,2" d="M337.5,-137.09C337.5,-122.93 337.5,-104.2 337.5,-93.34"/>
<polygon fill="#9a32cd" stroke="#9a32cd" points="334,-137.23 337.5,-147.23 341,-137.23 334,-137.23"/>
<text text-anchor="middle" x="366.5" y="-121" font-family="Helvetica,sans-Serif" font-size="10.00"> percentage</text>
</g>
</g>
</svg>
