<?xml version="1.0" encoding="UTF-8" standalone="no"?>
<!DOCTYPE svg PUBLIC "-//W3C//DTD SVG 1.1//EN"
 "http://www.w3.org/Graphics/SVG/1.1/DTD/svg11.dtd">
<!-- Generated by graphviz version 2.43.0 (0)
 -->
<!-- Title: stringCollectionState Pages: 1 -->
<svg width="402pt" height="97pt"
 viewBox="0.00 0.00 402.00 97.00" xmlns="http://www.w3.org/2000/svg" xmlns:xlink="http://www.w3.org/1999/xlink">
<g id="graph0" class="graph" transform="scale(1 1) rotate(0) translate(4 93)">
<title>stringCollectionState</title>
<!-- Node1 -->
<g id="node1" class="node">
<title>Node1</title>
<g id="a_node1"><a xlink:title=" ">
<polygon fill="#bfbfbf" stroke="black" points="0,-0.5 0,-19.5 119,-19.5 119,-0.5 0,-0.5"/>
<text text-anchor="middle" x="59.5" y="-7.5" font-family="Helvetica,sans-Serif" font-size="10.00">stringCollectionState</text>
</a>
</g>
</g>
<!-- Node2 -->
<g id="node2" class="node">
<title>Node2</title>
<g id="a_node2"><a xlink:href="structfiftyone_degrees_collection.html" target="_top" xlink:title="All the shared methods and fields required by file, memory and cached collections.">
<polygon fill="none" stroke="black" points="26,-68.5 26,-87.5 169,-87.5 169,-68.5 26,-68.5"/>
<text text-anchor="middle" x="97.5" y="-75.5" font-family="Helvetica,sans-Serif" font-size="10.00">fiftyoneDegreesCollection</text>
</a>
</g>
</g>
<!-- Node2&#45;&gt;Node1 -->
<g id="edge1" class="edge">
<title>Node2&#45;&gt;Node1</title>
<path fill="none" stroke="#9a32cd" stroke-dasharray="5,2" d="M74.08,-61.9C69.93,-58.17 66.1,-53.84 63.5,-49 58.6,-39.89 58.19,-27.77 58.61,-19.69"/>
<polygon fill="#9a32cd" stroke="#9a32cd" points="72.21,-64.88 82.24,-68.29 76.52,-59.37 72.21,-64.88"/>
<text text-anchor="middle" x="89" y="-41" font-family="Helvetica,sans-Serif" font-size="10.00"> collection</text>
</g>
<!-- Node2&#45;&gt;Node2 -->
<g id="edge5" class="edge">
<title>Node2&#45;&gt;Node2</title>
<path fill="none" stroke="#9a32cd" stroke-dasharray="5,2" d="M179.11,-82.41C184.04,-81.36 187,-79.89 187,-78 187,-75.04 179.79,-73.12 169.13,-72.22"/>
<polygon fill="#9a32cd" stroke="#9a32cd" points="178.56,-78.96 169.13,-83.78 179.51,-85.89 178.56,-78.96"/>
<text text-anchor="middle" x="223" y="-81" font-family="Helvetica,sans-Serif" font-size="10.00"> freeCollection</text>
<text text-anchor="middle" x="223" y="-70" font-family="Helvetica,sans-Serif" font-size="10.00">get</text>
</g>
<!-- Node3 -->
<g id="node3" class="node">
<title>Node3</title>
<g id="a_node3"><a xlink:href="structfiftyone_degrees_collection_item.html" target="_top" xlink:title="Used to store a handle to the underlying item that could be used to release the item when it&#39;s finish...">
<polygon fill="none" stroke="black" points="137,-0.5 137,-19.5 302,-19.5 302,-0.5 137,-0.5"/>
<text text-anchor="middle" x="219.5" y="-7.5" font-family="Helvetica,sans-Serif" font-size="10.00">fiftyoneDegreesCollectionItem</text>
</a>
</g>
</g>
<!-- Node2&#45;&gt;Node3 -->
<g id="edge3" class="edge">
<title>Node2&#45;&gt;Node3</title>
<path fill="none" stroke="#9a32cd" stroke-dasharray="5,2" d="M110.71,-60.56C117.68,-52.8 126.79,-43.95 136.5,-38 149.94,-29.76 166.15,-23.76 180.67,-19.54"/>
<polygon fill="#9a32cd" stroke="#9a32cd" points="107.88,-58.48 104.06,-68.37 113.21,-63.02 107.88,-58.48"/>
<text text-anchor="middle" x="162" y="-41" font-family="Helvetica,sans-Serif" font-size="10.00"> collection</text>
</g>
<!-- Node3&#45;&gt;Node2 -->
<g id="edge2" class="edge">
<title>Node3&#45;&gt;Node2</title>
<path fill="none" stroke="#9a32cd" stroke-dasharray="5,2" d="M210.26,-28.16C205.52,-35.52 199.14,-43.63 191.5,-49 178.54,-58.11 162.6,-64.29 147.54,-68.48"/>
<polygon fill="#9a32cd" stroke="#9a32cd" points="213.29,-29.91 215.34,-19.52 207.25,-26.36 213.29,-29.91"/>
<text text-anchor="middle" x="222.5" y="-41" font-family="Helvetica,sans-Serif" font-size="10.00"> release</text>
</g>
<!-- Node4 -->
<g id="node4" class="node">
<title>Node4</title>
<g id="a_node4"><a xlink:href="structfiftyone_degrees_data.html" target="_top" xlink:title="Data structure used for reusing memory which may have been allocated in a previous operation.">
<polygon fill="none" stroke="black" points="277,-68.5 277,-87.5 394,-87.5 394,-68.5 277,-68.5"/>
<text text-anchor="middle" x="335.5" y="-75.5" font-family="Helvetica,sans-Serif" font-size="10.00">fiftyoneDegreesData</text>
</a>
</g>
</g>
<!-- Node4&#45;&gt;Node3 -->
<g id="edge4" class="edge">
<title>Node4&#45;&gt;Node3</title>
<path fill="none" stroke="#9a32cd" stroke-dasharray="5,2" d="M311.49,-63.34C288.4,-50.2 254.21,-30.75 234.67,-19.63"/>
<polygon fill="#9a32cd" stroke="#9a32cd" points="309.91,-66.47 320.34,-68.37 313.37,-60.38 309.91,-66.47"/>
<text text-anchor="middle" x="296" y="-41" font-family="Helvetica,sans-Serif" font-size="10.00"> data</text>
</g>
</g>
</svg>
