<?xml version="1.0" encoding="UTF-8" standalone="no"?>
<!DOCTYPE svg PUBLIC "-//W3C//DTD SVG 1.1//EN"
 "http://www.w3.org/Graphics/SVG/1.1/DTD/svg11.dtd">
<!-- Generated by graphviz version 2.43.0 (0)
 -->
<!-- Title: FilterResult Pages: 1 -->
<svg width="2443pt" height="895pt"
 viewBox="0.00 0.00 2443.00 894.50" xmlns="http://www.w3.org/2000/svg" xmlns:xlink="http://www.w3.org/1999/xlink">
<g id="graph0" class="graph" transform="scale(1 1) rotate(0) translate(4 890.5)">
<title>FilterResult</title>
<!-- Node1 -->
<g id="node1" class="node">
<title>Node1</title>
<g id="a_node1"><a xlink:title=" ">
<polygon fill="#bfbfbf" stroke="black" points="2363,-423 2363,-442 2435,-442 2435,-423 2363,-423"/>
<text text-anchor="middle" x="2399" y="-430" font-family="Helvetica,sans-Serif" font-size="10.00">FilterResult</text>
</a>
</g>
</g>
<!-- Node2 -->
<g id="node2" class="node">
<title>Node2</title>
<g id="a_node2"><a xlink:href="structfiftyone_degrees_data_set_ipi.html" target="_top" xlink:title="Data set structure containing all the components used for IP intelligence.">
<polygon fill="none" stroke="black" points="2122,-461 2122,-480 2267,-480 2267,-461 2122,-461"/>
<text text-anchor="middle" x="2194.5" y="-468" font-family="Helvetica,sans-Serif" font-size="10.00">fiftyoneDegreesDataSetIpi</text>
</a>
</g>
</g>
<!-- Node2&#45;&gt;Node1 -->
<g id="edge1" class="edge">
<title>Node2&#45;&gt;Node1</title>
<path fill="none" stroke="#9a32cd" stroke-dasharray="5,2" d="M2273.91,-459.41C2296.91,-455.75 2322.04,-451.36 2345,-446.5 2351.14,-445.2 2357.64,-443.64 2363.91,-442.04"/>
<polygon fill="#9a32cd" stroke="#9a32cd" points="2273.2,-455.98 2263.86,-460.98 2274.28,-462.89 2273.2,-455.98"/>
<text text-anchor="middle" x="2315" y="-460.5" font-family="Helvetica,sans-Serif" font-size="10.00"> dataSet</text>
</g>
<!-- Node3 -->
<g id="node3" class="node">
<title>Node3</title>
<g id="a_node3"><a xlink:href="structfiftyone_degrees_list.html" target="_top" xlink:title="List structure which contains a list of collection items.">
<polygon fill="none" stroke="black" points="704,-249 704,-268 815,-268 815,-249 704,-249"/>
<text text-anchor="middle" x="759.5" y="-256" font-family="Helvetica,sans-Serif" font-size="10.00">fiftyoneDegreesList</text>
</a>
</g>
</g>
<!-- Node3&#45;&gt;Node2 -->
<g id="edge2" class="edge">
<title>Node3&#45;&gt;Node2</title>
<path fill="none" stroke="#9a32cd" stroke-dasharray="5,2" d="M805.81,-246.45C876.74,-228.67 1018.57,-197.5 1141,-197.5 1141,-197.5 1141,-197.5 1939.5,-197.5 2078.51,-197.5 2007.57,-372.58 2122,-451.5 2127.6,-455.36 2133.95,-458.44 2140.5,-460.9"/>
<polygon fill="#9a32cd" stroke="#9a32cd" points="804.7,-243.12 795.87,-248.97 806.42,-249.9 804.7,-243.12"/>
<text text-anchor="middle" x="1496.5" y="-200.5" font-family="Helvetica,sans-Serif" font-size="10.00"> componentsList</text>
</g>
<!-- Node4 -->
<g id="node4" class="node">
<title>Node4</title>
<g id="a_node4"><a xlink:href="structfiftyone_degrees_collection_item.html" target="_top" xlink:title="Used to store a handle to the underlying item that could be used to release the item when it&#39;s finish...">
<polygon fill="none" stroke="black" points="185,-426 185,-445 350,-445 350,-426 185,-426"/>
<text text-anchor="middle" x="267.5" y="-433" font-family="Helvetica,sans-Serif" font-size="10.00">fiftyoneDegreesCollectionItem</text>
</a>
</g>
</g>
<!-- Node4&#45;&gt;Node3 -->
<g id="edge3" class="edge">
<title>Node4&#45;&gt;Node3</title>
<path fill="none" stroke="#9a32cd" stroke-dasharray="5,2" d="M302.11,-422.16C345.39,-405.09 423.01,-374.82 490,-350.5 576.61,-319.05 679.96,-284.46 729.37,-268.09"/>
<polygon fill="#9a32cd" stroke="#9a32cd" points="300.66,-418.97 292.65,-425.9 303.23,-425.49 300.66,-418.97"/>
<text text-anchor="middle" x="423.5" y="-396.5" font-family="Helvetica,sans-Serif" font-size="10.00"> items</text>
</g>
<!-- Node5 -->
<g id="node5" class="node">
<title>Node5</title>
<g id="a_node5"><a xlink:href="structfiftyone_degrees_collection.html" target="_top" xlink:title="All the shared methods and fields required by file, memory and cached collections.">
<polygon fill="none" stroke="black" points="688,-483 688,-502 831,-502 831,-483 688,-483"/>
<text text-anchor="middle" x="759.5" y="-490" font-family="Helvetica,sans-Serif" font-size="10.00">fiftyoneDegreesCollection</text>
</a>
</g>
</g>
<!-- Node4&#45;&gt;Node5 -->
<g id="edge5" class="edge">
<title>Node4&#45;&gt;Node5</title>
<path fill="none" stroke="#9a32cd" stroke-dasharray="5,2" d="M360.47,-442.26C395.42,-445.07 435.59,-448.59 472,-452.5 560.25,-461.97 582.16,-465.79 670,-478.5 679.55,-479.88 689.66,-481.41 699.5,-482.95"/>
<polygon fill="#9a32cd" stroke="#9a32cd" points="360.52,-438.75 350.28,-441.45 359.97,-445.73 360.52,-438.75"/>
<text text-anchor="middle" x="423.5" y="-455.5" font-family="Helvetica,sans-Serif" font-size="10.00"> release</text>
</g>
<!-- Node30 -->
<g id="node30" class="node">
<title>Node30</title>
<g id="a_node30"><a xlink:href="structfiftyone_degrees_property_available.html" target="_top" xlink:title="Used to access the property item quickly without the need to search.">
<polygon fill="none" stroke="black" points="490,-403 490,-422 670,-422 670,-403 490,-403"/>
<text text-anchor="middle" x="580" y="-410" font-family="Helvetica,sans-Serif" font-size="10.00">fiftyoneDegreesPropertyAvailable</text>
</a>
</g>
</g>
<!-- Node4&#45;&gt;Node30 -->
<g id="edge40" class="edge">
<title>Node4&#45;&gt;Node30</title>
<path fill="none" stroke="#9a32cd" stroke-dasharray="5,2" d="M333.85,-424.47C347.42,-422.52 361.65,-420.73 375,-419.5 412.58,-416.04 454.2,-414.25 489.99,-413.34"/>
<polygon fill="#9a32cd" stroke="#9a32cd" points="333.01,-421.06 323.63,-425.99 334.03,-427.98 333.01,-421.06"/>
<text text-anchor="middle" x="423.5" y="-422.5" font-family="Helvetica,sans-Serif" font-size="10.00"> name</text>
</g>
<!-- Node5&#45;&gt;Node2 -->
<g id="edge22" class="edge">
<title>Node5&#45;&gt;Node2</title>
<path fill="none" stroke="#9a32cd" stroke-dasharray="5,2" d="M841.17,-491.75C1091.94,-489.37 1855.91,-481.7 2104,-474.5 2109.75,-474.33 2115.71,-474.13 2121.7,-473.91"/>
<polygon fill="#9a32cd" stroke="#9a32cd" points="841,-488.25 831.04,-491.85 841.07,-495.25 841,-488.25"/>
<text text-anchor="middle" x="1496.5" y="-597.5" font-family="Helvetica,sans-Serif" font-size="10.00"> profileOffsets</text>
<text text-anchor="middle" x="1496.5" y="-586.5" font-family="Helvetica,sans-Serif" font-size="10.00">values</text>
<text text-anchor="middle" x="1496.5" y="-575.5" font-family="Helvetica,sans-Serif" font-size="10.00">graphs</text>
<text text-anchor="middle" x="1496.5" y="-564.5" font-family="Helvetica,sans-Serif" font-size="10.00">profileGroups</text>
<text text-anchor="middle" x="1496.5" y="-553.5" font-family="Helvetica,sans-Serif" font-size="10.00">strings</text>
<text text-anchor="middle" x="1496.5" y="-542.5" font-family="Helvetica,sans-Serif" font-size="10.00">propertyTypes</text>
<text text-anchor="middle" x="1496.5" y="-531.5" font-family="Helvetica,sans-Serif" font-size="10.00">maps</text>
<text text-anchor="middle" x="1496.5" y="-520.5" font-family="Helvetica,sans-Serif" font-size="10.00">components</text>
<text text-anchor="middle" x="1496.5" y="-509.5" font-family="Helvetica,sans-Serif" font-size="10.00">properties</text>
<text text-anchor="middle" x="1496.5" y="-498.5" font-family="Helvetica,sans-Serif" font-size="10.00">profiles</text>
<text text-anchor="middle" x="1496.5" y="-487.5" font-family="Helvetica,sans-Serif" font-size="10.00">...</text>
</g>
<!-- Node5&#45;&gt;Node4 -->
<g id="edge4" class="edge">
<title>Node5&#45;&gt;Node4</title>
<path fill="none" stroke="#9a32cd" stroke-dasharray="5,2" d="M677.69,-492.53C599.64,-491.32 478.37,-486.15 375,-467.5 346.88,-462.43 315.68,-452.52 294.36,-445.07"/>
<polygon fill="#9a32cd" stroke="#9a32cd" points="677.89,-496.03 687.94,-492.67 677.99,-489.03 677.89,-496.03"/>
<text text-anchor="middle" x="423.5" y="-483.5" font-family="Helvetica,sans-Serif" font-size="10.00"> collection</text>
</g>
<!-- Node5&#45;&gt;Node5 -->
<g id="edge6" class="edge">
<title>Node5&#45;&gt;Node5</title>
<path fill="none" stroke="#9a32cd" stroke-dasharray="5,2" d="M726.14,-510.39C726.63,-516.04 737.75,-520.5 759.5,-520.5 791.14,-520.5 800.28,-511.07 786.93,-502.26"/>
<polygon fill="#9a32cd" stroke="#9a32cd" points="729.01,-512.4 732.07,-502.26 723.35,-508.28 729.01,-512.4"/>
<text text-anchor="middle" x="759.5" y="-545.5" font-family="Helvetica,sans-Serif" font-size="10.00"> next</text>
<text text-anchor="middle" x="759.5" y="-534.5" font-family="Helvetica,sans-Serif" font-size="10.00">freeCollection</text>
<text text-anchor="middle" x="759.5" y="-523.5" font-family="Helvetica,sans-Serif" font-size="10.00">get</text>
</g>
<!-- Node14 -->
<g id="node14" class="node">
<title>Node14</title>
<g id="a_node14"><a xlink:href="structfiftyone_degrees_ipi_cg.html" target="_top" xlink:title="The information and a working collection to retrieve entries from the component graph.">
<polygon fill="none" stroke="black" points="1597.5,-616 1597.5,-635 1716.5,-635 1716.5,-616 1597.5,-616"/>
<text text-anchor="middle" x="1657" y="-623" font-family="Helvetica,sans-Serif" font-size="10.00">fiftyoneDegreesIpiCg</text>
</a>
</g>
</g>
<!-- Node5&#45;&gt;Node14 -->
<g id="edge21" class="edge">
<title>Node5&#45;&gt;Node14</title>
<path fill="none" stroke="#9a32cd" stroke-dasharray="5,2" d="M815.55,-504.17C931.42,-528.26 1209.26,-583.58 1445,-611.5 1496.22,-617.57 1554.78,-621.19 1597.19,-623.23"/>
<polygon fill="#9a32cd" stroke="#9a32cd" points="816.01,-500.69 805.5,-502.07 814.58,-507.54 816.01,-500.69"/>
<text text-anchor="middle" x="1142" y="-616.5" font-family="Helvetica,sans-Serif" font-size="10.00"> clusters</text>
<text text-anchor="middle" x="1142" y="-605.5" font-family="Helvetica,sans-Serif" font-size="10.00">spanBytes</text>
<text text-anchor="middle" x="1142" y="-594.5" font-family="Helvetica,sans-Serif" font-size="10.00">spans</text>
<text text-anchor="middle" x="1142" y="-583.5" font-family="Helvetica,sans-Serif" font-size="10.00">nodes</text>
</g>
<!-- Node6 -->
<g id="node6" class="node">
<title>Node6</title>
<g id="a_node6"><a xlink:href="structfiftyone_degrees_data.html" target="_top" xlink:title="Data structure used for reusing memory which may have been allocated in a previous operation.">
<polygon fill="none" stroke="black" points="0,-426 0,-445 117,-445 117,-426 0,-426"/>
<text text-anchor="middle" x="58.5" y="-433" font-family="Helvetica,sans-Serif" font-size="10.00">fiftyoneDegreesData</text>
</a>
</g>
</g>
<!-- Node6&#45;&gt;Node4 -->
<g id="edge7" class="edge">
<title>Node6&#45;&gt;Node4</title>
<path fill="none" stroke="#9a32cd" stroke-dasharray="5,2" d="M127.19,-435.5C145.58,-435.5 165.7,-435.5 184.78,-435.5"/>
<polygon fill="#9a32cd" stroke="#9a32cd" points="127.16,-432 117.16,-435.5 127.16,-439 127.16,-432"/>
<text text-anchor="middle" x="147.5" y="-438.5" font-family="Helvetica,sans-Serif" font-size="10.00"> data</text>
</g>
<!-- Node7 -->
<g id="node7" class="node">
<title>Node7</title>
<g id="a_node7"><a xlink:href="structfiftyone_degrees_config_ipi.html" target="_top" xlink:title="IP Intelligence specific configuration structure.">
<polygon fill="none" stroke="black" points="1870,-150 1870,-169 2007,-169 2007,-150 1870,-150"/>
<text text-anchor="middle" x="1938.5" y="-157" font-family="Helvetica,sans-Serif" font-size="10.00">fiftyoneDegreesConfigIpi</text>
</a>
</g>
</g>
<!-- Node7&#45;&gt;Node2 -->
<g id="edge8" class="edge">
<title>Node7&#45;&gt;Node2</title>
<path fill="none" stroke="#9a32cd" stroke-dasharray="5,2" d="M1987.37,-148.27C2024.47,-142.67 2074.4,-142.47 2104,-172.5 2147.61,-216.75 2082.56,-403.49 2122,-451.5 2125.1,-455.27 2128.85,-458.34 2133,-460.84"/>
<polygon fill="#9a32cd" stroke="#9a32cd" points="1986.55,-144.86 1977.27,-149.97 1987.71,-151.76 1986.55,-144.86"/>
<text text-anchor="middle" x="2072.5" y="-175.5" font-family="Helvetica,sans-Serif" font-size="10.00"> config</text>
</g>
<!-- Node8 -->
<g id="node8" class="node">
<title>Node8</title>
<g id="a_node8"><a xlink:href="structfiftyone_degrees_collection_config.html" target="_top" xlink:title="Collection configuration structure which defines how the collection should be created by the create m...">
<polygon fill="none" stroke="black" points="1585.5,-0.5 1585.5,-30.5 1728.5,-30.5 1728.5,-0.5 1585.5,-0.5"/>
<text text-anchor="start" x="1593.5" y="-18.5" font-family="Helvetica,sans-Serif" font-size="10.00">fiftyoneDegreesCollection</text>
<text text-anchor="middle" x="1657" y="-7.5" font-family="Helvetica,sans-Serif" font-size="10.00">Config</text>
</a>
</g>
</g>
<!-- Node8&#45;&gt;Node7 -->
<g id="edge9" class="edge">
<title>Node8&#45;&gt;Node7</title>
<path fill="none" stroke="#9a32cd" stroke-dasharray="5,2" d="M1739.07,-11.19C1770.94,-12.71 1806.8,-18.64 1836,-34.5 1886.36,-61.85 1921.15,-125.55 1933.02,-149.85"/>
<polygon fill="#9a32cd" stroke="#9a32cd" points="1738.99,-7.69 1728.88,-10.84 1738.76,-14.68 1738.99,-7.69"/>
<text text-anchor="middle" x="1801" y="-147.5" font-family="Helvetica,sans-Serif" font-size="10.00"> profileOffsets</text>
<text text-anchor="middle" x="1801" y="-136.5" font-family="Helvetica,sans-Serif" font-size="10.00">values</text>
<text text-anchor="middle" x="1801" y="-125.5" font-family="Helvetica,sans-Serif" font-size="10.00">graphs</text>
<text text-anchor="middle" x="1801" y="-114.5" font-family="Helvetica,sans-Serif" font-size="10.00">profileGroups</text>
<text text-anchor="middle" x="1801" y="-103.5" font-family="Helvetica,sans-Serif" font-size="10.00">strings</text>
<text text-anchor="middle" x="1801" y="-92.5" font-family="Helvetica,sans-Serif" font-size="10.00">propertyTypes</text>
<text text-anchor="middle" x="1801" y="-81.5" font-family="Helvetica,sans-Serif" font-size="10.00">maps</text>
<text text-anchor="middle" x="1801" y="-70.5" font-family="Helvetica,sans-Serif" font-size="10.00">components</text>
<text text-anchor="middle" x="1801" y="-59.5" font-family="Helvetica,sans-Serif" font-size="10.00">graph</text>
<text text-anchor="middle" x="1801" y="-48.5" font-family="Helvetica,sans-Serif" font-size="10.00">properties</text>
<text text-anchor="middle" x="1801" y="-37.5" font-family="Helvetica,sans-Serif" font-size="10.00">...</text>
</g>
<!-- Node9 -->
<g id="node9" class="node">
<title>Node9</title>
<g id="a_node9"><a xlink:href="structfiftyone_degrees_config_base.html" target="_top" xlink:title="Base configuration structure containing common configuration options, and options that apply to struc...">
<polygon fill="none" stroke="black" points="1582.5,-150 1582.5,-169 1731.5,-169 1731.5,-150 1582.5,-150"/>
<text text-anchor="middle" x="1657" y="-157" font-family="Helvetica,sans-Serif" font-size="10.00">fiftyoneDegreesConfigBase</text>
</a>
</g>
</g>
<!-- Node9&#45;&gt;Node7 -->
<g id="edge10" class="edge">
<title>Node9&#45;&gt;Node7</title>
<path fill="none" stroke="#9a32cd" stroke-dasharray="5,2" d="M1742.03,-159.5C1782.96,-159.5 1831.52,-159.5 1870,-159.5"/>
<polygon fill="#9a32cd" stroke="#9a32cd" points="1741.8,-156 1731.8,-159.5 1741.8,-163 1741.8,-156"/>
<text text-anchor="middle" x="1801" y="-162.5" font-family="Helvetica,sans-Serif" font-size="10.00"> b</text>
</g>
<!-- Node10 -->
<g id="node10" class="node">
<title>Node10</title>
<g id="a_node10"><a xlink:href="structfiftyone_degrees_data_set_ipi_header.html" target="_top" xlink:title="DATA STRUCTURES.">
<polygon fill="none" stroke="black" points="869,-792.5 869,-822.5 1014,-822.5 1014,-792.5 869,-792.5"/>
<text text-anchor="start" x="877" y="-810.5" font-family="Helvetica,sans-Serif" font-size="10.00">fiftyoneDegreesDataSetIpi</text>
<text text-anchor="middle" x="941.5" y="-799.5" font-family="Helvetica,sans-Serif" font-size="10.00">Header</text>
</a>
</g>
</g>
<!-- Node10&#45;&gt;Node2 -->
<g id="edge11" class="edge">
<title>Node10&#45;&gt;Node2</title>
<path fill="none" stroke="#9a32cd" stroke-dasharray="5,2" d="M1024.17,-801.93C1104.02,-796.98 1229.05,-790.5 1337.5,-790.5 1337.5,-790.5 1337.5,-790.5 1939.5,-790.5 2102.28,-790.5 2177.34,-533.32 2191.13,-480.08"/>
<polygon fill="#9a32cd" stroke="#9a32cd" points="1023.94,-798.44 1014.18,-802.56 1024.38,-805.43 1023.94,-798.44"/>
<text text-anchor="middle" x="1657" y="-793.5" font-family="Helvetica,sans-Serif" font-size="10.00"> header</text>
</g>
<!-- Node11 -->
<g id="node11" class="node">
<title>Node11</title>
<g id="a_node11"><a xlink:href="structfiftyone_degrees_date.html" target="_top" xlink:title="Used to store the date when the dataset was produced and next date 51Degrees expect to provide a new ...">
<polygon fill="none" stroke="black" points="521.5,-859 521.5,-878 638.5,-878 638.5,-859 521.5,-859"/>
<text text-anchor="middle" x="580" y="-866" font-family="Helvetica,sans-Serif" font-size="10.00">fiftyoneDegreesDate</text>
</a>
</g>
</g>
<!-- Node11&#45;&gt;Node10 -->
<g id="edge12" class="edge">
<title>Node11&#45;&gt;Node10</title>
<path fill="none" stroke="#9a32cd" stroke-dasharray="5,2" d="M648.9,-867.18C699.58,-865.07 770.27,-859.76 831,-846.5 856.43,-840.95 884.04,-831.09 905.17,-822.67"/>
<polygon fill="#9a32cd" stroke="#9a32cd" points="648.58,-863.69 638.72,-867.57 648.84,-870.68 648.58,-863.69"/>
<text text-anchor="middle" x="759.5" y="-878.5" font-family="Helvetica,sans-Serif" font-size="10.00"> nextUpdate</text>
<text text-anchor="middle" x="759.5" y="-867.5" font-family="Helvetica,sans-Serif" font-size="10.00">published</text>
</g>
<!-- Node12 -->
<g id="node12" class="node">
<title>Node12</title>
<g id="a_node12"><a xlink:href="structfiftyone_degrees_collection_header.html" target="_top" xlink:title="Collection header structure which defines the size and location of the collection data.">
<polygon fill="none" stroke="black" points="508.5,-676.5 508.5,-706.5 651.5,-706.5 651.5,-676.5 508.5,-676.5"/>
<text text-anchor="start" x="516.5" y="-694.5" font-family="Helvetica,sans-Serif" font-size="10.00">fiftyoneDegreesCollection</text>
<text text-anchor="middle" x="580" y="-683.5" font-family="Helvetica,sans-Serif" font-size="10.00">Header</text>
</a>
</g>
</g>
<!-- Node12&#45;&gt;Node10 -->
<g id="edge13" class="edge">
<title>Node12&#45;&gt;Node10</title>
<path fill="none" stroke="#9a32cd" stroke-dasharray="5,2" d="M661.65,-700.12C733.46,-707.96 827.71,-718.71 831,-721.5 852.87,-740.07 828.45,-763.48 849,-783.5 854.65,-789 861.39,-793.28 868.63,-796.61"/>
<polygon fill="#9a32cd" stroke="#9a32cd" points="662,-696.64 651.68,-699.04 661.24,-703.6 662,-696.64"/>
<text text-anchor="middle" x="759.5" y="-834.5" font-family="Helvetica,sans-Serif" font-size="10.00"> profileOffsets</text>
<text text-anchor="middle" x="759.5" y="-823.5" font-family="Helvetica,sans-Serif" font-size="10.00">values</text>
<text text-anchor="middle" x="759.5" y="-812.5" font-family="Helvetica,sans-Serif" font-size="10.00">graphs</text>
<text text-anchor="middle" x="759.5" y="-801.5" font-family="Helvetica,sans-Serif" font-size="10.00">profileGroups</text>
<text text-anchor="middle" x="759.5" y="-790.5" font-family="Helvetica,sans-Serif" font-size="10.00">strings</text>
<text text-anchor="middle" x="759.5" y="-779.5" font-family="Helvetica,sans-Serif" font-size="10.00">propertyTypes</text>
<text text-anchor="middle" x="759.5" y="-768.5" font-family="Helvetica,sans-Serif" font-size="10.00">maps</text>
<text text-anchor="middle" x="759.5" y="-757.5" font-family="Helvetica,sans-Serif" font-size="10.00">components</text>
<text text-anchor="middle" x="759.5" y="-746.5" font-family="Helvetica,sans-Serif" font-size="10.00">properties</text>
<text text-anchor="middle" x="759.5" y="-735.5" font-family="Helvetica,sans-Serif" font-size="10.00">profiles</text>
<text text-anchor="middle" x="759.5" y="-724.5" font-family="Helvetica,sans-Serif" font-size="10.00">...</text>
</g>
<!-- Node15 -->
<g id="node15" class="node">
<title>Node15</title>
<g id="a_node15"><a xlink:href="structfiftyone_degrees_ipi_cg_info.html" target="_top" xlink:title="Fixed width record in the collection where the record relates to a component and IP version.">
<polygon fill="none" stroke="black" points="1270,-656 1270,-675 1407,-675 1407,-656 1270,-656"/>
<text text-anchor="middle" x="1338.5" y="-663" font-family="Helvetica,sans-Serif" font-size="10.00">fiftyoneDegreesIpiCgInfo</text>
</a>
</g>
</g>
<!-- Node12&#45;&gt;Node15 -->
<g id="edge20" class="edge">
<title>Node12&#45;&gt;Node15</title>
<path fill="none" stroke="#9a32cd" stroke-dasharray="5,2" d="M661.96,-690.92C785.14,-689.69 1026.95,-685.91 1232,-674.5 1244.21,-673.82 1257.19,-672.89 1269.72,-671.88"/>
<polygon fill="#9a32cd" stroke="#9a32cd" points="661.83,-687.42 651.86,-691.02 661.89,-694.42 661.83,-687.42"/>
<text text-anchor="middle" x="941.5" y="-712.5" font-family="Helvetica,sans-Serif" font-size="10.00"> clusters</text>
<text text-anchor="middle" x="941.5" y="-701.5" font-family="Helvetica,sans-Serif" font-size="10.00">spanBytes</text>
<text text-anchor="middle" x="941.5" y="-690.5" font-family="Helvetica,sans-Serif" font-size="10.00">spans</text>
</g>
<!-- Node16 -->
<g id="node16" class="node">
<title>Node16</title>
<g id="a_node16"><a xlink:href="structfiftyone_degrees_ipi_cg_member_node.html" target="_top" xlink:title="Data structure used for the values collection.">
<polygon fill="none" stroke="black" points="849,-636 849,-655 1034,-655 1034,-636 849,-636"/>
<text text-anchor="middle" x="941.5" y="-643" font-family="Helvetica,sans-Serif" font-size="10.00">fiftyoneDegreesIpiCgMemberNode</text>
</a>
</g>
</g>
<!-- Node12&#45;&gt;Node16 -->
<g id="edge19" class="edge">
<title>Node12&#45;&gt;Node16</title>
<path fill="none" stroke="#9a32cd" stroke-dasharray="5,2" d="M648.33,-674.19C661.42,-671.27 675.09,-668.53 688,-666.5 741.01,-658.15 800.84,-652.99 848.95,-649.87"/>
<polygon fill="#9a32cd" stroke="#9a32cd" points="647.42,-670.81 638.45,-676.45 648.98,-677.63 647.42,-670.81"/>
<text text-anchor="middle" x="759.5" y="-669.5" font-family="Helvetica,sans-Serif" font-size="10.00"> collection</text>
</g>
<!-- Node13 -->
<g id="node13" class="node">
<title>Node13</title>
<g id="a_node13"><a xlink:href="structfiftyone_degrees_ipi_cg_array.html" target="_top" xlink:title="An array of all the component graphs and collections available.">
<polygon fill="none" stroke="black" points="1866,-577 1866,-596 2011,-596 2011,-577 1866,-577"/>
<text text-anchor="middle" x="1938.5" y="-584" font-family="Helvetica,sans-Serif" font-size="10.00">fiftyoneDegreesIpiCgArray</text>
</a>
</g>
</g>
<!-- Node13&#45;&gt;Node2 -->
<g id="edge14" class="edge">
<title>Node13&#45;&gt;Node2</title>
<path fill="none" stroke="#9a32cd" stroke-dasharray="5,2" d="M1969.82,-572.65C2022.03,-548.81 2127.61,-500.59 2172.52,-480.08"/>
<polygon fill="#9a32cd" stroke="#9a32cd" points="1968.36,-569.47 1960.72,-576.81 1971.27,-575.84 1968.36,-569.47"/>
<text text-anchor="middle" x="2072.5" y="-541.5" font-family="Helvetica,sans-Serif" font-size="10.00"> graphsArray</text>
</g>
<!-- Node14&#45;&gt;Node13 -->
<g id="edge15" class="edge">
<title>Node14&#45;&gt;Node13</title>
<path fill="none" stroke="#9a32cd" stroke-dasharray="5,2" d="M1726.51,-615.94C1769.98,-609.88 1826,-602.06 1869.39,-596"/>
<polygon fill="#9a32cd" stroke="#9a32cd" points="1726.01,-612.48 1716.59,-617.32 1726.98,-619.41 1726.01,-612.48"/>
<text text-anchor="middle" x="1801" y="-611.5" font-family="Helvetica,sans-Serif" font-size="10.00"> items</text>
</g>
<!-- Node15&#45;&gt;Node14 -->
<g id="edge16" class="edge">
<title>Node15&#45;&gt;Node14</title>
<path fill="none" stroke="#9a32cd" stroke-dasharray="5,2" d="M1417.18,-655.68C1472.84,-648.65 1546.62,-639.32 1597.37,-632.91"/>
<polygon fill="#9a32cd" stroke="#9a32cd" points="1416.49,-652.24 1407.01,-656.97 1417.37,-659.19 1416.49,-652.24"/>
<text text-anchor="middle" x="1496.5" y="-653.5" font-family="Helvetica,sans-Serif" font-size="10.00"> info</text>
</g>
<!-- Node16&#45;&gt;Node15 -->
<g id="edge17" class="edge">
<title>Node16&#45;&gt;Node15</title>
<path fill="none" stroke="#9a32cd" stroke-dasharray="5,2" d="M1044.41,-650.66C1115.31,-654.25 1207.87,-658.94 1269.82,-662.07"/>
<polygon fill="#9a32cd" stroke="#9a32cd" points="1044.28,-647.15 1034.11,-650.14 1043.92,-654.14 1044.28,-647.15"/>
<text text-anchor="middle" x="1142" y="-662.5" font-family="Helvetica,sans-Serif" font-size="10.00"> nodes</text>
</g>
<!-- Node17 -->
<g id="node17" class="node">
<title>Node17</title>
<g id="a_node17"><a xlink:href="structfiftyone_degrees_ipi_cg_member.html" target="_top" xlink:title="DATA STRUCTURES.">
<polygon fill="none" stroke="black" points="500.5,-600 500.5,-619 659.5,-619 659.5,-600 500.5,-600"/>
<text text-anchor="middle" x="580" y="-607" font-family="Helvetica,sans-Serif" font-size="10.00">fiftyoneDegreesIpiCgMember</text>
</a>
</g>
</g>
<!-- Node17&#45;&gt;Node16 -->
<g id="edge18" class="edge">
<title>Node17&#45;&gt;Node16</title>
<path fill="none" stroke="#9a32cd" stroke-dasharray="5,2" d="M669.8,-603.31C717.81,-601.61 777.97,-602.12 831,-610.5 861.75,-615.36 895.69,-627.29 917.51,-635.87"/>
<polygon fill="#9a32cd" stroke="#9a32cd" points="669.6,-599.82 659.75,-603.71 669.88,-606.81 669.6,-599.82"/>
<text text-anchor="middle" x="759.5" y="-635.5" font-family="Helvetica,sans-Serif" font-size="10.00"> spanIndex</text>
<text text-anchor="middle" x="759.5" y="-624.5" font-family="Helvetica,sans-Serif" font-size="10.00">lowFlag</text>
<text text-anchor="middle" x="759.5" y="-613.5" font-family="Helvetica,sans-Serif" font-size="10.00">value</text>
</g>
<!-- Node18 -->
<g id="node18" class="node">
<title>Node18</title>
<g id="a_node18"><a xlink:href="structfiftyone_degrees_data_set_ipi_base.html" target="_top" xlink:title="Data set structure which contains the base dataset structure.">
<polygon fill="none" stroke="black" points="1854,-430 1854,-449 2023,-449 2023,-430 1854,-430"/>
<text text-anchor="middle" x="1938.5" y="-437" font-family="Helvetica,sans-Serif" font-size="10.00">fiftyoneDegreesDataSetIpiBase</text>
</a>
</g>
</g>
<!-- Node18&#45;&gt;Node2 -->
<g id="edge23" class="edge">
<title>Node18&#45;&gt;Node2</title>
<path fill="none" stroke="#9a32cd" stroke-dasharray="5,2" d="M2027.72,-450.27C2058.45,-454.02 2092.54,-458.18 2121.77,-461.75"/>
<polygon fill="#9a32cd" stroke="#9a32cd" points="2027.78,-446.75 2017.43,-449.01 2026.94,-453.7 2027.78,-446.75"/>
<text text-anchor="middle" x="2072.5" y="-462.5" font-family="Helvetica,sans-Serif" font-size="10.00"> b</text>
</g>
<!-- Node19 -->
<g id="node19" class="node">
<title>Node19</title>
<g id="a_node19"><a xlink:href="structfiftyone_degrees_data_set_base.html" target="_top" xlink:title="Base data set structure which contains the &#39;must have&#39;s for all data sets.">
<polygon fill="none" stroke="black" points="1578.5,-395 1578.5,-414 1735.5,-414 1735.5,-395 1578.5,-395"/>
<text text-anchor="middle" x="1657" y="-402" font-family="Helvetica,sans-Serif" font-size="10.00">fiftyoneDegreesDataSetBase</text>
</a>
</g>
</g>
<!-- Node19&#45;&gt;Node18 -->
<g id="edge24" class="edge">
<title>Node19&#45;&gt;Node18</title>
<path fill="none" stroke="#9a32cd" stroke-dasharray="5,2" d="M1744.4,-415.32C1781.85,-420.01 1825.31,-425.45 1861.51,-429.98"/>
<polygon fill="#9a32cd" stroke="#9a32cd" points="1744.36,-411.79 1734.01,-414.02 1743.49,-418.73 1744.36,-411.79"/>
<text text-anchor="middle" x="1801" y="-429.5" font-family="Helvetica,sans-Serif" font-size="10.00"> b</text>
</g>
<!-- Node20 -->
<g id="node20" class="node">
<title>Node20</title>
<g id="a_node20"><a xlink:href="structfiftyone_degrees_header_array.html" target="_top" xlink:title="Array of Headers which should always be ordered in ascending order of fullHeaderId.">
<polygon fill="none" stroke="black" points="1261,-302 1261,-321 1416,-321 1416,-302 1261,-302"/>
<text text-anchor="middle" x="1338.5" y="-309" font-family="Helvetica,sans-Serif" font-size="10.00">fiftyoneDegreesHeaderArray</text>
</a>
</g>
</g>
<!-- Node20&#45;&gt;Node19 -->
<g id="edge25" class="edge">
<title>Node20&#45;&gt;Node19</title>
<path fill="none" stroke="#9a32cd" stroke-dasharray="5,2" d="M1393.93,-323.2C1404.89,-325.59 1416.32,-328.1 1427,-330.5 1480.86,-342.58 1495.52,-341.4 1548,-358.5 1579.78,-368.86 1615.16,-384.82 1636.49,-394.96"/>
<polygon fill="#9a32cd" stroke="#9a32cd" points="1394.55,-319.75 1384.04,-321.05 1393.07,-326.59 1394.55,-319.75"/>
<text text-anchor="middle" x="1496.5" y="-361.5" font-family="Helvetica,sans-Serif" font-size="10.00"> uniqueHeaders</text>
</g>
<!-- Node21 -->
<g id="node21" class="node">
<title>Node21</title>
<g id="a_node21"><a xlink:href="structfiftyone_degrees_resource_handle.html" target="_top" xlink:title="Handle for a shared resource.">
<polygon fill="none" stroke="black" points="1252,-732 1252,-751 1425,-751 1425,-732 1252,-732"/>
<text text-anchor="middle" x="1338.5" y="-739" font-family="Helvetica,sans-Serif" font-size="10.00">fiftyoneDegreesResourceHandle</text>
</a>
</g>
</g>
<!-- Node21&#45;&gt;Node19 -->
<g id="edge26" class="edge">
<title>Node21&#45;&gt;Node19</title>
<path fill="none" stroke="#9a32cd" stroke-dasharray="5,2" d="M1380.39,-728.76C1437.64,-710.61 1536.06,-678.1 1548,-665.5 1566.86,-645.6 1556.4,-632.18 1566,-606.5 1594.22,-530.98 1636.7,-443.43 1651.06,-414.41"/>
<polygon fill="#9a32cd" stroke="#9a32cd" points="1379.03,-725.52 1370.55,-731.87 1381.14,-732.2 1379.03,-725.52"/>
<text text-anchor="middle" x="1496.5" y="-708.5" font-family="Helvetica,sans-Serif" font-size="10.00"> handle</text>
</g>
<!-- Node22 -->
<g id="node22" class="node">
<title>Node22</title>
<g id="a_node22"><a xlink:href="structfiftyone_degrees_resource_manager.html" target="_top" xlink:title="Manager structure used to provide access to a shared and changing resource.">
<polygon fill="none" stroke="black" points="1566,-728 1566,-747 1748,-747 1748,-728 1566,-728"/>
<text text-anchor="middle" x="1657" y="-735" font-family="Helvetica,sans-Serif" font-size="10.00">fiftyoneDegreesResourceManager</text>
</a>
</g>
</g>
<!-- Node21&#45;&gt;Node22 -->
<g id="edge28" class="edge">
<title>Node21&#45;&gt;Node22</title>
<path fill="none" stroke="#9a32cd" stroke-dasharray="5,2" d="M1424.1,-731.02C1431.16,-730.41 1438.2,-729.89 1445,-729.5 1484.62,-727.25 1528.46,-728.34 1565.87,-730.34"/>
<polygon fill="#9a32cd" stroke="#9a32cd" points="1423.4,-727.58 1413.76,-731.98 1424.04,-734.55 1423.4,-727.58"/>
<text text-anchor="middle" x="1496.5" y="-732.5" font-family="Helvetica,sans-Serif" font-size="10.00"> active</text>
</g>
<!-- Node22&#45;&gt;Node21 -->
<g id="edge27" class="edge">
<title>Node22&#45;&gt;Node21</title>
<path fill="none" stroke="#9a32cd" stroke-dasharray="5,2" d="M1555.72,-742.3C1553.12,-742.37 1550.55,-742.44 1548,-742.5 1502.23,-743.56 1490.78,-742.72 1445,-742.5 1438.5,-742.47 1431.77,-742.43 1425,-742.38"/>
<polygon fill="#9a32cd" stroke="#9a32cd" points="1555.96,-745.8 1565.85,-741.99 1555.74,-738.8 1555.96,-745.8"/>
<text text-anchor="middle" x="1496.5" y="-745.5" font-family="Helvetica,sans-Serif" font-size="10.00"> manager</text>
</g>
<!-- Node23 -->
<g id="node23" class="node">
<title>Node23</title>
<g id="a_node23"><a xlink:href="structfiftyone_degrees_interlock_double_width.html" target="_top" xlink:title="Double width (64 or 128 depending on the architecture) compare and exchange.">
<polygon fill="none" stroke="black" points="873,-743.5 873,-773.5 1010,-773.5 1010,-743.5 873,-743.5"/>
<text text-anchor="start" x="881" y="-761.5" font-family="Helvetica,sans-Serif" font-size="10.00">fiftyoneDegreesInterlock</text>
<text text-anchor="middle" x="941.5" y="-750.5" font-family="Helvetica,sans-Serif" font-size="10.00">DoubleWidth</text>
</a>
</g>
</g>
<!-- Node23&#45;&gt;Node21 -->
<g id="edge29" class="edge">
<title>Node23&#45;&gt;Node21</title>
<path fill="none" stroke="#9a32cd" stroke-dasharray="5,2" d="M1020.44,-755.15C1087.16,-752.27 1183.06,-748.15 1251.9,-745.18"/>
<polygon fill="#9a32cd" stroke="#9a32cd" points="1020.24,-751.65 1010.4,-755.58 1020.54,-758.64 1020.24,-751.65"/>
<text text-anchor="middle" x="1142" y="-755.5" font-family="Helvetica,sans-Serif" font-size="10.00"> counter</text>
</g>
<!-- Node24 -->
<g id="node24" class="node">
<title>Node24</title>
<g id="a_node24"><a xlink:href="structfiftyone_degrees_file_pool.html" target="_top" xlink:title="Stack of handles used to read data from a single source file.">
<polygon fill="none" stroke="black" points="1272.5,-226 1272.5,-245 1404.5,-245 1404.5,-226 1272.5,-226"/>
<text text-anchor="middle" x="1338.5" y="-233" font-family="Helvetica,sans-Serif" font-size="10.00">fiftyoneDegreesFilePool</text>
</a>
</g>
</g>
<!-- Node24&#45;&gt;Node19 -->
<g id="edge30" class="edge">
<title>Node24&#45;&gt;Node19</title>
<path fill="none" stroke="#9a32cd" stroke-dasharray="5,2" d="M1405.09,-247.59C1412.57,-249.6 1420.01,-251.9 1427,-254.5 1520.08,-289.17 1613.81,-367.21 1645.09,-394.69"/>
<polygon fill="#9a32cd" stroke="#9a32cd" points="1405.82,-244.17 1395.27,-245.11 1404.1,-250.95 1405.82,-244.17"/>
<text text-anchor="middle" x="1496.5" y="-321.5" font-family="Helvetica,sans-Serif" font-size="10.00"> filePool</text>
</g>
<!-- Node25 -->
<g id="node25" class="node">
<title>Node25</title>
<g id="a_node25"><a xlink:href="structfiftyone_degrees_pool.html" target="_top" xlink:title="Pool of resources stored as items in a stack.">
<polygon fill="none" stroke="black" points="884,-280 884,-299 999,-299 999,-280 884,-280"/>
<text text-anchor="middle" x="941.5" y="-287" font-family="Helvetica,sans-Serif" font-size="10.00">fiftyoneDegreesPool</text>
</a>
</g>
</g>
<!-- Node25&#45;&gt;Node24 -->
<g id="edge31" class="edge">
<title>Node25&#45;&gt;Node24</title>
<path fill="none" stroke="#9a32cd" stroke-dasharray="5,2" d="M976.01,-276.45C997.41,-268.7 1025.93,-259.46 1052,-254.5 1126.67,-240.3 1214.06,-236.29 1272.3,-235.36"/>
<polygon fill="#9a32cd" stroke="#9a32cd" points="974.59,-273.24 966.42,-279.99 977.01,-279.81 974.59,-273.24"/>
<text text-anchor="middle" x="1142" y="-257.5" font-family="Helvetica,sans-Serif" font-size="10.00"> pool</text>
</g>
<!-- Node25&#45;&gt;Node25 -->
<g id="edge32" class="edge">
<title>Node25&#45;&gt;Node25</title>
<path fill="none" stroke="#9a32cd" stroke-dasharray="5,2" d="M907.39,-307.39C907.89,-313.04 919.26,-317.5 941.5,-317.5 973.85,-317.5 983.2,-308.07 969.55,-299.26"/>
<polygon fill="#9a32cd" stroke="#9a32cd" points="910.28,-309.37 913.45,-299.26 904.67,-305.19 910.28,-309.37"/>
<text text-anchor="middle" x="941.5" y="-320.5" font-family="Helvetica,sans-Serif" font-size="10.00"> resourceFree</text>
</g>
<!-- Node27 -->
<g id="node27" class="node">
<title>Node27</title>
<g id="a_node27"><a xlink:href="structfiftyone_degrees_pool_item.html" target="_top" xlink:title="Pool item node in the stack of items.">
<polygon fill="none" stroke="black" points="1270,-264 1270,-283 1407,-283 1407,-264 1270,-264"/>
<text text-anchor="middle" x="1338.5" y="-271" font-family="Helvetica,sans-Serif" font-size="10.00">fiftyoneDegreesPoolItem</text>
</a>
</g>
</g>
<!-- Node25&#45;&gt;Node27 -->
<g id="edge35" class="edge">
<title>Node25&#45;&gt;Node27</title>
<path fill="none" stroke="#9a32cd" stroke-dasharray="5,2" d="M1009.39,-289.99C1068.11,-290.02 1155.79,-289.12 1232,-284.5 1244.22,-283.76 1257.22,-282.66 1269.75,-281.44"/>
<polygon fill="#9a32cd" stroke="#9a32cd" points="1009.14,-286.49 999.14,-289.97 1009.13,-293.49 1009.14,-286.49"/>
<text text-anchor="middle" x="1142" y="-293.5" font-family="Helvetica,sans-Serif" font-size="10.00"> pool</text>
</g>
<!-- Node26 -->
<g id="node26" class="node">
<title>Node26</title>
<g id="a_node26"><a xlink:href="unionfiftyone_degrees_pool_head.html" target="_top" xlink:title="The head of the stack used for pop and push operations.">
<polygon fill="none" stroke="black" points="510,-360 510,-379 650,-379 650,-360 510,-360"/>
<text text-anchor="middle" x="580" y="-367" font-family="Helvetica,sans-Serif" font-size="10.00">fiftyoneDegreesPoolHead</text>
</a>
</g>
</g>
<!-- Node26&#45;&gt;Node25 -->
<g id="edge33" class="edge">
<title>Node26&#45;&gt;Node25</title>
<path fill="none" stroke="#9a32cd" stroke-dasharray="5,2" d="M634.17,-357.67C705.79,-341.73 831.87,-313.67 897.72,-299.02"/>
<polygon fill="#9a32cd" stroke="#9a32cd" points="633.01,-354.34 624.01,-359.93 634.53,-361.17 633.01,-354.34"/>
<text text-anchor="middle" x="759.5" y="-347.5" font-family="Helvetica,sans-Serif" font-size="10.00"> head</text>
</g>
<!-- Node27&#45;&gt;Node25 -->
<g id="edge34" class="edge">
<title>Node27&#45;&gt;Node25</title>
<path fill="none" stroke="#9a32cd" stroke-dasharray="5,2" d="M1259.81,-270.46C1202.34,-268.96 1122.19,-268.4 1052,-273.5 1033.99,-274.81 1014.44,-277.31 996.91,-279.96"/>
<polygon fill="#9a32cd" stroke="#9a32cd" points="1259.82,-273.97 1269.91,-270.75 1260.01,-266.97 1259.82,-273.97"/>
<text text-anchor="middle" x="1142" y="-276.5" font-family="Helvetica,sans-Serif" font-size="10.00"> stack</text>
</g>
<!-- Node28 -->
<g id="node28" class="node">
<title>Node28</title>
<g id="a_node28"><a xlink:href="structfiftyone_degrees_override_property_array.html" target="_top" xlink:title="Array of items of type fiftyoneDegreesOverrideProperty used to easily access and track the size of th...">
<polygon fill="none" stroke="black" points="1250,-389.5 1250,-419.5 1427,-419.5 1427,-389.5 1250,-389.5"/>
<text text-anchor="start" x="1258" y="-407.5" font-family="Helvetica,sans-Serif" font-size="10.00">fiftyoneDegreesOverrideProperty</text>
<text text-anchor="middle" x="1338.5" y="-396.5" font-family="Helvetica,sans-Serif" font-size="10.00">Array</text>
</a>
</g>
</g>
<!-- Node28&#45;&gt;Node19 -->
<g id="edge36" class="edge">
<title>Node28&#45;&gt;Node19</title>
<path fill="none" stroke="#9a32cd" stroke-dasharray="5,2" d="M1437.39,-404.5C1482.72,-404.5 1535.82,-404.5 1578.34,-404.5"/>
<polygon fill="#9a32cd" stroke="#9a32cd" points="1437.24,-401 1427.24,-404.5 1437.24,-408 1437.24,-401"/>
<text text-anchor="middle" x="1496.5" y="-407.5" font-family="Helvetica,sans-Serif" font-size="10.00"> overridable</text>
</g>
<!-- Node29 -->
<g id="node29" class="node">
<title>Node29</title>
<g id="a_node29"><a xlink:href="structfiftyone_degrees_override_property.html" target="_top" xlink:title="Index and pointer to a property which can be overridden.">
<polygon fill="none" stroke="black" points="853,-395 853,-414 1030,-414 1030,-395 853,-395"/>
<text text-anchor="middle" x="941.5" y="-402" font-family="Helvetica,sans-Serif" font-size="10.00">fiftyoneDegreesOverrideProperty</text>
</a>
</g>
</g>
<!-- Node29&#45;&gt;Node28 -->
<g id="edge37" class="edge">
<title>Node29&#45;&gt;Node28</title>
<path fill="none" stroke="#9a32cd" stroke-dasharray="5,2" d="M1040.29,-404.5C1104.47,-404.5 1187.69,-404.5 1249.74,-404.5"/>
<polygon fill="#9a32cd" stroke="#9a32cd" points="1040.16,-401 1030.16,-404.5 1040.16,-408 1040.16,-401"/>
<text text-anchor="middle" x="1142" y="-407.5" font-family="Helvetica,sans-Serif" font-size="10.00"> items</text>
</g>
<!-- Node30&#45;&gt;Node29 -->
<g id="edge38" class="edge">
<title>Node30&#45;&gt;Node29</title>
<path fill="none" stroke="#9a32cd" stroke-dasharray="5,2" d="M680.62,-410.28C734.65,-409.08 800.82,-407.61 852.88,-406.45"/>
<polygon fill="#9a32cd" stroke="#9a32cd" points="680.25,-406.79 670.33,-410.51 680.4,-413.79 680.25,-406.79"/>
<text text-anchor="middle" x="759.5" y="-413.5" font-family="Helvetica,sans-Serif" font-size="10.00"> available</text>
</g>
<!-- Node33 -->
<g id="node33" class="node">
<title>Node33</title>
<g id="a_node33"><a xlink:href="structfiftyone_degrees_property_available_array.html" target="_top" xlink:title="Array of items of type fiftyoneDegreesPropertyAvailable used to easily access and track the size of t...">
<polygon fill="none" stroke="black" points="1052,-435.5 1052,-465.5 1232,-465.5 1232,-435.5 1052,-435.5"/>
<text text-anchor="start" x="1060" y="-453.5" font-family="Helvetica,sans-Serif" font-size="10.00">fiftyoneDegreesPropertyAvailable</text>
<text text-anchor="middle" x="1142" y="-442.5" font-family="Helvetica,sans-Serif" font-size="10.00">Array</text>
</a>
</g>
</g>
<!-- Node30&#45;&gt;Node33 -->
<g id="edge43" class="edge">
<title>Node30&#45;&gt;Node33</title>
<path fill="none" stroke="#9a32cd" stroke-dasharray="5,2" d="M680.22,-420.91C682.84,-421.11 685.44,-421.31 688,-421.5 814.34,-430.86 960.63,-439.9 1052,-445.33"/>
<polygon fill="#9a32cd" stroke="#9a32cd" points="680.27,-417.41 670.03,-420.12 679.73,-424.39 680.27,-417.41"/>
<text text-anchor="middle" x="759.5" y="-434.5" font-family="Helvetica,sans-Serif" font-size="10.00"> items</text>
</g>
<!-- Node31 -->
<g id="node31" class="node">
<title>Node31</title>
<g id="a_node31"><a xlink:href="structfiftyone_degrees_evidence_property_index_array.html" target="_top" xlink:title="Array of items of type fiftyoneDegreesEvidencePropertyIndex used to easily access and track the size ...">
<polygon fill="none" stroke="black" points="178,-282.5 178,-312.5 357,-312.5 357,-282.5 178,-282.5"/>
<text text-anchor="start" x="186" y="-300.5" font-family="Helvetica,sans-Serif" font-size="10.00">fiftyoneDegreesEvidenceProperty</text>
<text text-anchor="middle" x="267.5" y="-289.5" font-family="Helvetica,sans-Serif" font-size="10.00">IndexArray</text>
</a>
</g>
</g>
<!-- Node31&#45;&gt;Node30 -->
<g id="edge39" class="edge">
<title>Node31&#45;&gt;Node30</title>
<path fill="none" stroke="#9a32cd" stroke-dasharray="5,2" d="M325.21,-280.09C370.08,-270.1 431.69,-265.29 472,-298.5 503.48,-324.44 462.12,-358.72 490,-388.5 495.8,-394.69 503.01,-399.35 510.8,-402.84"/>
<polygon fill="#9a32cd" stroke="#9a32cd" points="324.26,-276.72 315.34,-282.44 325.87,-283.53 324.26,-276.72"/>
<text text-anchor="middle" x="423.5" y="-301.5" font-family="Helvetica,sans-Serif" font-size="10.00"> evidenceProperties</text>
</g>
<!-- Node32 -->
<g id="node32" class="node">
<title>Node32</title>
<g id="a_node32"><a xlink:href="structfiftyone_degrees_indices_property_profile.html" target="_top" xlink:title="Maps the profile index and the property index to the first value index of the profile for the propert...">
<polygon fill="none" stroke="black" points="1253.5,-340.5 1253.5,-370.5 1423.5,-370.5 1423.5,-340.5 1253.5,-340.5"/>
<text text-anchor="start" x="1261.5" y="-358.5" font-family="Helvetica,sans-Serif" font-size="10.00">fiftyoneDegreesIndicesProperty</text>
<text text-anchor="middle" x="1338.5" y="-347.5" font-family="Helvetica,sans-Serif" font-size="10.00">Profile</text>
</a>
</g>
</g>
<!-- Node32&#45;&gt;Node19 -->
<g id="edge41" class="edge">
<title>Node32&#45;&gt;Node19</title>
<path fill="none" stroke="#9a32cd" stroke-dasharray="5,2" d="M1433.8,-370.1C1485.75,-378.14 1548.75,-387.9 1594.38,-394.96"/>
<polygon fill="#9a32cd" stroke="#9a32cd" points="1434.32,-366.64 1423.9,-368.57 1433.25,-373.56 1434.32,-366.64"/>
<text text-anchor="middle" x="1496.5" y="-390.5" font-family="Helvetica,sans-Serif" font-size="10.00"> indexPropertyProfile</text>
</g>
<!-- Node33&#45;&gt;Node19 -->
<g id="edge42" class="edge">
<title>Node33&#45;&gt;Node19</title>
<path fill="none" stroke="#9a32cd" stroke-dasharray="5,2" d="M1242.1,-444.62C1324.19,-439.35 1443.84,-430.71 1548,-419.5 1562.3,-417.96 1577.63,-416.01 1592.12,-414.04"/>
<polygon fill="#9a32cd" stroke="#9a32cd" points="1241.78,-441.14 1232.03,-445.27 1242.23,-448.12 1241.78,-441.14"/>
<text text-anchor="middle" x="1338.5" y="-447.5" font-family="Helvetica,sans-Serif" font-size="10.00"> available</text>
</g>
<!-- Node34 -->
<g id="node34" class="node">
<title>Node34</title>
<g id="a_node34"><a xlink:href="structfiftyone_degrees_value.html" target="_top" xlink:title="Value structure containing meta data relating to the value.">
<polygon fill="none" stroke="black" points="2134,-423 2134,-442 2255,-442 2255,-423 2134,-423"/>
<text text-anchor="middle" x="2194.5" y="-430" font-family="Helvetica,sans-Serif" font-size="10.00">fiftyoneDegreesValue</text>
</a>
</g>
</g>
<!-- Node34&#45;&gt;Node1 -->
<g id="edge44" class="edge">
<title>Node34&#45;&gt;Node1</title>
<path fill="none" stroke="#9a32cd" stroke-dasharray="5,2" d="M2265.2,-432.5C2298.11,-432.5 2335.96,-432.5 2362.81,-432.5"/>
<polygon fill="#9a32cd" stroke="#9a32cd" points="2265.16,-429 2255.16,-432.5 2265.16,-436 2265.16,-429"/>
<text text-anchor="middle" x="2315" y="-435.5" font-family="Helvetica,sans-Serif" font-size="10.00"> value</text>
</g>
<!-- Node35 -->
<g id="node35" class="node">
<title>Node35</title>
<g id="a_node35"><a xlink:title=" ">
<polygon fill="none" stroke="#bfbfbf" points="2172.5,-385 2172.5,-404 2216.5,-404 2216.5,-385 2172.5,-385"/>
<text text-anchor="middle" x="2194.5" y="-392" font-family="Helvetica,sans-Serif" font-size="10.00">string</text>
</a>
</g>
</g>
<!-- Node35&#45;&gt;Node1 -->
<g id="edge45" class="edge">
<title>Node35&#45;&gt;Node1</title>
<path fill="none" stroke="#9a32cd" stroke-dasharray="5,2" d="M2226.95,-398.19C2257.35,-402.03 2304.6,-408.71 2345,-417.5 2352.1,-419.05 2359.66,-420.99 2366.77,-422.97"/>
<polygon fill="#9a32cd" stroke="#9a32cd" points="2227.3,-394.71 2216.94,-396.96 2226.44,-401.66 2227.3,-394.71"/>
<text text-anchor="middle" x="2315" y="-420.5" font-family="Helvetica,sans-Serif" font-size="10.00"> valueName</text>
</g>
</g>
</svg>
