<?xml version="1.0" encoding="UTF-8" standalone="no"?>
<!DOCTYPE svg PUBLIC "-//W3C//DTD SVG 1.1//EN"
 "http://www.w3.org/Graphics/SVG/1.1/DTD/svg11.dtd">
<!-- Generated by graphviz version 2.43.0 (0)
 -->
<!-- Title: PropValuesChunkContext Pages: 1 -->
<svg width="672pt" height="242pt"
 viewBox="0.00 0.00 671.50 242.00" xmlns="http://www.w3.org/2000/svg" xmlns:xlink="http://www.w3.org/1999/xlink">
<g id="graph0" class="graph" transform="scale(1 1) rotate(0) translate(4 238)">
<title>PropValuesChunkContext</title>
<!-- Node1 -->
<g id="node1" class="node">
<title>Node1</title>
<g id="a_node1"><a xlink:title="Context structure for populating a property values chunk.">
<polygon fill="#bfbfbf" stroke="black" points="95.5,-0.5 95.5,-19.5 235.5,-19.5 235.5,-0.5 95.5,-0.5"/>
<text text-anchor="middle" x="165.5" y="-7.5" font-family="Helvetica,sans-Serif" font-size="10.00">PropValuesChunkContext</text>
</a>
</g>
</g>
<!-- Node2 -->
<g id="node2" class="node">
<title>Node2</title>
<g id="a_node2"><a xlink:href="struct_prop_values_chunk.html" target="_top" xlink:title="Structure for a chunk of property values of the same type.">
<polygon fill="none" stroke="black" points="9,-147.5 9,-166.5 110,-166.5 110,-147.5 9,-147.5"/>
<text text-anchor="middle" x="59.5" y="-154.5" font-family="Helvetica,sans-Serif" font-size="10.00">PropValuesChunk</text>
</a>
</g>
</g>
<!-- Node2&#45;&gt;Node1 -->
<g id="edge1" class="edge">
<title>Node2&#45;&gt;Node1</title>
<path fill="none" stroke="#9a32cd" stroke-dasharray="5,2" d="M46.81,-139.24C34.19,-120.36 18.69,-89.38 33.5,-67 50.75,-40.95 82.81,-26.98 111.01,-19.51"/>
<polygon fill="#9a32cd" stroke="#9a32cd" points="43.99,-141.31 52.63,-147.45 49.7,-137.27 43.99,-141.31"/>
<text text-anchor="middle" x="50" y="-81" font-family="Helvetica,sans-Serif" font-size="10.00"> chunk</text>
</g>
<!-- Node3 -->
<g id="node3" class="node">
<title>Node3</title>
<g id="a_node3"><a xlink:href="struct_prop_values_converter.html" target="_top" xlink:title="Structure defining a converter for property values.">
<polygon fill="none" stroke="black" points="0,-214.5 0,-233.5 119,-233.5 119,-214.5 0,-214.5"/>
<text text-anchor="middle" x="59.5" y="-221.5" font-family="Helvetica,sans-Serif" font-size="10.00">PropValuesConverter</text>
</a>
</g>
</g>
<!-- Node3&#45;&gt;Node2 -->
<g id="edge2" class="edge">
<title>Node3&#45;&gt;Node2</title>
<path fill="none" stroke="#9a32cd" stroke-dasharray="5,2" d="M59.5,-204.04C59.5,-191.67 59.5,-176.12 59.5,-166.63"/>
<polygon fill="#9a32cd" stroke="#9a32cd" points="56,-204.23 59.5,-214.23 63,-204.23 56,-204.23"/>
<text text-anchor="middle" x="84.5" y="-188" font-family="Helvetica,sans-Serif" font-size="10.00"> converter</text>
</g>
<!-- Node4 -->
<g id="node4" class="node">
<title>Node4</title>
<g id="a_node4"><a xlink:href="structfiftyone_degrees_data.html" target="_top" xlink:title="Data structure used for reusing memory which may have been allocated in a previous operation.">
<polygon fill="none" stroke="black" points="144,-214.5 144,-233.5 261,-233.5 261,-214.5 144,-214.5"/>
<text text-anchor="middle" x="202.5" y="-221.5" font-family="Helvetica,sans-Serif" font-size="10.00">fiftyoneDegreesData</text>
</a>
</g>
</g>
<!-- Node4&#45;&gt;Node2 -->
<g id="edge3" class="edge">
<title>Node4&#45;&gt;Node2</title>
<path fill="none" stroke="#9a32cd" stroke-dasharray="5,2" d="M174.15,-210.11C145.83,-197.24 103.07,-177.81 78.57,-166.67"/>
<polygon fill="#9a32cd" stroke="#9a32cd" points="172.96,-213.42 183.51,-214.37 175.86,-207.04 172.96,-213.42"/>
<text text-anchor="middle" x="153" y="-188" font-family="Helvetica,sans-Serif" font-size="10.00"> data</text>
</g>
<!-- Node7 -->
<g id="node7" class="node">
<title>Node7</title>
<g id="a_node7"><a xlink:href="structfiftyone_degrees_collection_item.html" target="_top" xlink:title="Used to store a handle to the underlying item that could be used to release the item when it&#39;s finish...">
<polygon fill="none" stroke="black" points="147,-147.5 147,-166.5 312,-166.5 312,-147.5 147,-147.5"/>
<text text-anchor="middle" x="229.5" y="-154.5" font-family="Helvetica,sans-Serif" font-size="10.00">fiftyoneDegreesCollectionItem</text>
</a>
</g>
</g>
<!-- Node4&#45;&gt;Node7 -->
<g id="edge10" class="edge">
<title>Node4&#45;&gt;Node7</title>
<path fill="none" stroke="#9a32cd" stroke-dasharray="5,2" d="M210.06,-204.79C215.25,-192.31 221.89,-176.31 225.92,-166.63"/>
<polygon fill="#9a32cd" stroke="#9a32cd" points="206.75,-203.66 206.14,-214.23 213.21,-206.34 206.75,-203.66"/>
<text text-anchor="middle" x="231" y="-188" font-family="Helvetica,sans-Serif" font-size="10.00"> data</text>
</g>
<!-- Node5 -->
<g id="node5" class="node">
<title>Node5</title>
<g id="a_node5"><a xlink:href="structfiftyone_degrees_exception.html" target="_top" xlink:title="Structure used to represent a 51Degrees exception and passed into methods that might generate excepti...">
<polygon fill="none" stroke="black" points="521.5,-74 521.5,-93 663.5,-93 663.5,-74 521.5,-74"/>
<text text-anchor="middle" x="592.5" y="-81" font-family="Helvetica,sans-Serif" font-size="10.00">fiftyoneDegreesException</text>
</a>
</g>
</g>
<!-- Node5&#45;&gt;Node1 -->
<g id="edge4" class="edge">
<title>Node5&#45;&gt;Node1</title>
<path fill="none" stroke="#9a32cd" stroke-dasharray="5,2" d="M539.7,-72.03C530.64,-70.3 521.3,-68.56 512.5,-67 410.21,-48.84 290.5,-30.07 221.79,-19.53"/>
<polygon fill="#9a32cd" stroke="#9a32cd" points="539.3,-75.51 549.78,-73.97 540.62,-68.64 539.3,-75.51"/>
<text text-anchor="middle" x="424.5" y="-41" font-family="Helvetica,sans-Serif" font-size="10.00"> exception</text>
</g>
<!-- Node6 -->
<g id="node6" class="node">
<title>Node6</title>
<g id="a_node6"><a xlink:href="structfiftyone_degrees_profile_percentage.html" target="_top" xlink:title="The structure to hold a pair of result item and its percentage When getting values for a property fro...">
<polygon fill="none" stroke="black" points="76,-74 76,-93 255,-93 255,-74 76,-74"/>
<text text-anchor="middle" x="165.5" y="-81" font-family="Helvetica,sans-Serif" font-size="10.00">fiftyoneDegreesProfilePercentage</text>
</a>
</g>
</g>
<!-- Node6&#45;&gt;Node1 -->
<g id="edge5" class="edge">
<title>Node6&#45;&gt;Node1</title>
<path fill="none" stroke="#9a32cd" stroke-dasharray="5,2" d="M165.5,-63.59C165.5,-49.43 165.5,-30.7 165.5,-19.84"/>
<polygon fill="#9a32cd" stroke="#9a32cd" points="162,-63.73 165.5,-73.73 169,-63.73 162,-63.73"/>
<text text-anchor="middle" x="197.5" y="-41" font-family="Helvetica,sans-Serif" font-size="10.00"> valuesItems</text>
</g>
<!-- Node7&#45;&gt;Node6 -->
<g id="edge6" class="edge">
<title>Node7&#45;&gt;Node6</title>
<path fill="none" stroke="#9a32cd" stroke-dasharray="5,2" d="M214.79,-139.57C201.92,-125.19 183.71,-104.85 173.41,-93.34"/>
<polygon fill="#9a32cd" stroke="#9a32cd" points="212.37,-142.12 221.65,-147.23 217.59,-137.45 212.37,-142.12"/>
<text text-anchor="middle" x="218.5" y="-121" font-family="Helvetica,sans-Serif" font-size="10.00"> item</text>
</g>
<!-- Node8 -->
<g id="node8" class="node">
<title>Node8</title>
<g id="a_node8"><a xlink:href="structfiftyone_degrees_collection.html" target="_top" xlink:title="All the shared methods and fields required by file, memory and cached collections.">
<polygon fill="none" stroke="black" points="273,-74 273,-93 416,-93 416,-74 273,-74"/>
<text text-anchor="middle" x="344.5" y="-81" font-family="Helvetica,sans-Serif" font-size="10.00">fiftyoneDegreesCollection</text>
</a>
</g>
</g>
<!-- Node7&#45;&gt;Node8 -->
<g id="edge8" class="edge">
<title>Node7&#45;&gt;Node8</title>
<path fill="none" stroke="#9a32cd" stroke-dasharray="5,2" d="M238.47,-138.32C242.81,-131.21 248.58,-123.43 255.5,-118 270.44,-106.28 289.91,-98.33 306.84,-93.13"/>
<polygon fill="#9a32cd" stroke="#9a32cd" points="235.28,-136.87 233.48,-147.31 241.4,-140.26 235.28,-136.87"/>
<text text-anchor="middle" x="275.5" y="-121" font-family="Helvetica,sans-Serif" font-size="10.00"> release</text>
</g>
<!-- Node8&#45;&gt;Node7 -->
<g id="edge7" class="edge">
<title>Node8&#45;&gt;Node7</title>
<path fill="none" stroke="#9a32cd" stroke-dasharray="5,2" d="M330.98,-100.89C322.67,-110.13 311.37,-121.33 299.5,-129 287.36,-136.85 272.59,-142.97 259.75,-147.38"/>
<polygon fill="#9a32cd" stroke="#9a32cd" points="333.81,-102.96 337.7,-93.11 328.51,-98.39 333.81,-102.96"/>
<text text-anchor="middle" x="339" y="-121" font-family="Helvetica,sans-Serif" font-size="10.00"> collection</text>
</g>
<!-- Node8&#45;&gt;Node8 -->
<g id="edge9" class="edge">
<title>Node8&#45;&gt;Node8</title>
<path fill="none" stroke="#9a32cd" stroke-dasharray="5,2" d="M426.11,-88.69C431.04,-87.46 434,-85.73 434,-83.5 434,-80.02 426.79,-77.76 416.13,-76.7"/>
<polygon fill="#9a32cd" stroke="#9a32cd" points="425.44,-85.26 416.13,-90.3 426.56,-92.17 425.44,-85.26"/>
<text text-anchor="middle" x="468.5" y="-92" font-family="Helvetica,sans-Serif" font-size="10.00"> next</text>
<text text-anchor="middle" x="468.5" y="-81" font-family="Helvetica,sans-Serif" font-size="10.00">freeCollection</text>
<text text-anchor="middle" x="468.5" y="-70" font-family="Helvetica,sans-Serif" font-size="10.00">get</text>
</g>
</g>
</svg>
