<?xml version="1.0" encoding="UTF-8" standalone="no"?>
<!DOCTYPE svg PUBLIC "-//W3C//DTD SVG 1.1//EN"
 "http://www.w3.org/Graphics/SVG/1.1/DTD/svg11.dtd">
<!-- Generated by graphviz version 2.43.0 (0)
 -->
<!-- Title: fiftyoneDegreesWeightedValuesCollection Pages: 1 -->
<svg width="310pt" height="128pt"
 viewBox="0.00 0.00 310.00 128.00" xmlns="http://www.w3.org/2000/svg" xmlns:xlink="http://www.w3.org/1999/xlink">
<g id="graph0" class="graph" transform="scale(1 1) rotate(0) translate(4 124)">
<title>fiftyoneDegreesWeightedValuesCollection</title>
<!-- Node1 -->
<g id="node1" class="node">
<title>Node1</title>
<g id="a_node1"><a xlink:title="Collection of weighted values.">
<polygon fill="#bfbfbf" stroke="black" points="77.5,-0.5 77.5,-30.5 249.5,-30.5 249.5,-0.5 77.5,-0.5"/>
<text text-anchor="start" x="85.5" y="-18.5" font-family="Helvetica,sans-Serif" font-size="10.00">fiftyoneDegreesWeightedValues</text>
<text text-anchor="middle" x="163.5" y="-7.5" font-family="Helvetica,sans-Serif" font-size="10.00">Collection</text>
</a>
</g>
</g>
<!-- Node2 -->
<g id="node2" class="node">
<title>Node2</title>
<g id="a_node2"><a xlink:href="structfiftyone_degrees_weighted_value_header.html" target="_top" xlink:title="Header structure for all weighted value types.">
<polygon fill="none" stroke="black" points="0,-89.5 0,-119.5 167,-119.5 167,-89.5 0,-89.5"/>
<text text-anchor="start" x="8" y="-107.5" font-family="Helvetica,sans-Serif" font-size="10.00">fiftyoneDegreesWeightedValue</text>
<text text-anchor="middle" x="83.5" y="-96.5" font-family="Helvetica,sans-Serif" font-size="10.00">Header</text>
</a>
</g>
</g>
<!-- Node2&#45;&gt;Node1 -->
<g id="edge1" class="edge">
<title>Node2&#45;&gt;Node1</title>
<path fill="none" stroke="#9a32cd" stroke-dasharray="5,2" d="M103.5,-81.76C118.22,-65.74 137.81,-44.44 150.54,-30.6"/>
<polygon fill="#9a32cd" stroke="#9a32cd" points="100.9,-79.4 96.71,-89.13 106.06,-84.14 100.9,-79.4"/>
<text text-anchor="middle" x="149" y="-57.5" font-family="Helvetica,sans-Serif" font-size="10.00"> items</text>
</g>
<!-- Node3 -->
<g id="node3" class="node">
<title>Node3</title>
<g id="a_node3"><a xlink:href="structfiftyone_degrees_data.html" target="_top" xlink:title="Data structure used for reusing memory which may have been allocated in a previous operation.">
<polygon fill="none" stroke="black" points="185,-95 185,-114 302,-114 302,-95 185,-95"/>
<text text-anchor="middle" x="243.5" y="-102" font-family="Helvetica,sans-Serif" font-size="10.00">fiftyoneDegreesData</text>
</a>
</g>
</g>
<!-- Node3&#45;&gt;Node1 -->
<g id="edge2" class="edge">
<title>Node3&#45;&gt;Node1</title>
<path fill="none" stroke="#9a32cd" stroke-dasharray="5,2" d="M228.49,-87.18C213.48,-70.85 190.64,-46.02 176.42,-30.55"/>
<polygon fill="#9a32cd" stroke="#9a32cd" points="226.19,-89.85 235.54,-94.84 231.34,-85.11 226.19,-89.85"/>
<text text-anchor="middle" x="242" y="-63" font-family="Helvetica,sans-Serif" font-size="10.00"> valuesData</text>
<text text-anchor="middle" x="242" y="-52" font-family="Helvetica,sans-Serif" font-size="10.00">itemsData</text>
</g>
</g>
</svg>
