<?xml version="1.0" encoding="UTF-8" standalone="no"?>
<!DOCTYPE svg PUBLIC "-//W3C//DTD SVG 1.1//EN"
 "http://www.w3.org/Graphics/SVG/1.1/DTD/svg11.dtd">
<!-- Generated by graphviz version 2.43.0 (0)
 -->
<!-- Title: memoryThreadState Pages: 1 -->
<svg width="1362pt" height="324pt"
 viewBox="0.00 0.00 1362.00 324.00" xmlns="http://www.w3.org/2000/svg" xmlns:xlink="http://www.w3.org/1999/xlink">
<g id="graph0" class="graph" transform="scale(1 1) rotate(0) translate(4 320)">
<title>memoryThreadState</title>
<!-- Node1 -->
<g id="node1" class="node">
<title>Node1</title>
<g id="a_node1"><a xlink:title="Individual thread state where all members are exclusively accessed by a single test thread.">
<polygon fill="#bfbfbf" stroke="black" points="1237,-204.5 1237,-223.5 1354,-223.5 1354,-204.5 1237,-204.5"/>
<text text-anchor="middle" x="1295.5" y="-211.5" font-family="Helvetica,sans-Serif" font-size="10.00">memoryThreadState</text>
</a>
</g>
</g>
<!-- Node2 -->
<g id="node2" class="node">
<title>Node2</title>
<g id="a_node2"><a xlink:href="structmemory_state.html" target="_top" xlink:title="Shared test state.">
<polygon fill="none" stroke="black" points="1036,-296.5 1036,-315.5 1119,-315.5 1119,-296.5 1036,-296.5"/>
<text text-anchor="middle" x="1077.5" y="-303.5" font-family="Helvetica,sans-Serif" font-size="10.00">memoryState</text>
</a>
</g>
</g>
<!-- Node2&#45;&gt;Node1 -->
<g id="edge1" class="edge">
<title>Node2&#45;&gt;Node1</title>
<path fill="none" stroke="#9a32cd" stroke-dasharray="5,2" d="M1112.63,-292.79C1128.33,-286.62 1147.17,-279.08 1164,-272 1202.85,-255.65 1247.65,-235.44 1273.37,-223.7"/>
<polygon fill="#9a32cd" stroke="#9a32cd" points="1111.34,-289.53 1103.3,-296.44 1113.89,-296.05 1111.34,-289.53"/>
<text text-anchor="middle" x="1200.5" y="-265" font-family="Helvetica,sans-Serif" font-size="10.00"> main</text>
</g>
<!-- Node3 -->
<g id="node3" class="node">
<title>Node3</title>
<g id="a_node3"><a xlink:href="structfiftyone_degrees_resource_manager.html" target="_top" xlink:title="Manager structure used to provide access to a shared and changing resource.">
<polygon fill="none" stroke="black" points="726,-277.5 726,-296.5 908,-296.5 908,-277.5 726,-277.5"/>
<text text-anchor="middle" x="817" y="-284.5" font-family="Helvetica,sans-Serif" font-size="10.00">fiftyoneDegreesResourceManager</text>
</a>
</g>
</g>
<!-- Node3&#45;&gt;Node2 -->
<g id="edge2" class="edge">
<title>Node3&#45;&gt;Node2</title>
<path fill="none" stroke="#9a32cd" stroke-dasharray="5,2" d="M908.46,-297.48C914.39,-298.04 920.28,-298.55 926,-299 963.16,-301.93 1005.58,-303.76 1035.89,-304.82"/>
<polygon fill="#9a32cd" stroke="#9a32cd" points="908.74,-293.99 898.45,-296.51 908.06,-300.96 908.74,-293.99"/>
<text text-anchor="middle" x="949.5" y="-304" font-family="Helvetica,sans-Serif" font-size="10.00"> manager</text>
</g>
<!-- Node4 -->
<g id="node4" class="node">
<title>Node4</title>
<g id="a_node4"><a xlink:href="structfiftyone_degrees_resource_handle.html" target="_top" xlink:title="Handle for a shared resource.">
<polygon fill="none" stroke="black" points="991,-243.5 991,-262.5 1164,-262.5 1164,-243.5 991,-243.5"/>
<text text-anchor="middle" x="1077.5" y="-250.5" font-family="Helvetica,sans-Serif" font-size="10.00">fiftyoneDegreesResourceHandle</text>
</a>
</g>
</g>
<!-- Node3&#45;&gt;Node4 -->
<g id="edge4" class="edge">
<title>Node3&#45;&gt;Node4</title>
<path fill="none" stroke="#9a32cd" stroke-dasharray="5,2" d="M900.53,-276.15C933.85,-271.76 971.95,-266.75 1004.17,-262.51"/>
<polygon fill="#9a32cd" stroke="#9a32cd" points="899.81,-272.71 890.35,-277.48 900.72,-279.65 899.81,-272.71"/>
<text text-anchor="middle" x="949.5" y="-275" font-family="Helvetica,sans-Serif" font-size="10.00"> manager</text>
</g>
<!-- Node4&#45;&gt;Node3 -->
<g id="edge3" class="edge">
<title>Node4&#45;&gt;Node3</title>
<path fill="none" stroke="#9a32cd" stroke-dasharray="5,2" d="M980.91,-249.48C962.61,-249.98 943.65,-251.3 926,-254 896.35,-258.53 863.56,-269.43 841.98,-277.47"/>
<polygon fill="#9a32cd" stroke="#9a32cd" points="981.07,-252.97 991,-249.28 980.93,-245.98 981.07,-252.97"/>
<text text-anchor="middle" x="949.5" y="-257" font-family="Helvetica,sans-Serif" font-size="10.00"> active</text>
</g>
<!-- Node5 -->
<g id="node5" class="node">
<title>Node5</title>
<g id="a_node5"><a xlink:href="structfiftyone_degrees_interlock_double_width.html" target="_top" xlink:title="Double width (64 or 128 depending on the architecture) compare and exchange.">
<polygon fill="none" stroke="black" points="748.5,-204 748.5,-234 885.5,-234 885.5,-204 748.5,-204"/>
<text text-anchor="start" x="756.5" y="-222" font-family="Helvetica,sans-Serif" font-size="10.00">fiftyoneDegreesInterlock</text>
<text text-anchor="middle" x="817" y="-211" font-family="Helvetica,sans-Serif" font-size="10.00">DoubleWidth</text>
</a>
</g>
</g>
<!-- Node5&#45;&gt;Node4 -->
<g id="edge5" class="edge">
<title>Node5&#45;&gt;Node4</title>
<path fill="none" stroke="#9a32cd" stroke-dasharray="5,2" d="M895.73,-225.22C920.48,-227.55 947.94,-230.49 973,-234 991.55,-236.59 1011.83,-240.16 1029.49,-243.5"/>
<polygon fill="#9a32cd" stroke="#9a32cd" points="895.95,-221.72 885.67,-224.29 895.31,-228.69 895.95,-221.72"/>
<text text-anchor="middle" x="949.5" y="-237" font-family="Helvetica,sans-Serif" font-size="10.00"> counter</text>
</g>
<!-- Node6 -->
<g id="node6" class="node">
<title>Node6</title>
<g id="a_node6"><a xlink:href="structfiftyone_degrees_result_ipi_array.html" target="_top" xlink:title="Array of items of type fiftyoneDegreesResultIpi used to easily access and track the size of the array...">
<polygon fill="none" stroke="black" points="1009,-122 1009,-152 1146,-152 1146,-122 1009,-122"/>
<text text-anchor="start" x="1017" y="-140" font-family="Helvetica,sans-Serif" font-size="10.00">fiftyoneDegreesResultIpi</text>
<text text-anchor="middle" x="1077.5" y="-129" font-family="Helvetica,sans-Serif" font-size="10.00">Array</text>
</a>
</g>
</g>
<!-- Node6&#45;&gt;Node1 -->
<g id="edge6" class="edge">
<title>Node6&#45;&gt;Node1</title>
<path fill="none" stroke="#9a32cd" stroke-dasharray="5,2" d="M1130.18,-155.42C1173.48,-170.86 1233.55,-192.27 1267.78,-204.48"/>
<polygon fill="#9a32cd" stroke="#9a32cd" points="1131.25,-152.09 1120.66,-152.03 1128.9,-158.68 1131.25,-152.09"/>
<text text-anchor="middle" x="1200.5" y="-189" font-family="Helvetica,sans-Serif" font-size="10.00"> results</text>
</g>
<!-- Node7 -->
<g id="node7" class="node">
<title>Node7</title>
<g id="a_node7"><a xlink:href="structfiftyone_degrees_result_ipi.html" target="_top" xlink:title="Singular IP address result returned by a detection process method.">
<polygon fill="none" stroke="black" points="748.5,-165.5 748.5,-184.5 885.5,-184.5 885.5,-165.5 748.5,-165.5"/>
<text text-anchor="middle" x="817" y="-172.5" font-family="Helvetica,sans-Serif" font-size="10.00">fiftyoneDegreesResultIpi</text>
</a>
</g>
</g>
<!-- Node7&#45;&gt;Node6 -->
<g id="edge7" class="edge">
<title>Node7&#45;&gt;Node6</title>
<path fill="none" stroke="#9a32cd" stroke-dasharray="5,2" d="M893.02,-163.97C929.62,-158.59 973.31,-152.17 1008.87,-146.94"/>
<polygon fill="#9a32cd" stroke="#9a32cd" points="892.28,-160.54 882.9,-165.46 893.3,-167.47 892.28,-160.54"/>
<text text-anchor="middle" x="949.5" y="-161" font-family="Helvetica,sans-Serif" font-size="10.00"> items</text>
</g>
<!-- Node8 -->
<g id="node8" class="node">
<title>Node8</title>
<g id="a_node8"><a xlink:href="structfiftyone_degrees_ip_address.html" target="_top" xlink:title="The structure to hold a IP Address in byte array format.">
<polygon fill="none" stroke="black" points="448.5,-203.5 448.5,-222.5 590.5,-222.5 590.5,-203.5 448.5,-203.5"/>
<text text-anchor="middle" x="519.5" y="-210.5" font-family="Helvetica,sans-Serif" font-size="10.00">fiftyoneDegreesIpAddress</text>
</a>
</g>
</g>
<!-- Node8&#45;&gt;Node7 -->
<g id="edge8" class="edge">
<title>Node8&#45;&gt;Node7</title>
<path fill="none" stroke="#9a32cd" stroke-dasharray="5,2" d="M600.97,-203.41C634.13,-199.39 672.93,-194.59 708,-190 721.14,-188.28 735.17,-186.38 748.62,-184.53"/>
<polygon fill="#9a32cd" stroke="#9a32cd" points="600.38,-199.96 590.87,-204.64 601.22,-206.91 600.38,-199.96"/>
<text text-anchor="middle" x="667.5" y="-202" font-family="Helvetica,sans-Serif" font-size="10.00"> targetIpAddress</text>
</g>
<!-- Node9 -->
<g id="node9" class="node">
<title>Node9</title>
<g id="a_node9"><a xlink:href="structfiftyone_degrees_ipi_cg_result.html" target="_top" xlink:title="The evaluation result from graph collection.">
<polygon fill="none" stroke="black" points="445,-165.5 445,-184.5 594,-184.5 594,-165.5 445,-165.5"/>
<text text-anchor="middle" x="519.5" y="-172.5" font-family="Helvetica,sans-Serif" font-size="10.00">fiftyoneDegreesIpiCgResult</text>
</a>
</g>
</g>
<!-- Node9&#45;&gt;Node7 -->
<g id="edge9" class="edge">
<title>Node9&#45;&gt;Node7</title>
<path fill="none" stroke="#9a32cd" stroke-dasharray="5,2" d="M604.45,-175C649.95,-175 705.45,-175 748.19,-175"/>
<polygon fill="#9a32cd" stroke="#9a32cd" points="604.3,-171.5 594.3,-175 604.3,-178.5 604.3,-171.5"/>
<text text-anchor="middle" x="667.5" y="-178" font-family="Helvetica,sans-Serif" font-size="10.00"> graphResult</text>
</g>
<!-- Node10 -->
<g id="node10" class="node">
<title>Node10</title>
<g id="a_node10"><a xlink:href="structfiftyone_degrees_ipi_list.html" target="_top" xlink:title="The structure which represents the list of values returned for the required property from the results...">
<polygon fill="none" stroke="black" points="755.5,-89.5 755.5,-108.5 878.5,-108.5 878.5,-89.5 755.5,-89.5"/>
<text text-anchor="middle" x="817" y="-96.5" font-family="Helvetica,sans-Serif" font-size="10.00">fiftyoneDegreesIpiList</text>
</a>
</g>
</g>
<!-- Node10&#45;&gt;Node6 -->
<g id="edge10" class="edge">
<title>Node10&#45;&gt;Node6</title>
<path fill="none" stroke="#9a32cd" stroke-dasharray="5,2" d="M888.6,-102.63C915.17,-104.6 945.58,-107.57 973,-112 988.78,-114.55 1005.72,-118.23 1021.22,-121.99"/>
<polygon fill="#9a32cd" stroke="#9a32cd" points="888.84,-99.14 878.62,-101.92 888.35,-106.12 888.84,-99.14"/>
<text text-anchor="middle" x="949.5" y="-115" font-family="Helvetica,sans-Serif" font-size="10.00"> values</text>
</g>
<!-- Node11 -->
<g id="node11" class="node">
<title>Node11</title>
<g id="a_node11"><a xlink:href="structfiftyone_degrees_profile_percentage.html" target="_top" xlink:title="The structure to hold a pair of result item and its percentage When getting values for a property fro...">
<polygon fill="none" stroke="black" points="430,-89.5 430,-108.5 609,-108.5 609,-89.5 430,-89.5"/>
<text text-anchor="middle" x="519.5" y="-96.5" font-family="Helvetica,sans-Serif" font-size="10.00">fiftyoneDegreesProfilePercentage</text>
</a>
</g>
</g>
<!-- Node11&#45;&gt;Node10 -->
<g id="edge11" class="edge">
<title>Node11&#45;&gt;Node10</title>
<path fill="none" stroke="#9a32cd" stroke-dasharray="5,2" d="M619.26,-99C664.35,-99 716.3,-99 755.49,-99"/>
<polygon fill="#9a32cd" stroke="#9a32cd" points="619.16,-95.5 609.16,-99 619.16,-102.5 619.16,-95.5"/>
<text text-anchor="middle" x="667.5" y="-102" font-family="Helvetica,sans-Serif" font-size="10.00"> items</text>
</g>
<!-- Node12 -->
<g id="node12" class="node">
<title>Node12</title>
<g id="a_node12"><a xlink:href="structfiftyone_degrees_collection_item.html" target="_top" xlink:title="Used to store a handle to the underlying item that could be used to release the item when it&#39;s finish...">
<polygon fill="none" stroke="black" points="178,-59.5 178,-78.5 343,-78.5 343,-59.5 178,-59.5"/>
<text text-anchor="middle" x="260.5" y="-66.5" font-family="Helvetica,sans-Serif" font-size="10.00">fiftyoneDegreesCollectionItem</text>
</a>
</g>
</g>
<!-- Node12&#45;&gt;Node6 -->
<g id="edge18" class="edge">
<title>Node12&#45;&gt;Node6</title>
<path fill="none" stroke="#9a32cd" stroke-dasharray="5,2" d="M295.92,-82.12C329.54,-94.18 382.45,-111.19 430,-118 639.25,-147.97 890.34,-144.14 1008.59,-140.01"/>
<polygon fill="#9a32cd" stroke="#9a32cd" points="296.73,-78.68 286.14,-78.55 294.33,-85.26 296.73,-78.68"/>
<text text-anchor="middle" x="667.5" y="-143" font-family="Helvetica,sans-Serif" font-size="10.00"> propertyItem</text>
</g>
<!-- Node12&#45;&gt;Node11 -->
<g id="edge12" class="edge">
<title>Node12&#45;&gt;Node11</title>
<path fill="none" stroke="#9a32cd" stroke-dasharray="5,2" d="M353.14,-79.7C380.53,-82.89 410.36,-86.38 437.04,-89.49"/>
<polygon fill="#9a32cd" stroke="#9a32cd" points="353.51,-76.22 343.17,-78.53 352.7,-83.17 353.51,-76.22"/>
<text text-anchor="middle" x="386.5" y="-88" font-family="Helvetica,sans-Serif" font-size="10.00"> item</text>
</g>
<!-- Node13 -->
<g id="node13" class="node">
<title>Node13</title>
<g id="a_node13"><a xlink:href="structfiftyone_degrees_collection.html" target="_top" xlink:title="All the shared methods and fields required by file, memory and cached collections.">
<polygon fill="none" stroke="black" points="448,-0.5 448,-19.5 591,-19.5 591,-0.5 448,-0.5"/>
<text text-anchor="middle" x="519.5" y="-7.5" font-family="Helvetica,sans-Serif" font-size="10.00">fiftyoneDegreesCollection</text>
</a>
</g>
</g>
<!-- Node12&#45;&gt;Node13 -->
<g id="edge14" class="edge">
<title>Node12&#45;&gt;Node13</title>
<path fill="none" stroke="#9a32cd" stroke-dasharray="5,2" d="M313,-57.18C361.2,-46.11 432.31,-29.79 476.98,-19.53"/>
<polygon fill="#9a32cd" stroke="#9a32cd" points="312.04,-53.81 303.08,-59.46 313.61,-60.63 312.04,-53.81"/>
<text text-anchor="middle" x="386.5" y="-47" font-family="Helvetica,sans-Serif" font-size="10.00"> release</text>
</g>
<!-- Node13&#45;&gt;Node12 -->
<g id="edge13" class="edge">
<title>Node13&#45;&gt;Node12</title>
<path fill="none" stroke="#9a32cd" stroke-dasharray="5,2" d="M437.6,-8.32C412.7,-9.48 385.42,-12.47 361,-19 328.69,-27.64 294.61,-47.44 275.91,-59.37"/>
<polygon fill="#9a32cd" stroke="#9a32cd" points="437.89,-11.81 447.75,-7.94 437.63,-4.82 437.89,-11.81"/>
<text text-anchor="middle" x="386.5" y="-22" font-family="Helvetica,sans-Serif" font-size="10.00"> collection</text>
</g>
<!-- Node13&#45;&gt;Node13 -->
<g id="edge15" class="edge">
<title>Node13&#45;&gt;Node13</title>
<path fill="none" stroke="#9a32cd" stroke-dasharray="5,2" d="M494.95,-29.03C496.29,-34.13 504.47,-38 519.5,-38 542.96,-38 549.74,-28.57 539.85,-19.76"/>
<polygon fill="#9a32cd" stroke="#9a32cd" points="498.21,-30.31 499.15,-19.76 491.83,-27.42 498.21,-30.31"/>
<text text-anchor="middle" x="519.5" y="-63" font-family="Helvetica,sans-Serif" font-size="10.00"> next</text>
<text text-anchor="middle" x="519.5" y="-52" font-family="Helvetica,sans-Serif" font-size="10.00">freeCollection</text>
<text text-anchor="middle" x="519.5" y="-41" font-family="Helvetica,sans-Serif" font-size="10.00">get</text>
</g>
<!-- Node14 -->
<g id="node14" class="node">
<title>Node14</title>
<g id="a_node14"><a xlink:href="structfiftyone_degrees_data.html" target="_top" xlink:title="Data structure used for reusing memory which may have been allocated in a previous operation.">
<polygon fill="none" stroke="black" points="0,-59.5 0,-78.5 117,-78.5 117,-59.5 0,-59.5"/>
<text text-anchor="middle" x="58.5" y="-66.5" font-family="Helvetica,sans-Serif" font-size="10.00">fiftyoneDegreesData</text>
</a>
</g>
</g>
<!-- Node14&#45;&gt;Node12 -->
<g id="edge16" class="edge">
<title>Node14&#45;&gt;Node12</title>
<path fill="none" stroke="#9a32cd" stroke-dasharray="5,2" d="M127.5,-69C143.67,-69 161.08,-69 177.78,-69"/>
<polygon fill="#9a32cd" stroke="#9a32cd" points="127.08,-65.5 117.08,-69 127.08,-72.5 127.08,-65.5"/>
<text text-anchor="middle" x="147.5" y="-72" font-family="Helvetica,sans-Serif" font-size="10.00"> data</text>
</g>
<!-- Node15 -->
<g id="node15" class="node">
<title>Node15</title>
<g id="a_node15"><a xlink:href="structfiftyone_degrees_results_base.html" target="_top" xlink:title="Base results structure which any processing results should extend.">
<polygon fill="none" stroke="black" points="740,-51.5 740,-70.5 894,-70.5 894,-51.5 740,-51.5"/>
<text text-anchor="middle" x="817" y="-58.5" font-family="Helvetica,sans-Serif" font-size="10.00">fiftyoneDegreesResultsBase</text>
</a>
</g>
</g>
<!-- Node15&#45;&gt;Node6 -->
<g id="edge17" class="edge">
<title>Node15&#45;&gt;Node6</title>
<path fill="none" stroke="#9a32cd" stroke-dasharray="5,2" d="M898.58,-72.28C922.81,-76.68 949.25,-82.51 973,-90 999.35,-98.31 1027.83,-111.59 1048.24,-121.92"/>
<polygon fill="#9a32cd" stroke="#9a32cd" points="899.17,-68.82 888.71,-70.54 897.95,-75.72 899.17,-68.82"/>
<text text-anchor="middle" x="949.5" y="-93" font-family="Helvetica,sans-Serif" font-size="10.00"> b</text>
</g>
</g>
</svg>
