<?xml version="1.0" encoding="UTF-8" standalone="no"?>
<!DOCTYPE svg PUBLIC "-//W3C//DTD SVG 1.1//EN"
 "http://www.w3.org/Graphics/SVG/1.1/DTD/svg11.dtd">
<!-- Generated by graphviz version 2.43.0 (0)
 -->
<!-- Title: IndirectProfileSearch Pages: 1 -->
<svg width="372pt" height="242pt"
 viewBox="0.00 0.00 372.00 242.00" xmlns="http://www.w3.org/2000/svg" xmlns:xlink="http://www.w3.org/1999/xlink">
<g id="graph0" class="graph" transform="scale(1 1) rotate(0) translate(4 238)">
<title>IndirectProfileSearch</title>
<!-- Node1 -->
<g id="node1" class="node">
<title>Node1</title>
<g id="a_node1"><a xlink:title=" ">
<polygon fill="#bfbfbf" stroke="black" points="0,-0.5 0,-19.5 117,-19.5 117,-0.5 0,-0.5"/>
<text text-anchor="middle" x="58.5" y="-7.5" font-family="Helvetica,sans-Serif" font-size="10.00">IndirectProfileSearch</text>
</a>
</g>
</g>
<!-- Node2 -->
<g id="node2" class="node">
<title>Node2</title>
<g id="a_node2"><a xlink:href="structfiftyone_degrees_collection_item.html" target="_top" xlink:title="Used to store a handle to the underlying item that could be used to release the item when it&#39;s finish...">
<polygon fill="none" stroke="black" points="60,-147.5 60,-166.5 225,-166.5 225,-147.5 60,-147.5"/>
<text text-anchor="middle" x="142.5" y="-154.5" font-family="Helvetica,sans-Serif" font-size="10.00">fiftyoneDegreesCollectionItem</text>
</a>
</g>
</g>
<!-- Node2&#45;&gt;Node1 -->
<g id="edge1" class="edge">
<title>Node2&#45;&gt;Node1</title>
<path fill="none" stroke="#9a32cd" stroke-dasharray="5,2" d="M105.71,-143.56C85.85,-134.74 63.09,-120.74 51.5,-100 36.83,-73.75 48.42,-36.18 54.89,-19.51"/>
<polygon fill="#9a32cd" stroke="#9a32cd" points="104.59,-146.88 115.16,-147.47 107.27,-140.41 104.59,-146.88"/>
<text text-anchor="middle" x="88" y="-81" font-family="Helvetica,sans-Serif" font-size="10.00"> outProfileItem</text>
</g>
<!-- Node3 -->
<g id="node3" class="node">
<title>Node3</title>
<g id="a_node3"><a xlink:href="structfiftyone_degrees_collection.html" target="_top" xlink:title="All the shared methods and fields required by file, memory and cached collections.">
<polygon fill="none" stroke="black" points="134,-74 134,-93 277,-93 277,-74 134,-74"/>
<text text-anchor="middle" x="205.5" y="-81" font-family="Helvetica,sans-Serif" font-size="10.00">fiftyoneDegreesCollection</text>
</a>
</g>
</g>
<!-- Node2&#45;&gt;Node3 -->
<g id="edge3" class="edge">
<title>Node2&#45;&gt;Node3</title>
<path fill="none" stroke="#9a32cd" stroke-dasharray="5,2" d="M136.69,-137.38C135.73,-130.84 136,-123.71 139.5,-118 146.89,-105.95 160.12,-98.07 172.8,-93.01"/>
<polygon fill="#9a32cd" stroke="#9a32cd" points="133.38,-138.57 139.11,-147.47 140.18,-136.93 133.38,-138.57"/>
<text text-anchor="middle" x="159.5" y="-121" font-family="Helvetica,sans-Serif" font-size="10.00"> release</text>
</g>
<!-- Node3&#45;&gt;Node1 -->
<g id="edge6" class="edge">
<title>Node3&#45;&gt;Node1</title>
<path fill="none" stroke="#9a32cd" stroke-dasharray="5,2" d="M178.39,-69.31C148.63,-54.84 101.71,-32.02 76.29,-19.66"/>
<polygon fill="#9a32cd" stroke="#9a32cd" points="177.24,-72.65 187.77,-73.88 180.31,-66.35 177.24,-72.65"/>
<text text-anchor="middle" x="156.5" y="-41" font-family="Helvetica,sans-Serif" font-size="10.00"> profiles</text>
</g>
<!-- Node3&#45;&gt;Node2 -->
<g id="edge2" class="edge">
<title>Node3&#45;&gt;Node2</title>
<path fill="none" stroke="#9a32cd" stroke-dasharray="5,2" d="M199.09,-102.71C195.44,-111.33 190.24,-121.38 183.5,-129 176.84,-136.54 167.61,-142.86 159.59,-147.49"/>
<polygon fill="#9a32cd" stroke="#9a32cd" points="202.44,-103.75 202.77,-93.16 195.9,-101.23 202.44,-103.75"/>
<text text-anchor="middle" x="217" y="-121" font-family="Helvetica,sans-Serif" font-size="10.00"> collection</text>
</g>
<!-- Node3&#45;&gt;Node3 -->
<g id="edge4" class="edge">
<title>Node3&#45;&gt;Node3</title>
<path fill="none" stroke="#9a32cd" stroke-dasharray="5,2" d="M287.11,-88.69C292.04,-87.46 295,-85.73 295,-83.5 295,-80.02 287.79,-77.76 277.13,-76.7"/>
<polygon fill="#9a32cd" stroke="#9a32cd" points="286.44,-85.26 277.13,-90.3 287.56,-92.17 286.44,-85.26"/>
<text text-anchor="middle" x="329.5" y="-92" font-family="Helvetica,sans-Serif" font-size="10.00"> next</text>
<text text-anchor="middle" x="329.5" y="-81" font-family="Helvetica,sans-Serif" font-size="10.00">freeCollection</text>
<text text-anchor="middle" x="329.5" y="-70" font-family="Helvetica,sans-Serif" font-size="10.00">get</text>
</g>
<!-- Node4 -->
<g id="node4" class="node">
<title>Node4</title>
<g id="a_node4"><a xlink:href="structfiftyone_degrees_data.html" target="_top" xlink:title="Data structure used for reusing memory which may have been allocated in a previous operation.">
<polygon fill="none" stroke="black" points="84,-214.5 84,-233.5 201,-233.5 201,-214.5 84,-214.5"/>
<text text-anchor="middle" x="142.5" y="-221.5" font-family="Helvetica,sans-Serif" font-size="10.00">fiftyoneDegreesData</text>
</a>
</g>
</g>
<!-- Node4&#45;&gt;Node2 -->
<g id="edge5" class="edge">
<title>Node4&#45;&gt;Node2</title>
<path fill="none" stroke="#9a32cd" stroke-dasharray="5,2" d="M142.5,-204.04C142.5,-191.67 142.5,-176.12 142.5,-166.63"/>
<polygon fill="#9a32cd" stroke="#9a32cd" points="139,-204.23 142.5,-214.23 146,-204.23 139,-204.23"/>
<text text-anchor="middle" x="155" y="-188" font-family="Helvetica,sans-Serif" font-size="10.00"> data</text>
</g>
</g>
</svg>
