<?xml version="1.0" encoding="UTF-8" standalone="no"?>
<!DOCTYPE svg PUBLIC "-//W3C//DTD SVG 1.1//EN"
 "http://www.w3.org/Graphics/SVG/1.1/DTD/svg11.dtd">
<!-- Generated by graphviz version 2.43.0 (0)
 -->
<!-- Title: fixedSizeCollectionState Pages: 1 -->
<svg width="419pt" height="97pt"
 viewBox="0.00 0.00 418.50 97.00" xmlns="http://www.w3.org/2000/svg" xmlns:xlink="http://www.w3.org/1999/xlink">
<g id="graph0" class="graph" transform="scale(1 1) rotate(0) translate(4 93)">
<title>fixedSizeCollectionState</title>
<!-- Node1 -->
<g id="node1" class="node">
<title>Node1</title>
<g id="a_node1"><a xlink:title=" ">
<polygon fill="#bfbfbf" stroke="black" points="0,-0.5 0,-19.5 134,-19.5 134,-0.5 0,-0.5"/>
<text text-anchor="middle" x="67" y="-7.5" font-family="Helvetica,sans-Serif" font-size="10.00">fixedSizeCollectionState</text>
</a>
</g>
</g>
<!-- Node2 -->
<g id="node2" class="node">
<title>Node2</title>
<g id="a_node2"><a xlink:href="structfiftyone_degrees_collection.html" target="_top" xlink:title="All the shared methods and fields required by file, memory and cached collections.">
<polygon fill="none" stroke="black" points="42.5,-68.5 42.5,-87.5 185.5,-87.5 185.5,-68.5 42.5,-68.5"/>
<text text-anchor="middle" x="114" y="-75.5" font-family="Helvetica,sans-Serif" font-size="10.00">fiftyoneDegreesCollection</text>
</a>
</g>
</g>
<!-- Node2&#45;&gt;Node1 -->
<g id="edge1" class="edge">
<title>Node2&#45;&gt;Node1</title>
<path fill="none" stroke="#9a32cd" stroke-dasharray="5,2" d="M86.26,-62.69C81.15,-58.88 76.37,-54.32 73,-49 67.36,-40.08 66.39,-27.7 66.48,-19.52"/>
<polygon fill="#9a32cd" stroke="#9a32cd" points="84.71,-65.85 95,-68.38 88.53,-59.99 84.71,-65.85"/>
<text text-anchor="middle" x="98.5" y="-41" font-family="Helvetica,sans-Serif" font-size="10.00"> collection</text>
</g>
<!-- Node2&#45;&gt;Node2 -->
<g id="edge5" class="edge">
<title>Node2&#45;&gt;Node2</title>
<path fill="none" stroke="#9a32cd" stroke-dasharray="5,2" d="M195.61,-82.41C200.54,-81.36 203.5,-79.89 203.5,-78 203.5,-75.04 196.29,-73.12 185.63,-72.22"/>
<polygon fill="#9a32cd" stroke="#9a32cd" points="195.06,-78.96 185.63,-83.78 196.01,-85.89 195.06,-78.96"/>
<text text-anchor="middle" x="239.5" y="-81" font-family="Helvetica,sans-Serif" font-size="10.00"> freeCollection</text>
<text text-anchor="middle" x="239.5" y="-70" font-family="Helvetica,sans-Serif" font-size="10.00">get</text>
</g>
<!-- Node3 -->
<g id="node3" class="node">
<title>Node3</title>
<g id="a_node3"><a xlink:href="structfiftyone_degrees_collection_item.html" target="_top" xlink:title="Used to store a handle to the underlying item that could be used to release the item when it&#39;s finish...">
<polygon fill="none" stroke="black" points="152.5,-0.5 152.5,-19.5 317.5,-19.5 317.5,-0.5 152.5,-0.5"/>
<text text-anchor="middle" x="235" y="-7.5" font-family="Helvetica,sans-Serif" font-size="10.00">fiftyoneDegreesCollectionItem</text>
</a>
</g>
</g>
<!-- Node2&#45;&gt;Node3 -->
<g id="edge3" class="edge">
<title>Node2&#45;&gt;Node3</title>
<path fill="none" stroke="#9a32cd" stroke-dasharray="5,2" d="M124.6,-59.92C130.14,-52.25 137.52,-43.67 146,-38 158.62,-29.57 173.97,-23.69 188.35,-19.62"/>
<polygon fill="#9a32cd" stroke="#9a32cd" points="121.66,-58.02 119,-68.28 127.48,-61.91 121.66,-58.02"/>
<text text-anchor="middle" x="171.5" y="-41" font-family="Helvetica,sans-Serif" font-size="10.00"> collection</text>
</g>
<!-- Node3&#45;&gt;Node2 -->
<g id="edge2" class="edge">
<title>Node3&#45;&gt;Node2</title>
<path fill="none" stroke="#9a32cd" stroke-dasharray="5,2" d="M223.19,-27.84C217.27,-35.22 209.54,-43.45 201,-49 187.3,-57.9 170.53,-64.18 155.4,-68.49"/>
<polygon fill="#9a32cd" stroke="#9a32cd" points="226.04,-29.86 229.25,-19.77 220.45,-25.66 226.04,-29.86"/>
<text text-anchor="middle" x="234" y="-41" font-family="Helvetica,sans-Serif" font-size="10.00"> release</text>
</g>
<!-- Node4 -->
<g id="node4" class="node">
<title>Node4</title>
<g id="a_node4"><a xlink:href="structfiftyone_degrees_data.html" target="_top" xlink:title="Data structure used for reusing memory which may have been allocated in a previous operation.">
<polygon fill="none" stroke="black" points="293.5,-68.5 293.5,-87.5 410.5,-87.5 410.5,-68.5 293.5,-68.5"/>
<text text-anchor="middle" x="352" y="-75.5" font-family="Helvetica,sans-Serif" font-size="10.00">fiftyoneDegreesData</text>
</a>
</g>
</g>
<!-- Node4&#45;&gt;Node3 -->
<g id="edge4" class="edge">
<title>Node4&#45;&gt;Node3</title>
<path fill="none" stroke="#9a32cd" stroke-dasharray="5,2" d="M327.78,-63.34C304.5,-50.2 270.01,-30.75 250.3,-19.63"/>
<polygon fill="#9a32cd" stroke="#9a32cd" points="326.27,-66.51 336.7,-68.37 329.71,-60.41 326.27,-66.51"/>
<text text-anchor="middle" x="313.5" y="-41" font-family="Helvetica,sans-Serif" font-size="10.00"> data</text>
</g>
</g>
</svg>
