<?xml version="1.0" encoding="UTF-8" standalone="no"?>
<!DOCTYPE svg PUBLIC "-//W3C//DTD SVG 1.1//EN"
 "http://www.w3.org/Graphics/SVG/1.1/DTD/svg11.dtd">
<!-- Generated by graphviz version 2.43.0 (0)
 -->
<!-- Title: fiftyoneDegreesResultIpiArray Pages: 1 -->
<svg width="1104pt" height="224pt"
 viewBox="0.00 0.00 1104.00 224.00" xmlns="http://www.w3.org/2000/svg" xmlns:xlink="http://www.w3.org/1999/xlink">
<g id="graph0" class="graph" transform="scale(1 1) rotate(0) translate(4 220)">
<title>fiftyoneDegreesResultIpiArray</title>
<!-- Node1 -->
<g id="node1" class="node">
<title>Node1</title>
<g id="a_node1"><a xlink:title="Array of items of type fiftyoneDegreesResultIpi used to easily access and track the size of the array...">
<polygon fill="#bfbfbf" stroke="black" points="959,-139 959,-169 1096,-169 1096,-139 959,-139"/>
<text text-anchor="start" x="967" y="-157" font-family="Helvetica,sans-Serif" font-size="10.00">fiftyoneDegreesResultIpi</text>
<text text-anchor="middle" x="1027.5" y="-146" font-family="Helvetica,sans-Serif" font-size="10.00">Array</text>
</a>
</g>
</g>
<!-- Node2 -->
<g id="node2" class="node">
<title>Node2</title>
<g id="a_node2"><a xlink:href="structfiftyone_degrees_result_ipi.html" target="_top" xlink:title="Singular IP address result returned by a detection process method.">
<polygon fill="none" stroke="black" points="741.5,-195.5 741.5,-214.5 878.5,-214.5 878.5,-195.5 741.5,-195.5"/>
<text text-anchor="middle" x="810" y="-202.5" font-family="Helvetica,sans-Serif" font-size="10.00">fiftyoneDegreesResultIpi</text>
</a>
</g>
</g>
<!-- Node2&#45;&gt;Node1 -->
<g id="edge1" class="edge">
<title>Node2&#45;&gt;Node1</title>
<path fill="none" stroke="#9a32cd" stroke-dasharray="5,2" d="M877.46,-193.61C897.94,-189.73 920.49,-185.08 941,-180 953.8,-176.83 967.53,-172.9 980.15,-169.06"/>
<polygon fill="#9a32cd" stroke="#9a32cd" points="876.78,-190.18 867.59,-195.46 878.06,-197.06 876.78,-190.18"/>
<text text-anchor="middle" x="923" y="-191" font-family="Helvetica,sans-Serif" font-size="10.00"> items</text>
</g>
<!-- Node3 -->
<g id="node3" class="node">
<title>Node3</title>
<g id="a_node3"><a xlink:href="structfiftyone_degrees_ip_address.html" target="_top" xlink:title="The structure to hold a IP Address in byte array format.">
<polygon fill="none" stroke="black" points="455.5,-195.5 455.5,-214.5 597.5,-214.5 597.5,-195.5 455.5,-195.5"/>
<text text-anchor="middle" x="526.5" y="-202.5" font-family="Helvetica,sans-Serif" font-size="10.00">fiftyoneDegreesIpAddress</text>
</a>
</g>
</g>
<!-- Node3&#45;&gt;Node2 -->
<g id="edge2" class="edge">
<title>Node3&#45;&gt;Node2</title>
<path fill="none" stroke="#9a32cd" stroke-dasharray="5,2" d="M608.02,-205C650.08,-205 700.99,-205 741.04,-205"/>
<polygon fill="#9a32cd" stroke="#9a32cd" points="607.81,-201.5 597.81,-205 607.81,-208.5 607.81,-201.5"/>
<text text-anchor="middle" x="674.5" y="-208" font-family="Helvetica,sans-Serif" font-size="10.00"> targetIpAddress</text>
</g>
<!-- Node4 -->
<g id="node4" class="node">
<title>Node4</title>
<g id="a_node4"><a xlink:href="structfiftyone_degrees_ipi_list.html" target="_top" xlink:title="The structure which represents the list of values returned for the required property from the results...">
<polygon fill="none" stroke="black" points="748.5,-119.5 748.5,-138.5 871.5,-138.5 871.5,-119.5 748.5,-119.5"/>
<text text-anchor="middle" x="810" y="-126.5" font-family="Helvetica,sans-Serif" font-size="10.00">fiftyoneDegreesIpiList</text>
</a>
</g>
</g>
<!-- Node4&#45;&gt;Node1 -->
<g id="edge3" class="edge">
<title>Node4&#45;&gt;Node1</title>
<path fill="none" stroke="#9a32cd" stroke-dasharray="5,2" d="M881.77,-135.56C901,-137.49 921.82,-139.7 941,-142 946.8,-142.7 952.82,-143.46 958.86,-144.25"/>
<polygon fill="#9a32cd" stroke="#9a32cd" points="881.87,-132.05 871.57,-134.55 881.18,-139.02 881.87,-132.05"/>
<text text-anchor="middle" x="923" y="-145" font-family="Helvetica,sans-Serif" font-size="10.00"> values</text>
</g>
<!-- Node5 -->
<g id="node5" class="node">
<title>Node5</title>
<g id="a_node5"><a xlink:href="structfiftyone_degrees_profile_percentage.html" target="_top" xlink:title="The structure to hold a pair of result item and its percentage When getting values for a property fro...">
<polygon fill="none" stroke="black" points="437,-30.5 437,-49.5 616,-49.5 616,-30.5 437,-30.5"/>
<text text-anchor="middle" x="526.5" y="-37.5" font-family="Helvetica,sans-Serif" font-size="10.00">fiftyoneDegreesProfilePercentage</text>
</a>
</g>
</g>
<!-- Node5&#45;&gt;Node4 -->
<g id="edge4" class="edge">
<title>Node5&#45;&gt;Node4</title>
<path fill="none" stroke="#9a32cd" stroke-dasharray="5,2" d="M590.18,-51.83C598.93,-53.95 607.74,-56.34 616,-59 670,-76.37 679.3,-91.72 733,-110 743.43,-113.55 754.87,-116.75 765.63,-119.48"/>
<polygon fill="#9a32cd" stroke="#9a32cd" points="590.9,-48.4 580.37,-49.55 589.32,-55.22 590.9,-48.4"/>
<text text-anchor="middle" x="674.5" y="-106" font-family="Helvetica,sans-Serif" font-size="10.00"> items</text>
</g>
<!-- Node6 -->
<g id="node6" class="node">
<title>Node6</title>
<g id="a_node6"><a xlink:href="structfiftyone_degrees_collection_item.html" target="_top" xlink:title="Used to store a handle to the underlying item that could be used to release the item when it&#39;s finish...">
<polygon fill="none" stroke="black" points="178,-85.5 178,-104.5 343,-104.5 343,-85.5 178,-85.5"/>
<text text-anchor="middle" x="260.5" y="-92.5" font-family="Helvetica,sans-Serif" font-size="10.00">fiftyoneDegreesCollectionItem</text>
</a>
</g>
</g>
<!-- Node6&#45;&gt;Node1 -->
<g id="edge12" class="edge">
<title>Node6&#45;&gt;Node1</title>
<path fill="none" stroke="#9a32cd" stroke-dasharray="5,2" d="M295.08,-108.25C329.92,-121.26 386.32,-140.24 437,-148 624.16,-176.67 848.67,-167.03 958.81,-159.49"/>
<polygon fill="#9a32cd" stroke="#9a32cd" points="296.01,-104.86 285.41,-104.59 293.53,-111.41 296.01,-104.86"/>
<text text-anchor="middle" x="674.5" y="-170" font-family="Helvetica,sans-Serif" font-size="10.00"> propertyItem</text>
</g>
<!-- Node6&#45;&gt;Node5 -->
<g id="edge5" class="edge">
<title>Node6&#45;&gt;Node5</title>
<path fill="none" stroke="#9a32cd" stroke-dasharray="5,2" d="M293.87,-81.6C313.07,-74.16 338.07,-65.36 361,-60 385.37,-54.3 412.18,-50.17 436.95,-47.19"/>
<polygon fill="#9a32cd" stroke="#9a32cd" points="292.41,-78.41 284.4,-85.34 294.98,-84.93 292.41,-78.41"/>
<text text-anchor="middle" x="390" y="-63" font-family="Helvetica,sans-Serif" font-size="10.00"> item</text>
</g>
<!-- Node7 -->
<g id="node7" class="node">
<title>Node7</title>
<g id="a_node7"><a xlink:href="structfiftyone_degrees_collection.html" target="_top" xlink:title="All the shared methods and fields required by file, memory and cached collections.">
<polygon fill="none" stroke="black" points="455,-68.5 455,-87.5 598,-87.5 598,-68.5 455,-68.5"/>
<text text-anchor="middle" x="526.5" y="-75.5" font-family="Helvetica,sans-Serif" font-size="10.00">fiftyoneDegreesCollection</text>
</a>
</g>
</g>
<!-- Node6&#45;&gt;Node7 -->
<g id="edge7" class="edge">
<title>Node6&#45;&gt;Node7</title>
<path fill="none" stroke="#9a32cd" stroke-dasharray="5,2" d="M314.9,-83.53C329.75,-80.83 345.94,-78.35 361,-77 391.72,-74.24 425.8,-73.99 454.93,-74.62"/>
<polygon fill="#9a32cd" stroke="#9a32cd" points="314.04,-80.13 304.86,-85.42 315.34,-87.01 314.04,-80.13"/>
<text text-anchor="middle" x="390" y="-80" font-family="Helvetica,sans-Serif" font-size="10.00"> release</text>
</g>
<!-- Node7&#45;&gt;Node6 -->
<g id="edge6" class="edge">
<title>Node7&#45;&gt;Node6</title>
<path fill="none" stroke="#9a32cd" stroke-dasharray="5,2" d="M444.69,-87.8C436.03,-88.64 427.34,-89.4 419,-90 394.44,-91.77 367.68,-92.91 343.31,-93.65"/>
<polygon fill="#9a32cd" stroke="#9a32cd" points="445.23,-91.26 454.82,-86.77 444.52,-84.29 445.23,-91.26"/>
<text text-anchor="middle" x="390" y="-96" font-family="Helvetica,sans-Serif" font-size="10.00"> collection</text>
</g>
<!-- Node7&#45;&gt;Node7 -->
<g id="edge8" class="edge">
<title>Node7&#45;&gt;Node7</title>
<path fill="none" stroke="#9a32cd" stroke-dasharray="5,2" d="M501.2,-97.03C502.58,-102.13 511.01,-106 526.5,-106 550.67,-106 557.66,-96.57 547.46,-87.76"/>
<polygon fill="#9a32cd" stroke="#9a32cd" points="504.47,-98.3 505.54,-87.76 498.13,-95.33 504.47,-98.3"/>
<text text-anchor="middle" x="526.5" y="-131" font-family="Helvetica,sans-Serif" font-size="10.00"> next</text>
<text text-anchor="middle" x="526.5" y="-120" font-family="Helvetica,sans-Serif" font-size="10.00">freeCollection</text>
<text text-anchor="middle" x="526.5" y="-109" font-family="Helvetica,sans-Serif" font-size="10.00">get</text>
</g>
<!-- Node8 -->
<g id="node8" class="node">
<title>Node8</title>
<g id="a_node8"><a xlink:href="structfiftyone_degrees_data.html" target="_top" xlink:title="Data structure used for reusing memory which may have been allocated in a previous operation.">
<polygon fill="none" stroke="black" points="0,-85.5 0,-104.5 117,-104.5 117,-85.5 0,-85.5"/>
<text text-anchor="middle" x="58.5" y="-92.5" font-family="Helvetica,sans-Serif" font-size="10.00">fiftyoneDegreesData</text>
</a>
</g>
</g>
<!-- Node8&#45;&gt;Node6 -->
<g id="edge9" class="edge">
<title>Node8&#45;&gt;Node6</title>
<path fill="none" stroke="#9a32cd" stroke-dasharray="5,2" d="M127.5,-95C143.67,-95 161.08,-95 177.78,-95"/>
<polygon fill="#9a32cd" stroke="#9a32cd" points="127.08,-91.5 117.08,-95 127.08,-98.5 127.08,-91.5"/>
<text text-anchor="middle" x="147.5" y="-98" font-family="Helvetica,sans-Serif" font-size="10.00"> data</text>
</g>
<!-- Node9 -->
<g id="node9" class="node">
<title>Node9</title>
<g id="a_node9"><a xlink:href="structfiftyone_degrees_float_internal.html" target="_top" xlink:title="Struture that represents 51Degrees implementation, which encapsulate an array of 4 bytes.">
<polygon fill="none" stroke="black" points="182.5,-0.5 182.5,-19.5 338.5,-19.5 338.5,-0.5 182.5,-0.5"/>
<text text-anchor="middle" x="260.5" y="-7.5" font-family="Helvetica,sans-Serif" font-size="10.00">fiftyoneDegreesFloatInternal</text>
</a>
</g>
</g>
<!-- Node9&#45;&gt;Node5 -->
<g id="edge10" class="edge">
<title>Node9&#45;&gt;Node5</title>
<path fill="none" stroke="#9a32cd" stroke-dasharray="5,2" d="M348.75,-6.53C371.68,-6.72 396.34,-7.9 419,-11 446.53,-14.77 477.04,-23.57 498.32,-30.5"/>
<polygon fill="#9a32cd" stroke="#9a32cd" points="348.7,-3.03 338.69,-6.51 348.68,-10.03 348.7,-3.03"/>
<text text-anchor="middle" x="390" y="-14" font-family="Helvetica,sans-Serif" font-size="10.00"> percentage</text>
</g>
<!-- Node10 -->
<g id="node10" class="node">
<title>Node10</title>
<g id="a_node10"><a xlink:href="structfiftyone_degrees_results_base.html" target="_top" xlink:title="Base results structure which any processing results should extend.">
<polygon fill="none" stroke="black" points="733,-81.5 733,-100.5 887,-100.5 887,-81.5 733,-81.5"/>
<text text-anchor="middle" x="810" y="-88.5" font-family="Helvetica,sans-Serif" font-size="10.00">fiftyoneDegreesResultsBase</text>
</a>
</g>
</g>
<!-- Node10&#45;&gt;Node1 -->
<g id="edge11" class="edge">
<title>Node10&#45;&gt;Node1</title>
<path fill="none" stroke="#9a32cd" stroke-dasharray="5,2" d="M867.07,-102.77C890.14,-108.03 917.03,-114.69 941,-122 957.07,-126.9 974.49,-133.23 989.39,-138.96"/>
<polygon fill="#9a32cd" stroke="#9a32cd" points="867.62,-99.31 857.1,-100.53 866.09,-106.14 867.62,-99.31"/>
<text text-anchor="middle" x="923" y="-125" font-family="Helvetica,sans-Serif" font-size="10.00"> b</text>
</g>
</g>
</svg>
