<?xml version="1.0" encoding="UTF-8" standalone="no"?>
<!DOCTYPE svg PUBLIC "-//W3C//DTD SVG 1.1//EN"
 "http://www.w3.org/Graphics/SVG/1.1/DTD/svg11.dtd">
<!-- Generated by graphviz version 2.43.0 (0)
 -->
<!-- Title: fiftyoneDegreesDataSetIpi Pages: 1 -->
<svg width="2275pt" height="910pt"
 viewBox="0.00 0.00 2275.00 909.50" xmlns="http://www.w3.org/2000/svg" xmlns:xlink="http://www.w3.org/1999/xlink">
<g id="graph0" class="graph" transform="scale(1 1) rotate(0) translate(4 905.5)">
<title>fiftyoneDegreesDataSetIpi</title>
<!-- Node1 -->
<g id="node1" class="node">
<title>Node1</title>
<g id="a_node1"><a xlink:title="Data set structure containing all the components used for IP intelligence.">
<polygon fill="#bfbfbf" stroke="black" points="2122,-474 2122,-493 2267,-493 2267,-474 2122,-474"/>
<text text-anchor="middle" x="2194.5" y="-481" font-family="Helvetica,sans-Serif" font-size="10.00">fiftyoneDegreesDataSetIpi</text>
</a>
</g>
</g>
<!-- Node2 -->
<g id="node2" class="node">
<title>Node2</title>
<g id="a_node2"><a xlink:href="structfiftyone_degrees_list.html" target="_top" xlink:title="List structure which contains a list of collection items.">
<polygon fill="none" stroke="black" points="704,-254 704,-273 815,-273 815,-254 704,-254"/>
<text text-anchor="middle" x="759.5" y="-261" font-family="Helvetica,sans-Serif" font-size="10.00">fiftyoneDegreesList</text>
</a>
</g>
</g>
<!-- Node2&#45;&gt;Node1 -->
<g id="edge1" class="edge">
<title>Node2&#45;&gt;Node1</title>
<path fill="none" stroke="#9a32cd" stroke-dasharray="5,2" d="M802.74,-251.28C872.53,-232.2 1016.55,-197.5 1141,-197.5 1141,-197.5 1141,-197.5 1939.5,-197.5 2090.91,-197.5 2174.1,-424.36 2190.48,-473.98"/>
<polygon fill="#9a32cd" stroke="#9a32cd" points="801.7,-247.93 793,-253.97 803.57,-254.68 801.7,-247.93"/>
<text text-anchor="middle" x="1496.5" y="-200.5" font-family="Helvetica,sans-Serif" font-size="10.00"> componentsList</text>
</g>
<!-- Node3 -->
<g id="node3" class="node">
<title>Node3</title>
<g id="a_node3"><a xlink:href="structfiftyone_degrees_collection_item.html" target="_top" xlink:title="Used to store a handle to the underlying item that could be used to release the item when it&#39;s finish...">
<polygon fill="none" stroke="black" points="185,-426 185,-445 350,-445 350,-426 185,-426"/>
<text text-anchor="middle" x="267.5" y="-433" font-family="Helvetica,sans-Serif" font-size="10.00">fiftyoneDegreesCollectionItem</text>
</a>
</g>
</g>
<!-- Node3&#45;&gt;Node2 -->
<g id="edge2" class="edge">
<title>Node3&#45;&gt;Node2</title>
<path fill="none" stroke="#9a32cd" stroke-dasharray="5,2" d="M300.99,-422.18C343.95,-404.72 422.17,-373.5 490,-349.5 574.67,-319.53 675.91,-288.34 726.47,-273.08"/>
<polygon fill="#9a32cd" stroke="#9a32cd" points="299.55,-418.98 291.61,-426 302.19,-425.47 299.55,-418.98"/>
<text text-anchor="middle" x="423.5" y="-394.5" font-family="Helvetica,sans-Serif" font-size="10.00"> items</text>
</g>
<!-- Node4 -->
<g id="node4" class="node">
<title>Node4</title>
<g id="a_node4"><a xlink:href="structfiftyone_degrees_collection.html" target="_top" xlink:title="All the shared methods and fields required by file, memory and cached collections.">
<polygon fill="none" stroke="black" points="688,-485 688,-504 831,-504 831,-485 688,-485"/>
<text text-anchor="middle" x="759.5" y="-492" font-family="Helvetica,sans-Serif" font-size="10.00">fiftyoneDegreesCollection</text>
</a>
</g>
</g>
<!-- Node3&#45;&gt;Node4 -->
<g id="edge4" class="edge">
<title>Node3&#45;&gt;Node4</title>
<path fill="none" stroke="#9a32cd" stroke-dasharray="5,2" d="M360.47,-442.71C395.43,-445.69 435.59,-449.41 472,-453.5 560.26,-463.42 582.13,-467.56 670,-480.5 679.54,-481.91 689.65,-483.45 699.5,-484.99"/>
<polygon fill="#9a32cd" stroke="#9a32cd" points="360.54,-439.2 350.28,-441.85 359.95,-446.18 360.54,-439.2"/>
<text text-anchor="middle" x="423.5" y="-456.5" font-family="Helvetica,sans-Serif" font-size="10.00"> release</text>
</g>
<!-- Node29 -->
<g id="node29" class="node">
<title>Node29</title>
<g id="a_node29"><a xlink:href="structfiftyone_degrees_property_available.html" target="_top" xlink:title="Used to access the property item quickly without the need to search.">
<polygon fill="none" stroke="black" points="490,-403 490,-422 670,-422 670,-403 490,-403"/>
<text text-anchor="middle" x="580" y="-410" font-family="Helvetica,sans-Serif" font-size="10.00">fiftyoneDegreesPropertyAvailable</text>
</a>
</g>
</g>
<!-- Node3&#45;&gt;Node29 -->
<g id="edge39" class="edge">
<title>Node3&#45;&gt;Node29</title>
<path fill="none" stroke="#9a32cd" stroke-dasharray="5,2" d="M338.46,-424.62C350.62,-423.03 363.16,-421.56 375,-420.5 412.51,-417.13 454.02,-415.18 489.76,-414.05"/>
<polygon fill="#9a32cd" stroke="#9a32cd" points="337.8,-421.18 328.36,-425.99 338.74,-428.12 337.8,-421.18"/>
<text text-anchor="middle" x="423.5" y="-423.5" font-family="Helvetica,sans-Serif" font-size="10.00"> name</text>
</g>
<!-- Node4&#45;&gt;Node1 -->
<g id="edge21" class="edge">
<title>Node4&#45;&gt;Node1</title>
<path fill="none" stroke="#9a32cd" stroke-dasharray="5,2" d="M841.57,-493.35C969.7,-491.58 1226.89,-488.21 1445,-486.5 1693.52,-484.55 1988.46,-483.84 2121.77,-483.6"/>
<polygon fill="#9a32cd" stroke="#9a32cd" points="841.4,-489.85 831.45,-493.49 841.49,-496.85 841.4,-489.85"/>
<text text-anchor="middle" x="1496.5" y="-599.5" font-family="Helvetica,sans-Serif" font-size="10.00"> profileOffsets</text>
<text text-anchor="middle" x="1496.5" y="-588.5" font-family="Helvetica,sans-Serif" font-size="10.00">values</text>
<text text-anchor="middle" x="1496.5" y="-577.5" font-family="Helvetica,sans-Serif" font-size="10.00">graphs</text>
<text text-anchor="middle" x="1496.5" y="-566.5" font-family="Helvetica,sans-Serif" font-size="10.00">profileGroups</text>
<text text-anchor="middle" x="1496.5" y="-555.5" font-family="Helvetica,sans-Serif" font-size="10.00">strings</text>
<text text-anchor="middle" x="1496.5" y="-544.5" font-family="Helvetica,sans-Serif" font-size="10.00">propertyTypes</text>
<text text-anchor="middle" x="1496.5" y="-533.5" font-family="Helvetica,sans-Serif" font-size="10.00">maps</text>
<text text-anchor="middle" x="1496.5" y="-522.5" font-family="Helvetica,sans-Serif" font-size="10.00">components</text>
<text text-anchor="middle" x="1496.5" y="-511.5" font-family="Helvetica,sans-Serif" font-size="10.00">properties</text>
<text text-anchor="middle" x="1496.5" y="-500.5" font-family="Helvetica,sans-Serif" font-size="10.00">profiles</text>
<text text-anchor="middle" x="1496.5" y="-489.5" font-family="Helvetica,sans-Serif" font-size="10.00">...</text>
</g>
<!-- Node4&#45;&gt;Node3 -->
<g id="edge3" class="edge">
<title>Node4&#45;&gt;Node3</title>
<path fill="none" stroke="#9a32cd" stroke-dasharray="5,2" d="M677.65,-494.46C599.57,-493.14 478.28,-487.73 375,-468.5 346.46,-463.19 314.8,-452.77 293.47,-445.05"/>
<polygon fill="#9a32cd" stroke="#9a32cd" points="677.85,-497.96 687.91,-494.61 677.96,-490.96 677.85,-497.96"/>
<text text-anchor="middle" x="423.5" y="-484.5" font-family="Helvetica,sans-Serif" font-size="10.00"> collection</text>
</g>
<!-- Node4&#45;&gt;Node4 -->
<g id="edge5" class="edge">
<title>Node4&#45;&gt;Node4</title>
<path fill="none" stroke="#9a32cd" stroke-dasharray="5,2" d="M726.14,-512.39C726.63,-518.04 737.75,-522.5 759.5,-522.5 791.14,-522.5 800.28,-513.07 786.93,-504.26"/>
<polygon fill="#9a32cd" stroke="#9a32cd" points="729.01,-514.4 732.07,-504.26 723.35,-510.28 729.01,-514.4"/>
<text text-anchor="middle" x="759.5" y="-536.5" font-family="Helvetica,sans-Serif" font-size="10.00"> freeCollection</text>
<text text-anchor="middle" x="759.5" y="-525.5" font-family="Helvetica,sans-Serif" font-size="10.00">get</text>
</g>
<!-- Node13 -->
<g id="node13" class="node">
<title>Node13</title>
<g id="a_node13"><a xlink:href="structfiftyone_degrees_ipi_cg.html" target="_top" xlink:title="The information and a working collection to retrieve entries from the component graph.">
<polygon fill="none" stroke="black" points="1597.5,-616 1597.5,-635 1716.5,-635 1716.5,-616 1597.5,-616"/>
<text text-anchor="middle" x="1657" y="-623" font-family="Helvetica,sans-Serif" font-size="10.00">fiftyoneDegreesIpiCg</text>
</a>
</g>
</g>
<!-- Node4&#45;&gt;Node13 -->
<g id="edge20" class="edge">
<title>Node4&#45;&gt;Node13</title>
<path fill="none" stroke="#9a32cd" stroke-dasharray="5,2" d="M816.43,-506.08C932.84,-529.72 1209.95,-583.69 1445,-611.5 1496.22,-617.56 1554.78,-621.19 1597.19,-623.22"/>
<polygon fill="#9a32cd" stroke="#9a32cd" points="816.83,-502.59 806.33,-504.02 815.43,-509.44 816.83,-502.59"/>
<text text-anchor="middle" x="1142" y="-616.5" font-family="Helvetica,sans-Serif" font-size="10.00"> clusters</text>
<text text-anchor="middle" x="1142" y="-605.5" font-family="Helvetica,sans-Serif" font-size="10.00">spanBytes</text>
<text text-anchor="middle" x="1142" y="-594.5" font-family="Helvetica,sans-Serif" font-size="10.00">spans</text>
<text text-anchor="middle" x="1142" y="-583.5" font-family="Helvetica,sans-Serif" font-size="10.00">nodes</text>
</g>
<!-- Node5 -->
<g id="node5" class="node">
<title>Node5</title>
<g id="a_node5"><a xlink:href="structfiftyone_degrees_data.html" target="_top" xlink:title="Data structure used for reusing memory which may have been allocated in a previous operation.">
<polygon fill="none" stroke="black" points="0,-426 0,-445 117,-445 117,-426 0,-426"/>
<text text-anchor="middle" x="58.5" y="-433" font-family="Helvetica,sans-Serif" font-size="10.00">fiftyoneDegreesData</text>
</a>
</g>
</g>
<!-- Node5&#45;&gt;Node3 -->
<g id="edge6" class="edge">
<title>Node5&#45;&gt;Node3</title>
<path fill="none" stroke="#9a32cd" stroke-dasharray="5,2" d="M127.19,-435.5C145.58,-435.5 165.7,-435.5 184.78,-435.5"/>
<polygon fill="#9a32cd" stroke="#9a32cd" points="127.16,-432 117.16,-435.5 127.16,-439 127.16,-432"/>
<text text-anchor="middle" x="147.5" y="-438.5" font-family="Helvetica,sans-Serif" font-size="10.00"> data</text>
</g>
<!-- Node6 -->
<g id="node6" class="node">
<title>Node6</title>
<g id="a_node6"><a xlink:href="structfiftyone_degrees_config_ipi.html" target="_top" xlink:title="IP Intelligence specific configuration structure.">
<polygon fill="none" stroke="black" points="1870,-150 1870,-169 2007,-169 2007,-150 1870,-150"/>
<text text-anchor="middle" x="1938.5" y="-157" font-family="Helvetica,sans-Serif" font-size="10.00">fiftyoneDegreesConfigIpi</text>
</a>
</g>
</g>
<!-- Node6&#45;&gt;Node1 -->
<g id="edge7" class="edge">
<title>Node6&#45;&gt;Node1</title>
<path fill="none" stroke="#9a32cd" stroke-dasharray="5,2" d="M1996.59,-148.92C2031.31,-145.84 2074.51,-148.42 2104,-172.5 2153.4,-212.83 2185.56,-426.17 2192.22,-473.98"/>
<polygon fill="#9a32cd" stroke="#9a32cd" points="1996.14,-145.45 1986.57,-149.99 1996.88,-152.41 1996.14,-145.45"/>
<text text-anchor="middle" x="2072.5" y="-175.5" font-family="Helvetica,sans-Serif" font-size="10.00"> config</text>
</g>
<!-- Node7 -->
<g id="node7" class="node">
<title>Node7</title>
<g id="a_node7"><a xlink:href="structfiftyone_degrees_collection_config.html" target="_top" xlink:title="Collection configuration structure which defines how the collection should be created by the create m...">
<polygon fill="none" stroke="black" points="1585.5,-0.5 1585.5,-30.5 1728.5,-30.5 1728.5,-0.5 1585.5,-0.5"/>
<text text-anchor="start" x="1593.5" y="-18.5" font-family="Helvetica,sans-Serif" font-size="10.00">fiftyoneDegreesCollection</text>
<text text-anchor="middle" x="1657" y="-7.5" font-family="Helvetica,sans-Serif" font-size="10.00">Config</text>
</a>
</g>
</g>
<!-- Node7&#45;&gt;Node6 -->
<g id="edge8" class="edge">
<title>Node7&#45;&gt;Node6</title>
<path fill="none" stroke="#9a32cd" stroke-dasharray="5,2" d="M1739.07,-11.19C1770.94,-12.71 1806.8,-18.64 1836,-34.5 1886.36,-61.85 1921.15,-125.55 1933.02,-149.85"/>
<polygon fill="#9a32cd" stroke="#9a32cd" points="1738.99,-7.69 1728.88,-10.84 1738.76,-14.68 1738.99,-7.69"/>
<text text-anchor="middle" x="1801" y="-147.5" font-family="Helvetica,sans-Serif" font-size="10.00"> profileOffsets</text>
<text text-anchor="middle" x="1801" y="-136.5" font-family="Helvetica,sans-Serif" font-size="10.00">values</text>
<text text-anchor="middle" x="1801" y="-125.5" font-family="Helvetica,sans-Serif" font-size="10.00">graphs</text>
<text text-anchor="middle" x="1801" y="-114.5" font-family="Helvetica,sans-Serif" font-size="10.00">profileGroups</text>
<text text-anchor="middle" x="1801" y="-103.5" font-family="Helvetica,sans-Serif" font-size="10.00">strings</text>
<text text-anchor="middle" x="1801" y="-92.5" font-family="Helvetica,sans-Serif" font-size="10.00">propertyTypes</text>
<text text-anchor="middle" x="1801" y="-81.5" font-family="Helvetica,sans-Serif" font-size="10.00">maps</text>
<text text-anchor="middle" x="1801" y="-70.5" font-family="Helvetica,sans-Serif" font-size="10.00">components</text>
<text text-anchor="middle" x="1801" y="-59.5" font-family="Helvetica,sans-Serif" font-size="10.00">graph</text>
<text text-anchor="middle" x="1801" y="-48.5" font-family="Helvetica,sans-Serif" font-size="10.00">properties</text>
<text text-anchor="middle" x="1801" y="-37.5" font-family="Helvetica,sans-Serif" font-size="10.00">...</text>
</g>
<!-- Node8 -->
<g id="node8" class="node">
<title>Node8</title>
<g id="a_node8"><a xlink:href="structfiftyone_degrees_config_base.html" target="_top" xlink:title="Base configuration structure containing common configuration options, and options that apply to struc...">
<polygon fill="none" stroke="black" points="1582.5,-150 1582.5,-169 1731.5,-169 1731.5,-150 1582.5,-150"/>
<text text-anchor="middle" x="1657" y="-157" font-family="Helvetica,sans-Serif" font-size="10.00">fiftyoneDegreesConfigBase</text>
</a>
</g>
</g>
<!-- Node8&#45;&gt;Node6 -->
<g id="edge9" class="edge">
<title>Node8&#45;&gt;Node6</title>
<path fill="none" stroke="#9a32cd" stroke-dasharray="5,2" d="M1742.03,-159.5C1782.96,-159.5 1831.52,-159.5 1870,-159.5"/>
<polygon fill="#9a32cd" stroke="#9a32cd" points="1741.8,-156 1731.8,-159.5 1741.8,-163 1741.8,-156"/>
<text text-anchor="middle" x="1801" y="-162.5" font-family="Helvetica,sans-Serif" font-size="10.00"> b</text>
</g>
<!-- Node9 -->
<g id="node9" class="node">
<title>Node9</title>
<g id="a_node9"><a xlink:href="structfiftyone_degrees_data_set_ipi_header.html" target="_top" xlink:title="DATA STRUCTURES.">
<polygon fill="none" stroke="black" points="869,-807.5 869,-837.5 1014,-837.5 1014,-807.5 869,-807.5"/>
<text text-anchor="start" x="877" y="-825.5" font-family="Helvetica,sans-Serif" font-size="10.00">fiftyoneDegreesDataSetIpi</text>
<text text-anchor="middle" x="941.5" y="-814.5" font-family="Helvetica,sans-Serif" font-size="10.00">Header</text>
</a>
</g>
</g>
<!-- Node9&#45;&gt;Node1 -->
<g id="edge10" class="edge">
<title>Node9&#45;&gt;Node1</title>
<path fill="none" stroke="#9a32cd" stroke-dasharray="5,2" d="M1024.19,-818.24C1104.05,-814.45 1229.1,-809.5 1337.5,-809.5 1337.5,-809.5 1337.5,-809.5 1939.5,-809.5 2104.16,-809.5 2177.73,-547.5 2191.19,-493.26"/>
<polygon fill="#9a32cd" stroke="#9a32cd" points="1024.02,-814.75 1014.19,-818.72 1024.35,-821.74 1024.02,-814.75"/>
<text text-anchor="middle" x="1657" y="-812.5" font-family="Helvetica,sans-Serif" font-size="10.00"> header</text>
</g>
<!-- Node10 -->
<g id="node10" class="node">
<title>Node10</title>
<g id="a_node10"><a xlink:href="structfiftyone_degrees_date.html" target="_top" xlink:title="Used to store the date when the dataset was produced and next date 51Degrees expect to provide a new ...">
<polygon fill="none" stroke="black" points="521.5,-874 521.5,-893 638.5,-893 638.5,-874 521.5,-874"/>
<text text-anchor="middle" x="580" y="-881" font-family="Helvetica,sans-Serif" font-size="10.00">fiftyoneDegreesDate</text>
</a>
</g>
</g>
<!-- Node10&#45;&gt;Node9 -->
<g id="edge11" class="edge">
<title>Node10&#45;&gt;Node9</title>
<path fill="none" stroke="#9a32cd" stroke-dasharray="5,2" d="M648.9,-882.18C699.58,-880.07 770.27,-874.76 831,-861.5 856.43,-855.95 884.04,-846.09 905.17,-837.67"/>
<polygon fill="#9a32cd" stroke="#9a32cd" points="648.58,-878.69 638.72,-882.57 648.84,-885.68 648.58,-878.69"/>
<text text-anchor="middle" x="759.5" y="-893.5" font-family="Helvetica,sans-Serif" font-size="10.00"> nextUpdate</text>
<text text-anchor="middle" x="759.5" y="-882.5" font-family="Helvetica,sans-Serif" font-size="10.00">published</text>
</g>
<!-- Node11 -->
<g id="node11" class="node">
<title>Node11</title>
<g id="a_node11"><a xlink:href="structfiftyone_degrees_collection_header.html" target="_top" xlink:title="Collection header structure which defines the size and location of the collection data.">
<polygon fill="none" stroke="black" points="508.5,-691.5 508.5,-721.5 651.5,-721.5 651.5,-691.5 508.5,-691.5"/>
<text text-anchor="start" x="516.5" y="-709.5" font-family="Helvetica,sans-Serif" font-size="10.00">fiftyoneDegreesCollection</text>
<text text-anchor="middle" x="580" y="-698.5" font-family="Helvetica,sans-Serif" font-size="10.00">Header</text>
</a>
</g>
</g>
<!-- Node11&#45;&gt;Node9 -->
<g id="edge12" class="edge">
<title>Node11&#45;&gt;Node9</title>
<path fill="none" stroke="#9a32cd" stroke-dasharray="5,2" d="M661.65,-715.12C733.46,-722.96 827.71,-733.71 831,-736.5 852.87,-755.07 828.45,-778.48 849,-798.5 854.65,-804 861.39,-808.28 868.63,-811.61"/>
<polygon fill="#9a32cd" stroke="#9a32cd" points="662,-711.64 651.68,-714.04 661.24,-718.6 662,-711.64"/>
<text text-anchor="middle" x="759.5" y="-849.5" font-family="Helvetica,sans-Serif" font-size="10.00"> profileOffsets</text>
<text text-anchor="middle" x="759.5" y="-838.5" font-family="Helvetica,sans-Serif" font-size="10.00">values</text>
<text text-anchor="middle" x="759.5" y="-827.5" font-family="Helvetica,sans-Serif" font-size="10.00">graphs</text>
<text text-anchor="middle" x="759.5" y="-816.5" font-family="Helvetica,sans-Serif" font-size="10.00">profileGroups</text>
<text text-anchor="middle" x="759.5" y="-805.5" font-family="Helvetica,sans-Serif" font-size="10.00">strings</text>
<text text-anchor="middle" x="759.5" y="-794.5" font-family="Helvetica,sans-Serif" font-size="10.00">propertyTypes</text>
<text text-anchor="middle" x="759.5" y="-783.5" font-family="Helvetica,sans-Serif" font-size="10.00">maps</text>
<text text-anchor="middle" x="759.5" y="-772.5" font-family="Helvetica,sans-Serif" font-size="10.00">components</text>
<text text-anchor="middle" x="759.5" y="-761.5" font-family="Helvetica,sans-Serif" font-size="10.00">properties</text>
<text text-anchor="middle" x="759.5" y="-750.5" font-family="Helvetica,sans-Serif" font-size="10.00">profiles</text>
<text text-anchor="middle" x="759.5" y="-739.5" font-family="Helvetica,sans-Serif" font-size="10.00">...</text>
</g>
<!-- Node14 -->
<g id="node14" class="node">
<title>Node14</title>
<g id="a_node14"><a xlink:href="structfiftyone_degrees_ipi_cg_info.html" target="_top" xlink:title="Fixed width record in the collection where the record relates to a component and IP version.">
<polygon fill="none" stroke="black" points="1270,-671 1270,-690 1407,-690 1407,-671 1270,-671"/>
<text text-anchor="middle" x="1338.5" y="-678" font-family="Helvetica,sans-Serif" font-size="10.00">fiftyoneDegreesIpiCgInfo</text>
</a>
</g>
</g>
<!-- Node11&#45;&gt;Node14 -->
<g id="edge19" class="edge">
<title>Node11&#45;&gt;Node14</title>
<path fill="none" stroke="#9a32cd" stroke-dasharray="5,2" d="M661.96,-705.92C785.14,-704.69 1026.95,-700.91 1232,-689.5 1244.21,-688.82 1257.19,-687.89 1269.72,-686.88"/>
<polygon fill="#9a32cd" stroke="#9a32cd" points="661.83,-702.42 651.86,-706.02 661.89,-709.42 661.83,-702.42"/>
<text text-anchor="middle" x="941.5" y="-727.5" font-family="Helvetica,sans-Serif" font-size="10.00"> clusters</text>
<text text-anchor="middle" x="941.5" y="-716.5" font-family="Helvetica,sans-Serif" font-size="10.00">spanBytes</text>
<text text-anchor="middle" x="941.5" y="-705.5" font-family="Helvetica,sans-Serif" font-size="10.00">spans</text>
</g>
<!-- Node15 -->
<g id="node15" class="node">
<title>Node15</title>
<g id="a_node15"><a xlink:href="structfiftyone_degrees_ipi_cg_member_node.html" target="_top" xlink:title="Data structure used for the values collection.">
<polygon fill="none" stroke="black" points="849,-651 849,-670 1034,-670 1034,-651 849,-651"/>
<text text-anchor="middle" x="941.5" y="-658" font-family="Helvetica,sans-Serif" font-size="10.00">fiftyoneDegreesIpiCgMemberNode</text>
</a>
</g>
</g>
<!-- Node11&#45;&gt;Node15 -->
<g id="edge18" class="edge">
<title>Node11&#45;&gt;Node15</title>
<path fill="none" stroke="#9a32cd" stroke-dasharray="5,2" d="M648.33,-689.19C661.42,-686.27 675.09,-683.53 688,-681.5 741.01,-673.15 800.84,-667.99 848.95,-664.87"/>
<polygon fill="#9a32cd" stroke="#9a32cd" points="647.42,-685.81 638.45,-691.45 648.98,-692.63 647.42,-685.81"/>
<text text-anchor="middle" x="759.5" y="-684.5" font-family="Helvetica,sans-Serif" font-size="10.00"> collection</text>
</g>
<!-- Node12 -->
<g id="node12" class="node">
<title>Node12</title>
<g id="a_node12"><a xlink:href="structfiftyone_degrees_ipi_cg_array.html" target="_top" xlink:title="An array of all the component graphs and collections available.">
<polygon fill="none" stroke="black" points="1866,-577 1866,-596 2011,-596 2011,-577 1866,-577"/>
<text text-anchor="middle" x="1938.5" y="-584" font-family="Helvetica,sans-Serif" font-size="10.00">fiftyoneDegreesIpiCgArray</text>
</a>
</g>
</g>
<!-- Node12&#45;&gt;Node1 -->
<g id="edge13" class="edge">
<title>Node12&#45;&gt;Node1</title>
<path fill="none" stroke="#9a32cd" stroke-dasharray="5,2" d="M1972.36,-573.18C2024.3,-552.11 2124.15,-511.62 2169.75,-493.13"/>
<polygon fill="#9a32cd" stroke="#9a32cd" points="1970.89,-569.99 1962.94,-576.99 1973.52,-576.48 1970.89,-569.99"/>
<text text-anchor="middle" x="2072.5" y="-546.5" font-family="Helvetica,sans-Serif" font-size="10.00"> graphsArray</text>
</g>
<!-- Node13&#45;&gt;Node12 -->
<g id="edge14" class="edge">
<title>Node13&#45;&gt;Node12</title>
<path fill="none" stroke="#9a32cd" stroke-dasharray="5,2" d="M1726.51,-615.94C1769.98,-609.88 1826,-602.06 1869.39,-596"/>
<polygon fill="#9a32cd" stroke="#9a32cd" points="1726.01,-612.48 1716.59,-617.32 1726.98,-619.41 1726.01,-612.48"/>
<text text-anchor="middle" x="1801" y="-611.5" font-family="Helvetica,sans-Serif" font-size="10.00"> items</text>
</g>
<!-- Node14&#45;&gt;Node13 -->
<g id="edge15" class="edge">
<title>Node14&#45;&gt;Node13</title>
<path fill="none" stroke="#9a32cd" stroke-dasharray="5,2" d="M1404.42,-669.22C1462.4,-659.14 1546.4,-644.55 1601.11,-635.04"/>
<polygon fill="#9a32cd" stroke="#9a32cd" points="1403.52,-665.82 1394.27,-670.98 1404.72,-672.72 1403.52,-665.82"/>
<text text-anchor="middle" x="1496.5" y="-663.5" font-family="Helvetica,sans-Serif" font-size="10.00"> info</text>
</g>
<!-- Node15&#45;&gt;Node14 -->
<g id="edge16" class="edge">
<title>Node15&#45;&gt;Node14</title>
<path fill="none" stroke="#9a32cd" stroke-dasharray="5,2" d="M1044.41,-665.66C1115.31,-669.25 1207.87,-673.94 1269.82,-677.07"/>
<polygon fill="#9a32cd" stroke="#9a32cd" points="1044.28,-662.15 1034.11,-665.14 1043.92,-669.14 1044.28,-662.15"/>
<text text-anchor="middle" x="1142" y="-677.5" font-family="Helvetica,sans-Serif" font-size="10.00"> nodes</text>
</g>
<!-- Node16 -->
<g id="node16" class="node">
<title>Node16</title>
<g id="a_node16"><a xlink:href="structfiftyone_degrees_ipi_cg_member.html" target="_top" xlink:title="DATA STRUCTURES.">
<polygon fill="none" stroke="black" points="500.5,-615 500.5,-634 659.5,-634 659.5,-615 500.5,-615"/>
<text text-anchor="middle" x="580" y="-622" font-family="Helvetica,sans-Serif" font-size="10.00">fiftyoneDegreesIpiCgMember</text>
</a>
</g>
</g>
<!-- Node16&#45;&gt;Node15 -->
<g id="edge17" class="edge">
<title>Node16&#45;&gt;Node15</title>
<path fill="none" stroke="#9a32cd" stroke-dasharray="5,2" d="M669.8,-618.31C717.81,-616.61 777.97,-617.12 831,-625.5 861.75,-630.36 895.69,-642.29 917.51,-650.87"/>
<polygon fill="#9a32cd" stroke="#9a32cd" points="669.6,-614.82 659.75,-618.71 669.88,-621.81 669.6,-614.82"/>
<text text-anchor="middle" x="759.5" y="-650.5" font-family="Helvetica,sans-Serif" font-size="10.00"> spanIndex</text>
<text text-anchor="middle" x="759.5" y="-639.5" font-family="Helvetica,sans-Serif" font-size="10.00">lowFlag</text>
<text text-anchor="middle" x="759.5" y="-628.5" font-family="Helvetica,sans-Serif" font-size="10.00">value</text>
</g>
<!-- Node17 -->
<g id="node17" class="node">
<title>Node17</title>
<g id="a_node17"><a xlink:href="structfiftyone_degrees_data_set_ipi_base.html" target="_top" xlink:title="Data set structure which contains the base dataset structure.">
<polygon fill="none" stroke="black" points="1854,-427 1854,-446 2023,-446 2023,-427 1854,-427"/>
<text text-anchor="middle" x="1938.5" y="-434" font-family="Helvetica,sans-Serif" font-size="10.00">fiftyoneDegreesDataSetIpiBase</text>
</a>
</g>
</g>
<!-- Node17&#45;&gt;Node1 -->
<g id="edge22" class="edge">
<title>Node17&#45;&gt;Node1</title>
<path fill="none" stroke="#9a32cd" stroke-dasharray="5,2" d="M2009.14,-447.71C2038.47,-452.6 2072.95,-458.56 2104,-464.5 2119.13,-467.39 2135.65,-470.82 2150.33,-473.96"/>
<polygon fill="#9a32cd" stroke="#9a32cd" points="2009.43,-444.21 1999,-446.03 2008.29,-451.12 2009.43,-444.21"/>
<text text-anchor="middle" x="2072.5" y="-467.5" font-family="Helvetica,sans-Serif" font-size="10.00"> b</text>
</g>
<!-- Node18 -->
<g id="node18" class="node">
<title>Node18</title>
<g id="a_node18"><a xlink:href="structfiftyone_degrees_data_set_base.html" target="_top" xlink:title="Base data set structure which contains the &#39;must have&#39;s for all data sets.">
<polygon fill="none" stroke="black" points="1578.5,-395 1578.5,-414 1735.5,-414 1735.5,-395 1578.5,-395"/>
<text text-anchor="middle" x="1657" y="-402" font-family="Helvetica,sans-Serif" font-size="10.00">fiftyoneDegreesDataSetBase</text>
</a>
</g>
</g>
<!-- Node18&#45;&gt;Node17 -->
<g id="edge23" class="edge">
<title>Node18&#45;&gt;Node17</title>
<path fill="none" stroke="#9a32cd" stroke-dasharray="5,2" d="M1745.95,-414.57C1780.54,-418.53 1820.07,-423.06 1854.2,-426.96"/>
<polygon fill="#9a32cd" stroke="#9a32cd" points="1746.19,-411.07 1735.86,-413.41 1745.39,-418.03 1746.19,-411.07"/>
<text text-anchor="middle" x="1801" y="-426.5" font-family="Helvetica,sans-Serif" font-size="10.00"> b</text>
</g>
<!-- Node19 -->
<g id="node19" class="node">
<title>Node19</title>
<g id="a_node19"><a xlink:href="structfiftyone_degrees_header_array.html" target="_top" xlink:title="Array of Headers which should always be ordered in ascending order of fullHeaderId.">
<polygon fill="none" stroke="black" points="1261,-302 1261,-321 1416,-321 1416,-302 1261,-302"/>
<text text-anchor="middle" x="1338.5" y="-309" font-family="Helvetica,sans-Serif" font-size="10.00">fiftyoneDegreesHeaderArray</text>
</a>
</g>
</g>
<!-- Node19&#45;&gt;Node18 -->
<g id="edge24" class="edge">
<title>Node19&#45;&gt;Node18</title>
<path fill="none" stroke="#9a32cd" stroke-dasharray="5,2" d="M1406.88,-322.94C1448.15,-330.78 1501.75,-342.49 1548,-357.5 1580.09,-367.91 1615.68,-384.43 1636.93,-394.85"/>
<polygon fill="#9a32cd" stroke="#9a32cd" points="1407.4,-319.48 1396.93,-321.08 1406.11,-326.36 1407.4,-319.48"/>
<text text-anchor="middle" x="1496.5" y="-360.5" font-family="Helvetica,sans-Serif" font-size="10.00"> uniqueHeaders</text>
</g>
<!-- Node20 -->
<g id="node20" class="node">
<title>Node20</title>
<g id="a_node20"><a xlink:href="structfiftyone_degrees_resource_handle.html" target="_top" xlink:title="Handle for a shared resource.">
<polygon fill="none" stroke="black" points="1252,-750 1252,-769 1425,-769 1425,-750 1252,-750"/>
<text text-anchor="middle" x="1338.5" y="-757" font-family="Helvetica,sans-Serif" font-size="10.00">fiftyoneDegreesResourceHandle</text>
</a>
</g>
</g>
<!-- Node20&#45;&gt;Node18 -->
<g id="edge25" class="edge">
<title>Node20&#45;&gt;Node18</title>
<path fill="none" stroke="#9a32cd" stroke-dasharray="5,2" d="M1382.92,-747.06C1437.15,-730.69 1525.55,-701.02 1548,-675.5 1568.93,-651.7 1555.52,-636.41 1566,-606.5 1592.67,-530.41 1636.15,-443.23 1650.91,-414.35"/>
<polygon fill="#9a32cd" stroke="#9a32cd" points="1381.8,-743.74 1373.22,-749.95 1383.8,-750.45 1381.8,-743.74"/>
<text text-anchor="middle" x="1496.5" y="-728.5" font-family="Helvetica,sans-Serif" font-size="10.00"> handle</text>
</g>
<!-- Node21 -->
<g id="node21" class="node">
<title>Node21</title>
<g id="a_node21"><a xlink:href="structfiftyone_degrees_resource_manager.html" target="_top" xlink:title="Manager structure used to provide access to a shared and changing resource.">
<polygon fill="none" stroke="black" points="1566,-747 1566,-766 1748,-766 1748,-747 1566,-747"/>
<text text-anchor="middle" x="1657" y="-754" font-family="Helvetica,sans-Serif" font-size="10.00">fiftyoneDegreesResourceManager</text>
</a>
</g>
</g>
<!-- Node20&#45;&gt;Node21 -->
<g id="edge27" class="edge">
<title>Node20&#45;&gt;Node21</title>
<path fill="none" stroke="#9a32cd" stroke-dasharray="5,2" d="M1416.85,-748.87C1426.32,-747.89 1435.87,-747.06 1445,-746.5 1490.69,-743.7 1502.27,-744.39 1548,-746.5 1553.83,-746.77 1559.83,-747.12 1565.88,-747.53"/>
<polygon fill="#9a32cd" stroke="#9a32cd" points="1416.2,-745.42 1406.64,-749.98 1416.96,-752.38 1416.2,-745.42"/>
<text text-anchor="middle" x="1496.5" y="-749.5" font-family="Helvetica,sans-Serif" font-size="10.00"> active</text>
</g>
<!-- Node21&#45;&gt;Node20 -->
<g id="edge26" class="edge">
<title>Node21&#45;&gt;Node20</title>
<path fill="none" stroke="#9a32cd" stroke-dasharray="5,2" d="M1555.72,-759.38C1553.12,-759.42 1550.54,-759.46 1548,-759.5 1507.64,-760.06 1462.89,-760.13 1425.22,-760.04"/>
<polygon fill="#9a32cd" stroke="#9a32cd" points="1555.91,-762.88 1565.84,-759.19 1555.78,-755.88 1555.91,-762.88"/>
<text text-anchor="middle" x="1496.5" y="-762.5" font-family="Helvetica,sans-Serif" font-size="10.00"> manager</text>
</g>
<!-- Node22 -->
<g id="node22" class="node">
<title>Node22</title>
<g id="a_node22"><a xlink:href="structfiftyone_degrees_interlock_double_width.html" target="_top" xlink:title="Double width (64 or 128 depending on the architecture) compare and exchange.">
<polygon fill="none" stroke="black" points="873,-758.5 873,-788.5 1010,-788.5 1010,-758.5 873,-758.5"/>
<text text-anchor="start" x="881" y="-776.5" font-family="Helvetica,sans-Serif" font-size="10.00">fiftyoneDegreesInterlock</text>
<text text-anchor="middle" x="941.5" y="-765.5" font-family="Helvetica,sans-Serif" font-size="10.00">DoubleWidth</text>
</a>
</g>
</g>
<!-- Node22&#45;&gt;Node20 -->
<g id="edge28" class="edge">
<title>Node22&#45;&gt;Node20</title>
<path fill="none" stroke="#9a32cd" stroke-dasharray="5,2" d="M1020.44,-770.74C1087.16,-768.37 1183.06,-764.97 1251.9,-762.53"/>
<polygon fill="#9a32cd" stroke="#9a32cd" points="1020.27,-767.24 1010.4,-771.09 1020.52,-774.24 1020.27,-767.24"/>
<text text-anchor="middle" x="1142" y="-771.5" font-family="Helvetica,sans-Serif" font-size="10.00"> counter</text>
</g>
<!-- Node23 -->
<g id="node23" class="node">
<title>Node23</title>
<g id="a_node23"><a xlink:href="structfiftyone_degrees_file_pool.html" target="_top" xlink:title="Stack of handles used to read data from a single source file.">
<polygon fill="none" stroke="black" points="1272.5,-226 1272.5,-245 1404.5,-245 1404.5,-226 1272.5,-226"/>
<text text-anchor="middle" x="1338.5" y="-233" font-family="Helvetica,sans-Serif" font-size="10.00">fiftyoneDegreesFilePool</text>
</a>
</g>
</g>
<!-- Node23&#45;&gt;Node18 -->
<g id="edge29" class="edge">
<title>Node23&#45;&gt;Node18</title>
<path fill="none" stroke="#9a32cd" stroke-dasharray="5,2" d="M1403.5,-247.42C1411.5,-249.49 1419.5,-251.84 1427,-254.5 1483.77,-274.61 1497.56,-282.59 1548,-315.5 1586.66,-340.72 1627.43,-377.53 1645.88,-394.83"/>
<polygon fill="#9a32cd" stroke="#9a32cd" points="1404.32,-244.02 1393.78,-245.05 1402.66,-250.82 1404.32,-244.02"/>
<text text-anchor="middle" x="1496.5" y="-318.5" font-family="Helvetica,sans-Serif" font-size="10.00"> filePool</text>
</g>
<!-- Node24 -->
<g id="node24" class="node">
<title>Node24</title>
<g id="a_node24"><a xlink:href="structfiftyone_degrees_pool.html" target="_top" xlink:title="Pool of resources stored as items in a stack.">
<polygon fill="none" stroke="black" points="884,-280 884,-299 999,-299 999,-280 884,-280"/>
<text text-anchor="middle" x="941.5" y="-287" font-family="Helvetica,sans-Serif" font-size="10.00">fiftyoneDegreesPool</text>
</a>
</g>
</g>
<!-- Node24&#45;&gt;Node23 -->
<g id="edge30" class="edge">
<title>Node24&#45;&gt;Node23</title>
<path fill="none" stroke="#9a32cd" stroke-dasharray="5,2" d="M975.55,-276.19C996.98,-268.17 1025.71,-258.56 1052,-253.5 1126.61,-239.13 1214.02,-235.5 1272.28,-234.92"/>
<polygon fill="#9a32cd" stroke="#9a32cd" points="974.05,-273.01 965.96,-279.85 976.55,-279.55 974.05,-273.01"/>
<text text-anchor="middle" x="1142" y="-256.5" font-family="Helvetica,sans-Serif" font-size="10.00"> pool</text>
</g>
<!-- Node24&#45;&gt;Node24 -->
<g id="edge31" class="edge">
<title>Node24&#45;&gt;Node24</title>
<path fill="none" stroke="#9a32cd" stroke-dasharray="5,2" d="M907.39,-307.39C907.89,-313.04 919.26,-317.5 941.5,-317.5 973.85,-317.5 983.2,-308.07 969.55,-299.26"/>
<polygon fill="#9a32cd" stroke="#9a32cd" points="910.28,-309.37 913.45,-299.26 904.67,-305.19 910.28,-309.37"/>
<text text-anchor="middle" x="941.5" y="-320.5" font-family="Helvetica,sans-Serif" font-size="10.00"> resourceFree</text>
</g>
<!-- Node26 -->
<g id="node26" class="node">
<title>Node26</title>
<g id="a_node26"><a xlink:href="structfiftyone_degrees_pool_item.html" target="_top" xlink:title="Pool item node in the stack of items.">
<polygon fill="none" stroke="black" points="1270,-264 1270,-283 1407,-283 1407,-264 1270,-264"/>
<text text-anchor="middle" x="1338.5" y="-271" font-family="Helvetica,sans-Serif" font-size="10.00">fiftyoneDegreesPoolItem</text>
</a>
</g>
</g>
<!-- Node24&#45;&gt;Node26 -->
<g id="edge34" class="edge">
<title>Node24&#45;&gt;Node26</title>
<path fill="none" stroke="#9a32cd" stroke-dasharray="5,2" d="M1009.39,-289.99C1068.11,-290.02 1155.79,-289.12 1232,-284.5 1244.22,-283.76 1257.22,-282.66 1269.75,-281.44"/>
<polygon fill="#9a32cd" stroke="#9a32cd" points="1009.14,-286.49 999.14,-289.97 1009.13,-293.49 1009.14,-286.49"/>
<text text-anchor="middle" x="1142" y="-292.5" font-family="Helvetica,sans-Serif" font-size="10.00"> pool</text>
</g>
<!-- Node25 -->
<g id="node25" class="node">
<title>Node25</title>
<g id="a_node25"><a xlink:href="unionfiftyone_degrees_pool_head.html" target="_top" xlink:title="The head of the stack used for pop and push operations.">
<polygon fill="none" stroke="black" points="510,-359 510,-378 650,-378 650,-359 510,-359"/>
<text text-anchor="middle" x="580" y="-366" font-family="Helvetica,sans-Serif" font-size="10.00">fiftyoneDegreesPoolHead</text>
</a>
</g>
</g>
<!-- Node25&#45;&gt;Node24 -->
<g id="edge32" class="edge">
<title>Node25&#45;&gt;Node24</title>
<path fill="none" stroke="#9a32cd" stroke-dasharray="5,2" d="M634.51,-356.74C706.03,-341.02 831.39,-313.48 897.26,-299"/>
<polygon fill="#9a32cd" stroke="#9a32cd" points="633.38,-353.41 624.36,-358.97 634.88,-360.24 633.38,-353.41"/>
<text text-anchor="middle" x="759.5" y="-345.5" font-family="Helvetica,sans-Serif" font-size="10.00"> head</text>
</g>
<!-- Node26&#45;&gt;Node24 -->
<g id="edge33" class="edge">
<title>Node26&#45;&gt;Node24</title>
<path fill="none" stroke="#9a32cd" stroke-dasharray="5,2" d="M1259.81,-270.46C1202.34,-268.96 1122.19,-268.4 1052,-273.5 1033.99,-274.81 1014.44,-277.31 996.91,-279.96"/>
<polygon fill="#9a32cd" stroke="#9a32cd" points="1259.82,-273.97 1269.91,-270.75 1260.01,-266.97 1259.82,-273.97"/>
<text text-anchor="middle" x="1142" y="-276.5" font-family="Helvetica,sans-Serif" font-size="10.00"> stack</text>
</g>
<!-- Node27 -->
<g id="node27" class="node">
<title>Node27</title>
<g id="a_node27"><a xlink:href="structfiftyone_degrees_override_property_array.html" target="_top" xlink:title="Array of items of type fiftyoneDegreesOverrideProperty used to easily access and track the size of th...">
<polygon fill="none" stroke="black" points="1250,-389.5 1250,-419.5 1427,-419.5 1427,-389.5 1250,-389.5"/>
<text text-anchor="start" x="1258" y="-407.5" font-family="Helvetica,sans-Serif" font-size="10.00">fiftyoneDegreesOverrideProperty</text>
<text text-anchor="middle" x="1338.5" y="-396.5" font-family="Helvetica,sans-Serif" font-size="10.00">Array</text>
</a>
</g>
</g>
<!-- Node27&#45;&gt;Node18 -->
<g id="edge35" class="edge">
<title>Node27&#45;&gt;Node18</title>
<path fill="none" stroke="#9a32cd" stroke-dasharray="5,2" d="M1437.39,-404.5C1482.72,-404.5 1535.82,-404.5 1578.34,-404.5"/>
<polygon fill="#9a32cd" stroke="#9a32cd" points="1437.24,-401 1427.24,-404.5 1437.24,-408 1437.24,-401"/>
<text text-anchor="middle" x="1496.5" y="-407.5" font-family="Helvetica,sans-Serif" font-size="10.00"> overridable</text>
</g>
<!-- Node28 -->
<g id="node28" class="node">
<title>Node28</title>
<g id="a_node28"><a xlink:href="structfiftyone_degrees_override_property.html" target="_top" xlink:title="Index and pointer to a property which can be overridden.">
<polygon fill="none" stroke="black" points="853,-395 853,-414 1030,-414 1030,-395 853,-395"/>
<text text-anchor="middle" x="941.5" y="-402" font-family="Helvetica,sans-Serif" font-size="10.00">fiftyoneDegreesOverrideProperty</text>
</a>
</g>
</g>
<!-- Node28&#45;&gt;Node27 -->
<g id="edge36" class="edge">
<title>Node28&#45;&gt;Node27</title>
<path fill="none" stroke="#9a32cd" stroke-dasharray="5,2" d="M1040.29,-404.5C1104.47,-404.5 1187.69,-404.5 1249.74,-404.5"/>
<polygon fill="#9a32cd" stroke="#9a32cd" points="1040.16,-401 1030.16,-404.5 1040.16,-408 1040.16,-401"/>
<text text-anchor="middle" x="1142" y="-407.5" font-family="Helvetica,sans-Serif" font-size="10.00"> items</text>
</g>
<!-- Node29&#45;&gt;Node28 -->
<g id="edge37" class="edge">
<title>Node29&#45;&gt;Node28</title>
<path fill="none" stroke="#9a32cd" stroke-dasharray="5,2" d="M680.62,-410.28C734.65,-409.08 800.82,-407.61 852.88,-406.45"/>
<polygon fill="#9a32cd" stroke="#9a32cd" points="680.25,-406.79 670.33,-410.51 680.4,-413.79 680.25,-406.79"/>
<text text-anchor="middle" x="759.5" y="-412.5" font-family="Helvetica,sans-Serif" font-size="10.00"> available</text>
</g>
<!-- Node32 -->
<g id="node32" class="node">
<title>Node32</title>
<g id="a_node32"><a xlink:href="structfiftyone_degrees_property_available_array.html" target="_top" xlink:title="Array of items of type fiftyoneDegreesPropertyAvailable used to easily access and track the size of t...">
<polygon fill="none" stroke="black" points="1052,-434.5 1052,-464.5 1232,-464.5 1232,-434.5 1052,-434.5"/>
<text text-anchor="start" x="1060" y="-452.5" font-family="Helvetica,sans-Serif" font-size="10.00">fiftyoneDegreesPropertyAvailable</text>
<text text-anchor="middle" x="1142" y="-441.5" font-family="Helvetica,sans-Serif" font-size="10.00">Array</text>
</a>
</g>
</g>
<!-- Node29&#45;&gt;Node32 -->
<g id="edge42" class="edge">
<title>Node29&#45;&gt;Node32</title>
<path fill="none" stroke="#9a32cd" stroke-dasharray="5,2" d="M671.41,-423C677.02,-423.54 682.59,-424.05 688,-424.5 814.18,-435.05 960.51,-442.21 1051.93,-446.07"/>
<polygon fill="#9a32cd" stroke="#9a32cd" points="671.58,-419.5 661.29,-422 670.89,-426.47 671.58,-419.5"/>
<text text-anchor="middle" x="759.5" y="-437.5" font-family="Helvetica,sans-Serif" font-size="10.00"> items</text>
</g>
<!-- Node30 -->
<g id="node30" class="node">
<title>Node30</title>
<g id="a_node30"><a xlink:href="structfiftyone_degrees_evidence_property_index_array.html" target="_top" xlink:title="Array of items of type fiftyoneDegreesEvidencePropertyIndex used to easily access and track the size ...">
<polygon fill="none" stroke="black" points="178,-281.5 178,-311.5 357,-311.5 357,-281.5 178,-281.5"/>
<text text-anchor="start" x="186" y="-299.5" font-family="Helvetica,sans-Serif" font-size="10.00">fiftyoneDegreesEvidenceProperty</text>
<text text-anchor="middle" x="267.5" y="-288.5" font-family="Helvetica,sans-Serif" font-size="10.00">IndexArray</text>
</a>
</g>
</g>
<!-- Node30&#45;&gt;Node29 -->
<g id="edge38" class="edge">
<title>Node30&#45;&gt;Node29</title>
<path fill="none" stroke="#9a32cd" stroke-dasharray="5,2" d="M325.21,-279.09C370.08,-269.1 431.69,-264.29 472,-297.5 503.48,-323.44 462.28,-357.57 490,-387.5 496.22,-394.21 504.08,-399.17 512.54,-402.83"/>
<polygon fill="#9a32cd" stroke="#9a32cd" points="324.26,-275.72 315.34,-281.44 325.87,-282.53 324.26,-275.72"/>
<text text-anchor="middle" x="423.5" y="-300.5" font-family="Helvetica,sans-Serif" font-size="10.00"> evidenceProperties</text>
</g>
<!-- Node31 -->
<g id="node31" class="node">
<title>Node31</title>
<g id="a_node31"><a xlink:href="structfiftyone_degrees_indices_property_profile.html" target="_top" xlink:title="Maps the profile index and the property index to the first value index of the profile for the propert...">
<polygon fill="none" stroke="black" points="1253.5,-340.5 1253.5,-370.5 1423.5,-370.5 1423.5,-340.5 1253.5,-340.5"/>
<text text-anchor="start" x="1261.5" y="-358.5" font-family="Helvetica,sans-Serif" font-size="10.00">fiftyoneDegreesIndicesProperty</text>
<text text-anchor="middle" x="1338.5" y="-347.5" font-family="Helvetica,sans-Serif" font-size="10.00">Profile</text>
</a>
</g>
</g>
<!-- Node31&#45;&gt;Node18 -->
<g id="edge40" class="edge">
<title>Node31&#45;&gt;Node18</title>
<path fill="none" stroke="#9a32cd" stroke-dasharray="5,2" d="M1433.8,-370.1C1485.75,-378.14 1548.75,-387.9 1594.38,-394.96"/>
<polygon fill="#9a32cd" stroke="#9a32cd" points="1434.32,-366.64 1423.9,-368.57 1433.25,-373.56 1434.32,-366.64"/>
<text text-anchor="middle" x="1496.5" y="-389.5" font-family="Helvetica,sans-Serif" font-size="10.00"> indexPropertyProfile</text>
</g>
<!-- Node32&#45;&gt;Node18 -->
<g id="edge41" class="edge">
<title>Node32&#45;&gt;Node18</title>
<path fill="none" stroke="#9a32cd" stroke-dasharray="5,2" d="M1242.13,-444.17C1324.24,-439.27 1443.9,-431.02 1548,-419.5 1562.21,-417.93 1577.43,-415.98 1591.83,-414.01"/>
<polygon fill="#9a32cd" stroke="#9a32cd" points="1241.83,-440.68 1232.05,-444.77 1242.24,-447.67 1241.83,-440.68"/>
<text text-anchor="middle" x="1338.5" y="-446.5" font-family="Helvetica,sans-Serif" font-size="10.00"> available</text>
</g>
</g>
</svg>
