<?xml version="1.0" encoding="UTF-8" standalone="no"?>
<!DOCTYPE svg PUBLIC "-//W3C//DTD SVG 1.1//EN"
 "http://www.w3.org/Graphics/SVG/1.1/DTD/svg11.dtd">
<!-- Generated by graphviz version 2.43.0 (0)
 -->
<!-- Title: valueSearch Pages: 1 -->
<svg width="551pt" height="97pt"
 viewBox="0.00 0.00 551.00 97.00" xmlns="http://www.w3.org/2000/svg" xmlns:xlink="http://www.w3.org/1999/xlink">
<g id="graph0" class="graph" transform="scale(1 1) rotate(0) translate(4 93)">
<title>valueSearch</title>
<!-- Node1 -->
<g id="node1" class="node">
<title>Node1</title>
<g id="a_node1"><a xlink:title=" ">
<polygon fill="#bfbfbf" stroke="black" points="135,-0.5 135,-19.5 212,-19.5 212,-0.5 135,-0.5"/>
<text text-anchor="middle" x="173.5" y="-7.5" font-family="Helvetica,sans-Serif" font-size="10.00">valueSearch</text>
</a>
</g>
</g>
<!-- Node2 -->
<g id="node2" class="node">
<title>Node2</title>
<g id="a_node2"><a xlink:href="structfiftyone_degrees_string_builder.html" target="_top" xlink:title="String buffer for building strings with memory checks.">
<polygon fill="none" stroke="black" points="0,-68.5 0,-87.5 157,-87.5 157,-68.5 0,-68.5"/>
<text text-anchor="middle" x="78.5" y="-75.5" font-family="Helvetica,sans-Serif" font-size="10.00">fiftyoneDegreesStringBuilder</text>
</a>
</g>
</g>
<!-- Node2&#45;&gt;Node1 -->
<g id="edge1" class="edge">
<title>Node2&#45;&gt;Node1</title>
<path fill="none" stroke="#9a32cd" stroke-dasharray="5,2" d="M90.97,-60.16C97.13,-52.67 105.05,-44.17 113.5,-38 124.01,-30.32 137.06,-24.12 148.3,-19.61"/>
<polygon fill="#9a32cd" stroke="#9a32cd" points="88.02,-58.25 84.62,-68.28 93.53,-62.56 88.02,-58.25"/>
<text text-anchor="middle" x="145.5" y="-41" font-family="Helvetica,sans-Serif" font-size="10.00"> tempBuilder</text>
</g>
<!-- Node3 -->
<g id="node3" class="node">
<title>Node3</title>
<g id="a_node3"><a xlink:href="structfiftyone_degrees_collection.html" target="_top" xlink:title="All the shared methods and fields required by file, memory and cached collections.">
<polygon fill="none" stroke="black" points="175,-68.5 175,-87.5 318,-87.5 318,-68.5 175,-68.5"/>
<text text-anchor="middle" x="246.5" y="-75.5" font-family="Helvetica,sans-Serif" font-size="10.00">fiftyoneDegreesCollection</text>
</a>
</g>
</g>
<!-- Node3&#45;&gt;Node1 -->
<g id="edge2" class="edge">
<title>Node3&#45;&gt;Node1</title>
<path fill="none" stroke="#9a32cd" stroke-dasharray="5,2" d="M208.22,-64.16C200.61,-60.23 193.21,-55.25 187.5,-49 179.91,-40.7 176.34,-27.93 174.73,-19.52"/>
<polygon fill="#9a32cd" stroke="#9a32cd" points="206.97,-67.44 217.52,-68.44 209.9,-61.08 206.97,-67.44"/>
<text text-anchor="middle" x="206" y="-41" font-family="Helvetica,sans-Serif" font-size="10.00"> strings</text>
</g>
<!-- Node3&#45;&gt;Node3 -->
<g id="edge6" class="edge">
<title>Node3&#45;&gt;Node3</title>
<path fill="none" stroke="#9a32cd" stroke-dasharray="5,2" d="M328.11,-82.41C333.04,-81.36 336,-79.89 336,-78 336,-75.04 328.79,-73.12 318.13,-72.22"/>
<polygon fill="#9a32cd" stroke="#9a32cd" points="327.56,-78.96 318.13,-83.78 328.51,-85.89 327.56,-78.96"/>
<text text-anchor="middle" x="372" y="-81" font-family="Helvetica,sans-Serif" font-size="10.00"> freeCollection</text>
<text text-anchor="middle" x="372" y="-70" font-family="Helvetica,sans-Serif" font-size="10.00">get</text>
</g>
<!-- Node4 -->
<g id="node4" class="node">
<title>Node4</title>
<g id="a_node4"><a xlink:href="structfiftyone_degrees_collection_item.html" target="_top" xlink:title="Used to store a handle to the underlying item that could be used to release the item when it&#39;s finish...">
<polygon fill="none" stroke="black" points="238,-0.5 238,-19.5 403,-19.5 403,-0.5 238,-0.5"/>
<text text-anchor="middle" x="320.5" y="-7.5" font-family="Helvetica,sans-Serif" font-size="10.00">fiftyoneDegreesCollectionItem</text>
</a>
</g>
</g>
<!-- Node3&#45;&gt;Node4 -->
<g id="edge4" class="edge">
<title>Node3&#45;&gt;Node4</title>
<path fill="none" stroke="#9a32cd" stroke-dasharray="5,2" d="M240.3,-58.37C239.14,-51.42 239.38,-43.82 243.5,-38 249.56,-29.45 258.56,-23.58 268.28,-19.57"/>
<polygon fill="#9a32cd" stroke="#9a32cd" points="237,-59.6 242.9,-68.4 243.77,-57.84 237,-59.6"/>
<text text-anchor="middle" x="269" y="-41" font-family="Helvetica,sans-Serif" font-size="10.00"> collection</text>
</g>
<!-- Node4&#45;&gt;Node3 -->
<g id="edge3" class="edge">
<title>Node4&#45;&gt;Node3</title>
<path fill="none" stroke="#9a32cd" stroke-dasharray="5,2" d="M312.68,-29.03C309.08,-35.87 304.31,-43.37 298.5,-49 289.96,-57.28 278.48,-63.8 268.48,-68.47"/>
<polygon fill="#9a32cd" stroke="#9a32cd" points="315.96,-30.29 317.1,-19.76 309.64,-27.28 315.96,-30.29"/>
<text text-anchor="middle" x="326.5" y="-41" font-family="Helvetica,sans-Serif" font-size="10.00"> release</text>
</g>
<!-- Node5 -->
<g id="node5" class="node">
<title>Node5</title>
<g id="a_node5"><a xlink:href="structfiftyone_degrees_data.html" target="_top" xlink:title="Data structure used for reusing memory which may have been allocated in a previous operation.">
<polygon fill="none" stroke="black" points="426,-68.5 426,-87.5 543,-87.5 543,-68.5 426,-68.5"/>
<text text-anchor="middle" x="484.5" y="-75.5" font-family="Helvetica,sans-Serif" font-size="10.00">fiftyoneDegreesData</text>
</a>
</g>
</g>
<!-- Node5&#45;&gt;Node4 -->
<g id="edge5" class="edge">
<title>Node5&#45;&gt;Node4</title>
<path fill="none" stroke="#9a32cd" stroke-dasharray="5,2" d="M453.53,-64.54C420.81,-51.37 370.12,-30.97 341.69,-19.53"/>
<polygon fill="#9a32cd" stroke="#9a32cd" points="452.48,-67.89 463.06,-68.37 455.09,-61.39 452.48,-67.89"/>
<text text-anchor="middle" x="424" y="-41" font-family="Helvetica,sans-Serif" font-size="10.00"> data</text>
</g>
</g>
</svg>
