<?xml version="1.0" encoding="UTF-8" standalone="no"?>
<!DOCTYPE svg PUBLIC "-//W3C//DTD SVG 1.1//EN"
 "http://www.w3.org/Graphics/SVG/1.1/DTD/svg11.dtd">
<!-- Generated by graphviz version 2.43.0 (0)
 -->
<!-- Title: offlineProcessState Pages: 1 -->
<svg width="1280pt" height="231pt"
 viewBox="0.00 0.00 1280.00 231.00" xmlns="http://www.w3.org/2000/svg" xmlns:xlink="http://www.w3.org/1999/xlink">
<g id="graph0" class="graph" transform="scale(1 1) rotate(0) translate(4 227)">
<title>offlineProcessState</title>
<!-- Node1 -->
<g id="node1" class="node">
<title>Node1</title>
<g id="a_node1"><a xlink:title="State used for the offline processing operation.">
<polygon fill="#bfbfbf" stroke="black" points="1162,-114.5 1162,-133.5 1272,-133.5 1272,-114.5 1162,-114.5"/>
<text text-anchor="middle" x="1217" y="-121.5" font-family="Helvetica,sans-Serif" font-size="10.00">offlineProcessState</text>
</a>
</g>
</g>
<!-- Node2 -->
<g id="node2" class="node">
<title>Node2</title>
<g id="a_node2"><a xlink:href="structfiftyone_degrees_result_ipi_array.html" target="_top" xlink:title="Array of items of type fiftyoneDegreesResultIpi used to easily access and track the size of the array...">
<polygon fill="none" stroke="black" points="952,-109 952,-139 1089,-139 1089,-109 952,-109"/>
<text text-anchor="start" x="960" y="-127" font-family="Helvetica,sans-Serif" font-size="10.00">fiftyoneDegreesResultIpi</text>
<text text-anchor="middle" x="1020.5" y="-116" font-family="Helvetica,sans-Serif" font-size="10.00">Array</text>
</a>
</g>
</g>
<!-- Node2&#45;&gt;Node1 -->
<g id="edge1" class="edge">
<title>Node2&#45;&gt;Node1</title>
<path fill="none" stroke="#9a32cd" stroke-dasharray="5,2" d="M1099.43,-124C1120.39,-124 1142.6,-124 1161.95,-124"/>
<polygon fill="#9a32cd" stroke="#9a32cd" points="1099.25,-120.5 1089.25,-124 1099.25,-127.5 1099.25,-120.5"/>
<text text-anchor="middle" x="1125.5" y="-127" font-family="Helvetica,sans-Serif" font-size="10.00"> results</text>
</g>
<!-- Node3 -->
<g id="node3" class="node">
<title>Node3</title>
<g id="a_node3"><a xlink:href="structfiftyone_degrees_result_ipi.html" target="_top" xlink:title="Singular IP address result returned by a detection process method.">
<polygon fill="none" stroke="black" points="734.5,-165.5 734.5,-184.5 871.5,-184.5 871.5,-165.5 734.5,-165.5"/>
<text text-anchor="middle" x="803" y="-172.5" font-family="Helvetica,sans-Serif" font-size="10.00">fiftyoneDegreesResultIpi</text>
</a>
</g>
</g>
<!-- Node3&#45;&gt;Node2 -->
<g id="edge2" class="edge">
<title>Node3&#45;&gt;Node2</title>
<path fill="none" stroke="#9a32cd" stroke-dasharray="5,2" d="M870.46,-163.61C890.94,-159.73 913.49,-155.08 934,-150 946.8,-146.83 960.53,-142.9 973.15,-139.06"/>
<polygon fill="#9a32cd" stroke="#9a32cd" points="869.78,-160.18 860.59,-165.46 871.06,-167.06 869.78,-160.18"/>
<text text-anchor="middle" x="916" y="-161" font-family="Helvetica,sans-Serif" font-size="10.00"> items</text>
</g>
<!-- Node4 -->
<g id="node4" class="node">
<title>Node4</title>
<g id="a_node4"><a xlink:href="structfiftyone_degrees_ip_address.html" target="_top" xlink:title="The structure to hold a IP Address in byte array format.">
<polygon fill="none" stroke="black" points="448.5,-203.5 448.5,-222.5 590.5,-222.5 590.5,-203.5 448.5,-203.5"/>
<text text-anchor="middle" x="519.5" y="-210.5" font-family="Helvetica,sans-Serif" font-size="10.00">fiftyoneDegreesIpAddress</text>
</a>
</g>
</g>
<!-- Node4&#45;&gt;Node3 -->
<g id="edge3" class="edge">
<title>Node4&#45;&gt;Node3</title>
<path fill="none" stroke="#9a32cd" stroke-dasharray="5,2" d="M601.02,-203.77C634.19,-199.8 672.98,-194.94 708,-190 719.78,-188.34 732.37,-186.42 744.38,-184.53"/>
<polygon fill="#9a32cd" stroke="#9a32cd" points="600.43,-200.32 590.92,-204.97 601.26,-207.27 600.43,-200.32"/>
<text text-anchor="middle" x="667.5" y="-203" font-family="Helvetica,sans-Serif" font-size="10.00"> targetIpAddress</text>
</g>
<!-- Node5 -->
<g id="node5" class="node">
<title>Node5</title>
<g id="a_node5"><a xlink:href="structfiftyone_degrees_ipi_cg_result.html" target="_top" xlink:title="The evaluation result from graph collection.">
<polygon fill="none" stroke="black" points="445,-165.5 445,-184.5 594,-184.5 594,-165.5 445,-165.5"/>
<text text-anchor="middle" x="519.5" y="-172.5" font-family="Helvetica,sans-Serif" font-size="10.00">fiftyoneDegreesIpiCgResult</text>
</a>
</g>
</g>
<!-- Node5&#45;&gt;Node3 -->
<g id="edge4" class="edge">
<title>Node5&#45;&gt;Node3</title>
<path fill="none" stroke="#9a32cd" stroke-dasharray="5,2" d="M604.18,-175C645.65,-175 695.07,-175 734.14,-175"/>
<polygon fill="#9a32cd" stroke="#9a32cd" points="604.09,-171.5 594.09,-175 604.09,-178.5 604.09,-171.5"/>
<text text-anchor="middle" x="667.5" y="-178" font-family="Helvetica,sans-Serif" font-size="10.00"> graphResult</text>
</g>
<!-- Node6 -->
<g id="node6" class="node">
<title>Node6</title>
<g id="a_node6"><a xlink:href="structfiftyone_degrees_ipi_list.html" target="_top" xlink:title="The structure which represents the list of values returned for the required property from the results...">
<polygon fill="none" stroke="black" points="741.5,-89.5 741.5,-108.5 864.5,-108.5 864.5,-89.5 741.5,-89.5"/>
<text text-anchor="middle" x="803" y="-96.5" font-family="Helvetica,sans-Serif" font-size="10.00">fiftyoneDegreesIpiList</text>
</a>
</g>
</g>
<!-- Node6&#45;&gt;Node2 -->
<g id="edge5" class="edge">
<title>Node6&#45;&gt;Node2</title>
<path fill="none" stroke="#9a32cd" stroke-dasharray="5,2" d="M874.77,-105.56C894,-107.49 914.82,-109.7 934,-112 939.8,-112.7 945.82,-113.46 951.86,-114.25"/>
<polygon fill="#9a32cd" stroke="#9a32cd" points="874.87,-102.05 864.57,-104.55 874.18,-109.02 874.87,-102.05"/>
<text text-anchor="middle" x="916" y="-115" font-family="Helvetica,sans-Serif" font-size="10.00"> values</text>
</g>
<!-- Node7 -->
<g id="node7" class="node">
<title>Node7</title>
<g id="a_node7"><a xlink:href="structfiftyone_degrees_profile_percentage.html" target="_top" xlink:title="The structure to hold a pair of result item and its percentage When getting values for a property fro...">
<polygon fill="none" stroke="black" points="430,-89.5 430,-108.5 609,-108.5 609,-89.5 430,-89.5"/>
<text text-anchor="middle" x="519.5" y="-96.5" font-family="Helvetica,sans-Serif" font-size="10.00">fiftyoneDegreesProfilePercentage</text>
</a>
</g>
</g>
<!-- Node7&#45;&gt;Node6 -->
<g id="edge6" class="edge">
<title>Node7&#45;&gt;Node6</title>
<path fill="none" stroke="#9a32cd" stroke-dasharray="5,2" d="M619.4,-99C660.04,-99 705.81,-99 741.36,-99"/>
<polygon fill="#9a32cd" stroke="#9a32cd" points="619.18,-95.5 609.18,-99 619.18,-102.5 619.18,-95.5"/>
<text text-anchor="middle" x="667.5" y="-102" font-family="Helvetica,sans-Serif" font-size="10.00"> items</text>
</g>
<!-- Node8 -->
<g id="node8" class="node">
<title>Node8</title>
<g id="a_node8"><a xlink:href="structfiftyone_degrees_collection_item.html" target="_top" xlink:title="Used to store a handle to the underlying item that could be used to release the item when it&#39;s finish...">
<polygon fill="none" stroke="black" points="178,-59.5 178,-78.5 343,-78.5 343,-59.5 178,-59.5"/>
<text text-anchor="middle" x="260.5" y="-66.5" font-family="Helvetica,sans-Serif" font-size="10.00">fiftyoneDegreesCollectionItem</text>
</a>
</g>
</g>
<!-- Node8&#45;&gt;Node2 -->
<g id="edge13" class="edge">
<title>Node8&#45;&gt;Node2</title>
<path fill="none" stroke="#9a32cd" stroke-dasharray="5,2" d="M295.61,-82.21C329.19,-94.42 382.25,-111.61 430,-118 617.68,-143.1 841.96,-135.05 951.93,-128.66"/>
<polygon fill="#9a32cd" stroke="#9a32cd" points="296.43,-78.78 285.84,-78.59 294,-85.35 296.43,-78.78"/>
<text text-anchor="middle" x="667.5" y="-138" font-family="Helvetica,sans-Serif" font-size="10.00"> propertyItem</text>
</g>
<!-- Node8&#45;&gt;Node7 -->
<g id="edge7" class="edge">
<title>Node8&#45;&gt;Node7</title>
<path fill="none" stroke="#9a32cd" stroke-dasharray="5,2" d="M353.14,-79.7C380.53,-82.89 410.36,-86.38 437.04,-89.49"/>
<polygon fill="#9a32cd" stroke="#9a32cd" points="353.51,-76.22 343.17,-78.53 352.7,-83.17 353.51,-76.22"/>
<text text-anchor="middle" x="386.5" y="-88" font-family="Helvetica,sans-Serif" font-size="10.00"> item</text>
</g>
<!-- Node9 -->
<g id="node9" class="node">
<title>Node9</title>
<g id="a_node9"><a xlink:href="structfiftyone_degrees_collection.html" target="_top" xlink:title="All the shared methods and fields required by file, memory and cached collections.">
<polygon fill="none" stroke="black" points="448,-0.5 448,-19.5 591,-19.5 591,-0.5 448,-0.5"/>
<text text-anchor="middle" x="519.5" y="-7.5" font-family="Helvetica,sans-Serif" font-size="10.00">fiftyoneDegreesCollection</text>
</a>
</g>
</g>
<!-- Node8&#45;&gt;Node9 -->
<g id="edge9" class="edge">
<title>Node8&#45;&gt;Node9</title>
<path fill="none" stroke="#9a32cd" stroke-dasharray="5,2" d="M313,-57.18C361.2,-46.11 432.31,-29.79 476.98,-19.53"/>
<polygon fill="#9a32cd" stroke="#9a32cd" points="312.04,-53.81 303.08,-59.46 313.61,-60.63 312.04,-53.81"/>
<text text-anchor="middle" x="386.5" y="-47" font-family="Helvetica,sans-Serif" font-size="10.00"> release</text>
</g>
<!-- Node9&#45;&gt;Node8 -->
<g id="edge8" class="edge">
<title>Node9&#45;&gt;Node8</title>
<path fill="none" stroke="#9a32cd" stroke-dasharray="5,2" d="M437.6,-8.32C412.7,-9.48 385.42,-12.47 361,-19 328.69,-27.64 294.61,-47.44 275.91,-59.37"/>
<polygon fill="#9a32cd" stroke="#9a32cd" points="437.89,-11.81 447.75,-7.94 437.63,-4.82 437.89,-11.81"/>
<text text-anchor="middle" x="386.5" y="-22" font-family="Helvetica,sans-Serif" font-size="10.00"> collection</text>
</g>
<!-- Node9&#45;&gt;Node9 -->
<g id="edge10" class="edge">
<title>Node9&#45;&gt;Node9</title>
<path fill="none" stroke="#9a32cd" stroke-dasharray="5,2" d="M494.95,-29.03C496.29,-34.13 504.47,-38 519.5,-38 542.96,-38 549.74,-28.57 539.85,-19.76"/>
<polygon fill="#9a32cd" stroke="#9a32cd" points="498.21,-30.31 499.15,-19.76 491.83,-27.42 498.21,-30.31"/>
<text text-anchor="middle" x="519.5" y="-63" font-family="Helvetica,sans-Serif" font-size="10.00"> next</text>
<text text-anchor="middle" x="519.5" y="-52" font-family="Helvetica,sans-Serif" font-size="10.00">freeCollection</text>
<text text-anchor="middle" x="519.5" y="-41" font-family="Helvetica,sans-Serif" font-size="10.00">get</text>
</g>
<!-- Node10 -->
<g id="node10" class="node">
<title>Node10</title>
<g id="a_node10"><a xlink:href="structfiftyone_degrees_data.html" target="_top" xlink:title="Data structure used for reusing memory which may have been allocated in a previous operation.">
<polygon fill="none" stroke="black" points="0,-59.5 0,-78.5 117,-78.5 117,-59.5 0,-59.5"/>
<text text-anchor="middle" x="58.5" y="-66.5" font-family="Helvetica,sans-Serif" font-size="10.00">fiftyoneDegreesData</text>
</a>
</g>
</g>
<!-- Node10&#45;&gt;Node8 -->
<g id="edge11" class="edge">
<title>Node10&#45;&gt;Node8</title>
<path fill="none" stroke="#9a32cd" stroke-dasharray="5,2" d="M127.5,-69C143.67,-69 161.08,-69 177.78,-69"/>
<polygon fill="#9a32cd" stroke="#9a32cd" points="127.08,-65.5 117.08,-69 127.08,-72.5 127.08,-65.5"/>
<text text-anchor="middle" x="147.5" y="-72" font-family="Helvetica,sans-Serif" font-size="10.00"> data</text>
</g>
<!-- Node11 -->
<g id="node11" class="node">
<title>Node11</title>
<g id="a_node11"><a xlink:href="structfiftyone_degrees_results_base.html" target="_top" xlink:title="Base results structure which any processing results should extend.">
<polygon fill="none" stroke="black" points="726,-51.5 726,-70.5 880,-70.5 880,-51.5 726,-51.5"/>
<text text-anchor="middle" x="803" y="-58.5" font-family="Helvetica,sans-Serif" font-size="10.00">fiftyoneDegreesResultsBase</text>
</a>
</g>
</g>
<!-- Node11&#45;&gt;Node2 -->
<g id="edge12" class="edge">
<title>Node11&#45;&gt;Node2</title>
<path fill="none" stroke="#9a32cd" stroke-dasharray="5,2" d="M860.07,-72.77C883.14,-78.03 910.03,-84.69 934,-92 950.07,-96.9 967.49,-103.23 982.39,-108.96"/>
<polygon fill="#9a32cd" stroke="#9a32cd" points="860.62,-69.31 850.1,-70.53 859.09,-76.14 860.62,-69.31"/>
<text text-anchor="middle" x="916" y="-95" font-family="Helvetica,sans-Serif" font-size="10.00"> b</text>
</g>
</g>
</svg>
