<?xml version="1.0" encoding="UTF-8" standalone="no"?>
<!DOCTYPE svg PUBLIC "-//W3C//DTD SVG 1.1//EN"
 "http://www.w3.org/Graphics/SVG/1.1/DTD/svg11.dtd">
<!-- Generated by graphviz version 2.43.0 (0)
 -->
<!-- Title: stringCollectionState Pages: 1 -->
<svg width="399pt" height="108pt"
 viewBox="0.00 0.00 399.00 108.00" xmlns="http://www.w3.org/2000/svg" xmlns:xlink="http://www.w3.org/1999/xlink">
<g id="graph0" class="graph" transform="scale(1 1) rotate(0) translate(4 104)">
<title>stringCollectionState</title>
<!-- Node1 -->
<g id="node1" class="node">
<title>Node1</title>
<g id="a_node1"><a xlink:title=" ">
<polygon fill="#bfbfbf" stroke="black" points="0,-0.5 0,-19.5 119,-19.5 119,-0.5 0,-0.5"/>
<text text-anchor="middle" x="59.5" y="-7.5" font-family="Helvetica,sans-Serif" font-size="10.00">stringCollectionState</text>
</a>
</g>
</g>
<!-- Node2 -->
<g id="node2" class="node">
<title>Node2</title>
<g id="a_node2"><a xlink:href="structfiftyone_degrees_collection.html" target="_top" xlink:title="All the shared methods and fields required by file, memory and cached collections.">
<polygon fill="none" stroke="black" points="26,-74 26,-93 169,-93 169,-74 26,-74"/>
<text text-anchor="middle" x="97.5" y="-81" font-family="Helvetica,sans-Serif" font-size="10.00">fiftyoneDegreesCollection</text>
</a>
</g>
</g>
<!-- Node2&#45;&gt;Node1 -->
<g id="edge1" class="edge">
<title>Node2&#45;&gt;Node1</title>
<path fill="none" stroke="#9a32cd" stroke-dasharray="5,2" d="M77.24,-66.99C71.9,-61.86 66.74,-55.72 63.5,-49 59.01,-39.68 58.51,-27.61 58.8,-19.6"/>
<polygon fill="#9a32cd" stroke="#9a32cd" points="75.14,-69.81 84.98,-73.74 79.74,-64.53 75.14,-69.81"/>
<text text-anchor="middle" x="89" y="-41" font-family="Helvetica,sans-Serif" font-size="10.00"> collection</text>
</g>
<!-- Node2&#45;&gt;Node2 -->
<g id="edge5" class="edge">
<title>Node2&#45;&gt;Node2</title>
<path fill="none" stroke="#9a32cd" stroke-dasharray="5,2" d="M179.11,-88.69C184.04,-87.46 187,-85.73 187,-83.5 187,-80.02 179.79,-77.76 169.13,-76.7"/>
<polygon fill="#9a32cd" stroke="#9a32cd" points="178.44,-85.26 169.13,-90.3 179.56,-92.17 178.44,-85.26"/>
<text text-anchor="middle" x="221.5" y="-92" font-family="Helvetica,sans-Serif" font-size="10.00"> next</text>
<text text-anchor="middle" x="221.5" y="-81" font-family="Helvetica,sans-Serif" font-size="10.00">freeCollection</text>
<text text-anchor="middle" x="221.5" y="-70" font-family="Helvetica,sans-Serif" font-size="10.00">get</text>
</g>
<!-- Node3 -->
<g id="node3" class="node">
<title>Node3</title>
<g id="a_node3"><a xlink:href="structfiftyone_degrees_collection_item.html" target="_top" xlink:title="Used to store a handle to the underlying item that could be used to release the item when it&#39;s finish...">
<polygon fill="none" stroke="black" points="137,-0.5 137,-19.5 302,-19.5 302,-0.5 137,-0.5"/>
<text text-anchor="middle" x="219.5" y="-7.5" font-family="Helvetica,sans-Serif" font-size="10.00">fiftyoneDegreesCollectionItem</text>
</a>
</g>
</g>
<!-- Node2&#45;&gt;Node3 -->
<g id="edge3" class="edge">
<title>Node2&#45;&gt;Node3</title>
<path fill="none" stroke="#9a32cd" stroke-dasharray="5,2" d="M108.88,-65.53C115.88,-56.24 125.58,-45.2 136.5,-38 149.15,-29.66 164.58,-23.72 178.69,-19.57"/>
<polygon fill="#9a32cd" stroke="#9a32cd" points="106,-63.53 103.05,-73.71 111.7,-67.6 106,-63.53"/>
<text text-anchor="middle" x="162" y="-41" font-family="Helvetica,sans-Serif" font-size="10.00"> collection</text>
</g>
<!-- Node3&#45;&gt;Node2 -->
<g id="edge2" class="edge">
<title>Node3&#45;&gt;Node2</title>
<path fill="none" stroke="#9a32cd" stroke-dasharray="5,2" d="M209.63,-28.74C204.92,-35.85 198.74,-43.62 191.5,-49 175.65,-60.78 155.27,-68.71 137.55,-73.89"/>
<polygon fill="#9a32cd" stroke="#9a32cd" points="212.9,-30.09 215.08,-19.72 206.91,-26.47 212.9,-30.09"/>
<text text-anchor="middle" x="222.5" y="-41" font-family="Helvetica,sans-Serif" font-size="10.00"> release</text>
</g>
<!-- Node4 -->
<g id="node4" class="node">
<title>Node4</title>
<g id="a_node4"><a xlink:href="structfiftyone_degrees_data.html" target="_top" xlink:title="Data structure used for reusing memory which may have been allocated in a previous operation.">
<polygon fill="none" stroke="black" points="274,-74 274,-93 391,-93 391,-74 274,-74"/>
<text text-anchor="middle" x="332.5" y="-81" font-family="Helvetica,sans-Serif" font-size="10.00">fiftyoneDegreesData</text>
</a>
</g>
</g>
<!-- Node4&#45;&gt;Node3 -->
<g id="edge4" class="edge">
<title>Node4&#45;&gt;Node3</title>
<path fill="none" stroke="#9a32cd" stroke-dasharray="5,2" d="M309.9,-68.2C286.95,-53.68 252.15,-31.66 233.12,-19.62"/>
<polygon fill="#9a32cd" stroke="#9a32cd" points="308.32,-71.34 318.64,-73.73 312.06,-65.43 308.32,-71.34"/>
<text text-anchor="middle" x="291" y="-41" font-family="Helvetica,sans-Serif" font-size="10.00"> data</text>
</g>
</g>
</svg>
