<?xml version="1.0" encoding="UTF-8" standalone="no"?>
<!DOCTYPE svg PUBLIC "-//W3C//DTD SVG 1.1//EN"
 "http://www.w3.org/Graphics/SVG/1.1/DTD/svg11.dtd">
<!-- Generated by graphviz version 2.43.0 (0)
 -->
<!-- Title: memoryThreadState Pages: 1 -->
<svg width="1362pt" height="313pt"
 viewBox="0.00 0.00 1362.00 313.00" xmlns="http://www.w3.org/2000/svg" xmlns:xlink="http://www.w3.org/1999/xlink">
<g id="graph0" class="graph" transform="scale(1 1) rotate(0) translate(4 309)">
<title>memoryThreadState</title>
<!-- Node1 -->
<g id="node1" class="node">
<title>Node1</title>
<g id="a_node1"><a xlink:title="Individual thread state where all members are exclusively accessed by a single test thread.">
<polygon fill="#bfbfbf" stroke="black" points="1237,-193.5 1237,-212.5 1354,-212.5 1354,-193.5 1237,-193.5"/>
<text text-anchor="middle" x="1295.5" y="-200.5" font-family="Helvetica,sans-Serif" font-size="10.00">memoryThreadState</text>
</a>
</g>
</g>
<!-- Node2 -->
<g id="node2" class="node">
<title>Node2</title>
<g id="a_node2"><a xlink:href="structmemory_state.html" target="_top" xlink:title="Shared test state.">
<polygon fill="none" stroke="black" points="1036,-285.5 1036,-304.5 1119,-304.5 1119,-285.5 1036,-285.5"/>
<text text-anchor="middle" x="1077.5" y="-292.5" font-family="Helvetica,sans-Serif" font-size="10.00">memoryState</text>
</a>
</g>
</g>
<!-- Node2&#45;&gt;Node1 -->
<g id="edge1" class="edge">
<title>Node2&#45;&gt;Node1</title>
<path fill="none" stroke="#9a32cd" stroke-dasharray="5,2" d="M1112.63,-281.79C1128.33,-275.62 1147.17,-268.08 1164,-261 1202.85,-244.65 1247.65,-224.44 1273.37,-212.7"/>
<polygon fill="#9a32cd" stroke="#9a32cd" points="1111.34,-278.53 1103.3,-285.44 1113.89,-285.05 1111.34,-278.53"/>
<text text-anchor="middle" x="1200.5" y="-254" font-family="Helvetica,sans-Serif" font-size="10.00"> main</text>
</g>
<!-- Node3 -->
<g id="node3" class="node">
<title>Node3</title>
<g id="a_node3"><a xlink:href="structfiftyone_degrees_resource_manager.html" target="_top" xlink:title="Manager structure used to provide access to a shared and changing resource.">
<polygon fill="none" stroke="black" points="726,-266.5 726,-285.5 908,-285.5 908,-266.5 726,-266.5"/>
<text text-anchor="middle" x="817" y="-273.5" font-family="Helvetica,sans-Serif" font-size="10.00">fiftyoneDegreesResourceManager</text>
</a>
</g>
</g>
<!-- Node3&#45;&gt;Node2 -->
<g id="edge2" class="edge">
<title>Node3&#45;&gt;Node2</title>
<path fill="none" stroke="#9a32cd" stroke-dasharray="5,2" d="M908.46,-286.48C914.39,-287.04 920.28,-287.55 926,-288 963.16,-290.93 1005.58,-292.76 1035.89,-293.82"/>
<polygon fill="#9a32cd" stroke="#9a32cd" points="908.74,-282.99 898.45,-285.51 908.06,-289.96 908.74,-282.99"/>
<text text-anchor="middle" x="949.5" y="-293" font-family="Helvetica,sans-Serif" font-size="10.00"> manager</text>
</g>
<!-- Node4 -->
<g id="node4" class="node">
<title>Node4</title>
<g id="a_node4"><a xlink:href="structfiftyone_degrees_resource_handle.html" target="_top" xlink:title="Handle for a shared resource.">
<polygon fill="none" stroke="black" points="991,-232.5 991,-251.5 1164,-251.5 1164,-232.5 991,-232.5"/>
<text text-anchor="middle" x="1077.5" y="-239.5" font-family="Helvetica,sans-Serif" font-size="10.00">fiftyoneDegreesResourceHandle</text>
</a>
</g>
</g>
<!-- Node3&#45;&gt;Node4 -->
<g id="edge4" class="edge">
<title>Node3&#45;&gt;Node4</title>
<path fill="none" stroke="#9a32cd" stroke-dasharray="5,2" d="M900.53,-265.15C933.85,-260.76 971.95,-255.75 1004.17,-251.51"/>
<polygon fill="#9a32cd" stroke="#9a32cd" points="899.81,-261.71 890.35,-266.48 900.72,-268.65 899.81,-261.71"/>
<text text-anchor="middle" x="949.5" y="-264" font-family="Helvetica,sans-Serif" font-size="10.00"> manager</text>
</g>
<!-- Node4&#45;&gt;Node3 -->
<g id="edge3" class="edge">
<title>Node4&#45;&gt;Node3</title>
<path fill="none" stroke="#9a32cd" stroke-dasharray="5,2" d="M980.91,-238.48C962.61,-238.98 943.65,-240.3 926,-243 896.35,-247.53 863.56,-258.43 841.98,-266.47"/>
<polygon fill="#9a32cd" stroke="#9a32cd" points="981.07,-241.97 991,-238.28 980.93,-234.98 981.07,-241.97"/>
<text text-anchor="middle" x="949.5" y="-246" font-family="Helvetica,sans-Serif" font-size="10.00"> active</text>
</g>
<!-- Node5 -->
<g id="node5" class="node">
<title>Node5</title>
<g id="a_node5"><a xlink:href="structfiftyone_degrees_interlock_double_width.html" target="_top" xlink:title="Double width (64 or 128 depending on the architecture) compare and exchange.">
<polygon fill="none" stroke="black" points="748.5,-193 748.5,-223 885.5,-223 885.5,-193 748.5,-193"/>
<text text-anchor="start" x="756.5" y="-211" font-family="Helvetica,sans-Serif" font-size="10.00">fiftyoneDegreesInterlock</text>
<text text-anchor="middle" x="817" y="-200" font-family="Helvetica,sans-Serif" font-size="10.00">DoubleWidth</text>
</a>
</g>
</g>
<!-- Node5&#45;&gt;Node4 -->
<g id="edge5" class="edge">
<title>Node5&#45;&gt;Node4</title>
<path fill="none" stroke="#9a32cd" stroke-dasharray="5,2" d="M895.73,-214.22C920.48,-216.55 947.94,-219.49 973,-223 991.55,-225.59 1011.83,-229.16 1029.49,-232.5"/>
<polygon fill="#9a32cd" stroke="#9a32cd" points="895.95,-210.72 885.67,-213.29 895.31,-217.69 895.95,-210.72"/>
<text text-anchor="middle" x="949.5" y="-226" font-family="Helvetica,sans-Serif" font-size="10.00"> counter</text>
</g>
<!-- Node6 -->
<g id="node6" class="node">
<title>Node6</title>
<g id="a_node6"><a xlink:href="structfiftyone_degrees_result_ipi_array.html" target="_top" xlink:title="Array of items of type fiftyoneDegreesResultIpi used to easily access and track the size of the array...">
<polygon fill="none" stroke="black" points="1009,-111 1009,-141 1146,-141 1146,-111 1009,-111"/>
<text text-anchor="start" x="1017" y="-129" font-family="Helvetica,sans-Serif" font-size="10.00">fiftyoneDegreesResultIpi</text>
<text text-anchor="middle" x="1077.5" y="-118" font-family="Helvetica,sans-Serif" font-size="10.00">Array</text>
</a>
</g>
</g>
<!-- Node6&#45;&gt;Node1 -->
<g id="edge6" class="edge">
<title>Node6&#45;&gt;Node1</title>
<path fill="none" stroke="#9a32cd" stroke-dasharray="5,2" d="M1130.18,-144.42C1173.48,-159.86 1233.55,-181.27 1267.78,-193.48"/>
<polygon fill="#9a32cd" stroke="#9a32cd" points="1131.25,-141.09 1120.66,-141.03 1128.9,-147.68 1131.25,-141.09"/>
<text text-anchor="middle" x="1200.5" y="-178" font-family="Helvetica,sans-Serif" font-size="10.00"> results</text>
</g>
<!-- Node7 -->
<g id="node7" class="node">
<title>Node7</title>
<g id="a_node7"><a xlink:href="structfiftyone_degrees_result_ipi.html" target="_top" xlink:title="Singular IP address result returned by a detection process method.">
<polygon fill="none" stroke="black" points="748.5,-154.5 748.5,-173.5 885.5,-173.5 885.5,-154.5 748.5,-154.5"/>
<text text-anchor="middle" x="817" y="-161.5" font-family="Helvetica,sans-Serif" font-size="10.00">fiftyoneDegreesResultIpi</text>
</a>
</g>
</g>
<!-- Node7&#45;&gt;Node6 -->
<g id="edge7" class="edge">
<title>Node7&#45;&gt;Node6</title>
<path fill="none" stroke="#9a32cd" stroke-dasharray="5,2" d="M893.02,-152.97C929.62,-147.59 973.31,-141.17 1008.87,-135.94"/>
<polygon fill="#9a32cd" stroke="#9a32cd" points="892.28,-149.54 882.9,-154.46 893.3,-156.47 892.28,-149.54"/>
<text text-anchor="middle" x="949.5" y="-150" font-family="Helvetica,sans-Serif" font-size="10.00"> items</text>
</g>
<!-- Node8 -->
<g id="node8" class="node">
<title>Node8</title>
<g id="a_node8"><a xlink:href="structfiftyone_degrees_ip_address.html" target="_top" xlink:title="The structure to hold a IP Address in byte array format.">
<polygon fill="none" stroke="black" points="448.5,-192.5 448.5,-211.5 590.5,-211.5 590.5,-192.5 448.5,-192.5"/>
<text text-anchor="middle" x="519.5" y="-199.5" font-family="Helvetica,sans-Serif" font-size="10.00">fiftyoneDegreesIpAddress</text>
</a>
</g>
</g>
<!-- Node8&#45;&gt;Node7 -->
<g id="edge8" class="edge">
<title>Node8&#45;&gt;Node7</title>
<path fill="none" stroke="#9a32cd" stroke-dasharray="5,2" d="M600.97,-192.41C634.13,-188.39 672.93,-183.59 708,-179 721.14,-177.28 735.17,-175.38 748.62,-173.53"/>
<polygon fill="#9a32cd" stroke="#9a32cd" points="600.38,-188.96 590.87,-193.64 601.22,-195.91 600.38,-188.96"/>
<text text-anchor="middle" x="667.5" y="-191" font-family="Helvetica,sans-Serif" font-size="10.00"> targetIpAddress</text>
</g>
<!-- Node9 -->
<g id="node9" class="node">
<title>Node9</title>
<g id="a_node9"><a xlink:href="structfiftyone_degrees_ipi_cg_result.html" target="_top" xlink:title="The evaluation result from graph collection.">
<polygon fill="none" stroke="black" points="445,-154.5 445,-173.5 594,-173.5 594,-154.5 445,-154.5"/>
<text text-anchor="middle" x="519.5" y="-161.5" font-family="Helvetica,sans-Serif" font-size="10.00">fiftyoneDegreesIpiCgResult</text>
</a>
</g>
</g>
<!-- Node9&#45;&gt;Node7 -->
<g id="edge9" class="edge">
<title>Node9&#45;&gt;Node7</title>
<path fill="none" stroke="#9a32cd" stroke-dasharray="5,2" d="M604.45,-164C649.95,-164 705.45,-164 748.19,-164"/>
<polygon fill="#9a32cd" stroke="#9a32cd" points="604.3,-160.5 594.3,-164 604.3,-167.5 604.3,-160.5"/>
<text text-anchor="middle" x="667.5" y="-167" font-family="Helvetica,sans-Serif" font-size="10.00"> graphResult</text>
</g>
<!-- Node10 -->
<g id="node10" class="node">
<title>Node10</title>
<g id="a_node10"><a xlink:href="structfiftyone_degrees_ipi_list.html" target="_top" xlink:title="The structure which represents the list of values returned for the required property from the results...">
<polygon fill="none" stroke="black" points="755.5,-78.5 755.5,-97.5 878.5,-97.5 878.5,-78.5 755.5,-78.5"/>
<text text-anchor="middle" x="817" y="-85.5" font-family="Helvetica,sans-Serif" font-size="10.00">fiftyoneDegreesIpiList</text>
</a>
</g>
</g>
<!-- Node10&#45;&gt;Node6 -->
<g id="edge10" class="edge">
<title>Node10&#45;&gt;Node6</title>
<path fill="none" stroke="#9a32cd" stroke-dasharray="5,2" d="M888.6,-91.63C915.17,-93.6 945.58,-96.57 973,-101 988.78,-103.55 1005.72,-107.23 1021.22,-110.99"/>
<polygon fill="#9a32cd" stroke="#9a32cd" points="888.84,-88.14 878.62,-90.92 888.35,-95.12 888.84,-88.14"/>
<text text-anchor="middle" x="949.5" y="-104" font-family="Helvetica,sans-Serif" font-size="10.00"> values</text>
</g>
<!-- Node11 -->
<g id="node11" class="node">
<title>Node11</title>
<g id="a_node11"><a xlink:href="structfiftyone_degrees_profile_percentage.html" target="_top" xlink:title="The structure to hold a pair of result item and its percentage When getting values for a property fro...">
<polygon fill="none" stroke="black" points="430,-78.5 430,-97.5 609,-97.5 609,-78.5 430,-78.5"/>
<text text-anchor="middle" x="519.5" y="-85.5" font-family="Helvetica,sans-Serif" font-size="10.00">fiftyoneDegreesProfilePercentage</text>
</a>
</g>
</g>
<!-- Node11&#45;&gt;Node10 -->
<g id="edge11" class="edge">
<title>Node11&#45;&gt;Node10</title>
<path fill="none" stroke="#9a32cd" stroke-dasharray="5,2" d="M619.26,-88C664.35,-88 716.3,-88 755.49,-88"/>
<polygon fill="#9a32cd" stroke="#9a32cd" points="619.16,-84.5 609.16,-88 619.16,-91.5 619.16,-84.5"/>
<text text-anchor="middle" x="667.5" y="-91" font-family="Helvetica,sans-Serif" font-size="10.00"> items</text>
</g>
<!-- Node12 -->
<g id="node12" class="node">
<title>Node12</title>
<g id="a_node12"><a xlink:href="structfiftyone_degrees_collection_item.html" target="_top" xlink:title="Used to store a handle to the underlying item that could be used to release the item when it&#39;s finish...">
<polygon fill="none" stroke="black" points="178,-55.5 178,-74.5 343,-74.5 343,-55.5 178,-55.5"/>
<text text-anchor="middle" x="260.5" y="-62.5" font-family="Helvetica,sans-Serif" font-size="10.00">fiftyoneDegreesCollectionItem</text>
</a>
</g>
</g>
<!-- Node12&#45;&gt;Node6 -->
<g id="edge18" class="edge">
<title>Node12&#45;&gt;Node6</title>
<path fill="none" stroke="#9a32cd" stroke-dasharray="5,2" d="M300.55,-77.63C334.38,-87.87 384.85,-101.48 430,-107 639.82,-132.67 890.65,-130.86 1008.71,-128.11"/>
<polygon fill="#9a32cd" stroke="#9a32cd" points="301.2,-74.17 290.61,-74.58 299.14,-80.86 301.2,-74.17"/>
<text text-anchor="middle" x="667.5" y="-129" font-family="Helvetica,sans-Serif" font-size="10.00"> propertyItem</text>
</g>
<!-- Node12&#45;&gt;Node11 -->
<g id="edge12" class="edge">
<title>Node12&#45;&gt;Node11</title>
<path fill="none" stroke="#9a32cd" stroke-dasharray="5,2" d="M353.34,-73.22C378.26,-75.45 405.19,-77.86 429.92,-80.07"/>
<polygon fill="#9a32cd" stroke="#9a32cd" points="353.44,-69.71 343.17,-72.31 352.82,-76.69 353.44,-69.71"/>
<text text-anchor="middle" x="386.5" y="-80" font-family="Helvetica,sans-Serif" font-size="10.00"> item</text>
</g>
<!-- Node13 -->
<g id="node13" class="node">
<title>Node13</title>
<g id="a_node13"><a xlink:href="structfiftyone_degrees_collection.html" target="_top" xlink:title="All the shared methods and fields required by file, memory and cached collections.">
<polygon fill="none" stroke="black" points="448,-0.5 448,-19.5 591,-19.5 591,-0.5 448,-0.5"/>
<text text-anchor="middle" x="519.5" y="-7.5" font-family="Helvetica,sans-Serif" font-size="10.00">fiftyoneDegreesCollection</text>
</a>
</g>
</g>
<!-- Node12&#45;&gt;Node13 -->
<g id="edge14" class="edge">
<title>Node12&#45;&gt;Node13</title>
<path fill="none" stroke="#9a32cd" stroke-dasharray="5,2" d="M315.96,-53.34C362.9,-43.3 429.83,-28.98 473.71,-19.59"/>
<polygon fill="#9a32cd" stroke="#9a32cd" points="315.02,-49.97 305.97,-55.48 316.48,-56.81 315.02,-49.97"/>
<text text-anchor="middle" x="386.5" y="-45" font-family="Helvetica,sans-Serif" font-size="10.00"> release</text>
</g>
<!-- Node13&#45;&gt;Node12 -->
<g id="edge13" class="edge">
<title>Node13&#45;&gt;Node12</title>
<path fill="none" stroke="#9a32cd" stroke-dasharray="5,2" d="M437.67,-5.89C412.77,-6.4 385.47,-8.79 361,-15 328.4,-23.28 294.15,-43.4 275.55,-55.44"/>
<polygon fill="#9a32cd" stroke="#9a32cd" points="437.85,-9.39 447.81,-5.79 437.78,-2.39 437.85,-9.39"/>
<text text-anchor="middle" x="386.5" y="-18" font-family="Helvetica,sans-Serif" font-size="10.00"> collection</text>
</g>
<!-- Node13&#45;&gt;Node13 -->
<g id="edge15" class="edge">
<title>Node13&#45;&gt;Node13</title>
<path fill="none" stroke="#9a32cd" stroke-dasharray="5,2" d="M494.95,-29.03C496.29,-34.13 504.47,-38 519.5,-38 542.96,-38 549.74,-28.57 539.85,-19.76"/>
<polygon fill="#9a32cd" stroke="#9a32cd" points="498.21,-30.31 499.15,-19.76 491.83,-27.42 498.21,-30.31"/>
<text text-anchor="middle" x="519.5" y="-52" font-family="Helvetica,sans-Serif" font-size="10.00"> freeCollection</text>
<text text-anchor="middle" x="519.5" y="-41" font-family="Helvetica,sans-Serif" font-size="10.00">get</text>
</g>
<!-- Node14 -->
<g id="node14" class="node">
<title>Node14</title>
<g id="a_node14"><a xlink:href="structfiftyone_degrees_data.html" target="_top" xlink:title="Data structure used for reusing memory which may have been allocated in a previous operation.">
<polygon fill="none" stroke="black" points="0,-55.5 0,-74.5 117,-74.5 117,-55.5 0,-55.5"/>
<text text-anchor="middle" x="58.5" y="-62.5" font-family="Helvetica,sans-Serif" font-size="10.00">fiftyoneDegreesData</text>
</a>
</g>
</g>
<!-- Node14&#45;&gt;Node12 -->
<g id="edge16" class="edge">
<title>Node14&#45;&gt;Node12</title>
<path fill="none" stroke="#9a32cd" stroke-dasharray="5,2" d="M127.5,-65C143.67,-65 161.08,-65 177.78,-65"/>
<polygon fill="#9a32cd" stroke="#9a32cd" points="127.08,-61.5 117.08,-65 127.08,-68.5 127.08,-61.5"/>
<text text-anchor="middle" x="147.5" y="-68" font-family="Helvetica,sans-Serif" font-size="10.00"> data</text>
</g>
<!-- Node15 -->
<g id="node15" class="node">
<title>Node15</title>
<g id="a_node15"><a xlink:href="structfiftyone_degrees_results_base.html" target="_top" xlink:title="Base results structure which any processing results should extend.">
<polygon fill="none" stroke="black" points="740,-40.5 740,-59.5 894,-59.5 894,-40.5 740,-40.5"/>
<text text-anchor="middle" x="817" y="-47.5" font-family="Helvetica,sans-Serif" font-size="10.00">fiftyoneDegreesResultsBase</text>
</a>
</g>
</g>
<!-- Node15&#45;&gt;Node6 -->
<g id="edge17" class="edge">
<title>Node15&#45;&gt;Node6</title>
<path fill="none" stroke="#9a32cd" stroke-dasharray="5,2" d="M898.58,-61.28C922.81,-65.68 949.25,-71.51 973,-79 999.35,-87.31 1027.83,-100.59 1048.24,-110.92"/>
<polygon fill="#9a32cd" stroke="#9a32cd" points="899.17,-57.82 888.71,-59.54 897.95,-64.72 899.17,-57.82"/>
<text text-anchor="middle" x="949.5" y="-82" font-family="Helvetica,sans-Serif" font-size="10.00"> b</text>
</g>
</g>
</svg>
