<?xml version="1.0" encoding="UTF-8" standalone="no"?>
<!DOCTYPE svg PUBLIC "-//W3C//DTD SVG 1.1//EN"
 "http://www.w3.org/Graphics/SVG/1.1/DTD/svg11.dtd">
<!-- Generated by graphviz version 2.43.0 (0)
 -->
<!-- Title: sharedState Pages: 1 -->
<svg width="440pt" height="240pt"
 viewBox="0.00 0.00 439.50 240.00" xmlns="http://www.w3.org/2000/svg" xmlns:xlink="http://www.w3.org/1999/xlink">
<g id="graph0" class="graph" transform="scale(1 1) rotate(0) translate(4 236)">
<title>sharedState</title>
<!-- Node1 -->
<g id="node1" class="node">
<title>Node1</title>
<g id="a_node1"><a xlink:title="State containing the states for all threads running in the example.">
<polygon fill="#bfbfbf" stroke="black" points="65.5,-0.5 65.5,-19.5 140.5,-19.5 140.5,-0.5 65.5,-0.5"/>
<text text-anchor="middle" x="103" y="-7.5" font-family="Helvetica,sans-Serif" font-size="10.00">sharedState</text>
</a>
</g>
</g>
<!-- Node2 -->
<g id="node2" class="node">
<title>Node2</title>
<g id="a_node2"><a xlink:href="class_resource_manager.html" target="_top" xlink:title=" ">
<polygon fill="none" stroke="black" points="51,-67.5 51,-86.5 155,-86.5 155,-67.5 51,-67.5"/>
<text text-anchor="middle" x="103" y="-74.5" font-family="Helvetica,sans-Serif" font-size="10.00">ResourceManager</text>
</a>
</g>
</g>
<!-- Node2&#45;&gt;Node1 -->
<g id="edge1" class="edge">
<title>Node2&#45;&gt;Node1</title>
<path fill="none" stroke="#9a32cd" stroke-dasharray="5,2" d="M103,-57.04C103,-44.67 103,-29.12 103,-19.63"/>
<polygon fill="#9a32cd" stroke="#9a32cd" points="99.5,-57.23 103,-67.23 106.5,-57.23 99.5,-57.23"/>
<text text-anchor="middle" x="126.5" y="-41" font-family="Helvetica,sans-Serif" font-size="10.00"> manager</text>
</g>
<!-- Node3 -->
<g id="node3" class="node">
<title>Node3</title>
<g id="a_node3"><a xlink:href="class_base.html" target="_top" xlink:title="Base test class used to carry out memory leak checks.">
<polygon fill="none" stroke="black" points="21.5,-134.5 21.5,-153.5 62.5,-153.5 62.5,-134.5 21.5,-134.5"/>
<text text-anchor="middle" x="42" y="-141.5" font-family="Helvetica,sans-Serif" font-size="10.00">Base</text>
</a>
</g>
</g>
<!-- Node3&#45;&gt;Node2 -->
<g id="edge2" class="edge">
<title>Node3&#45;&gt;Node2</title>
<path fill="none" stroke="midnightblue" d="M57.36,-126.63C69.29,-113.92 85.36,-96.8 94.9,-86.63"/>
<polygon fill="midnightblue" stroke="midnightblue" points="54.52,-124.55 50.23,-134.23 59.62,-129.34 54.52,-124.55"/>
</g>
<!-- Node4 -->
<g id="node4" class="node">
<title>Node4</title>
<g id="a_node4"><a xlink:title=" ">
<polygon fill="none" stroke="#bfbfbf" points="0,-207 0,-226 76,-226 76,-207 0,-207"/>
<text text-anchor="middle" x="38" y="-214" font-family="Helvetica,sans-Serif" font-size="10.00">testing::Test</text>
</a>
</g>
</g>
<!-- Node4&#45;&gt;Node3 -->
<g id="edge3" class="edge">
<title>Node4&#45;&gt;Node3</title>
<path fill="none" stroke="midnightblue" d="M39.06,-196.86C39.85,-182.9 40.9,-164.43 41.51,-153.72"/>
<polygon fill="midnightblue" stroke="midnightblue" points="35.56,-196.67 38.49,-206.86 42.55,-197.07 35.56,-196.67"/>
</g>
<!-- Node5 -->
<g id="node5" class="node">
<title>Node5</title>
<g id="a_node5"><a xlink:href="structfiftyone_degrees_resource_manager.html" target="_top" xlink:title="Manager structure used to provide access to a shared and changing resource.">
<polygon fill="none" stroke="black" points="94,-207 94,-226 276,-226 276,-207 94,-207"/>
<text text-anchor="middle" x="185" y="-214" font-family="Helvetica,sans-Serif" font-size="10.00">fiftyoneDegreesResourceManager</text>
</a>
</g>
</g>
<!-- Node5&#45;&gt;Node2 -->
<g id="edge4" class="edge">
<title>Node5&#45;&gt;Node2</title>
<path fill="none" stroke="#9a32cd" stroke-dasharray="5,2" d="M160.12,-201.46C143.57,-190.72 122.94,-174.31 112,-154 100.15,-132.01 100.85,-101.33 102.06,-86.58"/>
<polygon fill="#9a32cd" stroke="#9a32cd" points="158.46,-204.55 168.8,-206.84 162.14,-198.6 158.46,-204.55"/>
<text text-anchor="middle" x="135.5" y="-141.5" font-family="Helvetica,sans-Serif" font-size="10.00"> manager</text>
</g>
<!-- Node6 -->
<g id="node6" class="node">
<title>Node6</title>
<g id="a_node6"><a xlink:href="structfiftyone_degrees_resource_handle.html" target="_top" xlink:title="Handle for a shared resource.">
<polygon fill="none" stroke="black" points="168.5,-134.5 168.5,-153.5 341.5,-153.5 341.5,-134.5 168.5,-134.5"/>
<text text-anchor="middle" x="255" y="-141.5" font-family="Helvetica,sans-Serif" font-size="10.00">fiftyoneDegreesResourceHandle</text>
</a>
</g>
</g>
<!-- Node5&#45;&gt;Node6 -->
<g id="edge6" class="edge">
<title>Node5&#45;&gt;Node6</title>
<path fill="none" stroke="#9a32cd" stroke-dasharray="5,2" d="M178.82,-197.32C177.13,-188.93 176.95,-179.25 182,-172 187.95,-163.46 196.92,-157.62 206.56,-153.62"/>
<polygon fill="#9a32cd" stroke="#9a32cd" points="175.45,-198.27 181.49,-206.97 182.2,-196.4 175.45,-198.27"/>
<text text-anchor="middle" x="205.5" y="-175" font-family="Helvetica,sans-Serif" font-size="10.00"> manager</text>
</g>
<!-- Node6&#45;&gt;Node2 -->
<g id="edge8" class="edge">
<title>Node6&#45;&gt;Node2</title>
<path fill="none" stroke="#9a32cd" stroke-dasharray="5,2" d="M225.26,-130.28C195.16,-117.41 149.43,-97.85 123.27,-86.67"/>
<polygon fill="#9a32cd" stroke="#9a32cd" points="224.24,-133.65 234.82,-134.37 227,-127.22 224.24,-133.65"/>
<text text-anchor="middle" x="229" y="-108" font-family="Helvetica,sans-Serif" font-size="10.00"> resourceHandle</text>
</g>
<!-- Node6&#45;&gt;Node5 -->
<g id="edge5" class="edge">
<title>Node6&#45;&gt;Node5</title>
<path fill="none" stroke="#9a32cd" stroke-dasharray="5,2" d="M246.88,-162.73C243.24,-169.54 238.52,-177.08 233,-183 223.94,-192.72 211.46,-201.06 201.5,-206.85"/>
<polygon fill="#9a32cd" stroke="#9a32cd" points="250.12,-164.09 251.41,-153.57 243.84,-160.99 250.12,-164.09"/>
<text text-anchor="middle" x="259" y="-175" font-family="Helvetica,sans-Serif" font-size="10.00"> active</text>
</g>
<!-- Node7 -->
<g id="node7" class="node">
<title>Node7</title>
<g id="a_node7"><a xlink:href="structfiftyone_degrees_interlock_double_width.html" target="_top" xlink:title="Double width (64 or 128 depending on the architecture) compare and exchange.">
<polygon fill="none" stroke="black" points="294.5,-201.5 294.5,-231.5 431.5,-231.5 431.5,-201.5 294.5,-201.5"/>
<text text-anchor="start" x="302.5" y="-219.5" font-family="Helvetica,sans-Serif" font-size="10.00">fiftyoneDegreesInterlock</text>
<text text-anchor="middle" x="363" y="-208.5" font-family="Helvetica,sans-Serif" font-size="10.00">DoubleWidth</text>
</a>
</g>
</g>
<!-- Node7&#45;&gt;Node6 -->
<g id="edge7" class="edge">
<title>Node7&#45;&gt;Node6</title>
<path fill="none" stroke="#9a32cd" stroke-dasharray="5,2" d="M332.99,-195.91C311.67,-181.99 284.07,-163.98 268.07,-153.53"/>
<polygon fill="#9a32cd" stroke="#9a32cd" points="331.12,-198.87 341.4,-201.4 334.94,-193.01 331.12,-198.87"/>
<text text-anchor="middle" x="333" y="-175" font-family="Helvetica,sans-Serif" font-size="10.00"> counter</text>
</g>
</g>
</svg>
