<?xml version="1.0" encoding="UTF-8" standalone="no"?>
<!DOCTYPE svg PUBLIC "-//W3C//DTD SVG 1.1//EN"
 "http://www.w3.org/Graphics/SVG/1.1/DTD/svg11.dtd">
<!-- Generated by graphviz version 2.43.0 (0)
 -->
<!-- Title: fixedSizeCollectionState Pages: 1 -->
<svg width="416pt" height="108pt"
 viewBox="0.00 0.00 415.50 108.00" xmlns="http://www.w3.org/2000/svg" xmlns:xlink="http://www.w3.org/1999/xlink">
<g id="graph0" class="graph" transform="scale(1 1) rotate(0) translate(4 104)">
<title>fixedSizeCollectionState</title>
<!-- Node1 -->
<g id="node1" class="node">
<title>Node1</title>
<g id="a_node1"><a xlink:title=" ">
<polygon fill="#bfbfbf" stroke="black" points="0,-0.5 0,-19.5 134,-19.5 134,-0.5 0,-0.5"/>
<text text-anchor="middle" x="67" y="-7.5" font-family="Helvetica,sans-Serif" font-size="10.00">fixedSizeCollectionState</text>
</a>
</g>
</g>
<!-- Node2 -->
<g id="node2" class="node">
<title>Node2</title>
<g id="a_node2"><a xlink:href="structfiftyone_degrees_collection.html" target="_top" xlink:title="All the shared methods and fields required by file, memory and cached collections.">
<polygon fill="none" stroke="black" points="42.5,-74 42.5,-93 185.5,-93 185.5,-74 42.5,-74"/>
<text text-anchor="middle" x="114" y="-81" font-family="Helvetica,sans-Serif" font-size="10.00">fiftyoneDegreesCollection</text>
</a>
</g>
</g>
<!-- Node2&#45;&gt;Node1 -->
<g id="edge1" class="edge">
<title>Node2&#45;&gt;Node1</title>
<path fill="none" stroke="#9a32cd" stroke-dasharray="5,2" d="M90.44,-68.04C83.8,-62.84 77.25,-56.4 73,-49 67.81,-39.96 66.72,-27.83 66.66,-19.73"/>
<polygon fill="#9a32cd" stroke="#9a32cd" points="88.54,-70.98 98.71,-73.94 92.61,-65.28 88.54,-70.98"/>
<text text-anchor="middle" x="98.5" y="-41" font-family="Helvetica,sans-Serif" font-size="10.00"> collection</text>
</g>
<!-- Node2&#45;&gt;Node2 -->
<g id="edge5" class="edge">
<title>Node2&#45;&gt;Node2</title>
<path fill="none" stroke="#9a32cd" stroke-dasharray="5,2" d="M195.61,-88.69C200.54,-87.46 203.5,-85.73 203.5,-83.5 203.5,-80.02 196.29,-77.76 185.63,-76.7"/>
<polygon fill="#9a32cd" stroke="#9a32cd" points="194.94,-85.26 185.63,-90.3 196.06,-92.17 194.94,-85.26"/>
<text text-anchor="middle" x="238" y="-92" font-family="Helvetica,sans-Serif" font-size="10.00"> next</text>
<text text-anchor="middle" x="238" y="-81" font-family="Helvetica,sans-Serif" font-size="10.00">freeCollection</text>
<text text-anchor="middle" x="238" y="-70" font-family="Helvetica,sans-Serif" font-size="10.00">get</text>
</g>
<!-- Node3 -->
<g id="node3" class="node">
<title>Node3</title>
<g id="a_node3"><a xlink:href="structfiftyone_degrees_collection_item.html" target="_top" xlink:title="Used to store a handle to the underlying item that could be used to release the item when it&#39;s finish...">
<polygon fill="none" stroke="black" points="152.5,-0.5 152.5,-19.5 317.5,-19.5 317.5,-0.5 152.5,-0.5"/>
<text text-anchor="middle" x="235" y="-7.5" font-family="Helvetica,sans-Serif" font-size="10.00">fiftyoneDegreesCollectionItem</text>
</a>
</g>
</g>
<!-- Node2&#45;&gt;Node3 -->
<g id="edge3" class="edge">
<title>Node2&#45;&gt;Node3</title>
<path fill="none" stroke="#9a32cd" stroke-dasharray="5,2" d="M122.81,-65.16C128.32,-55.89 136.24,-44.99 146,-38 157.95,-29.45 172.65,-23.57 186.64,-19.54"/>
<polygon fill="#9a32cd" stroke="#9a32cd" points="119.7,-63.55 117.95,-73.99 125.84,-66.92 119.7,-63.55"/>
<text text-anchor="middle" x="171.5" y="-41" font-family="Helvetica,sans-Serif" font-size="10.00"> collection</text>
</g>
<!-- Node3&#45;&gt;Node2 -->
<g id="edge2" class="edge">
<title>Node3&#45;&gt;Node2</title>
<path fill="none" stroke="#9a32cd" stroke-dasharray="5,2" d="M223.04,-27.62C217.09,-34.96 209.38,-43.22 201,-49 184.62,-60.31 163.89,-68.49 146.78,-73.93"/>
<polygon fill="#9a32cd" stroke="#9a32cd" points="225.86,-29.7 229.16,-19.63 220.3,-25.44 225.86,-29.7"/>
<text text-anchor="middle" x="234" y="-41" font-family="Helvetica,sans-Serif" font-size="10.00"> release</text>
</g>
<!-- Node4 -->
<g id="node4" class="node">
<title>Node4</title>
<g id="a_node4"><a xlink:href="structfiftyone_degrees_data.html" target="_top" xlink:title="Data structure used for reusing memory which may have been allocated in a previous operation.">
<polygon fill="none" stroke="black" points="290.5,-74 290.5,-93 407.5,-93 407.5,-74 290.5,-74"/>
<text text-anchor="middle" x="349" y="-81" font-family="Helvetica,sans-Serif" font-size="10.00">fiftyoneDegreesData</text>
</a>
</g>
</g>
<!-- Node4&#45;&gt;Node3 -->
<g id="edge4" class="edge">
<title>Node4&#45;&gt;Node3</title>
<path fill="none" stroke="#9a32cd" stroke-dasharray="5,2" d="M326.51,-68.4C303.36,-53.87 268.02,-31.71 248.74,-19.62"/>
<polygon fill="#9a32cd" stroke="#9a32cd" points="324.69,-71.38 335.02,-73.73 328.41,-65.45 324.69,-71.38"/>
<text text-anchor="middle" x="308.5" y="-41" font-family="Helvetica,sans-Serif" font-size="10.00"> data</text>
</g>
</g>
</svg>
