<?xml version="1.0" encoding="UTF-8" standalone="no"?>
<!DOCTYPE svg PUBLIC "-//W3C//DTD SVG 1.1//EN"
 "http://www.w3.org/Graphics/SVG/1.1/DTD/svg11.dtd">
<!-- Generated by graphviz version 2.43.0 (0)
 -->
<!-- Title: fiftyoneDegreesIpiCgInfo Pages: 1 -->
<svg width="328pt" height="208pt"
 viewBox="0.00 0.00 328.00 208.00" xmlns="http://www.w3.org/2000/svg" xmlns:xlink="http://www.w3.org/1999/xlink">
<g id="graph0" class="graph" transform="scale(1 1) rotate(0) translate(4 204)">
<title>fiftyoneDegreesIpiCgInfo</title>
<!-- Node1 -->
<g id="node1" class="node">
<title>Node1</title>
<g id="a_node1"><a xlink:title="Fixed width record in the collection where the record relates to a component and IP version.">
<polygon fill="#bfbfbf" stroke="black" points="116,-0.5 116,-19.5 253,-19.5 253,-0.5 116,-0.5"/>
<text text-anchor="middle" x="184.5" y="-7.5" font-family="Helvetica,sans-Serif" font-size="10.00">fiftyoneDegreesIpiCgInfo</text>
</a>
</g>
</g>
<!-- Node2 -->
<g id="node2" class="node">
<title>Node2</title>
<g id="a_node2"><a xlink:href="structfiftyone_degrees_ipi_cg_member_node.html" target="_top" xlink:title="Data structure used for the values collection.">
<polygon fill="none" stroke="black" points="27,-74 27,-93 212,-93 212,-74 27,-74"/>
<text text-anchor="middle" x="119.5" y="-81" font-family="Helvetica,sans-Serif" font-size="10.00">fiftyoneDegreesIpiCgMemberNode</text>
</a>
</g>
</g>
<!-- Node2&#45;&gt;Node1 -->
<g id="edge1" class="edge">
<title>Node2&#45;&gt;Node1</title>
<path fill="none" stroke="#9a32cd" stroke-dasharray="5,2" d="M134.44,-66.07C147.51,-51.69 166,-31.35 176.46,-19.84"/>
<polygon fill="#9a32cd" stroke="#9a32cd" points="131.61,-63.98 127.47,-73.73 136.79,-68.69 131.61,-63.98"/>
<text text-anchor="middle" x="177" y="-41" font-family="Helvetica,sans-Serif" font-size="10.00"> nodes</text>
</g>
<!-- Node3 -->
<g id="node3" class="node">
<title>Node3</title>
<g id="a_node3"><a xlink:href="structfiftyone_degrees_ipi_cg_member.html" target="_top" xlink:title="DATA STRUCTURES.">
<polygon fill="none" stroke="black" points="0,-175 0,-194 159,-194 159,-175 0,-175"/>
<text text-anchor="middle" x="79.5" y="-182" font-family="Helvetica,sans-Serif" font-size="10.00">fiftyoneDegreesIpiCgMember</text>
</a>
</g>
</g>
<!-- Node3&#45;&gt;Node2 -->
<g id="edge2" class="edge">
<title>Node3&#45;&gt;Node2</title>
<path fill="none" stroke="#9a32cd" stroke-dasharray="5,2" d="M81.27,-164.61C83.06,-151.13 86.6,-132.83 93.5,-118 97.85,-108.65 105.21,-99.51 111,-93.14"/>
<polygon fill="#9a32cd" stroke="#9a32cd" points="77.78,-164.3 80.14,-174.63 84.74,-165.08 77.78,-164.3"/>
<text text-anchor="middle" x="120.5" y="-143" font-family="Helvetica,sans-Serif" font-size="10.00"> spanIndex</text>
<text text-anchor="middle" x="120.5" y="-132" font-family="Helvetica,sans-Serif" font-size="10.00">lowFlag</text>
<text text-anchor="middle" x="120.5" y="-121" font-family="Helvetica,sans-Serif" font-size="10.00">value</text>
</g>
<!-- Node4 -->
<g id="node4" class="node">
<title>Node4</title>
<g id="a_node4"><a xlink:href="structfiftyone_degrees_collection_header.html" target="_top" xlink:title="Collection header structure which defines the size and location of the collection data.">
<polygon fill="none" stroke="black" points="177,-169.5 177,-199.5 320,-199.5 320,-169.5 177,-169.5"/>
<text text-anchor="start" x="185" y="-187.5" font-family="Helvetica,sans-Serif" font-size="10.00">fiftyoneDegreesCollection</text>
<text text-anchor="middle" x="248.5" y="-176.5" font-family="Helvetica,sans-Serif" font-size="10.00">Header</text>
</a>
</g>
</g>
<!-- Node4&#45;&gt;Node1 -->
<g id="edge4" class="edge">
<title>Node4&#45;&gt;Node1</title>
<path fill="none" stroke="#9a32cd" stroke-dasharray="5,2" d="M245.33,-159.26C241.57,-135.1 234.02,-97.31 220.5,-67 212.49,-49.06 199.25,-30.25 191.25,-19.64"/>
<polygon fill="#9a32cd" stroke="#9a32cd" points="241.89,-159.94 246.8,-169.33 248.82,-158.93 241.89,-159.94"/>
<text text-anchor="middle" x="257.5" y="-92" font-family="Helvetica,sans-Serif" font-size="10.00"> clusters</text>
<text text-anchor="middle" x="257.5" y="-81" font-family="Helvetica,sans-Serif" font-size="10.00">spanBytes</text>
<text text-anchor="middle" x="257.5" y="-70" font-family="Helvetica,sans-Serif" font-size="10.00">spans</text>
</g>
<!-- Node4&#45;&gt;Node2 -->
<g id="edge3" class="edge">
<title>Node4&#45;&gt;Node2</title>
<path fill="none" stroke="#9a32cd" stroke-dasharray="5,2" d="M205.85,-164.81C198.14,-160.7 190.37,-156.05 183.5,-151 159.75,-133.53 137.08,-106.82 126.2,-93.18"/>
<polygon fill="#9a32cd" stroke="#9a32cd" points="204.33,-167.96 214.83,-169.37 207.5,-161.72 204.33,-167.96"/>
<text text-anchor="middle" x="209" y="-132" font-family="Helvetica,sans-Serif" font-size="10.00"> collection</text>
</g>
</g>
</svg>
