<?xml version="1.0" encoding="UTF-8" standalone="no"?>
<!DOCTYPE svg PUBLIC "-//W3C//DTD SVG 1.1//EN"
 "http://www.w3.org/Graphics/SVG/1.1/DTD/svg11.dtd">
<!-- Generated by graphviz version 2.43.0 (0)
 -->
<!-- Title: threadState Pages: 1 -->
<svg width="1318pt" height="330pt"
 viewBox="0.00 0.00 1318.00 329.50" xmlns="http://www.w3.org/2000/svg" xmlns:xlink="http://www.w3.org/1999/xlink">
<g id="graph0" class="graph" transform="scale(1 1) rotate(0) translate(4 325.5)">
<title>threadState</title>
<!-- Node1 -->
<g id="node1" class="node">
<title>Node1</title>
<g id="a_node1"><a xlink:title="State specific to a single thread.">
<polygon fill="#bfbfbf" stroke="black" points="996,-144.5 996,-163.5 1070,-163.5 1070,-144.5 996,-144.5"/>
<text text-anchor="middle" x="1033" y="-151.5" font-family="Helvetica,sans-Serif" font-size="10.00">threadState</text>
</a>
</g>
</g>
<!-- Node6 -->
<g id="node6" class="node">
<title>Node6</title>
<g id="a_node6"><a xlink:href="structperformance_state.html" target="_top" xlink:title="Shared performance state.">
<polygon fill="none" stroke="black" points="1206,-83.5 1206,-102.5 1310,-102.5 1310,-83.5 1206,-83.5"/>
<text text-anchor="middle" x="1258" y="-90.5" font-family="Helvetica,sans-Serif" font-size="10.00">performanceState</text>
</a>
</g>
</g>
<!-- Node1&#45;&gt;Node6 -->
<g id="edge14" class="edge">
<title>Node1&#45;&gt;Node6</title>
<path fill="none" stroke="#9a32cd" stroke-dasharray="5,2" d="M1080.23,-148.86C1111.23,-144.63 1152.69,-137.43 1188,-126 1206.57,-119.99 1226.57,-110 1240.23,-102.58"/>
<polygon fill="#9a32cd" stroke="#9a32cd" points="1079.6,-145.42 1070.14,-150.19 1080.51,-152.36 1079.6,-145.42"/>
<text text-anchor="middle" x="1145.5" y="-149" font-family="Helvetica,sans-Serif" font-size="10.00"> threadStates</text>
</g>
<!-- Node2 -->
<g id="node2" class="node">
<title>Node2</title>
<g id="a_node2"><a xlink:href="structevidence_node.html" target="_top" xlink:title=" ">
<polygon fill="none" stroke="black" points="782,-196.5 782,-215.5 868,-215.5 868,-196.5 782,-196.5"/>
<text text-anchor="middle" x="825" y="-203.5" font-family="Helvetica,sans-Serif" font-size="10.00">evidenceNode</text>
</a>
</g>
</g>
<!-- Node2&#45;&gt;Node1 -->
<g id="edge1" class="edge">
<title>Node2&#45;&gt;Node1</title>
<path fill="none" stroke="#9a32cd" stroke-dasharray="5,2" d="M873.9,-193.91C911.13,-184.51 961.97,-171.68 995.84,-163.13"/>
<polygon fill="#9a32cd" stroke="#9a32cd" points="872.62,-190.62 863.78,-196.46 874.34,-197.41 872.62,-190.62"/>
<text text-anchor="middle" x="929" y="-202" font-family="Helvetica,sans-Serif" font-size="10.00"> evidenceLast</text>
<text text-anchor="middle" x="929" y="-191" font-family="Helvetica,sans-Serif" font-size="10.00">evidenceFirst</text>
</g>
<!-- Node2&#45;&gt;Node2 -->
<g id="edge2" class="edge">
<title>Node2&#45;&gt;Node2</title>
<path fill="none" stroke="#9a32cd" stroke-dasharray="5,2" d="M805.74,-225.4C807.03,-230.31 813.45,-234 825,-234 843.48,-234 848.83,-224.57 841.03,-215.76"/>
<polygon fill="#9a32cd" stroke="#9a32cd" points="809.11,-226.35 808.97,-215.76 802.48,-224.13 809.11,-226.35"/>
<text text-anchor="middle" x="825" y="-237" font-family="Helvetica,sans-Serif" font-size="10.00"> next</text>
</g>
<!-- Node3 -->
<g id="node3" class="node">
<title>Node3</title>
<g id="a_node3"><a xlink:href="structfiftyone_degrees_evidence_key_value_pair_array.html" target="_top" xlink:title="Array of evidence key value pairs and a pointer to the next array if present or NULL of not present.">
<polygon fill="none" stroke="black" points="492.5,-251 492.5,-281 648.5,-281 648.5,-251 492.5,-251"/>
<text text-anchor="start" x="500.5" y="-269" font-family="Helvetica,sans-Serif" font-size="10.00">fiftyoneDegreesEvidenceKey</text>
<text text-anchor="middle" x="570.5" y="-258" font-family="Helvetica,sans-Serif" font-size="10.00">ValuePairArray</text>
</a>
</g>
</g>
<!-- Node3&#45;&gt;Node2 -->
<g id="edge3" class="edge">
<title>Node3&#45;&gt;Node2</title>
<path fill="none" stroke="#9a32cd" stroke-dasharray="5,2" d="M644.68,-248.61C690.04,-237.83 746.56,-224.4 783.89,-215.53"/>
<polygon fill="#9a32cd" stroke="#9a32cd" points="643.81,-245.22 634.89,-250.94 645.43,-252.03 643.81,-245.22"/>
<text text-anchor="middle" x="715" y="-245" font-family="Helvetica,sans-Serif" font-size="10.00"> array</text>
</g>
<!-- Node3&#45;&gt;Node3 -->
<g id="edge6" class="edge">
<title>Node3&#45;&gt;Node3</title>
<path fill="none" stroke="#9a32cd" stroke-dasharray="5,2" d="M547.76,-291.46C550.58,-296.18 558.16,-299.5 570.5,-299.5 590.75,-299.5 598.19,-290.56 592.81,-281.16"/>
<polygon fill="#9a32cd" stroke="#9a32cd" points="551.27,-291.3 548.19,-281.16 544.27,-291 551.27,-291.3"/>
<text text-anchor="middle" x="570.5" y="-313.5" font-family="Helvetica,sans-Serif" font-size="10.00"> prev</text>
<text text-anchor="middle" x="570.5" y="-302.5" font-family="Helvetica,sans-Serif" font-size="10.00">next</text>
</g>
<!-- Node4 -->
<g id="node4" class="node">
<title>Node4</title>
<g id="a_node4"><a xlink:href="structfiftyone_degrees_evidence_key_value_pair.html" target="_top" xlink:title="Evidence key value pair structure which combines the prefix, key and value.">
<polygon fill="none" stroke="black" points="232,-277 232,-307 388,-307 388,-277 232,-277"/>
<text text-anchor="start" x="240" y="-295" font-family="Helvetica,sans-Serif" font-size="10.00">fiftyoneDegreesEvidenceKey</text>
<text text-anchor="middle" x="310" y="-284" font-family="Helvetica,sans-Serif" font-size="10.00">ValuePair</text>
</a>
</g>
</g>
<!-- Node4&#45;&gt;Node3 -->
<g id="edge4" class="edge">
<title>Node4&#45;&gt;Node3</title>
<path fill="none" stroke="#9a32cd" stroke-dasharray="5,2" d="M398.38,-283.21C428.81,-280.15 462.7,-276.74 492.24,-273.77"/>
<polygon fill="#9a32cd" stroke="#9a32cd" points="397.81,-279.75 388.21,-284.23 398.51,-286.72 397.81,-279.75"/>
<text text-anchor="middle" x="442.5" y="-284" font-family="Helvetica,sans-Serif" font-size="10.00"> items</text>
</g>
<!-- Node5 -->
<g id="node5" class="node">
<title>Node5</title>
<g id="a_node5"><a xlink:href="structfiftyone_degrees_key_value_pair.html" target="_top" xlink:title=" ">
<polygon fill="none" stroke="black" points="0,-282.5 0,-301.5 157,-301.5 157,-282.5 0,-282.5"/>
<text text-anchor="middle" x="78.5" y="-289.5" font-family="Helvetica,sans-Serif" font-size="10.00">fiftyoneDegreesKeyValuePair</text>
</a>
</g>
</g>
<!-- Node5&#45;&gt;Node4 -->
<g id="edge5" class="edge">
<title>Node5&#45;&gt;Node4</title>
<path fill="none" stroke="#9a32cd" stroke-dasharray="5,2" d="M167.48,-292C188.66,-292 211.12,-292 231.77,-292"/>
<polygon fill="#9a32cd" stroke="#9a32cd" points="167.2,-288.5 157.2,-292 167.2,-295.5 167.2,-288.5"/>
<text text-anchor="middle" x="188" y="-295" font-family="Helvetica,sans-Serif" font-size="10.00"> item</text>
</g>
<!-- Node6&#45;&gt;Node1 -->
<g id="edge7" class="edge">
<title>Node6&#45;&gt;Node1</title>
<path fill="none" stroke="#9a32cd" stroke-dasharray="5,2" d="M1195.65,-96.5C1166.93,-99.46 1132.6,-104.92 1103,-115 1082.29,-122.05 1060.69,-135.39 1047.29,-144.48"/>
<polygon fill="#9a32cd" stroke="#9a32cd" points="1196.34,-99.95 1205.96,-95.52 1195.67,-92.98 1196.34,-99.95"/>
<text text-anchor="middle" x="1145.5" y="-118" font-family="Helvetica,sans-Serif" font-size="10.00"> mainState</text>
</g>
<!-- Node7 -->
<g id="node7" class="node">
<title>Node7</title>
<g id="a_node7"><a xlink:href="structfiftyone_degrees_resource_manager.html" target="_top" xlink:title="Manager structure used to provide access to a shared and changing resource.">
<polygon fill="none" stroke="black" points="219,-119.5 219,-138.5 401,-138.5 401,-119.5 219,-119.5"/>
<text text-anchor="middle" x="310" y="-126.5" font-family="Helvetica,sans-Serif" font-size="10.00">fiftyoneDegreesResourceManager</text>
</a>
</g>
</g>
<!-- Node7&#45;&gt;Node6 -->
<g id="edge8" class="edge">
<title>Node7&#45;&gt;Node6</title>
<path fill="none" stroke="#9a32cd" stroke-dasharray="5,2" d="M349.05,-116.42C399.04,-101.03 489.84,-77 569.5,-77 569.5,-77 569.5,-77 1034,-77 1093,-77 1160.55,-82.64 1205.7,-87.22"/>
<polygon fill="#9a32cd" stroke="#9a32cd" points="347.81,-113.13 339.31,-119.46 349.9,-119.82 347.81,-113.13"/>
<text text-anchor="middle" x="825" y="-80" font-family="Helvetica,sans-Serif" font-size="10.00"> manager</text>
</g>
<!-- Node8 -->
<g id="node8" class="node">
<title>Node8</title>
<g id="a_node8"><a xlink:href="structfiftyone_degrees_resource_handle.html" target="_top" xlink:title="Handle for a shared resource.">
<polygon fill="none" stroke="black" points="484,-155.5 484,-174.5 657,-174.5 657,-155.5 484,-155.5"/>
<text text-anchor="middle" x="570.5" y="-162.5" font-family="Helvetica,sans-Serif" font-size="10.00">fiftyoneDegreesResourceHandle</text>
</a>
</g>
</g>
<!-- Node7&#45;&gt;Node8 -->
<g id="edge10" class="edge">
<title>Node7&#45;&gt;Node8</title>
<path fill="none" stroke="#9a32cd" stroke-dasharray="5,2" d="M411.4,-137.18C429.61,-139.1 448.4,-141.37 466,-144 486.31,-147.03 508.66,-151.43 527.38,-155.42"/>
<polygon fill="#9a32cd" stroke="#9a32cd" points="411.66,-133.69 401.35,-136.15 410.94,-140.65 411.66,-133.69"/>
<text text-anchor="middle" x="442.5" y="-147" font-family="Helvetica,sans-Serif" font-size="10.00"> manager</text>
</g>
<!-- Node11 -->
<g id="node11" class="node">
<title>Node11</title>
<g id="a_node11"><a xlink:href="class_resource_manager.html" target="_top" xlink:title=" ">
<polygon fill="none" stroke="black" points="773,-147.5 773,-166.5 877,-166.5 877,-147.5 773,-147.5"/>
<text text-anchor="middle" x="825" y="-154.5" font-family="Helvetica,sans-Serif" font-size="10.00">ResourceManager</text>
</a>
</g>
</g>
<!-- Node7&#45;&gt;Node11 -->
<g id="edge18" class="edge">
<title>Node7&#45;&gt;Node11</title>
<path fill="none" stroke="#9a32cd" stroke-dasharray="5,2" d="M411.12,-127.73C480.28,-127.59 574.34,-128.86 657,-135 696.08,-137.9 740,-143.8 772.99,-148.75"/>
<polygon fill="#9a32cd" stroke="#9a32cd" points="411.09,-124.23 401.1,-127.76 411.11,-131.23 411.09,-124.23"/>
<text text-anchor="middle" x="570.5" y="-138" font-family="Helvetica,sans-Serif" font-size="10.00"> manager</text>
</g>
<!-- Node8&#45;&gt;Node7 -->
<g id="edge9" class="edge">
<title>Node8&#45;&gt;Node7</title>
<path fill="none" stroke="#9a32cd" stroke-dasharray="5,2" d="M473.6,-162.79C455.4,-161.55 436.56,-159.72 419,-157 392.39,-152.89 362.84,-144.98 341.38,-138.62"/>
<polygon fill="#9a32cd" stroke="#9a32cd" points="473.44,-166.28 483.63,-163.41 473.87,-159.3 473.44,-166.28"/>
<text text-anchor="middle" x="442.5" y="-166" font-family="Helvetica,sans-Serif" font-size="10.00"> active</text>
</g>
<!-- Node8&#45;&gt;Node11 -->
<g id="edge19" class="edge">
<title>Node8&#45;&gt;Node11</title>
<path fill="none" stroke="#9a32cd" stroke-dasharray="5,2" d="M667.37,-161.96C703.29,-160.82 742.7,-159.58 773,-158.62"/>
<polygon fill="#9a32cd" stroke="#9a32cd" points="667.22,-158.47 657.34,-162.28 667.44,-165.46 667.22,-158.47"/>
<text text-anchor="middle" x="715" y="-165" font-family="Helvetica,sans-Serif" font-size="10.00"> resourceHandle</text>
</g>
<!-- Node9 -->
<g id="node9" class="node">
<title>Node9</title>
<g id="a_node9"><a xlink:href="structfiftyone_degrees_interlock_double_width.html" target="_top" xlink:title="Double width (64 or 128 depending on the architecture) compare and exchange.">
<polygon fill="none" stroke="black" points="241.5,-189 241.5,-219 378.5,-219 378.5,-189 241.5,-189"/>
<text text-anchor="start" x="249.5" y="-207" font-family="Helvetica,sans-Serif" font-size="10.00">fiftyoneDegreesInterlock</text>
<text text-anchor="middle" x="310" y="-196" font-family="Helvetica,sans-Serif" font-size="10.00">DoubleWidth</text>
</a>
</g>
</g>
<!-- Node9&#45;&gt;Node8 -->
<g id="edge11" class="edge">
<title>Node9&#45;&gt;Node8</title>
<path fill="none" stroke="#9a32cd" stroke-dasharray="5,2" d="M388.49,-192.31C426.13,-186.63 470.77,-179.89 506.31,-174.53"/>
<polygon fill="#9a32cd" stroke="#9a32cd" points="387.95,-188.85 378.58,-193.8 388.99,-195.77 387.95,-188.85"/>
<text text-anchor="middle" x="442.5" y="-190" font-family="Helvetica,sans-Serif" font-size="10.00"> counter</text>
</g>
<!-- Node10 -->
<g id="node10" class="node">
<title>Node10</title>
<g id="a_node10"><a xlink:href="structshared_string_node.html" target="_top" xlink:title=" ">
<polygon fill="none" stroke="black" points="981,-0.5 981,-19.5 1085,-19.5 1085,-0.5 981,-0.5"/>
<text text-anchor="middle" x="1033" y="-7.5" font-family="Helvetica,sans-Serif" font-size="10.00">sharedStringNode</text>
</a>
</g>
</g>
<!-- Node10&#45;&gt;Node6 -->
<g id="edge12" class="edge">
<title>Node10&#45;&gt;Node6</title>
<path fill="none" stroke="#9a32cd" stroke-dasharray="5,2" d="M1095.35,-15.96C1124.38,-20.36 1158.96,-27.95 1188,-41 1211.53,-51.57 1234.59,-71.41 1247.19,-83.29"/>
<polygon fill="#9a32cd" stroke="#9a32cd" points="1095.73,-12.48 1085.34,-14.53 1094.74,-19.41 1095.73,-12.48"/>
<text text-anchor="middle" x="1145.5" y="-55" font-family="Helvetica,sans-Serif" font-size="10.00"> sharedStringLast</text>
<text text-anchor="middle" x="1145.5" y="-44" font-family="Helvetica,sans-Serif" font-size="10.00">sharedStringFirst</text>
</g>
<!-- Node10&#45;&gt;Node10 -->
<g id="edge13" class="edge">
<title>Node10&#45;&gt;Node10</title>
<path fill="none" stroke="#9a32cd" stroke-dasharray="5,2" d="M1013.74,-29.4C1015.03,-34.31 1021.45,-38 1033,-38 1051.48,-38 1056.83,-28.57 1049.03,-19.76"/>
<polygon fill="#9a32cd" stroke="#9a32cd" points="1017.11,-30.35 1016.97,-19.76 1010.48,-28.13 1017.11,-30.35"/>
<text text-anchor="middle" x="1033" y="-41" font-family="Helvetica,sans-Serif" font-size="10.00"> next</text>
</g>
<!-- Node11&#45;&gt;Node1 -->
<g id="edge15" class="edge">
<title>Node11&#45;&gt;Node1</title>
<path fill="none" stroke="#9a32cd" stroke-dasharray="5,2" d="M887.41,-156.11C922.79,-155.59 966.04,-154.96 995.97,-154.52"/>
<polygon fill="#9a32cd" stroke="#9a32cd" points="887.13,-152.61 877.19,-156.25 887.24,-159.61 887.13,-152.61"/>
<text text-anchor="middle" x="929" y="-159" font-family="Helvetica,sans-Serif" font-size="10.00"> manager</text>
</g>
<!-- Node12 -->
<g id="node12" class="node">
<title>Node12</title>
<g id="a_node12"><a xlink:href="class_base.html" target="_top" xlink:title="Base test class used to carry out memory leak checks.">
<polygon fill="none" stroke="black" points="550,-206.5 550,-225.5 591,-225.5 591,-206.5 550,-206.5"/>
<text text-anchor="middle" x="570.5" y="-213.5" font-family="Helvetica,sans-Serif" font-size="10.00">Base</text>
</a>
</g>
</g>
<!-- Node12&#45;&gt;Node11 -->
<g id="edge16" class="edge">
<title>Node12&#45;&gt;Node11</title>
<path fill="none" stroke="midnightblue" d="M601.11,-210.4C637.51,-203.35 701.09,-190.52 755,-177 767.46,-173.87 781.06,-170.03 792.87,-166.54"/>
<polygon fill="midnightblue" stroke="midnightblue" points="600.32,-206.98 591.16,-212.31 601.64,-213.86 600.32,-206.98"/>
</g>
<!-- Node13 -->
<g id="node13" class="node">
<title>Node13</title>
<g id="a_node13"><a xlink:title=" ">
<polygon fill="none" stroke="#bfbfbf" points="272,-238.5 272,-257.5 348,-257.5 348,-238.5 272,-238.5"/>
<text text-anchor="middle" x="310" y="-245.5" font-family="Helvetica,sans-Serif" font-size="10.00">testing::Test</text>
</a>
</g>
</g>
<!-- Node13&#45;&gt;Node12 -->
<g id="edge17" class="edge">
<title>Node13&#45;&gt;Node12</title>
<path fill="none" stroke="midnightblue" d="M358.27,-242.15C415.46,-235.07 509.13,-223.47 549.72,-218.45"/>
<polygon fill="midnightblue" stroke="midnightblue" points="357.53,-238.71 348.04,-243.42 358.39,-245.66 357.53,-238.71"/>
</g>
</g>
</svg>
