<?xml version="1.0" encoding="UTF-8" standalone="no"?>
<!DOCTYPE svg PUBLIC "-//W3C//DTD SVG 1.1//EN"
 "http://www.w3.org/Graphics/SVG/1.1/DTD/svg11.dtd">
<!-- Generated by graphviz version 2.43.0 (0)
 -->
<!-- Title: valueSearch Pages: 1 -->
<svg width="548pt" height="108pt"
 viewBox="0.00 0.00 548.00 108.00" xmlns="http://www.w3.org/2000/svg" xmlns:xlink="http://www.w3.org/1999/xlink">
<g id="graph0" class="graph" transform="scale(1 1) rotate(0) translate(4 104)">
<title>valueSearch</title>
<!-- Node1 -->
<g id="node1" class="node">
<title>Node1</title>
<g id="a_node1"><a xlink:title=" ">
<polygon fill="#bfbfbf" stroke="black" points="135,-0.5 135,-19.5 212,-19.5 212,-0.5 135,-0.5"/>
<text text-anchor="middle" x="173.5" y="-7.5" font-family="Helvetica,sans-Serif" font-size="10.00">valueSearch</text>
</a>
</g>
</g>
<!-- Node2 -->
<g id="node2" class="node">
<title>Node2</title>
<g id="a_node2"><a xlink:href="structfiftyone_degrees_string_builder.html" target="_top" xlink:title="String buffer for building strings with memory checks.">
<polygon fill="none" stroke="black" points="0,-74 0,-93 157,-93 157,-74 0,-74"/>
<text text-anchor="middle" x="78.5" y="-81" font-family="Helvetica,sans-Serif" font-size="10.00">fiftyoneDegreesStringBuilder</text>
</a>
</g>
</g>
<!-- Node2&#45;&gt;Node1 -->
<g id="edge1" class="edge">
<title>Node2&#45;&gt;Node1</title>
<path fill="none" stroke="#9a32cd" stroke-dasharray="5,2" d="M89.06,-65.34C95.29,-56.3 103.85,-45.55 113.5,-38 123.58,-30.12 136.32,-23.97 147.47,-19.54"/>
<polygon fill="#9a32cd" stroke="#9a32cd" points="85.98,-63.66 83.45,-73.95 91.85,-67.48 85.98,-63.66"/>
<text text-anchor="middle" x="145.5" y="-41" font-family="Helvetica,sans-Serif" font-size="10.00"> tempBuilder</text>
</g>
<!-- Node3 -->
<g id="node3" class="node">
<title>Node3</title>
<g id="a_node3"><a xlink:href="structfiftyone_degrees_collection.html" target="_top" xlink:title="All the shared methods and fields required by file, memory and cached collections.">
<polygon fill="none" stroke="black" points="175,-74 175,-93 318,-93 318,-74 175,-74"/>
<text text-anchor="middle" x="246.5" y="-81" font-family="Helvetica,sans-Serif" font-size="10.00">fiftyoneDegreesCollection</text>
</a>
</g>
</g>
<!-- Node3&#45;&gt;Node1 -->
<g id="edge2" class="edge">
<title>Node3&#45;&gt;Node1</title>
<path fill="none" stroke="#9a32cd" stroke-dasharray="5,2" d="M214.35,-69.49C204.67,-64.31 194.72,-57.51 187.5,-49 180.31,-40.53 176.66,-28.04 174.92,-19.72"/>
<polygon fill="#9a32cd" stroke="#9a32cd" points="212.93,-72.7 223.45,-73.98 216.03,-66.42 212.93,-72.7"/>
<text text-anchor="middle" x="206" y="-41" font-family="Helvetica,sans-Serif" font-size="10.00"> strings</text>
</g>
<!-- Node3&#45;&gt;Node3 -->
<g id="edge6" class="edge">
<title>Node3&#45;&gt;Node3</title>
<path fill="none" stroke="#9a32cd" stroke-dasharray="5,2" d="M328.11,-88.69C333.04,-87.46 336,-85.73 336,-83.5 336,-80.02 328.79,-77.76 318.13,-76.7"/>
<polygon fill="#9a32cd" stroke="#9a32cd" points="327.44,-85.26 318.13,-90.3 328.56,-92.17 327.44,-85.26"/>
<text text-anchor="middle" x="370.5" y="-92" font-family="Helvetica,sans-Serif" font-size="10.00"> next</text>
<text text-anchor="middle" x="370.5" y="-81" font-family="Helvetica,sans-Serif" font-size="10.00">freeCollection</text>
<text text-anchor="middle" x="370.5" y="-70" font-family="Helvetica,sans-Serif" font-size="10.00">get</text>
</g>
<!-- Node4 -->
<g id="node4" class="node">
<title>Node4</title>
<g id="a_node4"><a xlink:href="structfiftyone_degrees_collection_item.html" target="_top" xlink:title="Used to store a handle to the underlying item that could be used to release the item when it&#39;s finish...">
<polygon fill="none" stroke="black" points="238,-0.5 238,-19.5 403,-19.5 403,-0.5 238,-0.5"/>
<text text-anchor="middle" x="320.5" y="-7.5" font-family="Helvetica,sans-Serif" font-size="10.00">fiftyoneDegreesCollectionItem</text>
</a>
</g>
</g>
<!-- Node3&#45;&gt;Node4 -->
<g id="edge4" class="edge">
<title>Node3&#45;&gt;Node4</title>
<path fill="none" stroke="#9a32cd" stroke-dasharray="5,2" d="M240.16,-63.86C238.44,-55.27 238.27,-45.37 243.5,-38 249.56,-29.45 258.56,-23.58 268.28,-19.57"/>
<polygon fill="#9a32cd" stroke="#9a32cd" points="236.86,-65.05 242.89,-73.76 243.6,-63.18 236.86,-65.05"/>
<text text-anchor="middle" x="269" y="-41" font-family="Helvetica,sans-Serif" font-size="10.00"> collection</text>
</g>
<!-- Node4&#45;&gt;Node3 -->
<g id="edge3" class="edge">
<title>Node4&#45;&gt;Node3</title>
<path fill="none" stroke="#9a32cd" stroke-dasharray="5,2" d="M312.45,-28.8C308.82,-35.61 304.08,-43.14 298.5,-49 288.72,-59.26 275.2,-67.84 264.4,-73.76"/>
<polygon fill="#9a32cd" stroke="#9a32cd" points="315.7,-30.13 316.95,-19.61 309.41,-27.05 315.7,-30.13"/>
<text text-anchor="middle" x="326.5" y="-41" font-family="Helvetica,sans-Serif" font-size="10.00"> release</text>
</g>
<!-- Node5 -->
<g id="node5" class="node">
<title>Node5</title>
<g id="a_node5"><a xlink:href="structfiftyone_degrees_data.html" target="_top" xlink:title="Data structure used for reusing memory which may have been allocated in a previous operation.">
<polygon fill="none" stroke="black" points="423,-74 423,-93 540,-93 540,-74 423,-74"/>
<text text-anchor="middle" x="481.5" y="-81" font-family="Helvetica,sans-Serif" font-size="10.00">fiftyoneDegreesData</text>
</a>
</g>
</g>
<!-- Node5&#45;&gt;Node4 -->
<g id="edge5" class="edge">
<title>Node5&#45;&gt;Node4</title>
<path fill="none" stroke="#9a32cd" stroke-dasharray="5,2" d="M452.65,-69.69C420.11,-55.24 368.07,-32.13 339.99,-19.66"/>
<polygon fill="#9a32cd" stroke="#9a32cd" points="451.52,-73.02 462.08,-73.88 454.36,-66.62 451.52,-73.02"/>
<text text-anchor="middle" x="418" y="-41" font-family="Helvetica,sans-Serif" font-size="10.00"> data</text>
</g>
</g>
</svg>
