<?xml version="1.0" encoding="UTF-8" standalone="no"?>
<!DOCTYPE svg PUBLIC "-//W3C//DTD SVG 1.1//EN"
 "http://www.w3.org/Graphics/SVG/1.1/DTD/svg11.dtd">
<!-- Generated by graphviz version 2.43.0 (0)
 -->
<!-- Title: fiftyoneDegreesIpiList Pages: 1 -->
<svg width="438pt" height="231pt"
 viewBox="0.00 0.00 438.00 231.00" xmlns="http://www.w3.org/2000/svg" xmlns:xlink="http://www.w3.org/1999/xlink">
<g id="graph0" class="graph" transform="scale(1 1) rotate(0) translate(4 227)">
<title>fiftyoneDegreesIpiList</title>
<!-- Node1 -->
<g id="node1" class="node">
<title>Node1</title>
<g id="a_node1"><a xlink:title="The structure which represents the list of values returned for the required property from the results...">
<polygon fill="#bfbfbf" stroke="black" points="28,-0.5 28,-19.5 151,-19.5 151,-0.5 28,-0.5"/>
<text text-anchor="middle" x="89.5" y="-7.5" font-family="Helvetica,sans-Serif" font-size="10.00">fiftyoneDegreesIpiList</text>
</a>
</g>
</g>
<!-- Node2 -->
<g id="node2" class="node">
<title>Node2</title>
<g id="a_node2"><a xlink:href="structfiftyone_degrees_profile_percentage.html" target="_top" xlink:title="The structure to hold a pair of result item and its percentage When getting values for a property fro...">
<polygon fill="none" stroke="black" points="0,-68.5 0,-87.5 179,-87.5 179,-68.5 0,-68.5"/>
<text text-anchor="middle" x="89.5" y="-75.5" font-family="Helvetica,sans-Serif" font-size="10.00">fiftyoneDegreesProfilePercentage</text>
</a>
</g>
</g>
<!-- Node2&#45;&gt;Node1 -->
<g id="edge1" class="edge">
<title>Node2&#45;&gt;Node1</title>
<path fill="none" stroke="#9a32cd" stroke-dasharray="5,2" d="M89.5,-58.04C89.5,-45.47 89.5,-29.56 89.5,-19.84"/>
<polygon fill="#9a32cd" stroke="#9a32cd" points="86,-58.37 89.5,-68.37 93,-58.37 86,-58.37"/>
<text text-anchor="middle" x="105" y="-41" font-family="Helvetica,sans-Serif" font-size="10.00"> items</text>
</g>
<!-- Node3 -->
<g id="node3" class="node">
<title>Node3</title>
<g id="a_node3"><a xlink:href="structfiftyone_degrees_collection_item.html" target="_top" xlink:title="Used to store a handle to the underlying item that could be used to release the item when it&#39;s finish...">
<polygon fill="none" stroke="black" points="123,-136.5 123,-155.5 288,-155.5 288,-136.5 123,-136.5"/>
<text text-anchor="middle" x="205.5" y="-143.5" font-family="Helvetica,sans-Serif" font-size="10.00">fiftyoneDegreesCollectionItem</text>
</a>
</g>
</g>
<!-- Node3&#45;&gt;Node2 -->
<g id="edge2" class="edge">
<title>Node3&#45;&gt;Node2</title>
<path fill="none" stroke="#9a32cd" stroke-dasharray="5,2" d="M181.49,-131.34C158.4,-118.2 124.21,-98.75 104.67,-87.63"/>
<polygon fill="#9a32cd" stroke="#9a32cd" points="179.91,-134.47 190.34,-136.37 183.37,-128.38 179.91,-134.47"/>
<text text-anchor="middle" x="171.5" y="-110" font-family="Helvetica,sans-Serif" font-size="10.00"> item</text>
</g>
<!-- Node4 -->
<g id="node4" class="node">
<title>Node4</title>
<g id="a_node4"><a xlink:href="structfiftyone_degrees_collection.html" target="_top" xlink:title="All the shared methods and fields required by file, memory and cached collections.">
<polygon fill="none" stroke="black" points="197,-68.5 197,-87.5 340,-87.5 340,-68.5 197,-68.5"/>
<text text-anchor="middle" x="268.5" y="-75.5" font-family="Helvetica,sans-Serif" font-size="10.00">fiftyoneDegreesCollection</text>
</a>
</g>
</g>
<!-- Node3&#45;&gt;Node4 -->
<g id="edge4" class="edge">
<title>Node3&#45;&gt;Node4</title>
<path fill="none" stroke="#9a32cd" stroke-dasharray="5,2" d="M199.48,-126.25C198.5,-119.69 198.8,-112.59 202.5,-107 208.55,-97.87 218.23,-91.7 228.35,-87.55"/>
<polygon fill="#9a32cd" stroke="#9a32cd" points="196.19,-127.52 201.98,-136.39 202.99,-125.84 196.19,-127.52"/>
<text text-anchor="middle" x="222.5" y="-110" font-family="Helvetica,sans-Serif" font-size="10.00"> release</text>
</g>
<!-- Node4&#45;&gt;Node3 -->
<g id="edge3" class="edge">
<title>Node4&#45;&gt;Node3</title>
<path fill="none" stroke="#9a32cd" stroke-dasharray="5,2" d="M260.64,-96.98C257,-104.04 252.2,-111.89 246.5,-118 239.64,-125.35 230.39,-131.66 222.41,-136.33"/>
<polygon fill="#9a32cd" stroke="#9a32cd" points="264.01,-98.04 265.12,-87.5 257.68,-95.05 264.01,-98.04"/>
<text text-anchor="middle" x="280" y="-110" font-family="Helvetica,sans-Serif" font-size="10.00"> collection</text>
</g>
<!-- Node4&#45;&gt;Node4 -->
<g id="edge5" class="edge">
<title>Node4&#45;&gt;Node4</title>
<path fill="none" stroke="#9a32cd" stroke-dasharray="5,2" d="M350.11,-82.41C355.04,-81.36 358,-79.89 358,-78 358,-75.04 350.79,-73.12 340.13,-72.22"/>
<polygon fill="#9a32cd" stroke="#9a32cd" points="349.56,-78.96 340.13,-83.78 350.51,-85.89 349.56,-78.96"/>
<text text-anchor="middle" x="394" y="-81" font-family="Helvetica,sans-Serif" font-size="10.00"> freeCollection</text>
<text text-anchor="middle" x="394" y="-70" font-family="Helvetica,sans-Serif" font-size="10.00">get</text>
</g>
<!-- Node5 -->
<g id="node5" class="node">
<title>Node5</title>
<g id="a_node5"><a xlink:href="structfiftyone_degrees_data.html" target="_top" xlink:title="Data structure used for reusing memory which may have been allocated in a previous operation.">
<polygon fill="none" stroke="black" points="147,-203.5 147,-222.5 264,-222.5 264,-203.5 147,-203.5"/>
<text text-anchor="middle" x="205.5" y="-210.5" font-family="Helvetica,sans-Serif" font-size="10.00">fiftyoneDegreesData</text>
</a>
</g>
</g>
<!-- Node5&#45;&gt;Node3 -->
<g id="edge6" class="edge">
<title>Node5&#45;&gt;Node3</title>
<path fill="none" stroke="#9a32cd" stroke-dasharray="5,2" d="M205.5,-193.04C205.5,-180.67 205.5,-165.12 205.5,-155.63"/>
<polygon fill="#9a32cd" stroke="#9a32cd" points="202,-193.23 205.5,-203.23 209,-193.23 202,-193.23"/>
<text text-anchor="middle" x="218" y="-177" font-family="Helvetica,sans-Serif" font-size="10.00"> data</text>
</g>
</g>
</svg>
