<?xml version="1.0" encoding="UTF-8" standalone="no"?>
<!DOCTYPE svg PUBLIC "-//W3C//DTD SVG 1.1//EN"
 "http://www.w3.org/Graphics/SVG/1.1/DTD/svg11.dtd">
<!-- Generated by graphviz version 2.43.0 (0)
 -->
<!-- Title: addState Pages: 1 -->
<svg width="560pt" height="418pt"
 viewBox="0.00 0.00 559.50 418.00" xmlns="http://www.w3.org/2000/svg" xmlns:xlink="http://www.w3.org/1999/xlink">
<g id="graph0" class="graph" transform="scale(1 1) rotate(0) translate(4 414)">
<title>addState</title>
<!-- Node1 -->
<g id="node1" class="node">
<title>Node1</title>
<g id="a_node1"><a xlink:title=" ">
<polygon fill="#bfbfbf" stroke="black" points="258.5,-0.5 258.5,-19.5 318.5,-19.5 318.5,-0.5 258.5,-0.5"/>
<text text-anchor="middle" x="288.5" y="-7.5" font-family="Helvetica,sans-Serif" font-size="10.00">addState</text>
</a>
</g>
</g>
<!-- Node2 -->
<g id="node2" class="node">
<title>Node2</title>
<g id="a_node2"><a xlink:href="structfiftyone_degrees_override_value_array.html" target="_top" xlink:title="An array of properties and values to use when getting override values.">
<polygon fill="none" stroke="black" points="66,-183.5 66,-213.5 229,-213.5 229,-183.5 66,-183.5"/>
<text text-anchor="start" x="74" y="-201.5" font-family="Helvetica,sans-Serif" font-size="10.00">fiftyoneDegreesOverrideValue</text>
<text text-anchor="middle" x="147.5" y="-190.5" font-family="Helvetica,sans-Serif" font-size="10.00">Array</text>
</a>
</g>
</g>
<!-- Node2&#45;&gt;Node1 -->
<g id="edge1" class="edge">
<title>Node2&#45;&gt;Node1</title>
<path fill="none" stroke="#9a32cd" stroke-dasharray="5,2" d="M164.19,-175.42C195.34,-134.22 261.07,-47.29 281.97,-19.64"/>
<polygon fill="#9a32cd" stroke="#9a32cd" points="161.34,-173.39 158.1,-183.48 166.92,-177.62 161.34,-173.39"/>
<text text-anchor="middle" x="226.5" y="-119" font-family="Helvetica,sans-Serif" font-size="10.00"> values</text>
</g>
<!-- Node3 -->
<g id="node3" class="node">
<title>Node3</title>
<g id="a_node3"><a xlink:href="structfiftyone_degrees_override_value.html" target="_top" xlink:title="String value which should override the value for the property indicated by the required property inde...">
<polygon fill="none" stroke="black" points="0,-318 0,-337 163,-337 163,-318 0,-318"/>
<text text-anchor="middle" x="81.5" y="-325" font-family="Helvetica,sans-Serif" font-size="10.00">fiftyoneDegreesOverrideValue</text>
</a>
</g>
</g>
<!-- Node3&#45;&gt;Node2 -->
<g id="edge2" class="edge">
<title>Node3&#45;&gt;Node2</title>
<path fill="none" stroke="#9a32cd" stroke-dasharray="5,2" d="M82.93,-307.9C85.24,-287.76 91.2,-255.37 106.5,-232 111.08,-225.01 117.66,-218.84 124.21,-213.82"/>
<polygon fill="#9a32cd" stroke="#9a32cd" points="79.44,-307.66 81.97,-317.95 86.41,-308.32 79.44,-307.66"/>
<text text-anchor="middle" x="103" y="-286" font-family="Helvetica,sans-Serif" font-size="10.00"> items</text>
</g>
<!-- Node4 -->
<g id="node4" class="node">
<title>Node4</title>
<g id="a_node4"><a xlink:href="structfiftyone_degrees_data.html" target="_top" xlink:title="Data structure used for reusing memory which may have been allocated in a previous operation.">
<polygon fill="none" stroke="black" points="114,-390.5 114,-409.5 231,-409.5 231,-390.5 114,-390.5"/>
<text text-anchor="middle" x="172.5" y="-397.5" font-family="Helvetica,sans-Serif" font-size="10.00">fiftyoneDegreesData</text>
</a>
</g>
</g>
<!-- Node4&#45;&gt;Node3 -->
<g id="edge3" class="edge">
<title>Node4&#45;&gt;Node3</title>
<path fill="none" stroke="#9a32cd" stroke-dasharray="5,2" d="M153.11,-383.97C134.74,-369.75 107.81,-348.88 92.75,-337.22"/>
<polygon fill="#9a32cd" stroke="#9a32cd" points="151.29,-387 161.34,-390.36 155.58,-381.46 151.29,-387"/>
<text text-anchor="middle" x="151" y="-364" font-family="Helvetica,sans-Serif" font-size="10.00"> string</text>
</g>
<!-- Node9 -->
<g id="node9" class="node">
<title>Node9</title>
<g id="a_node9"><a xlink:href="structfiftyone_degrees_collection_item.html" target="_top" xlink:title="Used to store a handle to the underlying item that could be used to release the item when it&#39;s finish...">
<polygon fill="none" stroke="black" points="181,-318 181,-337 346,-337 346,-318 181,-318"/>
<text text-anchor="middle" x="263.5" y="-325" font-family="Helvetica,sans-Serif" font-size="10.00">fiftyoneDegreesCollectionItem</text>
</a>
</g>
</g>
<!-- Node4&#45;&gt;Node9 -->
<g id="edge12" class="edge">
<title>Node4&#45;&gt;Node9</title>
<path fill="none" stroke="#9a32cd" stroke-dasharray="5,2" d="M191.89,-383.97C210.26,-369.75 237.19,-348.88 252.25,-337.22"/>
<polygon fill="#9a32cd" stroke="#9a32cd" points="189.42,-381.46 183.66,-390.36 193.71,-387 189.42,-381.46"/>
<text text-anchor="middle" x="234" y="-364" font-family="Helvetica,sans-Serif" font-size="10.00"> data</text>
</g>
<!-- Node5 -->
<g id="node5" class="node">
<title>Node5</title>
<g id="a_node5"><a xlink:href="structfiftyone_degrees_override_property_array.html" target="_top" xlink:title="Array of items of type fiftyoneDegreesOverrideProperty used to easily access and track the size of th...">
<polygon fill="none" stroke="black" points="316,-67.5 316,-97.5 493,-97.5 493,-67.5 316,-67.5"/>
<text text-anchor="start" x="324" y="-85.5" font-family="Helvetica,sans-Serif" font-size="10.00">fiftyoneDegreesOverrideProperty</text>
<text text-anchor="middle" x="404.5" y="-74.5" font-family="Helvetica,sans-Serif" font-size="10.00">Array</text>
</a>
</g>
</g>
<!-- Node5&#45;&gt;Node1 -->
<g id="edge4" class="edge">
<title>Node5&#45;&gt;Node1</title>
<path fill="none" stroke="#9a32cd" stroke-dasharray="5,2" d="M372.58,-62.1C349.63,-48.15 319.8,-30.02 302.54,-19.53"/>
<polygon fill="#9a32cd" stroke="#9a32cd" points="370.94,-65.2 381.3,-67.4 374.58,-59.22 370.94,-65.2"/>
<text text-anchor="middle" x="376" y="-41" font-family="Helvetica,sans-Serif" font-size="10.00"> properties</text>
</g>
<!-- Node6 -->
<g id="node6" class="node">
<title>Node6</title>
<g id="a_node6"><a xlink:href="structfiftyone_degrees_override_property.html" target="_top" xlink:title="Index and pointer to a property which can be overridden.">
<polygon fill="none" stroke="black" points="353,-145.5 353,-164.5 530,-164.5 530,-145.5 353,-145.5"/>
<text text-anchor="middle" x="441.5" y="-152.5" font-family="Helvetica,sans-Serif" font-size="10.00">fiftyoneDegreesOverrideProperty</text>
</a>
</g>
</g>
<!-- Node6&#45;&gt;Node5 -->
<g id="edge5" class="edge">
<title>Node6&#45;&gt;Node5</title>
<path fill="none" stroke="#9a32cd" stroke-dasharray="5,2" d="M432.22,-136.32C425.93,-124.34 417.73,-108.72 411.89,-97.58"/>
<polygon fill="#9a32cd" stroke="#9a32cd" points="429.22,-138.13 436.96,-145.36 435.42,-134.87 429.22,-138.13"/>
<text text-anchor="middle" x="441" y="-119" font-family="Helvetica,sans-Serif" font-size="10.00"> items</text>
</g>
<!-- Node7 -->
<g id="node7" class="node">
<title>Node7</title>
<g id="a_node7"><a xlink:href="structfiftyone_degrees_property_available.html" target="_top" xlink:title="Used to access the property item quickly without the need to search.">
<polygon fill="none" stroke="black" points="364.5,-239 364.5,-258 544.5,-258 544.5,-239 364.5,-239"/>
<text text-anchor="middle" x="454.5" y="-246" font-family="Helvetica,sans-Serif" font-size="10.00">fiftyoneDegreesPropertyAvailable</text>
</a>
</g>
</g>
<!-- Node7&#45;&gt;Node6 -->
<g id="edge6" class="edge">
<title>Node7&#45;&gt;Node6</title>
<path fill="none" stroke="#9a32cd" stroke-dasharray="5,2" d="M451.85,-228.81C449.06,-209.2 444.8,-179.23 442.72,-164.61"/>
<polygon fill="#9a32cd" stroke="#9a32cd" points="448.38,-229.32 453.25,-238.73 455.31,-228.33 448.38,-229.32"/>
<text text-anchor="middle" x="474" y="-196" font-family="Helvetica,sans-Serif" font-size="10.00"> available</text>
</g>
<!-- Node8 -->
<g id="node8" class="node">
<title>Node8</title>
<g id="a_node8"><a xlink:href="structfiftyone_degrees_evidence_property_index_array.html" target="_top" xlink:title="Array of items of type fiftyoneDegreesEvidencePropertyIndex used to easily access and track the size ...">
<polygon fill="none" stroke="black" points="365,-312.5 365,-342.5 544,-342.5 544,-312.5 365,-312.5"/>
<text text-anchor="start" x="373" y="-330.5" font-family="Helvetica,sans-Serif" font-size="10.00">fiftyoneDegreesEvidenceProperty</text>
<text text-anchor="middle" x="454.5" y="-319.5" font-family="Helvetica,sans-Serif" font-size="10.00">IndexArray</text>
</a>
</g>
</g>
<!-- Node8&#45;&gt;Node7 -->
<g id="edge7" class="edge">
<title>Node8&#45;&gt;Node7</title>
<path fill="none" stroke="#9a32cd" stroke-dasharray="5,2" d="M454.5,-302.21C454.5,-287.22 454.5,-268.88 454.5,-258.26"/>
<polygon fill="#9a32cd" stroke="#9a32cd" points="451,-302.38 454.5,-312.38 458,-302.38 451,-302.38"/>
<text text-anchor="middle" x="503" y="-286" font-family="Helvetica,sans-Serif" font-size="10.00"> evidenceProperties</text>
</g>
<!-- Node9&#45;&gt;Node7 -->
<g id="edge8" class="edge">
<title>Node9&#45;&gt;Node7</title>
<path fill="none" stroke="#9a32cd" stroke-dasharray="5,2" d="M294.44,-314.03C333.44,-298.3 399.47,-271.68 433.24,-258.07"/>
<polygon fill="#9a32cd" stroke="#9a32cd" points="292.64,-310.98 284.67,-317.97 295.25,-317.47 292.64,-310.98"/>
<text text-anchor="middle" x="385" y="-286" font-family="Helvetica,sans-Serif" font-size="10.00"> name</text>
</g>
<!-- Node10 -->
<g id="node10" class="node">
<title>Node10</title>
<g id="a_node10"><a xlink:href="structfiftyone_degrees_collection.html" target="_top" xlink:title="All the shared methods and fields required by file, memory and cached collections.">
<polygon fill="none" stroke="black" points="116,-239 116,-258 259,-258 259,-239 116,-239"/>
<text text-anchor="middle" x="187.5" y="-246" font-family="Helvetica,sans-Serif" font-size="10.00">fiftyoneDegreesCollection</text>
</a>
</g>
</g>
<!-- Node9&#45;&gt;Node10 -->
<g id="edge10" class="edge">
<title>Node9&#45;&gt;Node10</title>
<path fill="none" stroke="#9a32cd" stroke-dasharray="5,2" d="M256.49,-308.35C252.64,-299.98 247.27,-290.31 240.5,-283 230.74,-272.45 216.95,-263.88 205.89,-258.04"/>
<polygon fill="#9a32cd" stroke="#9a32cd" points="253.3,-309.81 260.41,-317.67 259.75,-307.09 253.3,-309.81"/>
<text text-anchor="middle" x="268.5" y="-286" font-family="Helvetica,sans-Serif" font-size="10.00"> release</text>
</g>
<!-- Node10&#45;&gt;Node9 -->
<g id="edge9" class="edge">
<title>Node10&#45;&gt;Node9</title>
<path fill="none" stroke="#9a32cd" stroke-dasharray="5,2" d="M184.08,-268.36C183.55,-276.87 184.45,-286.64 189.5,-294 197.43,-305.57 210.46,-313.06 223.39,-317.9"/>
<polygon fill="#9a32cd" stroke="#9a32cd" points="187.58,-268.57 185.38,-258.21 180.64,-267.68 187.58,-268.57"/>
<text text-anchor="middle" x="215" y="-286" font-family="Helvetica,sans-Serif" font-size="10.00"> collection</text>
</g>
<!-- Node10&#45;&gt;Node10 -->
<g id="edge11" class="edge">
<title>Node10&#45;&gt;Node10</title>
<path fill="none" stroke="#9a32cd" stroke-dasharray="5,2" d="M269.11,-253.69C274.04,-252.46 277,-250.73 277,-248.5 277,-245.02 269.79,-242.76 259.13,-241.7"/>
<polygon fill="#9a32cd" stroke="#9a32cd" points="268.44,-250.26 259.13,-255.3 269.56,-257.17 268.44,-250.26"/>
<text text-anchor="middle" x="311.5" y="-257" font-family="Helvetica,sans-Serif" font-size="10.00"> next</text>
<text text-anchor="middle" x="311.5" y="-246" font-family="Helvetica,sans-Serif" font-size="10.00">freeCollection</text>
<text text-anchor="middle" x="311.5" y="-235" font-family="Helvetica,sans-Serif" font-size="10.00">get</text>
</g>
</g>
</svg>
