<?xml version="1.0" encoding="UTF-8" standalone="no"?>
<!DOCTYPE svg PUBLIC "-//W3C//DTD SVG 1.1//EN"
 "http://www.w3.org/Graphics/SVG/1.1/DTD/svg11.dtd">
<!-- Generated by graphviz version 2.43.0 (0)
 -->
<!-- Title: offlineProcessState Pages: 1 -->
<svg width="1280pt" height="220pt"
 viewBox="0.00 0.00 1280.00 220.00" xmlns="http://www.w3.org/2000/svg" xmlns:xlink="http://www.w3.org/1999/xlink">
<g id="graph0" class="graph" transform="scale(1 1) rotate(0) translate(4 216)">
<title>offlineProcessState</title>
<!-- Node1 -->
<g id="node1" class="node">
<title>Node1</title>
<g id="a_node1"><a xlink:title="State used for the offline processing operation.">
<polygon fill="#bfbfbf" stroke="black" points="1162,-103.5 1162,-122.5 1272,-122.5 1272,-103.5 1162,-103.5"/>
<text text-anchor="middle" x="1217" y="-110.5" font-family="Helvetica,sans-Serif" font-size="10.00">offlineProcessState</text>
</a>
</g>
</g>
<!-- Node2 -->
<g id="node2" class="node">
<title>Node2</title>
<g id="a_node2"><a xlink:href="structfiftyone_degrees_result_ipi_array.html" target="_top" xlink:title="Array of items of type fiftyoneDegreesResultIpi used to easily access and track the size of the array...">
<polygon fill="none" stroke="black" points="952,-98 952,-128 1089,-128 1089,-98 952,-98"/>
<text text-anchor="start" x="960" y="-116" font-family="Helvetica,sans-Serif" font-size="10.00">fiftyoneDegreesResultIpi</text>
<text text-anchor="middle" x="1020.5" y="-105" font-family="Helvetica,sans-Serif" font-size="10.00">Array</text>
</a>
</g>
</g>
<!-- Node2&#45;&gt;Node1 -->
<g id="edge1" class="edge">
<title>Node2&#45;&gt;Node1</title>
<path fill="none" stroke="#9a32cd" stroke-dasharray="5,2" d="M1099.43,-113C1120.39,-113 1142.6,-113 1161.95,-113"/>
<polygon fill="#9a32cd" stroke="#9a32cd" points="1099.25,-109.5 1089.25,-113 1099.25,-116.5 1099.25,-109.5"/>
<text text-anchor="middle" x="1125.5" y="-116" font-family="Helvetica,sans-Serif" font-size="10.00"> results</text>
</g>
<!-- Node3 -->
<g id="node3" class="node">
<title>Node3</title>
<g id="a_node3"><a xlink:href="structfiftyone_degrees_result_ipi.html" target="_top" xlink:title="Singular IP address result returned by a detection process method.">
<polygon fill="none" stroke="black" points="734.5,-154.5 734.5,-173.5 871.5,-173.5 871.5,-154.5 734.5,-154.5"/>
<text text-anchor="middle" x="803" y="-161.5" font-family="Helvetica,sans-Serif" font-size="10.00">fiftyoneDegreesResultIpi</text>
</a>
</g>
</g>
<!-- Node3&#45;&gt;Node2 -->
<g id="edge2" class="edge">
<title>Node3&#45;&gt;Node2</title>
<path fill="none" stroke="#9a32cd" stroke-dasharray="5,2" d="M870.46,-152.61C890.94,-148.73 913.49,-144.08 934,-139 946.8,-135.83 960.53,-131.9 973.15,-128.06"/>
<polygon fill="#9a32cd" stroke="#9a32cd" points="869.78,-149.18 860.59,-154.46 871.06,-156.06 869.78,-149.18"/>
<text text-anchor="middle" x="916" y="-150" font-family="Helvetica,sans-Serif" font-size="10.00"> items</text>
</g>
<!-- Node4 -->
<g id="node4" class="node">
<title>Node4</title>
<g id="a_node4"><a xlink:href="structfiftyone_degrees_ip_address.html" target="_top" xlink:title="The structure to hold a IP Address in byte array format.">
<polygon fill="none" stroke="black" points="448.5,-192.5 448.5,-211.5 590.5,-211.5 590.5,-192.5 448.5,-192.5"/>
<text text-anchor="middle" x="519.5" y="-199.5" font-family="Helvetica,sans-Serif" font-size="10.00">fiftyoneDegreesIpAddress</text>
</a>
</g>
</g>
<!-- Node4&#45;&gt;Node3 -->
<g id="edge3" class="edge">
<title>Node4&#45;&gt;Node3</title>
<path fill="none" stroke="#9a32cd" stroke-dasharray="5,2" d="M601.02,-192.77C634.19,-188.8 672.98,-183.94 708,-179 719.78,-177.34 732.37,-175.42 744.38,-173.53"/>
<polygon fill="#9a32cd" stroke="#9a32cd" points="600.43,-189.32 590.92,-193.97 601.26,-196.27 600.43,-189.32"/>
<text text-anchor="middle" x="667.5" y="-192" font-family="Helvetica,sans-Serif" font-size="10.00"> targetIpAddress</text>
</g>
<!-- Node5 -->
<g id="node5" class="node">
<title>Node5</title>
<g id="a_node5"><a xlink:href="structfiftyone_degrees_ipi_cg_result.html" target="_top" xlink:title="The evaluation result from graph collection.">
<polygon fill="none" stroke="black" points="445,-154.5 445,-173.5 594,-173.5 594,-154.5 445,-154.5"/>
<text text-anchor="middle" x="519.5" y="-161.5" font-family="Helvetica,sans-Serif" font-size="10.00">fiftyoneDegreesIpiCgResult</text>
</a>
</g>
</g>
<!-- Node5&#45;&gt;Node3 -->
<g id="edge4" class="edge">
<title>Node5&#45;&gt;Node3</title>
<path fill="none" stroke="#9a32cd" stroke-dasharray="5,2" d="M604.18,-164C645.65,-164 695.07,-164 734.14,-164"/>
<polygon fill="#9a32cd" stroke="#9a32cd" points="604.09,-160.5 594.09,-164 604.09,-167.5 604.09,-160.5"/>
<text text-anchor="middle" x="667.5" y="-167" font-family="Helvetica,sans-Serif" font-size="10.00"> graphResult</text>
</g>
<!-- Node6 -->
<g id="node6" class="node">
<title>Node6</title>
<g id="a_node6"><a xlink:href="structfiftyone_degrees_ipi_list.html" target="_top" xlink:title="The structure which represents the list of values returned for the required property from the results...">
<polygon fill="none" stroke="black" points="741.5,-78.5 741.5,-97.5 864.5,-97.5 864.5,-78.5 741.5,-78.5"/>
<text text-anchor="middle" x="803" y="-85.5" font-family="Helvetica,sans-Serif" font-size="10.00">fiftyoneDegreesIpiList</text>
</a>
</g>
</g>
<!-- Node6&#45;&gt;Node2 -->
<g id="edge5" class="edge">
<title>Node6&#45;&gt;Node2</title>
<path fill="none" stroke="#9a32cd" stroke-dasharray="5,2" d="M874.77,-94.56C894,-96.49 914.82,-98.7 934,-101 939.8,-101.7 945.82,-102.46 951.86,-103.25"/>
<polygon fill="#9a32cd" stroke="#9a32cd" points="874.87,-91.05 864.57,-93.55 874.18,-98.02 874.87,-91.05"/>
<text text-anchor="middle" x="916" y="-104" font-family="Helvetica,sans-Serif" font-size="10.00"> values</text>
</g>
<!-- Node7 -->
<g id="node7" class="node">
<title>Node7</title>
<g id="a_node7"><a xlink:href="structfiftyone_degrees_profile_percentage.html" target="_top" xlink:title="The structure to hold a pair of result item and its percentage When getting values for a property fro...">
<polygon fill="none" stroke="black" points="430,-78.5 430,-97.5 609,-97.5 609,-78.5 430,-78.5"/>
<text text-anchor="middle" x="519.5" y="-85.5" font-family="Helvetica,sans-Serif" font-size="10.00">fiftyoneDegreesProfilePercentage</text>
</a>
</g>
</g>
<!-- Node7&#45;&gt;Node6 -->
<g id="edge6" class="edge">
<title>Node7&#45;&gt;Node6</title>
<path fill="none" stroke="#9a32cd" stroke-dasharray="5,2" d="M619.4,-88C660.04,-88 705.81,-88 741.36,-88"/>
<polygon fill="#9a32cd" stroke="#9a32cd" points="619.18,-84.5 609.18,-88 619.18,-91.5 619.18,-84.5"/>
<text text-anchor="middle" x="667.5" y="-91" font-family="Helvetica,sans-Serif" font-size="10.00"> items</text>
</g>
<!-- Node8 -->
<g id="node8" class="node">
<title>Node8</title>
<g id="a_node8"><a xlink:href="structfiftyone_degrees_collection_item.html" target="_top" xlink:title="Used to store a handle to the underlying item that could be used to release the item when it&#39;s finish...">
<polygon fill="none" stroke="black" points="178,-55.5 178,-74.5 343,-74.5 343,-55.5 178,-55.5"/>
<text text-anchor="middle" x="260.5" y="-62.5" font-family="Helvetica,sans-Serif" font-size="10.00">fiftyoneDegreesCollectionItem</text>
</a>
</g>
</g>
<!-- Node8&#45;&gt;Node2 -->
<g id="edge13" class="edge">
<title>Node8&#45;&gt;Node2</title>
<path fill="none" stroke="#9a32cd" stroke-dasharray="5,2" d="M299.92,-77.66C333.73,-88.06 384.52,-101.87 430,-107 617.9,-128.2 841.62,-121.93 951.59,-116.79"/>
<polygon fill="#9a32cd" stroke="#9a32cd" points="300.59,-74.2 290,-74.56 298.5,-80.88 300.59,-74.2"/>
<text text-anchor="middle" x="667.5" y="-124" font-family="Helvetica,sans-Serif" font-size="10.00"> propertyItem</text>
</g>
<!-- Node8&#45;&gt;Node7 -->
<g id="edge7" class="edge">
<title>Node8&#45;&gt;Node7</title>
<path fill="none" stroke="#9a32cd" stroke-dasharray="5,2" d="M353.34,-73.22C378.26,-75.45 405.19,-77.86 429.92,-80.07"/>
<polygon fill="#9a32cd" stroke="#9a32cd" points="353.44,-69.71 343.17,-72.31 352.82,-76.69 353.44,-69.71"/>
<text text-anchor="middle" x="386.5" y="-80" font-family="Helvetica,sans-Serif" font-size="10.00"> item</text>
</g>
<!-- Node9 -->
<g id="node9" class="node">
<title>Node9</title>
<g id="a_node9"><a xlink:href="structfiftyone_degrees_collection.html" target="_top" xlink:title="All the shared methods and fields required by file, memory and cached collections.">
<polygon fill="none" stroke="black" points="448,-0.5 448,-19.5 591,-19.5 591,-0.5 448,-0.5"/>
<text text-anchor="middle" x="519.5" y="-7.5" font-family="Helvetica,sans-Serif" font-size="10.00">fiftyoneDegreesCollection</text>
</a>
</g>
</g>
<!-- Node8&#45;&gt;Node9 -->
<g id="edge9" class="edge">
<title>Node8&#45;&gt;Node9</title>
<path fill="none" stroke="#9a32cd" stroke-dasharray="5,2" d="M315.96,-53.34C362.9,-43.3 429.83,-28.98 473.71,-19.59"/>
<polygon fill="#9a32cd" stroke="#9a32cd" points="315.02,-49.97 305.97,-55.48 316.48,-56.81 315.02,-49.97"/>
<text text-anchor="middle" x="386.5" y="-45" font-family="Helvetica,sans-Serif" font-size="10.00"> release</text>
</g>
<!-- Node9&#45;&gt;Node8 -->
<g id="edge8" class="edge">
<title>Node9&#45;&gt;Node8</title>
<path fill="none" stroke="#9a32cd" stroke-dasharray="5,2" d="M437.67,-5.89C412.77,-6.4 385.47,-8.79 361,-15 328.4,-23.28 294.15,-43.4 275.55,-55.44"/>
<polygon fill="#9a32cd" stroke="#9a32cd" points="437.85,-9.39 447.81,-5.79 437.78,-2.39 437.85,-9.39"/>
<text text-anchor="middle" x="386.5" y="-18" font-family="Helvetica,sans-Serif" font-size="10.00"> collection</text>
</g>
<!-- Node9&#45;&gt;Node9 -->
<g id="edge10" class="edge">
<title>Node9&#45;&gt;Node9</title>
<path fill="none" stroke="#9a32cd" stroke-dasharray="5,2" d="M494.95,-29.03C496.29,-34.13 504.47,-38 519.5,-38 542.96,-38 549.74,-28.57 539.85,-19.76"/>
<polygon fill="#9a32cd" stroke="#9a32cd" points="498.21,-30.31 499.15,-19.76 491.83,-27.42 498.21,-30.31"/>
<text text-anchor="middle" x="519.5" y="-52" font-family="Helvetica,sans-Serif" font-size="10.00"> freeCollection</text>
<text text-anchor="middle" x="519.5" y="-41" font-family="Helvetica,sans-Serif" font-size="10.00">get</text>
</g>
<!-- Node10 -->
<g id="node10" class="node">
<title>Node10</title>
<g id="a_node10"><a xlink:href="structfiftyone_degrees_data.html" target="_top" xlink:title="Data structure used for reusing memory which may have been allocated in a previous operation.">
<polygon fill="none" stroke="black" points="0,-55.5 0,-74.5 117,-74.5 117,-55.5 0,-55.5"/>
<text text-anchor="middle" x="58.5" y="-62.5" font-family="Helvetica,sans-Serif" font-size="10.00">fiftyoneDegreesData</text>
</a>
</g>
</g>
<!-- Node10&#45;&gt;Node8 -->
<g id="edge11" class="edge">
<title>Node10&#45;&gt;Node8</title>
<path fill="none" stroke="#9a32cd" stroke-dasharray="5,2" d="M127.5,-65C143.67,-65 161.08,-65 177.78,-65"/>
<polygon fill="#9a32cd" stroke="#9a32cd" points="127.08,-61.5 117.08,-65 127.08,-68.5 127.08,-61.5"/>
<text text-anchor="middle" x="147.5" y="-68" font-family="Helvetica,sans-Serif" font-size="10.00"> data</text>
</g>
<!-- Node11 -->
<g id="node11" class="node">
<title>Node11</title>
<g id="a_node11"><a xlink:href="structfiftyone_degrees_results_base.html" target="_top" xlink:title="Base results structure which any processing results should extend.">
<polygon fill="none" stroke="black" points="726,-40.5 726,-59.5 880,-59.5 880,-40.5 726,-40.5"/>
<text text-anchor="middle" x="803" y="-47.5" font-family="Helvetica,sans-Serif" font-size="10.00">fiftyoneDegreesResultsBase</text>
</a>
</g>
</g>
<!-- Node11&#45;&gt;Node2 -->
<g id="edge12" class="edge">
<title>Node11&#45;&gt;Node2</title>
<path fill="none" stroke="#9a32cd" stroke-dasharray="5,2" d="M860.07,-61.77C883.14,-67.03 910.03,-73.69 934,-81 950.07,-85.9 967.49,-92.23 982.39,-97.96"/>
<polygon fill="#9a32cd" stroke="#9a32cd" points="860.62,-58.31 850.1,-59.53 859.09,-65.14 860.62,-58.31"/>
<text text-anchor="middle" x="916" y="-84" font-family="Helvetica,sans-Serif" font-size="10.00"> b</text>
</g>
</g>
</svg>
