<?xml version="1.0" encoding="UTF-8" standalone="no"?>
<!DOCTYPE svg PUBLIC "-//W3C//DTD SVG 1.1//EN"
 "http://www.w3.org/Graphics/SVG/1.1/DTD/svg11.dtd">
<!-- Generated by graphviz version 2.43.0 (0)
 -->
<!-- Title: PropValuesChunkContext Pages: 1 -->
<svg width="675pt" height="231pt"
 viewBox="0.00 0.00 674.50 231.00" xmlns="http://www.w3.org/2000/svg" xmlns:xlink="http://www.w3.org/1999/xlink">
<g id="graph0" class="graph" transform="scale(1 1) rotate(0) translate(4 227)">
<title>PropValuesChunkContext</title>
<!-- Node1 -->
<g id="node1" class="node">
<title>Node1</title>
<g id="a_node1"><a xlink:title="Context structure for populating a property values chunk.">
<polygon fill="#bfbfbf" stroke="black" points="95.5,-0.5 95.5,-19.5 235.5,-19.5 235.5,-0.5 95.5,-0.5"/>
<text text-anchor="middle" x="165.5" y="-7.5" font-family="Helvetica,sans-Serif" font-size="10.00">PropValuesChunkContext</text>
</a>
</g>
</g>
<!-- Node2 -->
<g id="node2" class="node">
<title>Node2</title>
<g id="a_node2"><a xlink:href="struct_prop_values_chunk.html" target="_top" xlink:title="Structure for a chunk of property values of the same type.">
<polygon fill="none" stroke="black" points="9,-136.5 9,-155.5 110,-155.5 110,-136.5 9,-136.5"/>
<text text-anchor="middle" x="59.5" y="-143.5" font-family="Helvetica,sans-Serif" font-size="10.00">PropValuesChunk</text>
</a>
</g>
</g>
<!-- Node2&#45;&gt;Node1 -->
<g id="edge1" class="edge">
<title>Node2&#45;&gt;Node1</title>
<path fill="none" stroke="#9a32cd" stroke-dasharray="5,2" d="M45.65,-127.92C33.97,-111.31 21,-85.88 33.5,-67 50.75,-40.95 82.81,-26.98 111.01,-19.51"/>
<polygon fill="#9a32cd" stroke="#9a32cd" points="43.03,-130.26 51.84,-136.15 48.62,-126.05 43.03,-130.26"/>
<text text-anchor="middle" x="50" y="-75.5" font-family="Helvetica,sans-Serif" font-size="10.00"> chunk</text>
</g>
<!-- Node3 -->
<g id="node3" class="node">
<title>Node3</title>
<g id="a_node3"><a xlink:href="struct_prop_values_converter.html" target="_top" xlink:title="Structure defining a converter for property values.">
<polygon fill="none" stroke="black" points="0,-203.5 0,-222.5 119,-222.5 119,-203.5 0,-203.5"/>
<text text-anchor="middle" x="59.5" y="-210.5" font-family="Helvetica,sans-Serif" font-size="10.00">PropValuesConverter</text>
</a>
</g>
</g>
<!-- Node3&#45;&gt;Node2 -->
<g id="edge2" class="edge">
<title>Node3&#45;&gt;Node2</title>
<path fill="none" stroke="#9a32cd" stroke-dasharray="5,2" d="M59.5,-193.04C59.5,-180.67 59.5,-165.12 59.5,-155.63"/>
<polygon fill="#9a32cd" stroke="#9a32cd" points="56,-193.23 59.5,-203.23 63,-193.23 56,-193.23"/>
<text text-anchor="middle" x="84.5" y="-177" font-family="Helvetica,sans-Serif" font-size="10.00"> converter</text>
</g>
<!-- Node4 -->
<g id="node4" class="node">
<title>Node4</title>
<g id="a_node4"><a xlink:href="structfiftyone_degrees_data.html" target="_top" xlink:title="Data structure used for reusing memory which may have been allocated in a previous operation.">
<polygon fill="none" stroke="black" points="144,-203.5 144,-222.5 261,-222.5 261,-203.5 144,-203.5"/>
<text text-anchor="middle" x="202.5" y="-210.5" font-family="Helvetica,sans-Serif" font-size="10.00">fiftyoneDegreesData</text>
</a>
</g>
</g>
<!-- Node4&#45;&gt;Node2 -->
<g id="edge3" class="edge">
<title>Node4&#45;&gt;Node2</title>
<path fill="none" stroke="#9a32cd" stroke-dasharray="5,2" d="M174.15,-199.11C145.83,-186.24 103.07,-166.81 78.57,-155.67"/>
<polygon fill="#9a32cd" stroke="#9a32cd" points="172.96,-202.42 183.51,-203.37 175.86,-196.04 172.96,-202.42"/>
<text text-anchor="middle" x="153" y="-177" font-family="Helvetica,sans-Serif" font-size="10.00"> data</text>
</g>
<!-- Node7 -->
<g id="node7" class="node">
<title>Node7</title>
<g id="a_node7"><a xlink:href="structfiftyone_degrees_collection_item.html" target="_top" xlink:title="Used to store a handle to the underlying item that could be used to release the item when it&#39;s finish...">
<polygon fill="none" stroke="black" points="147,-136.5 147,-155.5 312,-155.5 312,-136.5 147,-136.5"/>
<text text-anchor="middle" x="229.5" y="-143.5" font-family="Helvetica,sans-Serif" font-size="10.00">fiftyoneDegreesCollectionItem</text>
</a>
</g>
</g>
<!-- Node4&#45;&gt;Node7 -->
<g id="edge10" class="edge">
<title>Node4&#45;&gt;Node7</title>
<path fill="none" stroke="#9a32cd" stroke-dasharray="5,2" d="M210.06,-193.79C215.25,-181.31 221.89,-165.31 225.92,-155.63"/>
<polygon fill="#9a32cd" stroke="#9a32cd" points="206.75,-192.66 206.14,-203.23 213.21,-195.34 206.75,-192.66"/>
<text text-anchor="middle" x="231" y="-177" font-family="Helvetica,sans-Serif" font-size="10.00"> data</text>
</g>
<!-- Node5 -->
<g id="node5" class="node">
<title>Node5</title>
<g id="a_node5"><a xlink:href="structfiftyone_degrees_exception.html" target="_top" xlink:title="Structure used to represent a 51Degrees exception and passed into methods that might generate excepti...">
<polygon fill="none" stroke="black" points="524.5,-68.5 524.5,-87.5 666.5,-87.5 666.5,-68.5 524.5,-68.5"/>
<text text-anchor="middle" x="595.5" y="-75.5" font-family="Helvetica,sans-Serif" font-size="10.00">fiftyoneDegreesException</text>
</a>
</g>
</g>
<!-- Node5&#45;&gt;Node1 -->
<g id="edge4" class="edge">
<title>Node5&#45;&gt;Node1</title>
<path fill="none" stroke="#9a32cd" stroke-dasharray="5,2" d="M529.74,-66.91C445.34,-53.95 300.39,-31.7 221.18,-19.55"/>
<polygon fill="#9a32cd" stroke="#9a32cd" points="529.31,-70.38 539.73,-68.44 530.37,-63.46 529.31,-70.38"/>
<text text-anchor="middle" x="432.5" y="-41" font-family="Helvetica,sans-Serif" font-size="10.00"> exception</text>
</g>
<!-- Node6 -->
<g id="node6" class="node">
<title>Node6</title>
<g id="a_node6"><a xlink:href="structfiftyone_degrees_profile_percentage.html" target="_top" xlink:title="The structure to hold a pair of result item and its percentage When getting values for a property fro...">
<polygon fill="none" stroke="black" points="76,-68.5 76,-87.5 255,-87.5 255,-68.5 76,-68.5"/>
<text text-anchor="middle" x="165.5" y="-75.5" font-family="Helvetica,sans-Serif" font-size="10.00">fiftyoneDegreesProfilePercentage</text>
</a>
</g>
</g>
<!-- Node6&#45;&gt;Node1 -->
<g id="edge5" class="edge">
<title>Node6&#45;&gt;Node1</title>
<path fill="none" stroke="#9a32cd" stroke-dasharray="5,2" d="M165.5,-58.04C165.5,-45.47 165.5,-29.56 165.5,-19.84"/>
<polygon fill="#9a32cd" stroke="#9a32cd" points="162,-58.37 165.5,-68.37 169,-58.37 162,-58.37"/>
<text text-anchor="middle" x="197.5" y="-41" font-family="Helvetica,sans-Serif" font-size="10.00"> valuesItems</text>
</g>
<!-- Node7&#45;&gt;Node6 -->
<g id="edge6" class="edge">
<title>Node7&#45;&gt;Node6</title>
<path fill="none" stroke="#9a32cd" stroke-dasharray="5,2" d="M214.03,-129.05C201.49,-116.11 184.27,-98.36 174.07,-87.84"/>
<polygon fill="#9a32cd" stroke="#9a32cd" points="211.66,-131.63 221.13,-136.37 216.68,-126.76 211.66,-131.63"/>
<text text-anchor="middle" x="216.5" y="-110" font-family="Helvetica,sans-Serif" font-size="10.00"> item</text>
</g>
<!-- Node8 -->
<g id="node8" class="node">
<title>Node8</title>
<g id="a_node8"><a xlink:href="structfiftyone_degrees_collection.html" target="_top" xlink:title="All the shared methods and fields required by file, memory and cached collections.">
<polygon fill="none" stroke="black" points="273,-68.5 273,-87.5 416,-87.5 416,-68.5 273,-68.5"/>
<text text-anchor="middle" x="344.5" y="-75.5" font-family="Helvetica,sans-Serif" font-size="10.00">fiftyoneDegreesCollection</text>
</a>
</g>
</g>
<!-- Node7&#45;&gt;Node8 -->
<g id="edge8" class="edge">
<title>Node7&#45;&gt;Node8</title>
<path fill="none" stroke="#9a32cd" stroke-dasharray="5,2" d="M238.33,-127.13C242.64,-119.99 248.44,-112.24 255.5,-107 267.73,-97.93 282.98,-91.75 297.38,-87.56"/>
<polygon fill="#9a32cd" stroke="#9a32cd" points="235.1,-125.73 233.39,-136.19 241.25,-129.08 235.1,-125.73"/>
<text text-anchor="middle" x="275.5" y="-110" font-family="Helvetica,sans-Serif" font-size="10.00"> release</text>
</g>
<!-- Node8&#45;&gt;Node7 -->
<g id="edge7" class="edge">
<title>Node8&#45;&gt;Node7</title>
<path fill="none" stroke="#9a32cd" stroke-dasharray="5,2" d="M328.9,-94.92C320.69,-102.64 310.13,-111.61 299.5,-118 286.66,-125.72 271.23,-131.95 258.13,-136.47"/>
<polygon fill="#9a32cd" stroke="#9a32cd" points="331.53,-97.23 336.24,-87.75 326.64,-92.23 331.53,-97.23"/>
<text text-anchor="middle" x="340" y="-110" font-family="Helvetica,sans-Serif" font-size="10.00"> collection</text>
</g>
<!-- Node8&#45;&gt;Node8 -->
<g id="edge9" class="edge">
<title>Node8&#45;&gt;Node8</title>
<path fill="none" stroke="#9a32cd" stroke-dasharray="5,2" d="M426.11,-82.41C431.04,-81.36 434,-79.89 434,-78 434,-75.04 426.79,-73.12 416.13,-72.22"/>
<polygon fill="#9a32cd" stroke="#9a32cd" points="425.56,-78.96 416.13,-83.78 426.51,-85.89 425.56,-78.96"/>
<text text-anchor="middle" x="470" y="-81" font-family="Helvetica,sans-Serif" font-size="10.00"> freeCollection</text>
<text text-anchor="middle" x="470" y="-70" font-family="Helvetica,sans-Serif" font-size="10.00">get</text>
</g>
</g>
</svg>
