<?xml version="1.0" encoding="UTF-8" standalone="no"?>
<!DOCTYPE svg PUBLIC "-//W3C//DTD SVG 1.1//EN"
 "http://www.w3.org/Graphics/SVG/1.1/DTD/svg11.dtd">
<!-- Generated by graphviz version 2.43.0 (0)
 -->
<!-- Title: performanceThreadState Pages: 1 -->
<svg width="1410pt" height="588pt"
 viewBox="0.00 0.00 1410.00 588.00" xmlns="http://www.w3.org/2000/svg" xmlns:xlink="http://www.w3.org/1999/xlink">
<g id="graph0" class="graph" transform="scale(1 1) rotate(0) translate(4 584)">
<title>performanceThreadState</title>
<!-- Node1 -->
<g id="node1" class="node">
<title>Node1</title>
<g id="a_node1"><a xlink:title="Individual thread performance state where all members are exclusively accessed by a single test threa...">
<polygon fill="#bfbfbf" stroke="black" points="1264,-146.5 1264,-165.5 1402,-165.5 1402,-146.5 1264,-146.5"/>
<text text-anchor="middle" x="1333" y="-153.5" font-family="Helvetica,sans-Serif" font-size="10.00">performanceThreadState</text>
</a>
</g>
</g>
<!-- Node2 -->
<g id="node2" class="node">
<title>Node2</title>
<g id="a_node2"><a xlink:href="structperformance_state.html" target="_top" xlink:title="Shared performance state.">
<polygon fill="none" stroke="black" points="1039.5,-208.5 1039.5,-227.5 1143.5,-227.5 1143.5,-208.5 1039.5,-208.5"/>
<text text-anchor="middle" x="1091.5" y="-215.5" font-family="Helvetica,sans-Serif" font-size="10.00">performanceState</text>
</a>
</g>
</g>
<!-- Node2&#45;&gt;Node1 -->
<g id="edge1" class="edge">
<title>Node2&#45;&gt;Node1</title>
<path fill="none" stroke="#9a32cd" stroke-dasharray="5,2" d="M1122.63,-204.31C1138.78,-197.42 1159.18,-189.4 1178,-184 1205.69,-176.06 1236.85,-169.9 1263.86,-165.4"/>
<polygon fill="#9a32cd" stroke="#9a32cd" points="1120.95,-201.23 1113.18,-208.43 1123.74,-207.65 1120.95,-201.23"/>
<text text-anchor="middle" x="1212" y="-198" font-family="Helvetica,sans-Serif" font-size="10.00"> main</text>
<text text-anchor="middle" x="1212" y="-187" font-family="Helvetica,sans-Serif" font-size="10.00">state</text>
</g>
<!-- Node7 -->
<g id="node7" class="node">
<title>Node7</title>
<g id="a_node7"><a xlink:href="structthread_state.html" target="_top" xlink:title="State specific to a single thread.">
<polygon fill="none" stroke="black" points="1296,-259.5 1296,-278.5 1370,-278.5 1370,-259.5 1296,-259.5"/>
<text text-anchor="middle" x="1333" y="-266.5" font-family="Helvetica,sans-Serif" font-size="10.00">threadState</text>
</a>
</g>
</g>
<!-- Node2&#45;&gt;Node7 -->
<g id="edge15" class="edge">
<title>Node2&#45;&gt;Node7</title>
<path fill="none" stroke="#9a32cd" stroke-dasharray="5,2" d="M1147.26,-229.66C1192.76,-239.35 1256.22,-252.86 1295.67,-261.26"/>
<polygon fill="#9a32cd" stroke="#9a32cd" points="1147.78,-226.19 1137.27,-227.53 1146.32,-233.04 1147.78,-226.19"/>
<text text-anchor="middle" x="1212" y="-252" font-family="Helvetica,sans-Serif" font-size="10.00"> mainState</text>
</g>
<!-- Node3 -->
<g id="node3" class="node">
<title>Node3</title>
<g id="a_node3"><a xlink:href="structfiftyone_degrees_resource_manager.html" target="_top" xlink:title="Manager structure used to provide access to a shared and changing resource.">
<polygon fill="none" stroke="black" points="430,-432.5 430,-451.5 612,-451.5 612,-432.5 430,-432.5"/>
<text text-anchor="middle" x="521" y="-439.5" font-family="Helvetica,sans-Serif" font-size="10.00">fiftyoneDegreesResourceManager</text>
</a>
</g>
</g>
<!-- Node3&#45;&gt;Node2 -->
<g id="edge2" class="edge">
<title>Node3&#45;&gt;Node2</title>
<path fill="none" stroke="#9a32cd" stroke-dasharray="5,2" d="M587.67,-430.61C705.21,-409.01 944.93,-359 1005,-301 1017.3,-289.12 1011.79,-279.91 1023,-267 1037.33,-250.49 1058.24,-236.41 1072.98,-227.63"/>
<polygon fill="#9a32cd" stroke="#9a32cd" points="586.92,-427.19 577.71,-432.43 588.17,-434.08 586.92,-427.19"/>
<text text-anchor="middle" x="815.5" y="-403" font-family="Helvetica,sans-Serif" font-size="10.00"> manager</text>
</g>
<!-- Node4 -->
<g id="node4" class="node">
<title>Node4</title>
<g id="a_node4"><a xlink:href="structfiftyone_degrees_resource_handle.html" target="_top" xlink:title="Handle for a shared resource.">
<polygon fill="none" stroke="black" points="729,-468.5 729,-487.5 902,-487.5 902,-468.5 729,-468.5"/>
<text text-anchor="middle" x="815.5" y="-475.5" font-family="Helvetica,sans-Serif" font-size="10.00">fiftyoneDegreesResourceHandle</text>
</a>
</g>
</g>
<!-- Node3&#45;&gt;Node4 -->
<g id="edge4" class="edge">
<title>Node3&#45;&gt;Node4</title>
<path fill="none" stroke="#9a32cd" stroke-dasharray="5,2" d="M561.71,-454.43C581.94,-460.22 607.06,-466.57 630,-470 662.03,-474.79 697.5,-477.05 728.72,-478.02"/>
<polygon fill="#9a32cd" stroke="#9a32cd" points="562.49,-451.01 551.91,-451.57 560.52,-457.73 562.49,-451.01"/>
<text text-anchor="middle" x="670.5" y="-480" font-family="Helvetica,sans-Serif" font-size="10.00"> manager</text>
</g>
<!-- Node12 -->
<g id="node12" class="node">
<title>Node12</title>
<g id="a_node12"><a xlink:href="class_resource_manager.html" target="_top" xlink:title=" ">
<polygon fill="none" stroke="black" points="1039.5,-436.5 1039.5,-455.5 1143.5,-455.5 1143.5,-436.5 1039.5,-436.5"/>
<text text-anchor="middle" x="1091.5" y="-443.5" font-family="Helvetica,sans-Serif" font-size="10.00">ResourceManager</text>
</a>
</g>
</g>
<!-- Node3&#45;&gt;Node12 -->
<g id="edge19" class="edge">
<title>Node3&#45;&gt;Node12</title>
<path fill="none" stroke="#9a32cd" stroke-dasharray="5,2" d="M622.18,-442.7C744.18,-443.56 945.58,-444.98 1039.42,-445.64"/>
<polygon fill="#9a32cd" stroke="#9a32cd" points="622.1,-439.2 612.08,-442.63 622.06,-446.2 622.1,-439.2"/>
<text text-anchor="middle" x="815.5" y="-447" font-family="Helvetica,sans-Serif" font-size="10.00"> manager</text>
</g>
<!-- Node4&#45;&gt;Node3 -->
<g id="edge3" class="edge">
<title>Node4&#45;&gt;Node3</title>
<path fill="none" stroke="#9a32cd" stroke-dasharray="5,2" d="M757.54,-466.57C742.45,-463.81 726.15,-461.07 711,-459 678.85,-454.61 643.46,-451.08 612.08,-448.4"/>
<polygon fill="#9a32cd" stroke="#9a32cd" points="757.29,-470.09 767.76,-468.48 758.57,-463.21 757.29,-470.09"/>
<text text-anchor="middle" x="670.5" y="-462" font-family="Helvetica,sans-Serif" font-size="10.00"> active</text>
</g>
<!-- Node4&#45;&gt;Node12 -->
<g id="edge20" class="edge">
<title>Node4&#45;&gt;Node12</title>
<path fill="none" stroke="#9a32cd" stroke-dasharray="5,2" d="M908.03,-467.31C951.68,-462.21 1002.27,-456.3 1039.1,-452"/>
<polygon fill="#9a32cd" stroke="#9a32cd" points="907.49,-463.85 897.97,-468.49 908.31,-470.8 907.49,-463.85"/>
<text text-anchor="middle" x="962.5" y="-468" font-family="Helvetica,sans-Serif" font-size="10.00"> resourceHandle</text>
</g>
<!-- Node5 -->
<g id="node5" class="node">
<title>Node5</title>
<g id="a_node5"><a xlink:href="structfiftyone_degrees_interlock_double_width.html" target="_top" xlink:title="Double width (64 or 128 depending on the architecture) compare and exchange.">
<polygon fill="none" stroke="black" points="452.5,-511 452.5,-541 589.5,-541 589.5,-511 452.5,-511"/>
<text text-anchor="start" x="460.5" y="-529" font-family="Helvetica,sans-Serif" font-size="10.00">fiftyoneDegreesInterlock</text>
<text text-anchor="middle" x="521" y="-518" font-family="Helvetica,sans-Serif" font-size="10.00">DoubleWidth</text>
</a>
</g>
</g>
<!-- Node5&#45;&gt;Node4 -->
<g id="edge5" class="edge">
<title>Node5&#45;&gt;Node4</title>
<path fill="none" stroke="#9a32cd" stroke-dasharray="5,2" d="M599.81,-513.23C649,-505.16 711.53,-494.9 756.41,-487.53"/>
<polygon fill="#9a32cd" stroke="#9a32cd" points="599.14,-509.79 589.84,-514.87 600.28,-516.7 599.14,-509.79"/>
<text text-anchor="middle" x="670.5" y="-510" font-family="Helvetica,sans-Serif" font-size="10.00"> counter</text>
</g>
<!-- Node6 -->
<g id="node6" class="node">
<title>Node6</title>
<g id="a_node6"><a xlink:href="structshared_string_node.html" target="_top" xlink:title=" ">
<polygon fill="none" stroke="black" points="763.5,-203.5 763.5,-222.5 867.5,-222.5 867.5,-203.5 763.5,-203.5"/>
<text text-anchor="middle" x="815.5" y="-210.5" font-family="Helvetica,sans-Serif" font-size="10.00">sharedStringNode</text>
</a>
</g>
</g>
<!-- Node6&#45;&gt;Node2 -->
<g id="edge6" class="edge">
<title>Node6&#45;&gt;Node2</title>
<path fill="none" stroke="#9a32cd" stroke-dasharray="5,2" d="M877.78,-214.12C926.3,-215 993.31,-216.23 1039.07,-217.06"/>
<polygon fill="#9a32cd" stroke="#9a32cd" points="877.78,-210.62 867.72,-213.93 877.65,-217.62 877.78,-210.62"/>
<text text-anchor="middle" x="962.5" y="-230" font-family="Helvetica,sans-Serif" font-size="10.00"> sharedStringLast</text>
<text text-anchor="middle" x="962.5" y="-219" font-family="Helvetica,sans-Serif" font-size="10.00">sharedStringFirst</text>
</g>
<!-- Node6&#45;&gt;Node6 -->
<g id="edge7" class="edge">
<title>Node6&#45;&gt;Node6</title>
<path fill="none" stroke="#9a32cd" stroke-dasharray="5,2" d="M788.62,-231.65C789.74,-236.94 798.7,-241 815.5,-241 841.09,-241 848.49,-231.57 837.69,-222.76"/>
<polygon fill="#9a32cd" stroke="#9a32cd" points="791.74,-233.24 793.31,-222.76 785.55,-229.97 791.74,-233.24"/>
<text text-anchor="middle" x="815.5" y="-244" font-family="Helvetica,sans-Serif" font-size="10.00"> next</text>
</g>
<!-- Node7&#45;&gt;Node2 -->
<g id="edge8" class="edge">
<title>Node7&#45;&gt;Node2</title>
<path fill="none" stroke="#9a32cd" stroke-dasharray="5,2" d="M1311.76,-253.12C1295.15,-241.14 1270.46,-225.68 1246,-219 1212.71,-209.91 1173.82,-209.76 1143.51,-211.83"/>
<polygon fill="#9a32cd" stroke="#9a32cd" points="1309.99,-256.17 1320.1,-259.33 1314.18,-250.55 1309.99,-256.17"/>
<text text-anchor="middle" x="1212" y="-222" font-family="Helvetica,sans-Serif" font-size="10.00"> threadStates</text>
</g>
<!-- Node8 -->
<g id="node8" class="node">
<title>Node8</title>
<g id="a_node8"><a xlink:href="structevidence_node.html" target="_top" xlink:title=" ">
<polygon fill="none" stroke="black" points="1048.5,-276.5 1048.5,-295.5 1134.5,-295.5 1134.5,-276.5 1048.5,-276.5"/>
<text text-anchor="middle" x="1091.5" y="-283.5" font-family="Helvetica,sans-Serif" font-size="10.00">evidenceNode</text>
</a>
</g>
</g>
<!-- Node8&#45;&gt;Node7 -->
<g id="edge9" class="edge">
<title>Node8&#45;&gt;Node7</title>
<path fill="none" stroke="#9a32cd" stroke-dasharray="5,2" d="M1144.77,-282.29C1190.41,-279.05 1255.46,-274.43 1295.64,-271.58"/>
<polygon fill="#9a32cd" stroke="#9a32cd" points="1144.49,-278.8 1134.77,-283 1144.99,-285.78 1144.49,-278.8"/>
<text text-anchor="middle" x="1212" y="-293" font-family="Helvetica,sans-Serif" font-size="10.00"> evidenceLast</text>
<text text-anchor="middle" x="1212" y="-282" font-family="Helvetica,sans-Serif" font-size="10.00">evidenceFirst</text>
</g>
<!-- Node8&#45;&gt;Node8 -->
<g id="edge10" class="edge">
<title>Node8&#45;&gt;Node8</title>
<path fill="none" stroke="#9a32cd" stroke-dasharray="5,2" d="M1069.18,-305.03C1070.4,-310.13 1077.84,-314 1091.5,-314 1112.83,-314 1118.99,-304.57 1110,-295.76"/>
<polygon fill="#9a32cd" stroke="#9a32cd" points="1072.43,-306.34 1073,-295.76 1065.95,-303.67 1072.43,-306.34"/>
<text text-anchor="middle" x="1091.5" y="-317" font-family="Helvetica,sans-Serif" font-size="10.00"> next</text>
</g>
<!-- Node9 -->
<g id="node9" class="node">
<title>Node9</title>
<g id="a_node9"><a xlink:href="structfiftyone_degrees_evidence_key_value_pair_array.html" target="_top" xlink:title="Array of evidence key value pairs and a pointer to the next array if present or NULL of not present.">
<polygon fill="none" stroke="black" points="737.5,-271 737.5,-301 893.5,-301 893.5,-271 737.5,-271"/>
<text text-anchor="start" x="745.5" y="-289" font-family="Helvetica,sans-Serif" font-size="10.00">fiftyoneDegreesEvidenceKey</text>
<text text-anchor="middle" x="815.5" y="-278" font-family="Helvetica,sans-Serif" font-size="10.00">ValuePairArray</text>
</a>
</g>
</g>
<!-- Node9&#45;&gt;Node8 -->
<g id="edge11" class="edge">
<title>Node9&#45;&gt;Node8</title>
<path fill="none" stroke="#9a32cd" stroke-dasharray="5,2" d="M903.72,-286C952.07,-286 1010,-286 1048.39,-286"/>
<polygon fill="#9a32cd" stroke="#9a32cd" points="903.55,-282.5 893.55,-286 903.55,-289.5 903.55,-282.5"/>
<text text-anchor="middle" x="962.5" y="-289" font-family="Helvetica,sans-Serif" font-size="10.00"> array</text>
</g>
<!-- Node9&#45;&gt;Node9 -->
<g id="edge14" class="edge">
<title>Node9&#45;&gt;Node9</title>
<path fill="none" stroke="#9a32cd" stroke-dasharray="5,2" d="M789.91,-311.46C793.09,-316.18 801.62,-319.5 815.5,-319.5 838.28,-319.5 846.65,-310.56 840.59,-301.16"/>
<polygon fill="#9a32cd" stroke="#9a32cd" points="793.42,-311.31 790.41,-301.16 786.43,-310.98 793.42,-311.31"/>
<text text-anchor="middle" x="815.5" y="-333.5" font-family="Helvetica,sans-Serif" font-size="10.00"> prev</text>
<text text-anchor="middle" x="815.5" y="-322.5" font-family="Helvetica,sans-Serif" font-size="10.00">next</text>
</g>
<!-- Node10 -->
<g id="node10" class="node">
<title>Node10</title>
<g id="a_node10"><a xlink:href="structfiftyone_degrees_evidence_key_value_pair.html" target="_top" xlink:title="Evidence key value pair structure which combines the prefix, key and value.">
<polygon fill="none" stroke="black" points="443,-271 443,-301 599,-301 599,-271 443,-271"/>
<text text-anchor="start" x="451" y="-289" font-family="Helvetica,sans-Serif" font-size="10.00">fiftyoneDegreesEvidenceKey</text>
<text text-anchor="middle" x="521" y="-278" font-family="Helvetica,sans-Serif" font-size="10.00">ValuePair</text>
</a>
</g>
</g>
<!-- Node10&#45;&gt;Node9 -->
<g id="edge12" class="edge">
<title>Node10&#45;&gt;Node9</title>
<path fill="none" stroke="#9a32cd" stroke-dasharray="5,2" d="M609.41,-286C650.08,-286 698.03,-286 737.34,-286"/>
<polygon fill="#9a32cd" stroke="#9a32cd" points="609.23,-282.5 599.23,-286 609.23,-289.5 609.23,-282.5"/>
<text text-anchor="middle" x="670.5" y="-289" font-family="Helvetica,sans-Serif" font-size="10.00"> items</text>
</g>
<!-- Node11 -->
<g id="node11" class="node">
<title>Node11</title>
<g id="a_node11"><a xlink:href="structfiftyone_degrees_key_value_pair.html" target="_top" xlink:title=" ">
<polygon fill="none" stroke="black" points="182,-276.5 182,-295.5 339,-295.5 339,-276.5 182,-276.5"/>
<text text-anchor="middle" x="260.5" y="-283.5" font-family="Helvetica,sans-Serif" font-size="10.00">fiftyoneDegreesKeyValuePair</text>
</a>
</g>
</g>
<!-- Node11&#45;&gt;Node10 -->
<g id="edge13" class="edge">
<title>Node11&#45;&gt;Node10</title>
<path fill="none" stroke="#9a32cd" stroke-dasharray="5,2" d="M349.23,-286C379.63,-286 413.46,-286 442.94,-286"/>
<polygon fill="#9a32cd" stroke="#9a32cd" points="349.06,-282.5 339.06,-286 349.06,-289.5 349.06,-282.5"/>
<text text-anchor="middle" x="386.5" y="-289" font-family="Helvetica,sans-Serif" font-size="10.00"> item</text>
</g>
<!-- Node12&#45;&gt;Node7 -->
<g id="edge16" class="edge">
<title>Node12&#45;&gt;Node7</title>
<path fill="none" stroke="#9a32cd" stroke-dasharray="5,2" d="M1113.57,-430.43C1161.94,-394.68 1279.83,-307.56 1319.06,-278.56"/>
<polygon fill="#9a32cd" stroke="#9a32cd" points="1111.34,-427.73 1105.38,-436.48 1115.5,-433.35 1111.34,-427.73"/>
<text text-anchor="middle" x="1212" y="-381" font-family="Helvetica,sans-Serif" font-size="10.00"> manager</text>
</g>
<!-- Node13 -->
<g id="node13" class="node">
<title>Node13</title>
<g id="a_node13"><a xlink:href="class_base.html" target="_top" xlink:title="Base test class used to carry out memory leak checks.">
<polygon fill="none" stroke="black" points="795,-533.5 795,-552.5 836,-552.5 836,-533.5 795,-533.5"/>
<text text-anchor="middle" x="815.5" y="-540.5" font-family="Helvetica,sans-Serif" font-size="10.00">Base</text>
</a>
</g>
</g>
<!-- Node13&#45;&gt;Node12 -->
<g id="edge17" class="edge">
<title>Node13&#45;&gt;Node12</title>
<path fill="none" stroke="midnightblue" d="M845.87,-533.75C883.1,-521.89 949.16,-500.42 1005,-480 1026.3,-472.21 1050.28,-462.6 1067.41,-455.59"/>
<polygon fill="midnightblue" stroke="midnightblue" points="844.64,-530.47 836.16,-536.83 846.75,-537.14 844.64,-530.47"/>
</g>
<!-- Node14 -->
<g id="node14" class="node">
<title>Node14</title>
<g id="a_node14"><a xlink:title=" ">
<polygon fill="none" stroke="#bfbfbf" points="483,-560.5 483,-579.5 559,-579.5 559,-560.5 483,-560.5"/>
<text text-anchor="middle" x="521" y="-567.5" font-family="Helvetica,sans-Serif" font-size="10.00">testing::Test</text>
</a>
</g>
</g>
<!-- Node14&#45;&gt;Node13 -->
<g id="edge18" class="edge">
<title>Node14&#45;&gt;Node13</title>
<path fill="none" stroke="midnightblue" d="M569.06,-565.66C634.26,-559.64 749.19,-549.03 794.93,-544.81"/>
<polygon fill="midnightblue" stroke="midnightblue" points="568.68,-562.18 559.05,-566.58 569.32,-569.15 568.68,-562.18"/>
</g>
<!-- Node15 -->
<g id="node15" class="node">
<title>Node15</title>
<g id="a_node15"><a xlink:href="structfiftyone_degrees_result_ipi_array.html" target="_top" xlink:title="Array of items of type fiftyoneDegreesResultIpi used to easily access and track the size of the array...">
<polygon fill="none" stroke="black" points="1023,-122 1023,-152 1160,-152 1160,-122 1023,-122"/>
<text text-anchor="start" x="1031" y="-140" font-family="Helvetica,sans-Serif" font-size="10.00">fiftyoneDegreesResultIpi</text>
<text text-anchor="middle" x="1091.5" y="-129" font-family="Helvetica,sans-Serif" font-size="10.00">Array</text>
</a>
</g>
</g>
<!-- Node15&#45;&gt;Node1 -->
<g id="edge21" class="edge">
<title>Node15&#45;&gt;Node1</title>
<path fill="none" stroke="#9a32cd" stroke-dasharray="5,2" d="M1170.49,-136.05C1194.74,-136.41 1221.52,-137.5 1246,-140 1259.9,-141.42 1274.92,-143.88 1288.45,-146.46"/>
<polygon fill="#9a32cd" stroke="#9a32cd" points="1170.31,-132.54 1160.27,-135.93 1170.23,-139.54 1170.31,-132.54"/>
<text text-anchor="middle" x="1212" y="-143" font-family="Helvetica,sans-Serif" font-size="10.00"> results</text>
</g>
<!-- Node16 -->
<g id="node16" class="node">
<title>Node16</title>
<g id="a_node16"><a xlink:href="structfiftyone_degrees_result_ipi.html" target="_top" xlink:title="Singular IP address result returned by a detection process method.">
<polygon fill="none" stroke="black" points="747,-165.5 747,-184.5 884,-184.5 884,-165.5 747,-165.5"/>
<text text-anchor="middle" x="815.5" y="-172.5" font-family="Helvetica,sans-Serif" font-size="10.00">fiftyoneDegreesResultIpi</text>
</a>
</g>
</g>
<!-- Node16&#45;&gt;Node15 -->
<g id="edge22" class="edge">
<title>Node16&#45;&gt;Node15</title>
<path fill="none" stroke="#9a32cd" stroke-dasharray="5,2" d="M894.53,-165.7C928.5,-161.49 968.76,-156.27 1005,-151 1010.81,-150.16 1016.83,-149.24 1022.86,-148.3"/>
<polygon fill="#9a32cd" stroke="#9a32cd" points="893.69,-162.28 884.19,-166.97 894.55,-169.22 893.69,-162.28"/>
<text text-anchor="middle" x="962.5" y="-165" font-family="Helvetica,sans-Serif" font-size="10.00"> items</text>
</g>
<!-- Node17 -->
<g id="node17" class="node">
<title>Node17</title>
<g id="a_node17"><a xlink:href="structfiftyone_degrees_ip_address.html" target="_top" xlink:title="The structure to hold a IP Address in byte array format.">
<polygon fill="none" stroke="black" points="450,-203.5 450,-222.5 592,-222.5 592,-203.5 450,-203.5"/>
<text text-anchor="middle" x="521" y="-210.5" font-family="Helvetica,sans-Serif" font-size="10.00">fiftyoneDegreesIpAddress</text>
</a>
</g>
</g>
<!-- Node17&#45;&gt;Node16 -->
<g id="edge23" class="edge">
<title>Node17&#45;&gt;Node16</title>
<path fill="none" stroke="#9a32cd" stroke-dasharray="5,2" d="M602.29,-203.64C635.9,-199.61 675.37,-194.75 711,-190 723.78,-188.3 737.43,-186.38 750.49,-184.51"/>
<polygon fill="#9a32cd" stroke="#9a32cd" points="601.57,-200.2 592.06,-204.86 602.4,-207.15 601.57,-200.2"/>
<text text-anchor="middle" x="670.5" y="-202" font-family="Helvetica,sans-Serif" font-size="10.00"> targetIpAddress</text>
</g>
<!-- Node18 -->
<g id="node18" class="node">
<title>Node18</title>
<g id="a_node18"><a xlink:href="structfiftyone_degrees_ipi_cg_result.html" target="_top" xlink:title="The evaluation result from graph collection.">
<polygon fill="none" stroke="black" points="446.5,-165.5 446.5,-184.5 595.5,-184.5 595.5,-165.5 446.5,-165.5"/>
<text text-anchor="middle" x="521" y="-172.5" font-family="Helvetica,sans-Serif" font-size="10.00">fiftyoneDegreesIpiCgResult</text>
</a>
</g>
</g>
<!-- Node18&#45;&gt;Node16 -->
<g id="edge24" class="edge">
<title>Node18&#45;&gt;Node16</title>
<path fill="none" stroke="#9a32cd" stroke-dasharray="5,2" d="M606.06,-175C650.69,-175 704.82,-175 746.73,-175"/>
<polygon fill="#9a32cd" stroke="#9a32cd" points="605.81,-171.5 595.81,-175 605.81,-178.5 605.81,-171.5"/>
<text text-anchor="middle" x="670.5" y="-178" font-family="Helvetica,sans-Serif" font-size="10.00"> graphResult</text>
</g>
<!-- Node19 -->
<g id="node19" class="node">
<title>Node19</title>
<g id="a_node19"><a xlink:href="structfiftyone_degrees_ipi_list.html" target="_top" xlink:title="The structure which represents the list of values returned for the required property from the results...">
<polygon fill="none" stroke="black" points="754,-89.5 754,-108.5 877,-108.5 877,-89.5 754,-89.5"/>
<text text-anchor="middle" x="815.5" y="-96.5" font-family="Helvetica,sans-Serif" font-size="10.00">fiftyoneDegreesIpiList</text>
</a>
</g>
</g>
<!-- Node19&#45;&gt;Node15 -->
<g id="edge25" class="edge">
<title>Node19&#45;&gt;Node15</title>
<path fill="none" stroke="#9a32cd" stroke-dasharray="5,2" d="M887.45,-100.28C922.97,-101.84 966.5,-105.13 1005,-112 1018.4,-114.39 1032.69,-118.09 1045.67,-121.92"/>
<polygon fill="#9a32cd" stroke="#9a32cd" points="887.31,-96.77 877.18,-99.87 887.03,-103.77 887.31,-96.77"/>
<text text-anchor="middle" x="962.5" y="-115" font-family="Helvetica,sans-Serif" font-size="10.00"> values</text>
</g>
<!-- Node20 -->
<g id="node20" class="node">
<title>Node20</title>
<g id="a_node20"><a xlink:href="structfiftyone_degrees_profile_percentage.html" target="_top" xlink:title="The structure to hold a pair of result item and its percentage When getting values for a property fro...">
<polygon fill="none" stroke="black" points="431.5,-89.5 431.5,-108.5 610.5,-108.5 610.5,-89.5 431.5,-89.5"/>
<text text-anchor="middle" x="521" y="-96.5" font-family="Helvetica,sans-Serif" font-size="10.00">fiftyoneDegreesProfilePercentage</text>
</a>
</g>
</g>
<!-- Node20&#45;&gt;Node19 -->
<g id="edge26" class="edge">
<title>Node20&#45;&gt;Node19</title>
<path fill="none" stroke="#9a32cd" stroke-dasharray="5,2" d="M620.71,-99C664.73,-99 715.19,-99 753.58,-99"/>
<polygon fill="#9a32cd" stroke="#9a32cd" points="620.55,-95.5 610.55,-99 620.55,-102.5 620.55,-95.5"/>
<text text-anchor="middle" x="670.5" y="-102" font-family="Helvetica,sans-Serif" font-size="10.00"> items</text>
</g>
<!-- Node21 -->
<g id="node21" class="node">
<title>Node21</title>
<g id="a_node21"><a xlink:href="structfiftyone_degrees_collection_item.html" target="_top" xlink:title="Used to store a handle to the underlying item that could be used to release the item when it&#39;s finish...">
<polygon fill="none" stroke="black" points="178,-62.5 178,-81.5 343,-81.5 343,-62.5 178,-62.5"/>
<text text-anchor="middle" x="260.5" y="-69.5" font-family="Helvetica,sans-Serif" font-size="10.00">fiftyoneDegreesCollectionItem</text>
</a>
</g>
</g>
<!-- Node21&#45;&gt;Node15 -->
<g id="edge33" class="edge">
<title>Node21&#45;&gt;Node15</title>
<path fill="none" stroke="#9a32cd" stroke-dasharray="5,2" d="M297.45,-84.93C331.16,-96.31 383.26,-111.97 430,-118 645.03,-145.74 902.57,-142.88 1022.64,-139.48"/>
<polygon fill="#9a32cd" stroke="#9a32cd" points="298.19,-81.49 287.6,-81.55 295.92,-88.11 298.19,-81.49"/>
<text text-anchor="middle" x="670.5" y="-141" font-family="Helvetica,sans-Serif" font-size="10.00"> propertyItem</text>
</g>
<!-- Node21&#45;&gt;Node20 -->
<g id="edge27" class="edge">
<title>Node21&#45;&gt;Node20</title>
<path fill="none" stroke="#9a32cd" stroke-dasharray="5,2" d="M353.25,-81.58C378.57,-84.23 405.98,-87.09 431.13,-89.72"/>
<polygon fill="#9a32cd" stroke="#9a32cd" points="353.6,-78.1 343.29,-80.54 352.87,-85.06 353.6,-78.1"/>
<text text-anchor="middle" x="386.5" y="-90" font-family="Helvetica,sans-Serif" font-size="10.00"> item</text>
</g>
<!-- Node22 -->
<g id="node22" class="node">
<title>Node22</title>
<g id="a_node22"><a xlink:href="structfiftyone_degrees_collection.html" target="_top" xlink:title="All the shared methods and fields required by file, memory and cached collections.">
<polygon fill="none" stroke="black" points="449.5,-0.5 449.5,-19.5 592.5,-19.5 592.5,-0.5 449.5,-0.5"/>
<text text-anchor="middle" x="521" y="-7.5" font-family="Helvetica,sans-Serif" font-size="10.00">fiftyoneDegreesCollection</text>
</a>
</g>
</g>
<!-- Node21&#45;&gt;Node22 -->
<g id="edge29" class="edge">
<title>Node21&#45;&gt;Node22</title>
<path fill="none" stroke="#9a32cd" stroke-dasharray="5,2" d="M311.11,-60.1C360.29,-48.31 434.67,-30.47 480.13,-19.56"/>
<polygon fill="#9a32cd" stroke="#9a32cd" points="310.23,-56.71 301.32,-62.45 311.86,-63.52 310.23,-56.71"/>
<text text-anchor="middle" x="386.5" y="-49" font-family="Helvetica,sans-Serif" font-size="10.00"> release</text>
</g>
<!-- Node22&#45;&gt;Node21 -->
<g id="edge28" class="edge">
<title>Node22&#45;&gt;Node21</title>
<path fill="none" stroke="#9a32cd" stroke-dasharray="5,2" d="M438.95,-7.86C413.61,-8.97 385.8,-12.06 361,-19 327.83,-28.29 293.24,-49.86 274.86,-62.43"/>
<polygon fill="#9a32cd" stroke="#9a32cd" points="439.4,-11.35 449.27,-7.51 439.16,-4.35 439.4,-11.35"/>
<text text-anchor="middle" x="386.5" y="-22" font-family="Helvetica,sans-Serif" font-size="10.00"> collection</text>
</g>
<!-- Node22&#45;&gt;Node22 -->
<g id="edge30" class="edge">
<title>Node22&#45;&gt;Node22</title>
<path fill="none" stroke="#9a32cd" stroke-dasharray="5,2" d="M496.07,-29.03C497.43,-34.13 505.74,-38 521,-38 544.82,-38 551.7,-28.57 541.65,-19.76"/>
<polygon fill="#9a32cd" stroke="#9a32cd" points="499.34,-30.3 500.35,-19.76 492.98,-27.37 499.34,-30.3"/>
<text text-anchor="middle" x="521" y="-63" font-family="Helvetica,sans-Serif" font-size="10.00"> next</text>
<text text-anchor="middle" x="521" y="-52" font-family="Helvetica,sans-Serif" font-size="10.00">freeCollection</text>
<text text-anchor="middle" x="521" y="-41" font-family="Helvetica,sans-Serif" font-size="10.00">get</text>
</g>
<!-- Node23 -->
<g id="node23" class="node">
<title>Node23</title>
<g id="a_node23"><a xlink:href="structfiftyone_degrees_data.html" target="_top" xlink:title="Data structure used for reusing memory which may have been allocated in a previous operation.">
<polygon fill="none" stroke="black" points="0,-62.5 0,-81.5 117,-81.5 117,-62.5 0,-62.5"/>
<text text-anchor="middle" x="58.5" y="-69.5" font-family="Helvetica,sans-Serif" font-size="10.00">fiftyoneDegreesData</text>
</a>
</g>
</g>
<!-- Node23&#45;&gt;Node21 -->
<g id="edge31" class="edge">
<title>Node23&#45;&gt;Node21</title>
<path fill="none" stroke="#9a32cd" stroke-dasharray="5,2" d="M127.5,-72C143.67,-72 161.08,-72 177.78,-72"/>
<polygon fill="#9a32cd" stroke="#9a32cd" points="127.08,-68.5 117.08,-72 127.08,-75.5 127.08,-68.5"/>
<text text-anchor="middle" x="147.5" y="-75" font-family="Helvetica,sans-Serif" font-size="10.00"> data</text>
</g>
<!-- Node24 -->
<g id="node24" class="node">
<title>Node24</title>
<g id="a_node24"><a xlink:href="structfiftyone_degrees_results_base.html" target="_top" xlink:title="Base results structure which any processing results should extend.">
<polygon fill="none" stroke="black" points="738.5,-51.5 738.5,-70.5 892.5,-70.5 892.5,-51.5 738.5,-51.5"/>
<text text-anchor="middle" x="815.5" y="-58.5" font-family="Helvetica,sans-Serif" font-size="10.00">fiftyoneDegreesResultsBase</text>
</a>
</g>
</g>
<!-- Node24&#45;&gt;Node15 -->
<g id="edge32" class="edge">
<title>Node24&#45;&gt;Node15</title>
<path fill="none" stroke="#9a32cd" stroke-dasharray="5,2" d="M902.83,-65.76C935.5,-69.4 972.6,-75.79 1005,-87 1028.73,-95.21 1053.2,-110.32 1069.85,-121.79"/>
<polygon fill="#9a32cd" stroke="#9a32cd" points="903.15,-62.27 892.84,-64.71 902.42,-69.23 903.15,-62.27"/>
<text text-anchor="middle" x="962.5" y="-90" font-family="Helvetica,sans-Serif" font-size="10.00"> b</text>
</g>
</g>
</svg>
